<svg width="30" height="30" viewBox="0 0 30 30" fill="none" xmlns="http://www.w3.org/2000/svg">
<path d="M23.7504 14.9502C23.5859 14.9493 23.4228 14.9808 23.2705 15.043C23.1182 15.1052 22.9797 15.1969 22.8629 15.3127C22.747 15.4295 22.6554 15.5681 22.5932 15.7203C22.531 15.8726 22.4995 16.0357 22.5004 16.2002V24.9502C22.4961 25.191 22.4222 25.4254 22.2879 25.6252L11.7379 17.6002C11.4105 17.2722 11.0205 17.0135 10.5909 16.8395C10.1614 16.6656 9.70122 16.5799 9.23787 16.5877C8.77471 16.5813 8.31496 16.6676 7.88563 16.8415C7.4563 17.0154 7.06606 17.2734 6.73787 17.6002L4.9004 19.4627V9.95022C4.89945 9.78571 4.93097 9.62264 4.99318 9.47035C5.05538 9.31805 5.14702 9.17953 5.26287 9.06273C5.37967 8.94688 5.51822 8.85521 5.67051 8.79301C5.82281 8.7308 5.98589 8.69927 6.1504 8.70022H8.6504C8.81579 8.69953 8.9794 8.66603 9.13174 8.60166C9.28408 8.53729 9.42208 8.44334 9.53785 8.32523C9.76878 8.09241 9.89902 7.77814 9.9004 7.45022C9.90135 7.28571 9.86983 7.12264 9.80763 6.97035C9.74542 6.81805 9.6537 6.67953 9.53785 6.56273C9.42105 6.44688 9.28259 6.35521 9.13029 6.29301C8.97799 6.2308 8.81491 6.19927 8.6504 6.20022H6.1504C5.15797 6.19777 4.20504 6.58885 3.50041 7.28773C3.1506 7.6371 2.8733 8.0522 2.68452 8.50914C2.49574 8.96608 2.39919 9.45582 2.4004 9.95022V24.9502C2.41697 25.4544 2.53513 25.9501 2.74777 26.4076C2.9604 26.8651 3.26313 27.275 3.63789 27.6127C4.34048 28.3162 5.29366 28.7119 6.28788 28.7127H21.2879C22.2821 28.7119 23.2353 28.3162 23.9379 27.6127C24.6413 26.9101 25.037 25.957 25.0379 24.9627V16.2127C25.0388 16.0482 25.0073 15.8851 24.9451 15.7328C24.8829 15.5805 24.7913 15.442 24.6754 15.3252C24.5553 15.2025 24.4111 15.1059 24.252 15.0414C24.0928 14.9769 23.9221 14.9458 23.7504 14.9502ZM6.25042 26.2002C6.08504 26.1995 5.92143 26.166 5.76908 26.1017C5.61674 26.0373 5.47866 25.9433 5.3629 25.8252C5.13197 25.5924 5.0018 25.2781 5.00042 24.9502V23.0002L8.60035 19.3502C8.6895 19.2507 8.80086 19.1737 8.92537 19.1252C9.04409 19.0754 9.17167 19.0499 9.30043 19.0502C9.42932 19.0484 9.55711 19.074 9.67541 19.1252C9.79992 19.1737 9.91128 19.2507 10.0004 19.3502L19.2879 26.1377L6.25042 26.2002Z" fill="#5B4DBE"/>
<path d="M27.3875 6.28752C27.3228 6.1375 27.2294 6.00159 27.1125 5.88751L24.0875 2.86251C23.8546 2.63158 23.5404 2.5014 23.2125 2.50002C23.0479 2.49907 22.8849 2.53059 22.7326 2.59279C22.5803 2.655 22.4418 2.74666 22.325 2.86251L13.2 11.9875C13.0786 12.1005 12.9808 12.2364 12.9125 12.3875C12.8468 12.5417 12.8128 12.7075 12.8125 12.875V15.9C12.8116 16.0645 12.8431 16.2276 12.9053 16.3799C12.9675 16.5322 13.0591 16.6707 13.175 16.7875C13.2918 16.9034 13.4303 16.995 13.5826 17.0572C13.7349 17.1194 13.898 17.151 14.0625 17.15H17.0875C17.4154 17.1486 17.7297 17.0184 17.9625 16.7875L27.0875 7.66251C27.2058 7.54475 27.2993 7.40451 27.3625 7.25002C27.4308 7.10062 27.4691 6.93921 27.475 6.77502C27.4701 6.60908 27.4407 6.44479 27.3875 6.28752ZM16.5625 14.65H15.3125V13.4L23.2125 5.51253L24.4625 6.76253L16.5625 14.65Z" fill="#5B4DBE"/>
<path d="M12.8242 8.7002C13.5146 8.7002 14.0742 8.14055 14.0742 7.4502C14.0742 6.75984 13.5146 6.2002 12.8242 6.2002C12.1339 6.2002 11.5742 6.75984 11.5742 7.4502C11.5742 8.14055 12.1339 8.7002 12.8242 8.7002Z" fill="#5B4DBE"/>
<path d="M8.8125 14.1001C9.50286 14.1001 10.0625 13.5405 10.0625 12.8501C10.0625 12.1597 9.50286 11.6001 8.8125 11.6001C8.12214 11.6001 7.5625 12.1597 7.5625 12.8501C7.5625 13.5405 8.12214 14.1001 8.8125 14.1001Z" fill="#5B4DBE"/>
</svg>
