<svg width="26" height="26" viewBox="0 0 26 26" fill="currentColor" xmlns="http://www.w3.org/2000/svg">
<path d="M13 0.5C9.79548 0.50914 6.71686 1.74864 4.4 3.9625V1.75C4.4 1.41848 4.2683 1.10054 4.03388 0.866116C3.79946 0.631696 3.48152 0.5 3.15 0.5C2.81848 0.5 2.50054 0.631696 2.26612 0.866116C2.0317 1.10054 1.9 1.41848 1.9 1.75V7.375C1.9 7.70652 2.0317 8.02446 2.26612 8.25888C2.50054 8.4933 2.81848 8.625 3.15 8.625H8.775C9.10652 8.625 9.42446 8.4933 9.65888 8.25888C9.8933 8.02446 10.025 7.70652 10.025 7.375C10.025 7.04348 9.8933 6.72554 9.65888 6.49112C9.42446 6.2567 9.10652 6.125 8.775 6.125H5.775C7.38222 4.44545 9.52438 3.37832 11.8332 3.10709C14.142 2.83586 16.4731 3.37747 18.4258 4.63881C20.3785 5.90014 21.8308 7.80239 22.5329 10.0185C23.235 12.2346 23.1431 14.6261 22.273 16.7817C21.4029 18.9374 19.8089 20.7226 17.7652 21.8304C15.7214 22.9382 13.3556 23.2993 11.0744 22.8517C8.79328 22.4041 6.73933 21.1757 5.26574 19.3777C3.79215 17.5798 2.99098 15.3246 3 13C3 12.6685 2.8683 12.3505 2.63388 12.1161C2.39946 11.8817 2.08152 11.75 1.75 11.75C1.41848 11.75 1.10054 11.8817 0.866116 12.1161C0.631696 12.3505 0.5 12.6685 0.5 13C0.5 15.4723 1.23311 17.889 2.60663 19.9446C3.98015 22.0002 5.93238 23.6024 8.21646 24.5485C10.5005 25.4946 13.0139 25.7421 15.4386 25.2598C17.8634 24.7775 20.0907 23.587 21.8388 21.8388C23.587 20.0907 24.7775 17.8634 25.2598 15.4386C25.7421 13.0139 25.4946 10.5005 24.5485 8.21646C23.6024 5.93238 22.0002 3.98015 19.9446 2.60663C17.889 1.23311 15.4723 0.5 13 0.5Z" />
</svg>
