<svg width="24" height="24" viewBox="0 0 24 24" fill="none" xmlns="http://www.w3.org/2000/svg">
<path d="M20.16 5C19.0999 3.93721 17.6948 3.28854 16.1983 3.17117C14.7018 3.0538 13.2127 3.47546 12 4.36C10.7276 3.41364 9.14396 2.98451 7.56789 3.15903C5.99182 3.33356 4.54041 4.09878 3.50594 5.30058C2.47148 6.50239 1.93079 8.05152 1.99277 9.63601C2.05475 11.2205 2.71479 12.7227 3.83997 13.84L10.05 20.06C10.57 20.5718 11.2704 20.8586 12 20.8586C12.7296 20.8586 13.43 20.5718 13.95 20.06L20.16 13.84C21.3275 12.6653 21.9829 11.0763 21.9829 9.42C21.9829 7.76372 21.3275 6.17473 20.16 5ZM18.75 12.46L12.54 18.67C12.4693 18.7414 12.3852 18.798 12.2925 18.8366C12.1998 18.8753 12.1004 18.8952 12 18.8952C11.8995 18.8952 11.8001 18.8753 11.7074 18.8366C11.6147 18.798 11.5306 18.7414 11.46 18.67L5.24997 12.43C4.46573 11.6283 4.02658 10.5515 4.02658 9.43C4.02658 8.30853 4.46573 7.23165 5.24997 6.43C6.04913 5.64099 7.12694 5.19857 8.24997 5.19857C9.373 5.19857 10.4508 5.64099 11.25 6.43C11.3429 6.52373 11.4535 6.59812 11.5754 6.64889C11.6973 6.69966 11.828 6.7258 11.96 6.7258C12.092 6.7258 12.2227 6.69966 12.3445 6.64889C12.4664 6.59812 12.577 6.52373 12.67 6.43C13.4691 5.64099 14.5469 5.19857 15.67 5.19857C16.793 5.19857 17.8708 5.64099 18.67 6.43C19.465 7.22115 19.9186 8.29219 19.9335 9.41368C19.9485 10.5352 19.5236 11.6179 18.75 12.43V12.46Z" fill="#AEAEB2"/>
</svg>
