<svg width="58" height="37" viewBox="0 0 58 37" fill="none" xmlns="http://www.w3.org/2000/svg">
<path fill-rule="evenodd" clip-rule="evenodd" d="M4.01113 27.9314L3.50397 26.299L0 2.85662L10.7886 26.299L13.9237 0.136029L22.9603 26.299L29 0L35.0397 26.299L44.0763 0.136029L47.2114 26.299L58 2.85662L54.496 26.299L53.9889 27.9314H4.01113Z" fill="#F89A1B"/>
<path d="M54.8187 27.1152H3.22729V36.0025H54.8187V27.1152Z" fill="#FFD600"/>
<path fill-rule="evenodd" clip-rule="evenodd" d="M54.8649 37H3.13513C2.67408 37 2.30524 36.6373 2.30524 36.1839C2.30524 35.7304 2.67408 35.3677 3.13513 35.3677H54.8649C55.3259 35.3677 55.6947 35.7304 55.6947 36.1839C55.6947 36.6373 55.3259 37 54.8649 37Z" fill="#FEC00C"/>
<path fill-rule="evenodd" clip-rule="evenodd" d="M54.8649 27.9314H3.13513C2.67408 27.9314 2.30524 27.5687 2.30524 27.1152C2.30524 26.6618 2.67408 26.2991 3.13513 26.2991H54.8649C55.3259 26.2991 55.6947 26.6618 55.6947 27.1152C55.6947 27.5687 55.3259 27.9314 54.8649 27.9314Z" fill="#FEC00C"/>
<path fill-rule="evenodd" clip-rule="evenodd" d="M26.4182 31.5587L29 29.0195L31.628 31.5587L29 34.098L26.4182 31.5587Z" fill="#F5811E"/>
<path fill-rule="evenodd" clip-rule="evenodd" d="M17.7964 31.5587L20.3783 29.0195L23.0062 31.5587L20.3783 34.098L17.7964 31.5587Z" fill="#F5811E"/>
<path d="M37.6217 28.9826L35.0137 31.5476L37.6217 34.1126L40.2298 31.5476L37.6217 28.9826Z" fill="#F5811E"/>
<path fill-rule="evenodd" clip-rule="evenodd" d="M44.445 6.80151C44.4912 8.29784 44.4912 11.4719 45.5977 13.2402C46.1048 14.0564 46.9808 14.3285 47.949 14.4192C46.9808 14.5098 45.8743 15.054 45.3671 15.9155C44.3067 17.6385 44.445 20.5405 44.3989 21.9915C44.3528 20.1324 44.4912 17.4572 43.5691 15.8701C42.9236 14.7819 41.6788 14.4192 40.1573 14.3738C41.5404 14.3285 42.7853 14.1018 43.4307 13.1496C44.5373 11.6079 44.445 8.75127 44.445 6.80151Z" fill="#FEFEFE"/>
</svg>
