<svg width="99" height="42" viewBox="0 0 99 42" fill="none" xmlns="http://www.w3.org/2000/svg">
<rect width="99" height="42" rx="6" fill="#5B4DBE"/>
<path d="M56.4475 23.0703C56.4475 22.8359 56.411 22.6276 56.3381 22.4453C56.2704 22.263 56.148 22.0964 55.9709 21.9453C55.7939 21.7943 55.5439 21.6484 55.2209 21.5078C54.9032 21.362 54.497 21.2135 54.0022 21.0625C53.4605 20.8958 52.9605 20.7109 52.5022 20.5078C52.0491 20.2995 51.6532 20.0599 51.3147 19.7891C50.9761 19.513 50.7131 19.1979 50.5256 18.8438C50.3381 18.4844 50.2444 18.0703 50.2444 17.6016C50.2444 17.138 50.3407 16.7161 50.5334 16.3359C50.7314 15.9557 51.01 15.6276 51.3694 15.3516C51.734 15.0703 52.1636 14.8542 52.6584 14.7031C53.1532 14.5469 53.7001 14.4688 54.2991 14.4688C55.1428 14.4688 55.8694 14.625 56.4788 14.9375C57.0933 15.25 57.5647 15.6693 57.8928 16.1953C58.2261 16.7214 58.3928 17.3021 58.3928 17.9375H56.4475C56.4475 17.5625 56.3668 17.2318 56.2053 16.9453C56.0491 16.6536 55.8095 16.4245 55.4866 16.2578C55.1689 16.0911 54.7652 16.0078 54.2756 16.0078C53.8121 16.0078 53.4267 16.0781 53.1194 16.2188C52.8121 16.3594 52.5829 16.5495 52.4319 16.7891C52.2808 17.0286 52.2053 17.2995 52.2053 17.6016C52.2053 17.8151 52.2548 18.0104 52.3538 18.1875C52.4527 18.3594 52.6038 18.5208 52.8069 18.6719C53.01 18.8177 53.2652 18.9557 53.5725 19.0859C53.8798 19.2161 54.2418 19.3411 54.6584 19.4609C55.2886 19.6484 55.8381 19.8568 56.3069 20.0859C56.7756 20.3099 57.1663 20.5651 57.4788 20.8516C57.7913 21.138 58.0256 21.4635 58.1819 21.8281C58.3381 22.1875 58.4163 22.5964 58.4163 23.0547C58.4163 23.5339 58.3199 23.9661 58.1272 24.3516C57.9345 24.7318 57.6584 25.0573 57.2991 25.3281C56.9449 25.5938 56.5178 25.7995 56.0178 25.9453C55.523 26.0859 54.9709 26.1562 54.3616 26.1562C53.8147 26.1562 53.2756 26.0833 52.7444 25.9375C52.2183 25.7917 51.7392 25.5703 51.3069 25.2734C50.8746 24.9714 50.5308 24.5964 50.2756 24.1484C50.0204 23.6953 49.8928 23.1667 49.8928 22.5625H51.8538C51.8538 22.9323 51.9163 23.2474 52.0413 23.5078C52.1715 23.7682 52.3511 23.9818 52.5803 24.1484C52.8095 24.3099 53.0751 24.4297 53.3772 24.5078C53.6845 24.5859 54.0126 24.625 54.3616 24.625C54.8199 24.625 55.2027 24.5599 55.51 24.4297C55.8225 24.2995 56.0569 24.1172 56.2131 23.8828C56.3694 23.6484 56.4475 23.3776 56.4475 23.0703ZM63.9981 17.5469V18.9219H59.2325V17.5469H63.9981ZM60.6075 15.4766H62.4903V23.6641C62.4903 23.9245 62.5268 24.125 62.5997 24.2656C62.6778 24.401 62.7846 24.4922 62.92 24.5391C63.0554 24.5859 63.2143 24.6094 63.3966 24.6094C63.5268 24.6094 63.6518 24.6016 63.7716 24.5859C63.8914 24.5703 63.9877 24.5547 64.0606 24.5391L64.0684 25.9766C63.9122 26.0234 63.7299 26.0651 63.5216 26.1016C63.3184 26.138 63.0841 26.1562 62.8184 26.1562C62.3861 26.1562 62.0033 26.0807 61.67 25.9297C61.3367 25.7734 61.0763 25.5208 60.8888 25.1719C60.7013 24.8229 60.6075 24.3594 60.6075 23.7812V15.4766ZM65.0644 21.8672V21.6875C65.0644 21.0781 65.1529 20.513 65.33 19.9922C65.5071 19.4661 65.7623 19.0104 66.0956 18.625C66.4342 18.2344 66.8456 17.9323 67.33 17.7188C67.8196 17.5 68.3717 17.3906 68.9862 17.3906C69.606 17.3906 70.1581 17.5 70.6425 17.7188C71.1321 17.9323 71.5461 18.2344 71.8847 18.625C72.2232 19.0104 72.481 19.4661 72.6581 19.9922C72.8352 20.513 72.9237 21.0781 72.9237 21.6875V21.8672C72.9237 22.4766 72.8352 23.0417 72.6581 23.5625C72.481 24.0833 72.2232 24.5391 71.8847 24.9297C71.5461 25.3151 71.1347 25.6172 70.6503 25.8359C70.1659 26.0495 69.6165 26.1562 69.0019 26.1562C68.3821 26.1562 67.8274 26.0495 67.3378 25.8359C66.8534 25.6172 66.442 25.3151 66.1034 24.9297C65.7649 24.5391 65.5071 24.0833 65.33 23.5625C65.1529 23.0417 65.0644 22.4766 65.0644 21.8672ZM66.9472 21.6875V21.8672C66.9472 22.2474 66.9862 22.6068 67.0644 22.9453C67.1425 23.2839 67.2649 23.5807 67.4316 23.8359C67.5982 24.0911 67.8118 24.2917 68.0722 24.4375C68.3326 24.5833 68.6425 24.6562 69.0019 24.6562C69.3508 24.6562 69.6529 24.5833 69.9081 24.4375C70.1685 24.2917 70.3821 24.0911 70.5487 23.8359C70.7154 23.5807 70.8378 23.2839 70.9159 22.9453C70.9993 22.6068 71.0409 22.2474 71.0409 21.8672V21.6875C71.0409 21.3125 70.9993 20.9583 70.9159 20.625C70.8378 20.2865 70.7128 19.987 70.5409 19.7266C70.3743 19.4661 70.1607 19.263 69.9003 19.1172C69.6451 18.9661 69.3404 18.8906 68.9862 18.8906C68.6321 18.8906 68.3248 18.9661 68.0644 19.1172C67.8092 19.263 67.5982 19.4661 67.4316 19.7266C67.2649 19.987 67.1425 20.2865 67.0644 20.625C66.9862 20.9583 66.9472 21.3125 66.9472 21.6875ZM76.5525 19.1719V29.25H74.6697V17.5469H76.4041L76.5525 19.1719ZM82.0603 21.6953V21.8594C82.0603 22.474 81.9874 23.0443 81.8416 23.5703C81.7009 24.0911 81.49 24.5469 81.2087 24.9375C80.9327 25.3229 80.5916 25.6224 80.1853 25.8359C79.7791 26.0495 79.3103 26.1562 78.7791 26.1562C78.253 26.1562 77.7921 26.0599 77.3962 25.8672C77.0056 25.6693 76.6749 25.3906 76.4041 25.0312C76.1332 24.6719 75.9145 24.25 75.7478 23.7656C75.5864 23.276 75.4718 22.7396 75.4041 22.1562V21.5234C75.4718 20.9036 75.5864 20.3411 75.7478 19.8359C75.9145 19.3307 76.1332 18.8958 76.4041 18.5312C76.6749 18.1667 77.0056 17.8854 77.3962 17.6875C77.7869 17.4896 78.2426 17.3906 78.7634 17.3906C79.2947 17.3906 79.766 17.4948 80.1775 17.7031C80.589 17.9062 80.9353 18.1979 81.2166 18.5781C81.4978 18.9531 81.7087 19.4062 81.8494 19.9375C81.99 20.4635 82.0603 21.0495 82.0603 21.6953ZM80.1775 21.8594V21.6953C80.1775 21.3047 80.141 20.9427 80.0681 20.6094C79.9952 20.2708 79.8806 19.974 79.7244 19.7188C79.5681 19.4635 79.3676 19.2656 79.1228 19.125C78.8832 18.9792 78.5942 18.9062 78.2556 18.9062C77.9223 18.9062 77.6358 18.9635 77.3962 19.0781C77.1567 19.1875 76.9561 19.3411 76.7947 19.5391C76.6332 19.737 76.5082 19.9688 76.4197 20.2344C76.3311 20.4948 76.2686 20.7786 76.2322 21.0859V22.6016C76.2947 22.9766 76.4015 23.3203 76.5525 23.6328C76.7035 23.9453 76.9171 24.1953 77.1931 24.3828C77.4744 24.5651 77.8337 24.6562 78.2712 24.6562C78.6098 24.6562 78.8989 24.5833 79.1384 24.4375C79.378 24.2917 79.5733 24.0911 79.7244 23.8359C79.8806 23.5755 79.9952 23.276 80.0681 22.9375C80.141 22.599 80.1775 22.2396 80.1775 21.8594Z" fill="white"/>
<rect x="17" y="12" width="18" height="18" rx="1" fill="#D1322B" stroke="white" stroke-width="2" stroke-linejoin="round"/>
</svg>
