<svg width="20" height="20" viewBox="0 0 20 20" fill="none" xmlns="http://www.w3.org/2000/svg">
<path d="M7.11675 5.6871C7.04194 5.61127 7 5.50904 7 5.40252C7 5.296 7.04194 5.19377 7.11675 5.11794C7.15353 5.08059 7.19738 5.05092 7.24574 5.03067C7.2941 5.01043 7.346 5 7.39842 5C7.45085 5 7.50275 5.01043 7.55111 5.03067C7.59946 5.05092 7.64331 5.08059 7.6801 5.11794L12.2322 9.71542C12.307 9.79125 12.349 9.89348 12.349 10C12.349 10.1065 12.307 10.2088 12.2322 10.2846L7.6801 14.8821C7.64331 14.9194 7.59946 14.9491 7.55111 14.9693C7.50275 14.9896 7.45085 15 7.39842 15C7.346 15 7.2941 14.9896 7.24574 14.9693C7.19738 14.9491 7.15353 14.9194 7.11675 14.8821C7.04194 14.8062 7 14.704 7 14.5975C7 14.491 7.04194 14.3887 7.11675 14.3129L11.2683 9.99971L7.11675 5.6871Z" fill="black"/>
</svg>
