<svg width="72" height="61" viewBox="0 0 72 61" fill="none" xmlns="http://www.w3.org/2000/svg">
<path d="M67.5024 11.9064L54.6118 11.2814L53.8618 2.87516C53.7055 1.10954 52.1274 -0.12484 50.2836 0.015785L4.03364 3.81266C2.18989 3.96891 0.861768 5.45329 1.00239 7.20329L4.31489 44.047C4.47114 45.8127 6.06489 47.047 7.89302 46.9064L10.2368 46.7189L9.86177 53.8752C9.76802 55.8439 11.2993 57.4377 13.3618 57.547L64.9555 60.0002C67.018 60.0939 68.7211 58.6564 68.8305 56.6877L71.0024 15.547C71.0961 13.5939 69.5493 12.0002 67.5024 11.9064ZM12.0336 12.7345L10.9243 33.797L8.20552 37.6564L5.70552 9.84391V9.76579V9.68766C5.78364 8.90641 6.37739 8.28141 7.18989 8.21891L47.9711 4.87516C48.7836 4.81266 49.4868 5.34391 49.6118 6.10954C49.6118 6.14079 49.6586 6.14079 49.6586 6.17204C49.6586 6.18766 49.7055 6.20329 49.7055 6.23454L50.1274 11.047L15.9086 9.40641C13.8461 9.34391 12.1274 10.7814 12.0336 12.7345ZM64.2368 49.7502L56.9399 41.1095L52.643 36.0002C52.268 35.547 51.6586 35.172 50.9868 35.1408C50.3149 35.1095 49.8149 35.3752 49.2524 35.7814L46.6899 37.6408C46.143 37.9689 45.7211 38.1877 45.143 38.1564C44.5805 38.1252 44.0805 37.9064 43.7211 37.5627C43.5961 37.4377 43.3618 37.2189 43.1743 37.0314L36.4868 29.3908C36.0024 28.7814 35.2055 28.3908 34.3305 28.3439C33.4399 28.297 32.5805 28.672 32.018 29.2189L16.2211 46.2189L15.1586 47.3752L15.2055 46.3127L16.268 26.172L16.7836 16.3439V16.2658V16.1877C17.0024 15.3439 17.7524 14.7345 18.643 14.7814L50.5493 16.3127L55.0336 16.5314L64.143 16.9689C65.0493 17.0158 65.7524 17.7033 65.768 18.5627C65.768 18.5939 65.8149 18.6095 65.8149 18.6408C65.8149 18.672 65.8618 18.6877 65.8618 18.7189L64.2368 49.7502Z" fill="#373444"/>
</svg>
