<?xml version="1.0" encoding="UTF-8" standalone="no"?>
<svg
   width="24"
   height="24"
   viewBox="0 0 24 24"
   fill="none"
   version="1.1"
   id="svg12081"
   sodipodi:docname="google-drive-logo.svg"
   inkscape:version="1.2 (56b05e47e7, 2022-06-09, custom)"
   xmlns:inkscape="http://www.inkscape.org/namespaces/inkscape"
   xmlns:sodipodi="http://sodipodi.sourceforge.net/DTD/sodipodi-0.dtd"
   xmlns="http://www.w3.org/2000/svg"
   xmlns:svg="http://www.w3.org/2000/svg">
  <defs
     id="defs12085" />
  <sodipodi:namedview
     id="namedview12083"
     pagecolor="#ffffff"
     bordercolor="#000000"
     borderopacity="0.25"
     inkscape:showpageshadow="2"
     inkscape:pageopacity="0.0"
     inkscape:pagecheckerboard="0"
     inkscape:deskcolor="#d1d1d1"
     showgrid="false"
     inkscape:zoom="9.1145833"
     inkscape:cx="4.4982857"
     inkscape:cy="14.646857"
     inkscape:window-width="1920"
     inkscape:window-height="1016"
     inkscape:window-x="1920"
     inkscape:window-y="27"
     inkscape:window-maximized="1"
     inkscape:current-layer="svg12081" />
  <path
     d="M8.40412 5.25217L3 14.7094L5.81739 19.6439L11.2215 10.195L8.40412 5.25217ZM13.0503 14.7094H10.0682L7.24256 19.6522H14.0307C13.2398 18.7789 12.762 17.6256 12.762 16.357C12.762 15.7803 12.8691 15.2284 13.0503 14.7094ZM18.5286 15.5332V13.0618H16.881V15.5332H14.4096V17.1808H16.881V19.6522H18.5286V17.1808H21V15.5332H18.5286ZM19.1135 11.6201L14.7556 4H9.12082V4.00824L14.1872 12.8805C15.0851 11.9744 16.3291 11.4142 17.7048 11.4142C18.1908 11.4142 18.6686 11.4883 19.1135 11.6201Z"
     fill="white"
     id="path12079"
     style="fill:#000000;fill-opacity:1" />
</svg>
