<svg width="20" height="20" viewBox="0 0 20 20" fill="currentColor" xmlns="http://www.w3.org/2000/svg">
	<path d="M15.8334 4.58339H10.6L10.3334 3.75006C10.1605 3.26108 9.83981 2.83798 9.41577 2.53936C8.99173 2.24074 8.48532 2.08139 7.96669 2.08339H4.16669C3.50365 2.08339 2.86776 2.34678 2.39892 2.81563C1.93008 3.28447 1.66669 3.92035 1.66669 4.58339V15.4167C1.66669 16.0798 1.93008 16.7157 2.39892 17.1845C2.86776 17.6533 3.50365 17.9167 4.16669 17.9167H15.8334C16.4964 17.9167 17.1323 17.6533 17.6011 17.1845C18.07 16.7157 18.3334 16.0798 18.3334 15.4167V7.08339C18.3334 6.42035 18.07 5.78447 17.6011 5.31563C17.1323 4.84679 16.4964 4.58339 15.8334 4.58339ZM16.6667 15.4167C16.6667 15.6377 16.5789 15.8497 16.4226 16.006C16.2663 16.1623 16.0544 16.2501 15.8334 16.2501H4.16669C3.94567 16.2501 3.73371 16.1623 3.57743 16.006C3.42115 15.8497 3.33335 15.6377 3.33335 15.4167V4.58339C3.33335 4.36238 3.42115 4.15042 3.57743 3.99414C3.73371 3.83786 3.94567 3.75006 4.16669 3.75006H7.96669C8.14139 3.74961 8.31182 3.80408 8.45388 3.90576C8.59594 4.00745 8.70245 4.15121 8.75835 4.31673L9.20835 5.68339C9.26426 5.84891 9.37077 5.99267 9.51283 6.09436C9.65489 6.19604 9.82532 6.25051 10 6.25006H15.8334C16.0544 6.25006 16.2663 6.33786 16.4226 6.49414C16.5789 6.65042 16.6667 6.86238 16.6667 7.08339V15.4167Z" fill="currentColor"/>
	<path fill-rule="evenodd" clip-rule="evenodd" d="M11.501 7.93952L14.0303 10.4696C14.3232 10.7625 14.3232 11.2374 14.0303 11.5303L11.5 14.0606C11.2071 14.3535 10.7322 14.3535 10.4393 14.0606C10.1464 13.7677 10.1464 13.2928 10.4393 12.9999L11.6893 11.75H6C5.58579 11.75 5.25 11.4142 5.25 11C5.25 10.5858 5.58579 10.25 6 10.25H11.6893L10.4404 9.00018C10.1475 8.70729 10.1475 8.23241 10.4404 7.93952C10.7333 7.64663 11.2081 7.64663 11.501 7.93952Z" fill="currentColor"/>
</svg>
