<?xml version="1.0" encoding="utf-8"?>
<!-- Svg Vector Icons : http://www.onlinewebfonts.com/icon -->
<!DOCTYPE svg PUBLIC "-//W3C//DTD SVG 1.1//EN" "http://www.w3.org/Graphics/SVG/1.1/DTD/svg11.dtd">
<svg version="1.1" xmlns="http://www.w3.org/2000/svg" xmlns:xlink="http://www.w3.org/1999/xlink" x="0px" y="0px" viewBox="0 0 1000 1000" enable-background="new 0 0 1000 1000" xml:space="preserve">
<metadata> Svg Vector Icons : http://www.onlinewebfonts.com/icon </metadata>
<g><path d="M118.5,933.5C58.7,933.5,10,878.8,10,811.7V195c0-70.8,48.7-128.4,108.5-128.4h474.4c59.8,0,108.5,57.6,108.5,128.4v88.5c0,17.6-14.3,32-32,32s-32-14.3-32-32V195c0-30.1-20-54.6-44.6-54.6H118.5c-24.6,0-44.6,24.5-44.6,54.6V805c0,30.1,20,54.6,44.6,54.6h474.4c24.6,0,44.6-24.5,44.6-54.6v-88.5c0-17.6,14.3-32,32-32c17.6,0,32,14.3,32,32V805c0,70.8-48.7,128.4-108.5,128.4L118.5,933.5L118.5,933.5z M804.7,708.1c-8.6,0-16.7-3.6-22.8-10c-12.2-13.1-12.2-34.3,0-47.4l100.5-109.1c0.1-0.1,0.2-0.2,0.1-0.4c-0.1-0.2-0.2-0.2-0.4-0.2H403.3c-17.6,0-32-15.1-32-33.7c0-18.6,14.3-33.7,32-33.7h478.9c0.1,0,0.3,0,0.4-0.2c0.1-0.2,0-0.3-0.1-0.4L781.9,363.6c-12.2-13.1-12.2-34.3,0-47.4c6-6.5,14.1-10,22.8-10c8.6,0,16.7,3.6,22.8,10L981,482c6.2,6.6,9.3,15.5,9,25.1c0.4,9.6-2.8,18.5-9,25.1L827.4,698C821.4,704.5,813.3,708.1,804.7,708.1z" fill="red"/></g>
</svg>