<svg width="20" height="20" viewBox="0 0 20 20" fill="none" xmlns="http://www.w3.org/2000/svg">
<path d="M6.66669 10C6.66669 10.2211 6.75448 10.433 6.91077 10.5893C7.06705 10.7456 7.27901 10.8334 7.50002 10.8334H12.5C12.721 10.8334 12.933 10.7456 13.0893 10.5893C13.2456 10.433 13.3334 10.2211 13.3334 10C13.3334 9.77903 13.2456 9.56707 13.0893 9.41079C12.933 9.2545 12.721 9.16671 12.5 9.16671H7.50002C7.27901 9.16671 7.06705 9.2545 6.91077 9.41079C6.75448 9.56707 6.66669 9.77903 6.66669 10ZM8.33335 12.5H5.83335C5.17031 12.5 4.53443 12.2366 4.06559 11.7678C3.59675 11.299 3.33335 10.6631 3.33335 10C3.33335 9.337 3.59675 8.70111 4.06559 8.23227C4.53443 7.76343 5.17031 7.50004 5.83335 7.50004H8.33335C8.55437 7.50004 8.76633 7.41224 8.92261 7.25596C9.07889 7.09968 9.16669 6.88772 9.16669 6.66671C9.16669 6.44569 9.07889 6.23373 8.92261 6.07745C8.76633 5.92117 8.55437 5.83337 8.33335 5.83337H5.83335C4.72829 5.83337 3.66848 6.27236 2.88708 7.05376C2.10567 7.83516 1.66669 8.89497 1.66669 10C1.66669 11.1051 2.10567 12.1649 2.88708 12.9463C3.66848 13.7277 4.72829 14.1667 5.83335 14.1667H8.33335C8.55437 14.1667 8.76633 14.0789 8.92261 13.9226C9.07889 13.7663 9.16669 13.5544 9.16669 13.3334C9.16669 13.1124 9.07889 12.9004 8.92261 12.7441C8.76633 12.5878 8.55437 12.5 8.33335 12.5ZM14.1667 5.83337H11.6667C11.4457 5.83337 11.2337 5.92117 11.0774 6.07745C10.9212 6.23373 10.8334 6.44569 10.8334 6.66671C10.8334 6.88772 10.9212 7.09968 11.0774 7.25596C11.2337 7.41224 11.4457 7.50004 11.6667 7.50004H14.1667C14.8297 7.50004 15.4656 7.76343 15.9345 8.23227C16.4033 8.70111 16.6667 9.337 16.6667 10C16.6667 10.6631 16.4033 11.299 15.9345 11.7678C15.4656 12.2366 14.8297 12.5 14.1667 12.5H11.6667C11.4457 12.5 11.2337 12.5878 11.0774 12.7441C10.9212 12.9004 10.8334 13.1124 10.8334 13.3334C10.8334 13.5544 10.9212 13.7663 11.0774 13.9226C11.2337 14.0789 11.4457 14.1667 11.6667 14.1667H14.1667C15.2718 14.1667 16.3316 13.7277 17.113 12.9463C17.8944 12.1649 18.3334 11.1051 18.3334 10C18.3334 8.89497 17.8944 7.83516 17.113 7.05376C16.3316 6.27236 15.2718 5.83337 14.1667 5.83337Z" fill="#2A292F"/>
</svg>
