<svg width="24" height="24" viewBox="0 0 24 24" fill="none" xmlns="http://www.w3.org/2000/svg">
<path d="M9.73876 15.1121C9.42878 14.8488 8.92459 14.8885 8.65195 15.1878L5.7762 18.3177V3.75002C5.7762 3.33895 5.42514 3 4.99938 3C4.57362 3 4.22255 3.33895 4.22255 3.75002V18.3177L1.3468 15.1878C1.03682 14.8885 0.569973 14.8488 0.259989 15.1121C-0.0499941 15.4113 -0.0910762 15.8621 0.18156 16.1614L4.41676 20.7372C4.73421 21.1158 5.29442 21.0582 5.54465 20.7372L9.81719 16.1614C10.0898 15.8657 10.0525 15.3753 9.73876 15.1121Z" fill="black"/>
<path d="M23.8184 7.86373L19.62 3.2817C19.2465 2.91701 18.7796 2.89535 18.4547 3.2817L14.1816 7.86373C13.9089 8.16342 13.95 8.65087 14.26 8.91445C14.7381 9.28275 15.22 9.03 15.347 8.83863L18.2231 5.7045V20.249C18.2231 20.6606 18.5742 21 19 21C19.4258 21 19.7769 20.7003 19.7769 20.2851V5.70812L22.653 8.84224C22.9631 9.14193 23.43 9.18165 23.74 8.91806C24.05 8.61476 24.0911 8.16342 23.8184 7.86373Z" fill="black"/>
</svg>
