<svg width="513" height="273" viewBox="0 0 513 273" fill="none" xmlns="http://www.w3.org/2000/svg">
<path d="M416.354 57.0492C412.98 39.8506 397.501 8.04511 392.839 17.9283C387.012 30.2822 389.262 65.6484 397.133 67.7073C405.006 69.7663 393.556 18.1706 383.741 21.8041C375.89 24.7109 380.47 39.8101 383.741 46.9963C382.582 37.307 381.094 23.7421 365.032 14.6582" stroke="#3F3883" stroke-width="1.262" stroke-linecap="round"/>
<path d="M354.19 52.3076L357.464 60.6005L368.903 55.0945L361.547 65.7199L371.017 70.7572L360.09 72.1037L360.738 80.9959L354.19 74.9447L345.146 83.2266L348.292 72.1037L339.478 70.7572L346.834 65.7199L343.779 58.6176L350.917 60.6005L354.19 52.3076Z" fill="#5C51BB"/>
<path d="M295.286 94.5869L296.334 97.2382L299.996 95.4777L297.64 98.8756L300.672 100.486L297.174 100.916L297.382 103.76L295.286 101.824L292.39 104.473L293.398 100.916L290.576 100.486L292.931 98.8756L291.953 96.604L294.238 97.2382L295.286 94.5869Z" fill="#5C51BB"/>
<path d="M312.403 23.8086L314.171 28.2653L320.35 25.3063L316.377 31.0166L321.492 33.7237L315.589 34.4474L315.939 39.2261L312.403 35.9742L307.518 40.4249L309.216 34.4474L304.455 33.7237L308.429 31.0166L306.778 27.1997L310.635 28.2653L312.403 23.8086Z" fill="#5C51BB"/>
<path d="M230.735 149.272V195.335H255.397V209.638H279.69" stroke="black" stroke-width="0.841333" stroke-linecap="round"/>
<path d="M244.985 163.995C247.569 163.995 249.665 161.735 249.665 158.947C249.665 156.159 247.569 153.899 244.985 153.899C242.4 153.899 240.305 156.159 240.305 158.947C240.305 161.735 242.4 163.995 244.985 163.995Z" fill="#DEDCF1"/>
<path d="M257.186 163.995C259.77 163.995 261.866 161.735 261.866 158.947C261.866 156.159 259.77 153.899 257.186 153.899C254.601 153.899 252.506 156.159 252.506 158.947C252.506 161.735 254.601 163.995 257.186 163.995Z" fill="#9C96D6"/>
<path d="M269.384 163.995C271.969 163.995 274.064 161.735 274.064 158.947C274.064 156.159 271.969 153.899 269.384 153.899C266.799 153.899 264.704 156.159 264.704 158.947C264.704 161.735 266.799 163.995 269.384 163.995Z" fill="#6B61C2"/>
<path d="M237.991 13.3933C237.991 14.7848 237.677 17.4995 236.283 17.4995C234.889 17.4995 232.943 14.7848 232.943 13.3933C232.943 12.0019 234.073 10.874 235.467 10.874C236.861 10.874 237.991 12.0019 237.991 13.3933Z" fill="#6B61C2"/>
<path d="M244.091 15.0006C244.091 16.0606 243.849 18.1291 242.775 18.1291C241.7 18.1291 240.2 16.0606 240.2 15.0006C240.2 13.9405 241.071 13.0811 242.146 13.0811C243.22 13.0811 244.091 13.9405 244.091 15.0006Z" fill="#6B61C2"/>
<path d="M238.728 21.731C238.728 22.7911 238.486 24.8595 237.411 24.8595C236.337 24.8595 234.837 22.7911 234.837 21.731C234.837 20.6709 235.708 19.8115 236.782 19.8115C237.857 19.8115 238.728 20.6709 238.728 21.731Z" fill="#9C96D6"/>
<path d="M244.091 21.731C244.091 22.7911 243.849 24.8595 242.775 24.8595C241.7 24.8595 240.2 22.7911 240.2 21.731C240.2 20.6709 241.071 19.8115 242.146 19.8115C243.22 19.8115 244.091 20.6709 244.091 21.731Z" fill="#9C96D6"/>
<path d="M249.455 21.731C249.455 22.7911 249.213 24.8595 248.138 24.8595C247.063 24.8595 245.563 22.7911 245.563 21.731C245.563 20.6709 246.435 19.8115 247.509 19.8115C248.584 19.8115 249.455 20.6709 249.455 21.731Z" fill="#9C96D6"/>
<path d="M238.728 28.4615C238.728 29.5216 238.493 31.59 237.447 31.59C236.402 31.59 234.942 29.5216 234.942 28.4615C234.942 27.4014 235.79 26.542 236.835 26.542C237.881 26.542 238.728 27.4014 238.728 28.4615Z" fill="#DEDCF1"/>
<path d="M252.504 30.421C252.504 32.5632 252.02 36.7432 249.871 36.7432C247.722 36.7432 244.722 32.5632 244.722 30.421C244.722 28.2786 246.464 26.542 248.613 26.542C250.761 26.542 252.504 28.2786 252.504 30.421Z" fill="#DEDCF1"/>
<path d="M369.134 130.764H275.325V185.345H369.134V130.764Z" fill="#ADA7DC"/>
<path d="M385.812 233.876L385.686 233.721H385.487H312.134C297.265 233.721 285.211 221.668 285.211 206.799V172.094C285.211 157.225 297.265 145.171 312.134 145.171H408.466C423.336 145.171 435.389 157.225 435.389 172.094V206.799C435.389 221.668 423.335 233.721 408.466 233.721H404.154H403.672L403.738 234.2L407.319 260.116L385.812 233.876Z" stroke="black" stroke-width="0.841333"/>
<path d="M366.654 253.715L342.683 244.987L338.335 256.929L362.306 265.657L366.654 253.715Z" stroke="black" stroke-width="0.841333"/>
<path d="M351.757 256.531L342.607 245.384L366.533 253.902L351.757 256.531Z" fill="#5C51BB"/>
<path d="M354.727 201.013C357.882 198.447 357.654 195.737 357.146 194.703L400.58 205.115C400.703 206.92 400.874 211.498 400.58 215.368C400.285 219.239 392.5 232.055 388.643 237.979L385.488 234.141H341.581L329.329 226.937C329.329 226.13 330.191 223.109 333.641 217.472C337.953 210.426 350.783 204.221 354.727 201.013Z" fill="black"/>
<path d="M310.503 101.316L311.029 108.888L329.591 107.994C329.731 106.469 330.085 102.767 330.379 100.159C330.748 96.8985 337.11 89.4317 337.636 87.8016C338.162 86.1715 338.162 85.0673 337.11 84.5414C336.269 84.1208 332.272 86.5396 330.379 87.8016L331.431 81.9123C331.764 78.6695 332.02 71.7742 330.379 70.1336C328.739 68.493 327.522 71.7987 327.119 73.6567C327.295 72.7802 327.361 70.7015 326.225 69.3974C325.09 68.0934 323.509 71.0975 322.86 72.7628C322.86 71.6409 322.534 69.3974 321.23 69.3974C319.926 69.3974 318.864 73.9196 318.496 76.1807V74.5506C318.548 73.2886 318.496 70.6384 317.865 70.1336C317.076 69.5026 316.287 70.5017 315.393 73.6567C314.499 76.8117 312.028 87.0128 309.504 92.6393C307.485 97.1404 309.328 100.299 310.503 101.316Z" fill="#9C96D6"/>
<path d="M329.486 88.1709C327.733 88.9421 323.67 91.3049 321.44 94.5861" stroke="black" stroke-width="0.841333" stroke-linecap="round"/>
<path d="M431.519 220.471C432.108 219.84 431.764 216.843 431.519 215.423L446.085 216.001C446.137 217.491 446.211 220.786 446.085 222.048C445.927 223.626 444.718 231.513 442.614 233.091C440.511 234.668 436.778 239.243 435.516 241.294C434.506 242.934 431.94 246.044 430.783 247.394C429.96 248.042 428.112 249.097 427.313 248.13C426.513 247.162 427.856 243.765 428.627 242.188C427.61 243.59 425.272 246.458 424.052 246.71C421.612 247.131 422.72 243.484 423.579 241.609C422.808 242.591 420.866 244.491 419.267 244.239C417.669 243.986 418.391 241.118 418.952 239.716C418.339 240.313 416.964 241.336 416.375 240.663C415.639 239.822 415.955 237.981 416.375 236.351C416.712 235.047 418.794 231.356 419.793 229.673C419.057 229.988 417.564 230.43 417.479 229.673C417.374 228.726 419.951 225.624 422.843 224.099C425.735 222.574 430.783 221.26 431.519 220.471Z" fill="#9C96D6"/>
<path d="M428.607 242.398C429.308 241.223 430.847 238.738 431.394 238.191M419.562 238.874C420.211 237.805 421.897 235.32 423.454 233.932L419.562 238.874ZM424.4 240.925C425.154 239.716 426.977 236.96 428.239 235.614L424.4 240.925Z" stroke="black" stroke-width="0.841333" stroke-linecap="round"/>
<path d="M420.404 228.989C421.246 228.06 423.549 225.897 426.031 224.677" stroke="black" stroke-width="0.841333" stroke-linecap="round"/>
<path d="M332.062 111.937C331.747 109.307 330.432 107.204 330.432 107.204C328.645 104.838 314.216 106.047 311.397 106.889C307.874 107.94 309.504 113.514 310.24 116.511C310.977 119.509 315.025 140.016 317.549 145.8C319.569 150.428 326.98 156.632 330.432 159.156C339.021 164.801 356.345 176.688 356.934 179.085C357.523 181.483 354.831 189.339 353.411 192.967C356.934 198.962 364.184 200.329 373.446 200.329C389.115 200.329 396.232 206.201 403.891 208.637C405.942 206.113 403.891 188.445 405.627 185.185C407.362 181.925 425.24 187.131 428.027 190.128C430.814 193.125 427.869 211.161 428.868 213.948C429.867 216.735 428.605 218.47 432.391 218.47C442.908 220.069 449.744 217.805 451.847 216.472C451.497 215.876 450.396 210.341 448.797 192.967C446.799 171.251 444.959 173.196 441.962 170.988C438.906 168.736 417.931 161.68 414.408 160.944C410.885 160.208 397.792 158.42 393.269 156.632C388.747 154.845 368.292 150.585 366.294 148.324C364.296 146.063 343.2 139.115 337.268 130.13C333.693 124.714 332.239 113.409 332.062 111.937Z" fill="#CDCAEA"/>
<path d="M325.332 82.2809L326.857 74.9718M317.55 82.2809L318.286 77.601L317.55 82.2809ZM321.073 82.2809L322.598 74.3408L321.073 82.2809Z" stroke="black" stroke-width="0.841333" stroke-linecap="round"/>
<path d="M382.91 130.445C378.372 130.445 376.248 131.653 372.918 137.606C371.228 140.629 370.265 145.267 371.794 146.807C372.753 147.773 375.031 148.822 377.373 149.597L376.748 151.512L372.918 164.835L390.862 155.842C389.8 155.422 387.581 155.117 387.449 154.384C387.315 153.652 388.809 149.957 389.572 148.201C391.641 146.34 392.944 143.626 392.944 140.604C392.944 134.994 388.452 130.445 382.91 130.445Z" fill="#9C96D6"/>
<path d="M374.02 141.589L376.647 139.104L376.331 142.577L374.02 141.589Z" fill="#5C51BB"/>
<path d="M376.385 139.304L373.88 141.532L376.198 142.464" stroke="black" stroke-width="0.631" stroke-linecap="round"/>
<path d="M376.04 144.813L373.423 143.583C373.454 144.006 373.744 144.805 374.187 145.115C374.921 145.627 375.579 145.169 376.04 144.813Z" stroke="black" stroke-width="0.631"/>
<path d="M373.395 138.101C373.743 138.362 374.236 138.292 374.498 137.944C374.759 137.597 374.689 137.103 374.342 136.841C373.994 136.58 373.5 136.65 373.239 136.998C372.977 137.346 373.047 137.839 373.395 138.101Z" fill="black"/>
<path d="M378.639 140.72C378.987 140.981 379.481 140.911 379.742 140.564C380.003 140.216 379.933 139.722 379.586 139.461C379.238 139.199 378.744 139.269 378.483 139.617C378.221 139.965 378.291 140.458 378.639 140.72Z" fill="black"/>
<path d="M379.572 137.359C380.288 137.421 381.174 137.796 381.591 138.35" stroke="black" stroke-width="0.631" stroke-linecap="round"/>
<path d="M375.597 135.47C375.055 134.999 374.169 134.623 373.481 134.707" stroke="black" stroke-width="0.631" stroke-linecap="round"/>
<path d="M378.603 143.64C378.961 143.909 379.47 143.837 379.739 143.479C380.008 143.121 379.936 142.612 379.578 142.343C379.22 142.074 378.711 142.146 378.442 142.504C378.173 142.862 378.245 143.37 378.603 143.64Z" fill="#5C51BB"/>
<path d="M372.275 140.475C372.633 140.744 373.142 140.672 373.411 140.314C373.68 139.956 373.608 139.447 373.25 139.178C372.892 138.909 372.383 138.981 372.114 139.339C371.845 139.697 371.917 140.205 372.275 140.475Z" fill="#5C51BB"/>
<path d="M389.57 148.201C391.639 146.34 392.942 143.626 392.942 140.604C392.942 139.89 392.869 139.194 392.732 138.522C398.646 139.938 408.971 139.938 404.974 132.943C401.841 127.46 396.064 133.138 392.026 136.358C390.438 132.867 386.953 130.445 382.908 130.445C379.961 130.445 378.031 130.954 376.129 132.943C376.746 134.401 379.661 136.358 384.074 136.358C387.484 136.358 389.445 137.773 387.988 139.189C386.822 140.32 385.781 142.325 385.407 143.185C384.768 144.857 384.707 148.201 389.57 148.201Z" fill="black"/>
<path d="M385.449 145.698C386.322 146.348 387.751 145.904 388.642 144.708C389.532 143.512 389.546 142.015 388.673 141.366C387.8 140.716 386.371 141.159 385.481 142.356C384.59 143.552 384.576 145.049 385.449 145.698Z" fill="#5C51BB"/>
<path d="M385.811 143.426C386.195 142.945 387.159 142.269 387.765 142.183" stroke="black" stroke-width="0.631" stroke-linecap="round"/>
<path d="M387.246 142.435C387.432 142.712 387.625 143.321 387.571 143.648" stroke="black" stroke-width="0.631" stroke-linecap="round"/>
<path d="M328.329 116.355C328.329 118.563 330.118 120.351 332.325 120.351C332.766 120.351 333.191 120.28 333.587 120.148L332.063 112.367C329.978 112.503 328.329 114.236 328.329 116.355Z" fill="#5C51BB"/>
<path d="M323.911 148.219C326.351 148.219 328.328 146.241 328.328 143.802C328.328 141.362 326.351 139.385 323.911 139.385C321.472 139.385 319.494 141.362 319.494 143.802C319.494 146.241 321.472 148.219 323.911 148.219Z" fill="#5C51BB"/>
<path d="M365.033 158.949C367.473 158.949 369.45 156.972 369.45 154.532C369.45 152.093 367.473 150.115 365.033 150.115C362.594 150.115 360.616 152.093 360.616 154.532C360.616 156.972 362.594 158.949 365.033 158.949Z" fill="#5C51BB"/>
<path d="M367.242 187.552C369.682 187.552 371.659 185.574 371.659 183.135C371.659 180.695 369.682 178.718 367.242 178.718C364.803 178.718 362.825 180.695 362.825 183.135C362.825 185.574 364.803 187.552 367.242 187.552Z" fill="#5C51BB"/>
<path d="M388.484 197.018C386.045 197.018 384.067 198.943 384.067 201.382C386.276 201.855 390.535 203.012 392.218 203.801C392.632 203.128 392.901 202.283 392.901 201.435C392.901 198.996 390.924 197.018 388.484 197.018Z" fill="#5C51BB"/>
<path d="M400.789 177.458C403.229 177.458 405.206 175.48 405.206 173.041C405.206 170.602 403.229 168.624 400.789 168.624C398.35 168.624 396.372 170.602 396.372 173.041C396.372 175.48 398.35 177.458 400.789 177.458Z" fill="#5C51BB"/>
<path d="M427.605 171.73C430.042 171.793 432.071 169.867 432.133 167.429C432.139 167.196 432.126 167.02 432.097 166.797L424.592 164.131C423.822 164.903 423.333 166.025 423.302 167.201C423.239 169.639 425.166 171.667 427.605 171.73Z" fill="#5C51BB"/>
<path d="M444.012 211.951C446.451 211.951 448.429 209.974 448.429 207.534C448.429 205.095 446.451 203.117 444.012 203.117C441.572 203.117 439.595 205.095 439.595 207.534C439.595 209.974 441.572 211.951 444.012 211.951Z" fill="#5C51BB"/>
<path d="M204.872 141.958L204.998 141.805H205.198H274.905C289.774 141.805 301.827 129.752 301.827 114.882V83.4373C301.827 68.5683 289.773 56.5146 274.905 56.5146H184.041C169.172 56.5146 157.118 68.5683 157.118 83.4373V114.882C157.118 129.752 169.172 141.805 184.041 141.805H187.206H187.689L187.623 142.283L184.179 167.202L204.872 141.958Z" stroke="black" stroke-width="0.841333"/>
<path d="M247.667 142.173L241.199 127.187L187.512 139.176L183.357 168.517L205.074 142.278L247.667 142.173Z" fill="black"/>
<path d="M288.832 72.6013L285.351 79.3459L268.661 71.1733C269.135 69.7175 270.276 66.1782 271.04 63.6667C271.993 60.5273 269.108 51.1511 269.271 49.446C269.434 47.7411 269.871 46.7271 271.045 46.6608C271.984 46.6078 274.696 50.4116 275.933 52.3201L277.301 46.4959C278.28 43.3865 280.775 36.9536 282.931 36.097C285.088 35.2403 284.896 38.7575 284.53 40.6232C284.716 39.749 285.478 37.8139 287.038 37.0663C288.597 36.3188 288.858 39.7035 288.795 41.4893C289.239 40.4593 290.427 38.5284 291.624 39.0448C292.822 39.5613 292.006 44.1344 291.449 46.3563L292.094 44.8596C292.546 43.68 293.643 41.2673 294.423 41.0537C295.398 40.7867 295.726 42.0165 295.297 45.2675C294.868 48.5186 293.097 58.8643 293.186 65.0304C293.258 69.9631 290.314 72.133 288.832 72.6013Z" fill="#CDCAEA"/>
<path d="M276.609 53.0107C277.913 54.4131 280.709 58.1919 281.457 62.0878" stroke="black" stroke-width="0.841333" stroke-linecap="round"/>
<path d="M289.9 52.3313L291.078 47.7425M286.665 50.9359L288.41 43.0412M282.754 49.249L284.249 41.9336" stroke="black" stroke-width="0.841333" stroke-linecap="round"/>
<path d="M185.88 73.2898C192.526 68.4521 212.627 63.5268 221.847 61.6688C226.106 60.7586 234.467 61.6688 237.359 64.1928C240.251 66.7168 245.983 79.3369 248.717 80.8618C251.451 82.3867 252.503 82.7548 258.708 79.3369C264.913 75.9189 267.121 66.0858 272.8 65.2445C277.343 64.5714 285.35 71.9402 288.785 75.7086C288.102 76.5149 286.43 78.6743 285.21 80.8618C283.685 83.5961 273.484 96.6894 267.121 103.052C262.031 108.142 247.473 107.592 240.829 106.68C241.163 107.767 242.449 110.866 244.931 114.568C247.413 118.27 247.823 120.948 247.718 121.824C236.202 136.442 202.549 137.704 200.235 137.704C197.921 137.704 175.942 142.91 162.217 137.704C148.493 132.499 158.063 115.041 159.956 111.518C161.849 107.995 177.572 79.3368 185.88 73.2898Z" fill="#5C51BB"/>
<path d="M215.323 102.064C217.735 103.38 220.57 103.685 223.206 102.911C225.842 102.137 228.063 100.347 229.38 97.9359C230.696 95.5245 231.001 92.6892 230.227 90.0532C229.453 87.4172 227.663 85.1966 225.252 83.8799L223.327 87.4053C224.803 88.2114 225.899 89.571 226.373 91.1849C226.847 92.7985 226.66 94.5348 225.854 96.0114C225.048 97.4879 223.688 98.5827 222.075 99.057C220.461 99.5313 218.725 99.3441 217.248 98.5385L215.323 102.064Z" fill="#CDCAEA"/>
<path d="M185.204 131.296C185.679 128.59 185.059 125.806 183.482 123.557C181.904 121.307 179.497 119.777 176.791 119.303C174.085 118.827 171.302 119.447 169.052 121.024C166.803 122.602 165.273 125.009 164.798 127.715L168.754 128.409C169.045 126.753 169.982 125.279 171.359 124.313C172.736 123.347 174.44 122.968 176.097 123.259C177.754 123.549 179.227 124.486 180.193 125.863C181.159 127.241 181.538 128.944 181.248 130.602L185.204 131.296Z" fill="#CDCAEA"/>
<path d="M257.787 81.4033C257.028 84.0436 257.349 86.8775 258.678 89.2815C260.008 91.6856 262.239 93.4627 264.879 94.222C267.519 94.9823 270.353 94.6616 272.757 93.3312C275.161 92.0017 276.938 89.7713 277.697 87.131L273.838 86.0206C273.373 87.6371 272.285 89.0027 270.812 89.8169C269.341 90.6311 267.606 90.8273 265.989 90.3623C264.373 89.8972 263.007 88.809 262.193 87.3371C261.379 85.8653 261.182 84.1303 261.648 82.5138L257.787 81.4033Z" fill="#CDCAEA"/>
<path d="M224.736 137.437C226.223 135.128 226.732 132.322 226.151 129.637C225.569 126.951 223.945 124.607 221.635 123.12C219.325 121.633 216.519 121.124 213.834 121.705C211.149 122.286 208.805 123.911 207.317 126.22L210.694 128.395C211.605 126.982 213.04 125.987 214.684 125.63C216.328 125.275 218.046 125.586 219.46 126.497C220.875 127.408 221.869 128.843 222.225 130.487C222.581 132.131 222.27 133.849 221.359 135.264L224.736 137.437Z" fill="#CDCAEA"/>
<path d="M229.73 70.8621C232.391 71.548 235.214 71.149 237.581 69.7528C238.516 69.201 239.349 68.5115 240.057 67.715C240.057 67.715 239.226 66.4391 238.727 65.7694C238.253 65.1328 237.581 64.3684 237.581 64.3684C237.057 65.147 236.363 65.8076 235.539 66.2934C234.091 67.1482 232.362 67.3925 230.733 66.9726C229.104 66.5527 227.709 65.5029 226.854 64.0542C226.354 63.2067 226.063 62.2631 225.991 61.2998C224.635 61.2998 222.936 61.4751 221.991 61.6679C222.117 63.2165 222.59 64.732 223.395 66.0955C224.791 68.4617 227.07 70.1763 229.73 70.8621Z" fill="#CDCAEA"/>
<path d="M178.902 99.2054C176.188 99.6377 173.415 98.973 171.191 97.3598C170.445 96.8182 169.781 96.1851 169.212 95.4794L171.544 91.6934C171.996 92.6451 172.682 93.4791 173.55 94.1091C174.912 95.0966 176.61 95.5036 178.271 95.2396C179.932 94.9746 181.42 94.0617 182.408 92.6998C183.396 91.3388 183.802 89.6406 183.538 87.9794L187.505 87.3486C187.937 90.0619 187.273 92.8355 185.659 95.0587C184.046 97.283 181.615 98.7743 178.902 99.2054Z" fill="#CDCAEA"/>
<path d="M239.884 104.21C235.888 96.5855 235.698 88.0881 233.469 80.8105" stroke="black" stroke-width="0.841333" stroke-linecap="round"/>
<path d="M197.502 85.6475C197.116 90.2924 191.939 110.109 190.088 116.041" stroke="black" stroke-width="0.841333" stroke-linecap="round"/>
<path d="M182.811 114.986C187.417 115.695 198.077 117.68 203.864 119.941" stroke="black" stroke-width="0.841333" stroke-linecap="round"/>
<path d="M203.27 125.113C197.764 127.746 195.082 135.699 197.631 137.68L205.189 138.94C210.598 139.329 222.244 140.079 225.555 139.959C228.866 139.84 228.954 138.39 228.584 137.68C229.204 137.68 230.636 137.578 231.404 137.17C232.987 136.403 232.483 135.171 232.034 134.651C232.373 134.651 233.684 134.651 234.223 133.48C234.918 131.969 232.713 131.032 231.404 130.961C231.784 130.492 232.119 129.651 230.894 128.982C228.584 127.721 223.335 127.152 221.416 127.152C221.152 125.785 219.206 125.223 218.267 125.113C214.557 124.354 208.819 124.693 203.27 125.113Z" fill="#CDCAEA"/>
<path d="M220.306 127.184C218.706 126.944 216.959 126.602 215.447 126.674" stroke="black" stroke-width="0.841333" stroke-linecap="round"/>
<path d="M230.384 130.812C228.104 130.182 223.185 129.252 220.546 129.552" stroke="black" stroke-width="0.841333" stroke-linecap="round"/>
<path d="M230.384 133.961C228.299 133.388 223.8 132.541 221.386 132.815" stroke="black" stroke-width="0.841333" stroke-linecap="round"/>
<path d="M227.565 136.96C225.702 136.445 221.683 135.682 219.526 135.928" stroke="black" stroke-width="0.841333" stroke-linecap="round"/>
<path d="M209.212 41.4766C213.75 41.4766 215.874 42.684 219.205 48.6376C220.895 51.6594 221.858 56.2982 220.329 57.8387C219.37 58.8038 217.092 59.8532 214.75 60.6283L215.374 62.5432C215.374 62.5432 218.431 64.5606 216.276 67.7682C211.987 74.1484 203.981 69.2278 204.674 65.416C204.808 64.6833 203.314 60.9881 202.551 59.2322C200.482 57.3713 199.179 54.6574 199.179 51.6352C199.179 46.0248 203.671 41.4766 209.212 41.4766Z" fill="#CDCAEA"/>
<path d="M218.102 52.6185L215.475 50.1348L215.79 53.6076L218.102 52.6185Z" fill="#5C51BB"/>
<path d="M215.736 50.332L218.242 52.5605L215.924 53.4918" stroke="black" stroke-width="0.631" stroke-linecap="round"/>
<path d="M216.079 55.8428L218.697 54.6123C218.665 55.0348 218.377 55.8346 217.932 56.1444C217.198 56.6561 216.541 56.1977 216.079 55.8428Z" stroke="black" stroke-width="0.631"/>
<path d="M218.728 49.128C218.38 49.3894 217.887 49.3194 217.625 48.9717C217.364 48.624 217.434 48.1302 217.782 47.8688C218.129 47.6074 218.623 47.6774 218.884 48.0251C219.146 48.3728 219.076 48.8666 218.728 49.128Z" fill="black"/>
<path d="M213.481 51.7482C213.133 52.0095 212.64 51.9396 212.378 51.5918C212.117 51.2441 212.187 50.7503 212.534 50.4889C212.882 50.2275 213.376 50.2975 213.637 50.6452C213.899 50.993 213.829 51.4868 213.481 51.7482Z" fill="black"/>
<path d="M212.547 48.3887C211.831 48.4507 210.945 48.8254 210.527 49.3787" stroke="black" stroke-width="0.631" stroke-linecap="round"/>
<path d="M216.523 46.5009C217.066 46.03 217.951 45.6541 218.639 45.7385" stroke="black" stroke-width="0.631" stroke-linecap="round"/>
<path d="M213.518 54.6679C213.16 54.9371 212.651 54.865 212.382 54.5069C212.113 54.1489 212.185 53.6404 212.543 53.3712C212.901 53.102 213.41 53.1741 213.679 53.5322C213.948 53.8902 213.876 54.3987 213.518 54.6679Z" fill="#5C51BB"/>
<path d="M219.846 51.5039C219.488 51.773 218.979 51.701 218.71 51.3429C218.441 50.9848 218.513 50.4763 218.871 50.2071C219.229 49.9379 219.738 50.01 220.007 50.3681C220.276 50.7262 220.204 51.2347 219.846 51.5039Z" fill="#5C51BB"/>
<path d="M202.549 59.2322C200.481 57.3713 199.177 54.6574 199.177 51.6352C199.177 50.9218 199.162 50.2897 199.342 49.4166C199.522 48.5437 200.093 47.3886 200.093 47.3886C201.681 43.8989 205.167 41.4766 209.211 41.4766C212.158 41.4766 214.087 41.986 215.99 43.9746C215.373 45.4318 212.458 47.3886 208.045 47.3886C204.636 47.3886 202.674 48.8042 204.131 50.2197C205.297 51.3521 206.338 53.3561 206.713 54.2166C207.351 55.8884 207.412 59.2322 202.549 59.2322Z" fill="black"/>
<path d="M206.673 56.7274C205.8 57.377 204.371 56.9338 203.48 55.7374C202.59 54.541 202.576 53.0445 203.449 52.3949C204.322 51.7453 205.751 52.1886 206.641 53.385C207.532 54.5814 207.546 56.0778 206.673 56.7274Z" fill="#5C51BB"/>
<path d="M206.309 54.454C205.924 53.9736 204.96 53.2978 204.355 53.2119" stroke="black" stroke-width="0.631" stroke-linecap="round"/>
<path d="M204.876 53.4648C204.69 53.7423 204.497 54.351 204.551 54.6782" stroke="black" stroke-width="0.631" stroke-linecap="round"/>
<path d="M176.894 147.529L177.391 153.975L161.636 155.523C161.328 154.256 160.571 151.18 160 149.018C159.285 146.316 152.998 140.812 152.353 139.503C151.708 138.195 151.57 137.264 152.392 136.691C153.049 136.232 156.716 137.775 158.468 138.604L156.851 133.771C156.169 131.079 155.098 125.3 156.277 123.714C157.457 122.128 158.892 124.763 159.462 126.279C159.206 125.562 158.892 123.818 159.688 122.578C160.483 121.339 162.188 123.675 162.941 124.997C162.802 124.052 162.799 122.121 163.897 121.959C164.997 121.797 166.452 125.477 167.043 127.337L166.841 125.963C166.64 124.906 166.356 122.666 166.825 122.162C167.412 121.533 168.2 122.277 169.344 124.825C170.489 127.373 173.836 135.664 176.661 140.093C178.921 143.636 177.759 146.526 176.894 147.529Z" fill="#CDCAEA"/>
<path d="M159.267 138.802C160.839 139.234 164.557 140.722 166.843 143.211" stroke="black" stroke-width="0.716684" stroke-linecap="round"/>
<path d="M168.595 132.358L167.395 128.505M165.626 132.795L163.357 126.293M162.036 133.323L159.846 127.352" stroke="black" stroke-width="0.716684" stroke-linecap="round"/>
<path d="M74.6162 138.233L76.6579 135.622L93.6663 150.324L92.6345 151.643L74.6162 138.233Z" fill="black"/>
<path d="M71.7012 146.029L72.7952 142.9L93.6266 151.354L93.0738 152.936L71.7012 146.029Z" fill="black"/>
<path d="M72.4541 141.798L74.0765 138.907L93.156 150.883L92.3361 152.344L72.4541 141.798Z" fill="black"/>
<path d="M88.8185 161.826C91.6914 168.22 98.9135 171.519 104.843 168.855C115.76 164.821 113.165 158.571 110.291 152.177C107.419 145.784 100.283 142.761 94.3534 145.425C88.4237 148.09 85.9457 155.433 88.8185 161.826Z" fill="#DEDCF1"/>
<path d="M108.518 164.08L105.178 164.757C105.504 165.134 106.339 165.687 106.977 165.668C108.031 165.635 108.33 164.741 108.518 164.08Z" stroke="black" stroke-width="0.676992"/>
<path d="M109.344 161.402L107.187 158.255L106.647 161.884L109.344 161.402Z" fill="#9C96D6"/>
<path d="M107.269 158.375L109.426 161.413L106.736 161.831" stroke="black" stroke-width="0.676992" stroke-linecap="round"/>
<path d="M110.044 158.212C109.612 158.406 109.101 158.205 108.903 157.764C108.705 157.323 108.894 156.808 109.326 156.614C109.757 156.42 110.268 156.62 110.466 157.062C110.665 157.503 110.475 158.018 110.044 158.212Z" fill="black"/>
<path d="M103.827 160.83C103.395 161.024 102.884 160.824 102.686 160.382C102.488 159.941 102.677 159.426 103.109 159.232C103.541 159.038 104.051 159.239 104.25 159.68C104.448 160.121 104.259 160.636 103.827 160.83Z" fill="black"/>
<path d="M102.28 156.499C101.537 156.741 100.694 157.363 100.394 158.063" stroke="black" stroke-width="0.676992" stroke-linecap="round"/>
<path d="M108.29 154.66C109.021 154.381 110.069 154.335 110.746 154.69" stroke="black" stroke-width="0.676992" stroke-linecap="round"/>
<path d="M94.4722 164.655C93.5266 165.723 91.5734 165.503 90.1097 164.165C88.646 162.826 88.226 160.875 89.1716 159.807C90.1172 158.74 92.0704 158.959 93.5341 160.298C94.9978 161.637 95.4179 163.588 94.4722 164.655Z" fill="#9C96D6"/>
<path d="M93.3939 161.779C92.7707 161.249 91.3531 160.608 90.5537 160.648" stroke="black" stroke-width="0.676992" stroke-linecap="round"/>
<path d="M91.2892 160.846C91.125 161.255 91.0406 162.098 91.1976 162.512" stroke="black" stroke-width="0.676992" stroke-linecap="round"/>
<path d="M104.031 163.335C103.586 163.535 103.06 163.329 102.856 162.874C102.652 162.42 102.847 161.89 103.292 161.69C103.736 161.49 104.262 161.696 104.466 162.151C104.671 162.605 104.476 163.136 104.031 163.335Z" fill="#9C96D6"/>
<path d="M110.993 160.943C110.548 161.143 110.022 160.936 109.818 160.482C109.614 160.027 109.809 159.497 110.254 159.297C110.698 159.098 111.224 159.304 111.428 159.758C111.632 160.213 111.438 160.743 110.993 160.943Z" fill="#9C96D6"/>
<path d="M97.1597 156.342C104.194 156.115 108.474 151.976 108.237 148.811C108.186 148.136 104.516 144.887 102.065 144.717C94.9041 142.584 88.2741 147.846 86.9082 153.103C84.9387 162.35 91.8129 167.384 95.5665 168.644C95.5665 168.644 95.9665 166.844 94.7255 164.59C94.3485 164.33 94.4397 164.975 93.3285 164.833C89.8758 164.391 88.5806 161.16 89.8345 160.076C91.7863 158.389 94.0126 160.492 94.9318 162.538C95.4947 162.161 95.1619 160.64 94.6103 159.887C93.6244 158.54 91.8384 157.194 91.8971 156.485C92.238 155.78 93.7531 156.452 97.1597 156.342Z" fill="black"/>
<path d="M121.289 183.833C121.289 185.466 120.892 187.005 120.189 188.36C118.549 191.52 115.248 193.677 111.444 193.677C106.007 193.677 101.6 189.27 101.6 183.833C101.6 180.485 103.271 177.526 105.826 175.747C107.419 174.638 109.355 173.988 111.444 173.988C112.311 173.988 113.152 174.101 113.953 174.311C118.175 175.42 121.289 179.263 121.289 183.833Z" stroke="black" stroke-width="0.676992"/>
<path d="M93.1105 188.438C89.6579 188.438 86.8492 185.681 86.7656 182.249L94.5443 175.801C97.2087 176.583 99.4575 179.218 99.4575 182.091C99.4575 183.144 99.2014 184.136 98.7483 185.009C97.6911 187.047 95.563 188.438 93.1105 188.438Z" stroke="black" stroke-width="0.676992" stroke-linecap="round"/>
<path d="M120.104 245.383C120.104 242.034 121.775 239.076 124.33 237.297C125.923 236.188 127.859 235.538 129.948 235.538C130.815 235.538 131.656 235.65 132.457 235.861C135.178 236.576 137.44 238.427 138.703 240.876C136.436 242.89 132.909 244.246 129.35 245.119C125.866 245.972 122.4 246.351 120.16 246.443C120.123 246.095 120.104 245.741 120.104 245.383Z" stroke="black" stroke-width="0.676992"/>
<path d="M149.102 207.867C149.102 210.51 148.458 213.002 147.321 215.196C144.667 220.311 139.323 223.805 133.164 223.805C124.362 223.805 117.227 216.669 117.227 207.867C117.227 202.446 119.933 197.657 124.07 194.778C126.649 192.982 129.783 191.93 133.164 191.93C134.568 191.93 135.93 192.111 137.226 192.452C144.061 194.248 149.102 200.469 149.102 207.867Z" stroke="black" stroke-width="0.676992"/>
<path d="M128.003 229.079C128.003 231.722 127.36 234.214 126.222 236.408C123.568 241.523 118.224 245.017 112.065 245.017C103.263 245.017 96.1279 237.881 96.1279 229.079C96.1279 223.658 98.8342 218.869 102.971 215.989C105.55 214.194 108.684 213.142 112.065 213.142C113.47 213.142 114.831 213.323 116.127 213.664C122.962 215.46 128.003 221.681 128.003 229.079Z" stroke="black" stroke-width="0.676992"/>
<path d="M126.142 205.859C127.042 204.247 127.551 202.417 127.551 200.476C127.551 195.042 123.562 190.472 118.155 189.153C117.129 188.903 116.052 188.77 114.942 188.77C112.267 188.77 109.787 189.542 107.747 190.861C104.475 192.976 102.333 196.494 102.333 200.476C102.333 203.828 103.85 206.85 106.282 208.985" stroke="black" stroke-width="0.676992"/>
<path d="M95.7607 168.431C97.1147 169.146 100.384 170.022 103.32 169.503C105.325 169.149 107.702 167.829 108.144 167.528" stroke="black" stroke-width="0.676992" stroke-linecap="round"/>
<path d="M124.955 166.654C122.473 166.654 114.273 170.076 110.484 171.788C110.851 172.399 111.951 174.022 113.418 175.624C115.252 177.627 123.658 197.034 124.955 202.901C126.253 208.768 127.325 218.077 128.058 222.844C128.645 226.658 133.173 238.217 135.364 243.521C143.691 241.467 152.618 233.525 156.04 229.811L149.27 205.835C152.26 208.27 159.668 212.994 165.377 212.407C172.514 211.674 173.811 207.837 174.545 205.835C175.278 203.832 176.914 199.234 178.55 194.664C180.186 190.095 180.384 178.191 180.384 173.621C180.384 169.051 179.933 152.437 179.735 150.97C179.676 150.534 162.708 152.925 159.538 153.114L161.174 168.121C161.174 179.911 160.497 180.752 158.241 187.33C154.827 185.628 146.867 181.091 142.331 176.555C136.661 170.885 128.058 166.654 124.955 166.654Z" fill="#5C51BB"/>
<path fill-rule="evenodd" clip-rule="evenodd" d="M91.7063 177.711C88.359 180.268 81.0155 185.79 78.4203 187.414C75.1764 189.445 65.1344 204.565 63.6111 212.068C62.0879 219.572 57.49 234.381 56.4745 236.75C55.459 239.12 53.7383 248.316 56.4745 253.591C58.4773 257.452 61.3868 257.398 63.5991 257.358C64.4093 257.343 65.1259 257.33 65.6704 257.511C67.7013 258.188 69.7605 258.527 71.453 258.527C73.0009 258.527 80.99 257.135 85.4511 256.358C85.8678 256.285 86.2537 256.218 86.6007 256.157C89.8503 255.593 93.5023 255.922 94.9221 256.157C95.4956 254.916 97.0149 252.191 98.5043 251.221C99.4323 250.617 103.148 250.313 107.065 249.994C111.008 249.672 115.155 249.333 116.868 248.654C115.618 243.784 113.014 233.495 112.608 231.306C111.138 223.38 106.395 207.358 99.689 194.551C99.5638 194.312 99.3178 193.86 98.9866 193.253C96.9506 189.517 91.7063 179.895 91.7063 177.711ZM89.9215 219.826C91.1439 223.164 93.6337 230.127 93.8142 231.278C93.9948 232.429 94.9426 236.534 95.3939 238.443C92.6765 238.114 86.9033 237.472 85.5493 237.54C84.1953 237.608 81.1676 237.155 79.8231 236.92C81.6002 233.055 85.4703 224.926 86.734 223.323C87.9977 221.721 89.3856 220.324 89.9215 219.826Z" fill="#5C51BB"/>
<path d="M90.7119 186.709C90.7119 188.656 92.2905 190.235 94.2379 190.235C95.1882 190.235 96.0863 189.972 96.7204 189.36C96.0716 188.119 94.4918 184.988 93.6455 183.232C91.9802 183.514 90.7119 184.963 90.7119 186.709Z" fill="#FFCD00"/>
<path d="M116.24 180.7C118.187 180.7 119.766 179.122 119.766 177.174C119.766 175.227 118.187 173.648 116.24 173.648C114.941 173.648 113.805 174.351 113.193 175.397C114.04 176.422 115.394 178.811 116.24 180.7Z" fill="#FFCD00"/>
<path d="M136.043 232.603C137.99 232.603 139.569 231.024 139.569 229.077C139.569 227.129 137.99 225.551 136.043 225.551C134.095 225.551 132.517 227.129 132.517 229.077C132.517 231.024 134.095 232.603 136.043 232.603Z" fill="#FFCD00"/>
<path d="M175.562 167.809C175.562 169.757 177.14 171.335 179.088 171.335C179.535 171.335 179.963 171.252 180.357 171.1C180.357 170.28 180.244 166.331 180.188 164.458C179.841 164.345 179.472 164.283 179.088 164.283C177.14 164.283 175.562 165.862 175.562 167.809Z" fill="#FFCD00"/>
<path d="M164.589 194.409C166.536 194.409 168.115 192.831 168.115 190.883C168.115 188.936 166.536 187.357 164.589 187.357C162.641 187.357 161.062 188.936 161.062 190.883C161.062 192.831 162.641 194.409 164.589 194.409Z" fill="#FFCD00"/>
<path d="M164.589 162.027C166.536 162.027 168.115 160.448 168.115 158.501C168.115 156.553 166.536 154.975 164.589 154.975C162.641 154.975 161.062 156.553 161.062 158.501C161.062 160.448 162.641 162.027 164.589 162.027Z" fill="#FFCD00"/>
<path d="M164.278 211.362C164.278 209.414 162.699 207.836 160.752 207.836C159.036 207.836 157.606 209.061 157.291 210.685C158.823 211.456 162.332 212.885 164.112 212.434C164.22 212.096 164.278 211.735 164.278 211.362Z" fill="#FFCD00"/>
<path d="M133.164 209.416C135.111 209.416 136.69 207.838 136.69 205.89C136.69 203.943 135.111 202.364 133.164 202.364C131.216 202.364 129.638 203.943 129.638 205.89C129.638 207.838 131.216 209.416 133.164 209.416Z" fill="#FFCD00"/>
<path d="M136.098 187.357C138.046 187.357 139.624 185.778 139.624 183.831C139.624 181.883 138.046 180.305 136.098 180.305C134.151 180.305 132.572 181.883 132.572 183.831C132.572 185.778 134.151 187.357 136.098 187.357Z" fill="#FFCD00"/>
<path d="M87.1862 217.991C89.1335 217.991 90.7122 216.413 90.7122 214.465C90.7122 212.518 89.1335 210.939 87.1862 210.939C85.2388 210.939 83.6602 212.518 83.6602 214.465C83.6602 216.413 85.2388 217.991 87.1862 217.991Z" fill="#FFCD00"/>
<path d="M105.1 218.156C105.293 220.094 107.02 221.508 108.958 221.315C109.361 221.275 109.741 221.168 110.09 221.008L107.931 214.416C106.212 214.797 104.921 216.361 105.1 218.156Z" fill="#FFCD00"/>
<path d="M77.3698 254.04C75.4224 254.04 73.8438 255.619 73.8438 257.566C73.8438 257.808 73.868 258.043 73.9143 258.271L80.8739 257.171C80.6776 255.41 79.1836 254.04 77.3698 254.04Z" fill="#FFCD00"/>
<path d="M65.86 239.202C67.8073 239.202 69.386 237.624 69.386 235.676C69.386 233.729 67.8073 232.15 65.86 232.15C63.9126 232.15 62.334 233.729 62.334 235.676C62.334 237.624 63.9126 239.202 65.86 239.202Z" fill="#FFCD00"/>
<path d="M98.3571 242.983C100.304 242.983 101.883 241.404 101.883 239.457C101.883 237.509 100.304 235.931 98.3571 235.931C96.4097 235.931 94.8311 237.509 94.8311 239.457C94.8311 241.404 96.4097 242.983 98.3571 242.983Z" fill="#FFCD00"/>
<path d="M111.671 249.698C113.618 249.698 115.197 248.119 115.197 246.172C115.197 244.224 113.618 242.646 111.671 242.646C109.723 242.646 108.145 244.224 108.145 246.172C108.145 248.119 109.723 249.698 111.671 249.698Z" fill="#FFCD00"/>
<path d="M68.4554 204.283C70.4028 204.283 71.9814 202.704 71.9814 200.757C71.9814 199.496 71.3199 198.39 70.325 197.767C70.325 197.767 69.1487 199.601 68.4554 200.813C67.781 201.992 66.8193 203.881 66.8193 203.881C67.3083 204.138 67.8649 204.283 68.4554 204.283Z" fill="#FFCD00"/>
<path d="M135.392 171.081C135.685 172.732 137.128 173.986 138.863 173.986C139.065 173.986 139.263 173.97 139.456 173.937C138.305 173.062 136.267 171.668 135.392 171.081Z" fill="#FFCD00"/>
<path d="M152.458 230.459C150.51 230.459 148.932 232.038 148.932 233.985C148.932 234.652 149.117 235.277 149.439 235.809C150.906 234.628 153.998 232.054 154.63 231.207C154.031 230.738 153.277 230.459 152.458 230.459Z" fill="#FFCD00"/>
<path d="M145.887 212.83C145.887 214.777 147.465 216.356 149.413 216.356C150.395 216.356 151.283 215.954 151.923 215.306L150.287 209.413C150.007 209.342 149.715 209.304 149.413 209.304C147.465 209.304 145.887 210.882 145.887 212.83Z" fill="#FFCD00"/>
<path d="M77.9516 237.358C77.2123 237.132 75.0425 237.319 72.2771 239.878C69.5117 242.436 66.8288 244.14 65.833 244.673" stroke="black" stroke-width="0.451328" stroke-linecap="round"/>
<path d="M77.2966 239.377C76.9795 239.392 76.0564 239.924 74.9014 241.931C73.7464 243.939 72.6187 245.441 72.1992 245.941" stroke="black" stroke-width="0.451328" stroke-linecap="round"/>
<path d="M99.9162 241.009C99.7802 240.722 98.9346 240.074 96.6367 239.78C94.3394 239.486 92.5193 239.023 91.8965 238.828" stroke="black" stroke-width="0.451328" stroke-linecap="round"/>
<path d="M81.1657 193.658C80.7515 196.315 84.8911 201.296 86.5645 206.455C87.7347 210.063 87.185 212.971 89.4135 217.625" stroke="black" stroke-width="0.676992" stroke-linecap="round"/>
<path d="M125.887 170.18C129.945 171.291 134.908 181.891 137.001 187.02C139.093 192.149 149.057 198.472 148.007 203.438" stroke="black" stroke-width="0.676992" stroke-linecap="round"/>
<path d="M159.331 188.242C160.375 188.369 163.003 188.994 165.158 190.483C167.853 192.345 168.621 193.874 169.171 193.97" stroke="black" stroke-width="0.451328" stroke-linecap="round"/>
<path d="M100.697 243.407L95.3936 255.226L102.502 256.411C107.589 256.777 118.541 257.483 121.655 257.37C124.77 257.257 124.852 255.893 124.504 255.226C125.087 255.226 126.434 255.13 127.156 254.747C128.645 254.024 128.171 252.866 127.748 252.377C128.068 252.377 129.272 252.405 129.92 250.995C130.574 249.573 128.388 248.973 127.156 248.907C127.513 248.466 127.918 247.474 126.676 247.046C125.125 246.51 117.763 245.805 117.763 245.325C117.514 244.039 115.684 243.51 114.801 243.407C111.312 242.692 105.915 243.012 100.697 243.407Z" fill="#DEDCF1"/>
<path d="M116.719 245.355C115.214 245.129 113.571 244.808 112.149 244.875" stroke="black" stroke-width="0.676992" stroke-linecap="round"/>
<path d="M108.369 168.601C108.519 169.372 109.057 171.173 110.005 172.211M95.026 169.672C95.0448 171.102 95.0034 174.253 94.6875 175.427L95.026 169.672ZM97.5649 170.349C97.6777 171.948 97.8357 175.28 97.5649 175.822V170.349ZM100.386 170.801C100.479 172.455 100.747 175.957 101.063 176.724L100.386 170.801ZM103.094 170.801C103.187 171.891 103.455 174.208 103.771 174.75L103.094 170.801ZM105.914 170.349C106.168 171.591 106.8 174.208 107.297 174.75L105.914 170.349Z" stroke="black" stroke-width="0.676992" stroke-linecap="round"/>
<path d="M126.198 248.767C124.054 248.174 119.428 247.3 116.945 247.582" stroke="black" stroke-width="0.676992" stroke-linecap="round"/>
<path d="M126.198 251.729C124.237 251.19 120.006 250.394 117.735 250.65" stroke="black" stroke-width="0.676992" stroke-linecap="round"/>
<path d="M123.546 254.55C121.794 254.064 118.014 253.348 115.986 253.579" stroke="black" stroke-width="0.676992" stroke-linecap="round"/>
</svg>
