<svg width="23" height="22" viewBox="0 0 23 22" fill="none" xmlns="http://www.w3.org/2000/svg" color="#5B4DBE">
<path d="M21.6399 11.69C20.8069 10.3986 19.6196 9.37445 18.2199 8.74001C18.7573 8.27853 19.1874 7.70513 19.4799 7.06C19.7652 6.43157 19.9152 5.75015 19.9199 5.06C19.9199 4.13144 19.6613 3.22123 19.1732 2.43135C18.685 1.64147 17.9865 1.00313 17.156 0.587863C16.3255 0.172599 15.3957 -0.00318645 14.4709 0.0802034C13.5461 0.163593 12.6628 0.502865 11.9199 1.06C11.0544 0.41089 10.0018 0.0600008 8.91992 0.0600008C7.59384 0.0600008 6.32207 0.586796 5.38438 1.52448C4.4467 2.46216 3.91992 3.73392 3.91992 5.06C3.92352 5.75137 4.07704 6.43372 4.36992 7.06C4.65872 7.70467 5.08541 8.27815 5.61992 8.74001C4.22006 9.37389 3.03238 10.3975 2.1989 11.6886C1.36541 12.9796 0.921394 14.4833 0.919922 16.02C0.919922 16.2852 1.02528 16.5396 1.21281 16.7271C1.40035 16.9147 1.65471 17.02 1.91992 17.02C2.05153 17.0208 2.182 16.9955 2.30383 16.9458C2.42567 16.896 2.53649 16.8227 2.62993 16.73C2.72261 16.6366 2.79592 16.5258 2.84569 16.4039C2.89545 16.2821 2.92068 16.1516 2.91992 16.02C2.92154 14.7535 3.32388 13.52 4.06934 12.4961C4.81479 11.4722 5.86512 10.7105 7.06992 10.32C7.13979 10.6195 7.24032 10.9111 7.36992 11.19C7.66162 11.8301 8.08799 12.3997 8.61992 12.86C7.22006 13.4939 6.03238 14.5175 5.1989 15.8086C4.36541 17.0996 3.92139 18.6033 3.91992 20.14C3.92047 20.2723 3.94727 20.4032 3.99876 20.5251C4.05026 20.6469 4.12544 20.7574 4.21992 20.85C4.40619 21.0348 4.65758 21.1389 4.91992 21.14C5.18514 21.14 5.43949 21.0346 5.62703 20.8471C5.81457 20.6596 5.91992 20.4052 5.91992 20.14C5.91992 18.5487 6.55206 17.0226 7.67728 15.8974C8.8025 14.7721 10.3286 14.14 11.9199 14.14C13.5112 14.14 15.0373 14.7721 16.1626 15.8974C17.2878 17.0226 17.9199 18.5487 17.9199 20.14C17.9205 20.2723 17.9473 20.4032 17.9988 20.5251C18.0503 20.6469 18.1254 20.7574 18.2199 20.85C18.4062 21.0348 18.6576 21.1389 18.9199 21.14C19.1851 21.14 19.4395 21.0346 19.627 20.8471C19.8146 20.6596 19.9199 20.4052 19.9199 20.14C19.9213 18.6032 19.4766 17.099 18.6399 15.81C17.8069 14.5186 16.6196 13.4944 15.2199 12.86C15.7548 12.4001 16.1845 11.8306 16.4799 11.19C16.6019 10.9159 16.699 10.6315 16.7699 10.34C17.9565 10.7431 18.9872 11.5077 19.7171 12.5264C20.4471 13.5451 20.8397 14.7668 20.8399 16.02C20.8399 16.2852 20.9453 16.5396 21.1328 16.7271C21.3203 16.9147 21.5747 17.02 21.8399 17.02C21.9715 17.0208 22.102 16.9955 22.2238 16.9458C22.3457 16.896 22.4565 16.8227 22.5499 16.73C22.6426 16.6366 22.7159 16.5258 22.7657 16.4039C22.8155 16.2821 22.8407 16.1516 22.8399 16.02C22.8663 14.4911 22.4495 12.9872 21.6399 11.69ZM6.22992 6.01001C6.00176 5.45975 5.94258 4.85402 6.05992 4.27001C6.17651 3.69034 6.46179 3.15806 6.87993 2.74001C7.30069 2.32015 7.83669 2.03473 8.41992 1.92C9.00051 1.80036 9.60373 1.85963 10.1499 2.09C10.3402 2.17021 10.5213 2.2708 10.6899 2.39C10.2731 3.05389 10.0226 3.8086 9.95992 4.59C9.40571 4.82837 8.90051 5.16743 8.46992 5.59C7.97457 6.08753 7.58955 6.6838 7.33992 7.34C6.84413 7.01014 6.45773 6.5402 6.22992 5.99001V6.01001ZM11.9999 12.14C11.4071 12.1398 10.8276 11.964 10.3346 11.6348C9.84158 11.3055 9.45718 10.8376 9.22992 10.29L9.13992 10.03C9.07167 9.79858 9.02809 9.5606 9.00992 9.32001V9.26001C8.9801 9.02763 8.9801 8.79238 9.00992 8.56C9.03598 8.4305 9.07277 8.30341 9.11992 8.18001C9.16053 8.06101 9.20725 7.94418 9.25992 7.83001C9.46935 7.38916 9.78559 7.0076 10.1799 6.72C10.343 6.6116 10.5134 6.5147 10.6899 6.43001L10.8099 6.38001C10.9892 6.29918 11.1771 6.23879 11.3699 6.2C11.4599 6.1951 11.55 6.1951 11.6399 6.2C11.8461 6.18 12.0537 6.18 12.2599 6.2C12.5486 6.22901 12.8315 6.29976 13.0999 6.41001C13.6501 6.63782 14.1201 7.02422 14.4499 7.52001C14.5246 7.6354 14.5914 7.75567 14.6499 7.88001C14.7406 8.06521 14.811 8.25967 14.8599 8.46001C14.8599 8.46001 14.8599 8.54 14.8599 8.58C14.9029 8.77722 14.9264 8.9782 14.9299 9.18001C14.9402 9.33651 14.9402 9.49352 14.9299 9.65001C14.9299 9.79001 14.8699 9.93 14.8299 10.06C14.642 10.6724 14.263 11.2086 13.7484 11.5901C13.2338 11.9716 12.6105 12.1783 11.9699 12.18L11.9999 12.14ZM17.1199 6.98C16.9805 7.12258 16.8263 7.24996 16.6599 7.36C16.3109 6.42637 15.6877 5.62015 14.8721 5.04724C14.0564 4.47434 13.0866 4.16157 12.0899 4.15001C12.2193 3.61659 12.4926 3.12889 12.8799 2.74001C12.9973 2.62274 13.1244 2.51568 13.2599 2.42C13.6067 2.1729 14.0022 2.00245 14.4199 1.92C15.0005 1.80036 15.6037 1.85963 16.1499 2.09C16.6988 2.31512 17.1686 2.69793 17.4999 3.19001C17.8282 3.68491 18.0022 4.26612 17.9999 4.86C18.0073 5.64139 17.7095 6.39482 17.1699 6.96001L17.1199 6.98Z" fill="currentColor"/>
</svg>
