<svg width="115" height="50" viewBox="0 0 115 50" fill="none" xmlns="http://www.w3.org/2000/svg">
<path d="M64 4.00003H50C49.2044 4.00003 48.4413 4.3161 47.8787 4.87871C47.3161 5.44132 47 6.20438 47 7.00003V17C47 17.7957 47.3161 18.5587 47.8787 19.1214C48.4413 19.684 49.2044 20 50 20H64C64.7956 20 65.5587 19.684 66.1213 19.1214C66.6839 18.5587 67 17.7957 67 17V7.00003C67 6.20438 66.6839 5.44132 66.1213 4.87871C65.5587 4.3161 64.7956 4.00003 64 4.00003ZM50 18C49.7348 18 49.4804 17.8947 49.2929 17.7071C49.1054 17.5196 49 17.2652 49 17V14.58L52.3 11.29C52.4869 11.1068 52.7382 11.0042 53 11.0042C53.2618 11.0042 53.5131 11.1068 53.7 11.29L60.41 18H50ZM65 17C65 17.2652 64.8946 17.5196 64.7071 17.7071C64.5196 17.8947 64.2652 18 64 18H63.23L59.42 14.17L60.3 13.29C60.4869 13.1068 60.7382 13.0042 61 13.0042C61.2618 13.0042 61.5131 13.1068 61.7 13.29L65 16.58V17ZM65 13.76L63.12 11.89C62.5501 11.3425 61.7904 11.0367 61 11.0367C60.2096 11.0367 59.4499 11.3425 58.88 11.89L58 12.77L55.12 9.89003C54.5501 9.34246 53.7904 9.03666 53 9.03666C52.2096 9.03666 51.4499 9.34246 50.88 9.89003L49 11.76V7.00003C49 6.73481 49.1054 6.48046 49.2929 6.29292C49.4804 6.10539 49.7348 6.00003 50 6.00003H64C64.2652 6.00003 64.5196 6.10539 64.7071 6.29292C64.8946 6.48046 65 6.73481 65 7.00003V13.76Z" fill="#1C1C1E"/>
<path d="M57.6666 7.25283C57.9133 7.088 58.2033 7.00003 58.5 7.00003C58.8978 7.00003 59.2794 7.15807 59.5607 7.43937C59.842 7.72067 60 8.10221 60 8.50003C60 8.7967 59.912 9.08671 59.7472 9.33339C59.5824 9.58006 59.3481 9.77232 59.074 9.88585C58.7999 9.99938 58.4983 10.0291 58.2074 9.97121C57.9164 9.91333 57.6491 9.77047 57.4393 9.56069C57.2296 9.35091 57.0867 9.08364 57.0288 8.79267C56.9709 8.50169 57.0007 8.20009 57.1142 7.92601C57.2277 7.65192 57.42 7.41765 57.6666 7.25283Z" fill="#1C1C1E"/>
<path d="M0.808391 38.524H3.10039V46H4.19239V38.524H6.47239V37.636H0.808391V38.524ZM7.81658 46H8.90858V42.364C8.90858 40.948 9.67658 40.252 10.7926 40.252C11.8966 40.252 12.6286 40.936 12.6286 42.28V46H13.7086V42.124C13.7086 40.24 12.5446 39.304 11.0806 39.304C10.1566 39.304 9.34058 39.676 8.90858 40.372V37.12H7.81658V46ZM21.3244 39.424H20.2324V43.036C20.2324 44.452 19.4764 45.148 18.3484 45.148C17.2444 45.148 16.5124 44.464 16.5124 43.132V39.424H15.4324V43.276C15.4324 45.16 16.6204 46.096 18.1324 46.096C19.0084 46.096 19.8124 45.712 20.2324 45.028V46H21.3244V39.424ZM32.6601 46H33.7401V42.124C33.7401 40.24 32.5761 39.304 31.0761 39.304C30.0681 39.304 29.1321 39.82 28.7481 40.768C28.3161 39.784 27.4161 39.304 26.3361 39.304C25.4721 39.304 24.6921 39.676 24.2601 40.372V39.424H23.1681V46H24.2601V42.376C24.2601 40.96 25.0161 40.252 26.1201 40.252C27.2001 40.252 27.9201 40.936 27.9201 42.28V46H29.0001V42.376C29.0001 40.96 29.7561 40.252 30.8601 40.252C31.9401 40.252 32.6601 40.936 32.6601 42.28V46ZM36.6234 40.648V37.12H35.5314V46H36.6234V44.788C37.0314 45.508 37.8834 46.108 39.0834 46.108C40.8474 46.108 42.2034 44.728 42.2034 42.688C42.2034 40.636 40.8594 39.316 39.0834 39.316C37.9194 39.316 37.0434 39.916 36.6234 40.648ZM41.0874 42.688C41.0874 44.236 40.0674 45.148 38.8554 45.148C37.6674 45.148 36.6234 44.248 36.6234 42.7C36.6234 41.176 37.6674 40.264 38.8554 40.264C40.0674 40.264 41.0874 41.14 41.0874 42.688ZM48.4528 46H49.5328V42.124C49.5328 40.24 48.3688 39.304 46.8448 39.304C45.9568 39.304 45.1648 39.676 44.7328 40.36V39.424H43.6408V46H44.7328V42.364C44.7328 40.948 45.5008 40.252 46.6168 40.252C47.7208 40.252 48.4528 40.936 48.4528 42.28V46ZM50.9086 42.688C50.9086 44.728 52.2646 46.108 54.0166 46.108C55.2286 46.108 56.0806 45.484 56.4766 44.776V46H57.5806V39.424H56.4766V40.624C56.0926 39.94 55.2526 39.316 54.0286 39.316C52.2646 39.316 50.9086 40.636 50.9086 42.688ZM56.4766 42.7C56.4766 44.248 55.4446 45.148 54.2446 45.148C53.0446 45.148 52.0246 44.236 52.0246 42.688C52.0246 41.14 53.0446 40.264 54.2446 40.264C55.4446 40.264 56.4766 41.176 56.4766 42.7ZM59.426 46H60.518V39.424H59.426V46ZM59.99 38.356C60.386 38.356 60.71 38.032 60.71 37.612C60.71 37.192 60.386 36.868 59.99 36.868C59.57 36.868 59.246 37.192 59.246 37.612C59.246 38.032 59.57 38.356 59.99 38.356ZM62.3791 46H63.4711V37.12H62.3791V46ZM69.6234 40.636V39.424H68.5314V49.12H69.6234V44.788C70.0314 45.46 70.8834 46.108 72.0834 46.108C73.8474 46.108 75.2034 44.728 75.2034 42.688C75.2034 40.636 73.8474 39.316 72.0834 39.316C70.8834 39.316 70.0194 39.94 69.6234 40.636ZM74.0874 42.688C74.0874 44.236 73.0674 45.148 71.8554 45.148C70.6674 45.148 69.6234 44.248 69.6234 42.7C69.6234 41.176 70.6674 40.264 71.8554 40.264C73.0674 40.264 74.0874 41.14 74.0874 42.688ZM77.7328 42.424C77.7328 40.9 78.5248 40.432 79.5688 40.432H79.8568V39.304C78.8128 39.304 78.1048 39.76 77.7328 40.492V39.424H76.6408V46H77.7328V42.424ZM83.9134 40.24C85.0414 40.24 86.0014 40.948 85.9894 42.232H81.8374C81.9574 40.948 82.8454 40.24 83.9134 40.24ZM86.9854 43.972H85.8094C85.5694 44.68 84.9454 45.184 83.9614 45.184C82.8454 45.184 81.9094 44.452 81.8254 43.12H87.0814C87.1054 42.892 87.1174 42.7 87.1174 42.46C87.1174 40.66 85.8694 39.316 83.9614 39.316C82.0414 39.316 80.7094 40.624 80.7094 42.7C80.7094 44.788 82.0894 46.108 83.9614 46.108C85.5934 46.108 86.6494 45.172 86.9854 43.972ZM87.7788 39.424L90.3588 46H91.6308L94.2108 39.424H93.0468L91.0068 44.992L88.9548 39.424H87.7788ZM95.2853 46H96.3773V39.424H95.2853V46ZM95.8493 38.356C96.2453 38.356 96.5693 38.032 96.5693 37.612C96.5693 37.192 96.2453 36.868 95.8493 36.868C95.4293 36.868 95.1053 37.192 95.1053 37.612C95.1053 38.032 95.4293 38.356 95.8493 38.356ZM101.034 40.24C102.162 40.24 103.122 40.948 103.11 42.232H98.9585C99.0785 40.948 99.9665 40.24 101.034 40.24ZM104.106 43.972H102.93C102.69 44.68 102.066 45.184 101.082 45.184C99.9665 45.184 99.0305 44.452 98.9465 43.12H104.202C104.226 42.892 104.238 42.7 104.238 42.46C104.238 40.66 102.99 39.316 101.082 39.316C99.1625 39.316 97.8305 40.624 97.8305 42.7C97.8305 44.788 99.2105 46.108 101.082 46.108C102.714 46.108 103.77 45.172 104.106 43.972ZM106.964 46H108.092L109.676 40.78L111.26 46H112.388L114.44 39.424H113.36L111.872 44.956L110.276 39.424H109.16L107.528 44.944L106.016 39.424H104.9L106.964 46Z" fill="#AEAEB2"/>
</svg>
