<svg width="30" height="25" viewBox="0 0 30 25" fill="none" xmlns="http://www.w3.org/2000/svg">
<path d="M27.9527 3.78661C27.7855 3.28166 27.4676 2.84007 27.0417 2.52129C26.6159 2.20251 26.1027 2.02185 25.5711 2.00362H4.74766C4.14038 1.97159 3.54106 2.15319 3.05371 2.51692C2.56636 2.88066 2.22175 3.40355 2.07968 3.99485C2.02799 4.22555 2.00181 4.46121 2.0016 4.69763V20.146C1.98936 20.4954 2.04762 20.8437 2.17294 21.1701C2.29826 21.4965 2.48811 21.7943 2.73105 22.0457C2.97398 22.2971 3.26507 22.4971 3.58696 22.6335C3.90885 22.77 4.25489 22.8402 4.60452 22.84H25.2978C25.9179 22.849 26.5208 22.6363 26.998 22.2403C27.4752 21.8442 27.7953 21.2907 27.9007 20.6796C27.8952 20.6407 27.8952 20.6013 27.9007 20.5625V4.28117C28.0438 4.11198 28.0048 3.9558 27.9527 3.78661ZM22.9031 5.92101H25.506V8.52393H22.9031V5.92101ZM22.9031 11.1269H25.506V13.7298H22.9031V11.1269ZM4.6826 11.1269H7.28553V13.7298H4.6826V11.1269ZM7.28553 18.9356H4.6826V16.3327H7.28553V18.9356ZM7.28553 8.52393H4.6826V5.92101H7.28553V8.52393ZM20.3001 20.2371H9.88845V4.61955H20.3001V20.2371ZM25.506 18.9356H22.9031V16.3327H25.506V18.9356Z" fill="#5B4DBE"/>
<path d="M12.5044 8.52393V16.3327L19.0117 12.4283L12.5044 8.52393Z" fill="#5B4DBE"/>
</svg>
