<svg width="38" height="38" viewBox="0 0 38 38" fill="none" xmlns="http://www.w3.org/2000/svg">
<path d="M37.5958 19.4277C37.5958 18.1768 37.485 16.9893 37.295 15.8335H19.4033V22.9743H29.6475C29.1883 25.3177 27.8425 27.2968 25.8475 28.6427V33.3927H31.9591C35.5375 30.0835 37.5958 25.2068 37.5958 19.4277Z" fill="#4285F4"/>
<path d="M19.4038 38.0001C24.5338 38.0001 28.8246 36.2901 31.9596 33.3926L25.848 28.6426C24.138 29.7826 21.9688 30.4793 19.4038 30.4793C14.448 30.4793 10.2521 27.1385 8.74796 22.626H2.44629V27.5185C5.56546 33.7251 11.978 38.0001 19.4038 38.0001Z" fill="#34A853"/>
<path d="M8.74749 22.6256C8.35165 21.4856 8.14582 20.2664 8.14582 18.9998C8.14582 17.7331 8.36749 16.5139 8.74749 15.3739V10.4814H2.44582C1.14749 13.0464 0.40332 15.9281 0.40332 18.9998C0.40332 22.0714 1.14749 24.9531 2.44582 27.5181L8.74749 22.6256Z" fill="#FBBC05"/>
<path d="M19.4038 7.52083C22.2063 7.52083 24.708 8.48667 26.6871 10.3708L32.1021 4.95583C28.8246 1.88417 24.5338 0 19.4038 0C11.978 0 5.56546 4.275 2.44629 10.4817L8.74796 15.3742C10.2521 10.8617 14.448 7.52083 19.4038 7.52083Z" fill="#EA4335"/>
</svg>
