<svg width="24" height="24" viewBox="0 0 24 24"  fill="currentColor" xmlns="http://www.w3.org/2000/svg">
<path d="M4.99991 2C4.44763 2 3.99991 2.44772 3.99991 3V7.18C3.42412 7.39215 2.92723 7.77578 2.57626 8.27913C2.22528 8.78249 2.03711 9.38136 2.03711 9.995C2.03711 10.6086 2.22528 11.2075 2.57626 11.7109C2.92723 12.2142 3.42412 12.5978 3.99991 12.81V21C3.99991 21.5523 4.44763 22 4.99991 22C5.5522 22 5.99991 21.5523 5.99991 21V12.82C6.57907 12.6098 7.07945 12.2264 7.43307 11.7218C7.78669 11.2173 7.97639 10.6161 7.97639 10C7.97639 9.38388 7.78669 8.7827 7.43307 8.27816C7.07945 7.77363 6.57907 7.3902 5.99991 7.18V3C5.99991 2.44772 5.5522 2 4.99991 2ZM11.9999 2C11.4476 2 10.9999 2.44772 10.9999 3V14.18C10.4241 14.3922 9.92723 14.7758 9.57626 15.2791C9.22528 15.7825 9.03711 16.3814 9.03711 16.995C9.03711 17.6086 9.22528 18.2075 9.57626 18.7109C9.92723 19.2142 10.4241 19.5978 10.9999 19.81V21C10.9999 21.5523 11.4476 22 11.9999 22C12.5522 22 12.9999 21.5523 12.9999 21V19.82C13.5757 19.6078 14.0726 19.2242 14.4236 18.7209C14.7745 18.2175 14.9627 17.6186 14.9627 17.005C14.9627 16.3914 14.7745 15.7925 14.4236 15.2891C14.0726 14.7858 13.5757 14.4022 12.9999 14.19V3C12.9999 2.44771 12.5522 2 11.9999 2ZM18.9999 2C18.2964 2.00546 17.6171 2.25801 17.0809 2.71352C16.5447 3.16902 16.1857 3.79849 16.0665 4.49189C15.9474 5.18529 16.0757 5.89851 16.4291 6.50687C16.7826 7.11523 17.3385 7.58002 17.9999 7.82V21C17.9999 21.5523 18.4476 22 18.9999 22C19.5522 22 19.9999 21.5523 19.9999 21V7.82C20.6613 7.58002 21.2173 7.11523 21.5707 6.50687C21.9241 5.89851 22.0525 5.18529 21.9333 4.49189C21.8142 3.79849 21.4551 3.16902 20.9189 2.71352C20.3827 2.25801 19.7035 2.00546 18.9999 2Z" />
</svg>
