<svg width="223" height="220" viewBox="0 0 223 220" fill="none" xmlns="http://www.w3.org/2000/svg">
<path d="M16.9555 143.328C16.9555 145.021 16.5716 148.324 14.8683 148.324C13.165 148.324 10.7871 145.021 10.7871 143.328C10.7871 141.636 12.1679 140.264 13.8713 140.264C15.5747 140.264 16.9555 141.636 16.9555 143.328Z" fill="#5C51BB"/>
<path d="M24.2574 145.313C24.2574 146.603 23.9668 149.119 22.6772 149.119C21.3876 149.119 19.5874 146.603 19.5874 145.313C19.5874 144.024 20.6328 142.979 21.9223 142.979C23.2119 142.979 24.2574 144.024 24.2574 145.313Z" fill="#5C51BB"/>
<path d="M17.7603 153.455C17.7603 154.745 17.4697 157.261 16.1801 157.261C14.8905 157.261 13.0903 154.745 13.0903 153.455C13.0903 152.165 14.1357 151.12 15.4253 151.12C16.7149 151.12 17.7603 152.165 17.7603 153.455Z" fill="#9C96D6"/>
<path d="M24.2676 153.455C24.2676 154.745 23.977 157.261 22.6874 157.261C21.3978 157.261 19.5977 154.745 19.5977 153.455C19.5977 152.165 20.6431 151.12 21.9326 151.12C23.2222 151.12 24.2676 152.165 24.2676 153.455Z" fill="#9C96D6"/>
<path d="M30.7652 153.455C30.7652 154.745 30.4746 157.261 29.185 157.261C27.8954 157.261 26.0952 154.745 26.0952 153.455C26.0952 152.165 27.1406 151.12 28.4301 151.12C29.7197 151.12 30.7652 152.165 30.7652 153.455Z" fill="#9C96D6"/>
<path d="M17.8418 161.598C17.8418 162.887 17.5513 165.403 16.2617 165.403C14.9721 165.403 13.1719 162.887 13.1719 161.598C13.1719 160.308 14.2173 159.263 15.5068 159.263C16.7964 159.263 17.8418 160.308 17.8418 161.598Z" fill="#DEDCF1"/>
<path d="M105.717 106.78L108.807 26.6836H204.511V103.504L105.717 106.78Z" stroke="black" stroke-width="0.98694"/>
<path d="M199.21 75.7432H161.46" stroke="black" stroke-width="0.65796" stroke-linecap="round"/>
<path d="M180.952 52.5908H143.202" stroke="black" stroke-width="0.65796" stroke-linecap="round"/>
<path d="M199.211 71.0547H184.653" stroke="black" stroke-width="0.65796" stroke-linecap="round"/>
<path d="M41.5464 101.197H79.2971" stroke="black" stroke-width="0.65796" stroke-linecap="round"/>
<path d="M41.5464 96.5098H56.1037" stroke="black" stroke-width="0.65796" stroke-linecap="round"/>
<path d="M205.004 26.1904H108.332V42.2949H205.004V26.1904Z" fill="#363071"/>
<path d="M115.941 38.3567C118.213 38.3567 120.054 36.5148 120.054 34.2428C120.054 31.9708 118.213 30.1289 115.941 30.1289C113.669 30.1289 111.827 31.9708 111.827 34.2428C111.827 36.5148 113.669 38.3567 115.941 38.3567Z" fill="#6B61C2"/>
<path d="M126.636 38.3567C128.908 38.3567 130.75 36.5148 130.75 34.2428C130.75 31.9708 128.908 30.1289 126.636 30.1289C124.364 30.1289 122.522 31.9708 122.522 34.2428C122.522 36.5148 124.364 38.3567 126.636 38.3567Z" fill="#9C96D6"/>
<path d="M137.332 38.3567C139.604 38.3567 141.446 36.5148 141.446 34.2428C141.446 31.9708 139.604 30.1289 137.332 30.1289C135.06 30.1289 133.218 31.9708 133.218 34.2428C133.218 36.5148 135.06 38.3567 137.332 38.3567Z" fill="#DEDCF1"/>
<path d="M34.3086 123.824L36.8243 83.1865H115.5V122.146L34.3086 123.824Z" stroke="black" stroke-width="0.98694"/>
<path d="M115.994 82.6924H36.3608V90.9601H115.994V82.6924Z" fill="#363071"/>
<path d="M41.547 88.9425C42.8188 88.9425 43.8499 88.0036 43.8499 86.8453C43.8499 85.687 42.8188 84.748 41.547 84.748C40.2752 84.748 39.2441 85.687 39.2441 86.8453C39.2441 88.0036 40.2752 88.9425 41.547 88.9425Z" fill="#6B61C2"/>
<path d="M47.592 88.9425C48.8866 88.9425 49.936 88.0036 49.936 86.8453C49.936 85.687 48.8866 84.748 47.592 84.748C46.2975 84.748 45.248 85.687 45.248 86.8453C45.248 88.0036 46.2975 88.9425 47.592 88.9425Z" fill="#9C96D6"/>
<path d="M53.6364 88.9425C54.9082 88.9425 55.9392 88.0036 55.9392 86.8453C55.9392 85.687 54.9082 84.748 53.6364 84.748C52.3645 84.748 51.3335 85.687 51.3335 86.8453C51.3335 88.0036 52.3645 88.9425 53.6364 88.9425Z" fill="#DEDCF1"/>
<path d="M122.147 49.0547H58.8184V131.875H118.611" stroke="#5C51BB" stroke-width="0.98694"/>
<path d="M212.616 193.887H149.288V111.066" stroke="#5C51BB" stroke-width="0.98694"/>
<path d="M221.828 16.51C217.205 29.8802 195.998 54.6056 189.61 46.9225C181.625 37.3186 184.707 9.82507 195.493 8.22442C206.279 6.62377 190.591 46.7342 177.143 43.9095C166.385 41.6498 172.661 29.9117 177.143 24.3251C175.556 31.8576 173.516 42.403 151.509 49.4647" stroke="#5C51BB" stroke-width="0.98694" stroke-linecap="round"/>
<path d="M60.4628 173.766C58.0569 184.633 47.0189 204.728 43.6943 198.484C39.5387 190.678 41.1426 168.333 46.7564 167.032C52.3702 165.731 44.2047 198.331 37.2056 196.035C31.6064 194.198 34.8727 184.659 37.2056 180.118C36.3794 186.24 35.3179 194.811 23.8638 200.55" stroke="#5C51BB" stroke-width="0.98694" stroke-linecap="round"/>
<path d="M94.0189 161.565C112.778 161.565 127.986 146.358 127.986 127.598C127.986 108.838 112.778 93.6309 94.0189 93.6309C75.2594 93.6309 60.0518 108.838 60.0518 127.598C60.0518 146.358 75.2594 161.565 94.0189 161.565Z" fill="#DEDCF1"/>
<path d="M92.0454 130.231C96.724 130.231 100.517 126.438 100.517 121.759C100.517 117.081 96.724 113.288 92.0454 113.288C87.3669 113.288 83.5742 117.081 83.5742 121.759C83.5742 126.438 87.3669 130.231 92.0454 130.231Z" fill="#484096"/>
<path d="M91.4287 126.57C91.9082 126.666 92.9914 126.735 93.4848 126.241" stroke="white" stroke-width="0.65796" stroke-linecap="round"/>
<path d="M94.019 117.55C94.4985 117.454 95.5817 117.385 96.0752 117.879" stroke="white" stroke-width="0.65796" stroke-linecap="round"/>
<path d="M88.5908 117.55C88.1105 117.454 87.0281 117.385 86.5347 117.879" stroke="white" stroke-width="0.65796" stroke-linecap="round"/>
<path d="M91.5107 121.717L89.6602 124.266H91.5107" stroke="white" stroke-width="0.65796" stroke-linecap="round"/>
<path d="M62.7847 140.305C67.0181 151.481 77.8226 160.948 90.4825 160.948C103.143 160.948 113.946 151.481 118.18 140.305C113.841 136.809 102.227 129.818 90.4825 129.818C78.738 129.818 67.1233 136.809 62.7847 140.305Z" fill="#484096"/>
<path d="M75.2261 155.562L77.6934 153.218L77.0355 156.425" stroke="white" stroke-width="0.65796" stroke-linecap="round"/>
<path d="M94.677 121.759C95.0404 121.759 95.335 121.465 95.335 121.101C95.335 120.738 95.0404 120.443 94.677 120.443C94.3136 120.443 94.019 120.738 94.019 121.101C94.019 121.465 94.3136 121.759 94.677 121.759Z" fill="white"/>
<path d="M87.9329 121.676C88.2962 121.676 88.5908 121.382 88.5908 121.018C88.5908 120.655 88.2962 120.36 87.9329 120.36C87.5695 120.36 87.2749 120.655 87.2749 121.018C87.2749 121.382 87.5695 121.676 87.9329 121.676Z" fill="white"/>
<path d="M93.3723 8.03225L74.626 1.20703L71.2257 10.5463L89.9721 17.3715L93.3723 8.03225Z" stroke="#5C51BB" stroke-width="0.65796"/>
<path d="M81.7232 10.2336L74.5679 1.51562L93.2786 8.17747L81.7232 10.2336Z" fill="#5C51BB"/>
<path d="M20.893 48.5468L1.15869 51.4736L2.61681 61.3051L22.3511 58.3782L20.893 48.5468Z" stroke="#5C51BB" stroke-width="0.65796"/>
<path d="M11.699 56.0317L1 51.5623L20.9444 48.6426L11.699 56.0317Z" fill="#5C51BB"/>
<path d="M23.4273 4.08318L12.6807 1L11.1834 6.21879L21.93 9.30197L23.4273 4.08318Z" stroke="#5C51BB" stroke-width="0.65796"/>
<path d="M17.0131 5.7169L13.4189 1.55859L22.5893 4.10819L17.0131 5.7169Z" stroke="#5C51BB" stroke-width="0.65796"/>
<path d="M217.163 145.804L190.902 138.27L187.116 151.466L213.377 159L217.163 145.804Z" stroke="black" stroke-width="0.65796"/>
<path d="M201.449 149.971L191.644 138.701L216.235 145.98L201.449 149.971Z" stroke="black" stroke-width="0.65796"/>
<path d="M94.1427 200.59L107.466 176.657L93.7726 167.404L86.5761 178.919C86.4248 180.248 86.6666 186.205 87.0285 191.173C87.3904 196.141 91.7847 199.466 94.1427 200.59Z" fill="#D47E19"/>
<path d="M197.97 203.051L187.484 175.219L171.664 180L175.688 190.927C176.624 191.883 180.829 194.34 185.517 200.344C189.241 205.114 195.611 204.171 197.97 203.051Z" fill="#D47E19"/>
<path d="M92.4155 156.672L117.582 100.457L158.869 95.0703L186.874 166.212H188.601C189.876 166.212 192.055 166.212 192.055 167.651C192.055 169.091 193.659 172.052 194.07 174.848C194.482 177.644 193.782 178.631 192.055 179.042C190.328 179.454 171.617 185.375 170.137 185.499C168.657 185.622 167.217 185.046 167.012 183.895C166.806 182.743 165.285 179.783 164.75 178.631C164.322 177.71 164.928 176.657 165.285 176.246L166.313 174.848L139.501 126.118L115.938 166.212C117.541 166.212 117.582 170.653 115.938 172.052C114.293 173.45 114.539 177.398 112.689 179.042C111.208 180.358 109.577 179.591 108.947 179.042C101.175 175.15 85.4494 167.133 84.7256 166.212C83.8209 165.061 87.2752 158.522 89.3724 156.672C91.0502 155.191 92.0997 156.055 92.4155 156.672Z" fill="black"/>
<path d="M95.4175 159.427C97.4325 160.893 102.31 164.049 105.698 164.937C109.087 165.825 112.483 166.349 113.758 166.5" stroke="white" stroke-width="0.65796" stroke-linecap="round"/>
<path d="M181.898 165.8L168.122 128.05M112.196 163.127L127.699 134.506L112.196 163.127ZM105.698 161.153L112.196 149.31L105.698 161.153ZM99.0776 157.329L109.646 130.147L99.0776 157.329ZM168.122 170.57L155.991 147.747L168.122 170.57ZM175.73 169.008L169.932 153.258L175.73 169.008Z" stroke="white" stroke-width="0.65796" stroke-linecap="round"/>
<path d="M168.451 174.498C170.927 174.209 176.65 173.22 179.743 171.575C182.836 169.93 185.687 168.01 186.726 167.257" stroke="white" stroke-width="0.65796" stroke-linecap="round"/>
<path d="M68.5663 43.6909C67.141 40.7032 66.2643 41.978 65.9937 43.0289C65.6312 44.4372 65.5037 47.4594 65.393 49.1608L67.2899 52.6313L53.0537 60.239L63.1511 73.26C67.836 73.26 73.4665 67.5176 74.5513 63.3028C74.4995 63.5029 72.7798 60.6893 72.1563 59.7C71.3775 58.4634 69.9917 46.6785 68.5663 43.6909Z" fill="#D57E19"/>
<path d="M119.186 51.3572C121.949 50.765 132.537 53.7423 137.486 55.1816C139.226 55.1816 144.164 54.8937 150.48 55.7161C158.376 56.7442 165.038 63.1182 166.682 64.4752C168.327 65.8323 173.838 73.8512 178.156 76.0718C185.311 79.1971 191.891 88.2851 196.496 92.603C201.102 96.9209 198.594 105.886 196.496 108.106C194.399 110.327 182.35 114.809 176.963 116.619C171.576 118.428 169.808 122.417 165.819 121.677C161.83 120.936 154.634 111.848 153.729 110.203C152.824 108.559 153.277 100.087 156.854 100.951C159.716 101.642 163.502 99.8677 165.038 98.8947C163.59 98.8947 161.062 93.0282 159.98 90.0945C160.527 92.5208 161.18 97.3732 159.404 97.3732C157.134 97.2416 138.308 101.06 127.781 102.308C124.902 102.76 116.135 102.037 115.279 100.951C114.424 99.8652 114.922 88.9842 115.279 83.6794C114.786 85.5711 112.73 90.0041 108.453 92.603C103.107 95.8517 101.421 100.951 97.1033 102.308C92.7854 103.665 90.8526 100.951 87.8918 98.8947C84.931 96.8386 77.2822 95.4405 74.6093 90.6702C71.9363 85.9 63.8761 76.4008 63.0125 73.8512C62.1489 71.3016 72.1008 58.2246 73.5812 60.8976C74.7655 63.0359 86.7947 69.2454 92.662 72.0829C95.5406 72.2202 102.186 70.8903 105.739 64.4752C110.18 56.4564 115.732 52.0974 119.186 51.3572Z" fill="#5C51BB"/>
<path d="M135.8 56.127C136.608 57.3744 139.213 59.5154 143.161 58.1008" stroke="black" stroke-width="0.65796" stroke-linecap="round"/>
<path d="M136.951 58.5947C137.376 58.8963 138.53 59.4994 139.748 59.4994" stroke="black" stroke-width="0.65796" stroke-linecap="round"/>
<path d="M156.772 61.6797C157.718 64.4897 160.012 66.5486 159.486 72.7005C158.96 78.8524 159.486 81.3773 159.486 85.4896M124.491 53.0439C122.023 54.6615 117.138 59.8867 117.336 67.848C116.65 68.7801 115.411 71.0556 115.937 72.7005L124.491 53.0439ZM115.279 82.5699C114.416 81.2951 115.839 77.7668 115.937 76.4838L115.279 82.5699Z" stroke="black" stroke-width="0.65796" stroke-linecap="round"/>
<path d="M165.654 98.5658C166.682 97.4284 169.635 94.8237 173.221 93.5077C177.703 91.8628 180.171 92.2329 180.746 91.6572" stroke="black" stroke-width="0.65796" stroke-linecap="round"/>
<path d="M91.7574 73.4805C91.1266 73.645 89.6519 74.7388 88.7966 77.7983C87.9412 80.8578 86.7676 83.2676 86.2881 84.0901" stroke="black" stroke-width="0.65796" stroke-linecap="round"/>
<path d="M92.1776 75.2266C91.9572 75.3771 91.5295 76.165 91.5871 78.1142C91.6446 80.0634 91.4991 81.6384 91.4185 82.1812" stroke="black" stroke-width="0.65796" stroke-linecap="round"/>
<path d="M184.077 90.5975C183.975 90.3507 183.288 89.7734 181.368 89.4362C179.447 89.099 177.935 88.6376 177.419 88.4492" stroke="black" stroke-width="0.65796" stroke-linecap="round"/>
<path d="M121.613 93.6309L126.63 95.7281" stroke="#EEEDF8" stroke-width="0.65796" stroke-linecap="round"/>
<path d="M150.395 64.7969L153.197 69.4569" stroke="#EEEDF8" stroke-width="0.65796" stroke-linecap="round"/>
<path d="M182.687 106.05L185.489 110.71" stroke="#EEEDF8" stroke-width="0.65796" stroke-linecap="round"/>
<path d="M177.524 94.9727L182.591 96.9465" stroke="#EEEDF8" stroke-width="0.65796" stroke-linecap="round"/>
<path d="M165.052 90.7605L170.008 88.5234" stroke="#EEEDF8" stroke-width="0.65796" stroke-linecap="round"/>
<path d="M163.307 72.249L168.682 73.0665" stroke="#EEEDF8" stroke-width="0.65796" stroke-linecap="round"/>
<path d="M175.482 77.1816L173.454 82.2265" stroke="#EEEDF8" stroke-width="0.65796" stroke-linecap="round"/>
<path d="M100.31 92.0684L98.2822 97.1133" stroke="#EEEDF8" stroke-width="0.65796" stroke-linecap="round"/>
<path d="M105.823 81.8779L109.054 86.2509" stroke="#EEEDF8" stroke-width="0.65796" stroke-linecap="round"/>
<path d="M103.837 72.7002L100.111 76.6611" stroke="#EEEDF8" stroke-width="0.65796" stroke-linecap="round"/>
<path d="M80.8015 83.4287L77.0767 87.3888" stroke="#EEEDF8" stroke-width="0.65796" stroke-linecap="round"/>
<path d="M83.6066 71.9611L78.2188 71.2217" stroke="#EEEDF8" stroke-width="0.65796" stroke-linecap="round"/>
<path d="M112.094 61.3906L111.953 66.8264" stroke="#EEEDF8" stroke-width="0.65796" stroke-linecap="round"/>
<path d="M68.6688 70.5195L68.5273 75.9551" stroke="#EEEDF8" stroke-width="0.65796" stroke-linecap="round"/>
<path d="M167.511 110.287L171.385 106.473" stroke="#EEEDF8" stroke-width="0.65796" stroke-linecap="round"/>
<path d="M127.986 86.5772L131.861 82.7627" stroke="#EEEDF8" stroke-width="0.65796" stroke-linecap="round"/>
<path d="M141.886 95.7071L145.76 91.8926" stroke="#EEEDF8" stroke-width="0.65796" stroke-linecap="round"/>
<path d="M119.78 70.0918L124.606 72.5994" stroke="#EEEDF8" stroke-width="0.65796" stroke-linecap="round"/>
<path d="M150.203 80.9648L155.028 83.4725" stroke="#EEEDF8" stroke-width="0.65796" stroke-linecap="round"/>
<path d="M138.195 69.4512L143.02 71.9588" stroke="#EEEDF8" stroke-width="0.65796" stroke-linecap="round"/>
<path d="M129.674 55.9824L129.992 61.4108" stroke="#EEEDF8" stroke-width="0.65796" stroke-linecap="round"/>
<path d="M131.688 44.2012C133.141 44.2012 134.319 43.0229 134.319 41.5693C134.319 40.1158 133.141 38.9375 131.688 38.9375C130.234 38.9375 129.056 40.1158 129.056 41.5693C129.056 43.0229 130.234 44.2012 131.688 44.2012Z" fill="black"/>
<path d="M131.688 49.0537C133.141 49.0537 134.319 47.8754 134.319 46.4219C134.319 44.9684 133.141 43.79 131.688 43.79C130.234 43.79 129.056 44.9684 129.056 46.4219C129.056 47.8754 130.234 49.0537 131.688 49.0537Z" fill="black"/>
<path d="M129.056 46.4219C130.509 46.4219 131.688 45.2436 131.688 43.79C131.688 42.3365 130.509 41.1582 129.056 41.1582C127.602 41.1582 126.424 42.3365 126.424 43.79C126.424 45.2436 127.602 46.4219 129.056 46.4219Z" fill="black"/>
<path d="M152.331 43.4201C152.331 49.4841 147.415 54.3998 141.351 54.3998C131.153 55.3868 130.372 49.4841 130.372 43.4201C130.372 37.3562 135.287 32.4404 141.351 32.4404C147.415 32.4404 152.331 37.3562 152.331 43.4201Z" fill="#3D98E7"/>
<path d="M141.351 32.4404C137.013 32.4404 133.262 34.9564 131.479 38.6088L152.226 41.8986C151.485 36.5548 146.899 32.4404 141.351 32.4404Z" fill="#F07CF2"/>
<path d="M151.796 41.8169L123.298 37.8691" stroke="black" stroke-width="0.98694" stroke-linecap="round"/>
<path d="M146.574 55.3465L146.368 52.0979L136.211 51.6455L135.635 54.6886C138.267 60.1167 145.505 57.3204 146.574 55.3465Z" fill="#3D98E7"/>
<path d="M151.673 46.4229C153.217 46.4229 154.469 45.1526 154.469 43.5855C154.469 42.0184 153.217 40.748 151.673 40.748C150.128 40.748 148.876 42.0184 148.876 43.5855C148.876 45.1526 150.128 46.4229 151.673 46.4229Z" fill="black"/>
<path d="M154.511 46.4218C155.305 46.4218 155.95 45.759 155.95 44.9413C155.95 44.1237 155.305 43.4609 154.511 43.4609C153.716 43.4609 153.071 44.1237 153.071 44.9413C153.071 45.759 153.716 46.4218 154.511 46.4218Z" fill="black"/>
<path d="M155.621 47.451C155.621 49.2907 154.14 51.0435 152.29 51.3166C149.781 51.6867 147.643 49.1673 147.643 47.3277C147.643 45.488 150.45 44.1201 152.29 44.1201C154.129 44.1201 155.621 45.6114 155.621 47.451Z" fill="black"/>
<path d="M131.667 41.8048C133.198 42.0062 134.605 40.9099 134.81 39.3562L129.265 38.627C129.06 40.1806 130.136 41.6034 131.667 41.8048Z" fill="black"/>
<path d="M135.261 41.4258C136.054 41.4848 136.746 40.8716 136.807 40.0563L133.935 39.8428C133.875 40.6581 134.468 41.3669 135.261 41.4258Z" fill="black"/>
<path d="M148.49 47.9861C149.594 48.349 150.847 47.5562 151.287 46.2154C151.728 44.8746 151.19 43.4935 150.086 43.1307C148.982 42.7678 147.729 43.5606 147.289 44.9014C146.848 46.2422 147.386 47.6233 148.49 47.9861Z" fill="#0E76D0"/>
<path d="M147.849 45.5596C148.219 44.9427 149.247 44.2025 150.193 44.367" stroke="black" stroke-width="0.65796" stroke-linecap="round"/>
<path d="M149.589 44.46C149.701 44.6317 149.935 45.1971 149.971 45.5824" stroke="black" stroke-width="0.65796" stroke-linecap="round"/>
<path d="M136.458 48.2325L138.812 44.7539L139.489 48.7599L136.458 48.2325Z" fill="#0E76D0"/>
<path d="M138.563 45.0039L136.435 48.0299L139.287 48.4714" stroke="black" stroke-width="0.65796" stroke-linecap="round"/>
<path d="M138.144 50.5763C138.514 50.59 139.443 50.5269 140.2 50.165" stroke="black" stroke-width="0.65796" stroke-linecap="round"/>
<path d="M141.146 41.9001C141.516 41.8864 142.445 41.9495 143.202 42.3114" stroke="black" stroke-width="0.65796" stroke-linecap="round"/>
<path d="M135.306 42.0652C134.936 42.0514 134.007 42.1145 133.25 42.4764" stroke="black" stroke-width="0.65796" stroke-linecap="round"/>
<path d="M138.76 54.0713C139.665 54.2357 141.269 54.3591 142.502 53.3311" stroke="black" stroke-width="0.65796" stroke-linecap="round"/>
<path d="M134.936 45.1882C135.322 45.1882 135.635 44.8752 135.635 44.4891C135.635 44.103 135.322 43.79 134.936 43.79C134.55 43.79 134.237 44.103 134.237 44.4891C134.237 44.8752 134.55 45.1882 134.936 45.1882Z" fill="black"/>
<path d="M141.845 45.1882C142.231 45.1882 142.544 44.8752 142.544 44.4891C142.544 44.103 142.231 43.79 141.845 43.79C141.458 43.79 141.146 44.103 141.146 44.4891C141.146 44.8752 141.458 45.1882 141.845 45.1882Z" fill="black"/>
<path d="M142.785 49.1259C143.554 49.1259 144.178 48.5022 144.178 47.7329C144.178 46.9635 143.554 46.3398 142.785 46.3398C142.015 46.3398 141.392 46.9635 141.392 47.7329C141.392 48.5022 142.015 49.1259 142.785 49.1259Z" fill="#0E76D0"/>
<path d="M133.82 48.3866C134.589 48.3866 135.213 47.763 135.213 46.9936C135.213 46.2243 134.589 45.6006 133.82 45.6006C133.05 45.6006 132.427 46.2243 132.427 46.9936C132.427 47.763 133.05 48.3866 133.82 48.3866Z" fill="#0E76D0"/>
<path d="M87.9743 193.765C89.356 197.679 92.6623 199.782 94.1427 200.344L90.9763 205.937C89.9753 208.418 87.3739 213.322 84.9724 213.092L51.9097 176.452C52.1975 173.738 60.5043 169.009 62.6426 169.009C64.781 169.009 68.8113 173.162 71.073 174.848C72.8824 176.197 78.7078 178.864 81.3947 180.03C81.6415 177.014 82.4721 171.04 83.821 171.271C85.507 171.558 86.9874 180.605 86.9874 181.716C86.9874 182.826 86.2472 188.871 87.9743 193.765Z" stroke="black" stroke-width="0.98694"/>
<path d="M55.8164 172.381C55.9398 173.861 56.5648 177.168 58.0781 178.549C62.1933 182.306 67.7422 192.182 72.7591 193.518C75.7611 194.176 79.5443 203.058 81.6827 204.621C83.8211 206.184 87.1109 208.61 89.7427 208.445" stroke="black" stroke-width="0.98694"/>
<path d="M58.8184 170.858C59.4901 172.97 61.4502 177.726 63.9175 179.864C67.002 182.537 69.2637 185.128 70.5796 185.991C71.8956 186.855 78.8864 182.907 79.0509 179.042" stroke="black" stroke-width="0.98694"/>
<path d="M93.7724 200.384C92.3602 199.671 88.6732 197.86 87.0283 198.287C85.3834 198.715 81.8468 201.892 80.6543 203.551" stroke="black" stroke-width="0.98694"/>
<path d="M188.855 202.712C192.481 204.732 196.352 204.12 197.834 203.56L199.161 209.849C200.054 212.371 201.35 217.77 199.397 219.186H149.987C148.406 216.961 151.878 202.336 153.481 200.92C155.084 199.505 160.854 199.951 163.665 199.718C165.914 199.531 172.047 197.675 174.831 196.77C173.02 194.347 169.69 189.319 170.853 188.598C172.307 187.699 179.405 193.5 180.14 194.333C180.875 195.165 184.321 200.186 188.855 202.712Z" stroke="black" stroke-width="0.98694"/>
<path d="M150.595 207.966C151.668 208.994 154.324 211.059 156.373 211.093C158.934 211.136 166.207 213.656 167.776 214.191C169.345 214.726 171.994 215.24 177.285 212.597C179.971 211.103 188.686 215.258 191.324 215.013C193.961 214.769 198.032 214.411 199.897 212.545" stroke="black" stroke-width="0.98694"/>
<path d="M151.838 204.839C153.739 205.977 158.357 208.245 161.622 208.215C165.703 208.177 169.113 208.622 170.671 208.399C172.229 208.175 174.857 200.589 172.422 197.582" stroke="black" stroke-width="0.98694"/>
<path d="M197.583 203.837C196.053 204.237 192.09 205.319 191.14 206.729C190.19 208.138 189.642 212.86 189.846 214.893" stroke="black" stroke-width="0.98694"/>
<path d="M46.5775 63.7255L30.2627 29.8148L49.4665 19.4814L67.2798 52.5859L46.5775 63.7255Z" stroke="#5C51BB" stroke-width="0.65796"/>
<path d="M37.4759 30.0552L35.6665 26.5598L43.5209 22.3242L45.248 25.5729L37.4759 30.0552Z" fill="#5C51BB"/>
<path d="M55.4024 39.4632C47.8354 35.8804 44.1046 41.8636 43.1851 45.303C45.0243 46.0535 49.0415 47.2829 51.682 45.6362C54.3226 43.9896 55.3696 40.788 55.4024 39.4632Z" fill="#BDB8E4"/>
<path d="M50.227 45.4567C51.9528 45.175 53.1236 43.5476 52.8419 41.8217C52.5602 40.0959 50.9328 38.9251 49.207 39.2068C47.4811 39.4885 46.3104 41.1159 46.592 42.8417C46.8737 44.5676 48.5011 45.7383 50.227 45.4567Z" fill="#5C51BB"/>
<path d="M43.1023 44.2214L40.8311 43.4102" stroke="black" stroke-width="0.98694" stroke-linecap="round"/>
<path d="M44.2315 41.8201L42.1475 40.6064" stroke="black" stroke-width="0.98694" stroke-linecap="round"/>
<path d="M46.3856 39.5455L44.6934 37.8271" stroke="black" stroke-width="0.98694" stroke-linecap="round"/>
<path d="M49.1832 38.1143L48.5464 35.7881" stroke="black" stroke-width="0.98694" stroke-linecap="round"/>
<path d="M52.7979 37.9811L53.1115 35.5898" stroke="black" stroke-width="0.98694" stroke-linecap="round"/>
<path d="M55.293 38.7922L56.2781 36.5908" stroke="black" stroke-width="0.98694" stroke-linecap="round"/>
<path d="M131.688 44.2012C133.141 44.2012 134.319 43.0229 134.319 41.5693C134.319 40.1158 133.141 38.9375 131.688 38.9375C130.234 38.9375 129.056 40.1158 129.056 41.5693C129.056 43.0229 130.234 44.2012 131.688 44.2012Z" fill="black"/>
<path d="M131.688 49.0537C133.141 49.0537 134.319 47.8754 134.319 46.4219C134.319 44.9684 133.141 43.79 131.688 43.79C130.234 43.79 129.056 44.9684 129.056 46.4219C129.056 47.8754 130.234 49.0537 131.688 49.0537Z" fill="black"/>
<path d="M129.056 46.4219C130.509 46.4219 131.688 45.2436 131.688 43.79C131.688 42.3365 130.509 41.1582 129.056 41.1582C127.602 41.1582 126.424 42.3365 126.424 43.79C126.424 45.2436 127.602 46.4219 129.056 46.4219Z" fill="black"/>
<path d="M152.331 43.4201C152.331 49.4841 147.415 54.3998 141.351 54.3998C131.153 55.3868 130.372 49.4841 130.372 43.4201C130.372 37.3562 135.287 32.4404 141.351 32.4404C147.415 32.4404 152.331 37.3562 152.331 43.4201Z" fill="#D57E19"/>
<path d="M141.351 32.4404C137.013 32.4404 133.262 34.9564 131.479 38.6088L152.226 41.8986C151.485 36.5548 146.899 32.4404 141.351 32.4404Z" fill="#5C51BB"/>
<path d="M151.796 41.8169L123.298 37.8691" stroke="black" stroke-width="0.98694" stroke-linecap="round"/>
<path d="M146.574 55.3465L146.368 52.0979L136.211 51.6455L135.635 54.6886C138.267 60.1167 145.505 57.3204 146.574 55.3465Z" fill="#D57E19"/>
<path d="M151.673 46.4229C153.217 46.4229 154.469 45.1526 154.469 43.5855C154.469 42.0184 153.217 40.748 151.673 40.748C150.128 40.748 148.876 42.0184 148.876 43.5855C148.876 45.1526 150.128 46.4229 151.673 46.4229Z" fill="black"/>
<path d="M154.511 46.4218C155.305 46.4218 155.95 45.759 155.95 44.9413C155.95 44.1237 155.305 43.4609 154.511 43.4609C153.716 43.4609 153.071 44.1237 153.071 44.9413C153.071 45.759 153.716 46.4218 154.511 46.4218Z" fill="black"/>
<path d="M155.621 47.451C155.621 49.2907 154.14 51.0435 152.29 51.3166C149.781 51.6867 147.643 49.1673 147.643 47.3277C147.643 45.488 150.45 44.1201 152.29 44.1201C154.129 44.1201 155.621 45.6114 155.621 47.451Z" fill="black"/>
<path d="M131.667 41.8048C133.198 42.0062 134.605 40.9099 134.81 39.3562L129.265 38.627C129.06 40.1806 130.136 41.6034 131.667 41.8048Z" fill="black"/>
<path d="M135.261 41.4258C136.054 41.4848 136.746 40.8716 136.807 40.0563L133.935 39.8428C133.875 40.6581 134.468 41.3669 135.261 41.4258Z" fill="black"/>
<path d="M148.49 47.9861C149.594 48.349 150.847 47.5562 151.287 46.2154C151.728 44.8746 151.19 43.4935 150.086 43.1307C148.982 42.7678 147.729 43.5606 147.289 44.9014C146.848 46.2422 147.386 47.6233 148.49 47.9861Z" fill="#8D4F06"/>
<path d="M147.849 45.5596C148.219 44.9427 149.247 44.2025 150.193 44.367" stroke="black" stroke-width="0.65796" stroke-linecap="round"/>
<path d="M149.589 44.46C149.701 44.6317 149.935 45.1971 149.971 45.5824" stroke="black" stroke-width="0.65796" stroke-linecap="round"/>
<path d="M136.458 48.2325L138.812 44.7539L139.489 48.7599L136.458 48.2325Z" fill="#8D4F06"/>
<path d="M138.563 45.0039L136.435 48.0299L139.287 48.4714" stroke="black" stroke-width="0.65796" stroke-linecap="round"/>
<path d="M138.144 50.5763C138.514 50.59 139.443 50.5269 140.2 50.165" stroke="black" stroke-width="0.65796" stroke-linecap="round"/>
<path d="M141.146 41.9001C141.516 41.8864 142.445 41.9495 143.202 42.3114" stroke="black" stroke-width="0.65796" stroke-linecap="round"/>
<path d="M135.306 42.0652C134.936 42.0514 134.007 42.1145 133.25 42.4764" stroke="black" stroke-width="0.65796" stroke-linecap="round"/>
<path d="M138.76 54.0713C139.665 54.2357 141.269 54.3591 142.502 53.3311" stroke="black" stroke-width="0.65796" stroke-linecap="round"/>
<path d="M134.936 45.1882C135.322 45.1882 135.635 44.8752 135.635 44.4891C135.635 44.103 135.322 43.79 134.936 43.79C134.55 43.79 134.237 44.103 134.237 44.4891C134.237 44.8752 134.55 45.1882 134.936 45.1882Z" fill="black"/>
<path d="M141.845 45.1882C142.231 45.1882 142.544 44.8752 142.544 44.4891C142.544 44.103 142.231 43.79 141.845 43.79C141.458 43.79 141.146 44.103 141.146 44.4891C141.146 44.8752 141.458 45.1882 141.845 45.1882Z" fill="black"/>
<path d="M142.785 49.1259C143.554 49.1259 144.178 48.5022 144.178 47.7329C144.178 46.9635 143.554 46.3398 142.785 46.3398C142.015 46.3398 141.392 46.9635 141.392 47.7329C141.392 48.5022 142.015 49.1259 142.785 49.1259Z" fill="#8D4F06"/>
<path d="M133.82 48.3866C134.589 48.3866 135.213 47.763 135.213 46.9936C135.213 46.2243 134.589 45.6006 133.82 45.6006C133.05 45.6006 132.427 46.2243 132.427 46.9936C132.427 47.763 133.05 48.3866 133.82 48.3866Z" fill="#8D4F06"/>
<path d="M194.422 57.0635C194.422 58.353 194.131 60.8693 192.842 60.8693C191.553 60.8693 189.752 58.353 189.752 57.0635C189.752 55.7739 190.798 54.7285 192.087 54.7285C193.377 54.7285 194.422 55.7739 194.422 57.0635Z" fill="#5C51BB"/>
<path d="M200.929 57.0635C200.929 58.353 200.639 60.8693 199.349 60.8693C198.06 60.8693 196.259 58.353 196.259 57.0635C196.259 55.7739 197.305 54.7285 198.594 54.7285C199.884 54.7285 200.929 55.7739 200.929 57.0635Z" fill="#9C96D6"/>
<path d="M207.427 57.0635C207.427 58.353 207.136 60.8693 205.847 60.8693C204.557 60.8693 202.757 58.353 202.757 57.0635C202.757 55.7739 203.802 54.7285 205.092 54.7285C206.381 54.7285 207.427 55.7739 207.427 57.0635Z" fill="#DEDCF1"/>
</svg>
