<svg width="221" height="221" viewBox="0 0 221 221" fill="none" xmlns="http://www.w3.org/2000/svg">
<path d="M218.006 92.8975H142.277L139.826 150.161L173.185 149.165L202.854 148.277L218.006 147.825V92.8975Z" fill="#DEDCF1"/>
<path d="M20.7437 170.487H33.5693L33.9844 113.223L28.3345 114.22L23.3097 115.107L20.7437 115.56V170.487Z" fill="#2D285E"/>
<path d="M40.647 170.486H53.4726L53.8877 135.824L48.2378 136.428L43.2131 136.964L40.647 137.239V170.486Z" fill="#5C51BB"/>
<path d="M80.4536 170.487H93.2786L93.6943 153.198L88.0438 153.499L83.0191 153.767L80.4536 153.904V170.487Z" fill="#CDCAEA"/>
<path d="M60.55 170.486H73.3752L73.791 122.33L68.1405 123.168L63.1161 123.915L60.55 124.295V170.486Z" fill="#8C84CF"/>
<path d="M201.458 181.788L204.907 190.519L216.959 184.722L209.208 195.909L219.186 201.213L207.673 202.631L208.356 211.993L201.458 205.622L191.929 214.342L195.243 202.631L185.958 201.213L193.708 195.909L190.489 188.432L198.009 190.519L201.458 181.788Z" fill="black"/>
<path d="M202.976 183.137L206.426 191.868L218.477 186.071L210.727 197.258L220.704 202.562L209.192 203.979L209.875 213.342L202.976 206.971L193.448 215.69L196.761 203.979L187.476 202.562L195.227 197.258L192.007 189.781L199.528 191.868L202.976 183.137Z" fill="#5C51BB"/>
<path d="M48.988 39.4297L51.6134 46.08L60.7867 41.6646L54.8873 50.1854L62.4817 54.2249L53.7189 55.3046L54.2389 62.4356L48.988 57.583L41.7351 64.2244L44.2571 55.3046L37.1892 54.2249L43.0886 50.1854L40.6387 44.4898L46.3625 46.08L48.988 39.4297Z" fill="#5C51BB"/>
<path d="M163.187 62.6935C165.992 48.4646 178.863 22.1509 182.739 30.3275C187.584 40.5483 185.714 69.8077 179.168 71.5113C172.623 73.2149 182.143 30.5279 190.305 33.534C196.833 35.9389 193.024 48.431 190.305 54.3764C191.268 46.3601 192.506 35.1374 205.861 27.6221" stroke="#8C84CF" stroke-width="1.01203" stroke-linecap="round"/>
<path d="M58.6107 115.973C57.4576 110.101 52.167 99.2423 50.5736 102.617C48.5818 106.834 49.3505 118.909 52.0413 119.612C54.7319 120.314 50.8182 102.699 47.4636 103.94C44.7799 104.932 46.3454 110.087 47.4636 112.54C47.0676 109.233 46.5588 104.601 41.0688 101.5" stroke="black" stroke-width="1.01203" stroke-linecap="round"/>
<path d="M30.105 69.664V4.30371H117.308V19.2733H151.127V67.0917" stroke="#8C84CF" stroke-width="1.01203"/>
<path d="M23.64 199.893C23.64 203.604 22.8038 210.845 19.0929 210.845C15.382 210.845 10.2017 203.604 10.2017 199.893C10.2017 196.182 13.2099 193.174 16.9209 193.174C20.6317 193.174 23.64 196.182 23.64 199.893Z" fill="#2D285E"/>
<path d="M42.3669 199.893C42.3669 203.604 41.5306 210.845 37.8197 210.845C34.1088 210.845 28.9285 203.604 28.9285 199.893C28.9285 196.182 31.9367 193.174 35.6477 193.174C39.3585 193.174 42.3669 196.182 42.3669 199.893Z" fill="#5C51BB"/>
<path d="M61.0641 199.893C61.0641 203.604 60.228 210.845 56.517 210.845C52.8061 210.845 47.6257 203.604 47.6257 199.893C47.6257 196.182 50.6341 193.174 54.3449 193.174C58.0559 193.174 61.0641 196.182 61.0641 199.893Z" fill="#CDCAEA"/>
<path d="M192.283 52.1866C192.283 53.9223 191.889 57.3089 190.142 57.3089C188.396 57.3089 185.958 53.9223 185.958 52.1866C185.958 50.451 187.374 49.0439 189.12 49.0439C190.867 49.0439 192.283 50.451 192.283 52.1866Z" fill="black"/>
<path d="M199.77 54.2205C199.77 55.5429 199.472 58.123 198.15 58.123C196.828 58.123 194.982 55.5429 194.982 54.2205C194.982 52.8982 196.054 51.8262 197.376 51.8262C198.698 51.8262 199.77 52.8982 199.77 54.2205Z" fill="black"/>
<path d="M193.107 62.5702C193.107 63.8925 192.809 66.4726 191.487 66.4726C190.165 66.4726 188.319 63.8925 188.319 62.5702C188.319 61.2478 189.391 60.1758 190.713 60.1758C192.036 60.1758 193.107 61.2478 193.107 62.5702Z" fill="black"/>
<path d="M199.781 62.5702C199.781 63.8925 199.483 66.4726 198.16 66.4726C196.838 66.4726 194.992 63.8925 194.992 62.5702C194.992 61.2478 196.064 60.1758 197.386 60.1758C198.709 60.1758 199.781 61.2478 199.781 62.5702Z" fill="black"/>
<path d="M206.443 62.5702C206.443 63.8925 206.145 66.4726 204.823 66.4726C203.501 66.4726 201.655 63.8925 201.655 62.5702C201.655 61.2478 202.726 60.1758 204.049 60.1758C205.371 60.1758 206.443 61.2478 206.443 62.5702Z" fill="black"/>
<path d="M193.192 70.9187C193.192 72.2411 192.894 74.8209 191.572 74.8209C190.25 74.8209 188.404 72.2411 188.404 70.9187C188.404 69.5963 189.475 68.5244 190.798 68.5244C192.12 68.5244 193.192 69.5963 193.192 70.9187Z" fill="black"/>
<path d="M210.246 73.367C210.246 76.0413 209.643 81.2591 206.964 81.2591C204.286 81.2591 200.548 76.0413 200.548 73.367C200.548 70.6927 202.719 68.5244 205.397 68.5244C208.075 68.5244 210.246 70.6927 210.246 73.367Z" fill="black"/>
<path d="M87.1163 172.491H100.207L124.055 171.641V68.5625H4.85811L1 176.027L41.5326 174.583" stroke="black" stroke-width="1.01203"/>
<path d="M91.1646 56.5268H130.055M91.1646 49.5488H115.612H91.1646Z" stroke="black" stroke-width="1.01203" stroke-linecap="round"/>
<path d="M4.85773 68.5625H124.055V89.902H4.08716L4.85773 68.5625Z" fill="#090712"/>
<path d="M14.238 84.6837C17.0394 84.6837 19.3104 82.2431 19.3104 79.2325C19.3104 76.2218 17.0394 73.7812 14.238 73.7812C11.4365 73.7812 9.16553 76.2218 9.16553 79.2325C9.16553 82.2431 11.4365 84.6837 14.238 84.6837Z" fill="#CDCAEA"/>
<path d="M27.4262 84.6837C30.2276 84.6837 32.4986 82.2431 32.4986 79.2325C32.4986 76.2218 30.2276 73.7812 27.4262 73.7812C24.6248 73.7812 22.3538 76.2218 22.3538 79.2325C22.3538 82.2431 24.6248 84.6837 27.4262 84.6837Z" fill="#5C51BB"/>
<path d="M40.6144 84.6837C43.4159 84.6837 45.6869 82.2431 45.6869 79.2325C45.6869 76.2218 43.4159 73.7812 40.6144 73.7812C37.813 73.7812 35.542 76.2218 35.542 79.2325C35.542 82.2431 37.813 84.6837 40.6144 84.6837Z" fill="#3F3883"/>
<path d="M114.542 104.823L68.7312 106.159L72.097 29.3926H176.091V103.026L155.284 103.633" stroke="black" stroke-width="1.01203"/>
<path d="M176.091 29.3926H72.1045V38.3322H176.091V29.3926Z" fill="black"/>
<path d="M148.697 143.177L102.887 144.174L106.253 86.9102H210.246V141.837L189.44 142.29" stroke="black" stroke-width="1.01203"/>
<path d="M110.935 139.538H144.866M110.935 135.819H132.264H110.935Z" stroke="black" stroke-width="1.01203" stroke-linecap="round"/>
<path d="M210.247 86.9102H106.26V97.5365H210.247V86.9102Z" fill="#090712"/>
<path d="M87.791 178.077C87.791 185.632 84.7861 190.897 80.2143 194.289C75.6222 197.697 69.4033 199.245 62.9538 199.245C56.5058 199.245 51.1759 197.698 47.461 194.321C43.7549 190.953 41.5747 185.688 41.5747 178.077C41.5747 162.857 51.9966 150.668 64.6827 150.668C77.3688 150.668 87.791 162.857 87.791 178.077Z" stroke="black" stroke-width="1.01203"/>
<path d="M87.5765 171.065L98.8994 173.782C103.435 182.285 100.761 187.482 100.357 195.113C92.0893 194.589 71.416 193.06 68.9939 190.706C66.5372 188.317 69.2638 187.429 70.7801 187.386L66.9572 186.332C65.908 186.092 63.7746 185.231 63.6345 183.704C63.4944 182.177 66.3811 182.122 67.8419 182.285C60.3392 180.879 62.5497 177.294 64.438 177.192C65.3602 177.144 69.1086 177.61 70.8594 177.894C70.2041 177.709 68.7055 177.121 67.9616 176.247C67.0314 175.156 67.4978 174.121 68.907 173.558C70.1071 173.077 79.4102 173.793 82.2194 174.064C84.467 174.281 86.7567 172.154 87.5765 171.065Z" fill="#FFB84D"/>
<path d="M71.2856 177.889L81.2853 178.871" stroke="black" stroke-width="1.01203" stroke-linecap="round"/>
<path d="M69.0312 182.607L79.0318 183.589" stroke="black" stroke-width="1.01203" stroke-linecap="round"/>
<path d="M71.7495 187.985L81.7501 188.967" stroke="black" stroke-width="1.01203" stroke-linecap="round"/>
<path d="M67.8304 1C70.5173 4.04933 72.5785 7.59818 73.8941 11.4439C75.2098 15.2895 75.7554 19.3568 75.499 23.4133C75.2435 27.4698 74.191 31.4361 72.4022 35.0859C70.6135 38.7357 68.123 41.9974 65.0737 44.6848C62.0244 47.3721 58.4755 49.4326 54.6298 50.7484C50.7841 52.0643 46.7169 52.6098 42.6604 52.3539C38.6039 52.0979 34.6376 51.0455 30.9878 49.2566C27.338 47.4678 24.0763 44.9775 21.3889 41.9282L35.8055 29.2231C36.8244 30.3792 38.061 31.3235 39.4449 32.0017C40.8287 32.6799 42.3325 33.079 43.8706 33.176C45.4086 33.273 46.9507 33.0663 48.4088 32.5673C49.8669 32.0684 51.2124 31.2872 52.3686 30.2682C53.5248 29.2493 54.469 28.0127 55.1472 26.6288C55.8254 25.245 56.2245 23.7412 56.3216 22.2031C56.4186 20.6651 56.2118 19.123 55.7128 17.6649C55.2139 16.2068 54.4327 14.8613 53.4138 13.705L67.8304 1Z" stroke="black" stroke-width="1.01203"/>
<path d="M73.6648 30.0681L82.014 54.652L65.5261 59.5856L59.2009 48.7485C65.5683 44.8269 68.7311 40.5961 70.1648 38.1222C69.2228 34.3833 67.9721 30.8271 68.8155 27.4537C69.7052 23.8935 72.2311 26.3151 73.6648 30.0681Z" fill="#FFB84D"/>
<path d="M65.7789 57.3504C63.2151 59.0709 64.7106 60.9066 65.7789 61.6094C65.1464 61.6094 63.6621 62.1576 62.785 64.3503C61.6887 67.0912 63.8813 68.6514 63.8813 75.9043C63.8813 83.1572 62.785 96.3557 63.8813 106.392C64.9777 116.428 70.502 121.741 77.291 127.687C84.08 133.632 89.2667 144.975 93.9473 150.499C97.6918 154.919 107.876 159.172 112.501 160.746C112.501 163.816 107.525 170.262 105.037 173.101C102.69 172.469 97.6918 172.098 96.4774 175.674C94.9593 180.143 97.9954 181.872 97.9954 185.288C97.9954 188.703 96.2665 193.173 97.9954 194.86C99.3785 196.209 102.535 196.435 103.941 196.378C104.616 197.592 107.511 198.992 108.875 199.541C108.875 205.197 119.72 213.593 124.646 215.143C131.477 217.293 170.693 228.341 186.464 212.992C202.234 197.643 197.554 154.126 194.138 135.15C191.406 119.97 182.766 108.5 178.789 104.663C178.086 103.524 176.082 100.868 173.687 99.3497C160.699 90.8317 133.374 100.404 131.266 101.247C129.158 102.091 131.266 104.663 129.326 104.663C127.774 104.663 125.559 106.799 124.646 107.868C122.579 107.868 117.258 107.572 112.501 106.392C106.556 104.916 97.9954 97.6208 93.9473 90.8317C89.8992 84.0427 88.1703 67.1334 86.6944 61.6094C85.2186 56.0854 83.068 57.3504 82.4355 54.1457C81.803 50.9409 68.9839 55.1998 65.7789 57.3504Z" fill="#5C51BB"/>
<path d="M124.055 109.808C123.381 112.323 122.073 120.139 122.242 131.271C122.411 142.403 118.348 153.114 116.296 157.078" stroke="black" stroke-width="1.01203" stroke-linecap="round"/>
<path d="M117.688 199.203C120.682 198.191 130.212 198.402 139.151 199.203C148.091 200.005 162.597 193.637 165.169 190.475C167.741 187.312 194.349 156.319 191.988 136.036C189.922 118.294 181.284 110.083 165.169 118.367C161.655 120.139 153.716 127.223 150.073 141.391C145.519 159.102 145.477 170.065 137.929 170.824C130.38 171.583 119.332 167.83 113.977 170.403C108.495 172.385 106.572 174.603 105.122 182.125C103.671 189.648 103.196 195.436 104.405 197.137" stroke="black" stroke-width="1.01203" stroke-linecap="round"/>
<path d="M97.7424 191.945C99.3583 192.353 102.811 193.176 103.688 193.21M96.9834 176.806C98.7258 176.441 102.668 175.87 104.489 176.511L96.9834 176.806ZM97.7424 180.981L104.025 182.288L97.7424 180.981ZM98.9231 186.927L103.351 186.716L98.9231 186.927Z" stroke="black" stroke-width="1.01203" stroke-linecap="round"/>
<path d="M67.4953 57.5314C67.4397 58.52 67.3553 60.6223 67.4624 61.1219M78.4851 54.1328C79.0156 55.0409 80.0268 57.1443 79.8311 58.2941L78.4851 54.1328ZM75.5376 55.379L75.5241 59.1675L75.5376 55.379ZM71.3537 57.21L72.1743 59.6575L71.3537 57.21Z" stroke="black" stroke-width="1.01203" stroke-linecap="round"/>
<path d="M176.091 106.391C171.157 108.316 160.632 112.825 158.001 115.457C154.712 118.746 146.194 122.92 144.886 122.246M131.899 107.403C133.262 109.863 136.419 115.288 138.14 117.312" stroke="black" stroke-width="1.01203" stroke-linecap="round"/>
<path d="M169.091 103.608C168.247 103.974 166.248 104.941 165 105.885C163.44 107.066 161.88 108.879 160.826 109.807" stroke="black" stroke-width="1.01203" stroke-linecap="round"/>
<path d="M135.188 102.934C135.368 103.138 135.796 103.677 136.064 104.204C136.398 104.862 136.733 105.874 136.959 106.391" stroke="black" stroke-width="1.01203" stroke-linecap="round"/>
<path d="M160.193 103.608C158.618 106.279 154.644 112.354 151.338 115.289C148.032 118.224 146.39 119.014 145.982 119.042" stroke="black" stroke-width="1.01203" stroke-linecap="round"/>
<path d="M168.18 84.8099C168.18 94.2235 160.548 101.854 151.135 101.854C147.932 101.854 143.693 102.488 141.133 100.952C136.17 97.9722 134.091 91.0204 134.091 84.8099C134.091 75.3963 141.722 67.7656 151.135 67.7656C160.548 67.7656 168.18 75.3963 168.18 84.8099Z" fill="#FFB84D"/>
<path d="M153.531 65.7843C144.117 65.7843 130.001 57.13 130.001 66.5432C130.001 70.1149 131.688 76.0588 134.296 82.061C134.692 80.543 135.66 77.3467 136.368 76.7057C137.254 75.9045 141.724 82.2297 146.446 78.3502C151.169 74.4708 158.675 75.778 158.043 77.7599C157.618 79.0882 154.458 90.1109 162.259 97.7247C165.884 94.5992 169.344 89.2895 169.344 84.1273C169.344 73.6612 168.18 65.7843 153.531 65.7843Z" fill="black"/>
<path d="M159.259 103.322L158.939 98.2787L143.172 97.5762L142.278 102.301C142.278 108.373 141.808 117.855 144.549 118.114C148.92 118.527 158.238 105.205 159.259 103.322Z" fill="#FFB84D"/>
<path d="M157.604 91.6725C159.318 92.2358 161.262 91.0051 161.946 88.9238C162.63 86.8424 161.795 84.6984 160.081 84.1352C158.367 83.5719 156.423 84.8025 155.739 86.8839C155.055 88.9653 155.89 91.1092 157.604 91.6725Z" fill="#FF9900"/>
<path d="M156.608 87.903C157.182 86.9458 158.779 85.7962 160.246 86.0518" stroke="black" stroke-width="0.674687" stroke-linecap="round"/>
<path d="M159.31 86.1963C159.483 86.4636 159.848 87.3404 159.904 87.939" stroke="black" stroke-width="0.674687" stroke-linecap="round"/>
<path d="M139.861 92.3619L143.516 86.9619L144.566 93.1808L139.861 92.3619Z" fill="#FF9900"/>
<path d="M143.13 87.3516L139.826 92.0491L144.253 92.7347" stroke="black" stroke-width="0.674687" stroke-linecap="round"/>
<path d="M142.272 95.8121C142.846 95.8331 144.288 95.7353 145.462 95.1738" stroke="black" stroke-width="0.674687" stroke-linecap="round"/>
<path d="M146.657 82.0212C147.231 82.0001 148.674 82.0979 149.848 82.6594" stroke="black" stroke-width="0.674687" stroke-linecap="round"/>
<path d="M139.306 82.443C138.732 82.422 137.29 82.5197 136.115 83.0813" stroke="black" stroke-width="0.674687" stroke-linecap="round"/>
<path d="M146.995 102.059C148.399 102.314 150.888 102.506 152.804 100.91" stroke="black" stroke-width="0.674687" stroke-linecap="round"/>
<path d="M138.732 87.2909C139.331 87.2909 139.817 86.8052 139.817 86.206C139.817 85.6068 139.331 85.1211 138.732 85.1211C138.133 85.1211 137.647 85.6068 137.647 86.206C137.647 86.8052 138.133 87.2909 138.732 87.2909Z" fill="black"/>
<path d="M147.742 87.1249C148.342 87.1249 148.827 86.6391 148.827 86.04C148.827 85.4408 148.342 84.9551 147.742 84.9551C147.143 84.9551 146.657 85.4408 146.657 86.04C146.657 86.6391 147.143 87.1249 147.742 87.1249Z" fill="black"/>
<path d="M148.229 92.4997C149.424 92.4997 150.392 91.5315 150.392 90.3372C150.392 89.143 149.424 88.1748 148.229 88.1748C147.035 88.1748 146.067 89.143 146.067 90.3372C146.067 91.5315 147.035 92.4997 148.229 92.4997Z" fill="#FF9900"/>
<path d="M137.181 92.0778C138.376 92.0778 139.344 91.1097 139.344 89.9154C139.344 88.7211 138.376 87.7529 137.181 87.7529C135.987 87.7529 135.019 88.7211 135.019 89.9154C135.019 91.1097 135.987 92.0778 137.181 92.0778Z" fill="#FF9900"/>
</svg>
