<svg width="14" height="14" viewBox="0 0 14 14" fill="none" xmlns="http://www.w3.org/2000/svg">
<g clip-path="url(#clip0_325_17091)">
<path d="M7.54865 1.42561C6.22157 1.29817 4.89245 1.64731 3.79933 2.41052C2.70621 3.17373 1.92048 4.30115 1.58286 5.59088C1.24523 6.88061 1.37776 8.24841 1.95671 9.44933C2.53566 10.6503 3.52322 11.6059 4.74253 12.145C5.44868 12.4643 6.21256 12.6362 6.98743 12.6501C8.22099 12.6502 9.42023 12.2439 10.3997 11.494C10.5179 11.4038 10.5955 11.2705 10.6155 11.1232C10.6355 10.9759 10.5962 10.8267 10.5063 10.7083C10.4616 10.6489 10.4056 10.5991 10.3415 10.5615C10.2774 10.524 10.2065 10.4996 10.1329 10.4897C10.0593 10.4797 9.98447 10.4845 9.91273 10.5038C9.84098 10.523 9.77377 10.5562 9.71498 10.6016C9.13292 11.0413 8.4525 11.3325 7.73259 11.4501C7.01267 11.5677 6.27495 11.5081 5.58325 11.2765C4.89154 11.0449 4.26668 10.6482 3.76274 10.1208C3.25879 9.59344 2.89094 8.95121 2.69099 8.2497C2.49105 7.54818 2.46504 6.80851 2.61522 6.09469C2.76539 5.38086 3.08724 4.71438 3.55289 4.15289C4.01855 3.59141 4.61401 3.15184 5.28773 2.87222C5.96146 2.59259 6.69318 2.48133 7.41957 2.54806C8.54691 2.67854 9.58581 3.22246 10.3353 4.0746C11.0848 4.92674 11.4917 6.02656 11.4772 7.16133V7.54296C11.4766 7.6719 11.45 7.79937 11.399 7.91779C11.348 8.03621 11.2736 8.14313 11.1804 8.23218C11.0871 8.32123 10.9769 8.39058 10.8563 8.43609C10.7356 8.48159 10.6071 8.50233 10.4782 8.49705C10.2213 8.46884 9.98466 8.34428 9.81594 8.14849C9.64722 7.95269 9.559 7.70021 9.56906 7.44194V5.01745C9.56906 4.86861 9.50993 4.72586 9.40468 4.62061C9.29943 4.51536 9.15668 4.45623 9.00784 4.45623C8.87081 4.45507 8.73809 4.50408 8.63471 4.59402C8.53133 4.68396 8.46442 4.80862 8.44661 4.94449C7.92431 4.45262 7.23345 4.17949 6.516 4.18123C6.0284 4.18488 5.54984 4.31329 5.12591 4.55423C4.70198 4.79517 4.34678 5.14062 4.09413 5.55768C3.84148 5.97474 3.69979 6.44953 3.68256 6.93684C3.66533 7.42416 3.77313 7.90777 3.9957 8.34163C4.21826 8.77549 4.54818 9.14516 4.95403 9.41544C5.35989 9.68572 5.82818 9.84761 6.31431 9.88569C6.80044 9.92377 7.28822 9.83679 7.73122 9.63301C8.17421 9.42923 8.55767 9.11545 8.84508 8.72154C9.00799 8.97354 9.22498 9.1861 9.48029 9.34376C9.73561 9.50142 10.0228 9.60024 10.3211 9.63302C10.6194 9.6658 10.9212 9.63173 11.2047 9.53329C11.4882 9.43484 11.7461 9.27449 11.9599 9.06388C12.1656 8.86816 12.3286 8.63202 12.4387 8.37029C12.5488 8.10856 12.6036 7.82689 12.5997 7.54296V7.16133C12.6122 5.75096 12.1037 4.3856 11.1715 3.3271C10.2394 2.26861 8.94929 1.59149 7.54865 1.42561ZM6.52723 8.77205C6.18424 8.77205 5.84895 8.67034 5.56376 8.47978C5.27858 8.28923 5.0563 8.01839 4.92505 7.70151C4.79379 7.38463 4.75945 7.03594 4.82636 6.69954C4.89328 6.36314 5.05844 6.05414 5.30097 5.81161C5.5435 5.56908 5.8525 5.40391 6.1889 5.337C6.5253 5.27009 6.87399 5.30443 7.19087 5.43568C7.50775 5.56694 7.77859 5.78922 7.96915 6.0744C8.1597 6.35959 8.26141 6.69487 8.26141 7.03786C8.25993 7.49734 8.07675 7.93758 7.75184 8.26248C7.42694 8.58738 6.9867 8.77057 6.52723 8.77205Z" fill="#362E72"/>
</g>
<defs>
<clipPath id="clip0_325_17091">
<rect width="14" height="14" fill="white"/>
</clipPath>
</defs>
</svg>
