<svg width="20" height="20" viewBox="0 0 20 20" fill="none" xmlns="http://www.w3.org/2000/svg">
<path d="M5.00004 10.8333C4.54171 10.8333 4.16671 11.2083 4.16671 11.6666C4.16671 12.1249 4.54171 12.4999 5.00004 12.4999C5.45837 12.4999 5.83337 12.1249 5.83337 11.6666C5.83337 11.2083 5.45837 10.8333 5.00004 10.8333ZM5.00004 14.1666C4.54171 14.1666 4.16671 14.5416 4.16671 14.9999C4.16671 15.4583 4.54171 15.8333 5.00004 15.8333C5.45837 15.8333 5.83337 15.4583 5.83337 14.9999C5.83337 14.5416 5.45837 14.1666 5.00004 14.1666ZM5.00004 7.49992C4.54171 7.49992 4.16671 7.87492 4.16671 8.33325C4.16671 8.79158 4.54171 9.16658 5.00004 9.16658C5.45837 9.16658 5.83337 8.79158 5.83337 8.33325C5.83337 7.87492 5.45837 7.49992 5.00004 7.49992ZM2.50004 7.91658C2.26671 7.91658 2.08337 8.09992 2.08337 8.33325C2.08337 8.56659 2.26671 8.74992 2.50004 8.74992C2.73337 8.74992 2.91671 8.56659 2.91671 8.33325C2.91671 8.09992 2.73337 7.91658 2.50004 7.91658ZM5.00004 4.16659C4.54171 4.16659 4.16671 4.54159 4.16671 4.99992C4.16671 5.45825 4.54171 5.83325 5.00004 5.83325C5.45837 5.83325 5.83337 5.45825 5.83337 4.99992C5.83337 4.54159 5.45837 4.16659 5.00004 4.16659ZM17.5 8.74992C17.7334 8.74992 17.9167 8.56659 17.9167 8.33325C17.9167 8.09992 17.7334 7.91658 17.5 7.91658C17.2667 7.91658 17.0834 8.09992 17.0834 8.33325C17.0834 8.56659 17.2667 8.74992 17.5 8.74992ZM11.6667 5.83325C12.125 5.83325 12.5 5.45825 12.5 4.99992C12.5 4.54159 12.125 4.16659 11.6667 4.16659C11.2084 4.16659 10.8334 4.54159 10.8334 4.99992C10.8334 5.45825 11.2084 5.83325 11.6667 5.83325ZM11.6667 2.91659C11.9 2.91659 12.0834 2.73325 12.0834 2.49992C12.0834 2.26659 11.9 2.08325 11.6667 2.08325C11.4334 2.08325 11.25 2.26659 11.25 2.49992C11.25 2.73325 11.4334 2.91659 11.6667 2.91659ZM2.50004 11.2499C2.26671 11.2499 2.08337 11.4333 2.08337 11.6666C2.08337 11.8999 2.26671 12.0833 2.50004 12.0833C2.73337 12.0833 2.91671 11.8999 2.91671 11.6666C2.91671 11.4333 2.73337 11.2499 2.50004 11.2499ZM8.33337 17.0833C8.10004 17.0833 7.91671 17.2666 7.91671 17.4999C7.91671 17.7333 8.10004 17.9166 8.33337 17.9166C8.56671 17.9166 8.75004 17.7333 8.75004 17.4999C8.75004 17.2666 8.56671 17.0833 8.33337 17.0833ZM8.33337 2.91659C8.56671 2.91659 8.75004 2.73325 8.75004 2.49992C8.75004 2.26659 8.56671 2.08325 8.33337 2.08325C8.10004 2.08325 7.91671 2.26659 7.91671 2.49992C7.91671 2.73325 8.10004 2.91659 8.33337 2.91659ZM8.33337 5.83325C8.79171 5.83325 9.16671 5.45825 9.16671 4.99992C9.16671 4.54159 8.79171 4.16659 8.33337 4.16659C7.87504 4.16659 7.50004 4.54159 7.50004 4.99992C7.50004 5.45825 7.87504 5.83325 8.33337 5.83325ZM8.33337 10.4166C7.64171 10.4166 7.08337 10.9749 7.08337 11.6666C7.08337 12.3583 7.64171 12.9166 8.33337 12.9166C9.02504 12.9166 9.58337 12.3583 9.58337 11.6666C9.58337 10.9749 9.02504 10.4166 8.33337 10.4166ZM15 10.8333C14.5417 10.8333 14.1667 11.2083 14.1667 11.6666C14.1667 12.1249 14.5417 12.4999 15 12.4999C15.4584 12.4999 15.8334 12.1249 15.8334 11.6666C15.8334 11.2083 15.4584 10.8333 15 10.8333ZM15 14.1666C14.5417 14.1666 14.1667 14.5416 14.1667 14.9999C14.1667 15.4583 14.5417 15.8333 15 15.8333C15.4584 15.8333 15.8334 15.4583 15.8334 14.9999C15.8334 14.5416 15.4584 14.1666 15 14.1666ZM15 7.49992C14.5417 7.49992 14.1667 7.87492 14.1667 8.33325C14.1667 8.79158 14.5417 9.16658 15 9.16658C15.4584 9.16658 15.8334 8.79158 15.8334 8.33325C15.8334 7.87492 15.4584 7.49992 15 7.49992ZM15 4.16659C14.5417 4.16659 14.1667 4.54159 14.1667 4.99992C14.1667 5.45825 14.5417 5.83325 15 5.83325C15.4584 5.83325 15.8334 5.45825 15.8334 4.99992C15.8334 4.54159 15.4584 4.16659 15 4.16659ZM17.5 11.2499C17.2667 11.2499 17.0834 11.4333 17.0834 11.6666C17.0834 11.8999 17.2667 12.0833 17.5 12.0833C17.7334 12.0833 17.9167 11.8999 17.9167 11.6666C17.9167 11.4333 17.7334 11.2499 17.5 11.2499ZM11.6667 14.1666C11.2084 14.1666 10.8334 14.5416 10.8334 14.9999C10.8334 15.4583 11.2084 15.8333 11.6667 15.8333C12.125 15.8333 12.5 15.4583 12.5 14.9999C12.5 14.5416 12.125 14.1666 11.6667 14.1666ZM11.6667 17.0833C11.4334 17.0833 11.25 17.2666 11.25 17.4999C11.25 17.7333 11.4334 17.9166 11.6667 17.9166C11.9 17.9166 12.0834 17.7333 12.0834 17.4999C12.0834 17.2666 11.9 17.0833 11.6667 17.0833ZM8.33337 7.08325C7.64171 7.08325 7.08337 7.64159 7.08337 8.33325C7.08337 9.02492 7.64171 9.58325 8.33337 9.58325C9.02504 9.58325 9.58337 9.02492 9.58337 8.33325C9.58337 7.64159 9.02504 7.08325 8.33337 7.08325ZM8.33337 14.1666C7.87504 14.1666 7.50004 14.5416 7.50004 14.9999C7.50004 15.4583 7.87504 15.8333 8.33337 15.8333C8.79171 15.8333 9.16671 15.4583 9.16671 14.9999C9.16671 14.5416 8.79171 14.1666 8.33337 14.1666ZM11.6667 10.4166C10.975 10.4166 10.4167 10.9749 10.4167 11.6666C10.4167 12.3583 10.975 12.9166 11.6667 12.9166C12.3584 12.9166 12.9167 12.3583 12.9167 11.6666C12.9167 10.9749 12.3584 10.4166 11.6667 10.4166ZM11.6667 7.08325C10.975 7.08325 10.4167 7.64159 10.4167 8.33325C10.4167 9.02492 10.975 9.58325 11.6667 9.58325C12.3584 9.58325 12.9167 9.02492 12.9167 8.33325C12.9167 7.64159 12.3584 7.08325 11.6667 7.08325Z" fill="#362E72"/>
</svg>
