<svg width="24" height="24" viewBox="0 0 24 24" fill="none" xmlns="http://www.w3.org/2000/svg">
<path d="M3.2295 21V20.04C3.7735 20.024 4.2055 19.976 4.5255 19.896C4.8615 19.816 5.1175 19.68 5.2935 19.488C5.4855 19.296 5.6135 19.024 5.6775 18.672C5.7415 18.32 5.7735 17.864 5.7735 17.304V6.216C5.7735 5.656 5.7495 5.208 5.7015 4.872C5.6535 4.52 5.5495 4.248 5.3895 4.056C5.2455 3.848 5.0375 3.712 4.7655 3.648C4.5095 3.568 4.1655 3.512 3.7335 3.48V2.52H11.4375C13.8535 2.52 15.7095 2.912 17.0055 3.696C18.3175 4.464 18.9735 5.568 18.9735 7.008C18.9735 8.912 17.6055 10.256 14.8695 11.04V11.136C15.7495 11.136 16.5415 11.264 17.2455 11.52C17.9655 11.76 18.5735 12.104 19.0695 12.552C19.5655 13 19.9495 13.528 20.2215 14.136C20.4935 14.744 20.6295 15.408 20.6295 16.128C20.6295 16.944 20.4295 17.656 20.0295 18.264C19.6455 18.872 19.0855 19.384 18.3495 19.8C16.9255 20.6 14.9655 21 12.4695 21H3.2295ZM12.6375 19.536C15.2135 19.536 16.5015 18.376 16.5015 16.056C16.5015 14.632 16.0375 13.592 15.1095 12.936C14.6295 12.6 14.0055 12.36 13.2375 12.216C12.4855 12.072 11.5575 12 10.4535 12H9.3015V16.8C9.3015 17.792 9.5575 18.496 10.0695 18.912C10.5815 19.328 11.4375 19.536 12.6375 19.536ZM10.7175 10.56C11.4375 10.56 12.0615 10.496 12.5895 10.368C13.1175 10.224 13.5655 10.024 13.9335 9.768C14.7015 9.24 15.0855 8.416 15.0855 7.296C15.0855 6.128 14.7975 5.288 14.2215 4.776C13.6455 4.248 12.7175 3.984 11.4375 3.984H9.7335C9.4455 3.984 9.3015 4.12 9.3015 4.392V10.56H10.7175Z" fill="#2A292F"/>
</svg>
