<svg width="7" height="7" viewBox="0 0 7 7" fill="none" xmlns="http://www.w3.org/2000/svg">
<path d="M4.08693 3.49964L5.87687 1.71362C5.95525 1.63522 5.99929 1.52889 5.99929 1.41803C5.99929 1.30716 5.95525 1.20083 5.87687 1.12244C5.79849 1.04404 5.69217 1 5.58132 1C5.47047 1 5.36416 1.04404 5.28577 1.12244L3.5 2.91263L1.71423 1.12244C1.63584 1.04404 1.52953 1 1.41868 1C1.30783 1 1.20151 1.04404 1.12313 1.12244C1.04475 1.20083 1.00071 1.30716 1.00071 1.41803C1.00071 1.52889 1.04475 1.63522 1.12313 1.71362L2.91307 3.49964L1.12313 5.28567C1.08411 5.32438 1.05315 5.37042 1.03201 5.42115C1.01088 5.47189 1 5.5263 1 5.58126C1 5.63622 1.01088 5.69064 1.03201 5.74137C1.05315 5.7921 1.08411 5.83815 1.12313 5.87685C1.16183 5.91587 1.20787 5.94685 1.25859 5.96798C1.30932 5.98912 1.36373 6 1.41868 6C1.47363 6 1.52804 5.98912 1.57876 5.96798C1.62949 5.94685 1.67553 5.91587 1.71423 5.87685L3.5 4.08666L5.28577 5.87685C5.32447 5.91587 5.37051 5.94685 5.42124 5.96798C5.47196 5.98912 5.52637 6 5.58132 6C5.63627 6 5.69068 5.98912 5.74141 5.96798C5.79213 5.94685 5.83817 5.91587 5.87687 5.87685C5.91589 5.83815 5.94685 5.7921 5.96799 5.74137C5.98912 5.69064 6 5.63622 6 5.58126C6 5.5263 5.98912 5.47189 5.96799 5.42115C5.94685 5.37042 5.91589 5.32438 5.87687 5.28567L4.08693 3.49964Z" fill="#AAAAAA"/>
</svg>
