<svg width="20" height="20" viewBox="0 0 20 20" fill="none" xmlns="http://www.w3.org/2000/svg">
<path d="M10.8335 9.16669H5.8335C5.61248 9.16669 5.40052 9.25448 5.24424 9.41076C5.08796 9.56705 5.00016 9.77901 5.00016 10C5.00016 10.221 5.08796 10.433 5.24424 10.5893C5.40052 10.7456 5.61248 10.8334 5.8335 10.8334H10.8335C11.0545 10.8334 11.2665 10.7456 11.4228 10.5893C11.579 10.433 11.6668 10.221 11.6668 10C11.6668 9.77901 11.579 9.56705 11.4228 9.41076C11.2665 9.25448 11.0545 9.16669 10.8335 9.16669ZM14.1668 5.83335H5.8335C5.61248 5.83335 5.40052 5.92115 5.24424 6.07743C5.08796 6.23371 5.00016 6.44567 5.00016 6.66669C5.00016 6.8877 5.08796 7.09966 5.24424 7.25594C5.40052 7.41222 5.61248 7.50002 5.8335 7.50002H14.1668C14.3878 7.50002 14.5998 7.41222 14.7561 7.25594C14.9124 7.09966 15.0002 6.8877 15.0002 6.66669C15.0002 6.44567 14.9124 6.23371 14.7561 6.07743C14.5998 5.92115 14.3878 5.83335 14.1668 5.83335ZM4.16683 1.66669H15.8335C16.4965 1.66669 17.1324 1.93008 17.6013 2.39892C18.0701 2.86776 18.3335 3.50365 18.3335 4.16669V12.5C18.3335 13.1631 18.0701 13.7989 17.6013 14.2678C17.1324 14.7366 16.4965 15 15.8335 15H6.17516L3.09183 18.0917C3.01396 18.1689 2.92162 18.23 2.82009 18.2715C2.71855 18.313 2.60984 18.334 2.50016 18.3334C2.39085 18.3362 2.2824 18.3133 2.1835 18.2667C2.03131 18.2042 1.90104 18.098 1.8091 17.9616C1.71715 17.8251 1.66765 17.6645 1.66683 17.5V4.16669C1.66683 3.50365 1.93022 2.86776 2.39906 2.39892C2.8679 1.93008 3.50379 1.66669 4.16683 1.66669ZM3.3335 15.4917L5.24183 13.575C5.3197 13.4978 5.41204 13.4367 5.51357 13.3952C5.6151 13.3537 5.72382 13.3327 5.8335 13.3334H15.8335C16.0545 13.3334 16.2665 13.2456 16.4228 13.0893C16.579 12.933 16.6668 12.721 16.6668 12.5V4.16669C16.6668 3.94567 16.579 3.73371 16.4228 3.57743C16.2665 3.42115 16.0545 3.33335 15.8335 3.33335H4.16683C3.94582 3.33335 3.73385 3.42115 3.57757 3.57743C3.42129 3.73371 3.3335 3.94567 3.3335 4.16669V15.4917Z" fill="#362E72"/>
</svg>
