<svg width="20" height="20" viewBox="0 0 20 20" fill="none" xmlns="http://www.w3.org/2000/svg">
<path d="M14.1667 12.4999H15.8334V5.83325C15.8334 5.39122 15.6578 4.9673 15.3452 4.65474C15.0327 4.34218 14.6087 4.16659 14.1667 4.16659H7.50004V5.83325H14.1667V12.4999ZM5.83337 14.1666V1.66659C5.83337 1.44557 5.74558 1.23361 5.5893 1.07733C5.43302 0.921049 5.22105 0.833252 5.00004 0.833252C4.77903 0.833252 4.56707 0.921049 4.41078 1.07733C4.2545 1.23361 4.16671 1.44557 4.16671 1.66659V4.16659H1.66671C1.44569 4.16659 1.23373 4.25438 1.07745 4.41066C0.921171 4.56694 0.833374 4.77891 0.833374 4.99992C0.833374 5.22093 0.921171 5.43289 1.07745 5.58918C1.23373 5.74546 1.44569 5.83325 1.66671 5.83325H4.16671V14.1666C4.16671 14.6086 4.3423 15.0325 4.65486 15.3451C4.96742 15.6577 5.39135 15.8333 5.83337 15.8333H14.1667V18.3333C14.1667 18.5543 14.2545 18.7662 14.4108 18.9225C14.5671 19.0788 14.779 19.1666 15 19.1666C15.2211 19.1666 15.433 19.0788 15.5893 18.9225C15.7456 18.7662 15.8334 18.5543 15.8334 18.3333V15.8333H18.3334C18.5544 15.8333 18.7664 15.7455 18.9226 15.5892C19.0789 15.4329 19.1667 15.2209 19.1667 14.9999C19.1667 14.7789 19.0789 14.5669 18.9226 14.4107C18.7664 14.2544 18.5544 14.1666 18.3334 14.1666H5.83337Z" fill="#362E72"/>
</svg>
