<svg width="20" height="20" viewBox="0 0 20 20" fill="none" xmlns="http://www.w3.org/2000/svg">
<g clip-path="url(#clip0_176_1999)">
<path d="M11.0449 9.97118L18.2002 3.82025C18.242 3.78392 18.2756 3.73855 18.2986 3.68734C18.3217 3.63613 18.3336 3.58033 18.3336 3.52383C18.3336 3.46733 18.3217 3.4115 18.2986 3.36029C18.2756 3.30908 18.242 3.26371 18.2002 3.22739C17.8397 2.81374 17.3406 2.55792 16.8044 2.51202C16.2683 2.46613 15.7354 2.63362 15.3142 2.98037L9.43099 8.6043L6.96639 6.4799C7.027 6.23498 7.05903 5.98341 7.06179 5.73058C7.0618 5.09171 6.87923 4.46712 6.53707 3.93554C6.19367 3.40612 5.70686 2.99361 5.13781 2.74982C4.56756 2.50324 3.93951 2.43732 3.33309 2.56042C2.73006 2.68817 2.1769 2.99753 1.74302 3.4497C1.30582 3.89741 1.00933 4.4714 0.892344 5.09654C0.774281 5.72397 0.835055 6.37344 1.06725 6.96571C1.30353 7.55694 1.70496 8.06158 2.22005 8.41491C2.73289 8.77019 3.33623 8.95937 3.95322 8.95837C4.728 8.9674 5.47754 8.67335 6.0521 8.13495L7.99993 10.0041L6.0521 11.8733C5.4759 11.3377 4.72744 11.044 3.95322 11.0499C3.33623 11.0488 2.73289 11.238 2.22005 11.5933C1.70496 11.9466 1.30353 12.4513 1.06725 13.0425C0.836609 13.6323 0.775857 14.2787 0.892344 14.9034C1.01256 15.5274 1.30858 16.1004 1.74302 16.5503C2.17886 16.9997 2.73119 17.3086 3.33309 17.4396C3.93951 17.5627 4.56756 17.4968 5.13781 17.2502C5.70686 17.0064 6.19367 16.5939 6.53707 16.0645C6.87625 15.5314 7.05854 14.9078 7.06179 14.2694C7.05903 14.0166 7.027 13.765 6.96639 13.5201L9.43099 11.3957L15.3142 17.0196C15.7361 17.3645 16.2686 17.5308 16.8042 17.4849C17.3398 17.4391 17.8387 17.1845 18.2002 16.7726C18.242 16.7363 18.2756 16.6909 18.2986 16.6397C18.3217 16.5885 18.3336 16.5327 18.3336 16.4762C18.3336 16.4197 18.3217 16.3638 18.2986 16.3126C18.2756 16.2614 18.242 16.2161 18.2002 16.1798L11.0449 9.97118ZM5.04241 6.8422C4.75733 7.13644 4.37158 7.30216 3.96911 7.30331C3.76792 7.30174 3.56864 7.26268 3.3808 7.18802C3.19693 7.10592 3.02969 6.9886 2.88787 6.8422C2.74716 6.69648 2.6363 6.52282 2.56192 6.33166C2.48278 6.14189 2.44218 5.9373 2.44265 5.73058C2.44218 5.52387 2.48278 5.31925 2.56192 5.12948C2.6363 4.93832 2.74716 4.76469 2.88787 4.61896C3.02969 4.47257 3.19693 4.35522 3.3808 4.27312C3.57666 4.21325 3.78142 4.19094 3.98502 4.20726C4.38749 4.2084 4.77323 4.37413 5.05831 4.66837C5.1997 4.81404 5.31183 4.98726 5.38825 5.17805C5.46466 5.36884 5.50385 5.57343 5.50353 5.77999C5.48957 6.18521 5.32424 6.56898 5.04241 6.85042V6.8422ZM5.04241 15.3316C4.75733 15.6259 4.37158 15.7916 3.96911 15.7927C3.76792 15.7912 3.56864 15.7521 3.3808 15.6775C3.19693 15.5953 3.02969 15.478 2.88787 15.3316C2.74937 15.1841 2.63881 15.0109 2.56192 14.8211C2.48278 14.6313 2.44218 14.4267 2.44265 14.22C2.44218 14.0133 2.48278 13.8087 2.56192 13.6189C2.63446 13.4268 2.74555 13.2528 2.88787 13.1084C3.02969 12.962 3.19693 12.8447 3.3808 12.7626C3.56708 12.6815 3.76705 12.6395 3.96911 12.639C4.37254 12.6433 4.75814 12.8119 5.04241 13.1084C5.18452 13.2535 5.29712 13.4266 5.37358 13.6176C5.45005 13.8085 5.48883 14.0133 5.48763 14.22C5.489 14.428 5.45033 14.6341 5.37388 14.8264C5.29744 15.0187 5.18475 15.1932 5.04241 15.3399V15.3316Z" fill="#362E72"/>
</g>
<defs>
<clipPath id="clip0_176_1999">
<rect width="20" height="20" fill="white"/>
</clipPath>
</defs>
</svg>
