<svg width="50" height="50" viewBox="0 0 50 50" fill="none" xmlns="http://www.w3.org/2000/svg">
<path d="M4.04985 27.686C3.5377 27.1739 3.27699 26.4672 3.33418 25.7595L4.85119 6.99041C4.94395 5.84267 5.84272 4.9439 6.99046 4.85114L25.7596 3.33413C26.4672 3.27694 27.1739 3.53764 27.6861 4.04979L45.3487 21.7124C46.3036 22.6673 46.3087 24.1858 45.3903 25.1041L25.1042 45.3902C24.1858 46.3086 22.6674 46.3035 21.7125 45.3486L4.04985 27.686ZM16.1076 16.1076C17.4232 14.7919 17.4232 12.6589 16.1076 11.3432C14.792 10.0276 12.6589 10.0276 11.3433 11.3432C10.0276 12.6589 10.0276 14.7919 11.3433 16.1076C12.6589 17.4232 14.792 17.4232 16.1076 16.1076Z" fill="#F5A623" stroke="#BC5A00"/>
<path d="M26.418 15.752L24.0156 30H21.2715L23.1758 19.0527L19.7188 20.1172L20.1191 17.793L26.0664 15.752H26.418Z" fill="black"/>
</svg>
