<svg width="18" height="12" viewBox="0 0 18 12" fill="none" xmlns="http://www.w3.org/2000/svg">
<path fill-rule="evenodd" clip-rule="evenodd" d="M14.6 5L11.3 1.7C10.9 1.3 10.9 0.7 11.3 0.3C11.7 -0.1 12.3 -0.1 12.7 0.3L17.5259 5.12593C17.8215 5.28849 17.9991 5.59848 18 5.99707C18 5.99902 18 6.00098 18 6.00293C17.9991 6.40152 17.8215 6.71151 17.5259 6.87407L12.7 11.7C12.5 11.9 12.3 12 12 12C11.7 12 11.5 11.9 11.3 11.7C10.9 11.3 10.9 10.7 11.3 10.3L14.6 7H1C0.4 7 0 6.6 0 6C0 5.4 0.4 5 1 5H14.6Z" fill="black"/>
</svg>
