<svg width="21" height="18" viewBox="0 0 21 18" fill="none" xmlns="http://www.w3.org/2000/svg">
<path d="M20.0018 11.44C20.0063 11.3968 20.0063 11.3532 20.0018 11.31C19.9978 11.2701 19.9978 11.2299 20.0018 11.19L19.9518 11.07L13.9518 0.779974C13.856 0.61679 13.7159 0.484125 13.5478 0.39739C13.3796 0.310654 13.1903 0.273407 13.0018 0.289974H7.00179C6.82661 0.288764 6.65419 0.333594 6.50179 0.419974L6.39179 0.499974C6.35964 0.524117 6.32953 0.550874 6.30179 0.579974C6.2632 0.615282 6.22956 0.655648 6.20179 0.699974C6.20179 0.699974 6.20179 0.699974 6.14179 0.779974L0.141787 11.11C0.054019 11.262 0.0078125 11.4344 0.0078125 11.61C0.0078125 11.7855 0.054019 11.958 0.141787 12.11L3.14179 17.19C3.17272 17.2439 3.20962 17.2943 3.25179 17.34V17.4C3.37601 17.52 3.52674 17.6091 3.69179 17.66V17.66C3.7648 17.6697 3.83878 17.6697 3.91179 17.66H16.0018C16.1753 17.6599 16.3459 17.6147 16.4967 17.5288C16.6474 17.4429 16.7733 17.3193 16.8618 17.17L19.8618 12.03L19.9118 11.91C19.9078 11.8701 19.9078 11.8299 19.9118 11.79C19.9171 11.7468 19.9171 11.7031 19.9118 11.66C19.9173 11.6168 19.9173 11.5731 19.9118 11.53C19.9449 11.5033 19.9751 11.4731 20.0018 11.44V11.44ZM4.00179 14.73L2.21179 11.63L7.00179 3.26997L7.87179 4.76997L8.87179 6.42997L5.00179 12.91L4.00179 14.73ZM10.0018 8.40997L11.2618 10.57H8.72179L10.0018 8.40997ZM15.4318 15.71H5.70179L7.54179 12.57H17.2618L15.4318 15.71ZM13.5718 10.57L8.74179 2.28997H12.4318L17.2618 10.57H13.5718Z" fill="black"/>
</svg>
