<?xml version="1.0" encoding="UTF-8" standalone="no"?>
<svg
   width="24"
   height="22"
   viewBox="0 0 24 22"
   fill="none"
   version="1.1"
   id="svg150"
   sodipodi:docname="fullfiller.svg"
   inkscape:version="1.2 (56b05e47e7, 2022-06-09, custom)"
   xmlns:inkscape="http://www.inkscape.org/namespaces/inkscape"
   xmlns:sodipodi="http://sodipodi.sourceforge.net/DTD/sodipodi-0.dtd"
   xmlns:xlink="http://www.w3.org/1999/xlink"
   xmlns="http://www.w3.org/2000/svg"
   xmlns:svg="http://www.w3.org/2000/svg">
  <defs
     id="defs154">
    <clipPath
       clipPathUnits="userSpaceOnUse"
       id="clipPath1028">
      <use
         x="0"
         y="0"
         xlink:href="#g1024"
         id="use1030" />
    </clipPath>
  </defs>
  <sodipodi:namedview
     id="namedview152"
     pagecolor="#ffffff"
     bordercolor="#000000"
     borderopacity="0.25"
     inkscape:showpageshadow="2"
     inkscape:pageopacity="0.0"
     inkscape:pagecheckerboard="0"
     inkscape:deskcolor="#d1d1d1"
     showgrid="false"
     inkscape:zoom="22.875"
     inkscape:cx="14.73224"
     inkscape:cy="13.748634"
     inkscape:window-width="1920"
     inkscape:window-height="1016"
     inkscape:window-x="1920"
     inkscape:window-y="27"
     inkscape:window-maximized="1"
     inkscape:current-layer="svg150" />
  <path
     d="M 16.56,10.94 8.325,2.705 c -0.38936,-0.38936 -1.02064,-0.38936 -1.41,0 -0.38936,0.38936 -0.38936,1.02064 0,1.41 L 8.59,5.79 3.44,10.94 c -0.59,0.59 -0.59,1.54 0,2.12 l 5.5,5.5 C 9.23,18.85 9.62,19 10,19 c 0.38,0 0.77,-0.15 1.06,-0.44 l 5.5,-5.5 c 0.59,-0.58 0.59,-1.53 0,-2.12 z M 5.21,12 10,7.21 14.79,12 Z M 19,13.5 c 0,0 -2,2.17 -2,3.5 0,1.1 0.9,2 2,2 1.1,0 2,-0.9 2,-2 0,-1.33 -2,-3.5 -2,-3.5 z"
     fill="#000000"
     id="path148"
     sodipodi:nodetypes="sssscscssscscccccsssc" />
  <g
     id="g1026"
     clip-path="url(#clipPath1028)">
    <g
       inkscape:label="Clip"
       id="g1024">
      <path
         d="m 11.786605,-28.215887 -8.2349998,-8.235 c -0.38936,-0.38936 -1.02064,-0.38936 -1.41,0 -0.38936,0.38936 -0.38936,1.02064 0,1.41 l 1.675,1.675 -5.15,5.15 c -0.59,0.59 -0.59,1.54 0,2.12 l 5.5,5.5 c 0.29,0.29 0.68,0.44 1.06,0.44 0.38,0 0.77,-0.15 1.06,-0.44 l 5.4999998,-5.5 c 0.59,-0.58 0.59,-1.53 0,-2.12 z m -11.34999981,1.06 4.79000001,-4.79 4.7899998,4.79 z m 13.78999981,1.5 c 0,0 -2,2.17 -2,3.5 0,1.1 0.9,2 2,2 1.1,0 2,-0.9 2,-2 0,-1.33 -2,-3.5 -2,-3.5 z m -16.9999998,7.5 c 0.4014615,10.5388668 0.2007307,5.269433 0,0 z"
         fill="#000000"
         id="path314"
         sodipodi:nodetypes="sssscscssscscccccsssccc" />
    </g>
  </g>
  <rect
     style="fill:#cacaca;stroke:#ffffff;stroke-width:2.93291;stroke-opacity:0"
     id="rect368"
     width="29.316011"
     height="5.6001081"
     x="-3.8355212"
     y="-10.977808" />
</svg>
