<svg width="18" height="18" viewBox="0 0 18 18" fill="none" xmlns="http://www.w3.org/2000/svg">
<path d="M14.25 1.5H3.75C3.15326 1.5 2.58097 1.73705 2.15901 2.15901C1.73705 2.58097 1.5 3.15326 1.5 3.75V11.25C1.5 11.8467 1.73705 12.419 2.15901 12.841C2.58097 13.2629 3.15326 13.5 3.75 13.5H12.4425L15.2175 16.2825C15.2876 16.352 15.3707 16.407 15.4621 16.4443C15.5534 16.4817 15.6513 16.5006 15.75 16.5C15.8484 16.5025 15.946 16.482 16.035 16.44C16.172 16.3837 16.2892 16.2882 16.372 16.1654C16.4547 16.0426 16.4993 15.8981 16.5 15.75V3.75C16.5 3.15326 16.2629 2.58097 15.841 2.15901C15.419 1.73705 14.8467 1.5 14.25 1.5ZM4.3275 12H3.75C3.55109 12 3.36032 11.921 3.21967 11.7803C3.07902 11.6397 3 11.4489 3 11.25V10.935L5.475 8.4675C5.61552 8.32781 5.80561 8.24941 6.00375 8.24941C6.20189 8.24941 6.39198 8.32781 6.5325 8.4675L7.185 9.12L4.3275 12ZM15 13.9425L13.2825 12.2175C13.2124 12.148 13.1293 12.093 13.0379 12.0557C12.9466 12.0183 12.8487 11.9994 12.75 12H6.4425L11.475 6.9675C11.6152 6.83008 11.8037 6.75311 12 6.75311C12.1963 6.75311 12.3848 6.83008 12.525 6.9675L15 9.435V13.9425ZM15 7.32L13.59 5.9175C13.1681 5.49615 12.5963 5.25948 12 5.25948C11.4037 5.25948 10.8319 5.49615 10.41 5.9175L8.25 8.07L7.59 7.4175C7.16254 7.00682 6.59277 6.77747 6 6.77747C5.40723 6.77747 4.83746 7.00682 4.41 7.4175L3 8.82V3.75C3 3.55109 3.07902 3.36032 3.21967 3.21967C3.36032 3.07902 3.55109 3 3.75 3H14.25C14.4489 3 14.6397 3.07902 14.7803 3.21967C14.921 3.36032 15 3.55109 15 3.75V7.32Z" fill="#362E72"/>
</svg>
