<svg width="24" height="25" viewBox="0 0 24 25" fill="none" xmlns="http://www.w3.org/2000/svg">
<path d="M7.17684 19.6066H7.87284C8.73684 19.6066 9.22484 19.2946 9.33684 18.6706L11.9528 5.8546C11.9688 5.7906 11.9768 5.7106 11.9768 5.6146C11.9768 5.1506 11.6088 4.9186 10.8728 4.9186H10.1528L10.3688 3.8626H18.6248L18.4088 4.9186H17.6888C16.8568 4.9186 16.3768 5.2306 16.2488 5.8546L13.6088 18.6706L13.5848 18.8626C13.5848 19.1186 13.6728 19.3106 13.8488 19.4386C14.0248 19.5506 14.3048 19.6066 14.6888 19.6066H15.4088L15.2168 20.6626H6.96084L7.17684 19.6066Z" fill="#2A292F"/>
</svg>
