<?xml version="1.0" encoding="UTF-8" standalone="no"?>
<svg
        width="20.000008"
        height="20.000002"
        viewBox="0 0 20.000008 20.000002"
        fill="none"
        version="1.1"
        id="svg3127"
        sodipodi:docname="jpg.svg"
        inkscape:version="1.2 (56b05e47e7, 2022-06-09, custom)"
        xmlns:inkscape="http://www.inkscape.org/namespaces/inkscape"
        xmlns:sodipodi="http://sodipodi.sourceforge.net/DTD/sodipodi-0.dtd"
        xmlns="http://www.w3.org/2000/svg"
>
  <defs
     id="defs3131" />
  <sodipodi:namedview
     id="namedview3129"
     pagecolor="#ffffff"
     bordercolor="#000000"
     borderopacity="0.25"
     inkscape:showpageshadow="2"
     inkscape:pageopacity="0.0"
     inkscape:pagecheckerboard="0"
     inkscape:deskcolor="#d1d1d1"
     showgrid="false"
     inkscape:zoom="10.9375"
     inkscape:cx="15.36"
     inkscape:cy="19.428571"
     inkscape:window-width="1920"
     inkscape:window-height="1016"
     inkscape:window-x="1920"
     inkscape:window-y="27"
     inkscape:window-maximized="1"
     inkscape:current-layer="svg3127" />
  <path
     d="m 43.304152,25.989975 h -13.49348 l -3.47704,-3.477 c -0.13928,-0.1393 -0.24977,-0.3046 -0.32516,-0.4866 -0.07538,-0.182 -0.11418,-0.3771 -0.11418,-0.5741 0,-0.1969 0.0388,-0.392 0.11418,-0.574 0.07539,-0.182 0.18588,-0.3473 0.32516,-0.4866 L 36.940252,9.7850552 c 0.2813,-0.2813 0.6628,-0.43934 1.0606,-0.43934 0.3979,0 0.7794,0.15804 1.0607,0.43934 l 4.2426,4.2426398 c 0.1393,0.13929 0.2498,0.30465 0.3252,0.48664 0.0754,0.18199 0.1142,0.37704 0.1142,0.57402 0,0.19699 -0.0388,0.39204 -0.1142,0.57403 -0.0754,0.18199 -0.1859,0.34735 -0.3252,0.48664 l -9.84094,9.84095"
     stroke="#000000"
     stroke-width="1.8"
     stroke-linecap="round"
     stroke-linejoin="round"
     id="path3125" />
  <rect
     style="fill:#000000;stroke-width:0"
     id="rect3548"
     width="1.7844762"
     height="9.7674055"
     x="11.414406"
     y="30.348089"
     transform="matrix(0.81738347,-0.57609397,0.71051914,0.70367787,0,0)" />
  <path
     d="m 0.31501293,19.3166 c -0.0958,-0.0798 -0.173614,-0.1804 -0.228011,-0.2945 -0.0544,-0.1141 -0.08407,-0.2392 -0.08695000404,-0.3664 C -0.00114807,18.5473 0.01846193,18.4398 0.05772193,18.3394 c 0.03926,-0.1005 0.09741,-0.1919 0.171058,-0.269 0.07365,-0.077 0.161355,-0.1382 0.258023,-0.1799 0.09667,-0.0418 0.20038,-0.0633 0.305135,-0.0633 0.180079,-0.0039 0.35559897,0.0588 0.49493897,0.1769 0.28152,0.248 0.63808,0.3864 1.00786,0.391 0.64791,0 1.03485,-0.391 1.03485,-1.2939 v -4.2448 c 0,-0.2271 0.08723,-0.4449 0.24249,-0.6055 0.15526,-0.1606 0.36583,-0.2508 0.5854,-0.2508 0.10948,-0.0013 0.2181,0.02 0.31959,0.0624 0.10148,0.0425 0.19381,0.1054 0.27164,0.1851 0.07784,0.0796 0.13962,0.1744 0.18179,0.2789 0.04217,0.1045 0.06388,0.2167 0.06387,0.3299 v 4.3285 c 0.02376,0.38 -0.02785,0.761 -0.15165,1.1195 -0.1238,0.3586 -0.31718,0.6872 -0.56825,0.9657 -0.26419,0.2494 -0.57366,0.442 -0.91043,0.5666 -0.33677,0.1247 -0.69412,0.1789 -1.0513,0.1594 -0.72033,0.0089 -1.42307897,-0.2301 -1.99773297,-0.6795 z"
     fill="#000000"
     id="path3571" />
  <path
     d="m 6.0000559,12.8805 c -0.0012,-0.116 0.01967,-0.231 0.06141,-0.3384 0.04174,-0.1074 0.1035,-0.205 0.18166,-0.287 0.07816,-0.082 0.17114,-0.1468 0.27349,-0.1906 0.10235,-0.0438 0.212,-0.0657 0.32253,-0.0644 h 2.25562 c 1.8045401,0 2.9052401,1.1265 2.9052401,2.7549 0,1.8367 -1.3624,2.7929 -3.0676401,2.7929 h -1.21804 v 1.5811 c 0,0.1143 -0.02147,0.2276 -0.06318,0.3333 -0.04172,0.1056 -0.10286,0.2017 -0.17994,0.2825 -0.07708,0.0809 -0.16859,0.1451 -0.26929,0.1888 -0.10071,0.0438 -0.20865,0.0663 -0.31765,0.0663 -0.10977,0.0013 -0.21868,-0.0203 -0.32043,-0.0635 -0.10175,-0.0432 -0.19433,-0.1072 -0.27236,-0.1882 -0.07804,-0.081 -0.13999,-0.1774 -0.18227,-0.2837 -0.04228,-0.1063 -0.06404,-0.2204 -0.06404,-0.3355 z m 2.98644,3.1337 c 0.16414,0.0227 0.33101,0.0088 0.48963,-0.041 0.15862,-0.0498 0.3054,-0.1343 0.43068,-0.2479 0.1253001,-0.1135 0.2262001,-0.2536 0.2962001,-0.4111 0.07,-0.1574 0.1074,-0.3286 0.1098,-0.5023 v 0 c 0,-0.7858 -0.5233101,-1.2024 -1.3533701,-1.2024 h -1.24511 v 2.4331 z"
     fill="#000000"
     id="path3573" />
  <path
     d="m 13.000806,16.028 c -0.0049,-0.5344 0.0918,-1.0644 0.2841,-1.5585 0.1924,-0.494 0.4765,-0.942 0.8356,-1.3173 0.359,-0.3753 0.7856,-0.6702 1.2543,-0.8673 0.4688,-0.197 0.9702,-0.2921 1.4744,-0.2797 0.8901,-0.0466 1.7698,0.2207 2.5014,0.7601 0.104,0.0776 0.1891,0.1802 0.2484,0.2995 0.0593,0.1192 0.0911,0.2516 0.0927,0.3864 0,0.2237 -0.0838,0.4382 -0.2331,0.5964 -0.1493,0.1582 -0.3517,0.247 -0.5628,0.247 -0.1793,-0.0031 -0.3533,-0.0646 -0.4985,-0.1761 -0.4611,-0.3652 -1.0252,-0.5547 -1.6006,-0.5376 -0.5832,0.0265 -1.1326,0.2971 -1.5278,0.7524 -0.3952,0.4552 -0.6038,1.058 -0.5801,1.6761 v 0 c -0.0181,0.3194 0.0262,0.6393 0.1301,0.9397 0.1039,0.3004 0.2651,0.5749 0.4736,0.8063 0.2085,0.2314 0.4598,0.4147 0.7381,0.5385 0.2784,0.1238 0.5779,0.1855 0.8798,0.1811 0.5407,0.0196 1.0734,-0.1426 1.5218,-0.4635 v -1.1123 h -1.0932 c -0.0915,0.0013 -0.1823,-0.0168 -0.2672,-0.053 -0.0848,-0.0363 -0.162,-0.09 -0.2271,-0.1581 -0.0651,-0.0682 -0.1168,-0.1493 -0.152,-0.2387 -0.0353,-0.0895 -0.0535,-0.1855 -0.0535,-0.2824 0,-0.0974 0.0181,-0.1938 0.0533,-0.2838 0.0352,-0.0899 0.0867,-0.1717 0.1517,-0.2406 0.065,-0.0688 0.1421,-0.1234 0.227,-0.1607 0.0849,-0.0372 0.1759,-0.0564 0.2678,-0.0564 h 1.8454 c 0.1068,-0.0025 0.2129,0.0178 0.312,0.0596 0.0992,0.0419 0.1894,0.1044 0.2653,0.184 0.0759,0.0796 0.1359,0.1745 0.1765,0.2791 0.0406,0.1047 0.0608,0.2169 0.0596,0.33 v 1.8538 c 0.0131,0.2195 -0.0335,0.4383 -0.1343,0.6305 -0.1008,0.1922 -0.2514,0.3498 -0.4342,0.454 -0.7725,0.5068 -1.6628,0.7764 -2.5714,0.7786 -0.5036,0.0268 -1.007,-0.0565 -1.4789,-0.2448 -0.4718,-0.1883 -0.9021,-0.4775 -1.2639,-0.8497 -0.3619,-0.3721 -0.6475,-0.8192 -0.8392,-1.3134 -0.1917,-0.4943 -0.2854,-1.025 -0.2751,-1.5592 z"
     fill="#000000"
     id="path3575" />
  <path
     fill-rule="evenodd"
     clip-rule="evenodd"
     d="m 19.714006,6.14807 -5.455,-5.785033 C 14.070006,0.164037 13.803006,0 13.529006,0 H 1.9790059 C 0.87400993,0 5.9259627e-6,1 5.9259627e-6,2.104 v 7 C 5.9259627e-6,9.656 0.43699593,10 0.98999593,10 h 0.004 C 1.5469979,10 2.0000079,9.656 2.0000079,9.104 v -6 c 0,-0.552 0.42701,-1.104 0.98001,-1.104 h 9.0199901 v 4.104 c 0,1.105 0.874,1.896 1.98,1.896 h 4.02 v 1.104 c 0,0.552 0.437,0.896 0.99,0.896 h 0.004 c 0.553,0 1.006,-0.344 1.006,-0.896 V 6.83704 c 0,-0.257 -0.109,-0.50297 -0.286,-0.68897 z"
     fill="#000000"
     id="path3577" />
</svg>
