<svg width="20" height="20" viewBox="0 0 20 20" fill="none" xmlns="http://www.w3.org/2000/svg">
<path d="M6.87496 10.6253C7.22014 10.6253 7.49996 10.3455 7.49996 10.0003C7.49996 9.6551 7.22014 9.37527 6.87496 9.37527H3.38371L4.37496 8.38402C4.619 8.13998 4.619 7.74431 4.37496 7.50027C4.13092 7.25623 3.73525 7.25623 3.49121 7.50027L0.991211 10.0003L3.49121 12.5003C3.73525 12.7443 4.13092 12.7443 4.37496 12.5003C4.619 12.2562 4.619 11.8606 4.37496 11.6165L3.38371 10.6253H6.87496ZM16.5087 7.50027C16.2647 7.25623 15.869 7.25623 15.625 7.50027C15.3809 7.74431 15.3809 8.13998 15.625 8.38402L16.6162 9.37527H13.125C12.7798 9.37527 12.5 9.6551 12.5 10.0003C12.5 10.3455 12.7798 10.6253 13.125 10.6253H16.6162L15.625 11.6165C15.3809 11.8606 15.3809 12.2562 15.625 12.5003C15.869 12.7443 16.2647 12.7443 16.5087 12.5003L19.0087 10.0003L16.5087 7.50027ZM10.625 16.6162V13.1253C10.625 12.7801 10.3451 12.5003 9.99996 12.5003C9.65478 12.5003 9.37496 12.7801 9.37496 13.1253V16.6162L8.38375 15.6252C8.13968 15.3812 7.74401 15.3812 7.49997 15.6253C7.25592 15.8693 7.25591 16.265 7.49995 16.5091L9.99996 19.0093L12.5 16.5091C12.744 16.265 12.744 15.8693 12.4999 15.6253C12.2559 15.3812 11.8602 15.3812 11.6162 15.6252L10.625 16.6162ZM9.37496 3.38434V6.87527C9.37496 7.22045 9.65478 7.50027 9.99996 7.50027C10.3451 7.50027 10.625 7.22045 10.625 6.87527V3.38434L11.6162 4.37533C11.8602 4.61935 12.2559 4.61933 12.4999 4.37529C12.744 4.13123 12.744 3.73555 12.5 3.49149L9.99996 0.991211L7.49995 3.49149C7.25591 3.73555 7.25592 4.13123 7.49997 4.37529C7.74401 4.61933 8.13968 4.61935 8.38375 4.37533L9.37496 3.38434Z" fill="#362E72"/>
</svg>
