<svg width="21" height="22" viewBox="0 0 21 22" fill="none" xmlns="http://www.w3.org/2000/svg">
<path fill-rule="evenodd" clip-rule="evenodd" d="M15.5487 7.07625C15.6312 7.15687 15.708 7.27687 15.7212 7.3725C15.7624 7.69875 15.7324 8.0175 15.5787 8.24812C15.4999 8.36437 15.3724 8.45062 15.2205 8.49187C15.123 8.51812 15.0012 8.53125 14.8605 8.53125C14.0693 8.53125 12.8168 8.13187 11.7987 7.56C10.4618 7.75875 8.93554 8.1225 7.59679 8.5575C6.43616 10.5825 5.59429 11.4862 4.86866 11.4862C4.73366 11.4862 4.60054 11.4544 4.47491 11.3925L4.18616 11.2463C4.00429 11.1431 3.97804 10.92 4.01366 10.7437C4.12616 10.1962 4.80116 9.50625 5.81929 8.89687C5.93929 8.82562 6.45116 8.55375 6.47366 8.5425L6.77179 8.385C7.06241 7.89 7.38116 7.305 7.73366 6.61687L7.77679 6.5325L7.77751 6.53109C8.11108 5.87706 8.48951 5.13509 8.79116 4.39687L8.89991 4.13437C8.47804 2.52187 8.24554 1.275 8.47054 0.4425C8.54554 0.178125 8.82679 0 9.17554 0H9.17929L9.36304 0.00562477C9.67429 -0.00750023 9.87304 0.24 9.97429 0.474375L10.0062 0.556875C10.0324 0.63375 10.0418 0.661875 10.0549 0.759375C10.1524 1.47562 9.78116 3.59063 9.78116 3.59063C9.76241 3.66937 9.74366 3.74625 9.72116 3.83437C10.0662 4.7775 10.6174 5.63437 11.2793 6.25125C11.5249 6.48187 11.838 6.67312 12.1418 6.8475C12.8205 6.75187 13.4655 6.705 14.0018 6.71062C14.793 6.72187 15.3124 6.84375 15.5487 7.07625ZM6.14179 9.225C5.36741 9.85875 4.84241 10.575 4.71116 10.9369C5.06741 10.7737 5.60929 10.26 6.41929 8.96812C6.31054 9.07312 6.19054 9.18562 6.14179 9.225ZM9.67429 1.51312C9.66304 0.961875 9.52991 0.375 9.29741 0.375C9.19054 0.375 9.19991 1.20938 9.19991 1.20938C9.19991 1.64625 9.26366 2.31375 9.39679 2.7375C9.55616 2.45062 9.68554 2.06437 9.67429 1.51312ZM8.43304 6.97875C8.26054 7.30312 8.09179 7.61062 7.92866 7.90125C8.82116 7.55812 9.83554 7.275 11.0074 7.04437C10.9287 6.9825 10.8518 6.92062 10.7787 6.86062C10.203 6.37312 9.71179 5.76375 9.31804 5.0475C9.12116 5.55937 8.85491 6.18187 8.43304 6.97875ZM14.9149 7.905C15.0462 7.905 15.2505 7.87875 15.3218 7.83562C15.3949 7.79062 15.3893 7.575 14.973 7.46812C14.5621 7.36308 14.4337 7.36309 14.0253 7.36312L14.0037 7.36312C13.7712 7.36312 13.5105 7.37437 13.2274 7.395C13.9643 7.71187 14.4912 7.905 14.9149 7.905ZM0.0607161 13.541C0.0194738 13.6472 -0.00114583 13.7608 4.91165e-05 13.8753V20.1341C4.91165e-05 20.3637 0.0876315 20.5839 0.243534 20.7463C0.399436 20.9087 0.610887 20.9999 0.831366 20.9999C0.940872 21.0012 1.04952 20.9797 1.15092 20.9366C1.25233 20.8935 1.34446 20.8298 1.42189 20.7491C1.49933 20.6685 1.56052 20.5725 1.60187 20.4669C1.64322 20.3613 1.66389 20.2481 1.66268 20.1341V18.5152H2.93677C4.63555 18.5152 6 17.5647 6 15.7388C6 14.12 4.90663 13 3.09942 13H0.831366C0.721431 13 0.612588 13.0227 0.511134 13.0668C0.40968 13.1109 0.317632 13.1755 0.240318 13.2569C0.163004 13.3383 0.101958 13.4349 0.0607161 13.541ZM3.47858 16.9466C3.32082 16.9967 3.15468 17.0117 2.99099 16.9906L1.66268 17.0188V14.6H2.95484C3.7952 14.6 4.31025 15.0235 4.31025 15.7953C4.3077 15.9671 4.27045 16.1363 4.20091 16.2921C4.13137 16.4479 4.03112 16.5867 3.90666 16.6995C3.78221 16.8122 3.63635 16.8964 3.47858 16.9466ZM7.06161 13.5538C7.01977 13.6618 6.99884 13.7776 7.00005 13.8943V20.1158C7.00004 20.2317 7.02186 20.3465 7.06424 20.4535C7.10662 20.5604 7.16871 20.6575 7.24694 20.739C7.32516 20.8205 7.41795 20.8849 7.51994 20.9284C7.62194 20.9718 7.73111 20.9936 7.84113 20.9923H8.96643C9.48467 21.0262 10.004 20.9478 10.4923 20.7619C10.9807 20.576 11.4276 20.2866 11.8057 19.9116C12.1837 19.5366 12.4847 19.0839 12.6901 18.5816C12.8955 18.0792 13.001 17.5378 13 16.9908C12.9998 16.445 12.8934 15.905 12.6874 15.4042C12.4813 14.9034 12.1799 14.4525 11.8019 14.0793C11.4239 13.706 10.9772 13.4184 10.4895 13.2342C10.0018 13.05 9.48345 12.9731 8.96643 13.0083H7.84113C7.73034 13.007 7.62042 13.0291 7.51783 13.0731C7.41524 13.1172 7.32204 13.1824 7.2437 13.2649C7.16535 13.3475 7.10345 13.4457 7.06161 13.5538ZM9.85663 19.2785C9.57263 19.3911 9.26932 19.4394 8.96643 19.4203L8.67316 19.4489V14.628H8.96643C9.27102 14.6115 9.57549 14.6627 9.86015 14.778C10.1448 14.8933 10.4033 15.0703 10.619 15.2975C10.8347 15.5247 11.0027 15.797 11.1121 16.0969C11.2216 16.3968 11.2701 16.7175 11.2545 17.0384C11.269 17.3577 11.2196 17.6767 11.1093 17.9745C10.9991 18.2723 10.8306 18.5423 10.6148 18.767C10.3989 18.9917 10.1406 19.166 9.85663 19.2785ZM14.0002 13.8784C13.9976 13.7632 14.0187 13.6486 14.0622 13.5415C14.1058 13.4344 14.1708 13.337 14.2536 13.255C14.3363 13.1731 14.435 13.1083 14.5439 13.0644C14.6527 13.0206 14.7694 12.9988 14.8871 13.0001H19.4177C19.6324 13.0001 19.8384 13.0836 19.9902 13.2324C20.1421 13.3812 20.2274 13.583 20.2274 13.7934C20.2287 13.898 20.2086 14.0017 20.1684 14.0985C20.1281 14.1954 20.0685 14.2833 19.9931 14.3573C19.9176 14.4312 19.8279 14.4896 19.729 14.529C19.6302 14.5684 19.5243 14.5881 19.4177 14.5868H15.7739V16.2775H18.8971C19.0038 16.2762 19.1097 16.2959 19.2085 16.3353C19.3073 16.3747 19.3971 16.4331 19.4726 16.507C19.548 16.581 19.6076 16.6689 19.6478 16.7658C19.6881 16.8626 19.7081 16.9664 19.7068 17.0709C19.7081 17.1754 19.6881 17.2792 19.6478 17.376C19.6076 17.4728 19.548 17.5608 19.4726 17.6347C19.3971 17.7086 19.3073 17.767 19.2085 17.8065C19.1097 17.8459 19.0038 17.8655 18.8971 17.8643H15.7739V20.1594C15.7752 20.2739 15.7531 20.3874 15.709 20.4934C15.6649 20.5994 15.5996 20.6958 15.517 20.7767C15.4344 20.8576 15.3361 20.9216 15.228 20.9648C15.1198 21.008 15.0039 21.0297 14.8871 21.0284C14.7702 21.0297 14.6543 21.008 14.5462 20.9648C14.438 20.9216 14.3397 20.8576 14.2571 20.7767C14.1745 20.6958 14.1092 20.5994 14.0651 20.4934C14.021 20.3874 13.9989 20.2739 14.0002 20.1594V13.8784Z" fill="black"/>
</svg>
