<svg width="20" height="20" viewBox="0 0 20 20" fill="none" xmlns="http://www.w3.org/2000/svg">
<path fill-rule="evenodd" clip-rule="evenodd" d="M14.259 0.363037L19.714 6.14807C19.891 6.33407 20 6.58004 20 6.83704V9.104C20 9.656 19.547 10 18.994 10H18.99C18.437 10 18 9.656 18 9.104V8H13.98C12.874 8 12 7.209 12 6.104V2H2.98001C2.42701 2 2 2.552 2 3.104V9.104C2 9.656 1.54699 10 0.993992 10H0.989994C0.436994 10 3.60725e-06 9.656 3.60725e-06 9.104V2.104C3.60725e-06 1 0.874008 0 1.97901 0H13.529C13.803 0 14.07 0.164037 14.259 0.363037ZM0.0614618 12.5395C0.0197214 12.6464 -0.00115485 12.7609 5.31939e-05 12.8764V19.1331C4.67093e-05 19.2477 0.0218135 19.3612 0.0640914 19.467C0.106369 19.5728 0.168318 19.6688 0.246355 19.7494C0.324393 19.83 0.416967 19.8937 0.518719 19.9367C0.620471 19.9797 0.729381 20.0012 0.839144 19.9999C1.05929 19.9999 1.27042 19.9086 1.42609 19.7461C1.58176 19.5835 1.66921 19.363 1.66921 19.1331V17.5595H2.93236C4.63761 17.5595 6 16.5607 6 14.7326C6 13.1214 4.89926 12.0001 3.09476 12.0001H0.839144C0.728618 11.9988 0.618962 12.0206 0.516613 12.0642C0.414264 12.1078 0.321286 12.1723 0.243127 12.2539C0.164968 12.3355 0.103202 12.4327 0.0614618 12.5395ZM3.47681 15.9505C3.31819 16.0012 3.15113 16.0165 2.98649 15.9953L1.66921 16.0141V13.5925H2.95943C3.78949 13.5925 4.3128 14.0071 4.3128 14.7892C4.31024 14.9624 4.27281 15.1331 4.20292 15.2902C4.13303 15.4474 4.03226 15.5873 3.90716 15.7011C3.78206 15.8149 3.63543 15.8999 3.47681 15.9505ZM7.00005 12.8899C6.99899 12.776 7.01723 12.6629 7.05369 12.5573C7.09016 12.4516 7.14413 12.3555 7.21249 12.2745C7.28084 12.1934 7.36223 12.1291 7.45193 12.0852C7.54163 12.0413 7.63786 12.0187 7.73506 12.0188H7.89484C8.05411 12.0138 8.21171 12.0579 8.3519 12.1466C8.49209 12.2354 8.60997 12.3657 8.69377 12.5246L11.5459 16.9087V12.8525C11.5459 12.6264 11.6225 12.4096 11.7589 12.2497C11.8952 12.0898 12.0801 12 12.2729 12C12.4658 12 12.6507 12.0898 12.787 12.2497C12.9234 12.4096 13 12.6264 13 12.8525V19.1101C13.001 19.2236 12.9827 19.3362 12.9462 19.4414C12.9096 19.5465 12.8555 19.642 12.7871 19.7223C12.7186 19.8025 12.6371 19.866 12.5475 19.9089C12.4578 19.9517 12.3618 19.9732 12.265 19.9719H12.217C12.0584 19.9788 11.901 19.9366 11.7607 19.8494C11.6205 19.7622 11.5023 19.6332 11.4181 19.4754L8.46208 14.9321V19.1475C8.46208 19.2595 8.44327 19.3703 8.40674 19.4738C8.3702 19.5772 8.31665 19.6712 8.24914 19.7503C8.18163 19.8295 8.10148 19.8923 8.01327 19.9351C7.92507 19.9779 7.83053 20 7.73506 20C7.63959 20 7.54505 19.9779 7.45684 19.9351C7.36863 19.8923 7.28849 19.8295 7.22098 19.7503C7.15347 19.6712 7.09992 19.5772 7.06338 19.4738C7.02685 19.3703 7.00804 19.2595 7.00804 19.1475L7.00005 12.8899ZM13.9393 14.4705C13.7638 14.9612 13.6751 15.4876 13.6784 16.0186C13.6695 16.5442 13.7531 17.0663 13.9242 17.5532C14.0954 18.0401 14.3504 18.4816 14.6737 18.8507C14.997 19.2198 15.3819 19.5088 15.8048 19.7001C16.2278 19.8914 16.68 19.9809 17.1338 19.9633C17.9611 19.9626 18.7718 19.6944 19.4746 19.1891C19.6409 19.0855 19.7781 18.9288 19.8698 18.7377C19.9615 18.5466 20.004 18.329 19.9921 18.1108V16.2674C19.9931 16.1545 19.9747 16.0425 19.9379 15.938C19.901 15.8334 19.8465 15.7385 19.7776 15.6586C19.7086 15.5788 19.6266 15.5157 19.5362 15.4731C19.4459 15.4304 19.3492 15.4091 19.2516 15.4103H17.6274C17.5431 15.4103 17.4596 15.4297 17.3818 15.4673C17.304 15.505 17.2335 15.5601 17.1742 15.6295C17.115 15.699 17.0682 15.7813 17.0367 15.8719C17.0051 15.9624 16.9894 16.0592 16.9905 16.1568C16.9905 16.2532 17.007 16.3487 17.0391 16.4376C17.0712 16.5266 17.1183 16.6073 17.1775 16.675C17.2368 16.7427 17.307 16.7962 17.3843 16.8322C17.4615 16.8682 17.5442 16.8862 17.6274 16.885H18.6226V17.991C18.2129 18.3061 17.7291 18.467 17.2373 18.4518C16.9625 18.4562 16.6899 18.3949 16.4365 18.2718C16.1831 18.1486 15.9543 17.9663 15.7645 17.7363C15.5747 17.5062 15.428 17.2332 15.3334 16.9345C15.2389 16.6358 15.1986 16.3177 15.215 16.0002C15.1955 15.3862 15.3862 14.7882 15.7455 14.3361C16.1047 13.8839 16.6037 13.6142 17.1338 13.5854C17.6576 13.5684 18.1711 13.7568 18.5908 14.12C18.723 14.2308 18.8814 14.292 19.0446 14.2951C19.2368 14.2951 19.4211 14.2067 19.5569 14.0494C19.6928 13.8922 19.7691 13.6788 19.7691 13.4564C19.7682 13.321 19.7396 13.1877 19.6857 13.0676C19.6317 12.9474 19.5539 12.8438 19.4586 12.7652C18.7901 12.2358 17.9906 11.9737 17.1816 12.0186C16.7229 12.0075 16.267 12.103 15.8408 12.2994C15.4146 12.4958 15.0267 12.7891 14.7001 13.162C14.3735 13.5349 14.1148 13.9799 13.9393 14.4705Z" fill="black"/>
</svg>
