<svg width="20" height="20" viewBox="0 0 20 20" fill="none" xmlns="http://www.w3.org/2000/svg">
<path d="M17.3239 13.8266V6.17322C17.763 6.02023 18.1561 5.75825 18.4663 5.41183C18.7765 5.06542 18.9937 4.64591 19.0974 4.19263C19.2012 3.73935 19.1882 3.26714 19.0596 2.82027C18.931 2.37339 18.6911 1.96647 18.3623 1.63766C18.0335 1.30885 17.6266 1.06891 17.1797 0.940334C16.7328 0.811754 16.2606 0.798744 15.8073 0.902524C15.354 1.0063 14.9345 1.22347 14.5881 1.53368C14.2417 1.84389 13.9797 2.23697 13.8267 2.67609H6.17334C6.02035 2.23697 5.75837 1.84389 5.41196 1.53368C5.06554 1.22347 4.64603 1.0063 4.19275 0.902524C3.73947 0.798744 3.26727 0.811754 2.82039 0.940334C2.37351 1.06891 1.9666 1.30885 1.63779 1.63766C1.30898 1.96647 1.06904 2.37339 0.940456 2.82027C0.811876 3.26714 0.798866 3.73935 0.902646 4.19263C1.00643 4.64591 1.2236 5.06542 1.5338 5.41183C1.84401 5.75825 2.2371 6.02023 2.67622 6.17322V13.8266C2.2371 13.9796 1.84401 14.2416 1.5338 14.588C1.2236 14.9344 1.00643 15.3539 0.902646 15.8072C0.798866 16.2605 0.811876 16.7327 0.940456 17.1796C1.06904 17.6264 1.30898 18.0334 1.63779 18.3622C1.9666 18.691 2.37351 18.9309 2.82039 19.0595C3.26727 19.1881 3.73947 19.2011 4.19275 19.0973C4.64603 18.9935 5.06554 18.7764 5.41196 18.4662C5.75837 18.1559 6.02035 17.7629 6.17334 17.3237H13.8267C13.9797 17.7629 14.2417 18.1559 14.5881 18.4662C14.9345 18.7764 15.354 18.9935 15.8073 19.0973C16.2606 19.2011 16.7328 19.1881 17.1797 19.0595C17.6266 18.9309 18.0335 18.691 18.3623 18.3622C18.6911 18.0334 18.931 17.6264 19.0596 17.1796C19.1882 16.7327 19.2012 16.2605 19.0974 15.8072C18.9937 15.3539 18.7765 14.9344 18.4663 14.588C18.1561 14.2416 17.763 13.9796 17.3239 13.8266ZM16.4084 2.67609C16.5894 2.67609 16.7664 2.72979 16.917 2.83038C17.0675 2.93097 17.1849 3.07395 17.2542 3.24123C17.3235 3.40852 17.3416 3.59259 17.3063 3.77017C17.2709 3.94776 17.1838 4.11088 17.0557 4.23891C16.9277 4.36695 16.7646 4.45414 16.587 4.48946C16.4094 4.52478 16.2253 4.50665 16.058 4.43736C15.8908 4.36807 15.7478 4.25073 15.6472 4.10018C15.5466 3.94964 15.4929 3.77264 15.4929 3.59157C15.4929 3.34877 15.5894 3.11592 15.761 2.94423C15.9327 2.77255 16.1656 2.67609 16.4084 2.67609ZM3.59169 2.67609C3.77276 2.67609 3.94976 2.72979 4.10031 2.83038C4.25086 2.93097 4.3682 3.07395 4.43749 3.24123C4.50678 3.40852 4.52491 3.59259 4.48958 3.77017C4.45426 3.94776 4.36707 4.11088 4.23904 4.23891C4.111 4.36695 3.94788 4.45414 3.7703 4.48946C3.59271 4.52478 3.40864 4.50665 3.24136 4.43736C3.07407 4.36807 2.9311 4.25073 2.8305 4.10018C2.72991 3.94964 2.67622 3.77264 2.67622 3.59157C2.67622 3.34877 2.77267 3.11592 2.94435 2.94423C3.11604 2.77255 3.34889 2.67609 3.59169 2.67609ZM3.59169 17.3237C3.41063 17.3237 3.23363 17.2701 3.08308 17.1695C2.93253 17.0689 2.81519 16.9259 2.7459 16.7586C2.67661 16.5913 2.65848 16.4072 2.69381 16.2297C2.72913 16.0521 2.81632 15.889 2.94435 15.7609C3.07239 15.6329 3.23551 15.5457 3.41309 15.5104C3.59068 15.4751 3.77475 15.4932 3.94203 15.5625C4.10931 15.6318 4.25229 15.7491 4.35289 15.8997C4.45348 16.0502 4.50717 16.2272 4.50717 16.4083C4.50717 16.6511 4.41072 16.8839 4.23904 17.0556C4.06735 17.2273 3.83449 17.3237 3.59169 17.3237ZM13.8267 15.4928H6.17334C6.03665 15.1088 5.81621 14.7601 5.52802 14.4719C5.23984 14.1837 4.89112 13.9633 4.50717 13.8266V6.17322C4.89112 6.03652 5.23984 5.81609 5.52802 5.5279C5.81621 5.23971 6.03665 4.891 6.17334 4.50705H13.8267C13.9634 4.891 14.1839 5.23971 14.4721 5.5279C14.7602 5.81609 15.109 6.03652 15.4929 6.17322V13.8266C15.109 13.9633 14.7602 14.1837 14.4721 14.4719C14.1839 14.7601 13.9634 15.1088 13.8267 15.4928ZM16.4084 17.3237C16.2273 17.3237 16.0503 17.2701 15.8998 17.1695C15.7492 17.0689 15.6319 16.9259 15.5626 16.7586C15.4933 16.5913 15.4752 16.4072 15.5105 16.2297C15.5458 16.0521 15.633 15.889 15.761 15.7609C15.8891 15.6329 16.0522 15.5457 16.2298 15.5104C16.4074 15.4751 16.5914 15.4932 16.7587 15.5625C16.926 15.6318 17.069 15.7491 17.1696 15.8997C17.2702 16.0502 17.3239 16.2272 17.3239 16.4083C17.3239 16.6511 17.2274 16.8839 17.0557 17.0556C16.884 17.2273 16.6512 17.3237 16.4084 17.3237Z" fill="#362E72"/>
</svg>
