<svg width="24" height="24" viewBox="0 0 24 24" fill="none" xmlns="http://www.w3.org/2000/svg">
<path d="M19.9004 9.821C19.632 9.82823 19.3705 9.73983 19.1682 9.57343C18.9659 9.40703 18.8376 9.17485 18.809 8.92329C18.7686 8.01006 18.5067 7.11768 18.0434 6.3146C17.8274 5.98205 17.5209 5.70995 17.1558 5.52648C16.7906 5.34301 16.38 5.25486 15.9665 5.27114H14V17.5594C14 18.5424 14.7692 19.0204 15.6244 19.1355C15.8544 19.1753 16.0622 19.2901 16.2112 19.46C16.3602 19.6298 16.4408 19.8436 16.4389 20.0639C16.4367 20.3129 16.3302 20.551 16.1426 20.7263C15.955 20.9016 15.7014 21 15.4371 21H8.49773C8.23343 21 7.97985 20.9016 7.7922 20.7263C7.60456 20.551 7.49807 20.3129 7.49592 20.0639C7.49401 19.8436 7.57462 19.6298 7.7236 19.46C7.87258 19.2901 8.08037 19.1753 8.3104 19.1355C9.12488 19.0204 10 18.5424 10 17.5594V5.25578H7.94389C7.53174 5.24089 7.12283 5.32973 6.75922 5.51313C6.39561 5.69654 6.09043 5.96788 5.87511 6.29927C5.42307 7.10935 5.16192 8.00178 5.10949 8.91563C5.08083 9.16652 4.95228 9.39785 4.74976 9.56301C4.54723 9.72817 4.28579 9.81487 4.0181 9.80566C3.7444 9.79574 3.48543 9.68627 3.29559 9.50028C3.10574 9.31429 2.9998 9.06623 3 8.80821V4.02818C3 3.89316 3.02823 3.75945 3.08308 3.63471C3.13793 3.50998 3.21831 3.39664 3.31966 3.30117C3.42101 3.2057 3.54133 3.12997 3.67374 3.0783C3.80616 3.02664 3.94807 3.00003 4.0914 3.00003H19.9004C20.0444 2.99902 20.1872 3.02487 20.3206 3.07608C20.4539 3.1273 20.5752 3.20288 20.6774 3.29845C20.7796 3.39402 20.8608 3.50769 20.9161 3.63294C20.9715 3.75818 21 3.89252 21 4.02818V8.80821C21.0011 8.94347 20.9733 9.07756 20.9181 9.20244C20.863 9.32733 20.7816 9.44044 20.679 9.53501C20.5763 9.62957 20.4544 9.70365 20.3206 9.75279C20.1869 9.80193 20.0439 9.82513 19.9004 9.821Z" fill="#362E72"/>
</svg>
