<?xml version="1.0" encoding="UTF-8" standalone="no"?>
<svg
        width="20"
        height="18.860001"
        viewBox="0 0 20 18.860001"
        fill="none"
        version="1.1"
        id="svg3127"
        sodipodi:docname="underline.svg"
        inkscape:version="1.2 (56b05e47e7, 2022-06-09, custom)"
        xmlns:inkscape="http://www.inkscape.org/namespaces/inkscape"
        xmlns:sodipodi="http://sodipodi.sourceforge.net/DTD/sodipodi-0.dtd"
        xmlns="http://www.w3.org/2000/svg"
>
  <defs
     id="defs3131" />
  <sodipodi:namedview
     id="namedview3129"
     pagecolor="#ffffff"
     bordercolor="#000000"
     borderopacity="0.25"
     inkscape:showpageshadow="2"
     inkscape:pageopacity="0.0"
     inkscape:pagecheckerboard="0"
     inkscape:deskcolor="#d1d1d1"
     showgrid="false"
     inkscape:zoom="10.9375"
     inkscape:cx="-10.148571"
     inkscape:cy="33.508571"
     inkscape:window-width="1920"
     inkscape:window-height="1016"
     inkscape:window-x="1920"
     inkscape:window-y="27"
     inkscape:window-maximized="1"
     inkscape:current-layer="svg3127" />
  <path
     d="M 17.829867,40.082833 H 4.3363869 l -3.47704003,-3.477 c -0.13928,-0.1393 -0.24977,-0.3046 -0.32516,-0.4866 -0.07538,-0.182 -0.11418,-0.3771 -0.11418,-0.5741 0,-0.1969 0.0388,-0.392 0.11418,-0.574 0.07539,-0.182 0.18588,-0.3473 0.32516,-0.4866 L 11.465967,23.877913 c 0.2813,-0.2813 0.6628,-0.43934 1.0606,-0.43934 0.3979,0 0.7794,0.15804 1.0607,0.43934 l 4.2426,4.24264 c 0.1393,0.13929 0.2498,0.30465 0.3252,0.48664 0.0754,0.18199 0.1142,0.37704 0.1142,0.57402 0,0.19699 -0.0388,0.39204 -0.1142,0.57403 -0.0754,0.18199 -0.1859,0.34735 -0.3252,0.48664 l -9.8409401,9.84095"
     stroke="#000000"
     stroke-width="1.8"
     stroke-linecap="round"
     stroke-linejoin="round"
     id="path3125" />
  <rect
     style="fill:#000000;stroke-width:0"
     id="rect3548"
     width="1.7844762"
     height="9.7674055"
     x="-16.964388"
     y="27.142086"
     transform="matrix(0.81738347,-0.57609397,0.71051914,0.70367787,0,0)" />
  <path
     d="m -25.159272,33.409458 c -0.0958,-0.0798 -0.173614,-0.1804 -0.228011,-0.2945 -0.0544,-0.1141 -0.08407,-0.2392 -0.08695,-0.3664 -0.0012,-0.1084 0.01841,-0.2159 0.05767,-0.3163 0.03926,-0.1005 0.09741,-0.1919 0.171058,-0.269 0.07365,-0.077 0.161355,-0.1382 0.258023,-0.1799 0.09667,-0.0418 0.20038,-0.0633 0.305135,-0.0633 0.180079,-0.0039 0.355599,0.0588 0.494939,0.1769 0.28152,0.248 0.63808,0.3864 1.00786,0.391 0.64791,0 1.03485,-0.391 1.03485,-1.2939 v -4.2448 c 0,-0.2271 0.08723,-0.4449 0.24249,-0.6055 0.15526,-0.1606 0.36583,-0.2508 0.5854,-0.2508 0.10948,-0.0013 0.2181,0.02 0.31959,0.0624 0.10148,0.0425 0.19381,0.1054 0.27164,0.1851 0.07784,0.0796 0.13962,0.1744 0.18179,0.2789 0.04217,0.1045 0.06388,0.2167 0.06387,0.3299 v 4.3285 c 0.02376,0.38 -0.02785,0.761 -0.15165,1.1195 -0.1238,0.3586 -0.31718,0.6872 -0.56825,0.9657 -0.26419,0.2494 -0.57366,0.442 -0.91043,0.5666 -0.33677,0.1247 -0.69412,0.1789 -1.0513,0.1594 -0.72033,0.0089 -1.423079,-0.2301 -1.997733,-0.6795 z"
     fill="#000000"
     id="path3571" />
  <path
     d="m -19.474229,26.973358 c -0.0012,-0.116 0.01967,-0.231 0.06141,-0.3384 0.04174,-0.1074 0.1035,-0.205 0.18166,-0.287 0.07816,-0.082 0.17114,-0.1468 0.27349,-0.1906 0.10235,-0.0438 0.212,-0.0657 0.32253,-0.0644 h 2.25562 c 1.80454,0 2.90524,1.1265 2.90524,2.7549 0,1.8367 -1.3624,2.7929 -3.06764,2.7929 h -1.21804 v 1.5811 c 0,0.1143 -0.02147,0.2276 -0.06318,0.3333 -0.04172,0.1056 -0.10286,0.2017 -0.17994,0.2825 -0.07708,0.0809 -0.16859,0.1451 -0.26929,0.1888 -0.10071,0.0438 -0.20865,0.0663 -0.31765,0.0663 -0.10977,0.0013 -0.21868,-0.0203 -0.32043,-0.0635 -0.10175,-0.0432 -0.19433,-0.1072 -0.27236,-0.1882 -0.07804,-0.081 -0.13999,-0.1774 -0.18227,-0.2837 -0.04228,-0.1063 -0.06404,-0.2204 -0.06404,-0.3355 z m 2.98644,3.1337 c 0.16414,0.0227 0.33101,0.0088 0.48963,-0.041 0.15862,-0.0498 0.3054,-0.1343 0.43068,-0.2479 0.1253,-0.1135 0.2262,-0.2536 0.2962,-0.4111 0.07,-0.1574 0.1074,-0.3286 0.1098,-0.5023 v 0 c 0,-0.7858 -0.52331,-1.2024 -1.35337,-1.2024 h -1.24511 v 2.4331 z"
     fill="#000000"
     id="path3573" />
  <path
     d="m -12.473479,30.120858 c -0.0049,-0.5344 0.0918,-1.0644 0.2841,-1.5585 0.1924,-0.494 0.4765,-0.942 0.8356,-1.3173 0.359,-0.3753 0.7856,-0.6702 1.2543,-0.8673 0.4687999,-0.197 0.9701999,-0.2921 1.4743999,-0.2797 0.8901,-0.0466 1.7698,0.2207 2.5014,0.7601 0.104,0.0776 0.1891,0.1802 0.2484,0.2995 0.0593,0.1192 0.0911,0.2516 0.0927,0.3864 0,0.2237 -0.0838,0.4382 -0.2331,0.5964 -0.1493,0.1582 -0.3517,0.247 -0.5628,0.247 -0.1793,-0.0031 -0.3533,-0.0646 -0.4985,-0.1761 -0.4611,-0.3652 -1.0252,-0.5547 -1.6006,-0.5376 -0.5832,0.0265 -1.1326,0.2971 -1.5277999,0.7524 -0.3952,0.4552 -0.6038,1.058 -0.5801,1.6761 v 0 c -0.0181,0.3194 0.0262,0.6393 0.1301,0.9397 0.1039,0.3004 0.2651,0.5749 0.4736,0.8063 0.2084999,0.2314 0.4597999,0.4147 0.7380999,0.5385 0.2784,0.1238 0.5779,0.1855 0.8798,0.1811 0.5407,0.0196 1.0734,-0.1426 1.5218,-0.4635 v -1.1123 h -1.0932 c -0.0915,0.0013 -0.1823,-0.0168 -0.2672,-0.053 -0.0848,-0.0363 -0.162,-0.09 -0.2271,-0.1581 -0.0651,-0.0682 -0.1168,-0.1493 -0.152,-0.2387 -0.0353,-0.0895 -0.0535,-0.1855 -0.0535,-0.2824 0,-0.0974 0.0181,-0.1938 0.0533,-0.2838 0.0352,-0.0899 0.0867,-0.1717 0.1517,-0.2406 0.065,-0.0688 0.1421,-0.1234 0.227,-0.1607 0.0849,-0.0372 0.1759,-0.0564 0.2678,-0.0564 h 1.8454 c 0.1068,-0.0025 0.2129,0.0178 0.312,0.0596 0.0992,0.0419 0.1894,0.1044 0.2653,0.184 0.0759,0.0796 0.1359,0.1745 0.1765,0.2791 0.0406,0.1047 0.0608,0.2169 0.0596,0.33 v 1.8538 c 0.0131,0.2195 -0.0335,0.4383 -0.1343,0.6305 -0.1008,0.1922 -0.2514,0.3498 -0.4342,0.454 -0.7725,0.5068 -1.6628,0.7764 -2.5714,0.7786 -0.5036,0.0268 -1.007,-0.0565 -1.4788999,-0.2448 -0.4718,-0.1883 -0.9021,-0.4775 -1.2639,-0.8497 -0.3619,-0.3721 -0.6475,-0.8192 -0.8392,-1.3134 -0.1917,-0.4943 -0.2854,-1.025 -0.2751,-1.5592 z"
     fill="#000000"
     id="path3575" />
  <path
     fill-rule="evenodd"
     clip-rule="evenodd"
     d="m -5.7602791,20.240928 -5.4549999,-5.785033 c -0.189,-0.199 -0.456,-0.363037 -0.73,-0.363037 h -11.55 c -1.104996,0 -1.979,1 -1.979,2.104 v 7 c 0,0.552 0.43699,0.896 0.98999,0.896 h 0.004 c 0.553002,0 1.006012,-0.344 1.006012,-0.896 v -6 c 0,-0.552 0.42701,-1.104 0.98001,-1.104 h 9.01999 v 4.104 c 0,1.105 0.874,1.896 1.98,1.896 h 4.0199999 v 1.104 c 0,0.552 0.437,0.896 0.99,0.896 h 0.004 c 0.553,0 1.006,-0.344 1.006,-0.896 v -2.26696 c 0,-0.257 -0.109,-0.50297 -0.286,-0.68897 z"
     fill="#000000"
     id="path3577" />
  <path
     d="m -44.316003,19.467197 -8.940001,-8.94 -1.41,1.41 2.38,2.38 -5.15,5.15 c -0.59,0.59 -0.59,1.54 0,2.12 l 5.5,5.5 c 0.29,0.29 0.68,0.44 1.06,0.44 0.38,0 0.77,-0.15 1.06,-0.44 l 5.500001,-5.5 c 0.59,-0.58 0.59,-1.53 0,-2.12 z m -11.350001,1.06 4.79,-4.79 4.790001,4.79 z m 13.790001,1.5 c 0,0 -2,2.17 -2,3.5 0,1.1 0.9,2 2,2 1.1,0 2,-0.9 2,-2 0,-1.33 -2,-3.5 -2,-3.5 z m -17.071474,6.582087 c 22.267813,-13.622892 11.133906,-6.811446 0,0 z"
     fill="#000000"
     id="path3614"
     sodipodi:nodetypes="scccscssscscccccsssccc" />
  <rect
     style="fill:#000000;stroke-width:0"
     id="rect3623"
     width="30.008259"
     height="10.257031"
     x="-50.877163"
     y="45.916119" />
  <path
     d="m 49.904243,15.378731 -8.940001,-8.9399999 -1.41,1.41 2.380001,2.3799999 -5.150001,5.15 c -0.59,0.59 -0.59,1.54 0,2.12 l 5.500001,5.5 c 0.29,0.29 0.68,0.44 1.06,0.44 0.38,0 0.77,-0.15 1.06,-0.44 l 5.5,-5.5 c 0.59,-0.58 0.59,-1.53 0,-2.12 z m -11.350001,1.06 4.790001,-4.79 4.79,4.79 z m 13.790001,1.5 c 0,0 -2,2.17 -2,3.5 0,1.1 0.9,2 2,2 1.1,0 2,-0.9 2,-2 0,-1.33 -2,-3.5 -2,-3.5 z m -17.000001,8.5 h 20.000001 v 4 H 35.344242 Z"
     fill="#000000"
     id="path3625" />
  <path
     d="m -25.159272,33.409458 c -0.0958,-0.0798 -0.173614,-0.1804 -0.228011,-0.2945 -0.0544,-0.1141 -0.08407,-0.2392 -0.08695,-0.3664 -0.0012,-0.1084 0.01841,-0.2159 0.05767,-0.3163 0.03926,-0.1005 0.09741,-0.1919 0.171058,-0.269 0.07365,-0.077 0.161355,-0.1382 0.258023,-0.1799 0.09667,-0.0418 0.20038,-0.0633 0.305135,-0.0633 0.180079,-0.0039 0.355599,0.0588 0.494939,0.1769 0.28152,0.248 0.63808,0.3864 1.00786,0.391 0.64791,0 1.03485,-0.391 1.03485,-1.2939 v -4.2448 c 0,-0.2271 0.08723,-0.4449 0.24249,-0.6055 0.15526,-0.1606 0.36583,-0.2508 0.5854,-0.2508 0.10948,-0.0013 0.2181,0.02 0.31959,0.0624 0.10148,0.0425 0.19381,0.1054 0.27164,0.1851 0.07784,0.0796 0.13962,0.1744 0.18179,0.2789 0.04217,0.1045 0.06388,0.2167 0.06387,0.3299 v 4.3285 c 0.02376,0.38 -0.02785,0.761 -0.15165,1.1195 -0.1238,0.3586 -0.31718,0.6872 -0.56825,0.9657 -0.26419,0.2494 -0.57366,0.442 -0.91043,0.5666 -0.33677,0.1247 -0.69412,0.1789 -1.0513,0.1594 -0.72033,0.0089 -1.423079,-0.2301 -1.997733,-0.6795 z"
     fill="#000000"
     id="path3762" />
  <path
     d="m -19.474229,26.973358 c -0.0012,-0.116 0.01967,-0.231 0.06141,-0.3384 0.04174,-0.1074 0.1035,-0.205 0.18166,-0.287 0.07816,-0.082 0.17114,-0.1468 0.27349,-0.1906 0.10235,-0.0438 0.212,-0.0657 0.32253,-0.0644 h 2.25562 c 1.80454,0 2.90524,1.1265 2.90524,2.7549 0,1.8367 -1.3624,2.7929 -3.06764,2.7929 h -1.21804 v 1.5811 c 0,0.1143 -0.02147,0.2276 -0.06318,0.3333 -0.04172,0.1056 -0.10286,0.2017 -0.17994,0.2825 -0.07708,0.0809 -0.16859,0.1451 -0.26929,0.1888 -0.10071,0.0438 -0.20865,0.0663 -0.31765,0.0663 -0.10977,0.0013 -0.21868,-0.0203 -0.32043,-0.0635 -0.10175,-0.0432 -0.19433,-0.1072 -0.27236,-0.1882 -0.07804,-0.081 -0.13999,-0.1774 -0.18227,-0.2837 -0.04228,-0.1063 -0.06404,-0.2204 -0.06404,-0.3355 z m 2.98644,3.1337 c 0.16414,0.0227 0.33101,0.0088 0.48963,-0.041 0.15862,-0.0498 0.3054,-0.1343 0.43068,-0.2479 0.1253,-0.1135 0.2262,-0.2536 0.2962,-0.4111 0.07,-0.1574 0.1074,-0.3286 0.1098,-0.5023 v 0 c 0,-0.7858 -0.52331,-1.2024 -1.35337,-1.2024 h -1.24511 v 2.4331 z"
     fill="#000000"
     id="path3764" />
  <path
     d="m -12.473479,30.120858 c -0.0049,-0.5344 0.0918,-1.0644 0.2841,-1.5585 0.1924,-0.494 0.4765,-0.942 0.8356,-1.3173 0.359,-0.3753 0.7856,-0.6702 1.2543,-0.8673 0.4687999,-0.197 0.9701999,-0.2921 1.4743999,-0.2797 0.8901,-0.0466 1.7698,0.2207 2.5014,0.7601 0.104,0.0776 0.1891,0.1802 0.2484,0.2995 0.0593,0.1192 0.0911,0.2516 0.0927,0.3864 0,0.2237 -0.0838,0.4382 -0.2331,0.5964 -0.1493,0.1582 -0.3517,0.247 -0.5628,0.247 -0.1793,-0.0031 -0.3533,-0.0646 -0.4985,-0.1761 -0.4611,-0.3652 -1.0252,-0.5547 -1.6006,-0.5376 -0.5832,0.0265 -1.1326,0.2971 -1.5277999,0.7524 -0.3952,0.4552 -0.6038,1.058 -0.5801,1.6761 v 0 c -0.0181,0.3194 0.0262,0.6393 0.1301,0.9397 0.1039,0.3004 0.2651,0.5749 0.4736,0.8063 0.2084999,0.2314 0.4597999,0.4147 0.7380999,0.5385 0.2784,0.1238 0.5779,0.1855 0.8798,0.1811 0.5407,0.0196 1.0734,-0.1426 1.5218,-0.4635 v -1.1123 h -1.0932 c -0.0915,0.0013 -0.1823,-0.0168 -0.2672,-0.053 -0.0848,-0.0363 -0.162,-0.09 -0.2271,-0.1581 -0.0651,-0.0682 -0.1168,-0.1493 -0.152,-0.2387 -0.0353,-0.0895 -0.0535,-0.1855 -0.0535,-0.2824 0,-0.0974 0.0181,-0.1938 0.0533,-0.2838 0.0352,-0.0899 0.0867,-0.1717 0.1517,-0.2406 0.065,-0.0688 0.1421,-0.1234 0.227,-0.1607 0.0849,-0.0372 0.1759,-0.0564 0.2678,-0.0564 h 1.8454 c 0.1068,-0.0025 0.2129,0.0178 0.312,0.0596 0.0992,0.0419 0.1894,0.1044 0.2653,0.184 0.0759,0.0796 0.1359,0.1745 0.1765,0.2791 0.0406,0.1047 0.0608,0.2169 0.0596,0.33 v 1.8538 c 0.0131,0.2195 -0.0335,0.4383 -0.1343,0.6305 -0.1008,0.1922 -0.2514,0.3498 -0.4342,0.454 -0.7725,0.5068 -1.6628,0.7764 -2.5714,0.7786 -0.5036,0.0268 -1.007,-0.0565 -1.4788999,-0.2448 -0.4718,-0.1883 -0.9021,-0.4775 -1.2639,-0.8497 -0.3619,-0.3721 -0.6475,-0.8192 -0.8392,-1.3134 -0.1917,-0.4943 -0.2854,-1.025 -0.2751,-1.5592 z"
     fill="#000000"
     id="path3766" />
  <path
     fill-rule="evenodd"
     clip-rule="evenodd"
     d="m -5.7602791,20.240928 -5.4549999,-5.785033 c -0.189,-0.199 -0.456,-0.363037 -0.73,-0.363037 h -11.55 c -1.104996,0 -1.979,1 -1.979,2.104 v 7 c 0,0.552 0.43699,0.896 0.98999,0.896 h 0.004 c 0.553002,0 1.006012,-0.344 1.006012,-0.896 v -6 c 0,-0.552 0.42701,-1.104 0.98001,-1.104 h 9.01999 v 4.104 c 0,1.105 0.874,1.896 1.98,1.896 h 4.0199999 v 1.104 c 0,0.552 0.437,0.896 0.99,0.896 h 0.004 c 0.553,0 1.006,-0.344 1.006,-0.896 v -2.26696 c 0,-0.257 -0.109,-0.50297 -0.286,-0.68897 z"
     fill="#000000"
     id="path3768" />
  <path
     d="m 10.268401,15.020001 c -2.0267101,0 -3.5333701,-0.5067 -4.5200401,-1.52 -0.98667,-1.0133 -1.48,-2.6067 -1.48,-4.7799996 V 1.500001 l -1.32,-0.26 V 0 h 6.04 v 1.240001 l -1.7,0.28 v 7.4600004 c 0,3.1732996 1.12667,4.7599996 3.3800401,4.7599996 1.1066,0 1.9266,-0.4067 2.46,-1.22 0.5333,-0.8267 0.8,-1.98 0.8,-3.4599996 V 1.520001 l -1.72,-0.28 V 0 h 5 v 1.240001 l -1.36,0.26 v 7.4000004 c 0,2.0799996 -0.5067,3.6199996 -1.52,4.6199996 -1,1 -2.3534,1.5 -4.06,1.5 z"
     fill="#2a292f"
     id="path3786" />
  <line
     x1="1"
     y1="17.860001"
     x2="19"
     y2="17.860001"
     stroke="#2a292f"
     stroke-width="2"
     stroke-linecap="round"
     id="line3788" />
</svg>
