<svg width="20" height="20" viewBox="0 0 20 20" fill="none" xmlns="http://www.w3.org/2000/svg">
<path d="M17.9169 9.44229C17.6575 8.81732 17.2752 8.25087 16.7925 7.77664C16.3154 7.29755 15.7497 6.91571 15.1269 6.65231C14.4967 6.38758 13.8199 6.25165 13.1364 6.25255H4.50835L6.84026 3.92898C6.91832 3.85156 6.98028 3.75943 7.02256 3.65795C7.06484 3.55646 7.08662 3.4476 7.08662 3.33766C7.08662 3.22771 7.06484 3.11888 7.02256 3.01739C6.98028 2.9159 6.91832 2.82378 6.84026 2.74636C6.76284 2.6683 6.67073 2.60633 6.56924 2.56405C6.46775 2.52177 6.35891 2.5 6.24896 2.5C6.13902 2.5 6.03016 2.52177 5.92867 2.56405C5.82719 2.60633 5.73507 2.6683 5.65765 2.74636L1.90993 6.49408C1.83411 6.57328 1.77468 6.66667 1.73505 6.7689C1.68996 6.86831 1.66663 6.97621 1.66663 7.08537C1.66663 7.19454 1.68996 7.30244 1.73505 7.40185C1.77722 7.50278 1.83637 7.59575 1.90993 7.6767L5.65765 11.4244C5.73547 11.5016 5.82776 11.5627 5.92923 11.6041C6.0307 11.6456 6.13936 11.6666 6.24896 11.6659C6.35857 11.6666 6.46721 11.6456 6.56868 11.6041C6.67015 11.5627 6.76244 11.5016 6.84026 11.4244C6.91832 11.347 6.98028 11.2549 7.02256 11.1534C7.06484 11.0519 7.08662 10.943 7.08662 10.8331C7.08662 10.7232 7.06484 10.6143 7.02256 10.5128C6.98028 10.4113 6.91832 10.3192 6.84026 10.2418L4.50835 7.9182H13.1198C13.5826 7.91797 14.041 8.00852 14.469 8.18471C14.8978 8.36367 15.2881 8.62385 15.6183 8.95092C15.9486 9.28007 16.2117 9.67043 16.3928 10.1002C16.5682 10.5313 16.6587 10.9923 16.6593 11.4577C16.6609 11.9225 16.5697 12.3829 16.3909 12.812C16.2121 13.241 15.9494 13.6301 15.6183 13.9562C15.2921 14.2874 14.9031 14.5501 14.4741 14.7288C14.045 14.9076 13.5846 14.9988 13.1198 14.9972H6.25729C6.03641 14.9972 5.82457 15.085 5.66839 15.2412C5.5122 15.3974 5.42446 15.6092 5.42446 15.8301C5.42446 16.0509 5.5122 16.2628 5.66839 16.419C5.82457 16.5751 6.03641 16.6629 6.25729 16.6629H13.1281C13.812 16.6648 14.4894 16.5312 15.1213 16.2695C15.7532 16.0079 16.3269 15.6236 16.8092 15.1388C17.294 14.6565 17.6783 14.0828 17.9399 13.4509C18.2015 12.8191 18.3352 12.1416 18.3333 11.4577C18.3332 10.7646 18.1915 10.0787 17.9169 9.44229Z" fill="#362E72"/>
</svg>
