<svg width="20" height="20" viewBox="0 0 20 20" fill="none" xmlns="http://www.w3.org/2000/svg">
<path d="M3.33337 13.3332V18.3332H16.6667V13.3332C16.6667 12.4165 15.9167 11.6665 15 11.6665H5.00004C4.08337 11.6665 3.33337 12.4165 3.33337 13.3332ZM15 14.9998H5.00004V13.3332H15V14.9998ZM10 1.6665C7.70004 1.6665 5.83337 3.53317 5.83337 5.83317C5.83337 8.13317 10 13.3332 10 13.3332C10 13.3332 14.1667 8.13317 14.1667 5.83317C14.1667 3.53317 12.3 1.6665 10 1.6665ZM10 10.8332C10 10.8332 7.50004 7.2165 7.50004 5.83317C7.50004 4.44984 8.61671 3.33317 10 3.33317C11.3834 3.33317 12.5 4.44984 12.5 5.83317C12.5 7.2165 10 10.8332 10 10.8332Z" fill="#362E72"/>
</svg>
