<svg width="14" height="14" viewBox="0 0 14 14" fill="none" xmlns="http://www.w3.org/2000/svg">
<path d="M7.01871 0.333313C6.14323 0.333313 5.27632 0.505751 4.46749 0.840783C3.65865 1.17581 2.92372 1.66688 2.30466 2.28593C1.05442 3.53618 0.352043 5.23187 0.352043 6.99998C0.346215 8.5394 0.879238 10.0323 1.85871 11.22L0.525376 12.5533C0.432871 12.6471 0.370207 12.7661 0.345291 12.8954C0.320375 13.0248 0.334323 13.1586 0.385376 13.28C0.440748 13.3999 0.530512 13.5007 0.643274 13.5696C0.756036 13.6384 0.88671 13.6722 1.01871 13.6666H7.01871C8.78682 13.6666 10.4825 12.9643 11.7328 11.714C12.983 10.4638 13.6854 8.76809 13.6854 6.99998C13.6854 5.23187 12.983 3.53618 11.7328 2.28593C10.4825 1.03569 8.78682 0.333313 7.01871 0.333313ZM7.01871 12.3333H2.62538L3.24538 11.7133C3.36954 11.5884 3.43924 11.4194 3.43924 11.2433C3.43924 11.0672 3.36954 10.8982 3.24538 10.7733C2.37243 9.90134 1.82883 8.75367 1.70717 7.52584C1.58551 6.29801 1.89334 5.06598 2.57819 4.03966C3.26305 3.01334 4.28257 2.25622 5.46305 1.89729C6.64354 1.53837 7.91195 1.59985 9.05219 2.07126C10.1924 2.54266 11.1339 3.39483 11.7163 4.48257C12.2987 5.57032 12.486 6.82634 12.2461 8.03665C12.0063 9.24696 11.3542 10.3367 10.4011 11.1201C9.44789 11.9036 8.25255 12.3323 7.01871 12.3333Z" fill="#636366"/>
</svg>
