<svg width="17" height="20" viewBox="0 0 17 20" fill="none" xmlns="http://www.w3.org/2000/svg">
<path d="M6.61111 16C6.86159 16 7.10182 15.8946 7.27893 15.7071C7.45605 15.5196 7.55556 15.2652 7.55556 15V9C7.55556 8.73478 7.45605 8.48043 7.27893 8.29289C7.10182 8.10536 6.86159 8 6.61111 8C6.36063 8 6.12041 8.10536 5.94329 8.29289C5.76617 8.48043 5.66667 8.73478 5.66667 9V15C5.66667 15.2652 5.76617 15.5196 5.94329 15.7071C6.12041 15.8946 6.36063 16 6.61111 16ZM16.0556 4H12.2778V3C12.2778 2.20435 11.9793 1.44129 11.4479 0.87868C10.9166 0.316071 10.1959 0 9.44444 0H7.55556C6.80411 0 6.08344 0.316071 5.55209 0.87868C5.02073 1.44129 4.72222 2.20435 4.72222 3V4H0.944444C0.693962 4 0.453739 4.10536 0.276621 4.29289C0.0995036 4.48043 0 4.73478 0 5C0 5.26522 0.0995036 5.51957 0.276621 5.70711C0.453739 5.89464 0.693962 6 0.944444 6H1.88889V17C1.88889 17.7956 2.1874 18.5587 2.71875 19.1213C3.25011 19.6839 3.97078 20 4.72222 20H12.2778C13.0292 20 13.7499 19.6839 14.2812 19.1213C14.8126 18.5587 15.1111 17.7956 15.1111 17V6H16.0556C16.306 6 16.5463 5.89464 16.7234 5.70711C16.9005 5.51957 17 5.26522 17 5C17 4.73478 16.9005 4.48043 16.7234 4.29289C16.5463 4.10536 16.306 4 16.0556 4ZM6.61111 3C6.61111 2.73478 6.71061 2.48043 6.88773 2.29289C7.06485 2.10536 7.30507 2 7.55556 2H9.44444C9.69493 2 9.93515 2.10536 10.1123 2.29289C10.2894 2.48043 10.3889 2.73478 10.3889 3V4H6.61111V3ZM13.2222 17C13.2222 17.2652 13.1227 17.5196 12.9456 17.7071C12.7685 17.8946 12.5283 18 12.2778 18H4.72222C4.47174 18 4.23152 17.8946 4.0544 17.7071C3.87728 17.5196 3.77778 17.2652 3.77778 17V6H13.2222V17ZM10.3889 16C10.6394 16 10.8796 15.8946 11.0567 15.7071C11.2338 15.5196 11.3333 15.2652 11.3333 15V9C11.3333 8.73478 11.2338 8.48043 11.0567 8.29289C10.8796 8.10536 10.6394 8 10.3889 8C10.1384 8 9.89818 8.10536 9.72107 8.29289C9.54395 8.48043 9.44444 8.73478 9.44444 9V15C9.44444 15.2652 9.54395 15.5196 9.72107 15.7071C9.89818 15.8946 10.1384 16 10.3889 16Z" fill="#D1322B"/>
</svg>
