<svg width="18" height="18" viewBox="0 0 18 18" fill="none" xmlns="http://www.w3.org/2000/svg">
<path d="M15.1202 3.74988C14.3252 2.95279 13.2713 2.46628 12.149 2.37826C11.0266 2.29023 9.90978 2.60648 9.00021 3.26988C8.04595 2.56011 6.8582 2.23826 5.67615 2.36916C4.49409 2.50005 3.40554 3.07396 2.62969 3.97532C1.85384 4.87667 1.44832 6.03852 1.49481 7.22689C1.54129 8.41526 2.03632 9.54188 2.88021 10.3799L7.53771 15.0449C7.92772 15.4287 8.453 15.6438 9.00021 15.6438C9.54742 15.6438 10.0727 15.4287 10.4627 15.0449L15.1202 10.3799C15.9959 9.49883 16.4874 8.30709 16.4874 7.06488C16.4874 5.82267 15.9959 4.63093 15.1202 3.74988ZM14.0627 9.34488L9.40521 14.0024C9.35221 14.0559 9.28913 14.0984 9.21961 14.1274C9.1501 14.1564 9.07552 14.1713 9.00021 14.1713C8.92489 14.1713 8.85032 14.1564 8.7808 14.1274C8.71129 14.0984 8.64821 14.0559 8.59521 14.0024L3.93771 9.32238C3.34952 8.72114 3.02016 7.91348 3.02016 7.07238C3.02016 6.23128 3.34952 5.42362 3.93771 4.82238C4.53707 4.23062 5.34544 3.89881 6.18771 3.89881C7.02998 3.89881 7.83834 4.23062 8.43771 4.82238C8.50743 4.89268 8.59038 4.94847 8.68177 4.98655C8.77317 5.02463 8.8712 5.04423 8.97021 5.04423C9.06921 5.04423 9.16724 5.02463 9.25864 4.98655C9.35003 4.94847 9.43298 4.89268 9.50271 4.82238C10.1021 4.23062 10.9104 3.89881 11.7527 3.89881C12.595 3.89881 13.4033 4.23062 14.0027 4.82238C14.599 5.41574 14.9391 6.21902 14.9504 7.06014C14.9616 7.90127 14.6429 8.71333 14.0627 9.32238V9.34488Z" fill="#6E6E6E"/>
</svg>
