<svg width="20" height="20" viewBox="0 0 20 20" fill="none" xmlns="http://www.w3.org/2000/svg">
<path fill-rule="evenodd" clip-rule="evenodd" d="M20 10V16.4516C20 18.4079 18.4082 20 16.4516 20H3.54839C1.5918 20 0 18.4079 0 16.4516V10V3.54839C0 1.59211 1.5918 0 3.54839 0H10H16.4516C18.4079 0 20 1.5918 20 3.54839V10ZM10 1.93548C9.99984 1.93548 9.99968 1.93548 9.99951 1.93548H3.54839C2.65908 1.93548 1.93548 2.65877 1.93548 3.54839V10V16.4516C1.93548 17.3412 2.65908 18.0645 3.54839 18.0645H16.4516C17.3409 18.0645 18.0645 17.3412 18.0645 16.4516V10V3.54839C18.0645 2.65908 17.3412 1.93548 16.4516 1.93548L10 1.93548Z" fill="#d8d8d8"/>
</svg>
