<svg width="34" height="12" viewBox="0 0 34 12" fill="none" xmlns="http://www.w3.org/2000/svg">
<path opacity="0.4" d="M3.58887 7.28809H0.25293V6.25586H3.58887V7.28809ZM16.2933 6.34473C16.2933 7.31999 16.1293 8.1722 15.8011 8.90137C15.473 9.62598 15.0082 10.1797 14.4066 10.5625C13.805 10.9453 13.1032 11.1367 12.3011 11.1367C11.5173 11.1367 10.8223 10.9453 10.2162 10.5625C9.61005 10.1751 9.13837 9.62598 8.80113 8.91504C8.46845 8.19954 8.29755 7.3724 8.28844 6.43359V5.71582C8.28844 4.75879 8.45478 3.91341 8.78746 3.17969C9.12014 2.44596 9.58954 1.88542 10.1957 1.49805C10.8063 1.10612 11.5036 0.910156 12.2875 0.910156C13.085 0.910156 13.7868 1.10384 14.3929 1.49121C15.0036 1.87402 15.473 2.43229 15.8011 3.16602C16.1293 3.89518 16.2933 4.74512 16.2933 5.71582V6.34473ZM14.9877 5.70215C14.9877 4.52181 14.7507 3.61719 14.2767 2.98828C13.8028 2.35482 13.1397 2.03809 12.2875 2.03809C11.458 2.03809 10.8041 2.35482 10.3255 2.98828C9.85159 3.61719 9.60777 4.49219 9.5941 5.61328V6.34473C9.5941 7.48861 9.83336 8.38867 10.3119 9.04492C10.7949 9.69661 11.458 10.0225 12.3011 10.0225C13.1488 10.0225 13.805 9.71484 14.2699 9.09961C14.7347 8.47982 14.974 7.59342 14.9877 6.44043V5.70215ZM21.9825 6.97363H19.6446V11H18.3252V1.04688H21.6202C22.7412 1.04688 23.6026 1.30208 24.2041 1.8125C24.8103 2.32292 25.1133 3.06576 25.1133 4.04102C25.1133 4.66081 24.9447 5.20085 24.6075 5.66113C24.2748 6.12142 23.8099 6.46549 23.2129 6.69336L25.5508 10.918V11H24.1426L21.9825 6.97363ZM19.6446 5.90039H21.6612C22.3129 5.90039 22.8301 5.73177 23.2129 5.39453C23.6003 5.05729 23.794 4.60612 23.794 4.04102C23.794 3.42578 23.6094 2.9541 23.2403 2.62598C22.8757 2.29785 22.347 2.13151 21.6543 2.12695H19.6446V5.90039ZM33.0053 7.28809H29.6693V6.25586H33.0053V7.28809Z" fill="#6E6E6E"/>
</svg>
