<svg width="24" height="24" viewBox="0 0 24 24" fill="none" xmlns="http://www.w3.org/2000/svg">
<path d="M13 6H15V8H13V6ZM17 6H19V8H17V6ZM13 10H15V12H13V10ZM17 10H19V12H17V10ZM21 2H11C10.47 2 9.96 2.21 9.59 2.59C9.21 2.97 9 3.47 9 4V6H3C2.47 6 1.96 6.21 1.59 6.59C1.21 6.97 1 7.47 1 8V20C1 20.53 1.21 21.04 1.59 21.41C1.97 21.79 2.47 22 3 22H21C21.53 22 22.04 21.79 22.41 21.41C22.79 21.03 23 20.53 23 20V4C23 3.47 22.79 2.96 22.41 2.59C22.03 2.21 21.53 2 21 2ZM3 20V8H9V20H3ZM17 20H15V16H17V20ZM21 20H19V14H13V20H11V4H21V20ZM4.98 9.95H6.98V11.95H4.98V9.95ZM4.98 13.95H6.98V15.95H4.98V13.95Z" fill="currentColor"/>
</svg>
