<svg width="20" height="20" viewBox="0 0 20 20" color="#5B4DBE" fill="none" xmlns="http://www.w3.org/2000/svg">
<path d="M19.1796 3.95198C18.4592 3.83192 17.7389 3.76188 17.0085 3.76188C14.5273 3.76188 12.096 4.47224 10.005 5.8029C7.91396 4.48224 5.48274 3.7919 3.0015 3.81191C2.27114 3.81191 1.55078 3.88194 0.830415 4.002C0.6003 4.04202 0.38019 4.16208 0.230115 4.35218C0.08004 4.53227 0 4.76238 0 5.0025V16.9685C0 17.1186 0.030015 17.2586 0.090045 17.3887C0.150075 17.5188 0.24012 17.6388 0.350175 17.7389C0.46023 17.8389 0.590295 17.8989 0.730365 17.939C0.870435 17.979 1.02051 17.989 1.17059 17.959C2.6013 17.7089 4.07204 17.7489 5.49275 18.079C6.91346 18.4092 8.24412 19.0095 9.42471 19.8599L9.54477 19.93H9.65483C9.76488 19.98 9.88494 20 10.005 20C10.1251 20 10.2451 19.98 10.3552 19.93H10.4652L10.5853 19.8599C11.7559 18.9895 13.0865 18.3692 14.5073 18.019C15.928 17.6688 17.3987 17.6188 18.8394 17.8489C18.9795 17.8689 19.1296 17.8689 19.2696 17.8289C19.4097 17.7889 19.5398 17.7189 19.6498 17.6288C19.7599 17.5288 19.8499 17.4187 19.91 17.2786C19.97 17.1486 20 16.9985 20 16.8584V4.89245C19.99 4.66233 19.8999 4.45223 19.7499 4.28214C19.5998 4.11206 19.3897 4.002 19.1696 3.96198L19.1796 3.95198ZM9.0045 17.1986C7.15358 16.2281 5.09255 15.7179 3.0015 15.7279H2.001V5.76288C2.33117 5.74287 2.67134 5.74287 3.0015 5.76288C5.13257 5.76288 7.22361 6.38319 9.0045 7.55378V17.2086V17.1986ZM18.009 15.7579H17.0085C14.9175 15.7579 12.8564 16.2581 11.0055 17.2286V7.55378C12.7864 6.38319 14.8774 5.75288 17.0085 5.76288C17.3387 5.74287 17.6788 5.74287 18.009 5.76288V15.7779V15.7579ZM17.0085 0C14.5273 0 12.096 0.710355 10.005 2.05103C7.91396 0.710355 5.48274 0 3.0015 0C2.8014 0 2.61131 0 2.41121 0.02001C1.88094 0.050025 1.46073 0.48024 1.46073 1.01051C1.46073 1.57079 1.92096 2.02101 2.48124 1.991C3.49175 1.94097 4.50225 2.02101 5.48274 2.25113C6.90345 2.58129 8.23412 3.18159 9.41471 4.03202C9.58479 4.15208 9.78489 4.22211 9.995 4.22211C10.2051 4.22211 10.4052 4.16208 10.5753 4.03202C11.7559 3.18159 13.0965 2.57129 14.5073 2.25113C15.4977 2.02101 16.4982 1.94097 17.5088 1.991C18.069 2.02101 18.5293 1.57079 18.5293 1.01051C18.5293 0.48024 18.1091 0.050025 17.5788 0.02001C17.3787 0.010005 17.1886 0 16.9885 0L17.0085 0Z" fill="currentColor"/>
</svg>
