<svg width="21" height="12" viewBox="0 0 21 12" fill="none" xmlns="http://www.w3.org/2000/svg" color="#5B4DBE">
<path d="M20.03 1.15C19.878 1.06223 19.7055 1.01603 19.53 1.01603C19.3545 1.01603 19.182 1.06223 19.03 1.15L15.5 2.89C15.4715 2.11357 15.1429 1.37847 14.5834 0.839439C14.0238 0.300405 13.277 -0.000521775 12.5 6.79157e-07H3.5C2.70435 6.79157e-07 1.94129 0.316071 1.37868 0.87868C0.816071 1.44129 0.5 2.20435 0.5 3V9C0.5 9.79565 0.816071 10.5587 1.37868 11.1213C1.94129 11.6839 2.70435 12 3.5 12H12.5C13.277 12.0005 14.0238 11.6996 14.5834 11.1606C15.1429 10.6215 15.4715 9.88643 15.5 9.11L19.06 10.89C19.1963 10.9599 19.3468 10.9975 19.5 11C19.6872 11.0006 19.8709 10.9486 20.03 10.85C20.1741 10.7599 20.2929 10.6346 20.3751 10.4859C20.4574 10.3372 20.5003 10.1699 20.5 10V2C20.5003 1.83006 20.4574 1.66283 20.3751 1.51411C20.2929 1.36538 20.1741 1.24007 20.03 1.15ZM13.5 9C13.5 9.26522 13.3946 9.51957 13.2071 9.70711C13.0196 9.89464 12.7652 10 12.5 10H3.5C3.23478 10 2.98043 9.89464 2.79289 9.70711C2.60536 9.51957 2.5 9.26522 2.5 9V3C2.5 2.73478 2.60536 2.48043 2.79289 2.29289C2.98043 2.10536 3.23478 2 3.5 2H12.5C12.7652 2 13.0196 2.10536 13.2071 2.29289C13.3946 2.48043 13.5 2.73478 13.5 3V9ZM18.5 8.38L15.5 6.88V5.12L18.5 3.62V8.38Z" fill="currentColor"/>
</svg>
