<svg color="#1C1C1E" width="21" height="20" viewBox="0 0 21 20" fill="none" xmlns="http://www.w3.org/2000/svg">
<path d="M19.5 12C19.2348 12 18.9804 12.1054 18.7929 12.2929C18.6054 12.4804 18.5 12.7348 18.5 13V17C18.5 17.2652 18.3946 17.5196 18.2071 17.7071C18.0196 17.8946 17.7652 18 17.5 18H3.5C3.23478 18 2.98043 17.8946 2.79289 17.7071C2.60536 17.5196 2.5 17.2652 2.5 17V13C2.5 12.7348 2.39464 12.4804 2.20711 12.2929C2.01957 12.1054 1.76522 12 1.5 12C1.23478 12 0.98043 12.1054 0.792893 12.2929C0.605357 12.4804 0.5 12.7348 0.5 13V17C0.5 17.7956 0.816071 18.5587 1.37868 19.1213C1.94129 19.6839 2.70435 20 3.5 20H17.5C18.2956 20 19.0587 19.6839 19.6213 19.1213C20.1839 18.5587 20.5 17.7956 20.5 17V13C20.5 12.7348 20.3946 12.4804 20.2071 12.2929C20.0196 12.1054 19.7652 12 19.5 12ZM9.79 13.71C9.8851 13.801 9.99725 13.8724 10.12 13.92C10.2397 13.9729 10.3691 14.0002 10.5 14.0002C10.6309 14.0002 10.7603 13.9729 10.88 13.92C11.0028 13.8724 11.1149 13.801 11.21 13.71L15.21 9.71C15.3983 9.5217 15.5041 9.2663 15.5041 9C15.5041 8.7337 15.3983 8.4783 15.21 8.29C15.0217 8.1017 14.7663 7.99591 14.5 7.99591C14.2337 7.99591 13.9783 8.1017 13.79 8.29L11.5 10.59V1C11.5 0.734784 11.3946 0.48043 11.2071 0.292893C11.0196 0.105357 10.7652 0 10.5 0C10.2348 0 9.98043 0.105357 9.79289 0.292893C9.60536 0.48043 9.5 0.734784 9.5 1V10.59L7.21 8.29C7.11676 8.19676 7.00607 8.1228 6.88425 8.07234C6.76243 8.02188 6.63186 7.99591 6.5 7.99591C6.36814 7.99591 6.23757 8.02188 6.11575 8.07234C5.99393 8.1228 5.88324 8.19676 5.79 8.29C5.69676 8.38324 5.6228 8.49393 5.57234 8.61575C5.52188 8.73757 5.49591 8.86814 5.49591 9C5.49591 9.13186 5.52188 9.26243 5.57234 9.38425C5.6228 9.50607 5.69676 9.61676 5.79 9.71L9.79 13.71Z" fill="currentColor"/>
</svg>
