<svg color="#1C1C1E" width="19" height="6" viewBox="0 0 19 6" fill="none" xmlns="http://www.w3.org/2000/svg">
<path fill-rule="evenodd" clip-rule="evenodd" d="M4.75 3C4.75 1.7625 3.7375 0.75 2.5 0.75C1.2625 0.75 0.25 1.7625 0.25 3C0.25 4.2375 1.2625 5.25 2.5 5.25C3.7375 5.25 4.75 4.2375 4.75 3ZM7 3C7 4.2375 8.0125 5.25 9.25 5.25C10.4875 5.25 11.5 4.2375 11.5 3C11.5 1.7625 10.4875 0.75 9.25 0.75C8.0125 0.75 7 1.7625 7 3ZM13.75 3C13.75 4.2375 14.7625 5.25 16 5.25C17.2375 5.25 18.25 4.2375 18.25 3C18.25 1.7625 17.2375 0.75 16 0.75C14.7625 0.75 13.75 1.7625 13.75 3Z" fill="currentColor"/>
</svg>
