<svg width="180" height="85" viewBox="0 0 180 85" fill="none" xmlns="http://www.w3.org/2000/svg">
<path d="M5.30117 68.9287L2.00625 78H0.659569L4.45351 68.0469H5.32168L5.30117 68.9287ZM8.06289 78L4.76113 68.9287L4.74062 68.0469H5.60879L9.4164 78H8.06289ZM7.89199 74.3154V75.3955H2.30019V74.3154H7.89199ZM11.9227 72.1826V78H10.658V70.6035H11.8543L11.9227 72.1826ZM11.6219 74.0215L11.0955 74.001C11.1001 73.4951 11.1753 73.028 11.3211 72.5996C11.4669 72.1667 11.672 71.7907 11.9363 71.4717C12.2006 71.1527 12.5151 70.9066 12.8797 70.7334C13.2488 70.5557 13.6567 70.4668 14.1033 70.4668C14.4679 70.4668 14.796 70.5169 15.0877 70.6172C15.3794 70.7129 15.6277 70.8678 15.8328 71.082C16.0424 71.2962 16.202 71.5742 16.3113 71.916C16.4207 72.2533 16.4754 72.6657 16.4754 73.1533V78H15.2039V73.1396C15.2039 72.7523 15.1469 72.4424 15.033 72.21C14.9191 71.973 14.7527 71.8021 14.534 71.6973C14.3152 71.5879 14.0464 71.5332 13.7273 71.5332C13.4129 71.5332 13.1258 71.5993 12.866 71.7314C12.6108 71.8636 12.3898 72.0459 12.2029 72.2783C12.0206 72.5107 11.8771 72.7773 11.7723 73.0781C11.672 73.3743 11.6219 73.6888 11.6219 74.0215ZM20.5744 77.2344L22.632 70.6035H23.9855L21.0187 79.1416C20.9504 79.3239 20.8592 79.5199 20.7453 79.7295C20.6359 79.9437 20.4947 80.1465 20.3215 80.3379C20.1483 80.5293 19.9387 80.6842 19.6926 80.8027C19.451 80.9258 19.1617 80.9873 18.8244 80.9873C18.7242 80.9873 18.5965 80.9736 18.4416 80.9463C18.2867 80.9189 18.1773 80.8962 18.1135 80.8779L18.1066 79.8525C18.1431 79.8571 18.2001 79.8617 18.2775 79.8662C18.3596 79.8753 18.4165 79.8799 18.4484 79.8799C18.7355 79.8799 18.9794 79.8411 19.1799 79.7637C19.3804 79.6908 19.549 79.5654 19.6857 79.3877C19.827 79.2145 19.9478 78.9753 20.048 78.6699L20.5744 77.2344ZM19.0637 70.6035L20.9846 76.3457L21.3127 77.6787L20.4035 78.1436L17.6828 70.6035H19.0637ZM31.7598 77.0977C32.0605 77.0977 32.3385 77.0361 32.5937 76.9131C32.849 76.79 33.0586 76.6214 33.2227 76.4072C33.3867 76.1885 33.4801 75.9401 33.5029 75.6621H34.7061C34.6833 76.0996 34.5352 76.5075 34.2617 76.8857C33.9928 77.2594 33.6396 77.5625 33.2021 77.7949C32.7646 78.0228 32.2839 78.1367 31.7598 78.1367C31.2038 78.1367 30.7184 78.0387 30.3037 77.8428C29.8936 77.6468 29.5518 77.3779 29.2783 77.0361C29.0094 76.6943 28.8066 76.3024 28.6699 75.8604C28.5378 75.4137 28.4717 74.9421 28.4717 74.4453V74.1582C28.4717 73.6615 28.5378 73.1921 28.6699 72.75C28.8066 72.3034 29.0094 71.9092 29.2783 71.5674C29.5518 71.2256 29.8936 70.9567 30.3037 70.7607C30.7184 70.5648 31.2038 70.4668 31.7598 70.4668C32.3385 70.4668 32.8444 70.5853 33.2773 70.8223C33.7103 71.0547 34.0498 71.3737 34.2959 71.7793C34.5465 72.1803 34.6833 72.6361 34.7061 73.1465H33.5029C33.4801 72.8411 33.3936 72.5654 33.2432 72.3193C33.0973 72.0732 32.8968 71.8773 32.6416 71.7314C32.3909 71.5811 32.097 71.5059 31.7598 71.5059C31.3724 71.5059 31.0465 71.5833 30.7822 71.7383C30.5225 71.8887 30.3151 72.0938 30.1602 72.3535C30.0098 72.6087 29.9004 72.8936 29.832 73.208C29.7682 73.5179 29.7363 73.8346 29.7363 74.1582V74.4453C29.7363 74.7689 29.7682 75.0879 29.832 75.4023C29.8958 75.7168 30.0029 76.0016 30.1533 76.2568C30.3083 76.512 30.5156 76.7171 30.7754 76.8721C31.0397 77.0225 31.3678 77.0977 31.7598 77.0977ZM35.893 74.3838V74.2266C35.893 73.6934 35.9704 73.1989 36.1254 72.7432C36.2803 72.2829 36.5036 71.8841 36.7953 71.5469C37.087 71.2051 37.4402 70.9408 37.8549 70.7539C38.2696 70.5625 38.7344 70.4668 39.2494 70.4668C39.7689 70.4668 40.2361 70.5625 40.6508 70.7539C41.0701 70.9408 41.4255 71.2051 41.7172 71.5469C42.0134 71.8841 42.239 72.2829 42.3939 72.7432C42.5489 73.1989 42.6264 73.6934 42.6264 74.2266V74.3838C42.6264 74.917 42.5489 75.4115 42.3939 75.8672C42.239 76.3229 42.0134 76.7217 41.7172 77.0635C41.4255 77.4007 41.0723 77.665 40.6576 77.8564C40.2475 78.0433 39.7826 78.1367 39.2631 78.1367C38.7436 78.1367 38.2764 78.0433 37.8617 77.8564C37.447 77.665 37.0915 77.4007 36.7953 77.0635C36.5036 76.7217 36.2803 76.3229 36.1254 75.8672C35.9704 75.4115 35.893 74.917 35.893 74.3838ZM37.1576 74.2266V74.3838C37.1576 74.7529 37.2009 75.1016 37.2875 75.4297C37.3741 75.7533 37.504 76.0404 37.6771 76.291C37.8549 76.5417 38.0759 76.7399 38.3402 76.8857C38.6046 77.027 38.9122 77.0977 39.2631 77.0977C39.6094 77.0977 39.9125 77.027 40.1723 76.8857C40.4366 76.7399 40.6553 76.5417 40.8285 76.291C41.0017 76.0404 41.1316 75.7533 41.2182 75.4297C41.3093 75.1016 41.3549 74.7529 41.3549 74.3838V74.2266C41.3549 73.862 41.3093 73.5179 41.2182 73.1943C41.1316 72.8662 40.9994 72.5768 40.8217 72.3262C40.6485 72.071 40.4298 71.8704 40.1654 71.7246C39.9057 71.5788 39.6003 71.5059 39.2494 71.5059C38.9031 71.5059 38.5977 71.5788 38.3334 71.7246C38.0736 71.8704 37.8549 72.071 37.6771 72.3262C37.504 72.5768 37.3741 72.8662 37.2875 73.1943C37.2009 73.5179 37.1576 73.862 37.1576 74.2266ZM45.5701 72.0732V78H44.2986V70.6035H45.5018L45.5701 72.0732ZM45.3103 74.0215L44.7225 74.001C44.727 73.4951 44.7931 73.028 44.9207 72.5996C45.0483 72.1667 45.2374 71.7907 45.4881 71.4717C45.7387 71.1527 46.0509 70.9066 46.4246 70.7334C46.7983 70.5557 47.2312 70.4668 47.7234 70.4668C48.0698 70.4668 48.3888 70.5169 48.6805 70.6172C48.9721 70.7129 49.2251 70.8656 49.4393 71.0752C49.6534 71.2848 49.8198 71.5537 49.9383 71.8818C50.0568 72.21 50.116 72.6064 50.116 73.0713V78H48.8514V73.1328C48.8514 72.7454 48.7853 72.4355 48.6531 72.2031C48.5255 71.9707 48.3432 71.8021 48.1062 71.6973C47.8693 71.5879 47.5913 71.5332 47.2723 71.5332C46.8986 71.5332 46.5864 71.5993 46.3357 71.7314C46.0851 71.8636 45.8846 72.0459 45.7342 72.2783C45.5838 72.5107 45.4744 72.7773 45.4061 73.0781C45.3422 73.3743 45.3103 73.6888 45.3103 74.0215ZM50.1023 73.3242L49.2547 73.584C49.2592 73.1784 49.3253 72.7887 49.4529 72.415C49.5851 72.0413 49.7742 71.7087 50.0203 71.417C50.271 71.1253 50.5786 70.8952 50.9432 70.7266C51.3077 70.5534 51.7247 70.4668 52.1941 70.4668C52.5906 70.4668 52.9415 70.5192 53.2469 70.624C53.5568 70.7288 53.8165 70.8906 54.0262 71.1094C54.2404 71.3236 54.4021 71.5993 54.5115 71.9365C54.6209 72.2738 54.6756 72.6748 54.6756 73.1396V78H53.4041V73.126C53.4041 72.7113 53.338 72.39 53.2059 72.1621C53.0783 71.9297 52.896 71.7679 52.659 71.6768C52.4266 71.5811 52.1486 71.5332 51.825 71.5332C51.547 71.5332 51.3009 71.5811 51.0867 71.6768C50.8725 71.7725 50.6925 71.9046 50.5467 72.0732C50.4008 72.2373 50.2892 72.4264 50.2117 72.6406C50.1388 72.8548 50.1023 73.0827 50.1023 73.3242ZM57.9475 72.0732V78H56.676V70.6035H57.8791L57.9475 72.0732ZM57.6877 74.0215L57.0998 74.001C57.1044 73.4951 57.1704 73.028 57.298 72.5996C57.4257 72.1667 57.6148 71.7907 57.8654 71.4717C58.1161 71.1527 58.4283 70.9066 58.802 70.7334C59.1757 70.5557 59.6086 70.4668 60.1008 70.4668C60.4471 70.4668 60.7661 70.5169 61.0578 70.6172C61.3495 70.7129 61.6024 70.8656 61.8166 71.0752C62.0308 71.2848 62.1971 71.5537 62.3156 71.8818C62.4341 72.21 62.4934 72.6064 62.4934 73.0713V78H61.2287V73.1328C61.2287 72.7454 61.1626 72.4355 61.0305 72.2031C60.9029 71.9707 60.7206 71.8021 60.4836 71.6973C60.2466 71.5879 59.9686 71.5332 59.6496 71.5332C59.2759 71.5332 58.9637 71.5993 58.7131 71.7314C58.4624 71.8636 58.2619 72.0459 58.1115 72.2783C57.9611 72.5107 57.8518 72.7773 57.7834 73.0781C57.7196 73.3743 57.6877 73.6888 57.6877 74.0215ZM62.4797 73.3242L61.632 73.584C61.6366 73.1784 61.7027 72.7887 61.8303 72.415C61.9624 72.0413 62.1516 71.7087 62.3977 71.417C62.6483 71.1253 62.9559 70.8952 63.3205 70.7266C63.6851 70.5534 64.1021 70.4668 64.5715 70.4668C64.968 70.4668 65.3189 70.5192 65.6242 70.624C65.9341 70.7288 66.1939 70.8906 66.4035 71.1094C66.6177 71.3236 66.7795 71.5993 66.8889 71.9365C66.9982 72.2738 67.0529 72.6748 67.0529 73.1396V78H65.7814V73.126C65.7814 72.7113 65.7154 72.39 65.5832 72.1621C65.4556 71.9297 65.2733 71.7679 65.0363 71.6768C64.8039 71.5811 64.5259 71.5332 64.2023 71.5332C63.9243 71.5332 63.6783 71.5811 63.4641 71.6768C63.2499 71.7725 63.0699 71.9046 62.924 72.0732C62.7782 72.2373 62.6665 72.4264 62.5891 72.6406C62.5161 72.8548 62.4797 73.0827 62.4797 73.3242ZM72.1363 78.1367C71.6214 78.1367 71.1542 78.0501 70.735 77.877C70.3202 77.6992 69.9625 77.4508 69.6617 77.1318C69.3655 76.8128 69.1376 76.4346 68.9781 75.9971C68.8186 75.5596 68.7389 75.0811 68.7389 74.5615V74.2744C68.7389 73.6729 68.8277 73.1374 69.0055 72.668C69.1832 72.194 69.4247 71.793 69.7301 71.4648C70.0354 71.1367 70.3818 70.8883 70.7691 70.7197C71.1565 70.5511 71.5576 70.4668 71.9723 70.4668C72.5009 70.4668 72.9566 70.5579 73.3395 70.7402C73.7268 70.9225 74.0436 71.1777 74.2896 71.5059C74.5357 71.8294 74.718 72.2122 74.8365 72.6543C74.955 73.0918 75.0143 73.5703 75.0143 74.0898V74.6572H69.4908V73.625H73.7496V73.5293C73.7314 73.2012 73.663 72.8822 73.5445 72.5723C73.4306 72.2624 73.2483 72.0072 72.9977 71.8066C72.747 71.6061 72.4052 71.5059 71.9723 71.5059C71.6852 71.5059 71.4208 71.5674 71.1793 71.6904C70.9378 71.8089 70.7304 71.9867 70.5572 72.2236C70.3841 72.4606 70.2496 72.75 70.1539 73.0918C70.0582 73.4336 70.0104 73.8278 70.0104 74.2744V74.5615C70.0104 74.9124 70.0582 75.2428 70.1539 75.5527C70.2542 75.8581 70.3977 76.127 70.5846 76.3594C70.776 76.5918 71.0061 76.7741 71.275 76.9062C71.5484 77.0384 71.8583 77.1045 72.2047 77.1045C72.6513 77.1045 73.0296 77.0133 73.3395 76.8311C73.6494 76.6488 73.9205 76.4049 74.1529 76.0996L74.9186 76.708C74.7591 76.9495 74.5563 77.1797 74.3102 77.3984C74.0641 77.6172 73.761 77.7949 73.401 77.9316C73.0455 78.0684 72.624 78.1367 72.1363 78.1367ZM77.8555 72.1826V78H76.5908V70.6035H77.7871L77.8555 72.1826ZM77.5547 74.0215L77.0283 74.001C77.0329 73.4951 77.1081 73.028 77.2539 72.5996C77.3997 72.1667 77.6048 71.7907 77.8691 71.4717C78.1335 71.1527 78.4479 70.9066 78.8125 70.7334C79.1816 70.5557 79.5895 70.4668 80.0361 70.4668C80.4007 70.4668 80.7288 70.5169 81.0205 70.6172C81.3122 70.7129 81.5605 70.8678 81.7656 71.082C81.9753 71.2962 82.1348 71.5742 82.2441 71.916C82.3535 72.2533 82.4082 72.6657 82.4082 73.1533V78H81.1367V73.1396C81.1367 72.7523 81.0798 72.4424 80.9658 72.21C80.8519 71.973 80.6855 71.8021 80.4668 71.6973C80.248 71.5879 79.9792 71.5332 79.6602 71.5332C79.3457 71.5332 79.0586 71.5993 78.7988 71.7314C78.5436 71.8636 78.3226 72.0459 78.1357 72.2783C77.9535 72.5107 77.8099 72.7773 77.7051 73.0781C77.6048 73.3743 77.5547 73.6888 77.5547 74.0215ZM87.5258 70.6035V71.5742H83.5268V70.6035H87.5258ZM84.8803 68.8057H86.1449V76.168C86.1449 76.4186 86.1837 76.6077 86.2611 76.7354C86.3386 76.863 86.4389 76.9473 86.5619 76.9883C86.685 77.0293 86.8171 77.0498 86.9584 77.0498C87.0632 77.0498 87.1726 77.0407 87.2865 77.0225C87.405 76.9997 87.4939 76.9814 87.5531 76.9678L87.56 78C87.4597 78.0319 87.3275 78.0615 87.1635 78.0889C87.004 78.1208 86.8103 78.1367 86.5824 78.1367C86.2725 78.1367 85.9877 78.0752 85.7279 77.9521C85.4682 77.8291 85.2608 77.624 85.1059 77.3369C84.9555 77.0452 84.8803 76.6533 84.8803 76.1611V68.8057ZM93.4158 76.0381C93.4158 75.8558 93.3748 75.6872 93.2928 75.5322C93.2153 75.3727 93.0535 75.2292 92.8074 75.1016C92.5659 74.9694 92.2013 74.8555 91.7137 74.7598C91.3035 74.6732 90.9321 74.5706 90.5994 74.4521C90.2713 74.3337 89.991 74.1901 89.7586 74.0215C89.5307 73.8529 89.3553 73.6546 89.2322 73.4268C89.1092 73.1989 89.0477 72.9323 89.0477 72.627C89.0477 72.3353 89.1115 72.0596 89.2391 71.7998C89.3712 71.54 89.5558 71.3099 89.7928 71.1094C90.0343 70.9089 90.3237 70.7516 90.6609 70.6377C90.9982 70.5238 91.3742 70.4668 91.7889 70.4668C92.3813 70.4668 92.8872 70.5716 93.3064 70.7812C93.7257 70.9909 94.047 71.2712 94.2703 71.6221C94.4936 71.9684 94.6053 72.3535 94.6053 72.7773H93.3406C93.3406 72.5723 93.2791 72.374 93.1561 72.1826C93.0376 71.9867 92.8621 71.8249 92.6297 71.6973C92.4018 71.5697 92.1215 71.5059 91.7889 71.5059C91.438 71.5059 91.1531 71.5605 90.9344 71.6699C90.7202 71.7747 90.563 71.9092 90.4627 72.0732C90.367 72.2373 90.3191 72.4105 90.3191 72.5928C90.3191 72.7295 90.3419 72.8525 90.3875 72.9619C90.4376 73.0667 90.5242 73.1647 90.6473 73.2559C90.7703 73.3424 90.9435 73.4245 91.1668 73.502C91.3901 73.5794 91.6749 73.6569 92.0213 73.7344C92.6274 73.8711 93.1264 74.0352 93.5184 74.2266C93.9103 74.418 94.202 74.6527 94.3934 74.9307C94.5848 75.2087 94.6805 75.5459 94.6805 75.9424C94.6805 76.266 94.6121 76.5622 94.4754 76.8311C94.3432 77.0999 94.1495 77.3324 93.8943 77.5283C93.6437 77.7197 93.3429 77.8701 92.992 77.9795C92.6456 78.0843 92.256 78.1367 91.823 78.1367C91.1714 78.1367 90.6199 78.0205 90.1687 77.7881C89.7176 77.5557 89.3758 77.2549 89.1434 76.8857C88.9109 76.5166 88.7947 76.127 88.7947 75.7168H90.0662C90.0844 76.0632 90.1847 76.3389 90.367 76.5439C90.5493 76.7445 90.7726 76.888 91.0369 76.9746C91.3012 77.0566 91.5633 77.0977 91.823 77.0977C92.1694 77.0977 92.4588 77.0521 92.6912 76.9609C92.9282 76.8698 93.1082 76.7445 93.2312 76.585C93.3543 76.4255 93.4158 76.2432 93.4158 76.0381ZM104.376 76.7354V72.9277C104.376 72.6361 104.316 72.3831 104.198 72.1689C104.084 71.9502 103.911 71.7816 103.678 71.6631C103.446 71.5446 103.159 71.4854 102.817 71.4854C102.498 71.4854 102.218 71.54 101.976 71.6494C101.739 71.7588 101.552 71.9023 101.416 72.0801C101.283 72.2578 101.217 72.4492 101.217 72.6543H99.9527C99.9527 72.39 100.021 72.1279 100.158 71.8682C100.295 71.6084 100.49 71.3737 100.746 71.1641C101.005 70.9499 101.315 70.7812 101.675 70.6582C102.04 70.5306 102.446 70.4668 102.892 70.4668C103.43 70.4668 103.904 70.5579 104.314 70.7402C104.729 70.9225 105.052 71.1982 105.285 71.5674C105.522 71.932 105.64 72.39 105.64 72.9414V76.3867C105.64 76.6328 105.661 76.8949 105.702 77.1729C105.747 77.4508 105.813 77.6901 105.9 77.8906V78H104.581C104.517 77.8542 104.467 77.6605 104.43 77.4189C104.394 77.1729 104.376 76.945 104.376 76.7354ZM104.594 73.5156L104.608 74.4043H103.33C102.97 74.4043 102.648 74.4339 102.366 74.4932C102.083 74.5479 101.846 74.6322 101.655 74.7461C101.463 74.86 101.318 75.0036 101.217 75.1768C101.117 75.3454 101.067 75.5436 101.067 75.7715C101.067 76.0039 101.119 76.2158 101.224 76.4072C101.329 76.5986 101.486 76.7513 101.696 76.8652C101.91 76.9746 102.172 77.0293 102.482 77.0293C102.869 77.0293 103.211 76.9473 103.507 76.7832C103.804 76.6191 104.038 76.4186 104.212 76.1816C104.389 75.9447 104.485 75.7145 104.499 75.4912L105.039 76.0996C105.007 76.291 104.92 76.5029 104.779 76.7354C104.638 76.9678 104.449 77.1911 104.212 77.4053C103.979 77.6149 103.701 77.7904 103.378 77.9316C103.059 78.0684 102.699 78.1367 102.297 78.1367C101.796 78.1367 101.356 78.0387 100.978 77.8428C100.604 77.6468 100.313 77.3848 100.103 77.0566C99.898 76.724 99.7955 76.3525 99.7955 75.9424C99.7955 75.5459 99.873 75.1973 100.028 74.8965C100.183 74.5911 100.406 74.3382 100.698 74.1377C100.99 73.9326 101.34 73.7777 101.751 73.6729C102.161 73.568 102.619 73.5156 103.125 73.5156H104.594ZM108.994 71.7656V78H107.729V70.6035H108.96L108.994 71.7656ZM111.305 70.5625L111.298 71.7383C111.193 71.7155 111.093 71.7018 110.997 71.6973C110.906 71.6882 110.801 71.6836 110.683 71.6836C110.391 71.6836 110.133 71.7292 109.91 71.8203C109.687 71.9115 109.498 72.0391 109.343 72.2031C109.188 72.3672 109.065 72.5632 108.974 72.791C108.887 73.0143 108.83 73.2604 108.803 73.5293L108.447 73.7344C108.447 73.2878 108.491 72.8685 108.577 72.4766C108.668 72.0846 108.807 71.7383 108.994 71.4375C109.181 71.1322 109.418 70.8952 109.705 70.7266C109.997 70.5534 110.343 70.4668 110.744 70.4668C110.835 70.4668 110.94 70.4782 111.059 70.501C111.177 70.5192 111.259 70.5397 111.305 70.5625ZM115.506 78.1367C114.991 78.1367 114.524 78.0501 114.105 77.877C113.69 77.6992 113.332 77.4508 113.032 77.1318C112.735 76.8128 112.508 76.4346 112.348 75.9971C112.189 75.5596 112.109 75.0811 112.109 74.5615V74.2744C112.109 73.6729 112.198 73.1374 112.375 72.668C112.553 72.194 112.795 71.793 113.1 71.4648C113.405 71.1367 113.752 70.8883 114.139 70.7197C114.526 70.5511 114.927 70.4668 115.342 70.4668C115.871 70.4668 116.327 70.5579 116.709 70.7402C117.097 70.9225 117.413 71.1777 117.66 71.5059C117.906 71.8294 118.088 72.2122 118.206 72.6543C118.325 73.0918 118.384 73.5703 118.384 74.0898V74.6572H112.861V73.625H117.12V73.5293C117.101 73.2012 117.033 72.8822 116.914 72.5723C116.801 72.2624 116.618 72.0072 116.368 71.8066C116.117 71.6061 115.775 71.5059 115.342 71.5059C115.055 71.5059 114.791 71.5674 114.549 71.6904C114.308 71.8089 114.1 71.9867 113.927 72.2236C113.754 72.4606 113.62 72.75 113.524 73.0918C113.428 73.4336 113.38 73.8278 113.38 74.2744V74.5615C113.38 74.9124 113.428 75.2428 113.524 75.5527C113.624 75.8581 113.768 76.127 113.954 76.3594C114.146 76.5918 114.376 76.7741 114.645 76.9062C114.918 77.0384 115.228 77.1045 115.575 77.1045C116.021 77.1045 116.399 77.0133 116.709 76.8311C117.019 76.6488 117.29 76.4049 117.523 76.0996L118.288 76.708C118.129 76.9495 117.926 77.1797 117.68 77.3984C117.434 77.6172 117.131 77.7949 116.771 77.9316C116.415 78.0684 115.994 78.1367 115.506 78.1367ZM125.406 76.6875L127.307 70.6035H128.141L127.977 71.8135L126.042 78H125.229L125.406 76.6875ZM124.128 70.6035L125.748 76.7559L125.864 78H125.01L122.863 70.6035H124.128ZM129.959 76.708L131.504 70.6035H132.762L130.615 78H129.768L129.959 76.708ZM128.325 70.6035L130.185 76.585L130.397 78H129.59L127.601 71.7998L127.437 70.6035H128.325ZM137.23 78.1367C136.715 78.1367 136.248 78.0501 135.829 77.877C135.414 77.6992 135.056 77.4508 134.755 77.1318C134.459 76.8128 134.231 76.4346 134.072 75.9971C133.912 75.5596 133.833 75.0811 133.833 74.5615V74.2744C133.833 73.6729 133.921 73.1374 134.099 72.668C134.277 72.194 134.518 71.793 134.824 71.4648C135.129 71.1367 135.476 70.8883 135.863 70.7197C136.25 70.5511 136.651 70.4668 137.066 70.4668C137.595 70.4668 138.05 70.5579 138.433 70.7402C138.821 70.9225 139.137 71.1777 139.383 71.5059C139.629 71.8294 139.812 72.2122 139.93 72.6543C140.049 73.0918 140.108 73.5703 140.108 74.0898V74.6572H134.585V73.625H138.843V73.5293C138.825 73.2012 138.757 72.8822 138.638 72.5723C138.524 72.2624 138.342 72.0072 138.091 71.8066C137.841 71.6061 137.499 71.5059 137.066 71.5059C136.779 71.5059 136.515 71.5674 136.273 71.6904C136.032 71.8089 135.824 71.9867 135.651 72.2236C135.478 72.4606 135.343 72.75 135.248 73.0918C135.152 73.4336 135.104 73.8278 135.104 74.2744V74.5615C135.104 74.9124 135.152 75.2428 135.248 75.5527C135.348 75.8581 135.491 76.127 135.678 76.3594C135.87 76.5918 136.1 76.7741 136.369 76.9062C136.642 77.0384 136.952 77.1045 137.298 77.1045C137.745 77.1045 138.123 77.0133 138.433 76.8311C138.743 76.6488 139.014 76.4049 139.247 76.0996L140.012 76.708C139.853 76.9495 139.65 77.1797 139.404 77.3984C139.158 77.6172 138.855 77.7949 138.495 77.9316C138.139 78.0684 137.718 78.1367 137.23 78.1367ZM143.059 67.5V78H141.787V67.5H143.059ZM148.149 77.0977C148.45 77.0977 148.728 77.0361 148.983 76.9131C149.238 76.79 149.448 76.6214 149.612 76.4072C149.776 76.1885 149.869 75.9401 149.892 75.6621H151.095C151.072 76.0996 150.924 76.5075 150.651 76.8857C150.382 77.2594 150.029 77.5625 149.591 77.7949C149.154 78.0228 148.673 78.1367 148.149 78.1367C147.593 78.1367 147.107 78.0387 146.693 77.8428C146.283 77.6468 145.941 77.3779 145.667 77.0361C145.399 76.6943 145.196 76.3024 145.059 75.8604C144.927 75.4137 144.861 74.9421 144.861 74.4453V74.1582C144.861 73.6615 144.927 73.1921 145.059 72.75C145.196 72.3034 145.399 71.9092 145.667 71.5674C145.941 71.2256 146.283 70.9567 146.693 70.7607C147.107 70.5648 147.593 70.4668 148.149 70.4668C148.728 70.4668 149.233 70.5853 149.666 70.8223C150.099 71.0547 150.439 71.3737 150.685 71.7793C150.936 72.1803 151.072 72.6361 151.095 73.1465H149.892C149.869 72.8411 149.783 72.5654 149.632 72.3193C149.486 72.0732 149.286 71.8773 149.031 71.7314C148.78 71.5811 148.486 71.5059 148.149 71.5059C147.761 71.5059 147.436 71.5833 147.171 71.7383C146.912 71.8887 146.704 72.0938 146.549 72.3535C146.399 72.6087 146.289 72.8936 146.221 73.208C146.157 73.5179 146.125 73.8346 146.125 74.1582V74.4453C146.125 74.7689 146.157 75.0879 146.221 75.4023C146.285 75.7168 146.392 76.0016 146.542 76.2568C146.697 76.512 146.905 76.7171 147.164 76.8721C147.429 77.0225 147.757 77.0977 148.149 77.0977ZM152.282 74.3838V74.2266C152.282 73.6934 152.36 73.1989 152.514 72.7432C152.669 72.2829 152.893 71.8841 153.184 71.5469C153.476 71.2051 153.829 70.9408 154.244 70.7539C154.659 70.5625 155.124 70.4668 155.638 70.4668C156.158 70.4668 156.625 70.5625 157.04 70.7539C157.459 70.9408 157.815 71.2051 158.106 71.5469C158.402 71.8841 158.628 72.2829 158.783 72.7432C158.938 73.1989 159.015 73.6934 159.015 74.2266V74.3838C159.015 74.917 158.938 75.4115 158.783 75.8672C158.628 76.3229 158.402 76.7217 158.106 77.0635C157.815 77.4007 157.461 77.665 157.047 77.8564C156.637 78.0433 156.172 78.1367 155.652 78.1367C155.133 78.1367 154.666 78.0433 154.251 77.8564C153.836 77.665 153.481 77.4007 153.184 77.0635C152.893 76.7217 152.669 76.3229 152.514 75.8672C152.36 75.4115 152.282 74.917 152.282 74.3838ZM153.547 74.2266V74.3838C153.547 74.7529 153.59 75.1016 153.677 75.4297C153.763 75.7533 153.893 76.0404 154.066 76.291C154.244 76.5417 154.465 76.7399 154.729 76.8857C154.994 77.027 155.301 77.0977 155.652 77.0977C155.999 77.0977 156.302 77.027 156.561 76.8857C156.826 76.7399 157.044 76.5417 157.218 76.291C157.391 76.0404 157.521 75.7533 157.607 75.4297C157.698 75.1016 157.744 74.7529 157.744 74.3838V74.2266C157.744 73.862 157.698 73.5179 157.607 73.1943C157.521 72.8662 157.388 72.5768 157.211 72.3262C157.038 72.071 156.819 71.8704 156.555 71.7246C156.295 71.5788 155.989 71.5059 155.638 71.5059C155.292 71.5059 154.987 71.5788 154.722 71.7246C154.463 71.8704 154.244 72.071 154.066 72.3262C153.893 72.5768 153.763 72.8662 153.677 73.1943C153.59 73.5179 153.547 73.862 153.547 74.2266ZM161.959 72.0732V78H160.688V70.6035H161.891L161.959 72.0732ZM161.699 74.0215L161.112 74.001C161.116 73.4951 161.182 73.028 161.31 72.5996C161.437 72.1667 161.626 71.7907 161.877 71.4717C162.128 71.1527 162.44 70.9066 162.814 70.7334C163.187 70.5557 163.62 70.4668 164.112 70.4668C164.459 70.4668 164.778 70.5169 165.07 70.6172C165.361 70.7129 165.614 70.8656 165.828 71.0752C166.043 71.2848 166.209 71.5537 166.327 71.8818C166.446 72.21 166.505 72.6064 166.505 73.0713V78H165.24V73.1328C165.24 72.7454 165.174 72.4355 165.042 72.2031C164.915 71.9707 164.732 71.8021 164.495 71.6973C164.258 71.5879 163.98 71.5332 163.661 71.5332C163.288 71.5332 162.975 71.5993 162.725 71.7314C162.474 71.8636 162.274 72.0459 162.123 72.2783C161.973 72.5107 161.863 72.7773 161.795 73.0781C161.731 73.3743 161.699 73.6888 161.699 74.0215ZM166.491 73.3242L165.644 73.584C165.648 73.1784 165.714 72.7887 165.842 72.415C165.974 72.0413 166.163 71.7087 166.409 71.417C166.66 71.1253 166.968 70.8952 167.332 70.7266C167.697 70.5534 168.114 70.4668 168.583 70.4668C168.98 70.4668 169.331 70.5192 169.636 70.624C169.946 70.7288 170.206 70.8906 170.415 71.1094C170.629 71.3236 170.791 71.5993 170.901 71.9365C171.01 72.2738 171.065 72.6748 171.065 73.1396V78H169.793V73.126C169.793 72.7113 169.727 72.39 169.595 72.1621C169.467 71.9297 169.285 71.7679 169.048 71.6768C168.816 71.5811 168.538 71.5332 168.214 71.5332C167.936 71.5332 167.69 71.5811 167.476 71.6768C167.262 71.7725 167.082 71.9046 166.936 72.0732C166.79 72.2373 166.678 72.4264 166.601 72.6406C166.528 72.8548 166.491 73.0827 166.491 73.3242ZM176.148 78.1367C175.633 78.1367 175.166 78.0501 174.747 77.877C174.332 77.6992 173.974 77.4508 173.673 77.1318C173.377 76.8128 173.149 76.4346 172.99 75.9971C172.83 75.5596 172.751 75.0811 172.751 74.5615V74.2744C172.751 73.6729 172.839 73.1374 173.017 72.668C173.195 72.194 173.436 71.793 173.742 71.4648C174.047 71.1367 174.393 70.8883 174.781 70.7197C175.168 70.5511 175.569 70.4668 175.984 70.4668C176.513 70.4668 176.968 70.5579 177.351 70.7402C177.739 70.9225 178.055 71.1777 178.301 71.5059C178.547 71.8294 178.73 72.2122 178.848 72.6543C178.967 73.0918 179.026 73.5703 179.026 74.0898V74.6572H173.503V73.625H177.761V73.5293C177.743 73.2012 177.675 72.8822 177.556 72.5723C177.442 72.2624 177.26 72.0072 177.009 71.8066C176.759 71.6061 176.417 71.5059 175.984 71.5059C175.697 71.5059 175.433 71.5674 175.191 71.6904C174.949 71.8089 174.742 71.9867 174.569 72.2236C174.396 72.4606 174.261 72.75 174.166 73.0918C174.07 73.4336 174.022 73.8278 174.022 74.2744V74.5615C174.022 74.9124 174.07 75.2428 174.166 75.5527C174.266 75.8581 174.409 76.127 174.596 76.3594C174.788 76.5918 175.018 76.7741 175.287 76.9062C175.56 77.0384 175.87 77.1045 176.216 77.1045C176.663 77.1045 177.041 77.0133 177.351 76.8311C177.661 76.6488 177.932 76.4049 178.165 76.0996L178.93 76.708C178.771 76.9495 178.568 77.1797 178.322 77.3984C178.076 77.6172 177.773 77.7949 177.413 77.9316C177.057 78.0684 176.636 78.1367 176.148 78.1367Z" fill="#9B9B9B"/>
<path d="M113.411 15.1278C113.411 8.60219 108.103 3.28809 101.571 3.28809C95.5068 3.28809 90.4939 7.87142 89.8145 13.756C94.9491 16.0701 98.6862 20.9548 99.385 26.7625C100.09 26.8971 100.821 26.9676 101.571 26.9676C103.295 26.9676 104.955 26.6086 106.507 25.8907L112.661 28.2689L111.026 22.256C112.584 20.1855 113.411 17.7304 113.411 15.1278Z" stroke="#D6D2F1" stroke-width="2" stroke-miterlimit="10" stroke-linecap="round" stroke-linejoin="round"/>
<path d="M107.627 11.9805H96.1719" stroke="#D6D2F1" stroke-width="2" stroke-miterlimit="10" stroke-linecap="round" stroke-linejoin="round"/>
<path d="M107.627 15.5195H96.1719" stroke="#D6D2F1" stroke-width="2" stroke-miterlimit="10" stroke-linecap="round" stroke-linejoin="round"/>
<path d="M107.628 19.0518H96.7109" stroke="#D6D2F1" stroke-width="2" stroke-miterlimit="10" stroke-linecap="round" stroke-linejoin="round"/>
<path d="M67.7181 46.9555L69.9938 38.6093C67.8207 35.7504 66.6797 32.3401 66.6797 28.7311C66.6797 19.6798 74.0451 12.3145 83.0964 12.3145C92.1476 12.3145 99.5066 19.6798 99.5066 28.7311C99.5066 37.7824 92.1412 45.1478 83.0964 45.1478C80.7053 45.1478 78.4041 44.6478 76.2566 43.6606L67.7181 46.9555Z" stroke="#D6D2F1" stroke-width="2" stroke-miterlimit="10" stroke-linecap="round" stroke-linejoin="round"/>
<path d="M74.6992 24.4619H90.5838" stroke="#D6D2F1" stroke-width="2" stroke-miterlimit="10" stroke-linecap="round" stroke-linejoin="round"/>
<path d="M74.6992 29.3652H90.5838" stroke="#D6D2F1" stroke-width="2" stroke-miterlimit="10" stroke-linecap="round" stroke-linejoin="round"/>
<path d="M74.6992 34.2754H90.5838" stroke="#D6D2F1" stroke-width="2" stroke-miterlimit="10" stroke-linecap="round" stroke-linejoin="round"/>
</svg>
