<svg width="42" height="42" viewBox="0 0 42 42" fill="none" xmlns="http://www.w3.org/2000/svg">
<rect width="42" height="42" rx="21" fill="white"/>
<path fill-rule="evenodd" clip-rule="evenodd" d="M16.9466 17.6967C17.298 17.3452 17.8679 17.3452 18.2193 17.6967L24.5833 24.0606C24.9348 24.4121 24.9348 24.982 24.5833 25.3334C24.2318 25.6849 23.662 25.6849 23.3105 25.3334L16.9466 18.9695C16.5951 18.618 16.5951 18.0482 16.9466 17.6967Z" fill="#5B4DBE"/>
<path fill-rule="evenodd" clip-rule="evenodd" d="M23.9465 13.4899C23.7873 13.4899 23.6347 13.5532 23.5222 13.6657L12.9156 24.2723C12.8599 24.328 12.8157 24.3941 12.7855 24.4669C12.7554 24.5397 12.7398 24.6177 12.7398 24.6965C12.7398 24.7753 12.7554 24.8534 12.7855 24.9262C12.8157 24.9989 12.8599 25.0651 12.9156 25.1208L16.129 28.3342H19.036L28.6134 18.7568C28.6691 18.7011 28.7133 18.635 28.7434 18.5622C28.7736 18.4894 28.7891 18.4114 28.7891 18.3326C28.7891 18.2538 28.7736 18.1758 28.7434 18.103C28.7133 18.0302 28.6691 17.964 28.6134 17.9083L24.3707 13.6657C24.2582 13.5532 24.1056 13.4899 23.9465 13.4899ZM21.5816 28.3342L29.8862 20.0296C30.109 19.8068 30.2858 19.5422 30.4064 19.251C30.527 18.9598 30.5891 18.6478 30.5891 18.3326C30.5891 18.0174 30.527 17.7053 30.4064 17.4141C30.2858 17.123 30.109 16.8584 29.8862 16.6355L25.6435 12.3929C25.1934 11.9428 24.583 11.6899 23.9465 11.6899C23.3099 11.6899 22.6995 11.9428 22.2494 12.3929L11.6428 22.9995C11.4199 23.2223 11.2432 23.4869 11.1225 23.7781C11.0019 24.0693 10.9398 24.3814 10.9398 24.6965C10.9398 25.0117 11.0019 25.3238 11.1225 25.615C11.2432 25.9062 11.4199 26.1707 11.6428 26.3936L15.1198 29.8706C15.2886 30.0394 15.5175 30.1342 15.7562 30.1342H29.2497C29.7468 30.1342 30.1497 29.7313 30.1497 29.2342C30.1497 28.7372 29.7468 28.3342 29.2497 28.3342H21.5816Z" fill="#5B4DBE"/>
</svg>
