<svg width="156" height="46" viewBox="0 0 156 46" fill="none" xmlns="http://www.w3.org/2000/svg">
<rect width="156" height="46" rx="6" fill="#F5F4F7"/>
<rect width="156" height="46" rx="6" fill="#D8D8D8"/>
<path d="M54.9109 23.7578H51.95V22.2031H54.9109C55.4266 22.2031 55.8432 22.1198 56.1609 21.9531C56.4786 21.7865 56.7104 21.5573 56.8563 21.2656C57.0073 20.9688 57.0828 20.6302 57.0828 20.25C57.0828 19.8906 57.0073 19.5547 56.8563 19.2422C56.7104 18.9245 56.4786 18.6693 56.1609 18.4766C55.8432 18.2839 55.4266 18.1875 54.9109 18.1875H52.5516V28H50.5906V16.625H54.9109C55.7911 16.625 56.5385 16.7812 57.1531 17.0938C57.7729 17.401 58.2443 17.8281 58.5672 18.375C58.8901 18.9167 59.0516 19.5365 59.0516 20.2344C59.0516 20.9688 58.8901 21.599 58.5672 22.125C58.2443 22.651 57.7729 23.0547 57.1531 23.3359C56.5385 23.6172 55.7911 23.7578 54.9109 23.7578ZM65.4538 26.3047V22.2734C65.4538 21.9714 65.3991 21.7109 65.2897 21.4922C65.1803 21.2734 65.0136 21.1042 64.7897 20.9844C64.5709 20.8646 64.2949 20.8047 63.9616 20.8047C63.6543 20.8047 63.3886 20.8568 63.1647 20.9609C62.9407 21.0651 62.7663 21.2057 62.6413 21.3828C62.5163 21.5599 62.4538 21.7604 62.4538 21.9844H60.5788C60.5788 21.651 60.6595 21.3281 60.8209 21.0156C60.9824 20.7031 61.2168 20.4245 61.5241 20.1797C61.8314 19.9349 62.1985 19.7422 62.6256 19.6016C63.0527 19.4609 63.5319 19.3906 64.0631 19.3906C64.6985 19.3906 65.261 19.4974 65.7506 19.7109C66.2454 19.9245 66.6334 20.2474 66.9147 20.6797C67.2011 21.1068 67.3444 21.6432 67.3444 22.2891V26.0469C67.3444 26.4323 67.3704 26.7786 67.4225 27.0859C67.4798 27.388 67.5605 27.651 67.6647 27.875V28H65.735C65.6465 27.7969 65.5761 27.5391 65.5241 27.2266C65.4772 26.9089 65.4538 26.6016 65.4538 26.3047ZM65.7272 22.8594L65.7428 24.0234H64.3913C64.0423 24.0234 63.735 24.0573 63.4694 24.125C63.2038 24.1875 62.9824 24.2812 62.8053 24.4062C62.6282 24.5312 62.4954 24.6823 62.4069 24.8594C62.3183 25.0365 62.2741 25.237 62.2741 25.4609C62.2741 25.6849 62.3261 25.8906 62.4303 26.0781C62.5345 26.2604 62.6855 26.4036 62.8834 26.5078C63.0866 26.612 63.3314 26.6641 63.6178 26.6641C64.0032 26.6641 64.3392 26.5859 64.6256 26.4297C64.9173 26.2682 65.1465 26.0729 65.3131 25.8438C65.4798 25.6094 65.5683 25.388 65.5788 25.1797L66.1881 26.0156C66.1256 26.2292 66.0189 26.4583 65.8678 26.7031C65.7168 26.9479 65.5189 27.1823 65.2741 27.4062C65.0345 27.625 64.7454 27.8047 64.4069 27.9453C64.0735 28.0859 63.6881 28.1562 63.2506 28.1562C62.6985 28.1562 62.2064 28.0469 61.7741 27.8281C61.3418 27.6042 61.0032 27.3047 60.7584 26.9297C60.5136 26.5495 60.3913 26.1198 60.3913 25.6406C60.3913 25.1927 60.4746 24.7969 60.6413 24.4531C60.8131 24.1042 61.0631 23.8125 61.3913 23.5781C61.7246 23.3438 62.1308 23.1667 62.61 23.0469C63.0892 22.9219 63.636 22.8594 64.2506 22.8594H65.7272ZM74.5591 26.0078V19.5469H76.4497V28H74.6684L74.5591 26.0078ZM74.8247 24.25L75.4575 24.2344C75.4575 24.8021 75.395 25.3255 75.27 25.8047C75.145 26.2786 74.9523 26.6927 74.6919 27.0469C74.4315 27.3958 74.0981 27.6693 73.6919 27.8672C73.2856 28.0599 72.7986 28.1562 72.2309 28.1562C71.8195 28.1562 71.4419 28.0964 71.0981 27.9766C70.7544 27.8568 70.4575 27.6719 70.2075 27.4219C69.9627 27.1719 69.7726 26.8464 69.6372 26.4453C69.5018 26.0443 69.4341 25.5651 69.4341 25.0078V19.5469H71.3169V25.0234C71.3169 25.3307 71.3533 25.5885 71.4263 25.7969C71.4992 26 71.5981 26.1641 71.7231 26.2891C71.8481 26.4141 71.994 26.5026 72.1606 26.5547C72.3273 26.6068 72.5044 26.6328 72.6919 26.6328C73.2283 26.6328 73.6502 26.5286 73.9575 26.3203C74.27 26.1068 74.4914 25.8203 74.6216 25.4609C74.757 25.1016 74.8247 24.6979 74.8247 24.25ZM83.2816 25.7109C83.2816 25.5234 83.2347 25.3542 83.1409 25.2031C83.0472 25.0469 82.8675 24.9062 82.6019 24.7812C82.3415 24.6562 81.956 24.5417 81.4456 24.4375C80.9977 24.3385 80.5863 24.2214 80.2113 24.0859C79.8415 23.9453 79.5238 23.776 79.2581 23.5781C78.9925 23.3802 78.7868 23.1458 78.6409 22.875C78.4951 22.6042 78.4222 22.2917 78.4222 21.9375C78.4222 21.5938 78.4977 21.2682 78.6488 20.9609C78.7998 20.6536 79.0159 20.3828 79.2972 20.1484C79.5784 19.9141 79.9196 19.7292 80.3206 19.5938C80.7269 19.4583 81.18 19.3906 81.68 19.3906C82.3883 19.3906 82.9951 19.5104 83.5003 19.75C84.0107 19.9844 84.4014 20.3047 84.6722 20.7109C84.943 21.112 85.0784 21.5651 85.0784 22.0703H83.1956C83.1956 21.8464 83.1383 21.638 83.0238 21.4453C82.9144 21.2474 82.7477 21.0885 82.5238 20.9688C82.2998 20.8438 82.0185 20.7812 81.68 20.7812C81.3571 20.7812 81.0889 20.8333 80.8753 20.9375C80.667 21.0365 80.5107 21.1667 80.4066 21.3281C80.3076 21.4896 80.2581 21.6667 80.2581 21.8594C80.2581 22 80.2842 22.1276 80.3363 22.2422C80.3935 22.3516 80.4873 22.4531 80.6175 22.5469C80.7477 22.6354 80.9248 22.7188 81.1488 22.7969C81.3779 22.875 81.6644 22.9505 82.0081 23.0234C82.654 23.1589 83.2086 23.3333 83.6722 23.5469C84.1409 23.7552 84.5003 24.026 84.7503 24.3594C85.0003 24.6875 85.1253 25.1042 85.1253 25.6094C85.1253 25.9844 85.0446 26.3281 84.8831 26.6406C84.7269 26.9479 84.4977 27.2161 84.1956 27.4453C83.8935 27.6693 83.5316 27.8438 83.1097 27.9688C82.693 28.0938 82.2243 28.1562 81.7034 28.1562C80.9378 28.1562 80.2894 28.0208 79.7581 27.75C79.2269 27.474 78.8232 27.1224 78.5472 26.6953C78.2764 26.263 78.1409 25.8151 78.1409 25.3516H79.9613C79.9821 25.7005 80.0784 25.9792 80.2503 26.1875C80.4274 26.3906 80.6461 26.5391 80.9066 26.6328C81.1722 26.7214 81.4456 26.7656 81.7269 26.7656C82.0654 26.7656 82.3493 26.7214 82.5784 26.6328C82.8076 26.5391 82.9821 26.4141 83.1019 26.2578C83.2217 26.0964 83.2816 25.9141 83.2816 25.7109ZM90.6603 28.1562C90.0353 28.1562 89.4702 28.0547 88.965 27.8516C88.465 27.6432 88.0379 27.3542 87.6838 26.9844C87.3348 26.6146 87.0666 26.1797 86.8791 25.6797C86.6916 25.1797 86.5978 24.6406 86.5978 24.0625V23.75C86.5978 23.0885 86.6942 22.4896 86.8869 21.9531C87.0796 21.4167 87.3478 20.9583 87.6916 20.5781C88.0353 20.1927 88.4416 19.8984 88.9103 19.6953C89.3791 19.4922 89.8869 19.3906 90.4338 19.3906C91.0379 19.3906 91.5666 19.4922 92.0197 19.6953C92.4728 19.8984 92.8478 20.1849 93.1447 20.5547C93.4468 20.9193 93.6707 21.3542 93.8166 21.8594C93.9676 22.3646 94.0431 22.9219 94.0431 23.5312V24.3359H87.5119V22.9844H92.1838V22.8359C92.1733 22.4974 92.1056 22.1797 91.9806 21.8828C91.8608 21.5859 91.6759 21.3464 91.4259 21.1641C91.1759 20.9818 90.8426 20.8906 90.4259 20.8906C90.1134 20.8906 89.8348 20.9583 89.59 21.0938C89.3504 21.224 89.1499 21.4141 88.9884 21.6641C88.827 21.9141 88.702 22.2161 88.6134 22.5703C88.5301 22.9193 88.4884 23.3125 88.4884 23.75V24.0625C88.4884 24.4323 88.5379 24.776 88.6369 25.0938C88.741 25.4062 88.8921 25.6797 89.09 25.9141C89.2879 26.1484 89.5275 26.3333 89.8088 26.4688C90.09 26.599 90.4103 26.6641 90.7697 26.6641C91.2228 26.6641 91.6265 26.5729 91.9806 26.3906C92.3348 26.2083 92.6421 25.9505 92.9025 25.6172L93.8947 26.5781C93.7124 26.8438 93.4754 27.099 93.1838 27.3438C92.8921 27.5833 92.5353 27.7786 92.1134 27.9297C91.6968 28.0807 91.2124 28.1562 90.6603 28.1562ZM103.902 25.9219L106.894 16.625H109.058L104.98 28H103.519L103.902 25.9219ZM101.137 16.625L104.105 25.9219L104.512 28H103.043L98.9803 16.625H101.137ZM112.32 19.5469V28H110.429V19.5469H112.32ZM110.304 17.3281C110.304 17.0417 110.398 16.8047 110.586 16.6172C110.778 16.4245 111.044 16.3281 111.382 16.3281C111.716 16.3281 111.979 16.4245 112.172 16.6172C112.364 16.8047 112.461 17.0417 112.461 17.3281C112.461 17.6094 112.364 17.8438 112.172 18.0312C111.979 18.2188 111.716 18.3125 111.382 18.3125C111.044 18.3125 110.778 18.2188 110.586 18.0312C110.398 17.8438 110.304 17.6094 110.304 17.3281ZM119.699 26.25V16H121.589V28H119.878L119.699 26.25ZM114.199 23.8672V23.7031C114.199 23.0625 114.274 22.4792 114.425 21.9531C114.576 21.4219 114.795 20.9661 115.082 20.5859C115.368 20.2005 115.717 19.9062 116.128 19.7031C116.54 19.4948 117.003 19.3906 117.519 19.3906C118.029 19.3906 118.477 19.4896 118.863 19.6875C119.248 19.8854 119.576 20.1693 119.847 20.5391C120.118 20.9036 120.334 21.3411 120.496 21.8516C120.657 22.3568 120.772 22.9193 120.839 23.5391V24.0625C120.772 24.6667 120.657 25.2188 120.496 25.7188C120.334 26.2188 120.118 26.651 119.847 27.0156C119.576 27.3802 119.246 27.6615 118.855 27.8594C118.47 28.0573 118.019 28.1562 117.503 28.1562C116.993 28.1562 116.532 28.0495 116.121 27.8359C115.714 27.6224 115.368 27.3229 115.082 26.9375C114.795 26.5521 114.576 26.099 114.425 25.5781C114.274 25.0521 114.199 24.4818 114.199 23.8672ZM116.082 23.7031V23.8672C116.082 24.2526 116.115 24.612 116.183 24.9453C116.256 25.2786 116.368 25.5729 116.519 25.8281C116.67 26.0781 116.865 26.276 117.105 26.4219C117.35 26.5625 117.641 26.6328 117.98 26.6328C118.407 26.6328 118.759 26.5391 119.035 26.3516C119.311 26.1641 119.527 25.9115 119.683 25.5938C119.845 25.2708 119.954 24.9115 120.011 24.5156V23.1016C119.98 22.7943 119.915 22.5078 119.816 22.2422C119.722 21.9766 119.595 21.7448 119.433 21.5469C119.272 21.3438 119.071 21.1875 118.832 21.0781C118.597 20.9635 118.319 20.9062 117.996 20.9062C117.652 20.9062 117.36 20.9792 117.121 21.125C116.881 21.2708 116.683 21.4714 116.527 21.7266C116.376 21.9818 116.264 22.2786 116.191 22.6172C116.118 22.9557 116.082 23.3177 116.082 23.7031ZM127.445 28.1562C126.82 28.1562 126.255 28.0547 125.749 27.8516C125.249 27.6432 124.822 27.3542 124.468 26.9844C124.119 26.6146 123.851 26.1797 123.663 25.6797C123.476 25.1797 123.382 24.6406 123.382 24.0625V23.75C123.382 23.0885 123.479 22.4896 123.671 21.9531C123.864 21.4167 124.132 20.9583 124.476 20.5781C124.82 20.1927 125.226 19.8984 125.695 19.6953C126.163 19.4922 126.671 19.3906 127.218 19.3906C127.822 19.3906 128.351 19.4922 128.804 19.6953C129.257 19.8984 129.632 20.1849 129.929 20.5547C130.231 20.9193 130.455 21.3542 130.601 21.8594C130.752 22.3646 130.827 22.9219 130.827 23.5312V24.3359H124.296V22.9844H128.968V22.8359C128.958 22.4974 128.89 22.1797 128.765 21.8828C128.645 21.5859 128.46 21.3464 128.21 21.1641C127.96 20.9818 127.627 20.8906 127.21 20.8906C126.898 20.8906 126.619 20.9583 126.374 21.0938C126.135 21.224 125.934 21.4141 125.773 21.6641C125.611 21.9141 125.486 22.2161 125.398 22.5703C125.314 22.9193 125.273 23.3125 125.273 23.75V24.0625C125.273 24.4323 125.322 24.776 125.421 25.0938C125.525 25.4062 125.676 25.6797 125.874 25.9141C126.072 26.1484 126.312 26.3333 126.593 26.4688C126.874 26.599 127.195 26.6641 127.554 26.6641C128.007 26.6641 128.411 26.5729 128.765 26.3906C129.119 26.2083 129.426 25.9505 129.687 25.6172L130.679 26.5781C130.497 26.8438 130.26 27.099 129.968 27.3438C129.676 27.5833 129.32 27.7786 128.898 27.9297C128.481 28.0807 127.997 28.1562 127.445 28.1562ZM132.097 23.8672V23.6875C132.097 23.0781 132.185 22.513 132.363 21.9922C132.54 21.4661 132.795 21.0104 133.128 20.625C133.467 20.2344 133.878 19.9323 134.363 19.7188C134.852 19.5 135.404 19.3906 136.019 19.3906C136.639 19.3906 137.191 19.5 137.675 19.7188C138.165 19.9323 138.579 20.2344 138.917 20.625C139.256 21.0104 139.514 21.4661 139.691 21.9922C139.868 22.513 139.956 23.0781 139.956 23.6875V23.8672C139.956 24.4766 139.868 25.0417 139.691 25.5625C139.514 26.0833 139.256 26.5391 138.917 26.9297C138.579 27.3151 138.167 27.6172 137.683 27.8359C137.198 28.0495 136.649 28.1562 136.034 28.1562C135.415 28.1562 134.86 28.0495 134.37 27.8359C133.886 27.6172 133.474 27.3151 133.136 26.9297C132.797 26.5391 132.54 26.0833 132.363 25.5625C132.185 25.0417 132.097 24.4766 132.097 23.8672ZM133.98 23.6875V23.8672C133.98 24.2474 134.019 24.6068 134.097 24.9453C134.175 25.2839 134.297 25.5807 134.464 25.8359C134.631 26.0911 134.844 26.2917 135.105 26.4375C135.365 26.5833 135.675 26.6562 136.034 26.6562C136.383 26.6562 136.685 26.5833 136.941 26.4375C137.201 26.2917 137.415 26.0911 137.581 25.8359C137.748 25.5807 137.87 25.2839 137.948 24.9453C138.032 24.6068 138.073 24.2474 138.073 23.8672V23.6875C138.073 23.3125 138.032 22.9583 137.948 22.625C137.87 22.2865 137.745 21.987 137.573 21.7266C137.407 21.4661 137.193 21.263 136.933 21.1172C136.678 20.9661 136.373 20.8906 136.019 20.8906C135.665 20.8906 135.357 20.9661 135.097 21.1172C134.842 21.263 134.631 21.4661 134.464 21.7266C134.297 21.987 134.175 22.2865 134.097 22.625C134.019 22.9583 133.98 23.3125 133.98 23.6875Z" fill="#2A292F"/>
<rect x="21" y="16" width="3" height="15" rx="1.5" fill="#5B4DBE"/>
<rect x="30" y="16" width="3" height="15" rx="1.5" fill="#5B4DBE"/>
</svg>
