<svg width="156" height="46" viewBox="0 0 156 46" fill="none" xmlns="http://www.w3.org/2000/svg">
<rect width="156" height="46" rx="6" fill="#5B4DBE"/>
<path d="M60.4362 25.0703C60.4362 24.8359 60.3998 24.6276 60.3269 24.4453C60.2592 24.263 60.1368 24.0964 59.9597 23.9453C59.7826 23.7943 59.5326 23.6484 59.2097 23.5078C58.892 23.362 58.4857 23.2135 57.9909 23.0625C57.4493 22.8958 56.9493 22.7109 56.4909 22.5078C56.0378 22.2995 55.642 22.0599 55.3034 21.7891C54.9649 21.513 54.7019 21.1979 54.5144 20.8438C54.3269 20.4844 54.2331 20.0703 54.2331 19.6016C54.2331 19.138 54.3295 18.7161 54.5222 18.3359C54.7201 17.9557 54.9987 17.6276 55.3581 17.3516C55.7227 17.0703 56.1524 16.8542 56.6472 16.7031C57.142 16.5469 57.6889 16.4688 58.2878 16.4688C59.1316 16.4688 59.8581 16.625 60.4675 16.9375C61.0821 17.25 61.5534 17.6693 61.8816 18.1953C62.2149 18.7214 62.3816 19.3021 62.3816 19.9375H60.4362C60.4362 19.5625 60.3555 19.2318 60.1941 18.9453C60.0378 18.6536 59.7982 18.4245 59.4753 18.2578C59.1576 18.0911 58.754 18.0078 58.2644 18.0078C57.8008 18.0078 57.4154 18.0781 57.1081 18.2188C56.8008 18.3594 56.5717 18.5495 56.4206 18.7891C56.2696 19.0286 56.1941 19.2995 56.1941 19.6016C56.1941 19.8151 56.2435 20.0104 56.3425 20.1875C56.4415 20.3594 56.5925 20.5208 56.7956 20.6719C56.9987 20.8177 57.254 20.9557 57.5612 21.0859C57.8685 21.2161 58.2305 21.3411 58.6472 21.4609C59.2774 21.6484 59.8269 21.8568 60.2956 22.0859C60.7644 22.3099 61.155 22.5651 61.4675 22.8516C61.78 23.138 62.0144 23.4635 62.1706 23.8281C62.3269 24.1875 62.405 24.5964 62.405 25.0547C62.405 25.5339 62.3086 25.9661 62.1159 26.3516C61.9232 26.7318 61.6472 27.0573 61.2878 27.3281C60.9336 27.5938 60.5066 27.7995 60.0066 27.9453C59.5118 28.0859 58.9597 28.1562 58.3503 28.1562C57.8034 28.1562 57.2644 28.0833 56.7331 27.9375C56.2071 27.7917 55.7279 27.5703 55.2956 27.2734C54.8633 26.9714 54.5196 26.5964 54.2644 26.1484C54.0092 25.6953 53.8816 25.1667 53.8816 24.5625H55.8425C55.8425 24.9323 55.905 25.2474 56.03 25.5078C56.1602 25.7682 56.3399 25.9818 56.5691 26.1484C56.7982 26.3099 57.0639 26.4297 57.3659 26.5078C57.6732 26.5859 58.0014 26.625 58.3503 26.625C58.8086 26.625 59.1915 26.5599 59.4987 26.4297C59.8112 26.2995 60.0456 26.1172 60.2019 25.8828C60.3581 25.6484 60.4362 25.3776 60.4362 25.0703ZM67.9869 19.5469V20.9219H63.2212V19.5469H67.9869ZM64.5962 17.4766H66.4791V25.6641C66.4791 25.9245 66.5155 26.125 66.5884 26.2656C66.6666 26.401 66.7733 26.4922 66.9087 26.5391C67.0442 26.5859 67.203 26.6094 67.3853 26.6094C67.5155 26.6094 67.6405 26.6016 67.7603 26.5859C67.8801 26.5703 67.9765 26.5547 68.0494 26.5391L68.0572 27.9766C67.9009 28.0234 67.7186 28.0651 67.5103 28.1016C67.3072 28.138 67.0728 28.1562 66.8072 28.1562C66.3749 28.1562 65.9921 28.0807 65.6587 27.9297C65.3254 27.7734 65.065 27.5208 64.8775 27.1719C64.69 26.8229 64.5962 26.3594 64.5962 25.7812V17.4766ZM69.0531 23.8672V23.6875C69.0531 23.0781 69.1417 22.513 69.3187 21.9922C69.4958 21.4661 69.751 21.0104 70.0844 20.625C70.4229 20.2344 70.8344 19.9323 71.3187 19.7188C71.8083 19.5 72.3604 19.3906 72.975 19.3906C73.5948 19.3906 74.1469 19.5 74.6312 19.7188C75.1208 19.9323 75.5349 20.2344 75.8734 20.625C76.212 21.0104 76.4698 21.4661 76.6469 21.9922C76.824 22.513 76.9125 23.0781 76.9125 23.6875V23.8672C76.9125 24.4766 76.824 25.0417 76.6469 25.5625C76.4698 26.0833 76.212 26.5391 75.8734 26.9297C75.5349 27.3151 75.1234 27.6172 74.6391 27.8359C74.1547 28.0495 73.6052 28.1562 72.9906 28.1562C72.3708 28.1562 71.8161 28.0495 71.3266 27.8359C70.8422 27.6172 70.4307 27.3151 70.0922 26.9297C69.7536 26.5391 69.4958 26.0833 69.3187 25.5625C69.1417 25.0417 69.0531 24.4766 69.0531 23.8672ZM70.9359 23.6875V23.8672C70.9359 24.2474 70.975 24.6068 71.0531 24.9453C71.1312 25.2839 71.2536 25.5807 71.4203 25.8359C71.587 26.0911 71.8005 26.2917 72.0609 26.4375C72.3214 26.5833 72.6312 26.6562 72.9906 26.6562C73.3396 26.6562 73.6417 26.5833 73.8969 26.4375C74.1573 26.2917 74.3708 26.0911 74.5375 25.8359C74.7042 25.5807 74.8266 25.2839 74.9047 24.9453C74.988 24.6068 75.0297 24.2474 75.0297 23.8672V23.6875C75.0297 23.3125 74.988 22.9583 74.9047 22.625C74.8266 22.2865 74.7016 21.987 74.5297 21.7266C74.363 21.4661 74.1495 21.263 73.8891 21.1172C73.6339 20.9661 73.3292 20.8906 72.975 20.8906C72.6208 20.8906 72.3135 20.9661 72.0531 21.1172C71.7979 21.263 71.587 21.4661 71.4203 21.7266C71.2536 21.987 71.1312 22.2865 71.0531 22.625C70.975 22.9583 70.9359 23.3125 70.9359 23.6875ZM80.5412 21.1719V31.25H78.6584V19.5469H80.3928L80.5412 21.1719ZM86.0491 23.6953V23.8594C86.0491 24.474 85.9761 25.0443 85.8303 25.5703C85.6897 26.0911 85.4787 26.5469 85.1975 26.9375C84.9215 27.3229 84.5803 27.6224 84.1741 27.8359C83.7678 28.0495 83.2991 28.1562 82.7678 28.1562C82.2418 28.1562 81.7808 28.0599 81.385 27.8672C80.9944 27.6693 80.6636 27.3906 80.3928 27.0312C80.122 26.6719 79.9032 26.25 79.7366 25.7656C79.5751 25.276 79.4605 24.7396 79.3928 24.1562V23.5234C79.4605 22.9036 79.5751 22.3411 79.7366 21.8359C79.9032 21.3307 80.122 20.8958 80.3928 20.5312C80.6636 20.1667 80.9944 19.8854 81.385 19.6875C81.7756 19.4896 82.2314 19.3906 82.7522 19.3906C83.2834 19.3906 83.7548 19.4948 84.1662 19.7031C84.5777 19.9062 84.9241 20.1979 85.2053 20.5781C85.4866 20.9531 85.6975 21.4062 85.8381 21.9375C85.9787 22.4635 86.0491 23.0495 86.0491 23.6953ZM84.1662 23.8594V23.6953C84.1662 23.3047 84.1298 22.9427 84.0569 22.6094C83.984 22.2708 83.8694 21.974 83.7131 21.7188C83.5569 21.4635 83.3564 21.2656 83.1116 21.125C82.872 20.9792 82.5829 20.9062 82.2444 20.9062C81.911 20.9062 81.6246 20.9635 81.385 21.0781C81.1454 21.1875 80.9449 21.3411 80.7834 21.5391C80.622 21.737 80.497 21.9688 80.4084 22.2344C80.3199 22.4948 80.2574 22.7786 80.2209 23.0859V24.6016C80.2834 24.9766 80.3902 25.3203 80.5412 25.6328C80.6923 25.9453 80.9058 26.1953 81.1819 26.3828C81.4631 26.5651 81.8225 26.6562 82.26 26.6562C82.5985 26.6562 82.8876 26.5833 83.1272 26.4375C83.3668 26.2917 83.5621 26.0911 83.7131 25.8359C83.8694 25.5755 83.984 25.276 84.0569 24.9375C84.1298 24.599 84.1662 24.2396 84.1662 23.8594ZM96.0409 25.9219L99.0331 16.625H101.197L97.1191 28H95.6581L96.0409 25.9219ZM93.2753 16.625L96.2441 25.9219L96.6503 28H95.1816L91.1191 16.625H93.2753ZM104.459 19.5469V28H102.568V19.5469H104.459ZM102.443 17.3281C102.443 17.0417 102.537 16.8047 102.724 16.6172C102.917 16.4245 103.183 16.3281 103.521 16.3281C103.855 16.3281 104.118 16.4245 104.31 16.6172C104.503 16.8047 104.599 17.0417 104.599 17.3281C104.599 17.6094 104.503 17.8438 104.31 18.0312C104.118 18.2188 103.855 18.3125 103.521 18.3125C103.183 18.3125 102.917 18.2188 102.724 18.0312C102.537 17.8438 102.443 17.6094 102.443 17.3281ZM111.837 26.25V16H113.728V28H112.017L111.837 26.25ZM106.337 23.8672V23.7031C106.337 23.0625 106.413 22.4792 106.564 21.9531C106.715 21.4219 106.934 20.9661 107.22 20.5859C107.507 20.2005 107.856 19.9062 108.267 19.7031C108.679 19.4948 109.142 19.3906 109.658 19.3906C110.168 19.3906 110.616 19.4896 111.002 19.6875C111.387 19.8854 111.715 20.1693 111.986 20.5391C112.257 20.9036 112.473 21.3411 112.634 21.8516C112.796 22.3568 112.91 22.9193 112.978 23.5391V24.0625C112.91 24.6667 112.796 25.2188 112.634 25.7188C112.473 26.2188 112.257 26.651 111.986 27.0156C111.715 27.3802 111.384 27.6615 110.994 27.8594C110.608 28.0573 110.158 28.1562 109.642 28.1562C109.132 28.1562 108.671 28.0495 108.259 27.8359C107.853 27.6224 107.507 27.3229 107.22 26.9375C106.934 26.5521 106.715 26.099 106.564 25.5781C106.413 25.0521 106.337 24.4818 106.337 23.8672ZM108.22 23.7031V23.8672C108.22 24.2526 108.254 24.612 108.322 24.9453C108.395 25.2786 108.507 25.5729 108.658 25.8281C108.809 26.0781 109.004 26.276 109.244 26.4219C109.489 26.5625 109.78 26.6328 110.119 26.6328C110.546 26.6328 110.897 26.5391 111.173 26.3516C111.449 26.1641 111.666 25.9115 111.822 25.5938C111.983 25.2708 112.093 24.9115 112.15 24.5156V23.1016C112.119 22.7943 112.054 22.5078 111.955 22.2422C111.861 21.9766 111.733 21.7448 111.572 21.5469C111.41 21.3438 111.21 21.1875 110.97 21.0781C110.736 20.9635 110.457 20.9062 110.134 20.9062C109.791 20.9062 109.499 20.9792 109.259 21.125C109.02 21.2708 108.822 21.4714 108.666 21.7266C108.515 21.9818 108.403 22.2786 108.33 22.6172C108.257 22.9557 108.22 23.3177 108.22 23.7031ZM119.583 28.1562C118.958 28.1562 118.393 28.0547 117.888 27.8516C117.388 27.6432 116.961 27.3542 116.607 26.9844C116.258 26.6146 115.99 26.1797 115.802 25.6797C115.615 25.1797 115.521 24.6406 115.521 24.0625V23.75C115.521 23.0885 115.617 22.4896 115.81 21.9531C116.003 21.4167 116.271 20.9583 116.615 20.5781C116.958 20.1927 117.365 19.8984 117.833 19.6953C118.302 19.4922 118.81 19.3906 119.357 19.3906C119.961 19.3906 120.49 19.4922 120.943 19.6953C121.396 19.8984 121.771 20.1849 122.068 20.5547C122.37 20.9193 122.594 21.3542 122.74 21.8594C122.891 22.3646 122.966 22.9219 122.966 23.5312V24.3359H116.435V22.9844H121.107V22.8359C121.096 22.4974 121.029 22.1797 120.904 21.8828C120.784 21.5859 120.599 21.3464 120.349 21.1641C120.099 20.9818 119.766 20.8906 119.349 20.8906C119.037 20.8906 118.758 20.9583 118.513 21.0938C118.274 21.224 118.073 21.4141 117.912 21.6641C117.75 21.9141 117.625 22.2161 117.537 22.5703C117.453 22.9193 117.412 23.3125 117.412 23.75V24.0625C117.412 24.4323 117.461 24.776 117.56 25.0938C117.664 25.4062 117.815 25.6797 118.013 25.9141C118.211 26.1484 118.451 26.3333 118.732 26.4688C119.013 26.599 119.333 26.6641 119.693 26.6641C120.146 26.6641 120.55 26.5729 120.904 26.3906C121.258 26.2083 121.565 25.9505 121.826 25.6172L122.818 26.5781C122.636 26.8438 122.399 27.099 122.107 27.3438C121.815 27.5833 121.458 27.7786 121.037 27.9297C120.62 28.0807 120.136 28.1562 119.583 28.1562ZM124.236 23.8672V23.6875C124.236 23.0781 124.324 22.513 124.501 21.9922C124.678 21.4661 124.934 21.0104 125.267 20.625C125.605 20.2344 126.017 19.9323 126.501 19.7188C126.991 19.5 127.543 19.3906 128.158 19.3906C128.777 19.3906 129.329 19.5 129.814 19.7188C130.303 19.9323 130.717 20.2344 131.056 20.625C131.394 21.0104 131.652 21.4661 131.829 21.9922C132.006 22.513 132.095 23.0781 132.095 23.6875V23.8672C132.095 24.4766 132.006 25.0417 131.829 25.5625C131.652 26.0833 131.394 26.5391 131.056 26.9297C130.717 27.3151 130.306 27.6172 129.822 27.8359C129.337 28.0495 128.788 28.1562 128.173 28.1562C127.553 28.1562 126.999 28.0495 126.509 27.8359C126.025 27.6172 125.613 27.3151 125.275 26.9297C124.936 26.5391 124.678 26.0833 124.501 25.5625C124.324 25.0417 124.236 24.4766 124.236 23.8672ZM126.118 23.6875V23.8672C126.118 24.2474 126.158 24.6068 126.236 24.9453C126.314 25.2839 126.436 25.5807 126.603 25.8359C126.769 26.0911 126.983 26.2917 127.243 26.4375C127.504 26.5833 127.814 26.6562 128.173 26.6562C128.522 26.6562 128.824 26.5833 129.079 26.4375C129.34 26.2917 129.553 26.0911 129.72 25.8359C129.887 25.5807 130.009 25.2839 130.087 24.9453C130.171 24.6068 130.212 24.2474 130.212 23.8672V23.6875C130.212 23.3125 130.171 22.9583 130.087 22.625C130.009 22.2865 129.884 21.987 129.712 21.7266C129.546 21.4661 129.332 21.263 129.072 21.1172C128.816 20.9661 128.512 20.8906 128.158 20.8906C127.803 20.8906 127.496 20.9661 127.236 21.1172C126.98 21.263 126.769 21.4661 126.603 21.7266C126.436 21.987 126.314 22.2865 126.236 22.625C126.158 22.9583 126.118 23.3125 126.118 23.6875Z" fill="white"/>
<rect x="23" y="13" width="20" height="20" rx="2" fill="white"/>
</svg>
