<?xml version="1.0" encoding="UTF-8" standalone="no"?>
<svg
        width="20"
        height="20"
        viewBox="0 0 20 20"
        fill="none"
        version="1.1"
        id="svg707"
        sodipodi:docname="login.svg"
        inkscape:version="1.2 (56b05e47e7, 2022-06-09, custom)"
        xmlns:inkscape="http://www.inkscape.org/namespaces/inkscape"
        xmlns:sodipodi="http://sodipodi.sourceforge.net/DTD/sodipodi-0.dtd"
        xmlns="http://www.w3.org/2000/svg"
>
  <defs
     id="defs711" />
  <sodipodi:namedview
     id="namedview709"
     pagecolor="#ffffff"
     bordercolor="#000000"
     borderopacity="0.25"
     inkscape:showpageshadow="2"
     inkscape:pageopacity="0.0"
     inkscape:pagecheckerboard="0"
     inkscape:deskcolor="#d1d1d1"
     showgrid="false"
     inkscape:zoom="40.65"
     inkscape:cx="8.8560886"
     inkscape:cy="7.6137761"
     inkscape:window-width="1920"
     inkscape:window-height="1016"
     inkscape:window-x="1920"
     inkscape:window-y="27"
     inkscape:window-maximized="1"
     inkscape:current-layer="svg707" />
  <path
     d="m 10.463713,9.956026 c -0.0834,-0.08333 -0.0834,-0.16666 -0.1667,-0.25 L 7.7970131,7.2060264 c -0.3333,-0.33333 -0.8333,-0.33333 -1.1667,0 -0.3333,0.33334 -0.3333,0.8333396 0,1.1666696 l 1.0834,1.08333 h -3.8334 c -0.5,0 -0.8333,0.33334 -0.8333,0.83331 0,0.5 0.3333,0.8334 0.8333,0.8334 h 3.8334 l -1.0834,1.0833 c -0.3333,0.3333 -0.3333,0.8333 0,1.1667 0.1667,0.1666 0.4167,0.25 0.5834,0.25 0.1666,0 0.4166,-0.0834 0.5833,-0.25 l 2.4999999,-2.5 c 0.0833,-0.0834 0.1667,-0.1667 0.1667,-0.25 0.0833,-0.25 0.0833,-0.41671 0,-0.66671 z"
     fill="#5b4dbe"
     id="path703" />
  <path
     d="m 6.2459091,15.247677 c 0.9167,0.5 1.9166999,0.75 2.9166999,0.75 3.25,0 5.83333,-2.5833 5.83333,-5.833299 0,-3.2500005 -2.58333,-5.8333305 -5.83333,-5.8333305 -1,0 -1.9999999,0.25 -2.9166999,0.75 -0.4166,0.25 -0.9166,0.08333 -1.1666,-0.33334 -0.25,-0.41666 -0.0834,-0.91666 0.3333,-1.16666 1.1667,-0.58334 2.4167,-0.91667 3.7499999,-0.91667 4.16667,0 7.5,3.33333 7.5,7.5000005 0,4.166699 -3.33333,7.499999 -7.5,7.499999 -1.3332999,0 -2.5832999,-0.3333 -3.7499999,-1 -0.4167,-0.25 -0.5,-0.75 -0.3333,-1.1667 0.25,-0.3333 0.75,-0.5 1.1666,-0.25 z"
     fill="#5b4dbe"
     id="path705" />
</svg>
