<svg width="20" height="20" viewBox="0 0 20 20" fill="none" xmlns="http://www.w3.org/2000/svg">
<path d="M17.4167 9.66699C17.3333 9.58366 17.3333 9.50033 17.25 9.41699L14.75 6.91699C14.4167 6.58366 13.9167 6.58366 13.5833 6.91699C13.25 7.25033 13.25 7.75033 13.5833 8.08366L14.6667 9.16699H10.8333C10.3333 9.16699 10 9.50033 10 10.0003C10 10.5003 10.3333 10.8337 10.8333 10.8337H14.6667L13.5833 11.917C13.25 12.2503 13.25 12.7503 13.5833 13.0837C13.75 13.2503 14 13.3337 14.1667 13.3337C14.3333 13.3337 14.5833 13.2503 14.75 13.0837L17.25 10.5837C17.3333 10.5003 17.4167 10.417 17.4167 10.3337C17.5 10.0837 17.5 9.91699 17.4167 9.66699Z" fill="#5B4DBE"/>
<path d="M12.9167 15.0833C12 15.5833 11 15.8333 10 15.8333C6.75 15.8333 4.16667 13.25 4.16667 10C4.16667 6.75 6.75 4.16667 10 4.16667C11 4.16667 12 4.41667 12.9167 4.91667C13.3333 5.16667 13.8333 5 14.0833 4.58333C14.3333 4.16667 14.1667 3.66667 13.75 3.41667C12.5833 2.83333 11.3333 2.5 10 2.5C5.83333 2.5 2.5 5.83333 2.5 10C2.5 14.1667 5.83333 17.5 10 17.5C11.3333 17.5 12.5833 17.1667 13.75 16.5C14.1667 16.25 14.25 15.75 14.0833 15.3333C13.8333 15 13.3333 14.8333 12.9167 15.0833Z" fill="#5B4DBE"/>
</svg>
