<svg width="332" height="298" viewBox="0 0 332 298" fill="none" xmlns="http://www.w3.org/2000/svg">
<path d="M104.817 35.2095C57.228 2.36207 25.1445 39.0042 15.0515 61.4313C26.7523 68.5942 52.7649 81.4464 72.5937 73.1579C92.4226 64.8692 103.12 44.2059 104.817 35.2095Z" fill="#ADA7DC"/>
<path d="M62.8756 70.3149C74.9519 70.3149 84.7416 60.5219 84.7416 48.4416C84.7416 36.3614 74.9519 26.5684 62.8756 26.5684C50.7994 26.5684 41.0096 36.3614 41.0096 48.4416C41.0096 60.5219 50.7994 70.3149 62.8756 70.3149Z" fill="#484096"/>
<path d="M15.6911 53.9717L1.11365 45.9131" stroke="black" stroke-width="1.4298" stroke-linecap="round"/>
<path d="M26.0575 38.8548L13.2029 28.2607" stroke="black" stroke-width="1.4298" stroke-linecap="round"/>
<path d="M43.2668 25.7414L33.6444 12.1426" stroke="black" stroke-width="1.4298" stroke-linecap="round"/>
<path d="M63.931 19.0888L62.1782 2.52051" stroke="black" stroke-width="1.4298" stroke-linecap="round"/>
<path d="M88.7134 22.2134L93.511 6.25879" stroke="black" stroke-width="1.4298" stroke-linecap="round"/>
<path d="M104.817 30.5182L113.98 16.6055" stroke="black" stroke-width="1.4298" stroke-linecap="round"/>
<path d="M174.419 99.6279H79.9645V194.114H174.419V99.6279Z" fill="#EEEDF8"/>
<path d="M168.202 71.6871L166.106 9.70801L227.106 12.7939L230.713 71.6871H168.202Z" stroke="black" stroke-width="1.4298"/>
<path d="M97.4478 70.615L95.2375 10.7422H155.503L157.422 70.615H97.4478Z" stroke="black" stroke-width="1.4298"/>
<path d="M96.2826 56.6152H157.386L158.22 71.2707H96.7612L96.2826 56.6152Z" fill="#5C51BB"/>
<path d="M30.5078 212.283L28.2963 152.377L86.9729 149.701L90.4647 212.283H30.5078Z" stroke="#CDCAEA" stroke-width="1.4298"/>
<path d="M74.4258 170.045C67.3268 162.944 61.423 174.117 59.3584 180.59C53.4028 176.777 40.9797 170.868 38.931 177.731C36.8823 184.594 51.6956 195.404 59.3584 199.952C67.3387 192.942 81.5247 177.147 74.4258 170.045Z" fill="#5C51BB"/>
<path d="M68.7867 257.097C63.2814 258.599 71.8445 260.175 76.8141 260.774C73.846 262.075 69.227 264.827 74.4964 265.431C79.7655 266.035 88.1696 262.826 91.7129 261.146C86.3647 259.172 74.2918 255.597 68.7867 257.097Z" fill="#5C51BB"/>
<path d="M102.996 274.956C97.4542 277.939 105.986 280.749 110.945 281.781C107.946 284.325 103.262 289.672 108.521 290.705C113.78 291.737 122.261 285.433 125.844 282.153C120.537 278.51 108.539 271.971 102.996 274.956Z" fill="#B6AEEA"/>
<path d="M28.2721 274.956C22.7299 277.939 31.2623 280.749 36.2212 281.781C33.222 284.325 28.5383 289.672 33.7969 290.705C39.0555 291.737 47.5366 285.433 51.1199 282.153C45.8132 278.51 33.8143 271.971 28.2721 274.956Z" fill="#5C51BB"/>
<path d="M87.0514 251.187L107.955 226.046M87.0514 230.276L107.955 251.187L87.0514 230.276Z" stroke="black" stroke-width="2.6213" stroke-linecap="round"/>
<path d="M59.3584 289.433L80.2027 282.642M59.3584 283.784L80.2027 289.433L59.3584 283.784Z" stroke="black" stroke-width="2.6213" stroke-linecap="round"/>
<path d="M42.6831 251.544L55.7852 241.178M42.6831 242.922L55.7852 251.544L42.6831 242.922Z" stroke="black" stroke-width="2.6213" stroke-linecap="round"/>
<path d="M99.9512 140.198L97.8568 78.2188L158.856 81.3046L162.463 140.198H99.9512Z" stroke="#CDCAEA" stroke-width="1.4298"/>
<path d="M120.105 121.139C122.845 107.287 135.418 81.6708 139.205 89.6303C143.939 99.5805 142.112 128.066 135.717 129.723C129.323 131.382 138.624 89.8257 146.596 92.752C152.973 95.0933 149.254 107.255 146.596 113.042C147.537 105.239 148.746 94.3129 161.794 86.9971" stroke="black" stroke-width="1.4298" stroke-linecap="round"/>
<path d="M30.5078 138.293L28.2976 78.4199H88.5629L90.4824 138.293H30.5078Z" stroke="#5C51BB" stroke-width="1.4298"/>
<path d="M171.177 140.794L168.965 80.8879L227.642 78.2119L231.133 140.794H171.177Z" stroke="black" stroke-width="1.4298"/>
<path d="M126.06 49.5853C134.283 49.5853 140.949 42.9172 140.949 34.6916C140.949 26.466 134.283 19.7979 126.06 19.7979C117.838 19.7979 111.172 26.466 111.172 34.6916C111.172 42.9172 117.838 49.5853 126.06 49.5853Z" fill="#B6AEEA"/>
<path d="M59.2988 90.2744L63.0068 99.6706L75.9625 93.4319L67.6306 105.47L78.3564 111.177L65.9804 112.703L66.7148 122.777L59.2988 115.921L49.0553 125.304L52.617 112.703L42.635 111.177L50.9669 105.47L47.5069 97.4234L55.5907 99.6706L59.2988 90.2744Z" fill="black"/>
<path d="M138.247 40.8867L139.607 44.3381L144.359 42.0466L141.303 46.4688L145.237 48.5652L140.698 49.1257L140.967 52.8265L138.247 50.308L134.49 53.7549L135.796 49.1257L132.135 48.5652L135.19 46.4688L133.922 43.5129L136.886 44.3381L138.247 40.8867Z" fill="#2D285E"/>
<path d="M63.5157 88.666L67.2237 98.0622L80.1794 91.8235L71.8475 103.861L82.5733 109.568L70.1974 111.095L70.9317 121.169L63.5157 114.313L53.2722 123.696L56.8341 111.095L46.8519 109.568L55.1838 103.861L51.7238 95.815L59.8077 98.0622L63.5157 88.666Z" fill="#B6AEEA"/>
<path d="M140.89 256.429H147.5H150.061C159.233 271.502 178.35 282.166 186.092 284.37C193.834 286.574 203.72 300.932 235.344 296.166C285.728 288.123 290.492 272.634 311.813 253.51C333.133 234.387 336.052 195.425 327.595 181.067C319.138 166.709 321.341 128.462 317.292 115.952C313.242 103.441 300.378 81.3981 268.814 67.815C243.563 56.9485 213.666 79.2137 201.874 91.7046C185.675 94.3736 163.521 108.981 154.468 115.952C153.852 117.063 147.036 126.496 124.691 155.331C96.759 191.373 119.926 239.867 124.691 241.357C129.455 242.846 134.636 256.429 140.89 256.429Z" fill="#CDCAEA"/>
<path d="M180.732 258.158C180.732 255.046 179.496 252.06 177.296 249.859C175.095 247.659 172.111 246.422 169 246.422C165.887 246.422 162.904 247.659 160.704 249.859C158.503 252.06 157.267 255.046 157.267 258.158H161.816C161.816 256.253 162.572 254.425 163.92 253.078C165.267 251.73 167.094 250.972 169 250.972C170.904 250.972 172.731 251.73 174.079 253.078C175.426 254.425 176.182 256.253 176.182 258.158H180.732Z" fill="#5C51BB"/>
<path d="M223.527 232.475C226.258 233.967 229.469 234.312 232.456 233.435C235.44 232.558 237.956 230.53 239.447 227.8C240.939 225.067 241.284 221.854 240.407 218.868C239.531 215.881 237.503 213.366 234.772 211.874L232.593 215.868C234.265 216.782 235.505 218.321 236.042 220.15C236.579 221.979 236.367 223.945 235.455 225.618C234.541 227.291 233.001 228.532 231.174 229.069C229.346 229.606 227.379 229.395 225.708 228.481L223.527 232.475Z" fill="#5C51BB"/>
<path d="M216.688 263.761C213.966 265.27 211.957 267.8 211.1 270.793C210.244 273.785 210.611 276.995 212.12 279.717C213.63 282.439 216.159 284.449 219.15 285.305C222.142 286.162 225.351 285.795 228.071 284.285L225.864 280.306C224.199 281.23 222.234 281.456 220.403 280.93C218.571 280.406 217.023 279.175 216.098 277.509C215.174 275.843 214.949 273.877 215.474 272.045C215.998 270.213 217.229 268.664 218.895 267.739L216.688 263.761Z" fill="#5C51BB"/>
<path d="M190.753 175.264C188.031 176.773 186.022 179.303 185.165 182.296C184.309 185.288 184.676 188.499 186.186 191.22C187.695 193.942 190.224 195.952 193.216 196.808C196.207 197.666 199.416 197.298 202.137 195.788L199.93 191.809C198.264 192.733 196.299 192.959 194.468 192.434C192.636 191.909 191.087 190.678 190.163 189.012C189.239 187.345 189.015 185.381 189.539 183.548C190.063 181.716 191.294 180.168 192.96 179.243L190.753 175.264Z" fill="#5C51BB"/>
<path d="M261.534 154.392C261.118 151.307 259.496 148.513 257.021 146.626C254.547 144.739 251.425 143.912 248.341 144.326C245.258 144.742 242.464 146.366 240.578 148.841C238.691 151.316 237.864 154.44 238.279 157.525L242.787 156.917C242.534 155.028 243.04 153.116 244.195 151.6C245.35 150.085 247.06 149.091 248.948 148.837C250.835 148.582 252.747 149.089 254.262 150.245C255.777 151.4 256.771 153.11 257.026 155L261.534 154.392Z" fill="#5C51BB"/>
<path d="M201.949 98.5039C203.66 101.105 206.332 102.918 209.38 103.547C212.427 104.177 215.599 103.569 218.199 101.858C220.798 100.148 222.612 97.4744 223.241 94.4254C223.87 91.3775 223.263 88.2034 221.552 85.6035L217.751 88.1045C218.798 89.6963 219.171 91.6396 218.785 93.5055C218.401 95.3726 217.29 97.0097 215.699 98.0571C214.108 99.1044 212.165 99.4761 210.299 99.0913C208.433 98.7052 206.797 97.5947 205.75 96.0029L201.949 98.5039Z" fill="#5C51BB"/>
<path d="M303.223 246.495C302.807 243.41 301.185 240.616 298.709 238.729C296.236 236.841 293.114 236.014 290.03 236.429C286.946 236.845 284.153 238.469 282.266 240.944C280.38 243.418 279.553 246.542 279.967 249.627L284.476 249.02C284.222 247.131 284.728 245.219 285.884 243.703C287.039 242.187 288.748 241.194 290.636 240.94C292.524 240.685 294.436 241.191 295.951 242.347C297.466 243.503 298.459 245.213 298.714 247.102L303.223 246.495Z" fill="#5C51BB"/>
<path d="M291.667 197.157C293.27 199.825 295.868 201.745 298.887 202.496C301.906 203.248 305.101 202.768 307.768 201.164C310.433 199.559 312.354 196.961 313.105 193.94C313.856 190.92 313.377 187.724 311.772 185.058L307.875 187.404C308.856 189.036 309.149 190.992 308.69 192.842C308.23 194.691 307.054 196.283 305.423 197.265C303.79 198.247 301.834 198.541 299.985 198.081C298.137 197.621 296.546 196.445 295.564 194.811L291.667 197.157Z" fill="#5C51BB"/>
<path d="M284.449 110.824C286.054 113.491 288.652 115.412 291.671 116.164C294.691 116.914 297.885 116.435 300.551 114.83C303.218 113.227 305.138 110.628 305.888 107.607C306.64 104.587 306.161 101.391 304.556 98.7236L300.658 101.07C301.641 102.703 301.934 104.66 301.474 106.509C301.014 108.358 299.838 109.949 298.205 110.932C296.574 111.914 294.618 112.207 292.769 111.747C290.921 111.287 289.331 110.111 288.348 108.478L284.449 110.824Z" fill="#5C51BB"/>
<path d="M156.764 133.939C158.368 136.605 160.966 138.526 163.985 139.278C167.005 140.028 170.199 139.549 172.865 137.945C175.532 136.341 177.452 133.742 178.202 130.722C178.954 127.701 178.475 124.506 176.871 121.838L172.972 124.184C173.955 125.817 174.248 127.774 173.788 129.623C173.328 131.472 172.153 133.063 170.52 134.046C168.888 135.028 166.932 135.321 165.083 134.861C163.235 134.401 161.645 133.225 160.662 131.593L156.764 133.939Z" fill="#5C51BB"/>
<path d="M142.756 171.986C141.441 169.164 139.059 166.981 136.135 165.917C133.211 164.853 129.984 164.994 127.165 166.309C124.344 167.626 122.162 170.008 121.098 172.933C120.033 175.858 120.175 179.086 121.49 181.907L125.613 179.983C124.807 178.257 124.722 176.28 125.373 174.489C126.025 172.698 127.36 171.24 129.087 170.434C130.813 169.629 132.789 169.542 134.579 170.194C136.369 170.845 137.827 172.182 138.633 173.909L142.756 171.986Z" fill="#5C51BB"/>
<path d="M239.275 125.246L211.939 120.838C210.807 125.584 208.544 135.72 208.544 138.293C208.544 140.867 213.268 147.905 215.631 151.102C218.509 151.022 225.589 149.922 230.877 146.157C236.166 142.392 238.679 130.647 239.275 125.246Z" fill="#5C51BB"/>
<path d="M154.23 200.071C165.367 205.513 191.893 214.763 208.902 208.233C230.163 200.071 226.411 201.978 230.877 195.603C235.344 189.229 237.547 180.292 243.146 176.956C248.744 173.62 247.612 160.931 243.146 145.679C238.679 130.428 253.985 86.1641 281.499 85.0322" stroke="black" stroke-width="1.4298" stroke-linecap="round"/>
<path d="M149.644 208.114L163.163 213.833M144.165 240.702C145.911 242.807 149.835 247.517 151.55 249.519L144.165 240.702ZM144.939 233.97L155.778 240.702L144.939 233.97ZM145.952 226.404L158.101 227.238L145.952 226.404ZM148.215 218.838H158.816H148.215Z" stroke="black" stroke-width="1.4298" stroke-linecap="round"/>
<path d="M195.561 97.6611C189.487 101.275 175.991 113.413 170.608 133.049C163.878 157.593 155.778 166.947 155.362 171.772C155.028 175.633 155.222 188.275 155.362 194.113" stroke="black" stroke-width="1.4298" stroke-linecap="round"/>
<path d="M228.019 79.4318C234.451 83.2049 251.519 87.951 260.953 77.4658" stroke="black" stroke-width="1.4298" stroke-linecap="round"/>
<path d="M239.87 85.628C242.033 86.1248 247.648 86.6765 252.794 84.9131" stroke="black" stroke-width="1.4298" stroke-linecap="round"/>
<path d="M230.136 66.2609C230.639 71.747 228.852 75.1428 227.959 77.1684C238.679 86.5216 259.94 82.5301 264.288 72.3428C262.263 69.364 257.541 63.3099 258.654 56.6309L230.136 66.2609Z" fill="#8C84CF"/>
<path d="M266.272 40.0768C266.272 55.7595 254.226 68.4729 239.367 68.4729C235.101 68.4729 229.161 69.3834 225.577 67.5177C216.678 62.8858 212.463 51.2565 212.463 40.0768C212.463 24.3941 224.508 11.6807 239.367 11.6807C254.226 11.6807 266.272 24.3941 266.272 40.0768Z" fill="#8C84CF"/>
<path d="M242.491 35.2274C233.2 35.7516 226.351 29.6869 224.088 26.589C222.082 26.0925 218.121 27.1252 218.311 35.2274C218.502 43.3295 215.769 48.8898 214.381 50.6573C216.424 56.1222 220.248 62.3768 224.088 65.2531C226.401 66.9859 228.991 68.0817 230.222 68.5297C230.346 71.2616 229.448 73.4743 229.21 73.7723L178.886 81.5766L180.256 77.466C182.578 70.3765 197.407 63.4659 200.087 60.368C202.767 57.2701 187.045 43.5678 197.407 36.955C207.77 30.3422 205.269 27.6613 208.723 15.5676C211.486 5.89267 223.254 3.91074 228.793 4.12926C243.229 -3.54399 258.213 0.256889 262.739 9.13355C265.479 12.8868 264.883 20.0358 272.685 18.9038C280.665 17.1166 289.718 21.7039 291.802 26.589C294.725 33.4401 287.514 41.8402 299.782 43.5678C309.597 44.95 318.204 51.0544 321.282 53.9339L301.986 62.2148L296.507 56.7339L294.423 64.4191L258.987 73.7127C257.934 72.8191 255.2 69.5187 252.674 63.4659C250.149 57.413 251.622 51.2132 252.674 48.87C253.151 44.104 251.781 34.7031 242.491 35.2274Z" fill="#120F25"/>
<path d="M229.291 57.6778L230.802 48.8105L235.365 56.1884L229.291 57.6778Z" fill="#5C51BB"/>
<path d="M237.83 69.613C239.135 69.7334 242.163 69.4105 243.822 67.1553" stroke="black" stroke-width="1.4298" stroke-linecap="round"/>
<path d="M230.574 49.5967L228.923 57.774L234.922 56.161" stroke="black" stroke-width="1.4298" stroke-linecap="round"/>
<path d="M237.128 60.915L230.084 62.3817C230.778 63.1745 232.547 64.3336 233.894 64.2852C236.119 64.2055 236.74 62.3116 237.128 60.915Z" stroke="black" stroke-width="1.4298"/>
<path d="M221.831 51.5191C222.913 51.5191 223.79 50.6417 223.79 49.5594C223.79 48.477 222.913 47.5996 221.831 47.5996C220.749 47.5996 219.872 48.477 219.872 49.5594C219.872 50.6417 220.749 51.5191 221.831 51.5191Z" fill="black"/>
<path d="M236.409 49.6119C237.491 49.6119 238.368 48.7345 238.368 47.6521C238.368 46.5698 237.491 45.6924 236.409 45.6924C235.327 45.6924 234.45 46.5698 234.45 47.6521C234.45 48.7345 235.327 49.6119 236.409 49.6119Z" fill="black"/>
<path d="M235.575 39.355C237.352 39.1677 239.691 39.6635 240.975 40.8168" stroke="black" stroke-width="1.4298" stroke-linecap="round"/>
<path d="M222.155 42.6611C220.371 42.7632 218.142 43.6305 217.062 44.9761" stroke="black" stroke-width="1.4298" stroke-linecap="round"/>
<path d="M257.136 51.0358C260.107 52.3478 263.974 50.1083 265.771 46.0338C267.569 41.9594 266.617 37.5928 263.645 36.2808C260.673 34.9688 256.807 37.2083 255.009 41.2828C253.212 45.3572 254.164 49.7238 257.136 51.0358Z" fill="#5C51BB"/>
<path d="M256.687 44.1771C257.489 42.5225 259.845 39.9154 261.548 39.2637" stroke="black" stroke-width="1.4298" stroke-linecap="round"/>
<path d="M260.2 40.3428C260.927 41.0273 261.893 42.6713 261.952 43.6598" stroke="black" stroke-width="1.4298" stroke-linecap="round"/>
<path d="M241.991 56.6309C243.106 56.6309 244.009 55.7274 244.009 54.6128C244.009 53.4983 243.106 52.5947 241.991 52.5947C240.877 52.5947 239.974 53.4983 239.974 54.6128C239.974 55.7274 240.877 56.6309 241.991 56.6309Z" fill="#5C51BB"/>
<path d="M221.237 57.7745C222.351 57.7745 223.254 56.8709 223.254 55.7564C223.254 54.6418 222.351 53.7383 221.237 53.7383C220.122 53.7383 219.219 54.6418 219.219 55.7564C219.219 56.8709 220.122 57.7745 221.237 57.7745Z" fill="#5C51BB"/>
<path d="M96.4319 146.369L150.746 198.675C141.598 212.878 141.694 231.68 142.885 239.306C113.06 225.818 94.2482 209.578 88.5707 203.144C85.7121 199.521 89.7618 195.836 92.144 194.446C88.7137 188.012 95.082 185.013 98.6951 184.318C97.7899 178.027 102.963 176.772 105.663 176.931C102.586 173.932 95.217 165.421 90.3573 155.364C85.4976 145.308 92.3821 145.177 96.4319 146.369Z" fill="#8C84CF"/>
<path d="M302.331 243.799L306.039 253.195L318.995 246.956L310.663 258.994L321.389 264.701L309.014 266.228L309.747 276.302L302.331 269.446L292.088 278.829L295.649 266.228L285.668 264.701L294 258.994L290.54 250.948L298.624 253.195L302.331 243.799Z" fill="#5C51BB"/>
</svg>
