<svg width="358" height="364" viewBox="0 0 358 364" fill="none" xmlns="http://www.w3.org/2000/svg">
<path d="M83.4867 295.098L1.72705 155.597L172.726 30.7754L271.959 157.52L83.4867 295.098Z" stroke="black" stroke-width="1.48733"/>
<path d="M211.71 141.881C203.411 135.572 183.092 124.986 168.208 133.112C149.606 143.269 153.719 166.435 151.131 172.389C148.542 178.344 141.306 212.847 72.6306 172.299" stroke="#5C51BB" stroke-width="1.48733" stroke-linecap="round"/>
<path d="M81.1086 191.617L64.3142 207.978L70.8213 212.564L66.8551 224.276L77.4523 226.941L80.1171 212.564L85.9424 213.245L81.1086 191.617Z" fill="#5C51BB" stroke="black" stroke-width="0.123944"/>
<path d="M80.2638 188.519L60.5341 207.75L68.1784 213.14L63.519 226.908L75.9684 230.04L79.099 213.14L85.9426 213.941L80.2638 188.519Z" stroke="black" stroke-width="1.48733"/>
<path d="M65.7398 83.043L16.2861 117.871L32.5228 143.156" stroke="#5C51BB" stroke-width="1.48733" stroke-linecap="round"/>
<path d="M91.3339 120.141L141.167 83.764L90.698 21.9561L55.4542 47.6826L53.3303 66.0429L91.3339 120.141Z" stroke="black" stroke-width="1.48733"/>
<path d="M155.148 77.7921L99.8412 118.164L56.7035 56.8294L58.7988 35.9113L97.8595 7.39844L155.148 77.7921Z" fill="#5C51BB"/>
<path d="M58.7988 35.8203L56.6918 56.7669L70.4496 45.8598L58.7988 35.8203Z" fill="black"/>
<path d="M0.745483 155.394L172.834 29.7764L190.445 53.9028L16.2045 181.093L0.745483 155.394Z" fill="#363071"/>
<path d="M129.509 135.533L181.876 99.8371M103.729 135.533L177.104 87.1328L103.729 135.533Z" stroke="black" stroke-width="1.48733" stroke-linecap="round"/>
<path d="M97.6743 308.841L69.2528 327.888M102.863 295.928L63.8494 322.941L102.863 295.928Z" stroke="black" stroke-width="1.48733" stroke-linecap="round"/>
<path d="M23.569 163.746C26.3888 161.688 27.006 157.733 24.9477 154.914C22.8894 152.094 18.935 151.477 16.1152 153.535C13.2955 155.593 12.6782 159.548 14.7365 162.367C16.7948 165.187 20.7493 165.804 23.569 163.746Z" fill="#6B61C2"/>
<path d="M38.1851 153.077C41.0049 151.019 41.6221 147.064 39.5638 144.245C37.5055 141.425 33.5511 140.808 30.7313 142.866C27.9116 144.924 27.2943 148.879 29.3526 151.698C31.4109 154.518 35.3654 155.135 38.1851 153.077Z" fill="#9C96D6"/>
<path d="M52.8008 142.407C55.6206 140.349 56.2378 136.394 54.1795 133.575C52.1212 130.755 48.1668 130.138 45.3471 132.196C42.5273 134.254 41.91 138.209 43.9683 141.028C46.0267 143.848 49.9811 144.465 52.8008 142.407Z" fill="#DEDCF1"/>
<path d="M153.245 201.153C150.84 190.797 139.813 171.647 136.492 177.598C132.34 185.036 133.943 206.331 139.551 207.571C145.16 208.81 137.002 177.743 130.01 179.931C124.417 181.681 127.679 190.774 130.01 195.101C129.185 189.266 128.124 181.099 116.681 175.629" stroke="#5C51BB" stroke-width="1.48733" stroke-linecap="round"/>
<path d="M77.3904 345.889C72.7054 325.739 51.2115 288.478 44.7378 300.057C36.6456 314.53 39.7689 355.963 50.7004 358.375C61.632 360.787 45.7316 300.341 32.1027 304.597C21.1995 308.003 27.5597 325.692 32.1027 334.112C30.4937 322.76 28.4267 306.867 6.12256 296.226" stroke="#5C51BB" stroke-width="1.48733" stroke-linecap="round"/>
<path d="M354.654 53.9533C347.687 74.1023 315.727 111.364 306.1 99.7852C294.067 85.312 298.712 43.879 314.967 41.4668C331.221 39.0546 307.578 99.5015 287.312 95.2447C271.101 91.8392 280.557 74.1498 287.312 65.7307C284.92 77.0823 281.846 92.9743 248.682 103.616" stroke="#5C51BB" stroke-width="1.48733" stroke-linecap="round"/>
<path d="M78.8778 55.4247L101.573 38.7959L117.25 60.1915L93.3793 78.2101L78.8778 55.4247Z" fill="#DEDCF1"/>
<path d="M106.099 15.6077C108.975 13.6908 110.292 10.6129 109.039 8.73311C107.787 6.85333 104.439 6.8835 101.562 8.80048C98.6858 10.7175 97.3694 13.7953 98.6221 15.6751C99.8747 17.5549 103.222 17.5247 106.099 15.6077Z" fill="black"/>
<path d="M110.561 21.681C113.437 19.764 114.754 16.6861 113.501 14.8063C112.248 12.9266 108.901 12.9567 106.024 14.8737C103.148 16.7907 101.831 19.8686 103.084 21.7484C104.337 23.6281 107.684 23.598 110.561 21.681Z" fill="black"/>
<path d="M115.643 27.0111C118.519 25.0941 119.836 22.0162 118.583 20.1364C117.33 18.2567 113.983 18.2868 111.106 20.2038C108.23 22.1208 106.913 25.1987 108.166 27.0784C109.418 28.9582 112.766 28.928 115.643 27.0111Z" fill="black"/>
<path d="M120.105 33.0843C122.981 31.1673 124.298 28.0894 123.045 26.2097C121.792 24.3299 118.445 24.3601 115.568 26.277C112.692 28.194 111.375 31.2719 112.628 33.1517C113.88 35.0315 117.228 35.0013 120.105 33.0843Z" fill="black"/>
<path d="M124.566 38.7855C127.443 36.8685 128.759 33.7906 127.507 31.9108C126.254 30.0311 122.906 30.0612 120.03 31.9782C117.153 33.8952 115.837 36.9731 117.089 38.8528C118.342 40.7326 121.69 40.7025 124.566 38.7855Z" fill="black"/>
<path d="M129.028 44.8587C131.905 42.9417 133.221 39.8639 131.969 37.9841C130.716 36.1043 127.369 36.1345 124.492 38.0515C121.615 39.9684 120.299 43.0463 121.552 44.9261C122.804 46.8059 126.152 46.7757 129.028 44.8587Z" fill="black"/>
<path d="M134.11 50.1888C136.987 48.2718 138.303 45.1939 137.05 43.3142C135.798 41.4344 132.45 41.4646 129.574 43.3815C126.697 45.2985 125.381 48.3764 126.633 50.2562C127.886 52.1359 131.233 52.1058 134.11 50.1888Z" fill="black"/>
<path d="M138.572 56.262C141.449 54.3451 142.765 51.2672 141.512 49.3874C140.26 47.5076 136.912 47.5378 134.036 49.4548C131.159 51.3718 129.843 54.4496 131.095 56.3294C132.348 58.2092 135.695 58.179 138.572 56.262Z" fill="black"/>
<path d="M150.724 236.197L181.086 274.978L64.6862 347.787L15.9944 273.6L54.5228 245.474" stroke="black" stroke-width="1.48733"/>
<path d="M15.1868 274.19L54.9588 245.158L68.4045 268.154L29.7865 295.235L15.1868 274.19Z" fill="#484096"/>
<path d="M34.2976 283.193C36.644 281.48 37.1577 278.189 35.4449 275.843C33.7321 273.496 30.4415 272.983 28.0951 274.696C25.7487 276.408 25.235 279.699 26.9478 282.045C28.6606 284.392 31.9512 284.905 34.2976 283.193Z" fill="#6B61C2"/>
<path d="M46.4601 274.313C48.8065 272.6 49.3201 269.309 47.6074 266.963C45.8946 264.617 42.604 264.103 40.2576 265.816C37.9112 267.529 37.3975 270.819 39.1103 273.166C40.8231 275.512 44.1137 276.026 46.4601 274.313Z" fill="#9C96D6"/>
<path d="M58.6227 265.437C60.9691 263.724 61.4827 260.433 59.77 258.087C58.0572 255.741 54.7666 255.227 52.4202 256.94C50.0738 258.653 49.5601 261.943 51.2729 264.29C52.9857 266.636 56.2763 267.15 58.6227 265.437Z" fill="#DEDCF1"/>
<path d="M219.307 22.6195C229.52 25.6438 232.073 39.4552 232.073 45.983L212.304 77.7127C207.862 78.167 195.906 77.44 183.611 70.8957C171.316 64.3515 181.916 56.0637 188.754 52.7379C190.757 51.2712 193.923 45.6731 190.552 35.0139C187.18 24.3548 177.331 23.6317 172.828 24.6026C170.018 24.9951 165.441 24.3919 169.605 18.8393C178.033 8.18004 196.005 12.6626 203.938 16.2364C208.102 14.6499 213.935 19.8308 216.332 22.6195H219.307Z" fill="#FFCD00"/>
<path d="M137.797 309.141L84.5791 240.513C82.2813 236.504 82.9066 232.372 90.1069 235.715C93.9477 237.497 96.5697 239.267 96.9821 239.811L89.6385 229.023C87.3244 224.398 90.4113 219.006 97.223 224.404C98.8606 225.667 100.713 227.639 101.434 228.467L97.8574 221.939C95.0761 216.404 97.5055 209.688 104.945 214.827C109.27 217.902 111.738 220.429 115.881 225.438L111.822 214.317C111.681 210.777 112.882 205.023 118.805 210.332C124.727 215.641 140.6 240.034 143.043 243.817C143.693 244.014 143.595 244.94 143.954 243C144.402 240.575 144.617 227.489 145.97 222.23C146.747 219.208 149.267 215.543 153.365 224.132C157.464 232.722 161.448 266.602 163.688 270.158C165.37 272.828 169.832 280.12 170.493 280.527C170.52 280.522 170.546 280.518 170.572 280.515C170.563 280.55 170.536 280.553 170.493 280.527C165.324 281.318 149.82 290.682 149.82 290.682C149.82 290.682 136.739 298.618 137.797 309.141Z" fill="#FFCD00"/>
<path d="M97.1658 240.286L111.849 259.153" stroke="black" stroke-width="1.48733" stroke-linecap="round"/>
<path d="M101.976 229.083L116.66 247.95" stroke="black" stroke-width="1.48733" stroke-linecap="round"/>
<path d="M115.628 225.062L130.311 243.928" stroke="black" stroke-width="1.48733" stroke-linecap="round"/>
<path d="M235.171 46.292C209.589 45.3996 209.267 72.5681 212.304 86.2639C213.801 93.0189 275.701 125.058 276.321 129.087C276.817 132.309 268.884 148.691 264.856 156.478C257.439 160.671 234.948 175.801 204.309 202.771C173.67 229.742 171.381 263.132 174.067 276.456C173.302 273.584 170.175 267.272 163.78 264.991C155.785 262.14 150.642 261.025 136.388 271.87C124.985 280.546 123.622 292.631 124.366 297.588L131.244 305.583C144.176 322.894 172.096 358.321 180.326 361.544C190.614 365.572 206.602 362.659 212.304 357.515C216.865 353.4 222.219 330.681 224.326 319.836L230.586 344.377C265.972 355.222 309.414 334.09 312.822 329.566C316.231 325.042 339.099 315.808 345.977 310.727C351.481 306.661 356.285 293.003 358 286.681C354.178 272.407 345.048 240.773 339.099 228.428C331.662 212.997 333.955 115.391 328.811 107.954C324.696 102.005 305.406 84.9005 296.276 77.092C288.901 71.9484 273.086 68.7878 264.856 62.8385C254.569 55.4018 246.574 49.7004 235.171 46.292Z" fill="#5C51BB"/>
<path d="M253.391 54.8447C249.983 59.6166 247.839 73.9197 253.391 79.8194C260.332 87.1941 288.715 79.4476 296.09 90.4786C301.99 99.3034 319.825 105.6 323.482 101.943M258.349 116.755C262.501 109.008 301.382 112.144 302.225 120.473C303.279 130.884 291.705 126.21 282.642 133.859C279.64 136.392 273.098 146.625 270.372 145.324M211.002 74.5518C215.712 74.5518 225.006 80.4021 225.628 88.1857C225.877 91.3083 224.574 95.3124 224.079 96.0561M332.406 146.191C325.403 146.191 323.225 165.257 314.062 183.437C303.581 204.228 274.772 221.178 281.96 245.904C288.885 269.724 341.392 256.13 348.642 254.704M348.518 308.124C345.358 305.336 345.383 294.639 335.318 290.772C322.738 285.938 311.519 295.171 296.09 295.606C276.067 296.171 253.391 288.355 245.025 290.772C238.332 292.706 239.344 303.807 240.687 309.116C245.893 319.713 267.893 339.172 269.318 345.989M170.225 353.054C175.183 348.406 178.811 329.461 191.481 328.389C204.156 327.317 210.941 346.981 216.58 349.15M138.681 270.135C141.036 273.172 130.712 281.501 134.529 290.772C139.301 302.361 154.089 305.163 155.723 318.784C156.46 324.924 155.723 333.223 153.988 334.524M229.594 199.24C238.001 202.255 256.763 206.081 264.546 197.256C272.33 188.432 268.574 177.673 265.724 173.397M194.828 232.147C206.052 225.461 224.934 223.966 229.594 230.907C235.419 239.583 256.93 256.412 258.287 259.414C264.67 273.544 254.507 283.088 224.203 274.845C199.959 268.252 192.729 297.518 181.814 284.513C175.438 276.918 174.898 269.875 177.971 259.414C181.045 248.953 184.397 238.359 194.828 232.147Z" stroke="#DEDCF1" stroke-width="1.48733"/>
<path d="M174.315 278.625C173.117 288.686 171.44 309.723 174.315 313.391C177.191 317.06 178.57 324.794 178.901 328.203" stroke="black" stroke-width="1.48733" stroke-linecap="round"/>
<path d="M281.031 125.784C282.952 119.855 291.467 112.249 295.78 111.902C301.172 111.468 315.797 107.626 318.958 109.423" stroke="black" stroke-width="1.48733" stroke-linecap="round"/>
<path d="M283.634 128.359C286.921 126.354 293.955 126.207 296.101 127.774C298.786 129.734 307.142 133.802 307.888 135.911" stroke="black" stroke-width="1.48733" stroke-linecap="round"/>
<path d="M170.482 289.906C167.343 292.138 164.44 298.546 165.035 301.138C165.78 304.377 166.23 313.66 167.875 315.175" stroke="black" stroke-width="1.48733" stroke-linecap="round"/>
<path d="M172.084 159.021C172.084 162.01 171.283 164.684 170.028 166.586C168.77 168.496 167.114 169.556 165.391 169.556C163.667 169.556 162.012 168.496 160.753 166.586C159.498 164.684 158.698 162.01 158.698 159.021C158.698 156.031 159.498 153.358 160.753 151.455C162.012 149.545 163.667 148.485 165.391 148.485C167.114 148.485 168.77 149.545 170.028 151.455C171.283 153.358 172.084 156.031 172.084 159.021Z" stroke="black" stroke-width="1.48733"/>
<path d="M190.8 186.536C204.832 186.536 216.208 175.16 216.208 161.127C216.208 147.095 204.832 135.719 190.8 135.719C176.767 135.719 165.391 147.095 165.391 161.127C165.391 175.16 176.767 186.536 190.8 186.536Z" fill="#FFCD00"/>
<path d="M198.546 172.778C203.509 172.778 207.532 168.754 207.532 163.792C207.532 158.829 203.509 154.806 198.546 154.806C193.583 154.806 189.56 158.829 189.56 163.792C189.56 168.754 193.583 172.778 198.546 172.778Z" fill="#FF8A00"/>
<path d="M170.659 168.44C172.062 168.44 173.2 167.163 173.2 165.589C173.2 164.015 172.062 162.738 170.659 162.738C169.255 162.738 168.118 164.015 168.118 165.589C168.118 167.163 169.255 168.44 170.659 168.44Z" fill="#FF8A00"/>
<path d="M192.411 162.739C193.836 161.314 196.997 159.889 199.166 159.889" stroke="black" stroke-width="1.48733" stroke-linecap="round"/>
<path d="M196.625 160.364C197.095 161.088 198.084 163.47 198.236 165.093" stroke="black" stroke-width="1.48733" stroke-linecap="round"/>
<path d="M162.751 142.895L186.184 153.937L189.746 163.234C189.641 161.247 191.483 156.474 196.232 155.724C202.168 154.789 206.153 164.459 202.458 169.29C199.502 173.155 195.387 172.255 193.699 171.323L206.94 215.098L280.146 170.984C280.146 170.984 266.889 152.544 245.775 130.389C224.507 108.073 207.309 114.304 200.86 119.186C180.221 113.264 166.854 132.524 162.751 142.895Z" fill="black"/>
<path d="M158.698 158.772L191.481 155.611" stroke="black" stroke-width="1.48733"/>
<path d="M208.524 183.993C208.524 192.79 201.393 199.92 192.597 199.92C183.801 199.92 176.67 192.79 176.67 183.993C176.67 175.197 183.801 168.066 192.597 168.066" stroke="black" stroke-width="1.48733"/>
<path d="M150.456 93.3921L147.791 72.0117L172.766 82.2371L150.456 93.3921Z" fill="black"/>
<path d="M206.604 12.1568L181.369 0L147.557 70.1883L148.902 81.79L150.245 77.3411L151.695 83.8481L156.467 79.634L154.856 84.7777L163.346 83.8481L161.519 87.8685L172.793 82.3451L206.604 12.1568Z" fill="#7B73C9"/>
<path d="M155.042 69.7792L185.532 7.86914" stroke="black" stroke-width="1.48733" stroke-linecap="round"/>
<path d="M161.425 72.0731L191.915 10.1631" stroke="black" stroke-width="1.48733" stroke-linecap="round"/>
<path d="M167.87 75.9159L198.36 14.0059" stroke="black" stroke-width="1.48733" stroke-linecap="round"/>
<path d="M172.456 51.3134C177.116 52.6519 184.354 53.2758 187.391 53.4204L180.264 68.4796C155.413 54.288 166.63 49.6401 172.456 51.3134Z" fill="#FFCD00"/>
<path d="M322.8 193.642C322.8 199.004 324.018 209.466 329.426 209.466C334.834 209.466 342.383 199.004 342.383 193.642C342.383 188.28 337.999 183.934 332.591 183.934C327.184 183.934 322.8 188.28 322.8 193.642Z" fill="#24204B"/>
<path d="M301.741 204.734C301.741 207.832 302.439 213.874 305.536 213.874C308.633 213.874 312.956 207.832 312.956 204.734C312.956 201.637 310.445 199.127 307.348 199.127C304.252 199.127 301.741 201.637 301.741 204.734Z" fill="#24204B"/>
<path d="M317.344 224.289C317.344 227.386 318.042 233.428 321.139 233.428C324.236 233.428 328.56 227.386 328.56 224.289C328.56 221.193 326.048 218.682 322.952 218.682C319.855 218.682 317.344 221.193 317.344 224.289Z" fill="#363071"/>
<path d="M301.716 224.289C301.716 227.386 302.413 233.428 305.511 233.428C308.607 233.428 312.93 227.386 312.93 224.289C312.93 221.193 310.42 218.682 307.323 218.682C304.227 218.682 301.716 221.193 301.716 224.289Z" fill="#363071"/>
<path d="M286.112 224.289C286.112 227.386 286.81 233.428 289.906 233.428C293.004 233.428 297.327 227.386 297.327 224.289C297.327 221.193 294.817 218.682 291.72 218.682C288.622 218.682 286.112 221.193 286.112 224.289Z" fill="#363071"/>
<path d="M317.147 243.843C317.147 246.939 317.845 252.982 320.942 252.982C324.038 252.982 328.362 246.939 328.362 243.843C328.362 240.745 325.851 238.235 322.754 238.235C319.658 238.235 317.147 240.745 317.147 243.843Z" fill="#484096"/>
<path d="M77.1153 154.483C77.1153 156.426 76.6774 160.218 74.734 160.218C72.7906 160.218 70.0776 156.426 70.0776 154.483C70.0776 152.539 71.6531 150.964 73.5965 150.964C75.5398 150.964 77.1153 152.539 77.1153 154.483Z" fill="#DEDCF1"/>
<path d="M86.9228 154.483C86.9228 156.426 86.4849 160.218 84.5415 160.218C82.5981 160.218 79.8851 156.426 79.8851 154.483C79.8851 152.539 81.4606 150.964 83.404 150.964C85.3473 150.964 86.9228 152.539 86.9228 154.483Z" fill="#9C96D6"/>
<path d="M96.7143 154.483C96.7143 156.426 96.2764 160.218 94.333 160.218C92.3896 160.218 89.6766 156.426 89.6766 154.483C89.6766 152.539 91.2521 150.964 93.1955 150.964C95.1388 150.964 96.7143 152.539 96.7143 154.483Z" fill="#6B61C2"/>
</svg>
