<svg width="18" height="18" viewBox="0 0 18 18" fill="none" xmlns="http://www.w3.org/2000/svg">
<path d="M14.8733 12.3425C14.7059 12.3425 14.5385 12.3425 14.3726 12.3425C13.9485 12.3425 13.5243 12.3425 13.1018 12.3425C12.5453 12.3425 11.9888 12.3425 11.4323 12.3425C10.8599 12.3425 10.2859 12.3425 9.71346 12.3425C9.24946 12.3425 8.78545 12.3425 8.32145 12.3425C8.08387 12.3425 7.84469 12.3409 7.60711 12.3425C7.45722 12.3441 7.30096 12.3696 7.1734 12.451C7.10165 12.4972 7.03787 12.5514 6.97728 12.6104C6.88798 12.6981 6.79869 12.7842 6.7094 12.8719C6.35861 13.2131 6.00941 13.5544 5.65862 13.8956C5.25361 14.2894 4.8502 14.6833 4.44519 15.0771C4.20123 15.3147 3.95887 15.5507 3.71491 15.7882C3.69896 15.8042 3.68302 15.8201 3.66707 15.8345C3.72128 15.793 3.7739 15.7516 3.82812 15.7101C3.80739 15.7261 3.78825 15.7372 3.76593 15.7468C3.82971 15.7197 3.89349 15.6926 3.95568 15.6671C3.93814 15.6734 3.92379 15.6766 3.90625 15.6798C3.97641 15.6702 4.04816 15.6607 4.11832 15.6511C4.09599 15.6543 4.07367 15.6527 4.05135 15.6511C4.12151 15.6607 4.19326 15.6702 4.26342 15.6798C4.24109 15.675 4.22037 15.6686 4.19964 15.6607C4.26342 15.6878 4.3272 15.7149 4.38938 15.7404C4.37344 15.7324 4.36068 15.7245 4.34633 15.7149C4.40055 15.7563 4.45316 15.7978 4.50738 15.8393C4.48984 15.8249 4.47389 15.809 4.45954 15.7914C4.501 15.8456 4.54246 15.8983 4.58391 15.9525C4.57435 15.9381 4.56637 15.9238 4.5584 15.9078C4.58551 15.9716 4.61262 16.0354 4.63813 16.0976C4.63175 16.08 4.62697 16.0641 4.62378 16.0449C4.63334 16.1151 4.64291 16.1869 4.65248 16.257C4.63972 16.1502 4.64929 16.037 4.64929 15.9285C4.64929 15.6846 4.64929 15.4406 4.64929 15.1951C4.64929 14.637 4.64929 14.0805 4.64929 13.5225C4.64929 13.3949 4.64929 13.2673 4.64929 13.1382C4.64929 12.7077 4.28415 12.3409 3.85203 12.3409C3.41035 12.3409 2.96867 12.3409 2.5254 12.3409C2.44089 12.3409 2.35479 12.3441 2.27028 12.3346C2.34044 12.3441 2.41219 12.3537 2.48235 12.3633C2.41219 12.3537 2.34363 12.3346 2.27666 12.3091C2.34044 12.3362 2.40422 12.3633 2.4664 12.3888C2.39624 12.3585 2.33087 12.3218 2.26868 12.274C2.3229 12.3154 2.37552 12.3569 2.42973 12.3983C2.37552 12.3553 2.32768 12.3075 2.28463 12.2532C2.32609 12.3075 2.36754 12.3601 2.409 12.4143C2.36276 12.3537 2.32449 12.2883 2.2942 12.2166C2.3213 12.2804 2.34841 12.3441 2.37392 12.4063C2.34841 12.3394 2.32928 12.2724 2.31971 12.2006C2.32928 12.2708 2.33884 12.3425 2.34841 12.4127C2.33565 12.3027 2.34203 12.1879 2.34203 12.0763C2.34203 11.8562 2.34203 11.6362 2.34203 11.4177C2.34203 10.6859 2.34203 9.9524 2.34203 9.22053C2.34203 8.32442 2.34203 7.42991 2.34203 6.53381C2.34203 5.76526 2.34203 4.99512 2.34203 4.22658C2.34203 3.86304 2.33884 3.50109 2.34203 3.13754C2.34203 3.09768 2.34522 3.05782 2.34841 3.01796C2.33884 3.08811 2.32928 3.15987 2.31971 3.23002C2.32928 3.15987 2.34841 3.0913 2.37392 3.02433C2.34681 3.08811 2.31971 3.15189 2.2942 3.21408C2.32449 3.14392 2.36117 3.07855 2.409 3.01636C2.36754 3.07057 2.32609 3.12319 2.28463 3.1774C2.32768 3.12319 2.37552 3.07536 2.42973 3.03231C2.37552 3.07376 2.3229 3.11522 2.26868 3.15668C2.32928 3.11044 2.39465 3.07217 2.4664 3.04187C2.40262 3.06898 2.33884 3.09609 2.27666 3.1216C2.34363 3.09609 2.4106 3.07695 2.48235 3.06738C2.41219 3.07695 2.34044 3.08652 2.27028 3.09609C2.409 3.08014 2.55251 3.08971 2.69282 3.08971C2.99259 3.08971 3.29236 3.08971 3.59213 3.08971C4.04178 3.08971 4.49143 3.08971 4.94268 3.08971C5.49119 3.08971 6.0413 3.08971 6.58981 3.08971C7.19413 3.08971 7.80004 3.08971 8.40436 3.08971C9.01187 3.08971 9.62098 3.08971 10.2285 3.08971C10.7977 3.08971 11.3654 3.08971 11.9346 3.08971C12.4114 3.08971 12.8881 3.08971 13.3665 3.08971C13.7077 3.08971 14.0505 3.08971 14.3918 3.08971C14.548 3.08971 14.7043 3.08971 14.8605 3.08971C14.902 3.08971 14.9435 3.0913 14.9849 3.09609C14.9148 3.08652 14.843 3.07695 14.7728 3.06738C14.843 3.07695 14.9116 3.09609 14.9785 3.1216C14.9148 3.09449 14.851 3.06738 14.7888 3.04187C14.8589 3.07217 14.9243 3.10884 14.9865 3.15668C14.9323 3.11522 14.8797 3.07376 14.8255 3.03231C14.8797 3.07536 14.9275 3.12319 14.9706 3.1774C14.9291 3.12319 14.8876 3.07057 14.8462 3.01636C14.8924 3.07695 14.9307 3.14233 14.961 3.21408C14.9339 3.1503 14.9068 3.08652 14.8813 3.02433C14.9068 3.0913 14.9259 3.15827 14.9355 3.23002C14.9259 3.15987 14.9164 3.08811 14.9068 3.01796C14.9195 3.12798 14.9132 3.24278 14.9132 3.35439C14.9132 3.57443 14.9132 3.79447 14.9132 4.01292C14.9132 4.74479 14.9132 5.47826 14.9132 6.21013C14.9132 7.10623 14.9132 8.00074 14.9132 8.89684C14.9132 9.66539 14.9132 10.4355 14.9132 11.2041C14.9132 11.5676 14.9163 11.9296 14.9132 12.2931C14.9132 12.333 14.91 12.3728 14.9068 12.4127C14.9164 12.3425 14.9259 12.2708 14.9355 12.2006C14.9259 12.2708 14.9068 12.3394 14.8813 12.4063C14.9084 12.3425 14.9355 12.2788 14.961 12.2166C14.9307 12.2867 14.894 12.3521 14.8462 12.4143C14.8876 12.3601 14.9291 12.3075 14.9706 12.2532C14.9275 12.3075 14.8797 12.3553 14.8255 12.3983C14.8797 12.3569 14.9323 12.3154 14.9865 12.274C14.9259 12.3202 14.8605 12.3585 14.7888 12.3888C14.8526 12.3617 14.9164 12.3346 14.9785 12.3091C14.9116 12.3346 14.8446 12.3537 14.7728 12.3633C14.843 12.3537 14.9148 12.3441 14.9849 12.3346C14.9451 12.3394 14.91 12.3425 14.8733 12.3425C14.6676 12.3457 14.4555 12.4302 14.3088 12.5753C14.1701 12.7141 14.0665 12.9405 14.076 13.1398C14.0856 13.3455 14.1526 13.5591 14.3088 13.7042C14.4635 13.8461 14.658 13.9402 14.8733 13.937C15.1539 13.9338 15.4091 13.8637 15.6562 13.7361C15.8954 13.6133 16.0772 13.4204 16.2318 13.2052C16.4168 12.9484 16.5013 12.6136 16.5045 12.3011C16.5061 12.2022 16.5045 12.1034 16.5045 12.0045C16.5045 11.4592 16.5045 10.9123 16.5045 10.367C16.5045 9.55856 16.5045 8.75015 16.5045 7.94174C16.5045 7.11261 16.5045 6.28347 16.5045 5.45274C16.5045 4.84524 16.5045 4.23774 16.5045 3.63183C16.5045 3.48514 16.5045 3.34004 16.5045 3.19335C16.5045 2.71341 16.3307 2.21912 15.9496 1.90978C15.7423 1.74077 15.5159 1.59726 15.248 1.54465C15.1236 1.52073 14.9961 1.50159 14.8701 1.5C14.8478 1.5 14.8255 1.5 14.8031 1.5C14.6788 1.5 14.5544 1.5 14.4316 1.5C13.9246 1.5 13.4175 1.5 12.9105 1.5C12.1674 1.5 11.4244 1.5 10.6813 1.5C9.83464 1.5 8.98955 1.5 8.14286 1.5C7.32169 1.5 6.49892 1.5 5.67775 1.5C5.00806 1.5 4.33836 1.5 3.66866 1.5C3.28439 1.5 2.90011 1.5 2.51583 1.5C2.33884 1.5 2.17461 1.50797 1.99602 1.54624C1.55434 1.64032 1.12701 1.97675 0.934078 2.38494C0.817678 2.63209 0.752303 2.87126 0.750709 3.1487C0.749114 3.49949 0.750709 3.85187 0.750709 4.20266C0.750709 4.92178 0.750709 5.64089 0.750709 6.36001C0.750709 7.20828 0.750709 8.05495 0.750709 8.90322C0.750709 9.64147 0.750709 10.3797 0.750709 11.118C0.750709 11.5022 0.750709 11.8865 0.750709 12.2708C0.750709 12.8655 1.06004 13.4714 1.60696 13.7441C1.88122 13.8812 2.15866 13.9402 2.46321 13.9402C2.63542 13.9402 2.80922 13.9402 2.98143 13.9402C3.27163 13.9402 3.56183 13.9402 3.85044 13.9402C3.58416 13.6739 3.31947 13.4093 3.05318 13.143C3.05318 13.6819 3.05318 14.2224 3.05318 14.7614C3.05318 15.117 3.05318 15.4709 3.05318 15.8265C3.05318 16.1454 3.02608 16.4739 3.20466 16.7593C3.39281 17.059 3.75317 17.2775 4.11513 17.2472C4.3862 17.2249 4.61102 17.1324 4.80874 16.9474C4.84063 16.9171 4.87252 16.8852 4.90441 16.8549C5.07662 16.6875 5.24723 16.5201 5.41944 16.3543C5.95998 15.8265 6.50211 15.3003 7.04265 14.7725C7.40142 14.4234 7.76497 14.0773 8.11895 13.7234C8.12533 13.717 8.13011 13.7122 8.13649 13.7058C7.94833 13.784 7.76018 13.8621 7.57203 13.9386C7.8144 13.9386 8.05517 13.9386 8.29753 13.9386C8.87793 13.9386 9.45834 13.9386 10.0387 13.9386C10.7403 13.9386 11.4435 13.9386 12.1451 13.9386C12.7542 13.9386 13.3649 13.9386 13.974 13.9386C14.269 13.9386 14.564 13.9434 14.8589 13.9386C14.8637 13.9386 14.8669 13.9386 14.8717 13.9386C15.0758 13.9386 15.2911 13.8493 15.4362 13.7058C15.5749 13.5671 15.6785 13.3407 15.669 13.1414C15.6594 12.9357 15.5924 12.722 15.4362 12.5769C15.2799 12.4318 15.0886 12.3425 14.8733 12.3425Z" fill="#6E6E6E"/>
<path d="M4.90456 7.71854C4.90456 7.73289 4.90296 7.74724 4.90137 7.76159C4.91093 7.69143 4.9205 7.61968 4.93007 7.54953C4.92529 7.58461 4.91572 7.61809 4.90296 7.65157C4.93007 7.58779 4.95718 7.52402 4.98269 7.46184C4.96993 7.48735 4.95718 7.50967 4.94123 7.53358C4.98269 7.47937 5.02414 7.42676 5.0656 7.37255C5.04328 7.39965 5.02096 7.42357 4.99385 7.4443C5.04806 7.40284 5.10068 7.36139 5.15489 7.31993C5.13257 7.33588 5.10865 7.35023 5.08314 7.36139C5.14692 7.33428 5.2107 7.30718 5.27289 7.28167C5.2394 7.29442 5.20751 7.30399 5.17084 7.30877C5.241 7.29921 5.31275 7.28964 5.38291 7.28007C5.35421 7.28326 5.32551 7.28326 5.29521 7.28007C5.36537 7.28964 5.43712 7.29921 5.50728 7.30877C5.4722 7.30399 5.43871 7.29442 5.40523 7.28167C5.46901 7.30877 5.53279 7.33588 5.59498 7.36139C5.56946 7.34863 5.54714 7.33588 5.52322 7.31993C5.57744 7.36139 5.63005 7.40284 5.68427 7.4443C5.65716 7.42197 5.63324 7.39965 5.61252 7.37255C5.65397 7.42676 5.69543 7.47937 5.73689 7.53358C5.72094 7.51126 5.70659 7.48735 5.69543 7.46184C5.72254 7.52561 5.74964 7.58939 5.77515 7.65157C5.7624 7.61809 5.75283 7.5862 5.74805 7.54953C5.75761 7.61968 5.76718 7.69143 5.77675 7.76159C5.77356 7.73289 5.77356 7.70419 5.77675 7.67389C5.76718 7.74405 5.75761 7.8158 5.74805 7.88595C5.75283 7.85087 5.7624 7.81739 5.77515 7.78391C5.74805 7.84768 5.72094 7.91146 5.69543 7.97364C5.70819 7.94813 5.72094 7.92581 5.73689 7.90189C5.69543 7.9561 5.65397 8.00872 5.61252 8.06293C5.63484 8.03582 5.65716 8.01191 5.68427 7.99118C5.63005 8.03264 5.57744 8.07409 5.52322 8.11555C5.54555 8.0996 5.56946 8.08525 5.59498 8.07409C5.5312 8.1012 5.46742 8.1283 5.40523 8.15381C5.43871 8.14106 5.4706 8.13149 5.50728 8.12671C5.43712 8.13627 5.36537 8.14584 5.29521 8.15541C5.32391 8.15222 5.35261 8.15222 5.38291 8.15541C5.31275 8.14584 5.241 8.13627 5.17084 8.12671C5.20592 8.13149 5.2394 8.14106 5.27289 8.15381C5.20911 8.12671 5.14533 8.0996 5.08314 8.07409C5.10865 8.08685 5.13098 8.0996 5.15489 8.11555C5.10068 8.07409 5.04806 8.03264 4.99385 7.99118C5.02096 8.0135 5.04487 8.03582 5.0656 8.06293C5.02414 8.00872 4.98269 7.9561 4.94123 7.90189C4.95718 7.92422 4.97153 7.94813 4.98269 7.97364C4.95558 7.90987 4.92847 7.84609 4.90296 7.78391C4.91572 7.81739 4.92529 7.84928 4.93007 7.88595C4.9205 7.8158 4.91093 7.74405 4.90137 7.67389C4.90296 7.68984 4.90456 7.70419 4.90456 7.71854C4.91093 7.9274 4.98907 8.13308 5.13735 8.28296C5.27608 8.42167 5.50249 8.52531 5.70181 8.51574C5.9075 8.50618 6.12116 8.43921 6.26626 8.28296C6.40658 8.12989 6.50544 7.93219 6.49906 7.71854C6.49268 7.50488 6.44166 7.27848 6.31888 7.0999C6.15783 6.86712 5.95693 6.71087 5.68905 6.6152C5.48655 6.54345 5.2394 6.54505 5.03371 6.60245C4.8344 6.65666 4.6303 6.77464 4.49477 6.9309C4.30502 7.15092 4.20776 7.3869 4.18544 7.67549C4.17746 7.7855 4.1966 7.9003 4.21892 8.00553C4.24124 8.10757 4.28748 8.2128 4.3401 8.30209C4.44215 8.47748 4.60957 8.64649 4.79294 8.73577C4.88383 8.78042 4.98269 8.82665 5.08474 8.84419C5.28245 8.87768 5.40682 8.87768 5.60614 8.8426C5.71616 8.82347 5.82937 8.77244 5.92504 8.71664C6.01592 8.66402 6.1084 8.59228 6.18016 8.51255C6.38266 8.28615 6.48949 8.01988 6.49906 7.71694C6.50544 7.51605 6.40658 7.29283 6.26626 7.15252C6.12754 7.01381 5.90112 6.91017 5.70181 6.91973C5.25854 6.94046 4.91731 7.27051 4.90456 7.71854ZM8.18923 7.71854C8.18923 7.73289 8.18763 7.74724 8.18604 7.76159C8.19561 7.69143 8.20517 7.61968 8.21474 7.54953C8.20996 7.58461 8.20039 7.61809 8.18763 7.65157C8.21474 7.58779 8.24185 7.52402 8.26736 7.46184C8.2546 7.48735 8.24185 7.50967 8.2259 7.53358C8.26736 7.47937 8.30882 7.42676 8.35027 7.37255C8.32795 7.39965 8.30563 7.42357 8.27852 7.4443C8.33273 7.40284 8.38535 7.36139 8.43956 7.31993C8.41724 7.33588 8.39332 7.35023 8.36781 7.36139C8.43159 7.33428 8.49537 7.30718 8.55756 7.28167C8.52407 7.29442 8.49218 7.30399 8.45551 7.30877C8.52567 7.29921 8.59742 7.28964 8.66758 7.28007C8.63888 7.28326 8.61018 7.28326 8.57988 7.28007C8.65004 7.28964 8.72179 7.29921 8.79195 7.30877C8.75687 7.30399 8.72339 7.29442 8.6899 7.28167C8.75368 7.30877 8.81746 7.33588 8.87965 7.36139C8.85414 7.34863 8.83181 7.33588 8.80789 7.31993C8.86211 7.36139 8.91473 7.40284 8.96894 7.4443C8.94183 7.42197 8.91791 7.39965 8.89719 7.37255C8.93864 7.42676 8.9801 7.47937 9.02156 7.53358C9.00561 7.51126 8.99126 7.48735 8.9801 7.46184C9.00721 7.52561 9.03431 7.58939 9.05983 7.65157C9.04707 7.61809 9.0375 7.5862 9.03272 7.54953C9.04229 7.61968 9.05185 7.69143 9.06142 7.76159C9.05823 7.73289 9.05823 7.70419 9.06142 7.67389C9.05185 7.74405 9.04229 7.8158 9.03272 7.88595C9.0375 7.85087 9.04707 7.81739 9.05983 7.78391C9.03272 7.84768 9.00561 7.91146 8.9801 7.97364C8.99286 7.94813 9.00561 7.92581 9.02156 7.90189C8.9801 7.9561 8.93864 8.00872 8.89719 8.06293C8.91951 8.03582 8.94183 8.01191 8.96894 7.99118C8.91473 8.03264 8.86211 8.07409 8.80789 8.11555C8.83022 8.0996 8.85414 8.08525 8.87965 8.07409C8.81587 8.1012 8.75209 8.1283 8.6899 8.15381C8.72339 8.14106 8.75528 8.13149 8.79195 8.12671C8.72179 8.13627 8.65004 8.14584 8.57988 8.15541C8.60858 8.15222 8.63728 8.15222 8.66758 8.15541C8.59742 8.14584 8.52567 8.13627 8.45551 8.12671C8.49059 8.13149 8.52407 8.14106 8.55756 8.15381C8.49378 8.12671 8.43 8.0996 8.36781 8.07409C8.39332 8.08685 8.41565 8.0996 8.43956 8.11555C8.38535 8.07409 8.33273 8.03264 8.27852 7.99118C8.30563 8.0135 8.32954 8.03582 8.35027 8.06293C8.30882 8.00872 8.26736 7.9561 8.2259 7.90189C8.24185 7.92422 8.2562 7.94813 8.26736 7.97364C8.24025 7.90987 8.21315 7.84609 8.18763 7.78391C8.20039 7.81739 8.20996 7.84928 8.21474 7.88595C8.20517 7.8158 8.19561 7.74405 8.18604 7.67389C8.18923 7.68984 8.18923 7.70419 8.18923 7.71854C8.19561 7.9274 8.27374 8.13308 8.42203 8.28296C8.56075 8.42167 8.78717 8.52531 8.98648 8.51574C9.19217 8.50618 9.40583 8.43921 9.55093 8.28296C9.69125 8.12989 9.79011 7.93219 9.78373 7.71854C9.77735 7.50488 9.72633 7.27848 9.60355 7.0999C9.44251 6.86712 9.2416 6.71087 8.97372 6.6152C8.77122 6.54345 8.52407 6.54505 8.31838 6.60245C8.11907 6.65666 7.91497 6.77464 7.77944 6.9309C7.5897 7.15092 7.49243 7.3869 7.47011 7.67549C7.46214 7.7855 7.48127 7.9003 7.50359 8.00553C7.52592 8.10757 7.57216 8.2128 7.62477 8.30209C7.72682 8.47748 7.89425 8.64649 8.07761 8.73577C8.1685 8.78042 8.26736 8.82665 8.36941 8.84419C8.56712 8.87768 8.6915 8.87768 8.89081 8.8426C9.00083 8.82347 9.11404 8.77244 9.20971 8.71664C9.30059 8.66402 9.39308 8.59228 9.46483 8.51255C9.66733 8.28615 9.77416 8.01988 9.78373 7.71694C9.79011 7.51605 9.69125 7.29283 9.55093 7.15252C9.41221 7.01381 9.18579 6.91017 8.98648 6.91973C8.5448 6.94046 8.20358 7.27051 8.18923 7.71854ZM11.4755 7.71854C11.4755 7.73289 11.4739 7.74724 11.4723 7.76159C11.4819 7.69143 11.4914 7.61968 11.501 7.54953C11.4962 7.58461 11.4867 7.61809 11.4739 7.65157C11.501 7.58779 11.5281 7.52402 11.5536 7.46184C11.5409 7.48735 11.5281 7.50967 11.5122 7.53358C11.5536 7.47937 11.5951 7.42676 11.6365 7.37255C11.6142 7.39965 11.5919 7.42357 11.5648 7.4443C11.619 7.40284 11.6716 7.36139 11.7258 7.31993C11.7035 7.33588 11.6796 7.35023 11.6541 7.36139C11.7179 7.33428 11.7816 7.30718 11.8438 7.28167C11.8103 7.29442 11.7784 7.30399 11.7418 7.30877C11.8119 7.29921 11.8837 7.28964 11.9538 7.28007C11.9251 7.28326 11.8964 7.28326 11.8661 7.28007C11.9363 7.28964 12.0081 7.29921 12.0782 7.30877C12.0431 7.30399 12.0097 7.29442 11.9762 7.28167C12.0399 7.30877 12.1037 7.33588 12.1659 7.36139C12.1404 7.34863 12.1181 7.33588 12.0942 7.31993C12.1484 7.36139 12.201 7.40284 12.2552 7.4443C12.2281 7.42197 12.2042 7.39965 12.1835 7.37255C12.2249 7.42676 12.2664 7.47937 12.3078 7.53358C12.2919 7.51126 12.2775 7.48735 12.2664 7.46184C12.2935 7.52561 12.3206 7.58939 12.3461 7.65157C12.3333 7.61809 12.3238 7.5862 12.319 7.54953C12.3286 7.61968 12.3381 7.69143 12.3477 7.76159C12.3445 7.73289 12.3445 7.70419 12.3477 7.67389C12.3381 7.74405 12.3286 7.8158 12.319 7.88595C12.3238 7.85087 12.3333 7.81739 12.3461 7.78391C12.319 7.84768 12.2919 7.91146 12.2664 7.97364C12.2791 7.94813 12.2919 7.92581 12.3078 7.90189C12.2664 7.9561 12.2249 8.00872 12.1835 8.06293C12.2058 8.03582 12.2281 8.01191 12.2552 7.99118C12.201 8.03264 12.1484 8.07409 12.0942 8.11555C12.1165 8.0996 12.1404 8.08525 12.1659 8.07409C12.1021 8.1012 12.0384 8.1283 11.9762 8.15381C12.0097 8.14106 12.0415 8.13149 12.0782 8.12671C12.0081 8.13627 11.9363 8.14584 11.8661 8.15541C11.8948 8.15222 11.9235 8.15222 11.9538 8.15541C11.8837 8.14584 11.8119 8.13627 11.7418 8.12671C11.7769 8.13149 11.8103 8.14106 11.8438 8.15381C11.78 8.12671 11.7163 8.0996 11.6541 8.07409C11.6796 8.08685 11.7019 8.0996 11.7258 8.11555C11.6716 8.07409 11.619 8.03264 11.5648 7.99118C11.5919 8.0135 11.6158 8.03582 11.6365 8.06293C11.5951 8.00872 11.5536 7.9561 11.5122 7.90189C11.5281 7.92422 11.5425 7.94813 11.5536 7.97364C11.5265 7.90987 11.4994 7.84609 11.4739 7.78391C11.4867 7.81739 11.4962 7.84928 11.501 7.88595C11.4914 7.8158 11.4819 7.74405 11.4723 7.67389C11.4739 7.68984 11.4755 7.70419 11.4755 7.71854C11.4819 7.9274 11.56 8.13308 11.7083 8.28296C11.847 8.42167 12.0734 8.52531 12.2727 8.51574C12.4784 8.50618 12.6921 8.43921 12.8372 8.28296C12.9775 8.12989 13.0764 7.93219 13.07 7.71854C13.0636 7.50488 13.0126 7.27848 12.8898 7.0999C12.7288 6.86712 12.5279 6.71087 12.26 6.6152C12.0575 6.54345 11.8103 6.54505 11.6046 6.60245C11.4053 6.65666 11.2012 6.77464 11.0657 6.9309C10.876 7.15092 10.7787 7.3869 10.7564 7.67549C10.7484 7.7855 10.7675 7.9003 10.7899 8.00553C10.8122 8.10757 10.8584 8.2128 10.911 8.30209C11.0131 8.47748 11.1805 8.64649 11.3639 8.73577C11.4548 8.78042 11.5536 8.82665 11.6557 8.84419C11.8534 8.87768 11.9778 8.87768 12.1771 8.8426C12.2871 8.82347 12.4003 8.77244 12.496 8.71664C12.5869 8.66402 12.6793 8.59228 12.7511 8.51255C12.9536 8.28615 13.0604 8.01988 13.07 7.71694C13.0764 7.51605 12.9775 7.29283 12.8372 7.15252C12.6985 7.01381 12.4721 6.91017 12.2727 6.91973C11.8295 6.94046 11.4883 7.27051 11.4755 7.71854Z" fill="#6E6E6E"/>
</svg>
