<svg width="20" height="20" viewBox="0 0 20 20" fill="none" xmlns="http://www.w3.org/2000/svg">
<path d="M17.4993 11.6667C17.2783 11.6667 17.0664 11.7545 16.9101 11.9108C16.7538 12.0671 16.666 12.2791 16.666 12.5001V15.8334C16.666 16.0544 16.5782 16.2664 16.4219 16.4227C16.2657 16.579 16.0537 16.6667 15.8327 16.6667H4.16602C3.945 16.6667 3.73304 16.579 3.57676 16.4227C3.42048 16.2664 3.33268 16.0544 3.33268 15.8334V12.5001C3.33268 12.2791 3.24489 12.0671 3.0886 11.9108C2.93232 11.7545 2.72036 11.6667 2.49935 11.6667C2.27834 11.6667 2.06637 11.7545 1.91009 11.9108C1.75381 12.0671 1.66602 12.2791 1.66602 12.5001V15.8334C1.66602 16.4965 1.92941 17.1323 2.39825 17.6012C2.86709 18.07 3.50297 18.3334 4.16602 18.3334H15.8327C16.4957 18.3334 17.1316 18.07 17.6005 17.6012C18.0693 17.1323 18.3327 16.4965 18.3327 15.8334V12.5001C18.3327 12.2791 18.2449 12.0671 18.0886 11.9108C17.9323 11.7545 17.7204 11.6667 17.4993 11.6667ZM9.40768 13.0917C9.48694 13.1676 9.58039 13.2271 9.68268 13.2667C9.78243 13.3108 9.89029 13.3336 9.99935 13.3336C10.1084 13.3336 10.2163 13.3108 10.316 13.2667C10.4183 13.2271 10.5118 13.1676 10.591 13.0917L13.9243 9.75842C14.0813 9.6015 14.1694 9.38867 14.1694 9.16675C14.1694 8.94483 14.0813 8.732 13.9243 8.57508C13.7674 8.41816 13.5546 8.33001 13.3327 8.33001C13.1108 8.33001 12.8979 8.41816 12.741 8.57508L10.8327 10.4917V2.50008C10.8327 2.27907 10.7449 2.06711 10.5886 1.91083C10.4323 1.75455 10.2204 1.66675 9.99935 1.66675C9.77834 1.66675 9.56637 1.75455 9.41009 1.91083C9.25381 2.06711 9.16602 2.27907 9.16602 2.50008V10.4917L7.25768 8.57508C7.17998 8.49738 7.08774 8.43575 6.98622 8.3937C6.88471 8.35165 6.7759 8.33001 6.66602 8.33001C6.55613 8.33001 6.44733 8.35165 6.34581 8.3937C6.24429 8.43575 6.15205 8.49738 6.07435 8.57508C5.99665 8.65278 5.93502 8.74502 5.89297 8.84654C5.85092 8.94806 5.82927 9.05687 5.82927 9.16675C5.82927 9.27663 5.85092 9.38544 5.89297 9.48696C5.93502 9.58847 5.99665 9.68072 6.07435 9.75842L9.40768 13.0917Z" fill="black"/>
</svg>
