<svg width="18" height="18" viewBox="0 0 18 18" fill="none" xmlns="http://www.w3.org/2000/svg">
<path d="M8.99988 3.75C5.75988 3.75 2.99988 6.2475 1.45488 8.5875L1.19238 9L1.46238 9.4125C2.99988 11.7525 5.75988 14.25 8.99988 14.25C12.2399 14.25 14.9999 11.7525 16.5449 9.4125L16.8149 9L16.5449 8.5875C14.9999 6.2475 12.2399 3.75 8.99988 3.75ZM8.99988 12.75C6.53988 12.75 4.34238 10.8825 2.99988 9C4.34988 7.1175 6.54738 5.25 8.99988 5.25C11.4524 5.25 13.6574 7.1175 14.9999 9C13.6574 10.8825 11.4599 12.75 8.99988 12.75Z" fill="#6E6E6E"/>
<path d="M9 6C8.40666 6 7.82664 6.17595 7.33329 6.50559C6.83994 6.83524 6.45543 7.30377 6.22836 7.85195C6.0013 8.40013 5.94189 9.00333 6.05765 9.58527C6.1734 10.1672 6.45912 10.7018 6.87868 11.1213C7.29824 11.5409 7.83279 11.8266 8.41473 11.9424C8.99667 12.0581 9.59987 11.9987 10.1481 11.7716C10.6962 11.5446 11.1648 11.1601 11.4944 10.6667C11.8241 10.1734 12 9.59334 12 9C12 8.20435 11.6839 7.44129 11.1213 6.87868C10.5587 6.31607 9.79565 6 9 6ZM9 10.5C8.70333 10.5 8.41332 10.412 8.16665 10.2472C7.91997 10.0824 7.72771 9.84811 7.61418 9.57403C7.50065 9.29994 7.47095 8.99834 7.52882 8.70736C7.5867 8.41639 7.72956 8.14912 7.93934 7.93934C8.14912 7.72956 8.41639 7.5867 8.70737 7.52882C8.99834 7.47094 9.29994 7.50065 9.57403 7.61418C9.84812 7.72771 10.0824 7.91997 10.2472 8.16665C10.412 8.41332 10.5 8.70333 10.5 9C10.5 9.39783 10.342 9.77936 10.0607 10.0607C9.77936 10.342 9.39783 10.5 9 10.5Z" fill="#6E6E6E"/>
</svg>
