<svg width="60" height="60" viewBox="0 0 60 60" fill="none" xmlns="http://www.w3.org/2000/svg">
<path d="M0 13.2889V11.75C0 10.7554 0.395088 9.80161 1.09835 9.09835C1.80161 8.39509 2.75544 8 3.75 8H56.25C57.2446 8 58.1984 8.39509 58.9016 9.09835C59.6049 9.80161 60 10.7554 60 11.75V13.2889L30 32.0389L0 13.2889ZM30.9938 35.8405C30.6957 36.0265 30.3514 36.1251 30 36.1251C29.6486 36.1251 29.3043 36.0265 29.0063 35.8405L0 17.7111V49.25C0 50.2446 0.395088 51.1984 1.09835 51.9016C1.80161 52.6049 2.75544 53 3.75 53H56.25C57.2446 53 58.1984 52.6049 58.9016 51.9016C59.6049 51.1984 60 50.2446 60 49.25V17.7111L30.9938 35.8405Z" fill="#362E72"/>
</svg>
