<svg width="21" height="16" viewBox="0 0 21 16" fill="none" xmlns="http://www.w3.org/2000/svg">
<rect x="0.308594" y="0.307617" width="20" height="15.3846" rx="7.69231" fill="#C4C4C4"/>
<path d="M12.0379 10.9714H6.52068C6.29556 10.9714 6.07967 10.882 5.92048 10.7228C5.7613 10.5636 5.67188 10.3477 5.67188 10.1226V5.87859C5.67188 5.65347 5.7613 5.43758 5.92048 5.27839C6.07967 5.11921 6.29556 5.02979 6.52068 5.02979H12.0379C12.263 5.02979 12.4789 5.11921 12.6381 5.27839C12.7973 5.43758 12.8867 5.65347 12.8867 5.87859V10.1226C12.8867 10.3477 12.7973 10.5636 12.6381 10.7228C12.4789 10.882 12.263 10.9714 12.0379 10.9714ZM13.7355 6.7274V9.27382L15.622 10.5317C15.686 10.5744 15.7603 10.5989 15.8371 10.6026C15.9138 10.6063 15.9902 10.5891 16.058 10.5528C16.1257 10.5165 16.1823 10.4625 16.2218 10.3965C16.2613 10.3305 16.282 10.2551 16.282 10.1782V5.82299C16.282 5.74616 16.2611 5.67076 16.2216 5.60485C16.1822 5.53893 16.1255 5.48497 16.0578 5.44872C15.99 5.41248 15.9137 5.3953 15.837 5.39903C15.7602 5.40276 15.6859 5.42725 15.622 5.46989L13.7355 6.7274Z" fill="#626365"/>
<rect x="12.0226" y="9.30283" width="5.45493" height="5.45493" rx="1.51806" fill="#D9463D" stroke="#C4C4C4" stroke-width="0.607225"/>
<path d="M14.9635 12.0302L15.9172 11.0779C15.9457 11.0494 15.9617 11.0107 15.9617 10.9704C15.9617 10.9301 15.9457 10.8914 15.9172 10.8629C15.8887 10.8344 15.85 10.8184 15.8097 10.8184C15.7694 10.8184 15.7307 10.8344 15.7022 10.8629L14.75 11.8167L13.7978 10.8629C13.7693 10.8344 13.7307 10.8184 13.6903 10.8184C13.65 10.8184 13.6114 10.8344 13.5829 10.8629C13.5544 10.8914 13.5383 10.9301 13.5383 10.9704C13.5383 11.0107 13.5544 11.0494 13.5829 11.0779L14.5366 12.0302L13.5829 12.9824C13.5687 12.9965 13.5574 13.0133 13.5497 13.0317C13.542 13.0502 13.5381 13.0699 13.5381 13.0899C13.5381 13.1099 13.542 13.1297 13.5497 13.1482C13.5574 13.1666 13.5687 13.1834 13.5829 13.1974C13.5969 13.2116 13.6137 13.2229 13.6321 13.2306C13.6506 13.2383 13.6704 13.2422 13.6903 13.2422C13.7103 13.2422 13.7301 13.2383 13.7486 13.2306C13.767 13.2229 13.7838 13.2116 13.7978 13.1974L14.75 12.2436L15.7022 13.1974C15.7163 13.2116 15.733 13.2229 15.7515 13.2306C15.7699 13.2383 15.7897 13.2422 15.8097 13.2422C15.8297 13.2422 15.8494 13.2383 15.8679 13.2306C15.8863 13.2229 15.9031 13.2116 15.9172 13.1974C15.9313 13.1834 15.9426 13.1666 15.9503 13.1482C15.958 13.1297 15.9619 13.1099 15.9619 13.0899C15.9619 13.0699 15.958 13.0502 15.9503 13.0317C15.9426 13.0133 15.9313 12.9965 15.9172 12.9824L14.9635 12.0302Z" fill="white"/>
</svg>
