<svg width="156" height="46" viewBox="0 0 156 46" fill="none" xmlns="http://www.w3.org/2000/svg">
<rect width="156" height="46" rx="6" fill="#D8D8D8"/>
<path d="M54.4766 23.7578H51.5156V22.2031H54.4766C54.9922 22.2031 55.4089 22.1198 55.7266 21.9531C56.0443 21.7865 56.276 21.5573 56.4219 21.2656C56.5729 20.9688 56.6484 20.6302 56.6484 20.25C56.6484 19.8906 56.5729 19.5547 56.4219 19.2422C56.276 18.9245 56.0443 18.6693 55.7266 18.4766C55.4089 18.2839 54.9922 18.1875 54.4766 18.1875H52.1172V28H50.1562V16.625H54.4766C55.3568 16.625 56.1042 16.7812 56.7188 17.0938C57.3385 17.401 57.8099 17.8281 58.1328 18.375C58.4557 18.9167 58.6172 19.5365 58.6172 20.2344C58.6172 20.9688 58.4557 21.599 58.1328 22.125C57.8099 22.651 57.3385 23.0547 56.7188 23.3359C56.1042 23.6172 55.3568 23.7578 54.4766 23.7578ZM62.3631 16V28H60.4725V16H62.3631ZM69.3512 26.3047V22.2734C69.3512 21.9714 69.2966 21.7109 69.1872 21.4922C69.0778 21.2734 68.9111 21.1042 68.6872 20.9844C68.4684 20.8646 68.1924 20.8047 67.8591 20.8047C67.5518 20.8047 67.2861 20.8568 67.0622 20.9609C66.8382 21.0651 66.6637 21.2057 66.5387 21.3828C66.4137 21.5599 66.3512 21.7604 66.3512 21.9844H64.4762C64.4762 21.651 64.557 21.3281 64.7184 21.0156C64.8799 20.7031 65.1143 20.4245 65.4216 20.1797C65.7289 19.9349 66.096 19.7422 66.5231 19.6016C66.9502 19.4609 67.4294 19.3906 67.9606 19.3906C68.596 19.3906 69.1585 19.4974 69.6481 19.7109C70.1429 19.9245 70.5309 20.2474 70.8122 20.6797C71.0986 21.1068 71.2419 21.6432 71.2419 22.2891V26.0469C71.2419 26.4323 71.2679 26.7786 71.32 27.0859C71.3773 27.388 71.458 27.651 71.5622 27.875V28H69.6325C69.544 27.7969 69.4736 27.5391 69.4216 27.2266C69.3747 26.9089 69.3512 26.6016 69.3512 26.3047ZM69.6247 22.8594L69.6403 24.0234H68.2887C67.9398 24.0234 67.6325 24.0573 67.3669 24.125C67.1012 24.1875 66.8799 24.2812 66.7028 24.4062C66.5257 24.5312 66.3929 24.6823 66.3044 24.8594C66.2158 25.0365 66.1716 25.237 66.1716 25.4609C66.1716 25.6849 66.2236 25.8906 66.3278 26.0781C66.432 26.2604 66.583 26.4036 66.7809 26.5078C66.9841 26.612 67.2289 26.6641 67.5153 26.6641C67.9007 26.6641 68.2367 26.5859 68.5231 26.4297C68.8148 26.2682 69.044 26.0729 69.2106 25.8438C69.3773 25.6094 69.4658 25.388 69.4762 25.1797L70.0856 26.0156C70.0231 26.2292 69.9164 26.4583 69.7653 26.7031C69.6143 26.9479 69.4164 27.1823 69.1716 27.4062C68.932 27.625 68.6429 27.8047 68.3044 27.9453C67.971 28.0859 67.5856 28.1562 67.1481 28.1562C66.596 28.1562 66.1039 28.0469 65.6716 27.8281C65.2393 27.6042 64.9007 27.3047 64.6559 26.9297C64.4111 26.5495 64.2887 26.1198 64.2887 25.6406C64.2887 25.1927 64.3721 24.7969 64.5387 24.4531C64.7106 24.1042 64.9606 23.8125 65.2887 23.5781C65.6221 23.3438 66.0283 23.1667 66.5075 23.0469C66.9867 22.9219 67.5335 22.8594 68.1481 22.8594H69.6247ZM75.6987 27.0781L77.9956 19.5469H80.0112L76.6206 29.2891C76.5425 29.4974 76.4409 29.724 76.3159 29.9688C76.1909 30.2135 76.0269 30.4453 75.8237 30.6641C75.6258 30.888 75.3784 31.0677 75.0816 31.2031C74.7847 31.3438 74.4253 31.4141 74.0034 31.4141C73.8368 31.4141 73.6753 31.3984 73.5191 31.3672C73.368 31.3411 73.2248 31.3125 73.0894 31.2812L73.0816 29.8438C73.1336 29.849 73.1961 29.8542 73.2691 29.8594C73.3472 29.8646 73.4097 29.8672 73.4566 29.8672C73.7691 29.8672 74.0295 29.8281 74.2378 29.75C74.4461 29.6771 74.6154 29.5573 74.7456 29.3906C74.881 29.224 74.9956 29 75.0894 28.7188L75.6987 27.0781ZM74.4019 19.5469L76.4097 25.875L76.7456 27.8594L75.4409 28.1953L72.3706 19.5469H74.4019ZM89.4797 25.9219L92.4719 16.625H94.6359L90.5578 28H89.0969L89.4797 25.9219ZM86.7141 16.625L89.6828 25.9219L90.0891 28H88.6203L84.5578 16.625H86.7141ZM97.8975 19.5469V28H96.0069V19.5469H97.8975ZM95.8819 17.3281C95.8819 17.0417 95.9756 16.8047 96.1631 16.6172C96.3558 16.4245 96.6215 16.3281 96.96 16.3281C97.2933 16.3281 97.5564 16.4245 97.7491 16.6172C97.9418 16.8047 98.0381 17.0417 98.0381 17.3281C98.0381 17.6094 97.9418 17.8438 97.7491 18.0312C97.5564 18.2188 97.2933 18.3125 96.96 18.3125C96.6215 18.3125 96.3558 18.2188 96.1631 18.0312C95.9756 17.8438 95.8819 17.6094 95.8819 17.3281ZM105.276 26.25V16H107.167V28H105.456L105.276 26.25ZM99.7762 23.8672V23.7031C99.7762 23.0625 99.8518 22.4792 100.003 21.9531C100.154 21.4219 100.373 20.9661 100.659 20.5859C100.946 20.2005 101.294 19.9062 101.706 19.7031C102.117 19.4948 102.581 19.3906 103.097 19.3906C103.607 19.3906 104.055 19.4896 104.44 19.6875C104.826 19.8854 105.154 20.1693 105.425 20.5391C105.696 20.9036 105.912 21.3411 106.073 21.8516C106.235 22.3568 106.349 22.9193 106.417 23.5391V24.0625C106.349 24.6667 106.235 25.2188 106.073 25.7188C105.912 26.2188 105.696 26.651 105.425 27.0156C105.154 27.3802 104.823 27.6615 104.432 27.8594C104.047 28.0573 103.597 28.1562 103.081 28.1562C102.571 28.1562 102.11 28.0495 101.698 27.8359C101.292 27.6224 100.946 27.3229 100.659 26.9375C100.373 26.5521 100.154 26.099 100.003 25.5781C99.8518 25.0521 99.7762 24.4818 99.7762 23.8672ZM101.659 23.7031V23.8672C101.659 24.2526 101.693 24.612 101.761 24.9453C101.834 25.2786 101.946 25.5729 102.097 25.8281C102.248 26.0781 102.443 26.276 102.682 26.4219C102.927 26.5625 103.219 26.6328 103.557 26.6328C103.985 26.6328 104.336 26.5391 104.612 26.3516C104.888 26.1641 105.104 25.9115 105.261 25.5938C105.422 25.2708 105.531 24.9115 105.589 24.5156V23.1016C105.557 22.7943 105.492 22.5078 105.393 22.2422C105.3 21.9766 105.172 21.7448 105.011 21.5469C104.849 21.3438 104.649 21.1875 104.409 21.0781C104.175 20.9635 103.896 20.9062 103.573 20.9062C103.229 20.9062 102.938 20.9792 102.698 21.125C102.459 21.2708 102.261 21.4714 102.104 21.7266C101.953 21.9818 101.841 22.2786 101.768 22.6172C101.696 22.9557 101.659 23.3177 101.659 23.7031ZM113.022 28.1562C112.397 28.1562 111.832 28.0547 111.327 27.8516C110.827 27.6432 110.4 27.3542 110.046 26.9844C109.697 26.6146 109.428 26.1797 109.241 25.6797C109.053 25.1797 108.96 24.6406 108.96 24.0625V23.75C108.96 23.0885 109.056 22.4896 109.249 21.9531C109.441 21.4167 109.71 20.9583 110.053 20.5781C110.397 20.1927 110.803 19.8984 111.272 19.6953C111.741 19.4922 112.249 19.3906 112.796 19.3906C113.4 19.3906 113.928 19.4922 114.382 19.6953C114.835 19.8984 115.21 20.1849 115.507 20.5547C115.809 20.9193 116.033 21.3542 116.178 21.8594C116.329 22.3646 116.405 22.9219 116.405 23.5312V24.3359H109.874V22.9844H114.546V22.8359C114.535 22.4974 114.467 22.1797 114.342 21.8828C114.223 21.5859 114.038 21.3464 113.788 21.1641C113.538 20.9818 113.204 20.8906 112.788 20.8906C112.475 20.8906 112.197 20.9583 111.952 21.0938C111.712 21.224 111.512 21.4141 111.35 21.6641C111.189 21.9141 111.064 22.2161 110.975 22.5703C110.892 22.9193 110.85 23.3125 110.85 23.75V24.0625C110.85 24.4323 110.9 24.776 110.999 25.0938C111.103 25.4062 111.254 25.6797 111.452 25.9141C111.65 26.1484 111.889 26.3333 112.171 26.4688C112.452 26.599 112.772 26.6641 113.132 26.6641C113.585 26.6641 113.988 26.5729 114.342 26.3906C114.697 26.2083 115.004 25.9505 115.264 25.6172L116.257 26.5781C116.074 26.8438 115.837 27.099 115.546 27.3438C115.254 27.5833 114.897 27.7786 114.475 27.9297C114.059 28.0807 113.574 28.1562 113.022 28.1562ZM117.674 23.8672V23.6875C117.674 23.0781 117.763 22.513 117.94 21.9922C118.117 21.4661 118.372 21.0104 118.706 20.625C119.044 20.2344 119.456 19.9323 119.94 19.7188C120.43 19.5 120.982 19.3906 121.596 19.3906C122.216 19.3906 122.768 19.5 123.253 19.7188C123.742 19.9323 124.156 20.2344 124.495 20.625C124.833 21.0104 125.091 21.4661 125.268 21.9922C125.445 22.513 125.534 23.0781 125.534 23.6875V23.8672C125.534 24.4766 125.445 25.0417 125.268 25.5625C125.091 26.0833 124.833 26.5391 124.495 26.9297C124.156 27.3151 123.745 27.6172 123.26 27.8359C122.776 28.0495 122.226 28.1562 121.612 28.1562C120.992 28.1562 120.437 28.0495 119.948 27.8359C119.463 27.6172 119.052 27.3151 118.713 26.9297C118.375 26.5391 118.117 26.0833 117.94 25.5625C117.763 25.0417 117.674 24.4766 117.674 23.8672ZM119.557 23.6875V23.8672C119.557 24.2474 119.596 24.6068 119.674 24.9453C119.753 25.2839 119.875 25.5807 120.042 25.8359C120.208 26.0911 120.422 26.2917 120.682 26.4375C120.943 26.5833 121.253 26.6562 121.612 26.6562C121.961 26.6562 122.263 26.5833 122.518 26.4375C122.779 26.2917 122.992 26.0911 123.159 25.8359C123.325 25.5807 123.448 25.2839 123.526 24.9453C123.609 24.6068 123.651 24.2474 123.651 23.8672V23.6875C123.651 23.3125 123.609 22.9583 123.526 22.625C123.448 22.2865 123.323 21.987 123.151 21.7266C122.984 21.4661 122.771 21.263 122.51 21.1172C122.255 20.9661 121.95 20.8906 121.596 20.8906C121.242 20.8906 120.935 20.9661 120.674 21.1172C120.419 21.263 120.208 21.4661 120.042 21.7266C119.875 21.987 119.753 22.2865 119.674 22.625C119.596 22.9583 119.557 23.3125 119.557 23.6875Z" fill="#2A292F"/>
<path d="M32 23L22 29L22 17L32 23Z" fill="#5B4DBE"/>
</svg>
