<svg width="42" height="42" viewBox="0 0 42 42" fill="none" xmlns="http://www.w3.org/2000/svg">
<rect width="42" height="42" rx="21" fill="white"/>
<path d="M13 18C12.7348 18 12.4804 18.1054 12.2929 18.2929C12.1054 18.4804 12 18.7348 12 19C12.003 21.2126 12.8201 23.3468 14.2954 24.9957C15.7708 26.6446 17.8013 27.693 20 27.941V31H18C17.7348 31 17.4804 31.1054 17.2929 31.2929C17.1054 31.4804 17 31.7348 17 32C17 32.2652 17.1054 32.5196 17.2929 32.7071C17.4804 32.8946 17.7348 33 18 33H24C24.2652 33 24.5196 32.8946 24.7071 32.7071C24.8946 32.5196 25 32.2652 25 32C25 31.7348 24.8946 31.4804 24.7071 31.2929C24.5196 31.1054 24.2652 31 24 31H22V27.941C24.1987 27.693 26.2292 26.6446 27.7046 24.9957C29.1799 23.3468 29.997 21.2126 30 19C30 18.7348 29.8946 18.4804 29.7071 18.2929C29.5196 18.1054 29.2652 18 29 18C28.7348 18 28.4804 18.1054 28.2929 18.2929C28.1054 18.4804 28 18.7348 28 19C28 20.8565 27.2625 22.637 25.9497 23.9497C24.637 25.2625 22.8565 26 21 26C19.1435 26 17.363 25.2625 16.0503 23.9497C14.7375 22.637 14 20.8565 14 19C14 18.7348 13.8946 18.4804 13.7071 18.2929C13.5196 18.1054 13.2652 18 13 18Z" fill="#5B4DBE"/>
<path d="M21 24C22.3256 23.9984 23.5964 23.4711 24.5338 22.5338C25.4711 21.5964 25.9984 20.3256 26 19V14C26 12.6739 25.4732 11.4021 24.5355 10.4645C23.5979 9.52678 22.3261 9 21 9C19.6739 9 18.4021 9.52678 17.4645 10.4645C16.5268 11.4021 16 12.6739 16 14V19C16.0016 20.3256 16.5289 21.5964 17.4662 22.5338C18.4036 23.4711 19.6744 23.9984 21 24ZM18 14C18 13.2044 18.3161 12.4413 18.8787 11.8787C19.4413 11.3161 20.2044 11 21 11C21.7956 11 22.5587 11.3161 23.1213 11.8787C23.6839 12.4413 24 13.2044 24 14V19C24 19.7956 23.6839 20.5587 23.1213 21.1213C22.5587 21.6839 21.7956 22 21 22C20.2044 22 19.4413 21.6839 18.8787 21.1213C18.3161 20.5587 18 19.7956 18 19V14Z" fill="#5B4DBE"/>
</svg>
