<svg color="#1C1C1E" width="21" height="21" viewBox="0 0 21 21" fill="none" xmlns="http://www.w3.org/2000/svg">
<path d="M16.9999 13C16.4091 13.0039 15.8265 13.1386 15.2939 13.3945C14.7614 13.6504 14.2921 14.0211 13.9199 14.48L8.81991 12.13C9.05969 11.3957 9.05969 10.6042 8.81991 9.86999L13.9199 7.51999C14.5215 8.24596 15.3602 8.73607 16.2881 8.90383C17.2159 9.07159 18.1731 8.90622 18.9909 8.4369C19.8086 7.96757 20.4343 7.22447 20.7575 6.33874C21.0806 5.453 21.0805 4.48157 20.7572 3.5959C20.4339 2.71022 19.8081 1.96724 18.9902 1.49806C18.1724 1.02889 17.2151 0.863686 16.2873 1.03162C15.3596 1.19955 14.5209 1.68981 13.9194 2.41589C13.318 3.14196 12.9923 4.05717 12.9999 4.99999C13.0029 5.23822 13.0263 5.47576 13.0699 5.70999L7.78991 8.13999C7.22699 7.58957 6.51415 7.21751 5.74071 7.07042C4.96727 6.92333 4.16762 7.00776 3.44196 7.31312C2.71629 7.61849 2.09687 8.13121 1.66131 8.78705C1.22574 9.4429 0.993408 10.2127 0.993408 11C0.993408 11.7873 1.22574 12.5571 1.66131 13.2129C2.09687 13.8688 2.71629 14.3815 3.44196 14.6869C4.16762 14.9922 4.96727 15.0767 5.74071 14.9296C6.51415 14.7825 7.22699 14.4104 7.78991 13.86L13.0699 16.29C13.0263 16.5242 13.0029 16.7618 12.9999 17C12.9999 17.7911 13.2345 18.5645 13.674 19.2223C14.1136 19.8801 14.7383 20.3928 15.4692 20.6955C16.2001 20.9983 17.0043 21.0775 17.7803 20.9231C18.5562 20.7688 19.2689 20.3878 19.8283 19.8284C20.3877 19.269 20.7687 18.5563 20.923 17.7804C21.0774 17.0044 20.9982 16.2002 20.6954 15.4693C20.3927 14.7384 19.88 14.1136 19.2222 13.6741C18.5644 13.2346 17.791 13 16.9999 13ZM16.9999 2.99999C17.3955 2.99999 17.7822 3.11729 18.111 3.33705C18.4399 3.55682 18.6963 3.86917 18.8477 4.23463C18.999 4.60008 19.0386 5.00221 18.9615 5.39017C18.8843 5.77813 18.6938 6.1345 18.4141 6.41421C18.1344 6.69391 17.778 6.88439 17.3901 6.96156C17.0021 7.03873 16.6 6.99913 16.2345 6.84775C15.8691 6.69638 15.5567 6.44003 15.337 6.11113C15.1172 5.78223 14.9999 5.39556 14.9999 4.99999C14.9999 4.46956 15.2106 3.96085 15.5857 3.58578C15.9608 3.21071 16.4695 2.99999 16.9999 2.99999ZM4.99991 13C4.60434 13 4.21766 12.8827 3.88877 12.6629C3.55987 12.4432 3.30352 12.1308 3.15215 11.7654C3.00077 11.3999 2.96116 10.9978 3.03834 10.6098C3.11551 10.2218 3.30599 9.86548 3.58569 9.58578C3.8654 9.30607 4.22176 9.11559 4.60973 9.03842C4.99769 8.96125 5.39982 9.00086 5.76527 9.15223C6.13073 9.30361 6.44308 9.55995 6.66285 9.88885C6.88261 10.2178 6.99991 10.6044 6.99991 11C6.99991 11.5304 6.78919 12.0391 6.41412 12.4142C6.03905 12.7893 5.53034 13 4.99991 13ZM16.9999 19C16.6043 19 16.2177 18.8827 15.8888 18.6629C15.5599 18.4432 15.3035 18.1308 15.1521 17.7654C15.0008 17.3999 14.9612 16.9978 15.0383 16.6098C15.1155 16.2218 15.306 15.8655 15.5857 15.5858C15.8654 15.3061 16.2218 15.1156 16.6097 15.0384C16.9977 14.9613 17.3998 15.0009 17.7653 15.1522C18.1307 15.3036 18.4431 15.56 18.6628 15.8889C18.8826 16.2177 18.9999 16.6044 18.9999 17C18.9999 17.5304 18.7892 18.0391 18.4141 18.4142C18.039 18.7893 17.5303 19 16.9999 19Z" fill="currentColor"/>
</svg>
