<svg width="50" height="50" viewBox="0 0 50 50" fill="none" xmlns="http://www.w3.org/2000/svg">
<g clip-path="url(#clip0_724_4125)">
<path d="M26.4797 20.9029C25.2008 20.9028 23.946 21.251 22.8502 21.9103C21.7543 22.5695 20.8587 23.5149 20.2596 24.6447C19.7833 23.7463 19.118 22.9618 18.3096 22.345C17.5011 21.7283 16.5686 21.2941 15.5762 21.0722C14.5839 20.8503 13.5552 20.846 12.5611 21.0596C11.5669 21.2733 10.6308 21.6997 9.81726 22.3097V16.3797C9.81726 16.0061 9.66885 15.6478 9.40468 15.3836C9.14051 15.1195 8.78222 14.9711 8.40863 14.9711C8.03504 14.9711 7.67675 15.1195 7.41258 15.3836C7.14841 15.6478 7 16.0061 7 16.3797V28.053C7.02311 29.6156 7.56551 31.126 8.54172 32.3464C9.51793 33.5667 10.8724 34.4275 12.3918 34.7931C13.9112 35.1587 15.509 35.0083 16.9335 34.3657C18.358 33.7231 19.5282 32.6247 20.2596 31.2437C20.8428 32.3463 21.7083 33.2741 22.7677 33.9324C23.8272 34.5906 25.0424 34.9556 26.2892 34.9901C27.536 35.0246 28.7695 34.7273 29.8637 34.1286C30.9579 33.53 31.8734 32.6514 32.5166 31.5828C33.1599 30.5142 33.5077 29.2939 33.5246 28.0468C33.5414 26.7996 33.2267 25.5704 32.6127 24.4848C31.9986 23.3991 31.1072 22.4961 30.0296 21.868C28.952 21.24 27.727 20.9094 26.4797 20.9102V20.9029ZM14.0395 32.1683C13.2041 32.1683 12.3874 31.9206 11.6928 31.4564C10.9981 30.9923 10.4567 30.3326 10.137 29.5607C9.81727 28.7889 9.73362 27.9396 9.89661 27.1202C10.0596 26.3008 10.4619 25.5481 11.0526 24.9574C11.6434 24.3666 12.3961 23.9643 13.2154 23.8013C14.0348 23.6383 14.8842 23.722 15.656 24.0417C16.4279 24.3614 17.0876 24.9028 17.5517 25.5975C18.0159 26.2921 18.2636 27.1088 18.2636 27.9442C18.2636 29.0645 17.8186 30.1389 17.0264 30.9311C16.2342 31.7233 15.1598 32.1683 14.0395 32.1683ZM26.4797 32.1683C25.6443 32.1683 24.8276 31.9206 24.1329 31.4564C23.4383 30.9923 22.8969 30.3326 22.5772 29.5607C22.2574 28.7889 22.1738 27.9396 22.3368 27.1202C22.4998 26.3008 22.9021 25.5481 23.4928 24.9574C24.0836 24.3666 24.8362 23.9643 25.6556 23.8013C26.475 23.6383 27.3243 23.722 28.0962 24.0417C28.868 24.3614 29.5277 24.9028 29.9919 25.5975C30.456 26.2921 30.7038 27.1088 30.7038 27.9442C30.7038 29.0645 30.2587 30.1389 29.4666 30.9311C28.6744 31.7233 27.6 32.1683 26.4797 32.1683Z" fill="#0075C9"/>
<path d="M42.9929 32.7661L39.387 27.9492L42.9929 23.1287C43.2172 22.8299 43.3136 22.4542 43.2609 22.0843C43.2082 21.7144 43.0107 21.3805 42.7119 21.1562C42.413 20.9319 42.0373 20.8355 41.6674 20.8882C41.2975 20.9409 40.9637 21.1384 40.7394 21.4372L37.6266 25.5961L34.5157 21.4372C34.2873 21.1502 33.956 20.9635 33.5921 20.917C33.2283 20.8705 32.8606 20.9677 32.5673 21.188C32.274 21.4083 32.0783 21.7343 32.0216 22.0968C31.965 22.4592 32.052 22.8294 32.2641 23.1287L35.8681 27.9492L32.2623 32.7661C32.0502 33.0654 31.9632 33.4356 32.0198 33.798C32.0765 34.1604 32.2722 34.4865 32.5655 34.7068C32.8588 34.9271 33.2265 35.0243 33.5903 34.9778C33.9542 34.9312 34.2855 34.7446 34.5139 34.4575L37.6266 30.3005L40.7394 34.4612C40.9642 34.76 41.2985 34.9573 41.6687 35.0096C42.039 35.062 42.4148 34.9651 42.7137 34.7404C43.0125 34.5156 43.2098 34.1813 43.2621 33.8111C43.3145 33.4408 43.2176 33.0649 42.9929 32.7661Z" fill="#0075C9"/>
</g>
<g clip-path="url(#clip1_724_4125)">
<path d="M41.7085 50H8.33348C7.2408 50.0066 6.15761 49.797 5.1463 49.3831C4.135 48.9693 3.21557 48.3594 2.44098 47.5887C1.66638 46.818 1.05194 45.9016 0.63303 44.8924C0.214122 43.8832 -0.000967373 42.8011 0.000151838 41.7084V8.33336C-0.0064853 7.23716 0.204532 6.15054 0.62097 5.1365C1.03741 4.12246 1.65099 3.20116 2.42613 2.42601C3.20128 1.65086 4.12258 1.03729 5.13662 0.620848C6.15066 0.204409 7.23728 -0.00660737 8.33348 2.97675e-05H41.7501C42.8393 0.00439298 43.917 0.223526 44.9214 0.644886C45.9258 1.06625 46.8372 1.68156 47.6035 2.4556C48.3698 3.22965 48.976 4.14722 49.3872 5.15581C49.7984 6.16439 50.0067 7.24418 50.0002 8.33336V41.75C50.0068 42.8462 49.7958 43.9328 49.3793 44.9469C48.9629 45.9609 48.3493 46.8822 47.5742 47.6574C46.799 48.4325 45.8777 49.0461 44.8637 49.4625C43.8496 49.879 42.763 50.09 41.6668 50.0834" fill="#00AEEF"/>
<path d="M25.5915 21.0499C24.3562 21.0509 23.1443 21.388 22.0859 22.0251C21.0275 22.6622 20.1623 23.5753 19.5832 24.6666C19.1233 23.7991 18.481 23.0415 17.7004 22.4458C16.9199 21.8502 16.0196 21.4306 15.0614 21.2161C14.1033 21.0015 13.1101 20.9969 12.15 21.2027C11.19 21.4085 10.2859 21.8198 9.49987 22.4082V16.6666C9.49987 16.3063 9.35676 15.9608 9.10202 15.7061C8.84729 15.4513 8.50179 15.3082 8.14154 15.3082C7.78128 15.3082 7.43579 15.4513 7.18105 15.7061C6.92631 15.9608 6.7832 16.3063 6.7832 16.6666V27.9582C6.80329 29.468 7.32589 30.928 8.26843 32.1076C9.21097 33.2871 10.5197 34.119 11.9878 34.4717C13.4559 34.8243 14.9997 34.6778 16.3752 34.0551C17.7507 33.4324 18.8795 32.3691 19.5832 31.0332C20.1493 32.0947 20.9869 32.987 22.0105 33.619C23.034 34.2511 24.207 34.6003 25.4096 34.631C26.6122 34.6617 27.8014 34.3729 28.8559 33.7939C29.9104 33.2149 30.7924 32.3665 31.412 31.3354C32.0316 30.3042 32.3665 29.1271 32.3826 27.9242C32.3987 26.7213 32.0954 25.5357 31.5036 24.4883C30.9119 23.4409 30.0529 22.5693 29.0142 21.9623C27.9756 21.3553 26.7945 21.0347 25.5915 21.0332V21.0499ZM13.5749 31.9249C12.7693 31.9232 11.9822 31.6829 11.3132 31.2341C10.6442 30.7853 10.1232 30.1483 9.81601 29.4036C9.50886 28.6588 9.42935 27.8397 9.58752 27.0498C9.7457 26.2599 10.1345 25.5346 10.7047 24.9655C11.2749 24.3964 12.001 24.0092 12.7913 23.8526C13.5815 23.696 14.4004 23.7772 15.1446 24.0859C15.8887 24.3946 16.5246 24.9169 16.972 25.5868C17.4194 26.2568 17.6582 27.0443 17.6582 27.8499C17.6582 28.3857 17.5525 28.9163 17.3472 29.4113C17.1419 29.9062 16.841 30.3558 16.4617 30.7343C16.0824 31.1128 15.6322 31.4128 15.1369 31.6171C14.6415 31.8214 14.1107 31.926 13.5749 31.9249ZM25.5915 31.9249C24.7856 31.9249 23.9977 31.6859 23.3276 31.2381C22.6575 30.7904 22.1352 30.1539 21.8267 29.4093C21.5183 28.6647 21.4376 27.8454 21.5948 27.0549C21.7521 26.2644 22.1402 25.5383 22.7101 24.9684C23.28 24.3985 24.0061 24.0104 24.7965 23.8532C25.587 23.696 26.4064 23.7767 27.151 24.0851C27.8956 24.3935 28.532 24.9158 28.9798 25.5859C29.4275 26.2561 29.6665 27.0439 29.6665 27.8499C29.6665 28.9306 29.2372 29.9671 28.473 30.7314C27.7088 31.4956 26.6723 31.9249 25.5915 31.9249Z" fill="white"/>
<path d="M42.9332 32.3751L39.2415 27.8418L42.9415 23.3334C43.0525 23.192 43.1327 23.029 43.1771 22.8548C43.2215 22.6806 43.229 22.4991 43.1992 22.3218C43.1694 22.1446 43.1029 21.9755 43.004 21.8254C42.9051 21.6753 42.776 21.5474 42.6248 21.4501C42.3115 21.2344 41.9301 21.1407 41.5525 21.1868C41.1749 21.2328 40.8271 21.4154 40.5748 21.7001L37.3915 25.6001L34.2082 21.6668C33.9559 21.3821 33.6081 21.1995 33.2305 21.1534C32.8529 21.1074 32.4715 21.201 32.1582 21.4168C32.0026 21.5145 31.8697 21.6444 31.7682 21.7976C31.6668 21.9508 31.5993 22.1239 31.5701 22.3053C31.5409 22.4867 31.5508 22.6723 31.599 22.8496C31.6473 23.0269 31.7328 23.1918 31.8498 23.3334L35.5415 27.8751L31.8498 32.4084C31.7386 32.5486 31.658 32.7105 31.6131 32.8837C31.5681 33.0569 31.5599 33.2376 31.589 33.4142C31.618 33.5908 31.6836 33.7593 31.7817 33.909C31.8797 34.0587 32.0079 34.1862 32.1582 34.2834C32.4715 34.4992 32.8529 34.5928 33.2305 34.5468C33.6081 34.5007 33.9559 34.3181 34.2082 34.0334L37.3915 30.1418L40.5665 34.0334C40.8202 34.3188 41.1694 34.5016 41.5484 34.5477C41.9274 34.5937 42.3102 34.4997 42.6248 34.2834C42.7761 34.1871 42.9053 34.06 43.0041 33.9103C43.1029 33.7606 43.169 33.5918 43.1981 33.4149C43.2272 33.2379 43.2186 33.0568 43.173 32.8834C43.1273 32.71 43.0456 32.5481 42.9332 32.4084" fill="white"/>
</g>
<defs>
<clipPath id="clip0_724_4125">
<rect width="36.2582" height="20" fill="white" transform="translate(7 15)"/>
</clipPath>
<clipPath id="clip1_724_4125">
<rect width="50" height="50" fill="white"/>
</clipPath>
</defs>
</svg>
