<svg width="47" height="60" viewBox="0 0 47 60" fill="none" xmlns="http://www.w3.org/2000/svg">
<path d="M1.75087 0C1.28084 0.0155548 0.83554 0.202559 0.508962 0.521576C0.182385 0.840593 -5.98935e-07 1.26671 0.000289006 1.71002V58.29C-0.00392818 58.5106 0.0380454 58.7299 0.123742 58.9352C0.209439 59.1406 0.337176 59.328 0.499735 59.4868C0.662294 59.6455 0.856492 59.7726 1.07115 59.8607C1.28582 59.9487 1.5168 59.9961 1.75087 60H44.7802C45.0128 59.9962 45.2423 59.9486 45.4553 59.8602C45.6682 59.7718 45.8602 59.6442 46.0203 59.485C46.1803 59.3258 46.3051 59.1381 46.3872 58.933C46.4694 58.7278 46.5073 58.5092 46.4988 58.29V13.5L33 0H1.75087Z" fill="#5B4DBE"/>
<path d="M28.5 11.25H18C17.4033 11.25 16.831 11.4871 16.409 11.909C15.9871 12.331 15.75 12.9033 15.75 13.5V24C15.75 24.5967 15.9871 25.169 16.409 25.591C16.831 26.0129 17.4033 26.25 18 26.25H28.5C28.6234 26.2483 28.7463 26.2357 28.8675 26.2125L29.0925 26.16H29.145H29.1825L29.46 26.055L29.5575 26.0025C29.6325 25.9575 29.715 25.92 29.79 25.8675C29.8901 25.7938 29.9854 25.7136 30.075 25.6275L30.1275 25.56C30.2011 25.4854 30.2688 25.4051 30.33 25.32L30.3975 25.2225C30.4499 25.139 30.495 25.0512 30.5325 24.96C30.5531 24.924 30.5706 24.8864 30.585 24.8475C30.6225 24.7575 30.645 24.66 30.675 24.5625V24.45C30.7175 24.3035 30.7427 24.1524 30.75 24V13.5C30.75 12.9033 30.5129 12.331 30.091 11.909C29.669 11.4871 29.0967 11.25 28.5 11.25ZM18 24.75C17.8011 24.75 17.6103 24.671 17.4697 24.5303C17.329 24.3897 17.25 24.1989 17.25 24V20.7675L19.7175 18.2925C19.7872 18.2222 19.8702 18.1664 19.9616 18.1283C20.053 18.0903 20.151 18.0707 20.25 18.0707C20.349 18.0707 20.447 18.0903 20.5384 18.1283C20.6298 18.1664 20.7128 18.2222 20.7825 18.2925L27.2325 24.75H18ZM29.25 24C29.2493 24.0925 29.2315 24.184 29.1975 24.27C29.1804 24.3066 29.1603 24.3417 29.1375 24.375C29.1174 24.4067 29.0949 24.4368 29.07 24.465L25.0575 20.4525L25.7175 19.7925C25.7872 19.7222 25.8702 19.6664 25.9616 19.6283C26.053 19.5903 26.151 19.5707 26.25 19.5707C26.349 19.5707 26.447 19.5903 26.5384 19.6283C26.6298 19.6664 26.7128 19.7222 26.7825 19.7925L29.25 22.2675V24ZM29.25 20.145L27.84 18.75C27.4108 18.3427 26.8417 18.1157 26.25 18.1157C25.6583 18.1157 25.0892 18.3427 24.66 18.75L24 19.41L21.84 17.25C21.4108 16.8427 20.8417 16.6157 20.25 16.6157C19.6583 16.6157 19.0892 16.8427 18.66 17.25L17.25 18.645V13.5C17.25 13.3011 17.329 13.1103 17.4697 12.9697C17.6103 12.829 17.8011 12.75 18 12.75H28.5C28.6989 12.75 28.8897 12.829 29.0303 12.9697C29.171 13.1103 29.25 13.3011 29.25 13.5V20.145ZM24.375 14.25C24.1525 14.25 23.935 14.316 23.75 14.4396C23.565 14.5632 23.4208 14.7389 23.3356 14.9445C23.2505 15.15 23.2282 15.3762 23.2716 15.5945C23.315 15.8127 23.4222 16.0132 23.5795 16.1705C23.7368 16.3278 23.9373 16.435 24.1555 16.4784C24.3738 16.5218 24.6 16.4995 24.8055 16.4144C25.0111 16.3292 25.1868 16.185 25.3104 16C25.434 15.815 25.5 15.5975 25.5 15.375C25.5 15.0766 25.3815 14.7905 25.1705 14.5795C24.9595 14.3685 24.6734 14.25 24.375 14.25Z" fill="white"/>
<path d="M12.4487 44.3192C12.4487 44.0335 12.5469 43.7946 12.7433 43.6027C12.9442 43.4107 13.2098 43.3147 13.5402 43.3147C13.8705 43.3147 14.1339 43.4107 14.3304 43.6027C14.5313 43.7946 14.6317 44.0335 14.6317 44.3192C14.6317 44.6049 14.5313 44.8437 14.3304 45.0357C14.1339 45.2277 13.8705 45.3237 13.5402 45.3237C13.2098 45.3237 12.9442 45.2277 12.7433 45.0357C12.5469 44.8437 12.4487 44.6049 12.4487 44.3192ZM16.4397 38.0045H18.375V45.6853C18.375 46.221 18.2768 46.6741 18.0804 47.0446C17.8839 47.4152 17.6004 47.6964 17.2299 47.8884C16.8594 48.0804 16.4107 48.1763 15.8839 48.1763C15.7187 48.1763 15.558 48.1674 15.4018 48.1496C15.2411 48.1317 15.0759 48.1027 14.9062 48.0625L14.9129 46.5826C15.0201 46.6004 15.125 46.6138 15.2277 46.6228C15.3259 46.6362 15.4263 46.6429 15.529 46.6429C15.7299 46.6429 15.8973 46.6094 16.0312 46.5424C16.1652 46.4754 16.2656 46.3705 16.3326 46.2277C16.404 46.0893 16.4397 45.9085 16.4397 45.6853V38.0045ZM16.2857 36.1161C16.2857 35.8348 16.3839 35.6027 16.5804 35.4196C16.7812 35.2366 17.0446 35.1451 17.3705 35.1451C17.7009 35.1451 17.9643 35.2366 18.1607 35.4196C18.3571 35.6027 18.4554 35.8348 18.4554 36.1161C18.4554 36.3973 18.3571 36.6295 18.1607 36.8125C17.9643 36.9955 17.7009 37.0871 17.3705 37.0871C17.0446 37.0871 16.7812 36.9955 16.5804 36.8125C16.3839 36.6295 16.2857 36.3973 16.2857 36.1161ZM21.8371 39.3973V48.0357H19.9085V38.0045H21.6964L21.8371 39.3973ZM26.4241 41.5469V41.6875C26.4241 42.2143 26.3616 42.7031 26.2366 43.154C26.1161 43.6049 25.9375 43.9978 25.7009 44.3326C25.4643 44.6629 25.1696 44.9219 24.817 45.1094C24.4688 45.2924 24.067 45.3839 23.6116 45.3839C23.1696 45.3839 22.7857 45.2946 22.4598 45.1161C22.1339 44.9375 21.8594 44.6875 21.6362 44.3661C21.4174 44.0402 21.2411 43.6629 21.1071 43.2344C20.9732 42.8058 20.8705 42.346 20.7991 41.8549V41.4866C20.8705 40.9598 20.9732 40.4777 21.1071 40.0402C21.2411 39.5982 21.4174 39.2165 21.6362 38.8951C21.8594 38.5692 22.1317 38.317 22.4531 38.1384C22.779 37.9598 23.1607 37.8705 23.5982 37.8705C24.058 37.8705 24.4621 37.9576 24.8103 38.1317C25.1629 38.3058 25.4576 38.5558 25.6942 38.8817C25.9353 39.2076 26.1161 39.596 26.2366 40.0469C26.3616 40.4978 26.4241 40.9978 26.4241 41.5469ZM24.4888 41.6875V41.5469C24.4888 41.2388 24.4621 40.9554 24.4085 40.6964C24.3594 40.433 24.279 40.2031 24.1674 40.0067C24.0603 39.8103 23.9174 39.6585 23.7388 39.5513C23.5647 39.4397 23.3527 39.3839 23.1027 39.3839C22.8393 39.3839 22.6138 39.4263 22.4263 39.5112C22.2433 39.596 22.0938 39.7187 21.9777 39.8795C21.8616 40.0402 21.7746 40.2321 21.7165 40.4554C21.6585 40.6786 21.6228 40.9308 21.6094 41.2121V42.1429C21.6317 42.4732 21.6942 42.7701 21.7969 43.0335C21.8996 43.2924 22.058 43.4978 22.2723 43.6496C22.4866 43.8013 22.7679 43.8772 23.1161 43.8772C23.3705 43.8772 23.5848 43.8214 23.7589 43.7098C23.933 43.5937 24.0737 43.4353 24.1808 43.2344C24.2924 43.0335 24.3705 42.8013 24.4152 42.5379C24.4643 42.2746 24.4888 41.9911 24.4888 41.6875ZM32.2098 38.0045H33.9576V45.0089C33.9576 45.6696 33.8103 46.2299 33.5156 46.6897C33.2254 47.154 32.8192 47.5045 32.2969 47.7411C31.7746 47.9821 31.1674 48.1027 30.4754 48.1027C30.1719 48.1027 29.8504 48.0625 29.5112 47.9821C29.1763 47.9018 28.8549 47.7768 28.5469 47.6071C28.2433 47.4375 27.9888 47.2232 27.7835 46.9643L28.6339 45.8259C28.8571 46.0848 29.1161 46.2857 29.4107 46.4286C29.7054 46.5759 30.0313 46.6496 30.3884 46.6496C30.7366 46.6496 31.0313 46.5848 31.2723 46.4554C31.5134 46.3304 31.6987 46.1451 31.8281 45.8996C31.9576 45.6585 32.0223 45.3661 32.0223 45.0223V39.6786L32.2098 38.0045ZM27.3348 41.7143V41.5737C27.3348 41.0201 27.4018 40.5179 27.5357 40.067C27.6741 39.6116 27.8683 39.221 28.1183 38.8951C28.3728 38.5692 28.6808 38.317 29.0424 38.1384C29.404 37.9598 29.8125 37.8705 30.2679 37.8705C30.75 37.8705 31.154 37.9598 31.4799 38.1384C31.8058 38.317 32.0737 38.5714 32.2835 38.9018C32.4933 39.2277 32.6563 39.6138 32.7723 40.0603C32.8929 40.5022 32.9866 40.9866 33.0536 41.5134V41.8214C32.9866 42.3259 32.8862 42.7946 32.7522 43.2277C32.6183 43.6607 32.442 44.0402 32.2232 44.3661C32.0045 44.6875 31.7321 44.9375 31.4063 45.1161C31.0848 45.2946 30.7009 45.3839 30.2545 45.3839C29.808 45.3839 29.404 45.2924 29.0424 45.1094C28.6853 44.9263 28.3795 44.6696 28.125 44.3393C27.8705 44.0089 27.6741 43.6205 27.5357 43.1741C27.4018 42.7277 27.3348 42.2411 27.3348 41.7143ZM29.2634 41.5737V41.7143C29.2634 42.0134 29.2924 42.2924 29.3504 42.5513C29.4085 42.8103 29.4978 43.0402 29.6183 43.2411C29.7433 43.4375 29.8973 43.5915 30.0804 43.7031C30.2679 43.8103 30.4888 43.8638 30.7433 43.8638C31.096 43.8638 31.3839 43.7902 31.6071 43.6429C31.8304 43.4911 31.9978 43.2835 32.1094 43.0201C32.221 42.7567 32.2857 42.4531 32.3036 42.1094V41.2321C32.2946 40.9509 32.2567 40.6987 32.1897 40.4754C32.1228 40.2478 32.029 40.0536 31.9085 39.8929C31.7879 39.7321 31.6317 39.6071 31.4397 39.5179C31.2478 39.4286 31.0201 39.3839 30.7567 39.3839C30.5022 39.3839 30.2813 39.442 30.0938 39.558C29.9107 39.6696 29.7567 39.8237 29.6317 40.0201C29.5112 40.2165 29.4196 40.4487 29.3571 40.7165C29.2946 40.9799 29.2634 41.2656 29.2634 41.5737Z" fill="white"/>
<path d="M33 0V12.0578C33 12.4403 33.1024 12.8072 33.3868 13.0776C33.6712 13.3481 34.057 13.5 34.4592 13.5H46.5L33 0Z" fill="#352C79"/>
</svg>
