<svg width="20" height="20" viewBox="0 0 20 20" fill="none" color="#5B4DBE" xmlns="http://www.w3.org/2000/svg">
<path d="M11.21 6.97C11.5 7.03 11.8 7 12.08 6.88C12.35 6.77 12.59 6.57 12.75 6.33C12.91 6.08 13 5.79 13 5.5C13 5.1 12.84 4.72 12.56 4.44C12.28 4.16 11.9 4 11.5 4C11.2 4 10.91 4.09 10.67 4.25C10.42 4.41 10.23 4.65 10.12 4.92C10.01 5.19 9.98 5.5 10.03 5.79C10.09 6.08 10.23 6.35 10.44 6.56C10.65 6.77 10.92 6.91 11.21 6.97Z" fill="currentColor"/>
<path d="M17 20C18.66 20 20 18.66 20 17V3C20 2.2 19.68 1.44 19.12 0.88C18.56 0.32 17.79 0 17 0H9.23C8.68 0 8.23 0.45 8.23 1C8.23 1.55 8.68 2 9.23 2H17C17.27 2 17.52 2.11 17.71 2.29C17.9 2.47 18 2.73 18 3V11.86L16.12 10C15.55 9.46 14.79 9.15 14 9.15C13.21 9.15 12.45 9.45 11.88 10L11 10.88L8.12 8C7.55 7.46 6.79 7.15 6 7.15C5.21 7.15 4.45 7.45 3.88 8L2 9.86V10.01C2 9.46 1.55 9.01 1 9.01C0.45 9.01 0 9.46 0 10.01V17C0 17.8 0.32 18.56 0.88 19.12C1.44 19.68 2.21 20 3 20H17ZM3 18C2.73 18 2.48 17.89 2.29 17.71C2.1 17.52 2 17.27 2 17V12.69L5.29 9.39C5.38 9.3 5.49 9.22 5.62 9.17C5.74 9.12 5.87 9.09 6 9.09C6.13 9.09 6.26 9.12 6.38 9.17C6.5 9.22 6.61 9.3 6.71 9.39L15.31 18H3ZM18 17C18 17.12 17.98 17.25 17.93 17.36C17.91 17.41 17.88 17.46 17.85 17.5C17.82 17.54 17.79 17.58 17.76 17.62L12.41 12.27L13.29 11.39C13.38 11.3 13.49 11.22 13.62 11.17C13.74 11.12 13.87 11.09 14 11.09C14.13 11.09 14.26 11.12 14.38 11.17C14.5 11.22 14.61 11.3 14.71 11.39L18 14.69V17Z" fill="currentColor"/>
<path d="M1 4H2V5C2 5.27 2.11 5.52 2.29 5.71C2.48 5.9 2.73 6 3 6C3.27 6 3.52 5.89 3.71 5.71C3.9 5.52 4 5.27 4 5V4H5C5.27 4 5.52 3.89 5.71 3.71C5.9 3.52 6 3.27 6 3C6 2.73 5.89 2.48 5.71 2.29C5.53 2.1 5.27 2 5 2H4V1C4 0.73 3.89 0.48 3.71 0.29C3.53 0.1 3.27 0 3 0C2.73 0 2.48 0.11 2.29 0.29C2.1 0.47 2 0.73 2 1V2H1C0.73 2 0.48 2.11 0.29 2.29C0.1 2.47 0 2.73 0 3C0 3.27 0.11 3.52 0.29 3.71C0.48 3.9 0.73 4 1 4Z" fill="currentColor"/>
</svg>
