<svg width="20" height="18" viewBox="0 0 20 18" fill="none" color="#5B4DBE" xmlns="http://www.w3.org/2000/svg">
<path d="M19.69 7.44414C19.32 6.86381 18.7 6.51362 18.01 6.51362H17.33V2.97165C17.33 2.18121 17.02 1.43079 16.46 0.870484C15.9 0.310172 15.15 0 14.36 0H11.73C11.11 0 10.51 0.190106 10.01 0.5403C9.51 0.890495 9.12 1.40078 8.92 1.9811L8.6 2.97165H7.88C7.33 2.97165 6.89 3.4119 6.89 3.9622C6.89 4.51251 7.33 4.95275 7.88 4.95275H9.31C9.52 4.95275 9.72 4.89272 9.89 4.76265C10.06 4.63257 10.19 4.47249 10.25 4.27237L10.79 2.65147C10.86 2.45136 10.98 2.28127 11.15 2.1612C11.32 2.04113 11.52 1.9711 11.73 1.9711H14.36C14.62 1.9711 14.87 2.07115 15.06 2.26126C15.25 2.45136 15.35 2.7015 15.35 2.96165V6.50361H7.96C6.86 6.50361 5.84 7.11395 5.33 8.0945L2.02 15.2084C2.01 15.1484 1.98 15.0884 1.98 15.0283V7.65425C1.98 7.10395 1.54 6.6637 0.99 6.6637C0.44 6.6637 0 7.10395 0 7.65425V15.0283C0 15.8188 0.31 16.5692 0.87 17.1295C1.43 17.6898 2.18 18 2.97 18H14.18C14.97 18 15.72 17.6898 16.28 17.1295C16.54 16.8694 16.73 16.5692 16.88 16.249H16.9L19.8 9.34519C20.1 8.72485 20.06 8.01445 19.69 7.43413V7.44414ZM15.3 15.0083L14.88 15.7387C14.69 15.9288 14.44 16.0289 14.18 16.0289H3.83L7.08 9.02501C7.25 8.69483 7.59 8.49472 7.96 8.49472H18.01L15.3 15.0083Z" fill="currentColor"/>
<path d="M0.99 3.9622H1.98V4.95275C1.98 5.2129 2.08 5.46304 2.27 5.65314C2.46 5.84325 2.71 5.9433 2.97 5.9433C3.23 5.9433 3.48 5.84325 3.67 5.65314C3.86 5.46304 3.96 5.2129 3.96 4.95275V3.9622H4.95C5.21 3.9622 5.46 3.86215 5.65 3.67204C5.84 3.48193 5.94 3.2318 5.94 2.97165C5.94 2.71151 5.84 2.46137 5.65 2.27126C5.46 2.08116 5.21 1.9811 4.95 1.9811H3.96V0.99055C3.96 0.730406 3.86 0.480267 3.67 0.290161C3.48 0.100056 3.24 0 2.97 0C2.7 0 2.46 0.100056 2.27 0.290161C2.08 0.480267 1.98 0.730406 1.98 0.99055V1.9811H0.99C0.73 1.9811 0.48 2.08116 0.29 2.27126C0.1 2.46137 0 2.71151 0 2.97165C0 3.2318 0.1 3.48193 0.29 3.67204C0.48 3.86215 0.73 3.9622 0.99 3.9622Z" fill="currentColor"/>
</svg>
