<svg width="24" height="24" viewBox="0 0 24 24" fill="none" xmlns="http://www.w3.org/2000/svg">
<path d="M3.0003 1.87402H11.6246V5.25055H10.272C10.0409 5.06041 9.78903 4.897 9.52123 4.76342C9.21297 4.61079 8.92872 4.50054 8.62684 4.50054C7.90984 4.50054 7.42646 4.84854 7.13808 5.29817C6.84896 5.74743 6.74958 6.27918 6.74958 6.74981C6.74958 7.22044 6.84933 7.75219 7.13771 8.20144C7.42646 8.65145 7.90984 8.99907 8.62647 8.99907C8.92872 8.99907 9.21297 8.88882 9.52123 8.7362C9.78903 8.60262 10.0409 8.4392 10.272 8.24907H11.6246L11.6254 11.6241L7.87534 11.6248C7.82604 11.6246 7.77718 11.6341 7.73154 11.6527C7.68591 11.6713 7.64439 11.6988 7.60936 11.7335C7.57433 11.7681 7.54647 11.8094 7.52738 11.8548C7.50829 11.9003 7.49833 11.949 7.49809 11.9983V13.8719C7.49809 13.9694 7.53634 14.0631 7.60346 14.1329C7.76546 14.3027 7.94059 14.5626 8.06359 14.8109C8.18659 15.0595 8.24884 15.3171 8.24884 15.3726C8.24884 15.7829 8.07559 16.051 7.79509 16.2314C7.51459 16.411 7.10696 16.4988 6.74958 16.4991C6.3922 16.4991 5.98458 16.411 5.70445 16.231C5.42357 16.051 5.25032 15.7829 5.25032 15.3726C5.25032 15.3167 5.31257 15.0595 5.43557 14.8109C5.55857 14.5626 5.7337 14.3027 5.8957 14.1329C5.9632 14.0627 6.0007 13.969 6.00108 13.8719V11.9983C6.00083 11.949 5.99088 11.9003 5.97179 11.8548C5.95269 11.8094 5.92484 11.7681 5.88981 11.7335C5.85477 11.6988 5.81326 11.6713 5.76762 11.6527C5.72198 11.6341 5.67312 11.6246 5.62382 11.6248H1.87305V3.00053C1.87305 3.00053 1.8798 2.7024 2.02267 2.41665C2.16292 2.13578 2.43405 1.87402 3.0003 1.87402Z" fill="currentColor"/>
<path d="M12.3753 1.87402H20.9996C21.5658 1.87402 21.837 2.13578 21.9772 2.41665C22.1201 2.7024 22.1268 3.00053 22.1268 3.00053V11.6233H18.7496V10.2711C18.9341 10.0506 19.1107 9.77495 19.2367 9.52033C19.3893 9.21245 19.4996 8.92782 19.4996 8.62595C19.4996 7.90894 19.1516 7.42556 18.7019 7.13719C18.2527 6.84843 17.7209 6.74906 17.2503 6.74868C16.7797 6.74868 16.2479 6.84843 15.7987 7.13681C15.3487 7.42556 15.001 7.90894 15.001 8.62595C15.001 8.92782 15.1113 9.21245 15.2639 9.52033C15.3899 9.77495 15.5665 10.0506 15.751 10.2711V11.6237L12.376 11.6245L12.3753 7.87557C12.3755 7.82627 12.366 7.77741 12.3474 7.73177C12.3288 7.68613 12.3013 7.64462 12.2666 7.60958C12.232 7.57455 12.1907 7.5467 12.1453 7.5276C12.0998 7.50851 12.0511 7.49856 12.0018 7.49831H10.1282C10.0307 7.49831 9.93699 7.53656 9.86762 7.60369C9.69774 7.76569 9.43749 7.94082 9.18886 8.06382C8.94099 8.18682 8.68336 8.24907 8.62748 8.24907C8.21723 8.24907 7.9491 8.07582 7.76873 7.79532C7.5891 7.51481 7.50135 7.10719 7.50098 6.74981C7.50098 6.39243 7.5891 5.9848 7.7691 5.70468C7.9491 5.4238 8.21723 5.25055 8.62748 5.25055C8.68336 5.25055 8.94099 5.3128 9.18924 5.4358C9.43749 5.5588 9.69774 5.73393 9.86724 5.89593C9.93737 5.96343 10.0311 6.00093 10.1282 6.00093H12.0018C12.2088 6.00055 12.376 5.83105 12.3753 5.62405V1.87402Z" fill="currentColor"/>
<path d="M17.2503 7.49902C17.6076 7.49902 18.0153 7.58715 18.2954 7.76715C18.5763 7.94715 18.7495 8.21528 18.7495 8.62553C18.7495 8.68141 18.6873 8.93903 18.5643 9.18729C18.4413 9.43554 18.2661 9.69579 18.1041 9.86567C18.0366 9.93542 17.9991 10.0292 17.9991 10.1263V11.9998C17.9995 12.2068 18.1686 12.3741 18.376 12.3733H22.1268V20.9991C22.1268 20.9991 22.12 21.2954 21.9772 21.5804C21.8347 21.8661 21.5688 22.1264 20.9995 22.1264H12.3767V18.7491H13.7294C13.9499 18.9336 14.2255 19.1102 14.4801 19.2362C14.788 19.3889 15.0726 19.4991 15.3745 19.4991C16.0915 19.4991 16.5749 19.1511 16.8633 18.7015C17.152 18.2522 17.2514 17.7205 17.2518 17.2498C17.2518 16.7792 17.152 16.2475 16.8636 15.7982C16.5749 15.3482 16.0915 15.0006 15.3745 15.0006C15.0726 15.0006 14.788 15.1108 14.4801 15.2635C14.2255 15.3895 13.9499 15.5661 13.7294 15.7506H12.3767L12.376 12.3741L16.1245 12.3733C16.1738 12.3736 16.2227 12.3641 16.2683 12.3455C16.3139 12.3268 16.3555 12.2994 16.3905 12.2647C16.4255 12.23 16.4534 12.1888 16.4725 12.1433C16.4916 12.0979 16.5015 12.0491 16.5018 11.9998V10.1263C16.5018 10.0292 16.4635 9.93504 16.3964 9.86567C16.2344 9.69579 16.0593 9.43554 15.9363 9.18729C15.8133 8.93903 15.751 8.68103 15.751 8.62553C15.751 8.21528 15.9243 7.94715 16.2048 7.76678C16.4853 7.58715 16.8929 7.4994 17.2503 7.49902Z" fill="currentColor"/>
<path d="M11.6254 12.374L11.6261 16.124C11.6259 16.1733 11.6353 16.2222 11.654 16.2678C11.6726 16.3135 11.7001 16.355 11.7347 16.39C11.7694 16.4251 11.8107 16.4529 11.8561 16.472C11.9016 16.4911 11.9503 16.5011 11.9996 16.5013H13.8731C13.9703 16.5013 14.0644 16.4631 14.1338 16.3959C14.3036 16.2339 14.5639 16.0588 14.8121 15.9358C15.0604 15.8128 15.3184 15.7505 15.3739 15.7505C15.7841 15.7505 16.0523 15.9238 16.2326 16.2043C16.4123 16.4848 16.5 16.8924 16.5004 17.2498C16.5004 17.6072 16.4123 18.0148 16.2323 18.2949C16.0523 18.5758 15.7841 18.7491 15.3739 18.7491C15.318 18.7491 15.0604 18.6868 14.8121 18.5638C14.5639 18.4408 14.3036 18.2657 14.1338 18.1037C14.0637 18.0364 13.9703 17.9987 13.8731 17.9987H11.9996C11.9001 17.9992 11.8049 18.0392 11.7349 18.1098C11.6648 18.1805 11.6257 18.2761 11.6261 18.3756V22.1263H3.0003C2.43105 22.1263 2.16517 21.8661 2.02267 21.5807C1.93491 21.3986 1.88406 21.2009 1.87305 20.9991V12.3748H5.25032V13.7274C5.06019 13.9585 4.89677 14.2104 4.76319 14.4782C4.61057 14.7864 4.50032 15.0707 4.50032 15.3725C4.50032 16.0895 4.84832 16.5729 5.29795 16.8613C5.7472 17.1504 6.27895 17.2498 6.74958 17.2498C7.22021 17.2498 7.75196 17.1501 8.20122 16.8617C8.65122 16.5729 8.99885 16.0895 8.99885 15.3729C8.99885 15.0707 8.8886 14.7864 8.73597 14.4782C8.60239 14.2104 8.43898 13.9585 8.24884 13.7274V12.3748L11.6254 12.374Z" fill="currentColor"/>
</svg>
