<svg width="24" height="24" viewBox="0 0 24 24" fill="currentColor" xmlns="http://www.w3.org/2000/svg">
<path d="M14.0681 17.7932H3.30947C2.87049 17.7932 2.44949 17.6189 2.13909 17.3084C1.82868 16.998 1.6543 16.577 1.6543 16.1381V7.8622C1.6543 7.42322 1.82868 7.00223 2.13909 6.69182C2.44949 6.38142 2.87049 6.20703 3.30947 6.20703H14.0681C14.5071 6.20703 14.9281 6.38142 15.2385 6.69182C15.5489 7.00223 15.7233 7.42322 15.7233 7.8622V16.1381C15.7233 16.577 15.5489 16.998 15.2385 17.3084C14.9281 17.6189 14.5071 17.7932 14.0681 17.7932ZM17.3784 9.51738V14.4829L21.0571 16.9359C21.1817 17.0191 21.3267 17.0668 21.4764 17.0741C21.6261 17.0813 21.775 17.0477 21.9072 16.9769C22.0393 16.9062 22.1497 16.8008 22.2267 16.6722C22.3036 16.5435 22.3441 16.3964 22.344 16.2465V7.75379C22.344 7.60396 22.3033 7.45694 22.2263 7.3284C22.1493 7.19987 22.0389 7.09465 21.9068 7.02396C21.7747 6.95328 21.6259 6.91978 21.4762 6.92705C21.3266 6.93432 21.1817 6.98208 21.0571 7.06524L17.3784 9.51738Z"/>
</svg>
