<svg width="57" height="50" viewBox="0 0 57 50" fill="none" xmlns="http://www.w3.org/2000/svg">
<path d="M56.2455 35.4153L49.64 46.9751C49.0524 47.9224 48.2275 48.6997 47.247 49.23C46.2665 49.7603 45.1644 50.025 44.05 49.9981H12.1932C11.0788 50.025 9.97672 49.7603 8.99618 49.23C8.01565 48.6997 7.19074 47.9224 6.60323 46.9751L3.89062 42.2275L15.1175 35.4153H56.2455Z" fill="#4285F4"/>
<path d="M20.5844 0.270752C19.0841 0.809113 17.8239 1.8632 17.0289 3.24481L0.953685 30.7488C0.368048 31.6973 0.0405016 32.7824 0.00352086 33.8966C-0.0334599 35.0107 0.221409 36.1151 0.742859 37.1004L3.93024 42.2373L15.1173 35.4153L28.1212 13.1661L20.5844 0.270752Z" fill="#00AC47"/>
<path d="M15.1159 35.4153H0.137695C0.24621 36.0061 0.450265 36.5753 0.741839 37.1004L3.91255 42.2134L3.8886 42.2279L6.60183 46.9753C7.25162 48.0492 8.22759 48.8875 9.38735 49.3677L15.1159 35.4153L15.099 35.4255L15.1159 35.4153Z" fill="#0066DA"/>
<path d="M35.6366 0.270752C37.1369 0.809059 38.397 1.86316 39.1919 3.24481L55.2676 30.7488C55.8532 31.6973 56.1808 32.7824 56.2178 33.8965C56.2548 35.0107 56 36.1151 55.4786 37.1004L52.2922 42.2373L41.1037 35.4153L28.0996 13.1661L35.6366 0.270752Z" fill="#FFBA00"/>
<path d="M41.1035 35.4153H56.0821C55.9736 36.0061 55.7696 36.5753 55.478 37.1004L52.3064 42.2136L52.3306 42.2282L49.6178 46.9753C48.9679 48.0492 47.992 48.8874 46.8323 49.3677L41.1037 35.4153L41.1206 35.4255L41.1035 35.4153Z" fill="#EA4435"/>
<path d="M35.6527 0.279573L35.6575 0.27124C35.4118 0.186132 35.1606 0.117715 34.9056 0.0664557L28.1207 0L21.3357 0.0664557C21.0808 0.117715 20.8296 0.186132 20.5839 0.27124C20.3216 0.369789 20.0662 0.485738 19.8193 0.618311L28.0976 13.1662L36.4058 0.623519C36.1626 0.492513 35.911 0.377618 35.6527 0.279573Z" fill="#188038"/>
</svg>
