<svg width="66" height="50" viewBox="0 0 66 50" fill="none" xmlns="http://www.w3.org/2000/svg">
<path d="M5.3194 50C3.70997 50 2.4209 49.4697 1.45254 48.409C0.48418 47.3483 0 45.9683 0 44.269C0 42.4432 0.493546 40.9867 1.48028 39.8995C2.46701 38.8124 3.81021 38.2689 5.50935 38.2689C7.07653 38.2689 8.33913 38.7966 9.29704 39.8521C10.2548 40.9075 10.7336 42.2875 10.7337 43.992C10.7337 45.8442 10.2429 47.3087 9.26138 48.3852C8.27978 49.4618 6.96576 50 5.3194 50ZM5.41442 39.4722C4.2218 39.4722 3.25344 39.9022 2.50934 40.7624C1.76524 41.6226 1.39319 42.7519 1.39319 44.1503C1.39319 45.5487 1.75596 46.6741 2.4816 47.5264C3.20724 48.3786 4.15317 48.8047 5.31949 48.8047C6.5648 48.8047 7.5463 48.3983 8.26402 47.5857C8.98164 46.7731 9.34045 45.6358 9.34054 44.174C9.34054 42.6753 8.99218 41.517 8.29563 40.699C7.59899 39.8812 6.63856 39.4722 5.41451 39.4722H5.41442ZM19.5202 49.8101H18.222V45.1873C18.222 43.4669 17.594 42.6068 16.3381 42.6068C15.689 42.6068 15.1521 42.8509 14.7272 43.339C14.3024 43.8272 14.09 44.4433 14.09 45.1873V49.8101H12.7919V41.7044H14.09V43.05H14.1217C14.7339 42.0263 15.6205 41.5144 16.7814 41.5144C17.668 41.5144 18.3461 41.8007 18.8157 42.3732C19.2853 42.9457 19.5201 43.773 19.5202 44.8548V49.8101ZM28.4887 46.0818H22.7656C22.7867 46.9843 23.0295 47.6808 23.4939 48.1716C23.9582 48.6623 24.5968 48.9077 25.4095 48.9077C26.3225 48.9077 27.1615 48.6069 27.9268 48.0053V49.2243C27.2144 49.7415 26.2723 50 25.1008 50C23.9556 50 23.0559 49.6319 22.4016 48.8958C21.7473 48.1596 21.42 47.124 21.42 45.7889C21.42 44.5276 21.7775 43.4999 22.4926 42.7057C23.2078 41.9115 24.0955 41.5144 25.1562 41.5144C26.2169 41.5144 27.0376 41.8574 27.618 42.5434C28.1983 43.2294 28.4886 44.182 28.4887 45.401V46.0818ZM27.1588 44.9815C27.1534 44.2322 26.9728 43.649 26.6166 43.2321C26.2604 42.8152 25.7656 42.6068 25.1324 42.6068C24.5202 42.6068 24.0005 42.8259 23.573 43.2638C23.1456 43.7018 22.8817 44.2744 22.7815 44.9815H27.1588ZM30.6338 49.8101V38.459H33.7685C37.7685 38.459 39.7686 40.3034 39.7686 43.9921C39.7686 45.7441 39.2132 47.1518 38.1024 48.2152C36.9914 49.2785 35.5045 49.8102 33.6418 49.8102H30.6338V49.8101ZM31.9637 39.6621V48.6068H33.6578C35.1458 48.6068 36.3042 48.2084 37.1327 47.4116C37.9612 46.6148 38.3756 45.4854 38.3756 44.0237C38.3756 41.116 36.8293 39.6621 33.7369 39.6621H31.9637ZM46.0536 43.0184C45.8267 42.8442 45.4996 42.7572 45.0721 42.7572C44.5181 42.7572 44.0549 43.0184 43.6829 43.5409C43.3108 44.0633 43.1249 44.7757 43.1249 45.6781V49.8101H41.8267V41.7044H43.1249V43.3746H43.1566C43.3413 42.8047 43.6236 42.3601 44.0035 42.0408C44.3834 41.7215 44.8083 41.5619 45.2779 41.5619C45.6157 41.5619 45.8742 41.5988 46.0536 41.6727V43.0184ZM48.1275 39.6464C47.8953 39.6464 47.6975 39.5672 47.5338 39.4089C47.3702 39.2505 47.2884 39.0501 47.2884 38.8072C47.2884 38.5644 47.3702 38.3626 47.5338 38.2017C47.6975 38.0407 47.8953 37.9602 48.1275 37.9602C48.365 37.9602 48.5668 38.0407 48.7331 38.2017C48.8994 38.3626 48.9826 38.5644 48.9826 38.8072C48.9826 39.0394 48.8994 39.2373 48.7331 39.4009C48.5668 39.5646 48.365 39.6464 48.1275 39.6464ZM48.7608 49.8101H47.4627V41.7044H48.7608V49.8101ZM57.7609 41.7044L54.5314 49.8101H53.257L50.1856 41.7044H51.6104L53.6686 47.5937C53.8217 48.0265 53.9166 48.4038 53.9535 48.7256H53.9852C54.038 48.3193 54.1224 47.9525 54.2385 47.6253L56.3915 41.7044H57.7609ZM65.6608 46.0818H59.9378C59.9588 46.9843 60.2017 47.6808 60.666 48.1716C61.1304 48.6623 61.7689 48.9077 62.5817 48.9077C63.4946 48.9077 64.3337 48.6069 65.0989 48.0053V49.2243C64.3865 49.7415 63.4445 50 62.2729 50C61.1278 50 60.228 49.6319 59.5737 48.8958C58.9194 48.1596 58.5921 47.124 58.5921 45.7889C58.5921 44.5276 58.9497 43.4999 59.6648 42.7057C60.3799 41.9115 61.2676 41.5144 62.3283 41.5144C63.389 41.5144 64.2097 41.8574 64.7901 42.5434C65.3705 43.2294 65.6608 44.182 65.6608 45.401V46.0818ZM64.331 44.9815C64.3256 44.2322 64.145 43.649 63.7888 43.2321C63.4326 42.8152 62.9378 42.6068 62.3045 42.6068C61.6924 42.6068 61.1726 42.8259 60.7452 43.2638C60.3177 43.7018 60.0539 44.2744 59.9536 44.9815H64.331Z" fill="#094AB1"/>
<path d="M23.9032 30.3319C20.7813 29.5514 19.0429 27.0697 19.0361 23.3886C19.0361 22.206 19.1206 21.6468 19.4146 20.89C20.1342 19.0317 22.0415 17.6346 24.5503 17.1193C25.7987 16.8625 26.1839 16.5872 26.1839 15.9503C26.2474 15.4977 26.3608 15.0535 26.5218 14.6258C27.3479 12.2269 28.8751 10.2334 30.5087 9.41068C32.2167 8.55416 33.0799 8.36157 35.146 8.37171C38.0822 8.3886 39.5384 9.0255 41.5944 11.1761L42.7212 12.3586L43.7348 12.0106C48.6188 10.3213 53.4876 13.1932 53.8795 18.0045L53.9877 19.3206L54.9489 19.6584C57.6958 20.6433 58.9865 22.7095 58.7534 25.7402C58.5997 27.7269 57.6705 29.3132 56.1991 30.1005L55.4946 30.484L40.1213 30.5144C28.3074 30.5363 24.5519 30.4941 23.9032 30.3319Z" fill="#094AB1"/>
<path d="M12.3796 28.2126C10.5584 27.7767 8.62579 26.1668 7.72029 24.327C7.21348 23.283 7.17969 23.1293 7.17969 21.2862C7.17969 19.5275 7.22361 19.2471 7.63244 18.3737C8.49402 16.5289 10.1462 15.2044 12.2191 14.679C12.6566 14.5692 13.0638 14.3935 13.1314 14.2888C13.1989 14.184 13.2682 13.613 13.3003 13.02C13.4456 9.34057 15.8597 6.09358 19.23 5.058C21.0512 4.49543 23.3403 4.63227 25.3219 5.42628C25.9487 5.67631 25.8794 5.73037 27.2073 3.98862C27.9928 2.9581 29.5808 1.67755 30.88 1.02545C32.2737 0.320982 33.7333 0 35.4768 0C40.3523 0.0118256 44.5538 3.06115 46.1063 7.71539C46.603 9.20204 46.5793 9.61763 45.9931 9.63114C45.4433 9.69096 44.8992 9.79549 44.3663 9.94368L43.204 10.2461L42.1498 9.18514C39.1596 6.19495 34.279 5.5496 30.1299 7.59375C28.5036 8.38277 27.1226 9.59916 26.1345 11.1127C25.4165 12.2024 24.5026 14.2347 24.5026 14.7398C24.5026 15.098 24.212 15.277 22.9821 15.6825C19.1489 16.9394 16.9122 19.8434 16.9139 23.5584C16.9139 24.9099 17.2619 26.5655 17.7451 27.5132C17.9275 27.8697 18.0289 28.2092 17.9714 28.2684C17.8228 28.4153 13.0537 28.3663 12.3965 28.2092L12.3796 28.2126Z" fill="#094AB1"/>
</svg>
