<svg width="54" height="60" viewBox="0 0 54 60" fill="none" xmlns="http://www.w3.org/2000/svg">
<path d="M5.55085 56.5902L0 51.0504H5.55085V56.5902Z" fill="#A3313A"/>
<path d="M47.6504 56.5902L53.2012 51.0504H47.6504V56.5902Z" fill="#A3313A"/>
<path d="M47.0066 58.1731V58.1868L47.007 58.2004C47.0108 58.3201 46.9903 58.4395 46.9466 58.5517L47.7518 58.8655L46.9466 58.5517C46.9029 58.664 46.8366 58.767 46.7513 58.8547L47.3702 59.4577L46.7513 58.8547C46.6659 58.9423 46.5631 59.0127 46.4487 59.0612L46.7858 59.8568L46.4486 59.0612C46.3349 59.1094 46.2122 59.1348 46.0879 59.1358H7.10958C6.86239 59.1338 6.62787 59.0353 6.45646 58.8647C6.28488 58.6939 6.19033 58.465 6.19034 58.2285V1.76047C6.19034 1.52588 6.28448 1.29892 6.45522 1.13008C6.62628 0.960906 6.86031 0.864167 7.10633 0.864167H38.7864L42.7481 4.82562L42.7482 4.82571L47.0066 9.08516V58.1731Z" fill="white" stroke="#D8D8D8" stroke-width="1.72833"/>
<path d="M1.11674 30.724H52.0826C52.3765 30.724 52.6583 30.8407 52.8661 31.0485C53.0739 31.2563 53.1906 31.5381 53.1906 31.832V50.6672H0.00878906V31.832C0.00878906 31.5381 0.12552 31.2563 0.333302 31.0485C0.541083 30.8407 0.822896 30.724 1.11674 30.724Z" fill="#FF2116"/>
<path d="M17.3712 42.3312V45.5111H15.1553V36.448H18.7007C19.5949 36.3852 20.478 36.6756 21.1604 37.2568C21.4549 37.5421 21.6837 37.8881 21.831 38.2708C21.9784 38.6534 22.0406 39.0636 22.0135 39.4727C22.0193 39.9955 21.8895 40.5108 21.6368 40.9684C21.3773 41.4165 20.992 41.7785 20.5289 42.0099C19.9658 42.2785 19.3464 42.4077 18.7229 42.3866L17.3712 42.3312ZM19.8087 39.4173C19.8087 38.6196 19.3655 38.2207 18.4791 38.2207H17.3712V40.5807H18.4791C19.3655 40.5807 19.8087 40.1929 19.8087 39.4173ZM30.6888 43.2951C30.3099 43.9786 29.7401 44.5368 29.049 44.9017C28.2723 45.3017 27.4074 45.4998 26.534 45.4778H23.1104V36.448H26.534C27.4062 36.4249 28.2705 36.6191 29.049 37.013C29.742 37.3701 30.3129 37.9255 30.6888 38.6085C31.0777 39.3332 31.2724 40.1462 31.2539 40.9684C31.2637 41.7791 31.0694 42.5793 30.6888 43.2951ZM28.3289 42.8409C28.7874 42.3097 29.0396 41.6314 29.0396 40.9297C29.0396 40.228 28.7874 39.5496 28.3289 39.0184C27.779 38.5394 27.0624 38.2966 26.3345 38.3426H25.3041V43.5167H26.3345C27.0578 43.5719 27.7739 43.3412 28.3289 42.8741V42.8409ZM38.4112 36.448V38.1986H34.6885V40.1818H37.5581V41.8437H34.6885V45.5111H32.4726V36.448H38.4112Z" fill="white"/>
<path d="M15.6083 27.0222C14.3374 25.7459 15.712 24.0004 19.4538 22.1404L21.8047 20.9731L22.7211 18.9659C23.2283 17.8749 23.9811 16.064 24.3956 14.9677L25.1483 12.9713L24.6301 11.4931C23.9865 9.68222 23.7629 6.95495 24.1665 5.97313C24.712 4.64768 26.5174 4.78404 27.232 6.20768C27.7774 7.29859 27.7338 9.33313 27.0738 11.8695L26.5283 13.9531L27.0083 14.7604C27.5328 15.5741 28.1009 16.3589 28.7101 17.1113L29.9756 18.6877L31.552 18.4804C36.5647 17.8259 38.2774 18.9386 38.2774 20.5313C38.2774 22.544 34.3447 22.7131 31.0447 20.3895C30.5983 20.0776 30.1787 19.7291 29.7902 19.3477C29.7902 19.3477 27.7174 19.7677 26.7029 20.0459C25.6883 20.324 25.1265 20.504 23.5829 21.0222C23.5829 21.0222 23.0374 21.8077 22.6938 22.3804C21.3847 24.5022 19.852 26.264 18.7611 26.9022C17.5392 27.6168 16.252 27.6822 15.6083 27.0222ZM17.6101 26.3077C18.3247 25.8659 19.792 24.1531 20.7738 22.5604L21.1829 21.9168L19.3338 22.8495C16.4756 24.284 15.172 25.6368 15.8483 26.455C16.2301 26.9131 16.6883 26.875 17.6101 26.3077ZM36.1556 21.0986C36.3101 20.9864 36.4324 20.8356 36.5103 20.6614C36.5883 20.4871 36.6192 20.2954 36.5998 20.1055C36.5805 19.9156 36.5117 19.734 36.4002 19.579C36.2888 19.424 36.1386 19.301 35.9647 19.2222C35.3483 18.9113 34.8738 18.8513 33.2374 18.8731C32.2501 18.9386 30.6683 19.1404 30.4011 19.2004C30.4011 19.2004 31.2738 19.8004 31.6556 20.0186C32.5129 20.4598 33.4072 20.8248 34.3283 21.1095C35.2283 21.3822 35.7465 21.355 36.1392 21.0713L36.1556 21.0986ZM28.6992 18.0004C28.116 17.3505 27.5801 16.6597 27.0956 15.9331C26.7662 15.5094 26.4673 15.0628 26.2011 14.5968C26.2011 14.5968 25.7647 16.004 25.4047 16.8495L24.2865 19.6095L23.9647 20.2368C23.9647 20.2368 25.6883 19.6913 26.5611 19.4459C27.4338 19.2004 29.3756 18.8295 29.3756 18.8295L28.6992 18.0004ZM26.3047 8.36222C26.4138 7.45132 26.4629 6.54586 26.1683 6.09313C25.3611 5.2095 24.3847 5.94586 24.532 8.04586C24.6066 8.94561 24.7636 9.83662 25.001 10.7077L25.4265 12.0604L25.7265 11.0404C25.9541 10.1576 26.1361 9.2637 26.272 8.36222H26.3047Z" fill="#FF2116"/>
<path d="M47.8757 8.72727H41.1484C40.0439 8.72727 39.1484 7.83184 39.1484 6.72727V0L47.8757 8.72727Z" fill="#B2B2B2"/>
</svg>
