<svg width="47" height="60" viewBox="0 0 47 60" fill="none" xmlns="http://www.w3.org/2000/svg">
<path d="M1.75087 0C1.28084 0.0155548 0.83554 0.202559 0.508962 0.521576C0.182385 0.840593 -5.98935e-07 1.26671 0.000289006 1.71002V58.29C-0.00392818 58.5106 0.0380454 58.7299 0.123742 58.9352C0.209439 59.1406 0.337176 59.328 0.499735 59.4868C0.662294 59.6455 0.856492 59.7726 1.07115 59.8607C1.28582 59.9487 1.5168 59.9961 1.75087 60H44.7802C45.0128 59.9962 45.2423 59.9486 45.4553 59.8602C45.6682 59.7718 45.8602 59.6442 46.0203 59.485C46.1803 59.3258 46.3051 59.1381 46.3872 58.933C46.4694 58.7278 46.5073 58.5092 46.4988 58.29V13.5L33 0H1.75087Z" fill="#1D7A29"/>
<path d="M9.29004 45.2319C9.29004 44.9194 9.39746 44.6582 9.6123 44.4482C9.83203 44.2383 10.1226 44.1333 10.4839 44.1333C10.8452 44.1333 11.1333 44.2383 11.3481 44.4482C11.5679 44.6582 11.6777 44.9194 11.6777 45.2319C11.6777 45.5444 11.5679 45.8057 11.3481 46.0156C11.1333 46.2256 10.8452 46.3306 10.4839 46.3306C10.1226 46.3306 9.83203 46.2256 9.6123 46.0156C9.39746 45.8057 9.29004 45.5444 9.29004 45.2319ZM15.6475 39.8486V49.2969H13.5381V38.3252H15.4937L15.6475 39.8486ZM20.6646 42.1997V42.3535C20.6646 42.9297 20.5962 43.4644 20.4595 43.9575C20.3276 44.4507 20.1323 44.8804 19.8735 45.2466C19.6147 45.6079 19.2925 45.8911 18.9067 46.0962C18.5259 46.2964 18.0864 46.3965 17.5884 46.3965C17.105 46.3965 16.6851 46.2988 16.3286 46.1035C15.9722 45.9082 15.6719 45.6348 15.4277 45.2832C15.1885 44.9268 14.9956 44.5142 14.8491 44.0454C14.7026 43.5767 14.5903 43.0737 14.5122 42.5366V42.1338C14.5903 41.5576 14.7026 41.0303 14.8491 40.5518C14.9956 40.0684 15.1885 39.6509 15.4277 39.2993C15.6719 38.9429 15.9697 38.667 16.3213 38.4717C16.6777 38.2764 17.0952 38.1787 17.5737 38.1787C18.0767 38.1787 18.5186 38.2739 18.8994 38.4644C19.2852 38.6548 19.6074 38.9282 19.8662 39.2847C20.1299 39.6411 20.3276 40.0659 20.4595 40.5591C20.5962 41.0522 20.6646 41.5991 20.6646 42.1997ZM18.5479 42.3535V42.1997C18.5479 41.8628 18.5186 41.5527 18.46 41.2695C18.4062 40.9814 18.3184 40.73 18.1963 40.5151C18.0791 40.3003 17.9229 40.1343 17.7275 40.0171C17.5371 39.895 17.3052 39.834 17.0317 39.834C16.7437 39.834 16.4971 39.8804 16.292 39.9731C16.0918 40.0659 15.9282 40.2002 15.8013 40.376C15.6743 40.5518 15.5791 40.7617 15.5156 41.0059C15.4521 41.25 15.4131 41.5259 15.3984 41.8335V42.8516C15.4229 43.2129 15.4912 43.5376 15.6035 43.8257C15.7158 44.1089 15.8892 44.3335 16.1235 44.4995C16.3579 44.6655 16.6655 44.7485 17.0464 44.7485C17.3247 44.7485 17.5591 44.6875 17.7495 44.5654C17.9399 44.4385 18.0938 44.2651 18.2109 44.0454C18.333 43.8257 18.4185 43.5718 18.4673 43.2837C18.521 42.9956 18.5479 42.6855 18.5479 42.3535ZM24.041 40.0171V46.25H21.9316V38.3252H23.9092L24.041 40.0171ZM23.7334 42.0093H23.1621C23.1621 41.4233 23.2378 40.896 23.3892 40.4272C23.5405 39.9536 23.7529 39.5508 24.0264 39.2188C24.2998 38.8818 24.6245 38.6255 25.0005 38.4497C25.3813 38.269 25.8062 38.1787 26.2749 38.1787C26.646 38.1787 26.9854 38.2324 27.293 38.3398C27.6006 38.4473 27.8643 38.6182 28.084 38.8525C28.3086 39.0869 28.4795 39.397 28.5967 39.7827C28.7188 40.1685 28.7798 40.6396 28.7798 41.1963V46.25H26.6558V41.189C26.6558 40.8374 26.6069 40.564 26.5093 40.3687C26.4116 40.1733 26.2676 40.0366 26.0771 39.9585C25.8916 39.8755 25.6621 39.834 25.3887 39.834C25.1055 39.834 24.8589 39.8901 24.6489 40.0024C24.4438 40.1147 24.2729 40.271 24.1362 40.4712C24.0044 40.6665 23.9043 40.896 23.8359 41.1597C23.7676 41.4233 23.7334 41.7065 23.7334 42.0093ZM35.4009 38.3252H37.3125V45.9863C37.3125 46.709 37.1514 47.3218 36.8291 47.8247C36.5117 48.3325 36.0674 48.7158 35.4961 48.9746C34.9248 49.2383 34.2607 49.3701 33.5039 49.3701C33.1719 49.3701 32.8203 49.3262 32.4492 49.2383C32.083 49.1504 31.7314 49.0137 31.3945 48.8281C31.0625 48.6426 30.7842 48.4082 30.5596 48.125L31.4897 46.8799C31.7339 47.1631 32.0171 47.3828 32.3394 47.5391C32.6616 47.7002 33.0181 47.7808 33.4087 47.7808C33.7896 47.7808 34.1118 47.71 34.3755 47.5684C34.6392 47.4316 34.8418 47.229 34.9834 46.9604C35.125 46.6968 35.1958 46.377 35.1958 46.001V40.1562L35.4009 38.3252ZM30.0688 42.3828V42.229C30.0688 41.6235 30.1421 41.0742 30.2886 40.5811C30.4399 40.083 30.6523 39.6558 30.9258 39.2993C31.2041 38.9429 31.541 38.667 31.9365 38.4717C32.332 38.2764 32.7788 38.1787 33.2769 38.1787C33.8042 38.1787 34.2461 38.2764 34.6025 38.4717C34.959 38.667 35.252 38.9453 35.4814 39.3066C35.7109 39.6631 35.8892 40.0854 36.0161 40.5737C36.1479 41.0571 36.2505 41.5869 36.3237 42.1631V42.5C36.2505 43.0518 36.1406 43.5645 35.9941 44.0381C35.8477 44.5117 35.6548 44.9268 35.4155 45.2832C35.1763 45.6348 34.8784 45.9082 34.522 46.1035C34.1704 46.2988 33.7505 46.3965 33.2622 46.3965C32.7739 46.3965 32.332 46.2964 31.9365 46.0962C31.5459 45.896 31.2114 45.6152 30.9331 45.2539C30.6548 44.8926 30.4399 44.4678 30.2886 43.9795C30.1421 43.4912 30.0688 42.959 30.0688 42.3828ZM32.1782 42.229V42.3828C32.1782 42.71 32.21 43.0151 32.2734 43.2983C32.3369 43.5815 32.4346 43.833 32.5664 44.0527C32.7031 44.2676 32.8716 44.436 33.0718 44.5581C33.2769 44.6753 33.5186 44.7339 33.7969 44.7339C34.1826 44.7339 34.4976 44.6533 34.7417 44.4922C34.9858 44.3262 35.1689 44.0991 35.291 43.811C35.4131 43.5229 35.4839 43.1909 35.5034 42.8149V41.8555C35.4937 41.5479 35.4521 41.272 35.3789 41.0278C35.3057 40.7788 35.2031 40.5664 35.0713 40.3906C34.9395 40.2148 34.7686 40.0781 34.5586 39.9805C34.3486 39.8828 34.0996 39.834 33.8115 39.834C33.5332 39.834 33.2915 39.8975 33.0864 40.0244C32.8862 40.1465 32.7178 40.3149 32.5811 40.5298C32.4492 40.7446 32.3491 40.9985 32.2808 41.2915C32.2124 41.5796 32.1782 41.8921 32.1782 42.229Z" fill="white"/>
<path d="M33 0V12.0578C33 12.4403 33.1024 12.8072 33.3868 13.0776C33.6712 13.3481 34.057 13.5 34.4592 13.5H46.5L33 0Z" fill="#114118"/>
<rect x="15.75" y="12.75" width="7.5" height="7.5" fill="#CACACC"/>
<rect x="15.75" y="20.25" width="7.5" height="7.5" fill="white"/>
<rect x="23.25" y="12.75" width="7.5" height="7.5" fill="white"/>
<rect x="23.25" y="20.25" width="7.5" height="7.5" fill="#CACACC"/>
</svg>
