<svg width="233" height="231" viewBox="0 0 233 231" fill="none" xmlns="http://www.w3.org/2000/svg">
<path d="M27.8521 216.603C29.1996 210.805 35.3817 200.082 37.2437 203.414C39.5712 207.579 38.6729 219.502 35.5287 220.197C32.3846 220.891 36.9579 203.496 40.8779 204.721C44.0139 205.701 42.1846 210.791 40.8779 213.214C41.3407 209.947 41.9352 205.374 48.3504 202.312" stroke="#5C51BB" stroke-width="0.98" stroke-linecap="round"/>
<path d="M147.331 46.7331C151.534 28.6437 170.82 -4.8091 176.628 5.58596C183.889 18.5798 181.086 55.7777 171.278 57.9434C161.47 60.109 175.736 5.84076 187.965 9.66243C197.747 12.7198 192.041 28.6011 187.965 36.1596C189.408 25.9684 191.263 11.7008 211.276 2.14648" stroke="#5C51BB" stroke-width="0.98" stroke-linecap="round"/>
<path d="M20.0308 117.83L23.0994 38.2964H118.13V114.577L20.0308 117.83Z" stroke="black" stroke-width="0.98"/>
<path d="M118.62 37.8064H22.6274V53.7976H118.62V37.8064Z" fill="#5C51BB"/>
<path d="M30.1816 49.8867C32.4377 49.8867 34.2666 48.0578 34.2666 45.8018C34.2666 43.5457 32.4377 41.7168 30.1816 41.7168C27.9256 41.7168 26.0967 43.5457 26.0967 45.8018C26.0967 48.0578 27.9256 49.8867 30.1816 49.8867Z" fill="white"/>
<path d="M40.8018 49.8867C43.0578 49.8867 44.8867 48.0578 44.8867 45.8018C44.8867 43.5457 43.0578 41.7168 40.8018 41.7168C38.5457 41.7168 36.7168 43.5457 36.7168 45.8018C36.7168 48.0578 38.5457 49.8867 40.8018 49.8867Z" fill="white"/>
<path d="M51.4233 49.8867C53.6794 49.8867 55.5083 48.0578 55.5083 45.8018C55.5083 43.5457 53.6794 41.7168 51.4233 41.7168C49.1673 41.7168 47.3384 43.5457 47.3384 45.8018C47.3384 48.0578 49.1673 49.8867 51.4233 49.8867Z" fill="white"/>
<path d="M86.8972 106.312H10.5386V156.741" stroke="#5C51BB" stroke-width="0.98"/>
<path d="M84.2988 60.0884H173.78V124.074H92.1756L84.2988 60.0884Z" fill="#EEEDF8"/>
<path d="M91.6658 140.958L83.6943 76.9185H188.538L192.761 139.929L91.6658 140.958Z" stroke="black" stroke-width="0.98"/>
<path d="M97.8018 56.2612L179.365 53.1475L177.317 120.247" stroke="black" stroke-width="0.98"/>
<path d="M83.3159 76.4287H188.584L189.539 89.6753L84.9648 89.3617L83.3159 76.4287Z" fill="#5C51BB"/>
<path d="M93.7896 86.4361C95.6584 86.4361 97.1734 84.9211 97.1734 83.0523C97.1734 81.1834 95.6584 79.6685 93.7896 79.6685C91.9207 79.6685 90.4058 81.1834 90.4058 83.0523C90.4058 84.9211 91.9207 86.4361 93.7896 86.4361Z" fill="white"/>
<path d="M102.587 86.4361C104.456 86.4361 105.971 84.9211 105.971 83.0523C105.971 81.1834 104.456 79.6685 102.587 79.6685C100.719 79.6685 99.2036 81.1834 99.2036 83.0523C99.2036 84.9211 100.719 86.4361 102.587 86.4361Z" fill="white"/>
<path d="M111.385 86.4361C113.254 86.4361 114.769 84.9211 114.769 83.0523C114.769 81.1834 113.254 79.6685 111.385 79.6685C109.516 79.6685 108.001 81.1834 108.001 83.0523C108.001 84.9211 109.516 86.4361 111.385 86.4361Z" fill="white"/>
<path d="M197.147 85.7126C197.147 87.3933 196.766 90.673 195.074 90.673C193.383 90.673 191.022 87.3933 191.022 85.7126C191.022 84.0319 192.393 82.6697 194.084 82.6697C195.776 82.6697 197.147 84.0319 197.147 85.7126Z" fill="#5C51BB"/>
<path d="M204.397 87.6835C204.397 88.964 204.108 91.4622 202.828 91.4622C201.547 91.4622 199.76 88.964 199.76 87.6835C199.76 86.403 200.798 85.365 202.078 85.365C203.359 85.365 204.397 86.403 204.397 87.6835Z" fill="#5C51BB"/>
<path d="M84.2837 219.588C84.2837 221.371 83.8011 224.851 81.6581 224.851C79.516 224.851 76.5254 221.371 76.5254 219.588C76.5254 217.804 78.2616 216.358 80.4046 216.358C82.5467 216.358 84.2837 217.804 84.2837 219.588Z" fill="#9C96D6"/>
<path d="M197.946 95.7687C197.946 97.0492 197.657 99.5474 196.377 99.5474C195.096 99.5474 193.309 97.0492 193.309 95.7687C193.309 94.4882 194.347 93.4502 195.627 93.4502C196.908 93.4502 197.946 94.4882 197.946 95.7687Z" fill="#9C96D6"/>
<path d="M204.407 95.7687C204.407 97.0492 204.119 99.5474 202.838 99.5474C201.558 99.5474 199.77 97.0492 199.77 95.7687C199.77 94.4882 200.808 93.4502 202.089 93.4502C203.369 93.4502 204.407 94.4882 204.407 95.7687Z" fill="#9C96D6"/>
<path d="M210.859 95.7687C210.859 97.0492 210.571 99.5474 209.29 99.5474C208.01 99.5474 206.222 97.0492 206.222 95.7687C206.222 94.4882 207.26 93.4502 208.541 93.4502C209.821 93.4502 210.859 94.4882 210.859 95.7687Z" fill="#9C96D6"/>
<path d="M198.027 103.853C198.027 105.133 197.738 107.632 196.458 107.632C195.178 107.632 193.39 105.133 193.39 103.853C193.39 102.572 194.428 101.534 195.709 101.534C196.989 101.534 198.027 102.572 198.027 103.853Z" fill="#DEDCF1"/>
<path d="M72.0335 221.606C72.0335 224.504 71.378 230.159 68.4688 230.159C65.5597 230.159 61.4985 224.504 61.4985 221.606C61.4985 218.707 63.8569 216.358 66.766 216.358C69.6752 216.358 72.0335 218.707 72.0335 221.606Z" fill="#5C51BB"/>
<path d="M214.542 106.224C214.542 108.813 213.957 113.866 211.364 113.866C208.771 113.866 205.15 108.813 205.15 106.224C205.15 103.634 207.252 101.534 209.846 101.534C212.439 101.534 214.542 103.634 214.542 106.224Z" fill="#DEDCF1"/>
<path d="M18.5233 18.4299C18.5233 19.7104 18.2348 22.2089 16.9543 22.2089C15.6737 22.2089 13.8862 19.7104 13.8862 18.4299C13.8862 17.1494 14.9243 16.1113 16.2047 16.1113C17.4853 16.1113 18.5233 17.1494 18.5233 18.4299Z" fill="#5C51BB"/>
<path d="M24.9857 18.4299C24.9857 19.7104 24.6972 22.2089 23.4167 22.2089C22.1362 22.2089 20.3486 19.7104 20.3486 18.4299C20.3486 17.1494 21.3867 16.1113 22.6672 16.1113C23.9477 16.1113 24.9857 17.1494 24.9857 18.4299Z" fill="#9C96D6"/>
<path d="M31.4369 18.4299C31.4369 19.7104 31.1484 22.2089 29.8679 22.2089C28.5873 22.2089 26.7998 19.7104 26.7998 18.4299C26.7998 17.1494 27.8379 16.1113 29.1183 16.1113C30.3989 16.1113 31.4369 17.1494 31.4369 18.4299Z" fill="#DEDCF1"/>
<path d="M172.73 31.0601L193.158 43.1322L184.934 46.2195L189.712 54.3075L178.562 51.9296L184.28 64.2679L158.271 51.3987L172.73 31.0601Z" stroke="black" stroke-width="0.98"/>
<path d="M202.07 61.219L201.304 48.8628L222.027 62.2866C217.895 68.135 208.302 80.7317 208.302 80.7317C208.302 80.7317 194.634 71.5798 188.464 66.5537L197.849 66.3258L193.506 61.7437L202.07 61.219Z" stroke="black" stroke-width="0.98"/>
<path d="M195.264 63.4231L220.994 62.2121L201.434 49.0229L202.047 61.1096L193.309 61.6813L195.264 63.4231Z" fill="#5C51BB"/>
<path d="M182.966 52.5927L172.536 31.3464L193.308 42.8979L185.019 46.4504L189.062 54.0045L182.966 52.5927Z" fill="#5C51BB"/>
<path d="M78.1783 19.8018L85.1747 23.227L82.563 24.4492L84.3352 26.9734L80.6242 26.4822L82.8129 30.3733L73.9692 26.8309L78.1783 19.8018Z" stroke="black" stroke-width="0.98"/>
<path d="M88.5575 28.9175L87.9891 24.8931L95.1169 28.7531C93.9156 30.7737 91.0997 35.1437 91.0997 35.1437C91.0997 35.1437 86.3908 32.5001 84.2422 31.0139L87.308 30.6977L85.7685 29.3098L88.5575 28.9175Z" stroke="black" stroke-width="0.98"/>
<path d="M86.3873 29.8146L94.7769 28.7558L88.0362 24.9426L88.5474 28.8828L85.7021 29.2949L86.3873 29.8146Z" fill="black"/>
<path d="M82.0824 26.5864L78.1216 19.9011L85.2176 23.147L82.5961 24.5232L84.1135 26.8916L82.0824 26.5864Z" fill="black"/>
<path d="M50.9445 121.157C56.137 118.849 95.3479 107.687 114.408 102.046C114.408 102.046 132.39 94.3159 142.463 98.8068C150.225 102.268 157.607 104.876 165.193 109.352C174.544 114.868 183.966 123.95 184.532 125.932C185.099 127.914 198.123 140.231 203.786 142.213C209.448 144.195 221.34 163.873 226.012 172.792C229.749 179.927 224.455 188.318 221.34 191.621C218.131 195.396 211.062 203.569 208.457 206.06C205.201 209.175 205.06 207.618 198.123 211.665C192.574 214.902 178.728 210.788 172.498 208.326C172.727 208.718 171.886 209.935 166.694 211.665C129.552 224.286 81.2343 209.141 79.7912 206.617C78.6373 204.598 72.8201 200.728 70.0556 199.044L72.2192 182.818L62.8439 185.703C55.6322 186.424 44.8145 197.963 32.1939 195.799C19.5733 193.636 22.458 195.439 17.0492 195.799C11.6404 196.16 7.67399 192.554 2.62577 188.588C-2.42248 184.621 0.822813 179.212 4.78928 161.904C8.75575 144.596 18.131 140.99 30.0304 134.86C41.9298 128.729 44.454 124.043 50.9445 121.157Z" fill="#5C51BB"/>
<path d="M84.2507 208.829C87.1343 199.272 80.7562 171.379 106.201 169.407C131.646 167.437 136.664 190.537 135.991 202.334C135.693 205.843 141.452 212.072 141.783 216.372M169.396 152.68C166.022 151.081 154.584 145.476 145.288 152.055C135.991 158.633 143.524 172.592 138.388 174.839C133.254 177.085 122.664 179.491 121.22 182.38C119.776 185.268 125.867 201.836 124.899 216.359M145.288 100.228C144.352 102.061 141.982 104.561 148.658 119.964C157.001 139.218 145.288 154.782 145.288 159.917C145.288 165.051 141.598 176.01 170.318 169.407M71.8685 185.136C79.5589 185.905 96.8453 189.665 101.003 176.443C105.161 163.222 108.191 158.526 109.186 157.831M66.629 184.481C65.9488 181.812 61.9812 175.737 66.9873 163.928C71.9934 152.118 71.6404 146.706 70.8381 145.476M71.2135 183.046C70.5334 180.804 68.4955 175.032 57.1997 176.443C43.08 178.209 22.0607 161.201 35.6992 152.055M22.3696 138.764C23.8046 141.547 29.5336 146.071 26.224 157.831C22.087 172.531 5.22078 173.419 7.76666 180.294C10.3125 187.169 16.6668 187.737 16.6668 190.919C16.6668 193.465 14.8172 194.89 14.7215 195.703M51.2466 147.481C49.2622 145.923 46.4842 141.943 51.2466 138.48C57.1997 134.152 70.2502 130.061 72.336 123.171C74.0048 117.659 78.7806 114.06 78.3584 112.547M84.8558 110.679C85.4144 112.381 90.6256 118.921 95.176 116.538C100.864 113.558 101.582 107.647 103.613 107.24C105.238 106.915 106.351 105.684 105.974 104.505" stroke="#BDB8E4" stroke-width="2.04167"/>
<path d="M170.965 169.143C171.962 169.228 174.179 170.288 175.068 173.844" stroke="black" stroke-width="0.98" stroke-linecap="round"/>
<path d="M160.329 111.772C164.755 115.957 172.223 128.162 166.681 143.502C169.742 147.102 171.139 154.078 166.414 159.705" stroke="black" stroke-width="0.98" stroke-linecap="round"/>
<path d="M181.991 122.587C179.069 124.83 175.331 133.446 179.069 138.384C183.741 144.558 188.08 146.06 190.916 145.727C193.185 145.46 198.244 141.805 199.619 139.851M207.469 144.948C207.469 144.948 204.599 147.795 205.933 153.402C207.602 160.41 209.271 162.914 208.437 166.751C207.602 170.589 201.929 183.938 207.602 189.611C212.141 194.149 215.711 196.63 216.442 197.258M224.596 187.298C221.709 186.068 223.32 178.638 219.763 176.473C215.317 173.766 205.844 169.32 201.398 176.473C196.951 183.626 197.834 188.444 190.916 189.611C183.999 190.778 178.199 189.611 175.3 189.611C172.4 189.611 163.253 195.471 168.798 210.903" stroke="#BDB8E4" stroke-width="2.04167"/>
<path d="M88.89 113.807C85.5841 115.861 78.493 122.587 76.5771 133.06C74.083 134.929 71.3758 139.162 71.935 143.368" stroke="black" stroke-width="0.98" stroke-linecap="round"/>
<path d="M170.751 173.374C171.242 172.269 171.677 169.464 169.491 167.078C169.776 166.184 169.499 164.8 168.204 164.131" stroke="black" stroke-width="0.98" stroke-linecap="round"/>
<path d="M187.559 173.852C183.336 174.079 173.664 174.396 168.76 173.852C162.63 173.171 148.735 175.214 147.237 178.21C145.738 181.207 143.695 186.52 145.465 192.241C147.237 197.963 146.011 201.913 147.237 204.093C148.463 206.272 153.503 205.591 155.546 207.09C157.181 208.289 161.404 208.406 163.311 208.316" stroke="black" stroke-width="0.98" stroke-linecap="round"/>
<path d="M28.2241 152.786C31.6425 152.469 40.4165 151.077 48.1649 148.038C57.8505 144.239 72.2839 143.29 75.7022 148.038C79.1208 152.786 85.5781 156.394 83.2988 171.967C82.2355 176.98 77.7912 179.5 75.7022 180.133" stroke="black" stroke-width="0.98" stroke-linecap="round"/>
<path d="M111.421 104.931C113.532 105.818 120.34 108.193 125.083 108.091C130.406 107.976 133.849 107.147 137.75 104.202" stroke="black" stroke-width="0.98" stroke-linecap="round"/>
<path d="M119.655 109.271C119.655 109.271 121.923 109.958 124.374 109.975C127.124 109.994 128.88 109.608 128.88 109.608" stroke="black" stroke-width="0.98" stroke-linecap="round"/>
<path d="M89.4351 131.263L112.955 116.096L143.427 126.035L139.959 157.972L116.438 173.139L89.4351 131.263Z" fill="white"/>
<path d="M89.4351 131.263L112.955 116.096L143.427 126.035L139.959 157.972L116.438 173.139L89.4351 131.263Z" fill="white"/>
<path d="M86.9502 129.894L112.449 113.451L145.127 123.676L141.011 157.745L115.512 174.188L106.798 160.674L92.0944 137.873L86.9502 129.894Z" stroke="black" stroke-width="0.98"/>
<path d="M112.827 115.051L116.97 138.94L138.236 155.511" stroke="black" stroke-width="0.98" stroke-linecap="round"/>
<path d="M124.413 174.127L127.941 168.662M115.739 176.685L119.416 179.261L115.739 176.685ZM123.845 179.261H126.458H123.845Z" stroke="black" stroke-width="0.98" stroke-linecap="round"/>
<path d="M119.766 184.455C125.622 180.875 134.069 179.98 137.56 179.98C134.469 185.837 136.272 195.3 137.56 199.3C135.051 198.757 129.019 198.12 124.952 199.91C119.008 202.525 108.524 202.905 101.971 202.757C94.8133 202.594 95.8031 199.3 97.193 197.672C96.2775 197.774 94.142 197.368 92.9219 194.927C91.7018 192.487 95.2608 190.996 97.193 190.555C97.3555 188.602 99.7688 187.776 100.955 187.606C100.989 186.86 101.585 185.349 103.7 185.268C106.344 185.166 112.445 188.928 119.766 184.455Z" fill="#CDCAEA"/>
<path d="M91.7068 138.218L80.4155 145.308C81.6699 146.358 84.2588 148.927 84.5846 150.798C84.9096 152.669 88.9227 163.033 90.8885 167.982C99.6668 164.389 117.287 156.17 119.054 152.73C120.846 149.239 117.562 149.273 115.902 149.781L119.664 147.239C120.715 146.596 122.715 144.881 122.308 143.172C121.901 141.464 118.749 142.461 117.224 143.172C124.85 138.902 121.139 135.82 119.054 136.401C118.035 136.685 114.14 138.563 112.343 139.512C112.987 139.071 114.533 138.083 115.357 137.059C116.542 135.589 114.885 133.711 112.876 134.092C111.421 134.368 101.565 138.19 98.6166 139.512C96.2572 140.569 92.9946 139.099 91.7068 138.218Z" fill="#CDCAEA"/>
<path d="M111.88 139.663L101.389 144.386" stroke="black" stroke-width="0.98" stroke-linecap="round"/>
<path d="M116.051 143.957L105.561 148.681" stroke="black" stroke-width="0.98" stroke-linecap="round"/>
<path d="M115.07 150.787L104.58 155.511" stroke="black" stroke-width="0.98" stroke-linecap="round"/>
<path d="M123.043 192.498C119.902 193.173 112.852 194.321 109.772 193.511C105.923 192.498 105.618 189.155 108.354 187.939M106.024 187.939C103.39 187.332 98.0208 187.027 97.6158 190.674M105.517 191.687C102.478 190.708 95.833 189.702 93.5635 193.511M98.0551 197.462C100.229 198.046 105.095 199.373 107.174 200.015C109.772 200.817 115.854 201.182 119.648 200.598" stroke="black" stroke-width="0.98" stroke-linecap="round"/>
<path d="M74.8428 145.498C77.0968 144.154 82.5611 145.067 84.5374 151.205C87.0078 158.877 88.1054 160.546 89.2757 163.408C90.446 166.269 93.7413 170.19 86.5562 171.766" stroke="black" stroke-width="0.98" stroke-linecap="round"/>
<path d="M83.3156 148.736C82.405 148.392 80.2302 148.102 78.8125 149.697M84.7921 153.166C84.1274 153.215 82.6517 153.491 82.0604 154.199M84.3495 159.44C85.0624 159.194 86.5047 158.57 86.5635 158.038M84.7921 167.339C85.7517 166.527 88.04 165.272 88.7783 162.689" stroke="black" stroke-width="0.98" stroke-linecap="round"/>
<path d="M143.948 177.939C141.958 177.681 137.779 177.872 136.984 180.702C135.989 184.239 134.663 191.202 137.647 199.272C139.239 201.836 141.626 203.435 142.621 203.914" stroke="black" stroke-width="0.98" stroke-linecap="round"/>
<path d="M136.513 183.997C137.296 183.384 139.576 182.241 142.435 182.568M136.513 188.897L141.822 187.978M137.432 197.982C138.657 198.051 141.679 197.86 143.966 196.553M139.526 201.454C140.682 201.454 143.149 201.781 143.966 201.454M136.513 193.082C137.262 193.082 139.065 193.082 140.29 193.082H136.513Z" stroke="black" stroke-width="0.98" stroke-linecap="round"/>
<path d="M116.346 95.4533C118.438 99.4387 113.15 102.345 110.243 103.3C127.38 113.063 138.888 104.379 142.499 98.8164C142.084 98.6498 140.631 97.8944 138.14 96.2006C135.65 94.5068 135.608 90.5966 135.899 88.853L116.346 95.4533Z" fill="#CDCAEA"/>
<path d="M141.121 77.5063C141.121 88.2551 132.862 96.9697 122.674 96.9697C104.228 101.249 104.228 88.2551 104.228 77.5063C104.228 66.7571 112.486 58.0432 122.674 58.0432C132.862 58.0432 141.121 66.7571 141.121 77.5063Z" fill="#CDCAEA"/>
<path d="M111.509 89.8156L112.571 84.0581L115.674 88.7948L111.509 89.8156Z" fill="#5C51BB"/>
<path d="M112.53 84.2769L111.398 89.8816L115.511 88.7759" stroke="black" stroke-width="0.98" stroke-linecap="round"/>
<path d="M108.461 85.7914C109.203 85.7914 109.805 85.1901 109.805 84.4482C109.805 83.7064 109.203 83.105 108.461 83.105C107.72 83.105 107.118 83.7064 107.118 84.4482C107.118 85.1901 107.72 85.7914 108.461 85.7914Z" fill="black"/>
<path d="M119.028 85.5466C119.77 85.5466 120.372 84.9452 120.372 84.2033C120.372 83.4615 119.77 82.8601 119.028 82.8601C118.286 82.8601 117.685 83.4615 117.685 84.2033C117.685 84.9452 118.286 85.5466 119.028 85.5466Z" fill="black"/>
<path d="M117.722 93.4411C118.194 93.4411 118.576 93.0591 118.576 92.5878C118.576 92.1166 118.194 91.7346 117.722 91.7346C117.251 91.7346 116.869 92.1166 116.869 92.5878C116.869 93.0591 117.251 93.4411 117.722 93.4411Z" stroke="black" stroke-width="0.98"/>
<path d="M118.457 78.5164C119.675 78.3882 121.279 78.7279 122.159 79.5184" stroke="black" stroke-width="0.98" stroke-linecap="round"/>
<path d="M108.684 79.7205C107.461 79.7907 105.933 80.3852 105.192 81.3072" stroke="black" stroke-width="0.98" stroke-linecap="round"/>
<path d="M134.858 85.0191C136.895 85.9183 139.546 84.3833 140.779 81.5906C142.011 78.798 141.358 75.805 139.321 74.9058C137.283 74.0066 134.632 75.5415 133.4 78.3342C132.167 81.1269 132.82 84.1198 134.858 85.0191Z" fill="#5C51BB"/>
<path d="M134.549 80.3171C135.098 79.1835 136.714 77.3962 137.882 76.9495" stroke="black" stroke-width="0.98" stroke-linecap="round"/>
<path d="M136.958 77.6885C137.456 78.1577 138.118 79.2846 138.16 79.9624" stroke="black" stroke-width="0.98" stroke-linecap="round"/>
<path d="M120.345 89.1788C121.109 89.1788 121.728 88.5595 121.728 87.7956C121.728 87.0316 121.109 86.4124 120.345 86.4124C119.581 86.4124 118.962 87.0316 118.962 87.7956C118.962 88.5595 119.581 89.1788 120.345 89.1788Z" fill="#5C51BB"/>
<path d="M108.854 90.2091C109.618 90.2091 110.238 89.5898 110.238 88.8259C110.238 88.0619 109.618 87.4426 108.854 87.4426C108.09 87.4426 107.471 88.0619 107.471 88.8259C107.471 89.5898 108.09 90.2091 108.854 90.2091Z" fill="#5C51BB"/>
<path d="M125.678 75.0791C115.476 79.1829 106.699 76.0834 105.005 71.5072C104.644 70.5315 107.804 63.6793 111.197 61.9006C120.065 54.4165 132.921 57.6096 138.251 64.1052C147.006 75.8007 140.413 87.1642 135.856 91.2859C135.856 91.2859 134.128 89.0196 134.454 85.0866C134.826 84.4855 135.11 85.4459 136.608 84.5484C141.26 81.7603 141.035 76.4257 138.547 75.6977C134.673 74.5643 132.841 78.906 132.841 82.3458C131.795 82.1727 131.294 79.8354 131.598 78.4348C132.142 75.9311 133.831 72.9262 133.291 71.9707C132.351 71.1992 130.618 73.092 125.678 75.0791Z" fill="black"/>
<path d="M127.793 37.5623C111.224 40.7521 123.717 63.1695 123.628 63.6124C134.049 59.7847 137.658 49.4355 138.16 44.7394C138.012 41.8449 135.732 36.3573 127.793 37.5623Z" fill="black"/>
<path d="M124.193 22.7684V22.664C124.205 21.5562 124.321 20.6746 124.541 20.0191C124.762 19.3637 125.075 18.833 125.481 18.427C125.887 18.021 126.374 17.6469 126.943 17.3046C127.285 17.0958 127.592 16.8493 127.865 16.5651C128.137 16.2751 128.352 15.9416 128.509 15.5646C128.671 15.1876 128.752 14.77 128.752 14.3117C128.752 13.7433 128.619 13.2503 128.352 12.8327C128.085 12.4151 127.728 12.0932 127.282 11.867C126.835 11.6408 126.339 11.5277 125.794 11.5277C125.318 11.5277 124.86 11.6263 124.419 11.8235C123.979 12.0207 123.61 12.331 123.314 12.7544C123.019 13.1778 122.848 13.7317 122.801 14.4161H120.609C120.655 13.4301 120.91 12.5862 121.374 11.8844C121.844 11.1825 122.462 10.646 123.227 10.2748C123.999 9.9036 124.854 9.71799 125.794 9.71799C126.815 9.71799 127.702 9.921 128.456 10.327C129.216 10.733 129.802 11.2898 130.214 11.9975C130.631 12.7051 130.84 13.5113 130.84 14.4161C130.84 15.0542 130.742 15.6313 130.544 16.1475C130.353 16.6637 130.075 17.1248 129.709 17.5308C129.35 17.9369 128.915 18.2965 128.404 18.6097C127.894 18.9287 127.485 19.2651 127.177 19.6189C126.87 19.9669 126.647 20.3816 126.508 20.8631C126.368 21.3445 126.293 21.9448 126.281 22.664V22.7684H124.193ZM125.307 27.919C124.878 27.919 124.509 27.7653 124.202 27.4579C123.895 27.1505 123.741 26.7822 123.741 26.3529C123.741 25.9237 123.895 25.5554 124.202 25.248C124.509 24.9406 124.878 24.7869 125.307 24.7869C125.736 24.7869 126.104 24.9406 126.412 25.248C126.719 25.5554 126.873 25.9237 126.873 26.3529C126.873 26.6371 126.8 26.8982 126.655 27.136C126.516 27.3738 126.328 27.5652 126.09 27.7102C125.858 27.8494 125.597 27.919 125.307 27.919Z" fill="black"/>
<path d="M57.9436 17.9604L57.9073 17.901C57.5287 17.2669 57.2882 16.725 57.1857 16.2756C57.0831 15.8261 57.0768 15.4154 57.1665 15.0432C57.2563 14.6711 57.4034 14.2889 57.6077 13.8966C57.7298 13.6589 57.8189 13.4118 57.8751 13.1553C57.9294 12.8956 57.9355 12.6312 57.8935 12.3623C57.8548 12.0914 57.7557 11.8256 57.5964 11.565C57.3988 11.2417 57.1515 11.0076 56.8545 10.8629C56.5575 10.7181 56.2427 10.659 55.91 10.6856C55.5773 10.7122 55.2559 10.8203 54.9458 11.0099C54.6752 11.1753 54.4489 11.3907 54.2667 11.6562C54.0845 11.9216 53.9829 12.2262 53.9619 12.5699C53.9409 12.9136 54.0361 13.2881 54.2477 13.6936L53.0006 14.4559C52.6842 13.8789 52.5359 13.3101 52.5558 12.7496C52.579 12.187 52.7438 11.6671 53.0503 11.1897C53.36 10.7103 53.7821 10.3073 54.3166 9.98057C54.8972 9.62562 55.4726 9.43253 56.0426 9.4013C56.616 9.36805 57.1428 9.48108 57.6231 9.7404C58.1067 9.99769 58.5058 10.3837 58.8204 10.8984C59.0423 11.2613 59.1869 11.6238 59.2542 11.986C59.3248 12.3462 59.3268 12.7053 59.2601 13.0633C59.1967 13.4193 59.0743 13.7751 58.8929 14.1307C58.7135 14.4897 58.5978 14.8232 58.546 15.1313C58.4921 15.4362 58.5093 15.7497 58.5975 16.0719C58.6857 16.3942 58.8516 16.7619 59.0951 17.175L59.1314 17.2344L57.9436 17.9604ZM60.368 20.5029C60.1238 20.6521 59.8609 20.6928 59.5791 20.6248C59.2974 20.5568 59.0819 20.4008 58.9327 20.1566C58.7834 19.9125 58.7428 19.6496 58.8108 19.3678C58.8787 19.0861 59.0348 18.8706 59.2789 18.7213C59.5231 18.5721 59.786 18.5315 60.0678 18.5994C60.3495 18.6674 60.565 18.8235 60.7142 19.0676C60.8131 19.2293 60.8626 19.4029 60.8628 19.5886C60.8663 19.7723 60.8256 19.9467 60.7408 20.1119C60.6572 20.2717 60.5329 20.4021 60.368 20.5029Z" fill="black"/>
<path d="M43.1677 77.2982C43.4484 77.3347 43.7321 77.2582 43.9563 77.0855C44.1806 76.9129 44.3271 76.6582 44.3636 76.3775C44.4001 76.0968 44.3236 75.8132 44.1509 75.5889C43.9782 75.3646 43.7236 75.2182 43.4429 75.1817L41.5804 74.716C41.4446 74.6744 41.3018 74.6605 41.1605 74.6753C41.0193 74.69 40.8824 74.733 40.7581 74.8017C40.6338 74.8704 40.5246 74.9635 40.4371 75.0753C40.3495 75.1871 40.2853 75.3154 40.2484 75.4525C40.2114 75.5896 40.2024 75.7328 40.222 75.8735C40.2415 76.0142 40.2892 76.1495 40.3621 76.2713C40.4351 76.3932 40.5318 76.4991 40.6466 76.5828C40.7613 76.6665 40.8917 76.7263 41.0301 76.7585L42.8926 77.2559C42.9813 77.2855 43.0743 77.2998 43.1677 77.2982ZM47.2526 71.3825C47.3147 71.6134 47.453 71.8164 47.6452 71.9586C47.8373 72.1009 48.072 72.1738 48.3109 72.1656C48.402 72.1802 48.4949 72.1802 48.5861 72.1656C48.8547 72.0913 49.0831 71.9141 49.2218 71.6723C49.3605 71.4306 49.3982 71.1439 49.3268 70.8745L48.8295 69.012C48.7972 68.8737 48.7375 68.7432 48.6538 68.6285C48.5701 68.5138 48.4642 68.417 48.3423 68.3441C48.2204 68.2711 48.0851 68.2235 47.9445 68.2039C47.8038 68.1844 47.6606 68.1933 47.5235 68.2303C47.3864 68.2672 47.2581 68.3314 47.1462 68.419C47.0344 68.5066 46.9414 68.6158 46.8727 68.74C46.8039 68.8643 46.7609 69.0012 46.7462 69.1425C46.7315 69.2837 46.7454 69.4265 46.787 69.5623L47.2526 71.3825ZM52.3641 81.9651C52.2652 81.8611 52.1462 81.7782 52.0143 81.7216C51.8824 81.665 51.7404 81.6358 51.5968 81.6358C51.4533 81.6358 51.3112 81.665 51.1793 81.7216C51.0474 81.7782 50.9284 81.8611 50.8296 81.9651L47.1257 85.7326C46.6902 86.1504 46.11 86.3837 45.5065 86.3837C44.903 86.3837 44.3229 86.1504 43.8874 85.7326C43.673 85.5209 43.5028 85.2688 43.3866 84.9909C43.2704 84.7129 43.2106 84.4147 43.2106 84.1134C43.2106 83.8122 43.2704 83.5139 43.3866 83.236C43.5028 82.958 43.673 82.7059 43.8874 82.4943L47.6548 78.7903C47.7656 78.6955 47.8555 78.5787 47.9191 78.4474C47.9826 78.3161 48.0183 78.1731 48.0239 78.0274C48.0295 77.8817 48.005 77.7363 47.9518 77.6005C47.8986 77.4647 47.8179 77.3414 47.7147 77.2382C47.6116 77.1351 47.4883 77.0544 47.3525 77.0012C47.2167 76.948 47.0713 76.9234 46.9256 76.9291C46.7798 76.9347 46.6368 76.9704 46.5055 77.0339C46.3743 77.0974 46.2575 77.1874 46.1626 77.2982L42.3635 80.9915C41.9521 81.4029 41.6258 81.8913 41.4032 82.4287C41.1805 82.9662 41.066 83.5422 41.066 84.124C41.066 84.7057 41.1805 85.2818 41.4032 85.8193C41.6258 86.3567 41.9521 86.8451 42.3635 87.2565C42.7748 87.6678 43.2632 87.9941 43.8007 88.2168C44.3381 88.4394 44.9142 88.554 45.4959 88.554C46.0777 88.554 46.6537 88.4394 47.1912 88.2168C47.7287 87.9941 48.217 87.6678 48.6284 87.2565L52.3641 83.5208C52.4715 83.4217 52.5572 83.3014 52.6158 83.1675C52.6745 83.0337 52.7048 82.8891 52.7048 82.743C52.7048 82.5968 52.6745 82.4523 52.6158 82.3184C52.5572 82.1845 52.4715 82.0642 52.3641 81.9651ZM43.6122 73.0651C43.8093 73.2606 44.0754 73.3709 44.353 73.372C44.4923 73.3728 44.6303 73.3461 44.7593 73.2935C44.8882 73.2408 45.0055 73.1632 45.1044 73.0651C45.3015 72.8669 45.4121 72.5986 45.4121 72.3191C45.4121 72.0395 45.3015 71.7713 45.1044 71.573L43.7392 70.2078C43.5368 70.0345 43.2764 69.9439 43.01 69.9541C42.7437 69.9644 42.491 70.0748 42.3026 70.2633C42.1141 70.4518 42.0037 70.7044 41.9934 70.9708C41.9831 71.2371 42.0737 71.4975 42.2471 71.7L43.6122 73.0651ZM60.6291 80.8222L58.7666 80.3248C58.6285 80.2771 58.4821 80.2585 58.3366 80.2701C58.191 80.2818 58.0494 80.3234 57.9207 80.3924C57.792 80.4614 57.679 80.5563 57.5887 80.6712C57.4985 80.786 57.433 80.9183 57.3964 81.0596C57.3598 81.201 57.3528 81.3484 57.3759 81.4926C57.3991 81.6368 57.4518 81.7747 57.5308 81.8975C57.6098 82.0203 57.7133 82.1255 57.835 82.2063C57.9566 82.2872 58.0936 82.342 58.2374 82.3673L60.1 82.8647H60.3751C60.6558 82.9012 60.9395 82.8246 61.1637 82.652C61.388 82.4793 61.5345 82.2246 61.571 81.944C61.6074 81.6633 61.5309 81.3796 61.3583 81.1554C61.1856 80.9311 60.9309 80.7846 60.6503 80.7481L60.6291 80.8222ZM54.4065 86.1982C54.3698 86.064 54.3069 85.9384 54.2216 85.8286C54.1363 85.7187 54.0302 85.6267 53.9093 85.5579C53.7884 85.4891 53.6551 85.4448 53.5171 85.4276C53.379 85.4103 53.239 85.4205 53.1048 85.4574C52.8362 85.5317 52.6078 85.709 52.4691 85.9507C52.3304 86.1924 52.2927 86.4791 52.3641 86.7485L52.8614 88.611C52.9235 88.8419 53.0618 89.045 53.254 89.1872C53.4461 89.3294 53.6808 89.4023 53.9197 89.3942C54.0111 89.4046 54.1034 89.4046 54.1949 89.3942C54.33 89.3585 54.4567 89.2965 54.5677 89.2117C54.6788 89.1269 54.7719 89.0209 54.8417 88.8999C54.9116 88.7789 54.9568 88.6452 54.9747 88.5066C54.9927 88.3681 54.983 88.2273 54.9462 88.0925L54.4065 86.1982ZM58.0469 84.5367C57.8445 84.3633 57.5841 84.2728 57.3177 84.283C57.0514 84.2933 56.7987 84.4037 56.6103 84.5922C56.4218 84.7807 56.3114 85.0333 56.3011 85.2997C56.2908 85.566 56.3814 85.8264 56.5548 86.0289L57.9199 87.394C58.1182 87.5911 58.3864 87.7018 58.666 87.7018C58.9456 87.7018 59.2138 87.5911 59.4121 87.394C59.6092 87.1958 59.7198 86.9275 59.7198 86.648C59.7198 86.3684 59.6092 86.1002 59.4121 85.9019L58.0469 84.5367ZM60.5656 73.499C60.5821 72.619 60.3343 71.7543 59.8544 71.0164C59.3745 70.2786 58.6845 69.7016 57.8734 69.3598C57.0623 69.0181 56.1674 68.9273 55.3041 69.0992C54.4409 69.2711 53.6491 69.6978 53.0308 70.3242L49.2951 74.0917C49.195 74.1924 49.1158 74.3119 49.0619 74.4433C49.008 74.5746 48.9805 74.7153 48.981 74.8573C48.9815 74.9993 49.01 75.1399 49.0648 75.2709C49.1196 75.4019 49.1996 75.5208 49.3004 75.6208C49.4011 75.7209 49.5206 75.8001 49.652 75.854C49.7834 75.9079 49.9241 75.9354 50.0661 75.9349C50.2081 75.9344 50.3486 75.906 50.4796 75.8512C50.6106 75.7964 50.7295 75.7163 50.8296 75.6156L54.5335 71.8481C54.969 71.4303 55.5491 71.197 56.1526 71.197C56.7562 71.197 57.3363 71.4303 57.7718 71.8481C57.9862 72.0598 58.1564 72.3119 58.2726 72.5898C58.3887 72.8678 58.4486 73.166 58.4486 73.4673C58.4486 73.7685 58.3887 74.0668 58.2726 74.3447C58.1564 74.6227 57.9862 74.8748 57.7718 75.0864L54.0044 78.7903C53.8073 78.9886 53.6966 79.2568 53.6966 79.5364C53.6966 79.816 53.8073 80.0842 54.0044 80.2825C54.2027 80.4796 54.4709 80.5902 54.7504 80.5902C55.03 80.5902 55.2982 80.4796 55.4965 80.2825L59.2957 76.5892C60.1057 75.7641 60.5614 74.6552 60.5656 73.499Z" fill="#5C51BB"/>
<path d="M132.236 128.31C132.213 128.491 132.262 128.674 132.374 128.819C132.485 128.964 132.65 129.059 132.831 129.082C133.013 129.106 133.196 129.057 133.341 128.945C133.486 128.833 133.581 128.669 133.604 128.487L133.905 127.284C133.932 127.196 133.941 127.104 133.932 127.012C133.922 126.921 133.894 126.833 133.85 126.752C133.806 126.672 133.745 126.601 133.673 126.545C133.601 126.488 133.518 126.447 133.429 126.423C133.341 126.399 133.248 126.393 133.157 126.406C133.066 126.418 132.979 126.449 132.9 126.496C132.821 126.543 132.753 126.606 132.699 126.68C132.645 126.754 132.606 126.839 132.585 126.928L132.264 128.132C132.245 128.189 132.235 128.249 132.236 128.31ZM136.06 130.95C135.911 130.99 135.779 131.079 135.687 131.203C135.596 131.328 135.548 131.479 135.554 131.634C135.544 131.692 135.544 131.753 135.554 131.811C135.602 131.985 135.716 132.133 135.872 132.222C136.029 132.312 136.214 132.336 136.388 132.29L137.592 131.969C137.681 131.948 137.766 131.909 137.84 131.855C137.914 131.801 137.976 131.733 138.024 131.654C138.071 131.575 138.101 131.488 138.114 131.397C138.127 131.306 138.121 131.213 138.097 131.125C138.073 131.036 138.032 130.953 137.975 130.881C137.918 130.809 137.848 130.748 137.768 130.704C137.687 130.66 137.599 130.632 137.508 130.622C137.416 130.613 137.324 130.622 137.236 130.649L136.06 130.95ZM129.22 134.253C129.287 134.189 129.341 134.112 129.378 134.027C129.414 133.942 129.433 133.85 129.433 133.757C129.433 133.664 129.414 133.573 129.378 133.487C129.341 133.402 129.287 133.325 129.22 133.261L126.785 130.868C126.515 130.586 126.364 130.211 126.364 129.821C126.364 129.431 126.515 129.056 126.785 128.775C126.922 128.636 127.085 128.526 127.265 128.451C127.444 128.376 127.637 128.337 127.832 128.337C128.026 128.337 128.219 128.376 128.399 128.451C128.578 128.526 128.741 128.636 128.878 128.775L131.272 131.21C131.333 131.281 131.409 131.339 131.494 131.38C131.579 131.421 131.671 131.444 131.765 131.448C131.859 131.452 131.953 131.436 132.041 131.401C132.129 131.367 132.209 131.315 132.275 131.248C132.342 131.182 132.394 131.102 132.428 131.014C132.463 130.926 132.479 130.832 132.475 130.738C132.471 130.644 132.448 130.552 132.407 130.467C132.366 130.382 132.308 130.306 132.236 130.245L129.849 127.79C129.584 127.524 129.268 127.313 128.921 127.169C128.573 127.025 128.201 126.951 127.825 126.951C127.449 126.951 127.077 127.025 126.729 127.169C126.382 127.313 126.066 127.524 125.8 127.79C125.535 128.056 125.324 128.371 125.18 128.719C125.036 129.066 124.962 129.438 124.962 129.814C124.962 130.19 125.036 130.563 125.18 130.91C125.324 131.257 125.535 131.573 125.8 131.839L128.215 134.253C128.279 134.323 128.357 134.378 128.443 134.416C128.53 134.454 128.623 134.473 128.717 134.473C128.812 134.473 128.905 134.454 128.992 134.416C129.078 134.378 129.156 134.323 129.22 134.253ZM134.972 128.597C134.846 128.724 134.775 128.896 134.774 129.076C134.773 129.166 134.791 129.255 134.825 129.338C134.859 129.421 134.909 129.497 134.972 129.561C135.1 129.689 135.274 129.76 135.454 129.76C135.635 129.76 135.809 129.689 135.937 129.561L136.819 128.679C136.931 128.548 136.99 128.38 136.983 128.208C136.976 128.035 136.905 127.872 136.783 127.75C136.661 127.629 136.498 127.557 136.326 127.551C136.154 127.544 135.985 127.602 135.855 127.714L134.972 128.597ZM129.959 139.595L130.28 138.391C130.311 138.302 130.323 138.207 130.316 138.113C130.308 138.019 130.281 137.928 130.237 137.844C130.192 137.761 130.131 137.688 130.056 137.63C129.982 137.572 129.897 137.529 129.805 137.506C129.714 137.482 129.619 137.477 129.526 137.492C129.432 137.507 129.343 137.541 129.264 137.592C129.185 137.643 129.117 137.71 129.064 137.789C129.012 137.868 128.977 137.956 128.96 138.049L128.639 139.253L128.639 139.431C128.615 139.612 128.665 139.795 128.776 139.94C128.888 140.085 129.052 140.18 129.234 140.204C129.415 140.227 129.599 140.178 129.744 140.066C129.888 139.955 129.983 139.79 130.007 139.609L129.959 139.595ZM126.484 135.573C126.571 135.549 126.652 135.509 126.723 135.454C126.794 135.399 126.854 135.33 126.898 135.252C126.943 135.174 126.971 135.088 126.982 134.998C126.994 134.909 126.987 134.819 126.963 134.732C126.915 134.558 126.801 134.411 126.644 134.321C126.488 134.231 126.303 134.207 126.129 134.253L124.925 134.575C124.776 134.615 124.644 134.704 124.553 134.828C124.461 134.952 124.414 135.104 124.419 135.259C124.412 135.318 124.412 135.377 124.419 135.436C124.442 135.524 124.482 135.606 124.537 135.677C124.592 135.749 124.66 135.809 124.738 135.854C124.816 135.9 124.903 135.929 124.992 135.94C125.082 135.952 125.173 135.946 125.26 135.922L126.484 135.573ZM127.558 137.926C127.67 137.795 127.729 137.627 127.722 137.455C127.715 137.283 127.644 137.119 127.522 136.997C127.4 136.876 127.237 136.804 127.065 136.798C126.893 136.791 126.725 136.85 126.594 136.962L125.711 137.844C125.584 137.972 125.513 138.145 125.513 138.326C125.513 138.507 125.584 138.68 125.711 138.808C125.84 138.936 126.013 139.007 126.194 139.007C126.374 139.007 126.548 138.936 126.676 138.808L127.558 137.926ZM134.692 139.554C135.261 139.564 135.819 139.404 136.296 139.094C136.773 138.784 137.146 138.338 137.367 137.814C137.588 137.29 137.647 136.711 137.535 136.153C137.424 135.595 137.149 135.084 136.744 134.684L134.309 132.27C134.244 132.205 134.167 132.154 134.082 132.119C133.997 132.084 133.906 132.066 133.814 132.067C133.722 132.067 133.631 132.085 133.547 132.121C133.462 132.156 133.385 132.208 133.321 132.273C133.256 132.338 133.205 132.415 133.17 132.5C133.135 132.585 133.117 132.676 133.118 132.768C133.118 132.86 133.136 132.951 133.172 133.035C133.207 133.12 133.259 133.197 133.324 133.261L135.759 135.655C136.029 135.937 136.18 136.312 136.18 136.702C136.18 137.092 136.029 137.467 135.759 137.748C135.622 137.887 135.459 137.997 135.279 138.072C135.1 138.147 134.907 138.186 134.712 138.186C134.518 138.186 134.325 138.147 134.145 138.072C133.966 137.997 133.803 137.887 133.666 137.748L131.272 135.313C131.144 135.186 130.971 135.114 130.79 135.114C130.609 135.114 130.436 135.186 130.308 135.313C130.18 135.441 130.109 135.615 130.109 135.795C130.109 135.976 130.18 136.149 130.308 136.278L132.695 138.733C133.228 139.257 133.945 139.551 134.692 139.554Z" fill="#5C51BB"/>
<path d="M216.163 24.7934C216.118 25.1406 216.212 25.4915 216.426 25.7689C216.64 26.0464 216.955 26.2276 217.302 26.2727C217.649 26.3179 218 26.2232 218.277 26.0096C218.555 25.796 218.736 25.481 218.781 25.1338L219.357 22.8296C219.409 22.6616 219.426 22.485 219.408 22.3102C219.389 22.1355 219.336 21.9662 219.251 21.8124C219.166 21.6587 219.051 21.5236 218.913 21.4152C218.774 21.3069 218.616 21.2275 218.446 21.1818C218.276 21.1361 218.099 21.125 217.925 21.1492C217.751 21.1734 217.584 21.2323 217.433 21.3226C217.282 21.4128 217.151 21.5325 217.048 21.6744C216.944 21.8164 216.87 21.9777 216.831 22.1488L216.215 24.453C216.179 24.5627 216.161 24.6778 216.163 24.7934ZM223.481 29.8468C223.195 29.9235 222.944 30.0947 222.768 30.3324C222.592 30.5701 222.502 30.8604 222.512 31.156C222.494 31.2687 222.494 31.3836 222.512 31.4963C222.604 31.8286 222.824 32.1112 223.123 32.2828C223.422 32.4544 223.776 32.5011 224.11 32.4128L226.414 31.7974C226.585 31.7576 226.746 31.6837 226.888 31.5801C227.03 31.4766 227.15 31.3456 227.24 31.1948C227.33 31.044 227.389 30.8767 227.413 30.7026C227.438 30.5286 227.426 30.3515 227.381 30.1818C227.335 30.0122 227.256 29.8535 227.147 29.7152C227.039 29.5768 226.904 29.4617 226.75 29.3767C226.596 29.2917 226.427 29.2385 226.252 29.2203C226.078 29.2021 225.901 29.2192 225.733 29.2707L223.481 29.8468ZM210.389 36.1701C210.518 36.0478 210.621 35.9006 210.691 35.7374C210.761 35.5742 210.797 35.3985 210.797 35.2209C210.797 35.0434 210.761 34.8676 210.691 34.7045C210.621 34.5413 210.518 34.3941 210.389 34.2718L205.729 29.6897C205.212 29.1509 204.923 28.4332 204.923 27.6866C204.923 26.94 205.212 26.2224 205.729 25.6836C205.991 25.4184 206.302 25.2078 206.646 25.0641C206.99 24.9204 207.359 24.8464 207.732 24.8464C208.104 24.8464 208.473 24.9204 208.817 25.0641C209.161 25.2078 209.473 25.4184 209.735 25.6836L214.317 30.3443C214.434 30.4813 214.579 30.5926 214.741 30.6712C214.904 30.7498 215.08 30.7939 215.261 30.8009C215.441 30.8079 215.621 30.7775 215.789 30.7117C215.957 30.6459 216.109 30.546 216.237 30.4184C216.365 30.2908 216.464 30.1383 216.53 29.9703C216.596 29.8023 216.626 29.6225 216.619 29.4422C216.613 29.2619 216.568 29.085 216.49 28.9225C216.411 28.7601 216.3 28.6157 216.163 28.4983L211.594 23.7984C211.085 23.2895 210.481 22.8858 209.816 22.6104C209.151 22.335 208.438 22.1933 207.719 22.1933C206.999 22.1933 206.286 22.335 205.621 22.6104C204.957 22.8858 204.352 23.2895 203.844 23.7984C203.335 24.3073 202.931 24.9114 202.656 25.5763C202.38 26.2412 202.238 26.9539 202.238 27.6736C202.238 28.3932 202.38 29.1059 202.656 29.7708C202.931 30.4357 203.335 31.0398 203.844 31.5487L208.465 36.1701C208.587 36.303 208.736 36.409 208.902 36.4816C209.067 36.5541 209.246 36.5916 209.427 36.5916C209.608 36.5916 209.787 36.5541 209.952 36.4816C210.118 36.409 210.267 36.303 210.389 36.1701ZM221.4 25.3432C221.158 25.5871 221.021 25.9162 221.02 26.2596C221.019 26.4319 221.052 26.6027 221.117 26.7622C221.182 26.9218 221.278 27.0668 221.4 27.1892C221.645 27.433 221.977 27.5699 222.322 27.5699C222.668 27.5699 223 27.433 223.245 27.1892L224.934 25.5003C225.149 25.2499 225.261 24.9277 225.248 24.5982C225.235 24.2687 225.099 23.9562 224.866 23.723C224.632 23.4899 224.32 23.3533 223.99 23.3406C223.661 23.3278 223.339 23.4399 223.088 23.6544L221.4 25.3432ZM211.803 46.3947L212.419 44.0906C212.478 43.9198 212.501 43.7387 212.486 43.5586C212.472 43.3785 212.42 43.2034 212.335 43.0442C212.25 42.885 212.132 42.7451 211.99 42.6335C211.848 42.5219 211.684 42.4409 211.51 42.3956C211.335 42.3503 211.152 42.3416 210.974 42.3703C210.796 42.3989 210.625 42.4641 210.473 42.5618C210.321 42.6595 210.191 42.7877 210.091 42.9381C209.991 43.0886 209.923 43.2581 209.892 43.436L209.277 45.7401L209.277 46.0805C209.231 46.4278 209.326 46.7787 209.54 47.0561C209.753 47.3335 210.068 47.5148 210.416 47.5599C210.763 47.605 211.114 47.5104 211.391 47.2968C211.669 47.0832 211.85 46.7681 211.895 46.4209L211.803 46.3947ZM205.153 38.6968C205.319 38.6513 205.474 38.5736 205.61 38.4681C205.746 38.3625 205.86 38.2312 205.945 38.0816C206.03 37.9321 206.085 37.7672 206.106 37.5965C206.127 37.4257 206.115 37.2524 206.069 37.0865C205.977 36.7542 205.758 36.4716 205.459 36.3C205.16 36.1285 204.805 36.0818 204.472 36.1701L202.168 36.7854C201.882 36.8621 201.631 37.0333 201.455 37.271C201.279 37.5087 201.189 37.799 201.199 38.0946C201.186 38.2077 201.186 38.3219 201.199 38.435C201.243 38.6021 201.32 38.7589 201.425 38.8962C201.53 39.0336 201.661 39.1488 201.81 39.2352C201.96 39.3216 202.125 39.3776 202.297 39.3997C202.468 39.4219 202.642 39.4099 202.809 39.3645L205.153 38.6968ZM207.208 43.2004C207.423 42.9499 207.535 42.6278 207.522 42.2983C207.509 41.9688 207.373 41.6562 207.139 41.4231C206.906 41.1899 206.594 41.0533 206.264 41.0406C205.935 41.0279 205.613 41.1399 205.362 41.3544L203.673 43.0433C203.429 43.2885 203.293 43.6204 203.293 43.9662C203.293 44.3121 203.429 44.6439 203.673 44.8892C203.919 45.133 204.25 45.2699 204.596 45.2699C204.942 45.2699 205.274 45.133 205.519 44.8892L207.208 43.2004ZM220.863 46.3162C221.951 46.3365 223.021 46.0301 223.934 45.4364C224.847 44.8427 225.561 43.9891 225.983 42.9857C226.406 41.9822 226.518 40.8751 226.306 39.8073C226.093 38.7394 225.565 37.7598 224.79 36.9949L220.13 32.3735C220.005 32.2497 219.857 32.1517 219.695 32.085C219.532 32.0184 219.358 31.9844 219.182 31.985C219.007 31.9856 218.833 32.0208 218.671 32.0886C218.509 32.1563 218.362 32.2554 218.238 32.38C218.114 32.5047 218.016 32.6525 217.949 32.815C217.883 32.9775 217.849 33.1516 217.849 33.3273C217.85 33.5029 217.885 33.6768 217.953 33.8388C218.021 34.0009 218.12 34.148 218.244 34.2718L222.905 38.8539C223.422 39.3926 223.711 40.1103 223.711 40.8569C223.711 41.6035 223.422 42.3212 222.905 42.86C222.643 43.1252 222.331 43.3357 221.988 43.4795C221.644 43.6232 221.275 43.6972 220.902 43.6972C220.529 43.6972 220.16 43.6232 219.817 43.4795C219.473 43.3357 219.161 43.1252 218.899 42.86L214.317 38.1993C214.072 37.9555 213.74 37.8186 213.394 37.8186C213.048 37.8186 212.716 37.9555 212.471 38.1993C212.227 38.4446 212.09 38.7764 212.09 39.1223C212.09 39.4681 212.227 39.8 212.471 40.0452L217.04 44.7452C218.061 45.7472 219.432 46.311 220.863 46.3162Z" fill="#5C51BB"/>
<path d="M107.922 10.4016C107.725 10.4016 107.537 10.4797 107.398 10.6188C107.259 10.7579 107.18 10.9466 107.18 11.1434V11.4327L106.083 10.3348C105.892 10.1426 105.664 9.99004 105.414 9.88594C105.164 9.78185 104.896 9.72826 104.625 9.72826C104.354 9.72826 104.086 9.78185 103.835 9.88594C103.585 9.99004 103.358 10.1426 103.167 10.3348L102.648 10.8541L100.808 9.00697C100.414 8.63448 99.8928 8.42693 99.3507 8.42693C98.8085 8.42693 98.2869 8.63448 97.893 9.00697L96.7951 10.1048V5.95073C96.7951 5.75399 96.8733 5.56531 97.0124 5.42619C97.1515 5.28708 97.3402 5.20892 97.5369 5.20892H103.471C103.668 5.20892 103.857 5.13077 103.996 4.99165C104.135 4.85254 104.213 4.66386 104.213 4.46712C104.213 4.27038 104.135 4.0817 103.996 3.94258C103.857 3.80347 103.668 3.72531 103.471 3.72531H97.5369C96.9467 3.72531 96.3807 3.95977 95.9633 4.37712C95.546 4.79447 95.3115 5.36051 95.3115 5.95073V14.8524C95.3115 15.4426 95.546 16.0087 95.9633 16.426C96.3807 16.8433 96.9467 17.0778 97.5369 17.0778H106.439C107.029 17.0778 107.595 16.8433 108.012 16.426C108.43 16.0087 108.664 15.4426 108.664 14.8524V11.1434C108.664 10.9466 108.586 10.7579 108.447 10.6188C108.308 10.4797 108.119 10.4016 107.922 10.4016ZM97.5369 15.5942C97.3402 15.5942 97.1515 15.516 97.0124 15.3769C96.8733 15.2378 96.7951 15.0491 96.7951 14.8524V12.2041L98.9464 10.0529C99.0553 9.94906 99.2001 9.89113 99.3507 9.89113C99.5012 9.89113 99.646 9.94906 99.7549 10.0529L102.106 12.4044L105.289 15.5942H97.5369ZM107.18 14.8524C107.174 14.9935 107.128 15.1299 107.047 15.2455L103.701 11.8852L104.221 11.3659C104.329 11.2581 104.476 11.1976 104.629 11.1976C104.781 11.1976 104.928 11.2581 105.037 11.3659L107.18 13.532V14.8524ZM107.922 2.2417C107.531 2.24145 107.147 2.34416 106.809 2.53949C106.47 2.73483 106.189 3.01589 105.994 3.35441C105.944 3.43907 105.913 3.5326 105.9 3.62962C105.887 3.72663 105.894 3.8252 105.919 3.91967C105.945 4.01413 105.989 4.10261 106.049 4.18001C106.108 4.25742 106.183 4.32222 106.268 4.37068C106.438 4.46739 106.64 4.49281 106.829 4.44139C107.018 4.38997 107.179 4.26589 107.277 4.09621C107.358 3.95331 107.484 3.84132 107.635 3.77782C107.787 3.71431 107.955 3.70287 108.114 3.7453C108.273 3.78773 108.413 3.88162 108.512 4.01225C108.612 4.14288 108.665 4.30287 108.664 4.46712C108.664 4.66386 108.586 4.85254 108.447 4.99165C108.308 5.13077 108.119 5.20892 107.922 5.20892C107.725 5.20892 107.537 5.28708 107.398 5.42619C107.259 5.56531 107.18 5.75399 107.18 5.95073C107.18 6.14747 107.259 6.33615 107.398 6.47526C107.537 6.61438 107.725 6.69253 107.922 6.69253C108.512 6.69253 109.078 6.45807 109.496 6.04072C109.913 5.62338 110.148 5.05733 110.148 4.46712C110.148 3.8769 109.913 3.31086 109.496 2.89351C109.078 2.47616 108.512 2.2417 107.922 2.2417ZM108.204 7.49368C108.07 7.43142 107.92 7.41075 107.774 7.43434L107.64 7.47885L107.507 7.54561L107.396 7.64204C107.326 7.71224 107.271 7.79565 107.234 7.88737C107.197 7.97909 107.179 8.07727 107.18 8.17614C107.18 8.27377 107.199 8.37055 107.235 8.46093C107.272 8.55131 107.327 8.63351 107.396 8.70283C107.464 8.77235 107.547 8.82754 107.637 8.8652C107.727 8.90286 107.824 8.92225 107.922 8.92225C108.02 8.92225 108.117 8.90286 108.207 8.8652C108.298 8.82754 108.38 8.77235 108.449 8.70283C108.518 8.63351 108.572 8.55131 108.609 8.46093C108.646 8.37055 108.665 8.27377 108.664 8.17614C108.663 8.02969 108.619 7.88673 108.537 7.76529C108.456 7.64384 108.34 7.54933 108.204 7.49368Z" fill="#5C51BB"/>
<g clip-path="url(#clip0_3505_20462)">
<path d="M217.872 134.048C217.677 134.023 217.48 134.076 217.324 134.196C217.168 134.317 217.067 134.494 217.042 134.689L217.005 134.976L216.056 133.747C215.891 133.532 215.685 133.352 215.45 133.217C215.215 133.082 214.956 132.994 214.687 132.96C214.418 132.925 214.146 132.944 213.884 133.016C213.623 133.087 213.378 133.209 213.164 133.376L212.583 133.824L210.994 131.758C210.65 131.338 210.16 131.066 209.622 130.997C209.084 130.928 208.54 131.067 208.102 131.386L206.873 132.336L207.403 128.215C207.428 128.02 207.529 127.843 207.685 127.723C207.841 127.602 208.038 127.549 208.233 127.574L214.119 128.33C214.314 128.355 214.511 128.302 214.667 128.182C214.823 128.061 214.924 127.884 214.949 127.689C214.974 127.494 214.921 127.297 214.801 127.141C214.68 126.985 214.503 126.884 214.308 126.859L208.422 126.103C207.837 126.027 207.245 126.188 206.778 126.548C206.311 126.909 206.006 127.441 205.931 128.026L204.797 136.855C204.722 137.441 204.882 138.032 205.243 138.499C205.603 138.966 206.135 139.271 206.72 139.346L215.55 140.481C216.135 140.556 216.726 140.395 217.193 140.035C217.66 139.674 217.965 139.142 218.04 138.557L218.513 134.878C218.538 134.683 218.485 134.486 218.364 134.33C218.244 134.174 218.067 134.073 217.872 134.048ZM206.909 137.875C206.714 137.85 206.537 137.748 206.417 137.592C206.297 137.437 206.243 137.239 206.268 137.044L206.606 134.418L209.014 132.558C209.135 132.469 209.286 132.43 209.435 132.449C209.585 132.468 209.721 132.544 209.816 132.661L211.848 135.293L214.598 138.863L206.909 137.875ZM216.569 138.368C216.545 138.507 216.481 138.636 216.386 138.741L213.496 134.981L214.077 134.533C214.199 134.439 214.352 134.398 214.504 134.418C214.655 134.437 214.793 134.516 214.887 134.637L216.737 137.058L216.569 138.368ZM218.912 125.954C218.524 125.904 218.13 125.957 217.769 126.108C217.409 126.259 217.094 126.501 216.857 126.812C216.797 126.89 216.754 126.979 216.729 127.073C216.704 127.168 216.698 127.267 216.711 127.364C216.724 127.46 216.757 127.554 216.806 127.638C216.856 127.723 216.922 127.796 217 127.855C217.156 127.973 217.353 128.024 217.547 127.997C217.741 127.97 217.917 127.867 218.035 127.712C218.134 127.58 218.273 127.485 218.431 127.442C218.59 127.398 218.758 127.408 218.91 127.47C219.062 127.533 219.189 127.644 219.271 127.786C219.353 127.928 219.386 128.094 219.364 128.256C219.339 128.451 219.237 128.629 219.081 128.749C218.926 128.869 218.729 128.923 218.534 128.898C218.338 128.872 218.141 128.926 217.986 129.046C217.83 129.166 217.728 129.344 217.703 129.539C217.678 129.734 217.732 129.931 217.852 130.087C217.972 130.242 218.149 130.344 218.344 130.369C218.93 130.444 219.521 130.284 219.988 129.923C220.455 129.562 220.76 129.031 220.835 128.445C220.911 127.86 220.75 127.269 220.389 126.802C220.029 126.334 219.497 126.03 218.912 125.954ZM218.522 131.2C218.397 131.121 218.251 131.081 218.103 131.086L217.965 131.113L217.824 131.162L217.701 131.244C217.623 131.304 217.558 131.38 217.51 131.466C217.461 131.553 217.431 131.648 217.42 131.746C217.407 131.843 217.413 131.941 217.438 132.035C217.463 132.13 217.507 132.218 217.566 132.296C217.625 132.374 217.7 132.439 217.785 132.488C217.87 132.536 217.963 132.568 218.06 132.581C218.157 132.593 218.256 132.586 218.351 132.56C218.445 132.534 218.533 132.49 218.611 132.43C218.688 132.37 218.752 132.295 218.8 132.211C218.848 132.126 218.879 132.032 218.891 131.935C218.909 131.79 218.884 131.642 218.818 131.511C218.752 131.381 218.649 131.272 218.522 131.2Z" fill="#5C51BB"/>
</g>
<g clip-path="url(#clip1_3505_20462)">
<path d="M66.5638 202.084C66.3834 202.163 66.2414 202.309 66.1692 202.492C66.0969 202.675 66.1004 202.88 66.1787 203.06L66.2939 203.326L64.8497 202.755C64.598 202.655 64.3289 202.606 64.058 202.61C63.787 202.614 63.5196 202.672 63.271 202.779C63.0225 202.887 62.7977 203.043 62.6097 203.238C62.4216 203.433 62.274 203.664 62.1753 203.916L61.9057 204.599L59.4828 203.637C58.9731 203.452 58.412 203.469 57.9147 203.685C57.4174 203.901 57.0215 204.299 56.8085 204.798L56.2384 206.242L54.5846 202.431C54.5063 202.251 54.5029 202.047 54.5751 201.864C54.6474 201.681 54.7893 201.534 54.9698 201.455L60.4137 199.093C60.5942 199.015 60.7361 198.868 60.8084 198.685C60.8806 198.502 60.8772 198.298 60.7989 198.117C60.7205 197.937 60.5737 197.795 60.3907 197.722C60.2077 197.65 60.0035 197.654 59.8231 197.732L54.3792 200.094C53.8377 200.329 53.4118 200.77 53.1951 201.319C52.9784 201.868 52.9887 202.48 53.2237 203.022L56.7675 211.188C57.0025 211.729 57.4429 212.155 57.9919 212.372C58.5409 212.588 59.1535 212.578 59.6949 212.343L67.8607 208.799C68.4022 208.564 68.8281 208.124 69.0448 207.575C69.2615 207.026 69.2512 206.413 69.0162 205.872L67.5397 202.469C67.4613 202.289 67.3145 202.147 67.1315 202.075C66.9485 202.003 66.7443 202.006 66.5638 202.084ZM59.1043 210.982C58.9238 211.061 58.7196 211.064 58.5366 210.992C58.3536 210.919 58.2068 210.778 58.1285 210.597L57.0742 208.168L58.1912 205.338C58.2498 205.199 58.3595 205.088 58.4976 205.028C58.6357 204.969 58.7916 204.964 58.9329 205.016L62.0262 206.237L66.2153 207.896L59.1043 210.982ZM67.6553 206.463C67.7058 206.594 67.7176 206.738 67.6893 206.876L63.2825 205.126L63.5521 204.443C63.6087 204.301 63.7191 204.187 63.8594 204.126C63.9996 204.065 64.1583 204.062 64.3007 204.118L67.1296 205.251L67.6553 206.463ZM63.3153 194.599C62.9567 194.754 62.6453 195.001 62.4124 195.315C62.1796 195.629 62.0336 195.999 61.9891 196.388C61.9778 196.485 61.9858 196.583 62.0128 196.677C62.0397 196.771 62.085 196.859 62.146 196.936C62.207 197.012 62.2825 197.076 62.3682 197.123C62.4539 197.17 62.5482 197.2 62.6454 197.211C62.8402 197.231 63.0353 197.174 63.1882 197.052C63.3411 196.93 63.4394 196.752 63.4616 196.557C63.479 196.394 63.5501 196.241 63.6638 196.122C63.7775 196.004 63.9273 195.926 64.0897 195.902C64.2522 195.878 64.4181 195.908 64.5614 195.988C64.7048 196.068 64.8175 196.194 64.8818 196.345C64.9601 196.526 64.9635 196.73 64.8913 196.913C64.8191 197.096 64.6771 197.243 64.4966 197.321C64.3161 197.399 64.1742 197.546 64.1019 197.729C64.0297 197.912 64.0331 198.116 64.1115 198.297C64.1898 198.477 64.3366 198.619 64.5196 198.691C64.7026 198.764 64.9068 198.76 65.0873 198.682C65.6287 198.447 66.0546 198.006 66.2713 197.458C66.488 196.909 66.4777 196.296 66.2428 195.754C66.0078 195.213 65.5674 194.787 65.0184 194.57C64.4694 194.354 63.8568 194.364 63.3153 194.599ZM65.6648 199.305C65.5168 199.301 65.3711 199.342 65.2465 199.421L65.1417 199.515L65.0458 199.63L64.9821 199.763C64.9462 199.855 64.929 199.953 64.9316 200.052C64.9343 200.151 64.9566 200.248 64.9974 200.338C65.0358 200.428 65.0914 200.509 65.1613 200.578C65.2311 200.646 65.3138 200.699 65.4044 200.736C65.4954 200.772 65.5926 200.79 65.6905 200.789C65.7884 200.787 65.8851 200.766 65.9749 200.727C66.0648 200.688 66.146 200.632 66.2139 200.561C66.2818 200.491 66.3351 200.408 66.3707 200.316C66.4062 200.225 66.4234 200.128 66.4212 200.031C66.4191 199.933 66.3978 199.837 66.3584 199.748C66.2994 199.613 66.2021 199.5 66.0786 199.421C65.9552 199.342 65.8112 199.302 65.6648 199.305Z" fill="#5C51BB"/>
</g>
<path d="M231.192 89.389L229.32 87.4876C229.251 87.4174 229.168 87.3617 229.076 87.3237C228.985 87.2857 228.887 87.2661 228.789 87.2661C228.69 87.2661 228.592 87.2857 228.501 87.3237C228.409 87.3617 228.327 87.4174 228.257 87.4876L226.168 89.6136L224.08 87.4876C224.01 87.4174 223.927 87.3617 223.836 87.3237C223.745 87.2857 223.647 87.2661 223.548 87.2661C223.449 87.2661 223.352 87.2857 223.26 87.3237C223.169 87.3617 223.086 87.4174 223.017 87.4876L221.302 89.2393L219.588 87.4876C219.519 87.4174 219.436 87.3617 219.345 87.3237C219.253 87.2857 219.155 87.2661 219.057 87.2661C218.958 87.2661 218.86 87.2857 218.769 87.3237C218.678 87.3617 218.595 87.4174 218.525 87.4876L216.654 89.3591C216.585 89.4303 216.532 89.5143 216.496 89.6061C216.458 89.6961 216.438 89.7928 216.437 89.8906V92.7279C216.437 93.3235 216.673 93.8947 217.094 94.3159C217.515 94.7371 218.087 94.9737 218.682 94.9737H229.163C229.759 94.9737 230.33 94.7371 230.751 94.3159C231.172 93.8947 231.409 93.3235 231.409 92.7279V89.9206C231.408 89.8227 231.387 89.7261 231.349 89.6361C231.313 89.5442 231.26 89.4602 231.192 89.389ZM229.912 92.7279C229.912 92.9264 229.833 93.1168 229.692 93.2572C229.552 93.3976 229.361 93.4765 229.163 93.4765H218.682C218.484 93.4765 218.293 93.3976 218.153 93.2572C218.013 93.1168 217.934 92.9264 217.934 92.7279V90.2275L219.057 89.1046L220.771 90.8264C220.841 90.8965 220.923 90.9522 221.015 90.9902C221.106 91.0283 221.204 91.0478 221.302 91.0478C221.401 91.0478 221.499 91.0283 221.59 90.9902C221.682 90.9522 221.764 90.8965 221.834 90.8264L223.548 89.1046L225.637 91.2306C225.707 91.3008 225.789 91.3565 225.881 91.3945C225.972 91.4325 226.07 91.4521 226.168 91.4521C226.267 91.4521 226.365 91.4325 226.456 91.3945C226.548 91.3565 226.63 91.3008 226.7 91.2306L228.789 89.1345L229.912 90.2574V92.7279ZM229.163 80.0015H218.682C218.087 80.0015 217.515 80.2381 217.094 80.6593C216.673 81.0804 216.437 81.6517 216.437 82.2473V86.185C216.429 86.2521 216.429 86.32 216.437 86.3871C216.437 86.3871 216.437 86.4395 216.437 86.462C216.483 86.579 216.559 86.6824 216.657 86.7624C216.754 86.8424 216.87 86.8965 216.994 86.9196C217.118 86.9428 217.246 86.9342 217.366 86.8948C217.485 86.8554 217.593 86.7863 217.679 86.694L219.057 85.3615L220.771 87.0833C220.841 87.1535 220.923 87.2092 221.015 87.2472C221.106 87.2852 221.204 87.3048 221.302 87.3048C221.401 87.3048 221.499 87.2852 221.59 87.2472C221.682 87.2092 221.764 87.1535 221.834 87.0833L223.548 85.3615L225.637 87.4876C225.707 87.5577 225.789 87.6134 225.881 87.6514C225.972 87.6894 226.07 87.709 226.168 87.709C226.267 87.709 226.365 87.6894 226.456 87.6514C226.548 87.6134 226.63 87.5577 226.7 87.4876L228.789 85.3915L230.114 86.724C230.2 86.8163 230.307 86.8853 230.427 86.9247C230.547 86.9642 230.675 86.9727 230.799 86.9496C230.923 86.9264 231.039 86.8723 231.136 86.7923C231.234 86.7123 231.309 86.609 231.356 86.4919C231.36 86.4696 231.36 86.4469 231.356 86.4245C231.383 86.3576 231.398 86.2868 231.401 86.2149V82.2473C231.401 81.653 231.166 81.0829 230.746 80.6619C230.327 80.2409 229.757 80.0034 229.163 80.0015ZM229.912 84.3734L229.32 83.7445C229.251 83.6744 229.168 83.6187 229.076 83.5807C228.985 83.5426 228.887 83.5231 228.789 83.5231C228.69 83.5231 228.592 83.5426 228.501 83.5807C228.409 83.6187 228.327 83.6744 228.257 83.7445L226.168 85.8706L224.08 83.7445C224.01 83.6744 223.927 83.6187 223.836 83.5807C223.745 83.5426 223.647 83.5231 223.548 83.5231C223.449 83.5231 223.352 83.5426 223.26 83.5807C223.169 83.6187 223.086 83.6744 223.017 83.7445L221.302 85.4963L219.588 83.7445C219.519 83.6744 219.436 83.6187 219.345 83.5807C219.253 83.5426 219.155 83.5231 219.057 83.5231C218.958 83.5231 218.86 83.5426 218.769 83.5807C218.678 83.6187 218.595 83.6744 218.525 83.7445L217.934 84.3734V82.2473C217.934 82.0488 218.013 81.8583 218.153 81.718C218.293 81.5776 218.484 81.4987 218.682 81.4987H229.163C229.361 81.4987 229.552 81.5776 229.692 81.718C229.833 81.8583 229.912 82.0488 229.912 82.2473V84.3734Z" fill="#5C51BB"/>
<defs>
<clipPath id="clip0_3505_20462">
<rect width="17.8033" height="17.8033" fill="white" transform="translate(205.122 122.686) rotate(7.32148)"/>
</clipPath>
<clipPath id="clip1_3505_20462">
<rect width="17.8033" height="17.8033" fill="white" transform="translate(49.7954 198.85) rotate(-23.4599)"/>
</clipPath>
</defs>
</svg>
