<svg width="14" height="8" viewBox="0 0 14 8" fill="none" xmlns="http://www.w3.org/2000/svg">
<path d="M7.75244 0.503231L13.4024 6.16323C13.4962 6.25619 13.5706 6.36679 13.6213 6.48865C13.6721 6.61051 13.6982 6.74122 13.6982 6.87323C13.6982 7.00524 13.6721 7.13595 13.6213 7.25781C13.5706 7.37967 13.4962 7.49027 13.4024 7.58323C13.2151 7.76948 12.9616 7.87402 12.6974 7.87402C12.4333 7.87402 12.1798 7.76948 11.9924 7.58323L6.99244 2.63323L2.04244 7.58323C1.85508 7.76948 1.60163 7.87402 1.33744 7.87402C1.07326 7.87402 0.819807 7.76948 0.632444 7.58323C0.537956 7.49062 0.462786 7.38017 0.411289 7.2583C0.359793 7.13642 0.332994 7.00554 0.332445 6.87323C0.332994 6.74092 0.359793 6.61004 0.411289 6.48817C0.462786 6.36629 0.537956 6.25585 0.632444 6.16323L6.28244 0.503231C6.37609 0.401727 6.48974 0.320718 6.61624 0.265311C6.74274 0.209903 6.87934 0.181299 7.01744 0.181299C7.15555 0.181299 7.29215 0.209903 7.41865 0.265311C7.54515 0.320718 7.6588 0.401727 7.75244 0.503231Z" fill="#9B9B9B"/>
</svg>
