<svg width="12" height="12" viewBox="0 0 12 12" fill="none" xmlns="http://www.w3.org/2000/svg">
<path d="M4.83945 3.5612C4.7984 3.5196 4.77539 3.4635 4.77539 3.40505C4.77539 3.34661 4.7984 3.29051 4.83945 3.2489C4.85963 3.22841 4.88369 3.21213 4.91023 3.20102C4.93676 3.18991 4.96524 3.18419 4.99401 3.18419C5.02277 3.18419 5.05125 3.18991 5.07778 3.20102C5.10432 3.21213 5.12838 3.22841 5.14856 3.2489L7.64632 5.77155C7.68737 5.81315 7.71038 5.86925 7.71038 5.9277C7.71038 5.98614 7.68737 6.04224 7.64632 6.08385L5.14856 8.60649C5.12838 8.62699 5.10432 8.64326 5.07778 8.65437C5.05125 8.66548 5.02277 8.6712 4.99401 8.6712C4.96524 8.6712 4.93676 8.66548 4.91023 8.65437C4.88369 8.64326 4.85963 8.62699 4.83945 8.60649C4.7984 8.56488 4.77539 8.50879 4.77539 8.45034C4.77539 8.39189 4.7984 8.3358 4.83945 8.29419L7.11742 5.92754L4.83945 3.5612Z" fill="#9B9B9B"/>
</svg>
