<svg width="14" height="8" viewBox="0 0 14 8" fill="none" xmlns="http://www.w3.org/2000/svg">
<path d="M7.75244 7.55097L13.4024 1.89097C13.4962 1.79801 13.5706 1.6874 13.6213 1.56555C13.6721 1.44369 13.6982 1.31298 13.6982 1.18097C13.6982 1.04896 13.6721 0.918251 13.6213 0.796391C13.5706 0.674532 13.4962 0.563931 13.4024 0.470968C13.2151 0.284717 12.9616 0.180176 12.6974 0.180176C12.4333 0.180176 12.1798 0.284717 11.9924 0.470968L6.99244 5.42097L2.04244 0.470968C1.85508 0.284717 1.60163 0.180175 1.33744 0.180175C1.07326 0.180175 0.819807 0.284717 0.632444 0.470968C0.537956 0.563582 0.462786 0.674027 0.411289 0.795903C0.359793 0.917778 0.332994 1.04866 0.332445 1.18097C0.332994 1.31327 0.359793 1.44416 0.411289 1.56603C0.462786 1.68791 0.537956 1.79835 0.632444 1.89097L6.28244 7.55097C6.37609 7.65247 6.48974 7.73348 6.61624 7.78889C6.74274 7.8443 6.87934 7.8729 7.01744 7.8729C7.15555 7.8729 7.29215 7.8443 7.41865 7.78889C7.54515 7.73348 7.6588 7.65247 7.75244 7.55097Z" fill="#9B9B9B"/>
</svg>
