<?xml version="1.0" encoding="utf-8"?>
<!-- Generator: Adobe Illustrator 23.0.1, SVG Export Plug-In . SVG Version: 6.00 Build 0)  -->
<svg version="1.1" id="Layer_1" xmlns="http://www.w3.org/2000/svg" xmlns:xlink="http://www.w3.org/1999/xlink" x="0px" y="0px"
	 viewBox="0 0 512 512" style="enable-background:new 0 0 512 512;" xml:space="preserve">
<style type="text/css">
	.st0{fill-rule:evenodd;clip-rule:evenodd;fill:#fffff;}
</style>
<path fill="white" class="st0" d="M453.2,145.7l-67.9,60.3l51.1,43.8c2,1.7,3,4.2,2.9,6.8c-0.2,2.6-1.5,5-3.6,6.4l-56.4,38.2c1,1.4,1.8,3,1.8,4.9
	v64.9c0,2.8-1.4,5.4-3.8,7l-116.7,76.6c-0.3,0.2-0.6,0.3-0.9,0.4c-0.3,0.1-0.5,0.3-0.8,0.4c-0.9,0.4-1.9,0.6-2.9,0.6
	c-1,0-1.9-0.2-2.9-0.6c-0.3-0.1-0.5-0.2-0.8-0.4c-0.3-0.1-0.6-0.2-0.9-0.4l-116.7-76.6c-2.3-1.5-3.8-4.2-3.8-7v-63.8
	c0-1.7,0.7-3.3,1.6-4.6l-56.4-39.6c-2.1-1.5-3.4-3.8-3.5-6.4s1-5,2.9-6.7l51-43.7l-67.7-58.6c-2-1.7-3-4.2-2.9-6.8
	c0.2-2.6,1.6-5,3.7-6.4l116.7-76.6c3.1-2.1,7.3-1.8,10.1,0.7l69.6,61.7l68.8-61.6c2.8-2.5,6.9-2.8,10-0.8l117.2,74.9
	c2.2,1.4,3.6,3.8,3.8,6.4C456.2,141.4,455.2,143.9,453.2,145.7z M417.3,255.2L372,216.4L270,281.9l48.2,40.3L417.3,255.2z
	 M264.3,432.1l100-65.7v-55.3l-41.9,28.4c-1.4,1-3.1,1.4-4.7,1.4c-1.9,0-3.8-0.7-5.4-1.9l-48-40.2V432.1z M256,271.1l101.3-65
	L256,141l-101.3,65L256,271.1z M147.7,366.4l100,65.7v-134l-52.6,41.1c-1.5,1.2-3.3,1.8-5.1,1.8c-1.7,0-3.4-0.5-4.8-1.5l-37.5-26.4
	V366.4z M189.7,322.2l52-40.6L140,216.4l-45.5,38.9L189.7,322.2z M180.2,75L78.1,142l62,53.7L242.3,130L180.2,75z M331.3,74.9
	l-61.5,55.1l102.1,65.5l62-55.1L331.3,74.9z"/>
</svg>
