<svg width="20" height="20" viewBox="0 0 20 20" fill="none" xmlns="http://www.w3.org/2000/svg">
<path d="M4.16669 15H7.70002C7.80969 15.0007 7.91841 14.9796 8.01994 14.9382C8.12147 14.8967 8.21382 14.8356 8.29169 14.7584L14.0584 8.98336L16.425 6.6667C16.5031 6.58923 16.5651 6.49706 16.6074 6.39551C16.6497 6.29396 16.6715 6.18504 16.6715 6.07503C16.6715 5.96502 16.6497 5.8561 16.6074 5.75455C16.5651 5.653 16.5031 5.56083 16.425 5.48336L12.8917 1.90836C12.8142 1.83026 12.7221 1.76826 12.6205 1.72595C12.519 1.68365 12.41 1.66187 12.3 1.66187C12.19 1.66187 12.0811 1.68365 11.9795 1.72595C11.878 1.76826 11.7858 1.83026 11.7084 1.90836L9.35835 4.2667L3.57502 10.0417C3.49779 10.1196 3.43668 10.2119 3.39521 10.3134C3.35374 10.415 3.33272 10.5237 3.33335 10.6334V14.1667C3.33335 14.3877 3.42115 14.5997 3.57743 14.756C3.73371 14.9122 3.94567 15 4.16669 15ZM12.3 3.67503L14.6584 6.03336L13.475 7.2167L11.1167 4.85836L12.3 3.67503ZM5.00002 10.975L9.94169 6.03336L12.3 8.3917L7.35835 13.3334H5.00002V10.975ZM17.5 16.6667H2.50002C2.27901 16.6667 2.06704 16.7545 1.91076 16.9108C1.75448 17.0671 1.66669 17.279 1.66669 17.5C1.66669 17.721 1.75448 17.933 1.91076 18.0893C2.06704 18.2456 2.27901 18.3334 2.50002 18.3334H17.5C17.721 18.3334 17.933 18.2456 18.0893 18.0893C18.2456 17.933 18.3334 17.721 18.3334 17.5C18.3334 17.279 18.2456 17.0671 18.0893 16.9108C17.933 16.7545 17.721 16.6667 17.5 16.6667Z" fill="black"/>
</svg>
