<svg width="20" height="20" viewBox="0 0 20 20" fill="none" xmlns="http://www.w3.org/2000/svg">
<path d="M18.3334 6.03343C18.3341 5.92376 18.313 5.81504 18.2716 5.71351C18.2301 5.61198 18.169 5.51963 18.0918 5.44176L14.5584 1.90843C14.4806 1.83119 14.3882 1.77009 14.2867 1.72862C14.1852 1.68715 14.0764 1.66613 13.9668 1.66676C13.8571 1.66613 13.7484 1.68715 13.6468 1.72862C13.5453 1.77009 13.453 1.83119 13.3751 1.90843L11.0168 4.26676L1.90843 13.3751C1.83119 13.453 1.77009 13.5453 1.72862 13.6468C1.68715 13.7484 1.66613 13.8571 1.66676 13.9668V17.5001C1.66676 17.7211 1.75456 17.9331 1.91084 18.0894C2.06712 18.2456 2.27908 18.3334 2.5001 18.3334H6.03343C6.15003 18.3398 6.26667 18.3215 6.37578 18.2799C6.48488 18.2383 6.58402 18.1742 6.66676 18.0918L15.7251 8.98343L18.0918 6.66676C18.1678 6.586 18.2298 6.49304 18.2751 6.39176C18.2831 6.32534 18.2831 6.25819 18.2751 6.19176C18.279 6.15297 18.279 6.11389 18.2751 6.0751L18.3334 6.03343ZM5.69176 16.6668H3.33343V14.3084L11.6084 6.03343L13.9668 8.39176L5.69176 16.6668ZM15.1418 7.21676L12.7834 4.85843L13.9668 3.68343L16.3168 6.03343L15.1418 7.21676Z" fill="#6E6E6E"/>
</svg>
