<svg width="16" height="17" viewBox="0 0 16 17" fill="currentColor" xmlns="http://www.w3.org/2000/svg">
<path d="M6.86666 3.16663H3.46665C2.84331 3.16663 2.33898 3.72803 2.33898 4.41419L2.33331 12.5857C2.33331 13.2719 2.84331 13.8333 3.46665 13.8333H12.5333C13.1566 13.8333 13.6666 13.2719 13.6666 12.5857V6.34792C13.6666 5.66176 13.1566 5.10035 12.5333 5.10035H8L6.86666 3.16663Z"/>
<path d="M12.6667 4.16664H8.48004L8.26671 3.49997C8.12841 3.10879 7.87187 2.77031 7.53264 2.53141C7.19341 2.29252 6.78828 2.16504 6.37337 2.16664H3.33337C2.80294 2.16664 2.29423 2.37735 1.91916 2.75243C1.54409 3.1275 1.33337 3.63621 1.33337 4.16664V12.8333C1.33337 13.3637 1.54409 13.8724 1.91916 14.2475C2.29423 14.6226 2.80294 14.8333 3.33337 14.8333H12.6667C13.1971 14.8333 13.7058 14.6226 14.0809 14.2475C14.456 13.8724 14.6667 13.3637 14.6667 12.8333V6.16664C14.6667 5.63621 14.456 5.1275 14.0809 4.75243C13.7058 4.37735 13.1971 4.16664 12.6667 4.16664ZM13.3334 12.8333C13.3334 13.0101 13.2631 13.1797 13.1381 13.3047C13.0131 13.4297 12.8435 13.5 12.6667 13.5H3.33337C3.15656 13.5 2.98699 13.4297 2.86197 13.3047C2.73695 13.1797 2.66671 13.0101 2.66671 12.8333V4.16664C2.66671 3.98983 2.73695 3.82026 2.86197 3.69524C2.98699 3.57021 3.15656 3.49997 3.33337 3.49997H6.37337C6.51314 3.49961 6.64948 3.54319 6.76313 3.62454C6.87677 3.70588 6.96198 3.82089 7.00671 3.95331L7.36671 5.04664C7.41143 5.17905 7.49664 5.29406 7.61029 5.37541C7.72394 5.45676 7.86028 5.50033 8.00004 5.49997H12.6667C12.8435 5.49997 13.0131 5.57021 13.1381 5.69524C13.2631 5.82026 13.3334 5.98983 13.3334 6.16664V12.8333Z" fill="#1C1C1E"/>
</svg>
