<svg viewBox="0 0 24 24" fill="none" xmlns="http://www.w3.org/2000/svg">
<path d="M8.40412 5.25217L3 14.7094L5.81739 19.6439L11.2215 10.195L8.40412 5.25217ZM13.0503 14.7094H10.0682L7.24256 19.6522H14.0307C13.2398 18.7789 12.762 17.6256 12.762 16.357C12.762 15.7803 12.8691 15.2284 13.0503 14.7094ZM18.5286 15.5332V13.0618H16.881V15.5332H14.4096V17.1808H16.881V19.6522H18.5286V17.1808H21V15.5332H18.5286ZM19.1135 11.6201L14.7556 4H9.12082V4.00824L14.1872 12.8805C15.0851 11.9744 16.3291 11.4142 17.7048 11.4142C18.1908 11.4142 18.6686 11.4883 19.1135 11.6201Z" fill="white"/>
</svg>
