<svg width="80" height="80" viewBox="0 0 80 80" fill="none" xmlns="http://www.w3.org/2000/svg">
<path d="M71.5024 21.9064L58.6118 21.2814L57.8618 12.8752C57.7055 11.1095 56.1274 9.87516 54.2836 10.0158L8.03364 13.8127C6.18989 13.9689 4.86177 15.4533 5.00239 17.2033L8.31489 54.047C8.47114 55.8127 10.0649 57.047 11.893 56.9064L14.2368 56.7189L13.8618 63.8752C13.768 65.8439 15.2993 67.4377 17.3618 67.547L68.9555 70.0002C71.018 70.0939 72.7211 68.6564 72.8305 66.6877L75.0024 25.547C75.0961 23.5939 73.5493 22.0002 71.5024 21.9064ZM16.0336 22.7345L14.9243 43.797L12.2055 47.6564L9.70552 19.8439V19.7658V19.6877C9.78364 18.9064 10.3774 18.2814 11.1899 18.2189L51.9711 14.8752C52.7836 14.8127 53.4868 15.3439 53.6118 16.1095C53.6118 16.1408 53.6586 16.1408 53.6586 16.172C53.6586 16.1877 53.7055 16.2033 53.7055 16.2345L54.1274 21.047L19.9086 19.4064C17.8461 19.3439 16.1274 20.7814 16.0336 22.7345ZM68.2368 59.7502L60.9399 51.1095L56.643 46.0002C56.268 45.547 55.6586 45.172 54.9868 45.1408C54.3149 45.1095 53.8149 45.3752 53.2524 45.7814L50.6899 47.6408C50.143 47.9689 49.7211 48.1877 49.143 48.1564C48.5805 48.1252 48.0805 47.9064 47.7211 47.5627C47.5961 47.4377 47.3618 47.2189 47.1743 47.0314L40.4868 39.3908C40.0024 38.7814 39.2055 38.3908 38.3305 38.3439C37.4399 38.297 36.5805 38.672 36.018 39.2189L20.2211 56.2189L19.1586 57.3752L19.2055 56.3127L20.268 36.172L20.7836 26.3439V26.2658V26.1877C21.0024 25.3439 21.7524 24.7345 22.643 24.7814L54.5493 26.3127L59.0336 26.5314L68.143 26.9689C69.0493 27.0158 69.7524 27.7033 69.768 28.5627C69.768 28.5939 69.8149 28.6095 69.8149 28.6408C69.8149 28.672 69.8618 28.6877 69.8618 28.7189L68.2368 59.7502Z" fill="#373444"/>
<path d="M58.3125 40.9844C61.3438 40.9844 63.8125 38.5156 63.8125 35.4844C63.8125 32.4531 61.3594 29.9844 58.3125 29.9844C55.2813 29.9844 52.8125 32.4375 52.8125 35.4844C52.8125 38.5313 55.2656 40.9844 58.3125 40.9844Z" fill="#373444"/>
</svg>
