<svg width="232" height="234" viewBox="0 0 232 234" fill="none" xmlns="http://www.w3.org/2000/svg">
<path d="M137.267 130.915H31.2139V197.097H137.267V130.915Z" fill="#CDCAEA"/>
<path d="M20.8519 181.047C20.8519 183.82 20.2342 189.229 17.4932 189.229C14.7522 189.229 10.9258 183.82 10.9258 181.047C10.9258 178.275 13.1478 176.027 15.8888 176.027C18.6298 176.027 20.8519 178.275 20.8519 181.047Z" fill="#7B73C9"/>
<path d="M34.7827 181.047C34.7827 183.82 34.1596 189.229 31.3946 189.229C28.6295 189.229 24.7695 183.82 24.7695 181.047C24.7695 178.275 27.0111 176.027 29.7761 176.027C32.5412 176.027 34.7827 178.275 34.7827 181.047Z" fill="#5C51BB"/>
<path d="M48.6283 181.047C48.6283 183.82 48.0106 189.229 45.2696 189.229C42.5286 189.229 38.7021 183.82 38.7021 181.047C38.7021 178.275 40.9242 176.027 43.6652 176.027C46.4062 176.027 48.6283 178.275 48.6283 181.047Z" fill="#3F3883"/>
<path d="M7.35547 46.4615H94.7933C95.6083 44.6857 95.7833 40.5947 89.9626 38.4375C84.141 36.2802 79.2659 39.3363 77.5567 41.1341C76.9994 35.412 73.4051 23.7575 63.4803 22.9157C53.5556 22.0738 50.4382 30.4135 50.1201 34.6886C41.0065 20.7452 33.0421 31.3781 30.199 38.4375C20.7037 34.8069 11.0136 42.2741 7.35547 46.4615Z" fill="#EEEDF8"/>
<path d="M232 69.9791H131.91C130.977 67.2627 130.777 61.0051 137.44 57.7053C144.104 54.4055 149.683 59.0803 151.641 61.8301C152.278 53.0775 156.393 35.2505 167.753 33.9627C179.114 32.675 182.684 45.4317 183.047 51.9709C193.479 30.6428 202.597 46.9072 205.851 57.7053C216.72 52.152 227.813 63.574 232 69.9791Z" fill="#EEEDF8"/>
<path d="M69.9805 207.781L74.597 78.6738H217.376V202.51L189.117 203.522H173.333H173.323H173.312L69.9805 207.781Z" stroke="#8C84CF" stroke-width="1.0496"/>
<path d="M74.092 78.1484H217.898V103.999H73.1621L74.092 78.1484Z" fill="#2D285E"/>
<path d="M85.4097 97.6776C88.7895 97.6776 91.5294 94.7211 91.5294 91.0742C91.5294 87.4272 88.7895 84.4707 85.4097 84.4707C82.0299 84.4707 79.29 87.4272 79.29 91.0742C79.29 94.7211 82.0299 97.6776 85.4097 97.6776Z" fill="white"/>
<path d="M101.32 97.6776C104.7 97.6776 107.44 94.7211 107.44 91.0742C107.44 87.4272 104.7 84.4707 101.32 84.4707C97.9401 84.4707 95.2002 87.4272 95.2002 91.0742C95.2002 94.7211 97.9401 97.6776 101.32 97.6776Z" fill="white"/>
<path d="M117.231 97.6776C120.611 97.6776 123.351 94.7211 123.351 91.0742C123.351 87.4272 120.611 84.4707 117.231 84.4707C113.851 84.4707 111.111 87.4272 111.111 91.0742C111.111 94.7211 113.851 97.6776 117.231 97.6776Z" fill="white"/>
<path d="M59.9471 225.477C58.8138 219.673 53.6144 208.94 52.0483 212.275C50.0908 216.445 50.8463 228.379 53.4907 229.074C56.1351 229.769 52.2887 212.357 48.9917 213.583C46.3543 214.564 47.8928 219.66 48.9917 222.084C48.6025 218.815 48.1025 214.237 42.707 211.172" stroke="#484096" stroke-width="1.0496" stroke-linecap="round"/>
<path d="M205.138 128.074C193.601 118.588 192.73 101.365 164.65 93.628C158.329 91.8864 152.043 91.1092 146.104 91.0314C146.104 91.0314 141.849 100.01 132.999 100.01C126.251 100.01 121.68 95.4639 121.68 95.4639C117.794 97.1748 112.989 99.5686 109.142 103.026C102.484 109.011 102.829 114.129 99.8688 117.364C96.9084 120.599 90.4216 126.588 85.3714 123.921C80.3213 121.255 83.0205 117.67 85.3714 107.572C87.7223 97.4747 89.812 87.683 88.6366 84.7105C87.4611 81.738 64.9967 78.5032 62.3411 79.9895C60.2165 81.1785 53.5613 98.8735 50.4994 107.572C47.0455 122.027 45.9978 152.536 69.4374 158.935C92.877 165.335 109.157 154.695 114.366 148.575C117.187 155.709 132.462 191.283 138.877 204.441L195.255 202.342L218.155 191.589C218.75 186.154 219.583 172.967 218.155 163.7C216.37 152.116 216.675 137.56 205.138 128.074Z" fill="#5C51BB"/>
<path d="M135.182 143.986L121.954 137.123L119.156 142.56L132.383 149.423L135.182 143.986Z" fill="#DEDCF1"/>
<path d="M164.655 99.1379L150.57 103.986L152.547 109.775L166.631 104.927L164.655 99.1379Z" fill="#DEDCF1"/>
<path d="M128.522 111.611L133.812 97.6367L128.114 95.4626L122.825 109.437L128.522 111.611Z" fill="#DEDCF1"/>
<path d="M183.053 156.848L187.073 142.453L181.205 140.801L177.184 155.195L183.053 156.848Z" fill="#DEDCF1"/>
<path d="M190.815 179.33L205.442 182.121L206.58 176.109L191.953 173.317L190.815 179.33Z" fill="#DEDCF1"/>
<path d="M209.969 152.391L218.228 164.829L216.532 151.243L215.04 148.995L209.969 152.391Z" fill="#DEDCF1"/>
<path d="M188.375 110.342L193.353 124.432L199.097 122.386L198.528 120.774C196.966 118.746 193.353 112.687 190.597 109.54L188.375 110.342Z" fill="#DEDCF1"/>
<path d="M167.335 186.549L175.356 199.144L180.491 195.846L172.469 183.252L167.335 186.549Z" fill="#DEDCF1"/>
<path d="M161.525 156.881L147.28 161.231L149.054 167.086L163.299 162.736L161.525 156.881Z" fill="#DEDCF1"/>
<path d="M85.3377 125.845L71.0928 130.195L72.8663 136.05L87.1112 131.7L85.3377 125.845Z" fill="#DEDCF1"/>
<path d="M92.1025 156.912L87.1525 153.342L81.8037 160.816C83.6461 160.86 87.7576 160.881 89.4642 160.599L92.1025 156.912Z" fill="#DEDCF1"/>
<path d="M64.2356 97.4655L67.3266 92.1911L58.4671 86.9561L56.1162 92.6676L64.2356 97.4655Z" fill="#DEDCF1"/>
<path d="M87.1963 87.3779L82.0635 101.412L86.417 103.017C87.1136 101.224 88.5938 92.7546 88.9421 88.0214L87.1963 87.3779Z" fill="#DEDCF1"/>
<path d="M58.0018 142.03L52.2804 139.921L51.5088 142.03C52.1699 143.623 53.9085 147.572 55.463 149.363L58.0018 142.03Z" fill="#DEDCF1"/>
<path d="M136.287 185.727L136.035 179.612L127.819 179.955L130.431 185.971L136.287 185.727Z" fill="#DEDCF1"/>
<path d="M158.424 132.97C167.306 136.671 185.956 146.032 189.509 153.865C193.061 161.698 194.588 174.148 194.907 179.393M110.23 117.233C110.143 121.983 110.605 133.941 113.147 143.767L110.23 117.233Z" stroke="black" stroke-width="1.0496" stroke-linecap="round"/>
<path d="M155.725 120.905C156.711 123.295 159.712 128.809 163.822 131.746" stroke="black" stroke-width="1.0496" stroke-linecap="round"/>
<path d="M133.197 51.8818C124.475 51.8818 120.394 54.2117 113.993 65.7008C110.744 71.5326 108.893 80.4842 111.833 83.4566C113.675 85.3188 118.053 87.3445 122.556 88.8395L121.681 98.4362C120.852 100.538 125.17 104.442 131.302 105.081C138.558 105.835 145.906 102.372 147.932 96.4691C148.399 95.1105 144.533 89.5345 146 86.1459C149.976 82.5544 152.481 77.3176 152.481 71.4854C152.481 60.6587 143.848 51.8818 133.197 51.8818Z" fill="#8C84CF"/>
<path d="M116.113 73.3827L121.163 68.5898L120.557 75.2912L116.113 73.3827Z" fill="#5C51BB"/>
<path d="M120.656 68.9707L115.841 73.2708L120.295 75.0683" stroke="black" stroke-width="1.0496" stroke-linecap="round"/>
<path d="M119.997 79.6069L114.966 77.2324C115.027 78.0472 115.581 79.5912 116.436 80.1892C117.847 81.1762 119.11 80.2915 119.997 79.6069Z" stroke="black" stroke-width="1.0496"/>
<path d="M114.91 66.649C115.579 67.1534 116.528 67.0184 117.03 66.3474C117.532 65.6763 117.398 64.7234 116.73 64.219C116.061 63.7146 115.112 63.8496 114.61 64.5207C114.108 65.1917 114.242 66.1446 114.91 66.649Z" fill="black"/>
<path d="M124.992 71.7037C125.661 72.2081 126.61 72.0731 127.112 71.4021C127.614 70.731 127.48 69.7781 126.812 69.2737C126.143 68.7693 125.194 68.9043 124.692 69.5753C124.19 70.2464 124.324 71.1993 124.992 71.7037Z" fill="black"/>
<path d="M126.788 65.2207C128.163 65.3405 129.865 66.0637 130.669 67.1313" stroke="black" stroke-width="1.0496" stroke-linecap="round"/>
<path d="M119.143 61.5755C118.101 60.6666 116.4 59.9413 115.077 60.104" stroke="black" stroke-width="1.0496" stroke-linecap="round"/>
<path d="M124.921 77.3384C125.61 77.8579 126.587 77.7188 127.104 77.0278C127.622 76.3368 127.483 75.3555 126.795 74.8361C126.107 74.3166 125.129 74.4557 124.612 75.1467C124.095 75.8377 124.233 76.819 124.921 77.3384Z" fill="#5C51BB"/>
<path d="M112.759 71.233C113.448 71.7524 114.425 71.6133 114.942 70.9223C115.46 70.2313 115.321 69.25 114.633 68.7306C113.945 68.2111 112.967 68.3502 112.45 69.0412C111.933 69.7322 112.071 70.7135 112.759 71.233Z" fill="#5C51BB"/>
<path d="M146 86.146C149.976 82.5545 162.299 65.7009 162.299 65.7009L156.378 66.7444L157.031 58.7886H148.481L142.96 47.9041L133.435 50.1334L131.824 41.6094L120.168 56.7025C121.355 59.5145 126.956 63.2906 135.438 63.2906C141.99 63.2906 145.76 66.0223 142.96 68.754C140.719 70.9393 138.718 74.8068 137.998 76.467C136.772 79.6931 136.654 86.146 146 86.146Z" fill="black"/>
<path d="M138.076 81.313C139.754 82.5666 142.501 81.7112 144.212 79.4024C145.924 77.0937 145.951 74.2059 144.273 72.9524C142.595 71.6988 139.848 72.5542 138.137 74.8629C136.426 77.1717 136.399 80.0595 138.076 81.313Z" fill="#5C51BB"/>
<path d="M138.775 76.9256C139.515 75.9989 141.368 74.6945 142.53 74.5293" stroke="black" stroke-width="1.0496" stroke-linecap="round"/>
<path d="M141.529 75.0146C141.887 75.5506 142.258 76.7247 142.154 77.3568" stroke="black" stroke-width="1.0496" stroke-linecap="round"/>
<path d="M65.02 67.0525C61.6659 72.1114 63.2583 76.3236 64.4737 77.7968L64.2964 79.6397C70.7719 80.2228 84.5413 81.8778 87.8126 83.8362C88.1365 82.6507 88.4639 81.466 88.7591 80.4283C89.864 76.5422 99.0735 68.7621 100.039 66.8884C101.006 65.0147 101.229 63.6731 100.063 62.8206C99.1292 62.1386 93.8048 64.2658 91.2589 65.4147L93.7221 58.4728C94.7809 54.6007 96.4858 46.2749 94.8323 43.9483C93.1788 41.6219 91.0386 45.3912 90.1748 47.5667C90.5641 46.5376 91.0656 44.0254 89.9546 42.2103C88.8444 40.3952 86.3237 43.7242 85.2013 45.6156C85.4286 44.2527 85.4878 41.4605 83.9101 41.1957C82.3323 40.9308 80.132 46.2094 79.2291 48.8819L79.5591 46.9014C79.8778 45.3787 80.3506 42.1482 79.6889 41.4067C78.8617 40.4798 77.7054 41.5335 75.9857 45.1852C74.2661 48.8369 69.2116 60.7292 65.02 67.0525Z" fill="#8C84CF"/>
<path d="M90.1021 65.6797C87.8252 66.2607 82.4312 68.3062 79.0693 71.8398" stroke="black" stroke-width="1.0496" stroke-linecap="round"/>
<path d="M86.2664 57.6819L89.5899 49.1111M76.8496 56.1013L78.6868 50.5648L76.8496 56.1013ZM81.1126 56.8168L84.5641 47.4795L81.1126 56.8168Z" stroke="black" stroke-width="1.0496" stroke-linecap="round"/>
<path d="M198.113 196.287C198.902 195.438 198.565 192.186 198.236 190.277C207.141 194.745 210.842 192.647 217.75 191.055C217.821 193.058 217.796 196.711 217.627 198.408C217.416 200.529 215.795 211.134 212.978 213.255C210.159 215.376 205.158 221.526 203.467 224.283C202.115 226.489 198.676 230.67 197.127 232.485C196.023 233.357 193.548 234.775 192.477 233.475C191.407 232.174 193.206 227.607 194.238 225.486C192.877 227.37 189.744 231.226 188.109 231.565C184.841 232.131 186.324 227.229 187.476 224.707C186.442 226.028 183.84 228.582 181.698 228.243C179.557 227.903 180.525 224.047 181.276 222.163C180.454 222.963 178.613 224.34 177.824 223.435C176.838 222.304 177.26 219.829 177.824 217.638C178.275 215.884 181.064 210.921 182.404 208.659C181.417 209.084 179.416 209.677 179.304 208.659C179.163 207.387 182.614 203.216 186.489 201.165C190.364 199.114 197.127 197.347 198.113 196.287Z" fill="#8C84CF"/>
<path d="M194.223 225.782C195.161 224.193 197.223 220.831 197.955 220.091M182.108 221.016C182.977 219.569 185.235 216.208 187.32 214.329L182.108 221.016ZM188.588 223.79C189.597 222.155 192.039 218.427 193.73 216.606L188.588 223.79Z" stroke="black" stroke-width="1.0496" stroke-linecap="round"/>
<path d="M183.239 207.772C184.372 206.51 187.473 203.572 190.814 201.914" stroke="black" stroke-width="1.0496" stroke-linecap="round"/>
<path d="M178.451 65.4772H224.528M178.451 60.2754H207.946H178.451Z" stroke="#484096" stroke-width="1.0496" stroke-linecap="round"/>
<path d="M9.88184 38.2438H37.5705M9.88184 28.8018H52.5467H9.88184Z" stroke="#484096" stroke-width="1.0496" stroke-linecap="round"/>
<path d="M43.4957 52.0734L43.339 51.8816H43.0919H19.3718C9.22527 51.8816 1 43.6227 1 33.4349C1 23.2471 9.22536 14.9883 19.3718 14.9883H45.4937C55.6401 14.9883 63.8654 23.2472 63.8654 33.4349V38.9553C63.8654 46.0942 58.1017 51.8816 50.9916 51.8816H50.3919L50.4741 52.478L51.8224 62.2633L43.4957 52.0734Z" stroke="#484096" stroke-width="1.0496"/>
<path d="M100 15.7343L99.8435 15.5427H99.597H89.8277C85.8285 15.5427 82.5859 12.2872 82.5859 8.2714C82.5859 4.25549 85.8285 1 89.8277 1H100.595C104.594 1 107.837 4.25549 107.837 8.2714V10.533C107.837 13.2998 105.602 15.5427 102.847 15.5427H102.247L102.329 16.1392L102.735 19.0764L100 15.7343Z" stroke="#484096" stroke-width="1.0496"/>
<path d="M188.029 37.5506C185.236 23.2532 172.42 -3.18698 168.561 5.02897C163.736 15.2989 165.598 44.6992 172.116 46.4108C178.634 48.1224 169.154 5.2304 161.028 8.25098C154.527 10.6674 158.319 23.2195 161.028 29.1935C160.069 21.1387 158.836 9.86206 145.538 2.31055" stroke="#484096" stroke-width="1.0496" stroke-linecap="round"/>
<path d="M61.8061 107.989L61.6492 107.798H61.4025H48.2612C42.7894 107.798 38.3535 103.343 38.3535 97.8496C38.3535 92.3549 42.7894 87.9014 48.2612 87.9014H62.7519C68.2242 87.9014 72.6596 92.3549 72.6596 97.8496V100.882C72.6596 104.701 69.5755 107.798 65.7723 107.798H65.1723L65.255 108.394L65.8872 112.973L61.8061 107.989Z" stroke="#484096" stroke-width="1.0496"/>
</svg>
