<svg width="20" height="20" viewBox="0 0 20 20" fill="none" xmlns="http://www.w3.org/2000/svg">
<path d="M4.6782 11.9436C3.3532 13.2436 3.53653 14.8853 1.76986 16.8603C0.936531 17.752 5.36153 17.6936 7.37819 15.7186C7.87357 15.295 8.18391 14.6946 8.24306 14.0455C8.30222 13.3964 8.10551 12.7498 7.69486 12.2436C6.7782 11.3436 5.5282 11.1103 4.6782 11.9436ZM17.4199 2.5853C16.7449 1.91864 11.9115 5.3103 9.66986 7.5103C8.96404 8.17916 8.33259 8.92236 7.78653 9.72696C7.63653 9.91863 7.83653 9.97697 7.91987 10.0186C8.34807 10.2286 8.73704 10.5104 9.06986 10.852C9.4091 11.1773 9.69086 11.5576 9.90319 11.977C9.95319 12.0686 9.97819 12.227 10.2032 12.1103C11.0381 11.6203 11.8057 11.0236 12.4865 10.3353C14.7199 8.12696 18.1032 3.25197 17.4199 2.5853Z" fill="#362E72"/>
</svg>
