<svg width="7" height="7" viewBox="0 0 7 7" fill="none" xmlns="http://www.w3.org/2000/svg">
<path d="M5.58049 3.39172C5.6597 3.46109 5.76665 3.5 5.87812 3.5C5.98958 3.5 6.09654 3.46109 6.17575 3.39172C6.21485 3.35765 6.24591 3.31705 6.26711 3.27227C6.2883 3.22749 6.29922 3.17943 6.29922 3.13088C6.29922 3.08233 6.2883 3.03427 6.26711 2.98949C6.24591 2.94471 6.21485 2.90411 6.17575 2.87004L3.79715 0.808113C3.71777 0.738839 3.61073 0.700001 3.49922 0.700001C3.3877 0.700001 3.28067 0.738839 3.20129 0.808113L0.822691 2.87004C0.783585 2.90411 0.75253 2.94471 0.731333 2.98949C0.710135 3.03427 0.699219 3.08233 0.699219 3.13088C0.699219 3.17943 0.710135 3.22749 0.731333 3.27227C0.75253 3.31705 0.783585 3.35765 0.822691 3.39172C0.901897 3.46109 1.00886 3.5 1.12032 3.5C1.23178 3.5 1.33874 3.46109 1.41795 3.39172L3.50013 1.70072L5.58049 3.39172Z" fill="#AAAAAA"/>
<path d="M5.58049 6.19152C5.6597 6.26089 5.76665 6.2998 5.87812 6.2998C5.98958 6.2998 6.09654 6.26089 6.17575 6.19152C6.21485 6.15746 6.24591 6.11685 6.26711 6.07207C6.2883 6.02729 6.29922 5.97923 6.29922 5.93068C6.29922 5.88214 6.2883 5.83408 6.26711 5.7893C6.24591 5.74452 6.21485 5.70391 6.17575 5.66985L3.79715 3.60792C3.71777 3.53864 3.61073 3.4998 3.49922 3.4998C3.3877 3.4998 3.28067 3.53864 3.20129 3.60792L0.822691 5.66985C0.783585 5.70391 0.75253 5.74452 0.731333 5.7893C0.710135 5.83408 0.699219 5.88214 0.699219 5.93068C0.699219 5.97923 0.710135 6.02729 0.731333 6.07207C0.75253 6.11685 0.783585 6.15746 0.822691 6.19152C0.901897 6.26089 1.00886 6.2998 1.12032 6.2998C1.23178 6.2998 1.33874 6.26089 1.41795 6.19152L3.50013 4.50052L5.58049 6.19152Z" fill="#AAAAAA"/>
</svg>
