<svg width="24" height="24" viewBox="0 0 24 24" fill="none" xmlns="http://www.w3.org/2000/svg">
<path d="M5.33897 14.88H6.27497C6.49897 16.4 7.10697 17.6 8.09897 18.48C9.09097 19.344 10.315 19.776 11.771 19.776C12.363 19.776 12.907 19.704 13.403 19.56C13.899 19.416 14.323 19.216 14.675 18.96C15.027 18.688 15.299 18.376 15.491 18.024C15.683 17.656 15.779 17.248 15.779 16.8C15.779 16.416 15.715 16.088 15.587 15.816C15.475 15.528 15.251 15.256 14.915 15C14.579 14.728 14.115 14.456 13.523 14.184C12.947 13.912 12.195 13.6 11.267 13.248C9.39497 12.528 8.01097 11.696 7.11497 10.752C6.21897 9.792 5.77097 8.664 5.77097 7.368C5.77097 6.616 5.91497 5.928 6.20297 5.304C6.49097 4.68 6.89097 4.144 7.40297 3.696C7.93097 3.248 8.55497 2.904 9.27497 2.664C10.011 2.408 10.819 2.28 11.699 2.28C12.515 2.28 13.283 2.408 14.003 2.664C14.723 2.92 15.435 3.304 16.139 3.816L16.571 2.616H17.147L17.411 7.8H16.475C16.091 6.488 15.491 5.488 14.675 4.8C13.859 4.096 12.915 3.744 11.843 3.744C10.851 3.744 10.043 3.992 9.41897 4.488C8.81097 4.968 8.50697 5.592 8.50697 6.36C8.50697 6.696 8.56297 7 8.67497 7.272C8.78697 7.528 8.99497 7.776 9.29897 8.016C9.60297 8.256 10.019 8.504 10.547 8.76C11.075 9 11.755 9.272 12.587 9.576C13.707 10.008 14.659 10.448 15.443 10.896C16.243 11.328 16.891 11.8 17.387 12.312C17.899 12.808 18.275 13.336 18.515 13.896C18.755 14.456 18.875 15.072 18.875 15.744C18.875 16.56 18.699 17.304 18.347 17.976C17.995 18.648 17.499 19.224 16.859 19.704C16.235 20.184 15.483 20.56 14.603 20.832C13.739 21.104 12.779 21.24 11.723 21.24C10.763 21.24 9.89897 21.112 9.13097 20.856C8.36297 20.584 7.57097 20.152 6.75497 19.56L6.27497 21H5.69897L5.33897 14.88Z" fill="#2A292F"/>
<line x1="3" y1="11" x2="21" y2="11" stroke="#2A292F" stroke-width="2" stroke-linecap="round"/>
</svg>
