<svg width="20" height="20" viewBox="0 0 20 20" fill="none" xmlns="http://www.w3.org/2000/svg">
<path fill-rule="evenodd" clip-rule="evenodd" d="M1.66675 10.0001C1.66675 5.40008 5.39175 1.66675 9.99175 1.66675C14.6001 1.66675 18.3334 5.40008 18.3334 10.0001C18.3334 14.6001 14.6001 18.3334 9.99175 18.3334C5.39175 18.3334 1.66675 14.6001 1.66675 10.0001ZM3.33341 10.0001C3.33341 13.6834 6.31675 16.6667 10.0001 16.6667C13.6834 16.6667 16.6667 13.6834 16.6667 10.0001C16.6667 6.31675 13.6834 3.33341 10.0001 3.33341C6.31675 3.33341 3.33341 6.31675 3.33341 10.0001ZM14.1667 7.91675C14.1667 8.60842 13.6084 9.16675 12.9167 9.16675C12.2251 9.16675 11.6667 8.60842 11.6667 7.91675C11.6667 7.22508 12.2251 6.66675 12.9167 6.66675C13.6084 6.66675 14.1667 7.22508 14.1667 7.91675ZM8.33342 7.91675C8.33342 8.60842 7.77508 9.16675 7.08342 9.16675C6.39175 9.16675 5.83342 8.60842 5.83342 7.91675C5.83342 7.22508 6.39175 6.66675 7.08342 6.66675C7.77508 6.66675 8.33342 7.22508 8.33342 7.91675ZM7.01576 11.1823C6.83446 10.7593 6.34456 10.5633 5.92154 10.7446C5.49851 10.9259 5.30255 11.4158 5.48385 11.8388C6.24204 13.6079 7.99023 14.7181 9.78622 14.8419C11.6345 14.9694 13.5311 14.0545 14.5113 11.849C14.6982 11.4284 14.5088 10.936 14.0883 10.749C13.6677 10.5621 13.1752 10.7515 12.9883 11.1721C12.3018 12.7166 11.0734 13.2601 9.90089 13.1792C8.67604 13.0947 7.50756 12.3298 7.01576 11.1823Z" fill="#362E72"/>
</svg>
