<svg width="20" height="20" viewBox="0 0 20 20" fill="none" xmlns="http://www.w3.org/2000/svg">
<path fill-rule="evenodd" clip-rule="evenodd" d="M12.1019 3.8879C12.1956 3.79413 12.3228 3.74146 12.4554 3.74146C12.588 3.74146 12.7152 3.79413 12.809 3.8879L16.3445 7.42344C16.3909 7.46986 16.4278 7.52498 16.4529 7.58565C16.478 7.64631 16.4909 7.71133 16.4909 7.77699C16.4909 7.84265 16.478 7.90767 16.4529 7.96833C16.4278 8.029 16.3909 8.08412 16.3445 8.13054L12.4554 12.0196L8.21277 7.77699L12.1019 3.8879ZM7.15211 8.83765L3.26302 12.7267C3.21659 12.7732 3.17976 12.8283 3.15464 12.8889C3.12951 12.9496 3.11658 13.0146 3.11658 13.0803C3.11658 13.146 3.12951 13.211 3.15464 13.2716C3.17976 13.3323 3.21659 13.3874 3.26302 13.4338L5.94088 16.1117H8.36334L11.3948 13.0803L7.15211 8.83765ZM12.9658 13.6306L10.4847 16.1117H16.8748C17.289 16.1117 17.6248 16.4475 17.6248 16.8617C17.6248 17.2759 17.289 17.6117 16.8748 17.6117H5.63022C5.43131 17.6117 5.24054 17.5327 5.09989 17.392L2.20236 14.4945C2.01665 14.3088 1.86933 14.0883 1.76882 13.8457C1.66831 13.603 1.61658 13.3429 1.61658 13.0803C1.61658 12.8176 1.66831 12.5576 1.76882 12.3149C1.86933 12.0723 2.01665 11.8518 2.20236 11.6661L11.0412 2.82724C11.4163 2.45217 11.925 2.24146 12.4554 2.24146C12.9858 2.24146 13.4946 2.45217 13.8696 2.82724L17.4052 6.36278C17.5909 6.54849 17.7382 6.76897 17.8387 7.01162C17.9392 7.25427 17.9909 7.51435 17.9909 7.77699C17.9909 8.03963 17.9392 8.29971 17.8387 8.54236C17.7382 8.78501 17.5909 9.00548 17.4052 9.1912L13.0057 13.5906C12.9993 13.5975 12.9928 13.6043 12.9861 13.611C12.9794 13.6177 12.9726 13.6242 12.9658 13.6306Z" fill="#362E72"/>
</svg>
