<svg width="7" height="7" viewBox="0 0 7 7" fill="none" xmlns="http://www.w3.org/2000/svg">
<path d="M5.58049 3.60828C5.6597 3.53891 5.76665 3.5 5.87812 3.5C5.98958 3.5 6.09654 3.53891 6.17575 3.60828C6.21485 3.64235 6.24591 3.68295 6.26711 3.72773C6.2883 3.77251 6.29922 3.82057 6.29922 3.86912C6.29922 3.91767 6.2883 3.96573 6.26711 4.01051C6.24591 4.05529 6.21485 4.09589 6.17575 4.12996L3.79715 6.19189C3.71777 6.26116 3.61073 6.3 3.49922 6.3C3.3877 6.3 3.28067 6.26116 3.20129 6.19189L0.822691 4.12996C0.783585 4.09589 0.75253 4.05529 0.731333 4.01051C0.710135 3.96573 0.699219 3.91767 0.699219 3.86912C0.699219 3.82057 0.710135 3.77251 0.731333 3.72773C0.75253 3.68295 0.783585 3.64235 0.822691 3.60828C0.901897 3.53891 1.00886 3.5 1.12032 3.5C1.23178 3.5 1.33874 3.53891 1.41795 3.60828L3.50013 5.29928L5.58049 3.60828Z" fill="#AAAAAA"/>
<path d="M5.58049 0.808478C5.6597 0.739109 5.76665 0.700195 5.87812 0.700195C5.98958 0.700195 6.09654 0.739109 6.17575 0.808478C6.21485 0.842542 6.24591 0.883146 6.26711 0.927926C6.2883 0.972706 6.29922 1.02077 6.29922 1.06932C6.29922 1.11786 6.2883 1.16592 6.26711 1.2107C6.24591 1.25548 6.21485 1.29609 6.17575 1.33015L3.79715 3.39208C3.71777 3.46136 3.61073 3.5002 3.49922 3.5002C3.3877 3.5002 3.28067 3.46136 3.20129 3.39208L0.822691 1.33015C0.783585 1.29609 0.75253 1.25548 0.731333 1.2107C0.710135 1.16592 0.699219 1.11786 0.699219 1.06932C0.699219 1.02077 0.710135 0.972706 0.731333 0.927926C0.75253 0.883146 0.783585 0.842542 0.822691 0.808478C0.901897 0.739109 1.00886 0.700195 1.12032 0.700195C1.23178 0.700195 1.33874 0.739109 1.41795 0.808478L3.50013 2.49948L5.58049 0.808478Z" fill="#AAAAAA"/>
</svg>
