<?xml version="1.0" encoding="UTF-8" standalone="no"?>
<!-- Created with Inkscape (http://www.inkscape.org/) -->

<svg
   width="5.7399998mm"
   height="5.7400045mm"
   viewBox="0 0 5.7399998 5.7400045"
   version="1.1"
   id="svg5"
   sodipodi:docname="marker.svg"
   inkscape:version="1.2.1 (ef4d3fba62, 2022-07-19, custom)"
   xmlns:inkscape="http://www.inkscape.org/namespaces/inkscape"
   xmlns:sodipodi="http://sodipodi.sourceforge.net/DTD/sodipodi-0.dtd"
   xmlns="http://www.w3.org/2000/svg"
   xmlns:svg="http://www.w3.org/2000/svg">
  <sodipodi:namedview
     id="namedview7"
     pagecolor="#ffffff"
     bordercolor="#000000"
     borderopacity="0.25"
     inkscape:showpageshadow="2"
     inkscape:pageopacity="0.0"
     inkscape:pagecheckerboard="0"
     inkscape:deskcolor="#d1d1d1"
     inkscape:document-units="mm"
     showgrid="false"
     inkscape:zoom="8.8189945"
     inkscape:cx="13.493602"
     inkscape:cy="11.169074"
     inkscape:window-width="1920"
     inkscape:window-height="1016"
     inkscape:window-x="1920"
     inkscape:window-y="27"
     inkscape:window-maximized="1"
     inkscape:current-layer="layer1" />
  <defs
     id="defs2" />
  <g
     inkscape:label="Layer 1"
     inkscape:groupmode="layer"
     id="layer1"
     transform="translate(-152.24885,-160.05575)">
    <path
       d="m 157.75672,162.36025 -2.22514,-2.2278 c -0.0247,-0.0245 -0.0541,-0.0439 -0.0863,-0.0571 -0.0322,-0.0132 -0.0668,-0.0198 -0.10158,-0.0196 l -2.60575,0.2245 c -0.0702,0 -0.13747,0.0279 -0.18709,0.0775 -0.0496,0.0496 -0.0775,0.11692 -0.0775,0.18709 l -0.22451,2.60574 c -2e-4,0.0348 0.006,0.0693 0.0196,0.10158 0.0132,0.0323 0.0326,0.0616 0.0571,0.0863 l 2.2278,2.22514 c 0.14882,0.14864 0.35056,0.23215 0.5609,0.23215 0.21035,0 0.41209,-0.0835 0.56092,-0.23215 l 2.0815,-2.06825 c 0.14865,-0.14882 0.23212,-0.35057 0.23212,-0.56091 0,-0.21035 -0.0835,-0.41209 -0.23212,-0.56092 z m -0.37306,0.74613 -2.08415,2.08147 c -0.0496,0.0493 -0.11663,0.0769 -0.18653,0.0769 -0.0699,0 -0.13695,-0.0276 -0.18653,-0.0769 l -2.14841,-2.14577 0.22451,-2.23268 2.2327,-0.22451 2.14841,2.14842 c 0.0245,0.0247 0.0439,0.054 0.0571,0.0863 0.0131,0.0322 0.0198,0.0667 0.0196,0.10157 -2.9e-4,0.0694 -0.0279,0.13592 -0.0767,0.18521 z"
       fill="#362e72"
       id="path132"
       style="stroke-width:0.264583" />
    <path
       d="m 154.7832,162.50249 h 0.2797 c 0.0716,0 0.13014,-0.0125 0.17563,-0.0375 0.0466,-0.0261 0.0813,-0.0625 0.10403,-0.10913 0.0227,-0.0478 0.0341,-0.10403 0.0341,-0.16883 0,-0.05 -0.0108,-0.0961 -0.0324,-0.13813 -0.0204,-0.0421 -0.0523,-0.0756 -0.0955,-0.10061 -0.0432,-0.0262 -0.0984,-0.0392 -0.16542,-0.0392 -0.0455,0 -0.0898,0.01 -0.13301,0.029 -0.0432,0.0182 -0.079,0.0443 -0.10744,0.0785 -0.0273,0.0341 -0.0409,0.0756 -0.0409,0.12449 h -0.57639 c 0,-0.14098 0.0386,-0.26148 0.11596,-0.36153 0.0785,-0.10118 0.18134,-0.17849 0.30867,-0.23192 0.12845,-0.0546 0.26659,-0.0819 0.41439,-0.0819 0.17621,0 0.33083,0.0273 0.46384,0.0819 0.13303,0.0534 0.23648,0.13301 0.31038,0.23874 0.075,0.10459 0.11256,0.2342 0.11256,0.38881 0,0.0853 -0.0199,0.16542 -0.0597,0.24045 -0.0398,0.075 -0.0955,0.14097 -0.16714,0.19783 -0.0716,0.0568 -0.15573,0.10173 -0.25239,0.1347 -0.0955,0.0319 -0.20007,0.0478 -0.31377,0.0478 h -0.37518 z m 0,0.42804 v -0.28649 h 0.37518 c 0.12393,0 0.23704,0.0142 0.33936,0.0426 0.10231,0.0273 0.19042,0.0682 0.26432,0.12279 0.0739,0.0546 0.13075,0.12221 0.17055,0.20294 0.0398,0.0796 0.0597,0.1711 0.0597,0.27455 0,0.11594 -0.0233,0.21942 -0.0699,0.31036 -0.0466,0.091 -0.11197,0.16769 -0.19611,0.23021 -0.0841,0.0626 -0.18248,0.11028 -0.29504,0.14325 -0.11252,0.0319 -0.23476,0.0478 -0.36663,0.0478 -0.10345,0 -0.2069,-0.0137 -0.31036,-0.0409 -0.10348,-0.0284 -0.19783,-0.0716 -0.28309,-0.1296 -0.0853,-0.0591 -0.15405,-0.13417 -0.20635,-0.2251 -0.0512,-0.0921 -0.0767,-0.2018 -0.0767,-0.32915 h 0.5764 c 0,0.0523 0.0142,0.10007 0.0426,0.14328 0.0296,0.042 0.0688,0.0756 0.11766,0.10059 0.0489,0.025 0.10176,0.0375 0.15859,0.0375 0.0705,0 0.13017,-0.0131 0.17907,-0.0392 0.05,-0.0273 0.0881,-0.0637 0.11425,-0.10914 0.0261,-0.0455 0.0392,-0.0961 0.0392,-0.15179 0,-0.0841 -0.0142,-0.15119 -0.0426,-0.20122 -0.0273,-0.05 -0.0677,-0.0864 -0.12107,-0.10914 -0.0523,-0.0227 -0.11539,-0.0341 -0.18928,-0.0341 z"
       fill="#362e72"
       id="path134"
       style="stroke-width:0.264583" />
  </g>
</svg>
