<?xml version="1.0" encoding="UTF-8" standalone="no"?>
<!-- Created with Inkscape (http://www.inkscape.org/) -->

<svg
   width="3.4690001mm"
   height="3.395mm"
   viewBox="0 0 3.4690001 3.3949999"
   version="1.1"
   id="svg5"
   sodipodi:docname="mic.svg"
   inkscape:version="1.2.1 (2ed6d7ae0b, 2022-08-22, custom)"
   xmlns:inkscape="http://www.inkscape.org/namespaces/inkscape"
   xmlns:sodipodi="http://sodipodi.sourceforge.net/DTD/sodipodi-0.dtd"
   xmlns="http://www.w3.org/2000/svg"
   xmlns:svg="http://www.w3.org/2000/svg">
  <sodipodi:namedview
     id="namedview7"
     pagecolor="#ffffff"
     bordercolor="#000000"
     borderopacity="0.25"
     inkscape:showpageshadow="2"
     inkscape:pageopacity="0.0"
     inkscape:pagecheckerboard="0"
     inkscape:deskcolor="#d1d1d1"
     inkscape:document-units="mm"
     showgrid="false"
     inkscape:zoom="14.282155"
     inkscape:cx="47.191758"
     inkscape:cy="22.370574"
     inkscape:window-width="3440"
     inkscape:window-height="1376"
     inkscape:window-x="1920"
     inkscape:window-y="27"
     inkscape:window-maximized="1"
     inkscape:current-layer="layer1" />
  <defs
     id="defs2" />
  <g
     inkscape:label="Layer 1"
     inkscape:groupmode="layer"
     id="layer1"
     transform="translate(-130.51827,-171.12617)">
    <path
       d="m 132.25553,173.28649 c 0.16373,0 0.32076,-0.065 0.43654,-0.18082 0.11577,-0.11578 0.18082,-0.27281 0.18082,-0.43654 v -0.92605 c 0,-0.16373 -0.0651,-0.32076 -0.18082,-0.43654 -0.11578,-0.11577 -0.27281,-0.18082 -0.43654,-0.18082 -0.16374,0 -0.32077,0.065 -0.43654,0.18082 -0.11578,0.11578 -0.18082,0.27281 -0.18082,0.43654 v 0.92605 c 0,0.16373 0.065,0.32076 0.18082,0.43654 0.11577,0.11577 0.2728,0.18082 0.43654,0.18082 z m -0.30868,-1.54341 c 0,-0.0819 0.0325,-0.16038 0.0904,-0.21827 0.0579,-0.0579 0.1364,-0.0904 0.21827,-0.0904 0.0819,0 0.16038,0.0325 0.21827,0.0904 0.0579,0.0579 0.0904,0.13641 0.0904,0.21827 v 0.92605 c 0,0.0819 -0.0325,0.16038 -0.0904,0.21827 -0.0579,0.0579 -0.13641,0.0904 -0.21827,0.0904 -0.0819,0 -0.16038,-0.0325 -0.21827,-0.0904 -0.0579,-0.0579 -0.0904,-0.13641 -0.0904,-0.21827 z m 1.54339,0.92605 c 0,-0.0409 -0.0162,-0.0802 -0.0452,-0.10914 -0.0289,-0.0289 -0.0682,-0.0452 -0.10914,-0.0452 -0.0409,0 -0.0802,0.0163 -0.10914,0.0452 -0.029,0.029 -0.0452,0.0682 -0.0452,0.10914 0,0.2456 -0.0976,0.48114 -0.27124,0.65481 -0.17367,0.17366 -0.40921,0.27123 -0.65481,0.27123 -0.2456,0 -0.48115,-0.0976 -0.65481,-0.27123 -0.17367,-0.17367 -0.27123,-0.40921 -0.27123,-0.65481 0,-0.0409 -0.0163,-0.0802 -0.0452,-0.10914 -0.0289,-0.0289 -0.0682,-0.0452 -0.10913,-0.0452 -0.0409,0 -0.0802,0.0163 -0.10914,0.0452 -0.0289,0.029 -0.0452,0.0682 -0.0452,0.10914 2.7e-4,0.30054 0.11015,0.59067 0.30905,0.81599 0.19889,0.22532 0.47314,0.37037 0.77133,0.40791 v 0.31949 h -0.30868 c -0.0409,0 -0.0802,0.0163 -0.10914,0.0452 -0.0289,0.0289 -0.0452,0.0682 -0.0452,0.10915 0,0.0409 0.0163,0.0802 0.0452,0.10914 0.029,0.0289 0.0682,0.0452 0.10914,0.0452 h 0.92604 c 0.0409,0 0.0802,-0.0162 0.10913,-0.0452 0.0289,-0.029 0.0452,-0.0682 0.0452,-0.10914 0,-0.0409 -0.0163,-0.0802 -0.0452,-0.10915 -0.0289,-0.0289 -0.0682,-0.0452 -0.10913,-0.0452 h -0.30868 v -0.31949 c 0.29819,-0.0375 0.57244,-0.18259 0.77134,-0.40791 0.19889,-0.22532 0.30877,-0.51545 0.30903,-0.81599 z"
       fill="#362e72"
       id="path245"
       style="stroke-width:0.264583" />
  </g>
</svg>
