<svg width="18" height="13" viewBox="0 0 18 13" fill="none" xmlns="http://www.w3.org/2000/svg">
<path d="M4.75412 1.845L2.60912 1.92L2.02412 5.19H0.764121L1.01912 0.855H10.6941L10.8741 5.19H9.68912L9.10412 1.92L6.98912 1.845V10.95L9.08912 11.1V12H2.83412V11.1L4.75412 10.95V1.845ZM14.5478 12.135C13.9178 12.135 13.4528 11.99 13.1528 11.7C12.8528 11.41 12.7028 10.95 12.7028 10.32V4.815H11.7278V4.035C11.8078 4.005 11.9528 3.955 12.1628 3.885C12.3728 3.805 12.5328 3.74 12.6428 3.69C12.8128 3.56 12.9578 3.335 13.0778 3.015C13.1678 2.805 13.3328 2.285 13.5728 1.455H14.7728L14.8328 3.66H17.1278V4.815H14.8478V9.03C14.8478 9.59 14.8628 9.985 14.8928 10.215C14.9228 10.445 14.9878 10.595 15.0878 10.665C15.1878 10.725 15.3628 10.755 15.6128 10.755C15.8628 10.755 16.1228 10.73 16.3928 10.68C16.6628 10.62 16.8878 10.55 17.0678 10.47L17.3528 11.31C17.0728 11.52 16.6628 11.71 16.1228 11.88C15.5828 12.05 15.0578 12.135 14.5478 12.135Z" fill="black"/>
</svg>
