<svg width="7" height="7" viewBox="0 0 7 7" fill="none" xmlns="http://www.w3.org/2000/svg">
<path fill-rule="evenodd" clip-rule="evenodd" d="M4.2543 0.784238V1.11074L4.45832 1.51886L2.62218 2.74323H1.07167C0.892134 2.74323 0.798287 2.95954 0.932937 3.09422L2.21415 4.37572L0.582031 6.41634L2.62218 4.78385L3.9034 6.06536C3.93145 6.09448 3.96752 6.1146 4.00704 6.12318C4.04655 6.13176 4.08772 6.1284 4.12531 6.11353C4.16291 6.09866 4.19525 6.07296 4.21822 6.03967C4.24118 6.00639 4.25374 5.96703 4.2543 5.92659V4.37572L5.47839 2.53917L5.88642 2.74323H6.21285C6.39238 2.74323 6.48623 2.52693 6.35158 2.39224L4.60521 0.645476C4.57715 0.616355 4.54108 0.596228 4.50157 0.587651C4.46206 0.579073 4.42089 0.582432 4.38329 0.5973C4.34569 0.612169 4.31335 0.637876 4.29039 0.67116C4.26742 0.704443 4.25486 0.743802 4.2543 0.784238Z" fill="#9B9B9B"/>
</svg>
