<svg width="20" height="20" viewBox="0 0 20 20" fill="none" xmlns="http://www.w3.org/2000/svg">
<path d="M2.08314 9.44229C2.34247 8.81732 2.72482 8.25087 3.20746 7.77664C3.68465 7.29755 4.25034 6.91571 4.87311 6.65231C5.50328 6.38758 6.18006 6.25165 6.86357 6.25255H15.4917L13.1597 3.92898C13.0817 3.85156 13.0197 3.75943 12.9774 3.65795C12.9352 3.55646 12.9134 3.4476 12.9134 3.33766C12.9134 3.22771 12.9352 3.11888 12.9774 3.01739C13.0197 2.9159 13.0817 2.82378 13.1597 2.74636C13.2372 2.6683 13.3293 2.60633 13.4308 2.56405C13.5322 2.52177 13.6411 2.5 13.751 2.5C13.861 2.5 13.9698 2.52177 14.0713 2.56405C14.1728 2.60633 14.2649 2.6683 14.3423 2.74636L18.0901 6.49408C18.1659 6.57328 18.2253 6.66667 18.265 6.7689C18.31 6.86831 18.3334 6.97621 18.3334 7.08537C18.3334 7.19454 18.31 7.30244 18.265 7.40185C18.2228 7.50278 18.1636 7.59575 18.0901 7.6767L14.3423 11.4244C14.2645 11.5016 14.1722 11.5627 14.0708 11.6041C13.9693 11.6456 13.8606 11.6666 13.751 11.6659C13.6414 11.6666 13.5328 11.6456 13.4313 11.6041C13.3298 11.5627 13.2376 11.5016 13.1597 11.4244C13.0817 11.347 13.0197 11.2549 12.9774 11.1534C12.9352 11.0519 12.9134 10.943 12.9134 10.8331C12.9134 10.7232 12.9352 10.6143 12.9774 10.5128C13.0197 10.4113 13.0817 10.3192 13.1597 10.2418L15.4917 7.9182H6.88022C6.41739 7.91797 5.95902 8.00852 5.53104 8.18471C5.10215 8.36367 4.71189 8.62385 4.38174 8.95092C4.05135 9.28007 3.78828 9.67043 3.60722 10.1002C3.4318 10.5313 3.34131 10.9923 3.3407 11.4577C3.33909 11.9225 3.43034 12.3829 3.60911 12.812C3.78788 13.241 4.05056 13.6301 4.38174 13.9562C4.70787 14.2874 5.09689 14.5501 5.52593 14.7288C5.95498 14.9076 6.41542 14.9988 6.88022 14.9972H13.7427C13.9636 14.9972 14.1754 15.085 14.3316 15.2412C14.4878 15.3974 14.5755 15.6092 14.5755 15.8301C14.5755 16.0509 14.4878 16.2628 14.3316 16.419C14.1754 16.5751 13.9636 16.6629 13.7427 16.6629H6.87189C6.18802 16.6648 5.51055 16.5311 4.87869 16.2695C4.24684 16.0079 3.67314 15.6236 3.1908 15.1388C2.70601 14.6565 2.32168 14.0828 2.06008 13.4509C1.79847 12.8191 1.66478 12.1416 1.66673 11.4577C1.66681 10.7646 1.80851 10.0787 2.08314 9.44229Z" fill="#362E72"/>
</svg>
