<svg width="24" height="24" viewBox="0 0 24 24" fill="none" xmlns="http://www.w3.org/2000/svg">
<path fill-rule="evenodd" clip-rule="evenodd" d="M19.0864 3.58548L21.4078 5.90685C21.7725 6.26969 21.9845 6.75834 22.0003 7.27252C22.0162 7.78669 21.8347 8.2874 21.4931 8.67204L15.2459 15.9947L9.01562 9.7474L16.3383 3.50011C16.7219 3.16351 17.219 2.98513 17.7292 3.00097C18.2393 3.01681 18.7244 3.22572 19.0864 3.58548ZM6.59307 11.8129C6.39948 11.9836 6.25822 12.2057 6.18572 12.4535C6.11321 12.7012 6.11239 12.9644 6.18337 13.2125L6.66131 14.7829L4.80078 16.6605L8.3341 20.1938L10.1946 18.3332L11.765 18.8112C12.0127 18.8887 12.2778 18.8912 12.5269 18.8183C12.776 18.7454 12.9979 18.6004 13.1647 18.4015L14.479 16.8824L8.11219 10.5156L6.59307 11.8129ZM2 20.655L5.66986 21.8157L6.98418 20.5184L4.50916 18.0605L2 20.655Z" fill="black"/>
</svg>
