<svg width="24" height="24" viewBox="0 0 24 24" fill="none" xmlns="http://www.w3.org/2000/svg">
<path d="M13.8 17.08H4.44C4.05809 17.08 3.69182 16.9283 3.42177 16.6582C3.15171 16.3882 3 16.0219 3 15.64V8.44C3 8.05809 3.15171 7.69182 3.42177 7.42177C3.69182 7.15171 4.05809 7 4.44 7H13.8C14.1819 7 14.5482 7.15171 14.8182 7.42177C15.0883 7.69182 15.24 8.05809 15.24 8.44V15.64C15.24 16.0219 15.0883 16.3882 14.8182 16.6582C14.5482 16.9283 14.1819 17.08 13.8 17.08ZM16.68 9.88V14.2L19.8804 16.3341C19.9889 16.4065 20.115 16.448 20.2452 16.4543C20.3755 16.4606 20.505 16.4314 20.62 16.3698C20.7349 16.3082 20.831 16.2166 20.8979 16.1047C20.9649 15.9927 21.0002 15.8647 21 15.7343V8.34568C21 8.21533 20.9647 8.08742 20.8977 7.97559C20.8307 7.86377 20.7346 7.77223 20.6197 7.71073C20.5047 7.64924 20.3753 7.6201 20.2451 7.62642C20.1149 7.63274 19.9888 7.6743 19.8804 7.74664L16.68 9.88Z" fill="#362E72"/>
</svg>
