<svg width="16" height="16" viewBox="0 0 16 16" fill="none" xmlns="http://www.w3.org/2000/svg">
<path d="M11.3444 7.34222H8.67771V4.67556C8.67771 4.30222 8.37549 4 8.00215 4C7.62882 4 7.3266 4.30222 7.3266 4.67556V7.34222H4.65993C4.2866 7.34222 3.98438 7.64445 3.98438 8.01778C3.98438 8.39111 4.2866 8.69334 4.65993 8.69334H7.3266V11.36C7.3266 11.7333 7.62882 12.0356 8.00215 12.0356C8.37549 12.0356 8.67771 11.7333 8.67771 11.36V8.69334H11.3444C11.7177 8.69334 12.0199 8.39111 12.0199 8.01778C12.0199 7.64445 11.6999 7.34222 11.3444 7.34222Z" fill="black"/>
</svg>
