<svg width="20" height="20" viewBox="0 0 20 20" fill="none" xmlns="http://www.w3.org/2000/svg">
<path d="M2.99991 0C2.44763 0 1.99991 0.447715 1.99991 1V5.18C1.42412 5.39215 0.92723 5.77578 0.576257 6.27913C0.225284 6.78249 0.0371094 7.38136 0.0371094 7.995C0.0371094 8.60864 0.225284 9.20751 0.576257 9.71087C0.92723 10.2142 1.42412 10.5978 1.99991 10.81V19C1.99991 19.5523 2.44763 20 2.99991 20V20C3.5522 20 3.99991 19.5523 3.99991 19V10.82C4.57907 10.6098 5.07945 10.2264 5.43307 9.72184C5.78669 9.2173 5.97639 8.61612 5.97639 8C5.97639 7.38388 5.78669 6.7827 5.43307 6.27816C5.07945 5.77363 4.57907 5.3902 3.99991 5.18V1C3.99991 0.447717 3.5522 0 2.99991 0V0ZM9.99991 0C9.44763 0 8.99991 0.447715 8.99991 1V12.18C8.42412 12.3922 7.92723 12.7758 7.57626 13.2791C7.22528 13.7825 7.03711 14.3814 7.03711 14.995C7.03711 15.6086 7.22528 16.2075 7.57626 16.7109C7.92723 17.2142 8.42412 17.5978 8.99991 17.81V19C8.99991 19.5523 9.44763 20 9.99991 20V20C10.5522 20 10.9999 19.5523 10.9999 19V17.82C11.5757 17.6078 12.0726 17.2242 12.4236 16.7209C12.7745 16.2175 12.9627 15.6186 12.9627 15.005C12.9627 14.3914 12.7745 13.7925 12.4236 13.2891C12.0726 12.7858 11.5757 12.4022 10.9999 12.19V0.999999C10.9999 0.447715 10.5522 0 9.99991 0V0ZM16.9999 0C16.2964 0.00545837 15.6171 0.258013 15.0809 0.713516C14.5447 1.16902 14.1857 1.79849 14.0665 2.49189C13.9474 3.18529 14.0757 3.89851 14.4291 4.50687C14.7826 5.11523 15.3385 5.58002 15.9999 5.82V19C15.9999 19.5523 16.4476 20 16.9999 20V20C17.5522 20 17.9999 19.5523 17.9999 19V5.82C18.6613 5.58002 19.2173 5.11523 19.5707 4.50687C19.9241 3.89851 20.0525 3.18529 19.9333 2.49189C19.8142 1.79849 19.4551 1.16902 18.9189 0.713516C18.3827 0.258013 17.7035 0.00545837 16.9999 0Z" fill="#5B4DBE"/>
</svg>

