<svg width="24" height="14" viewBox="0 0 24 14" fill="none" xmlns="http://www.w3.org/2000/svg">
<path d="M14.4 13.44H1.92C1.41078 13.44 0.922425 13.2377 0.562355 12.8776C0.202285 12.5176 0 12.0292 0 11.52V1.92C0 1.41078 0.202285 0.922425 0.562355 0.562355C0.922425 0.202286 1.41078 0 1.92 0H14.4C14.9092 0 15.3976 0.202286 15.7576 0.562355C16.1177 0.922425 16.32 1.41078 16.32 1.92V11.52C16.32 12.0292 16.1177 12.5176 15.7576 12.8776C15.3976 13.2377 14.9092 13.44 14.4 13.44ZM18.24 3.84V9.6L22.5072 12.4454C22.6518 12.5419 22.82 12.5974 22.9937 12.6057C23.1673 12.6141 23.34 12.5752 23.4933 12.4931C23.6466 12.411 23.7747 12.2888 23.8639 12.1396C23.9532 11.9903 24.0002 11.8196 24 11.6458V1.79424C24 1.62044 23.9529 1.44989 23.8636 1.30079C23.7742 1.15169 23.6461 1.02963 23.4929 0.947641C23.3396 0.865648 23.167 0.826794 22.9934 0.835226C22.8198 0.843659 22.6518 0.89906 22.5072 0.99552L18.24 3.84Z" fill="#5B4DBE"/>
</svg>
