<svg width="81" height="84" viewBox="0 0 81 84" fill="none" xmlns="http://www.w3.org/2000/svg">
<path fill-rule="evenodd" clip-rule="evenodd" d="M79.1931 10.8556C79.5678 11.2212 79.867 11.6567 80.0742 12.1374C80.2446 12.6414 80.3391 13.1679 80.3546 13.6997C80.3357 14.2258 80.2131 14.7431 79.994 15.2219C79.7915 15.7169 79.4919 16.1663 79.1129 16.5437L49.8711 45.7856C49.125 46.5256 48.1179 46.9428 47.067 46.9473H37.3732C36.8461 46.9503 36.3234 46.8492 35.8354 46.6499C35.3473 46.4506 34.9034 46.1568 34.5291 45.7856C34.1578 45.4113 33.8641 44.9674 33.6648 44.4793C33.4655 43.9913 33.3645 43.4687 33.3675 42.9415V33.2477C33.3685 32.7107 33.4773 32.1794 33.6878 31.6854C33.9068 31.2013 34.2202 30.7655 34.6093 30.4036L63.8511 1.1617C64.2253 0.790446 64.6693 0.496711 65.1574 0.297367C65.6454 0.0980238 66.1678 -0.00298096 66.695 6.69786e-05C67.7458 0.0044918 68.7529 0.421667 69.499 1.1617L79.1931 10.8556ZM41.379 38.9358H45.3847L70.7007 13.6596L66.695 9.6539L41.379 34.9301V38.9358ZM66.8802 40.1942C67.3682 39.9949 67.8908 39.8938 68.418 39.8968C68.9681 39.8828 69.5153 39.9823 70.0253 40.189C70.5353 40.3958 70.9972 40.7054 71.3822 41.0986C71.7535 41.4729 72.0471 41.9168 72.2465 42.4048C72.4458 42.8929 72.5468 43.4155 72.5438 43.9427V71.9828C72.541 75.1689 71.273 78.2234 69.0187 80.4749C66.7672 82.7292 63.7127 83.9972 60.5266 84H12.4578C9.27172 83.9972 6.21717 82.7292 3.96567 80.4749C2.76472 79.3926 1.79461 78.0792 1.1132 76.6131C0.431793 75.147 0.0531404 73.5585 3.60865e-05 71.9427V23.8739C-0.00384616 22.2896 0.305552 20.7202 0.910519 19.2559C1.51549 17.7916 2.4041 16.4613 3.5251 15.3417C5.78314 13.1021 8.83689 11.8489 12.0172 11.8567H20.0287C20.5559 11.8537 21.0785 11.9547 21.5665 12.1541C22.0546 12.3534 22.4983 12.6472 22.8726 13.0184C23.2439 13.3927 23.5378 13.8366 23.7371 14.3247C23.9365 14.8127 24.0375 15.3353 24.0344 15.8625C24.03 16.9133 23.6126 17.9204 22.8726 18.6665C22.5016 19.045 22.0594 19.3461 21.5712 19.5524C21.083 19.7586 20.5587 19.866 20.0287 19.8682H12.0172C11.4901 19.8651 10.9674 19.9662 10.4794 20.1655C9.99134 20.3649 9.54737 20.6586 9.17307 21.0299C8.80182 21.4042 8.50814 21.8481 8.3088 22.3361C8.10946 22.8242 8.00845 23.3467 8.0115 23.8739V54.3575L13.8998 48.389C14.9515 47.3416 16.2021 46.5149 17.5779 45.9577C18.9537 45.4005 20.427 45.1239 21.9113 45.1443C23.3961 45.1194 24.8709 45.3939 26.2473 45.9514C27.6238 46.5088 28.8737 47.3379 29.9227 48.389L63.7311 74.1058C64.1617 73.4655 64.3984 72.7143 64.4123 71.9427V43.9026C64.4092 43.3754 64.5102 42.8528 64.7096 42.3648C64.9089 41.8767 65.2026 41.4328 65.5739 41.0585C65.9482 40.6873 66.3921 40.3936 66.8802 40.1942ZM10.7953 75.6326C11.2835 75.8389 11.8078 75.9462 12.3378 75.9484L54.1175 75.7482L24.355 53.997C24.0693 53.6782 23.7124 53.4312 23.3134 53.276C22.9343 53.1119 22.5248 53.03 22.1118 53.0356C21.6991 53.0346 21.2903 53.1164 20.9098 53.276C20.5108 53.4312 20.154 53.6782 19.8683 53.997L8.33203 65.6938V71.9427C8.33645 72.9936 8.75357 74.0007 9.4936 74.7468C9.86459 75.1253 10.3071 75.4263 10.7953 75.6326ZM33.4075 19.8691C35.6198 19.8691 37.4132 18.0756 37.4132 15.8633C37.4132 13.651 35.6198 11.8576 33.4075 11.8576C31.1952 11.8576 29.4018 13.651 29.4018 15.8633C29.4018 18.0756 31.1952 19.8691 33.4075 19.8691ZM24.5558 33.1681C24.5558 35.3804 22.7623 37.1738 20.55 37.1738C18.3377 37.1738 16.5443 35.3804 16.5443 33.1681C16.5443 30.9558 18.3377 29.1624 20.55 29.1624C22.7623 29.1624 24.5558 30.9558 24.5558 33.1681Z" fill="#5B4DBE"/>
</svg>
