<svg width="20" height="20" viewBox="0 0 20 20" fill="none" xmlns="http://www.w3.org/2000/svg">
<path d="M10.7839 2.03673C8.88809 1.85467 6.98936 2.35344 5.42776 3.44374C3.86616 4.53403 2.74369 6.14463 2.26136 7.98711C1.77904 9.82958 1.96837 11.7836 2.79544 13.4992C3.62251 15.2148 5.03331 16.5799 6.77518 17.3502C7.78397 17.8063 8.87523 18.0519 9.98218 18.0717C11.7444 18.0719 13.4576 17.4914 14.8568 16.4201C15.0257 16.2913 15.1366 16.1008 15.1651 15.8904C15.1937 15.68 15.1376 15.4668 15.0091 15.2977C14.9453 15.2129 14.8653 15.1417 14.7737 15.088C14.6822 15.0344 14.5809 14.9995 14.4757 14.9854C14.3706 14.9712 14.2637 14.978 14.1612 15.0055C14.0587 15.033 13.9627 15.0805 13.8787 15.1453C13.0472 15.7734 12.0751 16.1895 11.0467 16.3574C10.0182 16.5254 8.96435 16.4403 7.9762 16.1094C6.98805 15.7785 6.0954 15.2119 5.37548 14.4585C4.65556 13.7051 4.13005 12.7876 3.84441 11.7854C3.55878 10.7833 3.52162 9.72659 3.73616 8.70683C3.9507 7.68708 4.41048 6.73496 5.0757 5.93284C5.74093 5.13073 6.59158 4.50277 7.55405 4.1033C8.51652 3.70384 9.56182 3.5449 10.5995 3.64023C12.21 3.82663 13.6941 4.60365 14.7649 5.82099C15.8356 7.03834 16.4168 8.60951 16.3962 10.2306V10.7758C16.3953 10.96 16.3572 11.1421 16.2844 11.3113C16.2115 11.4804 16.1053 11.6332 15.9721 11.7604C15.8389 11.8876 15.6814 11.9867 15.5091 12.0517C15.3368 12.1167 15.1531 12.1463 14.9691 12.1388C14.602 12.0985 14.2639 11.9205 14.0229 11.6408C13.7819 11.3611 13.6559 11.0004 13.6702 10.6315V7.16793C13.6702 6.95529 13.5858 6.75136 13.4354 6.60101C13.285 6.45065 13.0811 6.36618 12.8685 6.36618C12.6727 6.36452 12.4831 6.43454 12.3354 6.56303C12.1877 6.69152 12.0922 6.8696 12.0667 7.0637C11.3206 6.36103 10.3336 5.97084 9.30871 5.97332C8.61213 5.97854 7.92849 6.16199 7.32287 6.50619C6.71725 6.85038 6.20982 7.34388 5.84889 7.93968C5.48797 8.53548 5.28556 9.21375 5.26095 9.90991C5.23633 10.6061 5.39033 11.297 5.70828 11.9168C6.02622 12.5366 6.49753 13.0647 7.07733 13.4508C7.65713 13.8369 8.32611 14.0681 9.02058 14.1226C9.71505 14.177 10.4119 14.0527 11.0447 13.7616C11.6776 13.4705 12.2254 13.0222 12.636 12.4595C12.8687 12.8195 13.1787 13.1231 13.5434 13.3484C13.9082 13.5736 14.3185 13.7148 14.7446 13.7616C15.1707 13.8084 15.6019 13.7598 16.0068 13.6191C16.4118 13.4785 16.7803 13.2494 17.0857 12.9485C17.3796 12.6689 17.6125 12.3316 17.7698 11.9577C17.927 11.5838 18.0053 11.1814 17.9997 10.7758V10.2306C18.0176 8.2158 17.2911 6.26528 15.9595 4.75315C14.6278 3.24101 12.7848 2.2737 10.7839 2.03673ZM9.32475 12.5316C8.83476 12.5316 8.35578 12.3863 7.94837 12.1141C7.54096 11.8419 7.22343 11.455 7.03592 11.0023C6.84841 10.5496 6.79935 10.0515 6.89494 9.57091C6.99053 9.09034 7.22648 8.64891 7.57295 8.30244C7.91943 7.95597 8.36086 7.72002 8.84143 7.62442C9.322 7.52883 9.82012 7.57789 10.2728 7.7654C10.7255 7.95291 11.1124 8.27045 11.3846 8.67785C11.6569 9.08526 11.8022 9.56424 11.8022 10.0542C11.8 10.7106 11.5383 11.3395 11.0742 11.8037C10.6101 12.2678 9.98114 12.5295 9.32475 12.5316Z" fill="black"/>
</svg>
