<svg width="276" height="225" viewBox="0 0 276 225" fill="none" xmlns="http://www.w3.org/2000/svg">
<g filter="url(#filter0_d_5667_41859)">
<g filter="url(#filter1_i_5667_41859)">
<rect x="15" y="8.60254" width="245.17" height="180.652" rx="5.16148" fill="url(#paint0_linear_5667_41859)"/>
</g>
<rect x="15.2151" y="8.8176" width="244.74" height="180.222" rx="4.94642" stroke="url(#paint1_linear_5667_41859)" stroke-width="0.430123"/>
<mask id="mask0_5667_41859" style="mask-type:alpha" maskUnits="userSpaceOnUse" x="15" y="8" width="246" height="182">
<rect x="15.2151" y="8.8176" width="244.74" height="180.222" rx="4.94642" fill="url(#paint2_linear_5667_41859)" stroke="url(#paint3_linear_5667_41859)" stroke-width="0.430123"/>
</mask>
<g mask="url(#mask0_5667_41859)">
<g filter="url(#filter2_f_5667_41859)">
<rect x="73.0664" y="90.3262" width="129.037" height="98.9284" rx="4.86681" fill="url(#paint4_linear_5667_41859)"/>
</g>
</g>
<g filter="url(#filter3_d_5667_41859)">
<line x1="246.299" y1="98.6056" x2="28.0112" y2="98.6056" stroke="#9B9B9B" stroke-width="0.215062" stroke-linecap="round"/>
</g>
<path d="M30.8122 35.8076H29.2143L29.2244 34.6281H30.8122C31.2087 34.6281 31.5431 34.5391 31.8152 34.361C32.0874 34.1795 32.2924 33.9157 32.4302 33.5696C32.5713 33.2235 32.6419 32.8052 32.6419 32.3145V31.9567C32.6419 31.5803 32.6016 31.2493 32.5209 30.9637C32.4436 30.6781 32.3277 30.4378 32.1731 30.2429C32.0185 30.048 31.8287 29.9018 31.6035 29.8044C31.3784 29.7036 31.1197 29.6532 30.8273 29.6532H29.1841V28.4686H30.8273C31.3179 28.4686 31.7665 28.5526 32.1731 28.7207C32.5831 28.8853 32.9376 29.1222 33.2367 29.4314C33.5357 29.7405 33.7659 30.1102 33.9272 30.5403C34.0919 30.9671 34.1742 31.4425 34.1742 31.9668V32.3145C34.1742 32.8354 34.0919 33.3109 33.9272 33.741C33.7659 34.1711 33.5357 34.5408 33.2367 34.8499C32.941 35.1557 32.5864 35.3926 32.1731 35.5606C31.7632 35.7253 31.3095 35.8076 30.8122 35.8076ZM30.0712 28.4686V35.8076H28.5591V28.4686H30.0712ZM35.058 33.1361V33.0303C35.058 32.6304 35.1151 32.2625 35.2293 31.9264C35.3436 31.587 35.5099 31.293 35.7284 31.0443C35.9468 30.7957 36.2156 30.6025 36.5348 30.4647C36.8541 30.3235 37.2203 30.253 37.6337 30.253C38.047 30.253 38.4149 30.3235 38.7375 30.4647C39.0601 30.6025 39.3306 30.7957 39.5491 31.0443C39.7708 31.293 39.9389 31.587 40.0531 31.9264C40.1674 32.2625 40.2245 32.6304 40.2245 33.0303V33.1361C40.2245 33.5327 40.1674 33.9006 40.0531 34.24C39.9389 34.5761 39.7708 34.8701 39.5491 35.1221C39.3306 35.3708 39.0618 35.564 38.7426 35.7018C38.4233 35.8395 38.0571 35.9084 37.6437 35.9084C37.2304 35.9084 36.8625 35.8395 36.5399 35.7018C36.2206 35.564 35.9501 35.3708 35.7284 35.1221C35.5099 34.8701 35.3436 34.5761 35.2293 34.24C35.1151 33.9006 35.058 33.5327 35.058 33.1361ZM36.5096 33.0303V33.1361C36.5096 33.3647 36.5298 33.578 36.5701 33.7763C36.6104 33.9746 36.6743 34.1493 36.7617 34.3005C36.8524 34.4484 36.97 34.5643 37.1145 34.6483C37.259 34.7323 37.4354 34.7743 37.6437 34.7743C37.8454 34.7743 38.0184 34.7323 38.1629 34.6483C38.3074 34.5643 38.4233 34.4484 38.5107 34.3005C38.5981 34.1493 38.6619 33.9746 38.7023 33.7763C38.7459 33.578 38.7678 33.3647 38.7678 33.1361V33.0303C38.7678 32.8085 38.7459 32.6002 38.7023 32.4053C38.6619 32.207 38.5964 32.0323 38.5057 31.8811C38.4183 31.7265 38.3024 31.6055 38.1579 31.5181C38.0134 31.4308 37.8386 31.3871 37.6337 31.3871C37.4287 31.3871 37.2539 31.4308 37.1095 31.5181C36.9683 31.6055 36.8524 31.7265 36.7617 31.8811C36.6743 32.0323 36.6104 32.207 36.5701 32.4053C36.5298 32.6002 36.5096 32.8085 36.5096 33.0303ZM42.7817 34.3963L43.9158 30.3538H44.8382L44.5408 31.9415L43.4067 35.8076H42.6355L42.7817 34.3963ZM42.2071 30.3538L43.0186 34.3912L43.0942 35.8076H42.1869L40.8058 30.3538H42.2071ZM45.8766 34.3257L46.6679 30.3538H48.0742L46.6931 35.8076H45.7909L45.8766 34.3257ZM44.9642 30.3538L46.0933 34.366L46.2496 35.8076H45.4733L44.3392 31.9466L44.0519 30.3538H44.9642ZM50.3341 31.5181V35.8076H48.8824V30.3538H50.2433L50.3341 31.5181ZM50.1224 32.8892H49.7292C49.7292 32.4859 49.7813 32.123 49.8855 31.8004C49.9896 31.4745 50.1358 31.1972 50.324 30.9687C50.5122 30.7369 50.7356 30.5604 50.9944 30.4395C51.2565 30.3151 51.5488 30.253 51.8714 30.253C52.1268 30.253 52.3603 30.2899 52.572 30.3639C52.7838 30.4378 52.9652 30.5554 53.1164 30.7167C53.271 30.878 53.3886 31.0914 53.4693 31.3568C53.5533 31.6223 53.5953 31.9466 53.5953 32.3297V35.8076H52.1335V32.3246C52.1335 32.0827 52.0999 31.8945 52.0327 31.7601C51.9655 31.6257 51.8664 31.5316 51.7353 31.4778C51.6076 31.4207 51.4497 31.3921 51.2615 31.3921C51.0666 31.3921 50.8969 31.4308 50.7524 31.5081C50.6113 31.5854 50.4937 31.6929 50.3996 31.8307C50.3089 31.9651 50.24 32.123 50.1929 32.3045C50.1459 32.4859 50.1224 32.6808 50.1224 32.8892ZM56.339 28.0654V35.8076H54.8823V28.0654H56.339ZM57.4143 33.1361V33.0303C57.4143 32.6304 57.4714 32.2625 57.5857 31.9264C57.6999 31.587 57.8663 31.293 58.0847 31.0443C58.3031 30.7957 58.5719 30.6025 58.8912 30.4647C59.2104 30.3235 59.5767 30.253 59.99 30.253C60.4033 30.253 60.7713 30.3235 61.0939 30.4647C61.4165 30.6025 61.687 30.7957 61.9054 31.0443C62.1272 31.293 62.2952 31.587 62.4094 31.9264C62.5237 32.2625 62.5808 32.6304 62.5808 33.0303V33.1361C62.5808 33.5327 62.5237 33.9006 62.4094 34.24C62.2952 34.5761 62.1272 34.8701 61.9054 35.1221C61.687 35.3708 61.4181 35.564 61.0989 35.7018C60.7797 35.8395 60.4134 35.9084 60.0001 35.9084C59.5868 35.9084 59.2188 35.8395 58.8962 35.7018C58.577 35.564 58.3065 35.3708 58.0847 35.1221C57.8663 34.8701 57.6999 34.5761 57.5857 34.24C57.4714 33.9006 57.4143 33.5327 57.4143 33.1361ZM58.866 33.0303V33.1361C58.866 33.3647 58.8861 33.578 58.9264 33.7763C58.9668 33.9746 59.0306 34.1493 59.118 34.3005C59.2087 34.4484 59.3263 34.5643 59.4708 34.6483C59.6153 34.7323 59.7917 34.7743 60.0001 34.7743C60.2017 34.7743 60.3748 34.7323 60.5192 34.6483C60.6637 34.5643 60.7797 34.4484 60.867 34.3005C60.9544 34.1493 61.0183 33.9746 61.0586 33.7763C61.1023 33.578 61.1241 33.3647 61.1241 33.1361V33.0303C61.1241 32.8085 61.1023 32.6002 61.0586 32.4053C61.0183 32.207 60.9527 32.0323 60.862 31.8811C60.7746 31.7265 60.6587 31.6055 60.5142 31.5181C60.3697 31.4308 60.195 31.3871 59.99 31.3871C59.785 31.3871 59.6103 31.4308 59.4658 31.5181C59.3246 31.6055 59.2087 31.7265 59.118 31.8811C59.0306 32.0323 58.9668 32.207 58.9264 32.4053C58.8861 32.6002 58.866 32.8085 58.866 33.0303ZM66.5242 34.5777V32.1482C66.5242 31.9735 66.4956 31.8239 66.4385 31.6996C66.3814 31.5719 66.2923 31.4728 66.1713 31.4022C66.0537 31.3316 65.9008 31.2964 65.7127 31.2964C65.5514 31.2964 65.4119 31.3249 65.2943 31.3821C65.1767 31.4358 65.0859 31.5148 65.0221 31.619C64.9583 31.7198 64.9263 31.8391 64.9263 31.9768H63.4747C63.4747 31.745 63.5284 31.5249 63.636 31.3165C63.7435 31.1082 63.8997 30.925 64.1047 30.7671C64.3097 30.6058 64.5533 30.4798 64.8356 30.3891C65.1212 30.2983 65.4405 30.253 65.7933 30.253C66.2167 30.253 66.5931 30.3235 66.9224 30.4647C67.2517 30.6058 67.5104 30.8175 67.6986 31.0998C67.8901 31.3821 67.9859 31.7349 67.9859 32.1583V34.492C67.9859 34.7911 68.0044 35.0364 68.0414 35.228C68.0783 35.4161 68.1321 35.5808 68.2027 35.7219V35.8076H66.7359C66.6653 35.6598 66.6115 35.4749 66.5746 35.2532C66.541 35.028 66.5242 34.8029 66.5242 34.5777ZM66.7157 32.4859L66.7258 33.3075H65.9143C65.7227 33.3075 65.5564 33.3294 65.4153 33.3731C65.2741 33.4167 65.1582 33.4789 65.0675 33.5596C64.9767 33.6368 64.9095 33.7276 64.8658 33.8317C64.8255 33.9359 64.8054 34.0502 64.8054 34.1745C64.8054 34.2988 64.8339 34.4114 64.891 34.5122C64.9482 34.6097 65.0305 34.6869 65.138 34.7441C65.2456 34.7978 65.3716 34.8247 65.5161 34.8247C65.7345 34.8247 65.9244 34.781 66.0856 34.6937C66.2469 34.6063 66.3713 34.4988 66.4586 34.3711C66.5494 34.2434 66.5964 34.1224 66.5998 34.0082L66.9829 34.6231C66.9291 34.7609 66.8552 34.9037 66.7611 35.0515C66.6703 35.1994 66.5544 35.3389 66.4133 35.4699C66.2721 35.5976 66.1025 35.7034 65.9042 35.7875C65.7059 35.8681 65.4707 35.9084 65.1985 35.9084C64.8524 35.9084 64.5382 35.8395 64.2559 35.7018C63.977 35.5606 63.7553 35.3674 63.5906 35.1221C63.4293 34.8734 63.3487 34.5912 63.3487 34.2753C63.3487 33.9897 63.4024 33.736 63.5099 33.5142C63.6175 33.2924 63.7754 33.1059 63.9838 32.9547C64.1955 32.8001 64.4592 32.6842 64.7751 32.6069C65.091 32.5262 65.4573 32.4859 65.8739 32.4859H66.7157ZM72.4333 34.6181V28.0654H73.8951V35.8076H72.5795L72.4333 34.6181ZM68.9856 33.1462V33.0404C68.9856 32.6237 69.0327 32.2457 69.1268 31.9063C69.2208 31.5635 69.3586 31.2695 69.5401 31.0242C69.7215 30.7789 69.945 30.589 70.2105 30.4546C70.4759 30.3202 70.7784 30.253 71.1178 30.253C71.437 30.253 71.7159 30.3202 71.9545 30.4546C72.1964 30.589 72.4014 30.7806 72.5694 31.0292C72.7408 31.2745 72.8786 31.5652 72.9827 31.9012C73.0869 32.2339 73.1625 32.5985 73.2096 32.995V33.2269C73.1625 33.6066 73.0869 33.9594 72.9827 34.2854C72.8786 34.6113 72.7408 34.897 72.5694 35.1423C72.4014 35.3842 72.1964 35.5724 71.9545 35.7068C71.7125 35.8412 71.4303 35.9084 71.1077 35.9084C70.7683 35.9084 70.4659 35.8395 70.2004 35.7018C69.9383 35.564 69.7165 35.3708 69.535 35.1221C69.3569 34.8734 69.2208 34.5811 69.1268 34.2451C69.0327 33.909 68.9856 33.5427 68.9856 33.1462ZM70.4373 33.0404V33.1462C70.4373 33.3714 70.4541 33.5814 70.4877 33.7763C70.5247 33.9712 70.5835 34.1442 70.6641 34.2955C70.7481 34.4433 70.8556 34.5593 70.9867 34.6433C71.1211 34.7239 71.2841 34.7642 71.4756 34.7642C71.7243 34.7642 71.9293 34.7088 72.0906 34.5979C72.2519 34.4836 72.3745 34.3274 72.4585 34.1291C72.5459 33.9309 72.5963 33.7024 72.6097 33.4436V32.7833C72.5997 32.5716 72.5694 32.3818 72.519 32.2137C72.472 32.0424 72.4014 31.8962 72.3073 31.7752C72.2166 31.6542 72.1023 31.5602 71.9646 31.4929C71.8301 31.4257 71.6705 31.3921 71.4857 31.3921C71.2975 31.3921 71.1362 31.4358 71.0018 31.5232C70.8674 31.6072 70.7582 31.7231 70.6742 31.871C70.5935 32.0188 70.5331 32.1936 70.4927 32.3952C70.4558 32.5935 70.4373 32.8085 70.4373 33.0404ZM79.6648 35.8076H78.203V29.8699C78.203 29.4566 78.2837 29.1088 78.445 28.8265C78.6096 28.5409 78.8398 28.3258 79.1355 28.1813C79.4346 28.0335 79.7891 27.9595 80.1991 27.9595C80.3335 27.9595 80.4629 27.9696 80.5872 27.9898C80.7115 28.0066 80.8325 28.0284 80.9501 28.0553L80.935 29.1491C80.8711 29.1323 80.8039 29.1205 80.7334 29.1138C80.6628 29.1071 80.5805 29.1037 80.4864 29.1037C80.3116 29.1037 80.1621 29.134 80.0378 29.1945C79.9168 29.2516 79.8244 29.3373 79.7605 29.4515C79.6967 29.5658 79.6648 29.7052 79.6648 29.8699V35.8076ZM80.7535 30.3538V31.3821H77.3915V30.3538H80.7535ZM81.3903 33.1361V33.0303C81.3903 32.6304 81.4474 32.2625 81.5617 31.9264C81.6759 31.587 81.8423 31.293 82.0607 31.0443C82.2791 30.7957 82.5479 30.6025 82.8672 30.4647C83.1864 30.3235 83.5527 30.253 83.966 30.253C84.3793 30.253 84.7473 30.3235 85.0699 30.4647C85.3925 30.6025 85.663 30.7957 85.8814 31.0443C86.1032 31.293 86.2712 31.587 86.3854 31.9264C86.4997 32.2625 86.5568 32.6304 86.5568 33.0303V33.1361C86.5568 33.5327 86.4997 33.9006 86.3854 34.24C86.2712 34.5761 86.1032 34.8701 85.8814 35.1221C85.663 35.3708 85.3941 35.564 85.0749 35.7018C84.7557 35.8395 84.3894 35.9084 83.9761 35.9084C83.5628 35.9084 83.1948 35.8395 82.8722 35.7018C82.553 35.564 82.2825 35.3708 82.0607 35.1221C81.8423 34.8701 81.6759 34.5761 81.5617 34.24C81.4474 33.9006 81.3903 33.5327 81.3903 33.1361ZM82.842 33.0303V33.1361C82.842 33.3647 82.8621 33.578 82.9025 33.7763C82.9428 33.9746 83.0066 34.1493 83.094 34.3005C83.1847 34.4484 83.3023 34.5643 83.4468 34.6483C83.5913 34.7323 83.7677 34.7743 83.9761 34.7743C84.1777 34.7743 84.3508 34.7323 84.4953 34.6483C84.6398 34.5643 84.7557 34.4484 84.8431 34.3005C84.9304 34.1493 84.9943 33.9746 85.0346 33.7763C85.0783 33.578 85.1001 33.3647 85.1001 33.1361V33.0303C85.1001 32.8085 85.0783 32.6002 85.0346 32.4053C84.9943 32.207 84.9287 32.0323 84.838 31.8811C84.7506 31.7265 84.6347 31.6055 84.4902 31.5181C84.3457 31.4308 84.171 31.3871 83.966 31.3871C83.761 31.3871 83.5863 31.4308 83.4418 31.5181C83.3007 31.6055 83.1847 31.7265 83.094 31.8811C83.0066 32.0323 82.9428 32.207 82.9025 32.4053C82.8621 32.6002 82.842 32.8085 82.842 33.0303ZM89.0082 31.5433V35.8076H87.5565V30.3538H88.9225L89.0082 31.5433ZM90.6514 30.3185L90.6262 31.6643C90.5556 31.6542 90.4699 31.6458 90.3691 31.6391C90.2717 31.629 90.1826 31.624 90.102 31.624C89.897 31.624 89.7189 31.6509 89.5677 31.7046C89.4198 31.755 89.2955 31.8307 89.1947 31.9315C89.0972 32.0323 89.0233 32.1549 88.9729 32.2994C88.9259 32.4439 88.899 32.6086 88.8923 32.7934L88.5999 32.7027C88.5999 32.3498 88.6352 32.0256 88.7058 31.7298C88.7763 31.4308 88.8788 31.1704 89.0132 30.9486C89.151 30.7268 89.319 30.5554 89.5173 30.4344C89.7155 30.3135 89.9424 30.253 90.1978 30.253C90.2784 30.253 90.3607 30.2597 90.4447 30.2731C90.5287 30.2832 90.5976 30.2983 90.6514 30.3185ZM92.8961 31.4829V35.8076H91.4394V30.3538H92.8054L92.8961 31.4829ZM92.6945 32.8892H92.2912C92.2912 32.5094 92.3366 32.16 92.4273 31.8407C92.5214 31.5181 92.6575 31.2392 92.8356 31.004C93.0171 30.7654 93.2405 30.5806 93.506 30.4496C93.7715 30.3185 94.0789 30.253 94.4284 30.253C94.6704 30.253 94.8921 30.2899 95.0938 30.3639C95.2954 30.4344 95.4684 30.547 95.6129 30.7016C95.7608 30.8528 95.875 31.0511 95.9557 31.2964C96.0363 31.5383 96.0767 31.829 96.0767 32.1684V35.8076H94.625V32.3297C94.625 32.081 94.5914 31.8895 94.5242 31.755C94.457 31.6206 94.3612 31.5265 94.2369 31.4728C94.1159 31.419 93.9697 31.3921 93.7984 31.3921C93.6102 31.3921 93.4455 31.4308 93.3044 31.5081C93.1666 31.5854 93.0524 31.6929 92.9616 31.8307C92.8709 31.9651 92.8037 32.123 92.76 32.3045C92.7163 32.4859 92.6945 32.6808 92.6945 32.8892ZM95.9406 32.7228L95.4214 32.7884C95.4214 32.4322 95.4651 32.1012 95.5525 31.7954C95.6432 31.4896 95.7759 31.2208 95.9507 30.9889C96.1287 30.757 96.3489 30.5773 96.611 30.4496C96.8731 30.3185 97.1755 30.253 97.5182 30.253C97.7804 30.253 98.0189 30.2916 98.234 30.3689C98.4491 30.4428 98.6322 30.5621 98.7834 30.7268C98.938 30.8881 99.0556 31.0998 99.1363 31.3619C99.2203 31.624 99.2623 31.9449 99.2623 32.3246V35.8076H97.8056V32.3246C97.8056 32.0726 97.772 31.8811 97.7047 31.75C97.6409 31.6156 97.5468 31.5232 97.4225 31.4728C97.3015 31.419 97.157 31.3921 96.989 31.3921C96.8143 31.3921 96.6614 31.4274 96.5303 31.498C96.3993 31.5652 96.29 31.6593 96.2027 31.7803C96.1153 31.9012 96.0498 32.0424 96.0061 32.2037C95.9624 32.3616 95.9406 32.5346 95.9406 32.7228ZM103.437 34.5777V32.1482C103.437 31.9735 103.409 31.8239 103.352 31.6996C103.295 31.5719 103.206 31.4728 103.085 31.4022C102.967 31.3316 102.814 31.2964 102.626 31.2964C102.465 31.2964 102.325 31.3249 102.208 31.3821C102.09 31.4358 101.999 31.5148 101.935 31.619C101.872 31.7198 101.84 31.8391 101.84 31.9768H100.388C100.388 31.745 100.442 31.5249 100.549 31.3165C100.657 31.1082 100.813 30.925 101.018 30.7671C101.223 30.6058 101.467 30.4798 101.749 30.3891C102.035 30.2983 102.354 30.253 102.707 30.253C103.13 30.253 103.506 30.3235 103.836 30.4647C104.165 30.6058 104.424 30.8175 104.612 31.0998C104.803 31.3821 104.899 31.7349 104.899 32.1583V34.492C104.899 34.7911 104.918 35.0364 104.955 35.228C104.992 35.4161 105.045 35.5808 105.116 35.7219V35.8076H103.649C103.579 35.6598 103.525 35.4749 103.488 35.2532C103.454 35.028 103.437 34.8029 103.437 34.5777ZM103.629 32.4859L103.639 33.3075H102.828C102.636 33.3075 102.47 33.3294 102.329 33.3731C102.187 33.4167 102.072 33.4789 101.981 33.5596C101.89 33.6368 101.823 33.7276 101.779 33.8317C101.739 33.9359 101.719 34.0502 101.719 34.1745C101.719 34.2988 101.747 34.4114 101.804 34.5122C101.861 34.6097 101.944 34.6869 102.051 34.7441C102.159 34.7978 102.285 34.8247 102.429 34.8247C102.648 34.8247 102.838 34.781 102.999 34.6937C103.16 34.6063 103.285 34.4988 103.372 34.3711C103.463 34.2434 103.51 34.1224 103.513 34.0082L103.896 34.6231C103.842 34.7609 103.768 34.9037 103.674 35.0515C103.584 35.1994 103.468 35.3389 103.327 35.4699C103.185 35.5976 103.016 35.7034 102.818 35.7875C102.619 35.8681 102.384 35.9084 102.112 35.9084C101.766 35.9084 101.452 35.8395 101.169 35.7018C100.89 35.5606 100.669 35.3674 100.504 35.1221C100.343 34.8734 100.262 34.5912 100.262 34.2753C100.262 33.9897 100.316 33.736 100.423 33.5142C100.531 33.2924 100.689 33.1059 100.897 32.9547C101.109 32.8001 101.373 32.6842 101.688 32.6069C102.004 32.5262 102.371 32.4859 102.787 32.4859H103.629ZM108.797 30.3538V31.3821H105.622V30.3538H108.797ZM106.408 29.008H107.86V34.1644C107.86 34.3223 107.88 34.4433 107.92 34.5273C107.964 34.6113 108.028 34.6701 108.112 34.7037C108.196 34.734 108.302 34.7491 108.429 34.7491C108.52 34.7491 108.601 34.7458 108.671 34.739C108.745 34.7289 108.807 34.7189 108.858 34.7088L108.863 35.7774C108.738 35.8177 108.604 35.8496 108.46 35.8731C108.315 35.8967 108.155 35.9084 107.981 35.9084C107.661 35.9084 107.383 35.8563 107.144 35.7522C106.909 35.6446 106.727 35.4733 106.6 35.238C106.472 35.0028 106.408 34.6937 106.408 34.3106V29.008ZM112.68 34.3005C112.68 34.1963 112.65 34.1022 112.589 34.0182C112.529 33.9342 112.416 33.8569 112.252 33.7864C112.09 33.7124 111.857 33.6452 111.551 33.5848C111.275 33.5243 111.018 33.4487 110.78 33.3579C110.545 33.2638 110.34 33.1513 110.165 33.0202C109.994 32.8892 109.859 32.7346 109.762 32.5565C109.664 32.375 109.615 32.1684 109.615 31.9365C109.615 31.708 109.664 31.4929 109.762 31.2913C109.862 31.0897 110.005 30.9116 110.19 30.757C110.378 30.5991 110.607 30.4764 110.876 30.3891C111.148 30.2983 111.454 30.253 111.793 30.253C112.267 30.253 112.673 30.3286 113.013 30.4798C113.356 30.631 113.618 30.8394 113.799 31.1048C113.984 31.3669 114.076 31.666 114.076 32.002H112.625C112.625 31.8609 112.594 31.7349 112.534 31.624C112.477 31.5097 112.386 31.4207 112.262 31.3568C112.141 31.2896 111.983 31.256 111.788 31.256C111.627 31.256 111.487 31.2846 111.37 31.3417C111.252 31.3955 111.161 31.4694 111.097 31.5635C111.037 31.6542 111.007 31.755 111.007 31.8659C111.007 31.9499 111.023 32.0256 111.057 32.0928C111.094 32.1566 111.153 32.2154 111.233 32.2692C111.314 32.3229 111.418 32.3734 111.546 32.4204C111.677 32.4641 111.838 32.5044 112.03 32.5414C112.423 32.622 112.774 32.7279 113.083 32.8589C113.392 32.9866 113.638 33.1614 113.819 33.3831C114.001 33.6016 114.091 33.8889 114.091 34.2451C114.091 34.487 114.038 34.7088 113.93 34.9104C113.823 35.112 113.668 35.2884 113.466 35.4397C113.265 35.5875 113.023 35.7034 112.741 35.7875C112.462 35.8681 112.147 35.9084 111.798 35.9084C111.291 35.9084 110.86 35.8177 110.508 35.6362C110.158 35.4548 109.893 35.2246 109.711 34.9457C109.533 34.6634 109.444 34.3744 109.444 34.0787H110.82C110.827 34.277 110.877 34.4366 110.971 34.5576C111.069 34.6785 111.191 34.7659 111.339 34.8197C111.491 34.8734 111.654 34.9003 111.828 34.9003C112.016 34.9003 112.173 34.8751 112.297 34.8247C112.421 34.771 112.515 34.7004 112.579 34.613C112.646 34.5223 112.68 34.4181 112.68 34.3005Z" fill="#2A292F"/>
<path d="M32.3798 117.331C32.3798 117.199 32.3596 117.082 32.3193 116.978C32.2823 116.87 32.2118 116.773 32.1076 116.685C32.0034 116.595 31.8572 116.506 31.6691 116.418C31.4809 116.331 31.2373 116.24 30.9382 116.146C30.6055 116.038 30.2896 115.918 29.9906 115.783C29.6949 115.649 29.4328 115.492 29.2043 115.314C28.9791 115.133 28.801 114.923 28.67 114.684C28.5423 114.446 28.4784 114.168 28.4784 113.853C28.4784 113.547 28.5456 113.27 28.68 113.021C28.8145 112.769 29.0026 112.554 29.2446 112.376C29.4865 112.194 29.7722 112.055 30.1015 111.957C30.4341 111.86 30.7987 111.811 31.1953 111.811C31.7363 111.811 32.2084 111.909 32.6116 112.104C33.0149 112.298 33.3274 112.566 33.5492 112.905C33.7743 113.244 33.8869 113.632 33.8869 114.069H32.3848C32.3848 113.854 32.3395 113.666 32.2487 113.505C32.1614 113.34 32.0269 113.211 31.8455 113.117C31.6674 113.023 31.4422 112.976 31.1701 112.976C30.908 112.976 30.6895 113.016 30.5148 113.097C30.3401 113.174 30.209 113.28 30.1216 113.414C30.0343 113.545 29.9906 113.693 29.9906 113.858C29.9906 113.982 30.0208 114.095 30.0813 114.195C30.1452 114.296 30.2392 114.39 30.3636 114.478C30.4879 114.565 30.6408 114.647 30.8223 114.725C31.0037 114.802 31.2137 114.877 31.4523 114.951C31.8522 115.072 32.2034 115.208 32.5058 115.36C32.8116 115.511 33.067 115.681 33.2719 115.869C33.4769 116.057 33.6315 116.27 33.7357 116.509C33.8398 116.748 33.8919 117.018 33.8919 117.32C33.8919 117.64 33.8298 117.925 33.7054 118.177C33.5811 118.429 33.4013 118.643 33.1661 118.817C32.9309 118.992 32.6503 119.125 32.3243 119.216C31.9984 119.306 31.6338 119.352 31.2305 119.352C30.8676 119.352 30.5098 119.305 30.1569 119.211C29.8041 119.113 29.4832 118.967 29.1942 118.772C28.9085 118.577 28.68 118.329 28.5087 118.026C28.3373 117.724 28.2516 117.366 28.2516 116.953H29.7688C29.7688 117.181 29.8041 117.374 29.8746 117.532C29.9452 117.69 30.0443 117.818 30.172 117.915C30.3031 118.013 30.4577 118.083 30.6358 118.127C30.8172 118.171 31.0155 118.192 31.2305 118.192C31.4926 118.192 31.7077 118.156 31.8757 118.082C32.0471 118.008 32.1731 117.905 32.2538 117.774C32.3378 117.643 32.3798 117.495 32.3798 117.331ZM37.8807 118.021V115.592C37.8807 115.417 37.8521 115.267 37.795 115.143C37.7378 115.015 37.6488 114.916 37.5278 114.846C37.4102 114.775 37.2573 114.74 37.0691 114.74C36.9078 114.74 36.7684 114.768 36.6508 114.825C36.5332 114.879 36.4424 114.958 36.3786 115.062C36.3147 115.163 36.2828 115.282 36.2828 115.42H34.8311C34.8311 115.188 34.8849 114.968 34.9924 114.76C35.1 114.552 35.2562 114.368 35.4612 114.21C35.6662 114.049 35.9098 113.923 36.1921 113.832C36.4777 113.742 36.7969 113.696 37.1498 113.696C37.5732 113.696 37.9495 113.767 38.2789 113.908C38.6082 114.049 38.8669 114.261 39.0551 114.543C39.2466 114.825 39.3424 115.178 39.3424 115.602V117.935C39.3424 118.234 39.3609 118.48 39.3978 118.671C39.4348 118.859 39.4886 119.024 39.5591 119.165V119.251H38.0924C38.0218 119.103 37.968 118.918 37.9311 118.697C37.8975 118.471 37.8807 118.246 37.8807 118.021ZM38.0722 115.929L38.0823 116.751H37.2708C37.0792 116.751 36.9129 116.773 36.7717 116.816C36.6306 116.86 36.5147 116.922 36.4239 117.003C36.3332 117.08 36.266 117.171 36.2223 117.275C36.182 117.379 36.1618 117.494 36.1618 117.618C36.1618 117.742 36.1904 117.855 36.2475 117.956C36.3047 118.053 36.387 118.13 36.4945 118.187C36.602 118.241 36.7281 118.268 36.8726 118.268C37.091 118.268 37.2808 118.224 37.4421 118.137C37.6034 118.05 37.7278 117.942 37.8151 117.814C37.9059 117.687 37.9529 117.566 37.9563 117.452L38.3393 118.066C38.2856 118.204 38.2116 118.347 38.1176 118.495C38.0268 118.643 37.9109 118.782 37.7698 118.913C37.6286 119.041 37.4589 119.147 37.2607 119.231C37.0624 119.311 36.8272 119.352 36.555 119.352C36.2089 119.352 35.8947 119.283 35.6124 119.145C35.3335 119.004 35.1117 118.811 34.9471 118.565C34.7858 118.317 34.7051 118.035 34.7051 117.719C34.7051 117.433 34.7589 117.179 34.8664 116.958C34.974 116.736 35.1319 116.549 35.3402 116.398C35.5519 116.243 35.8157 116.128 36.1316 116.05C36.4475 115.97 36.8137 115.929 37.2304 115.929H38.0722ZM42.3432 118.192L43.5529 113.797H45.0701L43.2303 119.251H42.3129L42.3432 118.192ZM41.5115 113.797L42.7263 118.198L42.7515 119.251H41.829L39.9893 113.797H41.5115ZM48.2675 119.352C47.8441 119.352 47.4643 119.285 47.1283 119.15C46.7923 119.012 46.5066 118.823 46.2714 118.581C46.0396 118.339 45.8615 118.058 45.7371 117.739C45.6128 117.416 45.5506 117.073 45.5506 116.711V116.509C45.5506 116.096 45.6094 115.718 45.727 115.375C45.8447 115.032 46.0127 114.735 46.2311 114.483C46.4529 114.231 46.7217 114.037 47.0376 113.903C47.3534 113.765 47.7096 113.696 48.1062 113.696C48.4926 113.696 48.8354 113.76 49.1344 113.888C49.4335 114.016 49.6838 114.197 49.8855 114.432C50.0904 114.667 50.245 114.95 50.3492 115.279C50.4534 115.605 50.5054 115.968 50.5054 116.368V116.973H46.1706V116.005H49.079V115.894C49.079 115.692 49.042 115.513 48.9681 115.355C48.8975 115.193 48.79 115.066 48.6455 114.972C48.501 114.877 48.3162 114.83 48.091 114.83C47.8995 114.83 47.7348 114.872 47.5971 114.956C47.4593 115.04 47.3467 115.158 47.2594 115.309C47.1753 115.461 47.1115 115.639 47.0678 115.844C47.0275 116.045 47.0073 116.267 47.0073 116.509V116.711C47.0073 116.929 47.0376 117.131 47.0981 117.315C47.1619 117.5 47.251 117.66 47.3652 117.794C47.4828 117.929 47.624 118.033 47.7886 118.107C47.9566 118.181 48.1465 118.218 48.3582 118.218C48.6203 118.218 48.8639 118.167 49.0891 118.066C49.3176 117.962 49.5141 117.806 49.6788 117.598L50.3845 118.364C50.2702 118.529 50.114 118.686 49.9157 118.838C49.7208 118.989 49.4856 119.113 49.21 119.211C48.9345 119.305 48.6203 119.352 48.2675 119.352ZM56.7893 113.797V114.825H53.6138V113.797H56.7893ZM54.4001 112.451H55.8517V117.608C55.8517 117.766 55.8719 117.887 55.9122 117.971C55.9559 118.055 56.0198 118.114 56.1038 118.147C56.1878 118.177 56.2936 118.192 56.4213 118.192C56.512 118.192 56.5927 118.189 56.6633 118.182C56.7372 118.172 56.7994 118.162 56.8498 118.152L56.8548 119.221C56.7305 119.261 56.5961 119.293 56.4516 119.317C56.3071 119.34 56.1474 119.352 55.9727 119.352C55.6535 119.352 55.3746 119.3 55.136 119.196C54.9008 119.088 54.7193 118.917 54.5916 118.681C54.4639 118.446 54.4001 118.137 54.4001 117.754V112.451ZM57.3605 116.58V116.474C57.3605 116.074 57.4177 115.706 57.5319 115.37C57.6462 115.03 57.8125 114.736 58.0309 114.488C58.2493 114.239 58.5182 114.046 58.8374 113.908C59.1566 113.767 59.5229 113.696 59.9362 113.696C60.3496 113.696 60.7175 113.767 61.0401 113.908C61.3627 114.046 61.6332 114.239 61.8516 114.488C62.0734 114.736 62.2414 115.03 62.3557 115.37C62.4699 115.706 62.527 116.074 62.527 116.474V116.58C62.527 116.976 62.4699 117.344 62.3557 117.683C62.2414 118.019 62.0734 118.313 61.8516 118.565C61.6332 118.814 61.3644 119.007 61.0451 119.145C60.7259 119.283 60.3596 119.352 59.9463 119.352C59.533 119.352 59.165 119.283 58.8424 119.145C58.5232 119.007 58.2527 118.814 58.0309 118.565C57.8125 118.313 57.6462 118.019 57.5319 117.683C57.4177 117.344 57.3605 116.976 57.3605 116.58ZM58.8122 116.474V116.58C58.8122 116.808 58.8324 117.021 58.8727 117.22C58.913 117.418 58.9769 117.593 59.0642 117.744C59.155 117.892 59.2726 118.008 59.4171 118.092C59.5616 118.176 59.738 118.218 59.9463 118.218C60.1479 118.218 60.321 118.176 60.4655 118.092C60.61 118.008 60.7259 117.892 60.8133 117.744C60.9006 117.593 60.9645 117.418 61.0048 117.22C61.0485 117.021 61.0703 116.808 61.0703 116.58V116.474C61.0703 116.252 61.0485 116.044 61.0048 115.849C60.9645 115.65 60.899 115.476 60.8082 115.324C60.7209 115.17 60.6049 115.049 60.4604 114.962C60.3159 114.874 60.1412 114.83 59.9362 114.83C59.7312 114.83 59.5565 114.874 59.412 114.962C59.2709 115.049 59.155 115.17 59.0642 115.324C58.9769 115.476 58.913 115.65 58.8727 115.849C58.8324 116.044 58.8122 116.252 58.8122 116.474ZM68.458 118.218C68.6361 118.218 68.7941 118.184 68.9319 118.117C69.0696 118.046 69.1772 117.949 69.2544 117.825C69.3351 117.697 69.3771 117.547 69.3805 117.376H70.7464C70.7431 117.759 70.6406 118.1 70.439 118.399C70.2373 118.695 69.9668 118.928 69.6274 119.1C69.2881 119.268 68.9083 119.352 68.4883 119.352C68.0649 119.352 67.6953 119.281 67.3794 119.14C67.0669 118.999 66.8064 118.804 66.5981 118.555C66.3898 118.303 66.2335 118.011 66.1293 117.678C66.0252 117.342 65.9731 116.983 65.9731 116.6V116.453C65.9731 116.067 66.0252 115.708 66.1293 115.375C66.2335 115.039 66.3898 114.746 66.5981 114.498C66.8064 114.246 67.0669 114.049 67.3794 113.908C67.6919 113.767 68.0582 113.696 68.4782 113.696C68.9251 113.696 69.3166 113.782 69.6526 113.953C69.992 114.125 70.2575 114.37 70.449 114.689C70.6439 115.005 70.7431 115.38 70.7464 115.813H69.3805C69.3771 115.632 69.3385 115.467 69.2645 115.319C69.194 115.172 69.0898 115.054 68.952 114.967C68.8176 114.876 68.6513 114.83 68.453 114.83C68.2413 114.83 68.0682 114.876 67.9338 114.967C67.7994 115.054 67.6953 115.175 67.6213 115.329C67.5474 115.481 67.4953 115.654 67.4651 115.849C67.4382 116.04 67.4247 116.242 67.4247 116.453V116.6C67.4247 116.811 67.4382 117.015 67.4651 117.21C67.4919 117.404 67.5424 117.578 67.6163 117.729C67.6936 117.88 67.7994 117.999 67.9338 118.087C68.0682 118.174 68.243 118.218 68.458 118.218ZM73.228 111.509V119.251H71.7713V111.509H73.228ZM74.3034 116.58V116.474C74.3034 116.074 74.3605 115.706 74.4747 115.37C74.589 115.03 74.7553 114.736 74.9737 114.488C75.1922 114.239 75.461 114.046 75.7802 113.908C76.0995 113.767 76.4657 113.696 76.8791 113.696C77.2924 113.696 77.6603 113.767 77.9829 113.908C78.3055 114.046 78.576 114.239 78.7944 114.488C79.0162 114.736 79.1842 115.03 79.2985 115.37C79.4127 115.706 79.4699 116.074 79.4699 116.474V116.58C79.4699 116.976 79.4127 117.344 79.2985 117.683C79.1842 118.019 79.0162 118.313 78.7944 118.565C78.576 118.814 78.3072 119.007 77.988 119.145C77.6687 119.283 77.3025 119.352 76.8891 119.352C76.4758 119.352 76.1079 119.283 75.7853 119.145C75.466 119.007 75.1955 118.814 74.9737 118.565C74.7553 118.313 74.589 118.019 74.4747 117.683C74.3605 117.344 74.3034 116.976 74.3034 116.58ZM75.755 116.474V116.58C75.755 116.808 75.7752 117.021 75.8155 117.22C75.8558 117.418 75.9197 117.593 76.007 117.744C76.0978 117.892 76.2154 118.008 76.3599 118.092C76.5044 118.176 76.6808 118.218 76.8891 118.218C77.0908 118.218 77.2638 118.176 77.4083 118.092C77.5528 118.008 77.6687 117.892 77.7561 117.744C77.8435 117.593 77.9073 117.418 77.9476 117.22C77.9913 117.021 78.0132 116.808 78.0132 116.58V116.474C78.0132 116.252 77.9913 116.044 77.9476 115.849C77.9073 115.65 77.8418 115.476 77.7511 115.324C77.6637 115.17 77.5478 115.049 77.4033 114.962C77.2588 114.874 77.084 114.83 76.8791 114.83C76.6741 114.83 76.4993 114.874 76.3548 114.962C76.2137 115.049 76.0978 115.17 76.007 115.324C75.9197 115.476 75.8558 115.65 75.8155 115.849C75.7752 116.044 75.755 116.252 75.755 116.474ZM83.6955 117.945V113.797H85.1472V119.251H83.7812L83.6955 117.945ZM83.8568 116.826L84.2852 116.816C84.2852 117.179 84.2432 117.517 84.1592 117.83C84.0752 118.139 83.9492 118.408 83.7812 118.636C83.6132 118.861 83.4015 119.038 83.1461 119.165C82.8907 119.29 82.5899 119.352 82.2438 119.352C81.9784 119.352 81.7331 119.315 81.5079 119.241C81.2861 119.164 81.0946 119.044 80.9333 118.883C80.7754 118.718 80.651 118.508 80.5603 118.253C80.4729 117.994 80.4292 117.683 80.4292 117.32V113.797H81.8809V117.331C81.8809 117.492 81.8994 117.628 81.9364 117.739C81.9767 117.85 82.0321 117.94 82.1027 118.011C82.1733 118.082 82.2556 118.132 82.3497 118.162C82.4471 118.192 82.5547 118.208 82.6723 118.208C82.9713 118.208 83.2066 118.147 83.3779 118.026C83.5527 117.905 83.6753 117.741 83.7459 117.532C83.8198 117.32 83.8568 117.085 83.8568 116.826ZM89.5845 118.061V111.509H91.0462V119.251H89.7307L89.5845 118.061ZM86.1368 116.59V116.484C86.1368 116.067 86.1838 115.689 86.2779 115.35C86.372 115.007 86.5098 114.713 86.6912 114.468C86.8727 114.222 87.0962 114.032 87.3616 113.898C87.6271 113.764 87.9295 113.696 88.2689 113.696C88.5882 113.696 88.8671 113.764 89.1056 113.898C89.3476 114.032 89.5526 114.224 89.7206 114.473C89.892 114.718 90.0297 115.009 90.1339 115.345C90.2381 115.677 90.3137 116.042 90.3607 116.438V116.67C90.3137 117.05 90.2381 117.403 90.1339 117.729C90.0297 118.055 89.892 118.34 89.7206 118.586C89.5526 118.828 89.3476 119.016 89.1056 119.15C88.8637 119.285 88.5814 119.352 88.2588 119.352C87.9194 119.352 87.617 119.283 87.3515 119.145C87.0894 119.007 86.8677 118.814 86.6862 118.565C86.5081 118.317 86.372 118.024 86.2779 117.688C86.1838 117.352 86.1368 116.986 86.1368 116.59ZM87.5885 116.484V116.59C87.5885 116.815 87.6053 117.025 87.6389 117.22C87.6758 117.415 87.7346 117.588 87.8153 117.739C87.8993 117.887 88.0068 118.003 88.1379 118.087C88.2723 118.167 88.4353 118.208 88.6268 118.208C88.8755 118.208 89.0804 118.152 89.2417 118.041C89.403 117.927 89.5257 117.771 89.6097 117.572C89.6971 117.374 89.7475 117.146 89.7609 116.887V116.227C89.7508 116.015 89.7206 115.825 89.6702 115.657C89.6231 115.486 89.5526 115.34 89.4585 115.219C89.3678 115.098 89.2535 115.004 89.1157 114.936C88.9813 114.869 88.8217 114.835 88.6369 114.835C88.4487 114.835 88.2874 114.879 88.153 114.967C88.0186 115.051 87.9094 115.166 87.8254 115.314C87.7447 115.462 87.6842 115.637 87.6439 115.839C87.6069 116.037 87.5885 116.252 87.5885 116.484Z" fill="#2A292F"/>
<path d="M67.4751 44.7324H31.3448C29.4444 44.7324 27.9038 46.273 27.9038 48.1734V84.3038C27.9038 86.2042 29.4444 87.7447 31.3448 87.7447H67.4751C69.3756 87.7447 70.9161 86.2042 70.9161 84.3038V48.1734C70.9161 46.273 69.3756 44.7324 67.4751 44.7324Z" fill="white"/>
<path d="M67.0447 46.0234H31.7746C30.3493 46.0234 29.1938 47.1789 29.1938 48.6042V83.8743C29.1938 85.2996 30.3493 86.455 31.7746 86.455H67.0447C68.47 86.455 69.6254 85.2996 69.6254 83.8743V48.6042C69.6254 47.1789 68.47 46.0234 67.0447 46.0234Z" fill="white"/>
<path d="M40.1844 77.6767L37.7969 75.2939H40.1844V77.6767Z" fill="#A3313A"/>
<path d="M58.292 77.6767L60.6795 75.2939H58.292V77.6767Z" fill="#A3313A"/>
<path d="M58.0156 78.3575H58.0154L58.0158 78.3693C58.0174 78.4208 58.0086 78.4721 57.9898 78.5204C57.971 78.5687 57.9425 78.613 57.9058 78.6507C57.8691 78.6884 57.8248 78.7187 57.7756 78.7395C57.7267 78.7603 57.6739 78.7712 57.6204 78.7716H40.8548C40.7486 78.7707 40.6478 78.7283 40.5741 78.655C40.5003 78.5816 40.4596 78.4831 40.4596 78.3814V54.0932C40.4596 53.9923 40.5001 53.8946 40.5735 53.822C40.6471 53.7492 40.7478 53.7076 40.8536 53.7076H54.4799L56.1839 55.4115L56.184 55.4116L58.0156 57.2437V78.3575Z" fill="white" stroke="#D8D8D8" stroke-width="0.743396"/>
<path d="M38.2768 66.5508H60.1985C60.3249 66.5508 60.4461 66.601 60.5354 66.6904C60.6248 66.7797 60.675 66.9009 60.675 67.0273V75.1288H37.8003V67.0273C37.8003 66.9009 37.8505 66.7797 37.9399 66.6904C38.0292 66.601 38.1505 66.5508 38.2768 66.5508Z" fill="#FF2116"/>
<path d="M45.269 71.5439V72.9116H44.3159V69.0134H45.8409C46.2255 68.9864 46.6053 69.1113 46.8989 69.3613C47.0255 69.484 47.124 69.6328 47.1873 69.7974C47.2507 69.962 47.2775 70.1384 47.2658 70.3144C47.2683 70.5392 47.2125 70.7609 47.1038 70.9577C46.9921 71.1504 46.8265 71.3062 46.6272 71.4057C46.385 71.5212 46.1186 71.5768 45.8504 71.5677L45.269 71.5439ZM46.3175 70.2906C46.3175 69.9474 46.1268 69.7759 45.7456 69.7759H45.269V70.7909H45.7456C46.1268 70.7909 46.3175 70.6241 46.3175 70.2906ZM50.9972 71.9585C50.8343 72.2525 50.5892 72.4926 50.2919 72.6495C49.9578 72.8216 49.5858 72.9068 49.2102 72.8973H47.7376V69.0134H49.2102C49.5853 69.0035 49.9571 69.087 50.2919 69.2564C50.59 69.41 50.8356 69.6489 50.9972 69.9427C51.1645 70.2544 51.2483 70.6041 51.2403 70.9577C51.2445 71.3064 51.161 71.6506 50.9972 71.9585ZM49.9822 71.7631C50.1794 71.5346 50.2879 71.2429 50.2879 70.9411C50.2879 70.6392 50.1794 70.3475 49.9822 70.119C49.7457 69.913 49.4374 69.8085 49.1244 69.8283H48.6812V72.0538H49.1244C49.4355 72.0776 49.7435 71.9783 49.9822 71.7774V71.7631ZM54.3188 69.0134V69.7663H52.7176V70.6194H53.9519V71.3342H52.7176V72.9116H51.7645V69.0134H54.3188Z" fill="white"/>
<path d="M44.5102 64.9585C43.9635 64.4095 44.5548 63.6587 46.1642 62.8587L47.1754 62.3566L47.5695 61.4932C47.7877 61.024 48.1115 60.2451 48.2898 59.7735L48.6136 58.9148L48.3907 58.279C48.1138 57.5001 48.0176 56.3271 48.1912 55.9048C48.4259 55.3346 49.2024 55.3933 49.5098 56.0056C49.7444 56.4749 49.7256 57.35 49.4417 58.4409L49.2071 59.3371L49.4136 59.6844C49.6392 60.0344 49.8835 60.3719 50.1456 60.6955L50.6899 61.3736L51.3679 61.2844C53.524 61.0029 54.2607 61.4815 54.2607 62.1666C54.2607 63.0323 52.5691 63.105 51.1497 62.1056C50.9577 61.9714 50.7772 61.8215 50.6101 61.6575C50.6101 61.6575 49.7186 61.8381 49.2822 61.9578C48.8458 62.0774 48.6042 62.1548 47.9402 62.3777C47.9402 62.3777 47.7056 62.7156 47.5578 62.9619C46.9947 63.8746 46.3355 64.6324 45.8662 64.9068C45.3407 65.2142 44.787 65.2423 44.5102 64.9585ZM45.3712 64.6511C45.6785 64.4611 46.3096 63.7244 46.732 63.0393L46.9079 62.7625L46.1126 63.1637C44.8832 63.7807 44.3225 64.3625 44.6134 64.7145C44.7776 64.9115 44.9747 64.8951 45.3712 64.6511ZM53.348 62.4106C53.4145 62.3623 53.4671 62.2975 53.5006 62.2225C53.5341 62.1476 53.5474 62.0651 53.5391 61.9834C53.5308 61.9017 53.5012 61.8236 53.4533 61.757C53.4053 61.6903 53.3407 61.6374 53.2659 61.6035C53.0008 61.4698 52.7967 61.444 52.0929 61.4533C51.6682 61.4815 50.9878 61.5683 50.8729 61.5941C50.8729 61.5941 51.2482 61.8522 51.4125 61.946C51.7812 62.1358 52.1659 62.2928 52.5621 62.4153C52.9492 62.5326 53.1721 62.5208 53.341 62.3988L53.348 62.4106ZM50.1409 61.078C49.89 60.7984 49.6595 60.5013 49.4511 60.1888C49.3094 60.0065 49.1809 59.8144 49.0664 59.614C49.0664 59.614 48.8787 60.2193 48.7238 60.5829L48.2429 61.7701L48.1044 62.0399C48.1044 62.0399 48.8458 61.8053 49.2212 61.6997C49.5966 61.5941 50.4318 61.4346 50.4318 61.4346L50.1409 61.078ZM49.1109 56.9324C49.1579 56.5406 49.179 56.1511 49.0523 55.9564C48.705 55.5763 48.2851 55.893 48.3484 56.7963C48.3805 57.1833 48.4481 57.5665 48.5502 57.9412L48.7332 58.523L48.8622 58.0843C48.9601 57.7046 49.0384 57.3201 49.0969 56.9324H49.1109Z" fill="#FF2116"/>
<path d="M58.3891 57.0897H55.4955C55.0204 57.0897 54.6353 56.7046 54.6353 56.2295V53.3359L58.3891 57.0897Z" fill="#B2B2B2"/>
<path d="M125.972 44.7324H89.8414C87.941 44.7324 86.4004 46.273 86.4004 48.1734V84.3038C86.4004 86.2042 87.941 87.7447 89.8414 87.7447H125.972C127.872 87.7447 129.413 86.2042 129.413 84.3038V48.1734C129.413 46.273 127.872 44.7324 125.972 44.7324Z" fill="white"/>
<path d="M125.542 46.0234H90.2717C88.8464 46.0234 87.6909 47.1789 87.6909 48.6042V83.8743C87.6909 85.2996 88.8463 86.455 90.2717 86.455H125.542C126.967 86.455 128.123 85.2996 128.123 83.8743V48.6042C128.123 47.1789 126.967 46.0234 125.542 46.0234Z" fill="white"/>
<g clip-path="url(#clip0_5667_41859)">
<path d="M98.7668 53.3359C98.5646 53.3426 98.3731 53.4231 98.2326 53.5603C98.0921 53.6975 98.0137 53.8808 98.0138 54.0715V78.4078C98.012 78.5027 98.03 78.597 98.0669 78.6854C98.1038 78.7737 98.1587 78.8543 98.2286 78.9226C98.2985 78.9909 98.3821 79.0455 98.4744 79.0834C98.5667 79.1213 98.6661 79.1417 98.7668 79.1433H117.275C117.375 79.1417 117.473 79.1212 117.565 79.0832C117.657 79.0452 117.739 78.9903 117.808 78.9218C117.877 78.8533 117.931 78.7726 117.966 78.6844C118.001 78.5961 118.018 78.5021 118.014 78.4078V59.1426L112.208 53.3359H98.7668Z" fill="#5B4DBE"/>
<g clip-path="url(#clip1_5667_41859)">
<path d="M110.272 58.1738H105.756C105.499 58.1738 105.253 58.2758 105.072 58.4573C104.89 58.6388 104.788 58.8849 104.788 59.1416V63.6579C104.788 63.9146 104.89 64.1607 105.072 64.3422C105.253 64.5237 105.499 64.6257 105.756 64.6257H110.272C110.325 64.6249 110.378 64.6195 110.43 64.6095L110.527 64.587H110.55H110.566L110.685 64.5418L110.727 64.5192C110.759 64.4999 110.795 64.4837 110.827 64.4612C110.87 64.4295 110.911 64.395 110.95 64.3579L110.972 64.3289C111.004 64.2968 111.033 64.2623 111.059 64.2257L111.088 64.1837C111.111 64.1478 111.13 64.11 111.146 64.0708C111.155 64.0553 111.163 64.0392 111.169 64.0224C111.185 63.9837 111.195 63.9418 111.208 63.8998V63.8515C111.226 63.7884 111.237 63.7235 111.24 63.6579V59.1416C111.24 58.8849 111.138 58.6388 110.956 58.4573C110.775 58.2758 110.529 58.1738 110.272 58.1738ZM105.756 63.9805C105.67 63.9805 105.588 63.9465 105.528 63.886C105.467 63.8255 105.433 63.7435 105.433 63.6579V62.2675L106.495 61.203C106.525 61.1727 106.56 61.1487 106.6 61.1324C106.639 61.116 106.681 61.1075 106.724 61.1075C106.766 61.1075 106.808 61.116 106.848 61.1324C106.887 61.1487 106.923 61.1727 106.953 61.203L109.727 63.9805H105.756ZM110.595 63.6579C110.594 63.6977 110.587 63.737 110.572 63.774C110.565 63.7898 110.556 63.8049 110.546 63.8192C110.538 63.8329 110.528 63.8458 110.517 63.8579L108.791 62.132L109.075 61.8482C109.105 61.8179 109.141 61.7939 109.18 61.7775C109.22 61.7612 109.262 61.7527 109.304 61.7527C109.347 61.7527 109.389 61.7612 109.428 61.7775C109.468 61.7939 109.503 61.8179 109.533 61.8482L110.595 62.9127V63.6579ZM110.595 61.9998L109.988 61.3998C109.804 61.2246 109.559 61.1269 109.304 61.1269C109.05 61.1269 108.805 61.2246 108.62 61.3998L108.337 61.6836L107.408 60.7546C107.223 60.5794 106.978 60.4817 106.724 60.4817C106.469 60.4817 106.224 60.5794 106.04 60.7546L105.433 61.3546V59.1416C105.433 59.056 105.467 58.974 105.528 58.9135C105.588 58.853 105.67 58.819 105.756 58.819H110.272C110.358 58.819 110.44 58.853 110.5 58.9135C110.561 58.974 110.595 59.056 110.595 59.1416V61.9998ZM108.498 59.4642C108.402 59.4642 108.309 59.4926 108.229 59.5457C108.149 59.5989 108.087 59.6745 108.051 59.7629C108.014 59.8513 108.005 59.9486 108.023 60.0425C108.042 60.1364 108.088 60.2226 108.156 60.2902C108.223 60.3579 108.31 60.404 108.403 60.4227C108.497 60.4413 108.595 60.4318 108.683 60.3951C108.771 60.3585 108.847 60.2965 108.9 60.2169C108.953 60.1373 108.982 60.0438 108.982 59.9481C108.982 59.8198 108.931 59.6967 108.84 59.6059C108.749 59.5152 108.626 59.4642 108.498 59.4642Z" fill="white"/>
</g>
<path d="M103.368 72.8067C103.368 72.6838 103.41 72.581 103.495 72.4985C103.581 72.4159 103.695 72.3746 103.837 72.3746C103.98 72.3746 104.093 72.4159 104.177 72.4985C104.264 72.581 104.307 72.6838 104.307 72.8067C104.307 72.9296 104.264 73.0323 104.177 73.1149C104.093 73.1974 103.98 73.2387 103.837 73.2387C103.695 73.2387 103.581 73.1974 103.495 73.1149C103.41 73.0323 103.368 72.9296 103.368 72.8067ZM105.085 70.0906H105.917V73.3943C105.917 73.6247 105.875 73.8196 105.79 73.9789C105.706 74.1383 105.584 74.2593 105.424 74.3419C105.265 74.4244 105.072 74.4657 104.846 74.4657C104.774 74.4657 104.705 74.4619 104.638 74.4542C104.569 74.4465 104.498 74.434 104.425 74.4168L104.428 73.7802C104.474 73.7879 104.519 73.7937 104.563 73.7975C104.606 73.8033 104.649 73.8061 104.693 73.8061C104.779 73.8061 104.851 73.7917 104.909 73.7629C104.967 73.7341 105.01 73.689 105.039 73.6276C105.069 73.568 105.085 73.4903 105.085 73.3943V70.0906ZM105.018 69.2783C105.018 69.1573 105.061 69.0575 105.145 68.9788C105.231 68.9 105.345 68.8607 105.485 68.8607C105.627 68.8607 105.74 68.9 105.825 68.9788C105.909 69.0575 105.952 69.1573 105.952 69.2783C105.952 69.3993 105.909 69.4991 105.825 69.5779C105.74 69.6566 105.627 69.696 105.485 69.696C105.345 69.696 105.231 69.6566 105.145 69.5779C105.061 69.4991 105.018 69.3993 105.018 69.2783ZM107.406 70.6897V74.4052H106.577V70.0906H107.346L107.406 70.6897ZM109.379 71.6142V71.6747C109.379 71.9013 109.352 72.1116 109.298 72.3055C109.247 72.4994 109.17 72.6684 109.068 72.8124C108.966 72.9545 108.84 73.0659 108.688 73.1465C108.538 73.2253 108.365 73.2646 108.169 73.2646C107.979 73.2646 107.814 73.2262 107.674 73.1494C107.534 73.0726 107.416 72.9651 107.32 72.8268C107.226 72.6867 107.15 72.5244 107.092 72.3401C107.035 72.1557 106.99 71.9579 106.96 71.7467V71.5883C106.99 71.3617 107.035 71.1543 107.092 70.9662C107.15 70.7761 107.226 70.6119 107.32 70.4736C107.416 70.3335 107.533 70.225 107.671 70.1482C107.811 70.0714 107.975 70.033 108.164 70.033C108.361 70.033 108.535 70.0704 108.685 70.1453C108.837 70.2202 108.963 70.3277 109.065 70.4679C109.169 70.608 109.247 70.7751 109.298 70.969C109.352 71.163 109.379 71.378 109.379 71.6142ZM108.547 71.6747V71.6142C108.547 71.4817 108.535 71.3598 108.512 71.2484C108.491 71.1351 108.456 71.0363 108.408 70.9518C108.362 70.8673 108.301 70.802 108.224 70.7559C108.149 70.7079 108.058 70.6839 107.95 70.6839C107.837 70.6839 107.74 70.7021 107.66 70.7386C107.581 70.7751 107.517 70.8279 107.467 70.897C107.417 70.9662 107.379 71.0487 107.354 71.1447C107.329 71.2408 107.314 71.3492 107.308 71.4702V71.8706C107.318 72.0127 107.345 72.1404 107.389 72.2537C107.433 72.365 107.501 72.4534 107.593 72.5186C107.686 72.5839 107.806 72.6166 107.956 72.6166C108.066 72.6166 108.158 72.5926 108.233 72.5446C108.308 72.4946 108.368 72.4265 108.414 72.3401C108.462 72.2537 108.496 72.1538 108.515 72.0405C108.536 71.9272 108.547 71.8053 108.547 71.6747ZM111.868 70.0906H112.619V73.1033C112.619 73.3875 112.556 73.6285 112.429 73.8263C112.305 74.026 112.13 74.1767 111.905 74.2785C111.68 74.3822 111.419 74.434 111.122 74.434C110.991 74.434 110.853 74.4168 110.707 74.3822C110.563 74.3476 110.425 74.2939 110.292 74.2209C110.162 74.1479 110.052 74.0558 109.964 73.9444L110.33 73.4547C110.426 73.5661 110.537 73.6525 110.664 73.714C110.79 73.7773 110.931 73.809 111.084 73.809C111.234 73.809 111.361 73.7812 111.464 73.7255C111.568 73.6717 111.648 73.592 111.704 73.4864C111.759 73.3827 111.787 73.257 111.787 73.1091V70.8106L111.868 70.0906ZM109.771 71.6862V71.6258C109.771 71.3876 109.8 71.1716 109.857 70.9777C109.917 70.7818 110 70.6138 110.108 70.4736C110.217 70.3335 110.35 70.225 110.505 70.1482C110.661 70.0714 110.837 70.033 111.032 70.033C111.24 70.033 111.414 70.0714 111.554 70.1482C111.694 70.225 111.809 70.3344 111.899 70.4765C111.99 70.6167 112.06 70.7828 112.11 70.9748C112.161 71.1649 112.202 71.3732 112.231 71.5998V71.7323C112.202 71.9493 112.159 72.1509 112.101 72.3372C112.043 72.5234 111.968 72.6867 111.873 72.8268C111.779 72.9651 111.662 73.0726 111.522 73.1494C111.384 73.2262 111.219 73.2646 111.027 73.2646C110.835 73.2646 110.661 73.2253 110.505 73.1465C110.352 73.0678 110.22 72.9574 110.111 72.8153C110.001 72.6732 109.917 72.5062 109.857 72.3141C109.8 72.1221 109.771 71.9128 109.771 71.6862ZM110.6 71.6258V71.6862C110.6 71.8149 110.613 71.9349 110.638 72.0463C110.663 72.1576 110.701 72.2565 110.753 72.3429C110.807 72.4274 110.873 72.4937 110.952 72.5417C111.032 72.5878 111.127 72.6108 111.237 72.6108C111.389 72.6108 111.512 72.5791 111.608 72.5158C111.704 72.4505 111.776 72.3612 111.824 72.2479C111.872 72.1346 111.9 72.004 111.908 71.8562V71.4789C111.904 71.3579 111.888 71.2494 111.859 71.1534C111.83 71.0555 111.79 70.9719 111.738 70.9028C111.686 70.8337 111.619 70.7799 111.536 70.7415C111.454 70.7031 111.356 70.6839 111.243 70.6839C111.133 70.6839 111.038 70.7089 110.958 70.7588C110.879 70.8068 110.813 70.873 110.759 70.9575C110.707 71.042 110.668 71.1419 110.641 71.2571C110.614 71.3704 110.6 71.4933 110.6 71.6258Z" fill="white"/>
<path d="M112.208 53.3359V58.5223C112.208 58.6868 112.252 58.8446 112.374 58.9609C112.496 59.0773 112.662 59.1426 112.835 59.1426H118.014L112.208 53.3359Z" fill="#352C79"/>
</g>
<path d="M184.469 44.7324H148.338C146.438 44.7324 144.897 46.273 144.897 48.1734V84.3038C144.897 86.2042 146.438 87.7447 148.338 87.7447H184.469C186.369 87.7447 187.91 86.2042 187.91 84.3038V48.1734C187.91 46.273 186.369 44.7324 184.469 44.7324Z" fill="white"/>
<path d="M184.038 46.0234H148.768C147.343 46.0234 146.188 47.1789 146.188 48.6042V83.8743C146.188 85.2996 147.343 86.455 148.768 86.455H184.038C185.464 86.455 186.619 85.2996 186.619 83.8743V48.6042C186.619 47.1789 185.464 46.0234 184.038 46.0234Z" fill="white"/>
<g clip-path="url(#clip2_5667_41859)">
<path d="M157.263 53.3359C157.061 53.3426 156.87 53.4231 156.729 53.5603C156.589 53.6975 156.51 53.8808 156.51 54.0715V78.4078C156.509 78.5027 156.527 78.597 156.563 78.6854C156.6 78.7737 156.655 78.8543 156.725 78.9226C156.795 78.9909 156.879 79.0455 156.971 79.0834C157.063 79.1213 157.163 79.1417 157.263 79.1433H175.771C175.871 79.1417 175.97 79.1212 176.062 79.0832C176.153 79.0452 176.236 78.9903 176.305 78.9218C176.373 78.8533 176.427 78.7726 176.462 78.6844C176.498 78.5961 176.514 78.5021 176.51 78.4078V59.1426L170.704 53.3359H157.263Z" fill="#1D7A29"/>
<path d="M160.554 72.7691C160.554 72.6347 160.6 72.5224 160.693 72.4321C160.787 72.3417 160.912 72.2966 161.068 72.2966C161.223 72.2966 161.347 72.3417 161.439 72.4321C161.534 72.5224 161.581 72.6347 161.581 72.7691C161.581 72.9036 161.534 73.0159 161.439 73.1062C161.347 73.1965 161.223 73.2417 161.068 73.2417C160.912 73.2417 160.787 73.1965 160.693 73.1062C160.6 73.0159 160.554 72.9036 160.554 72.7691ZM163.289 70.4537V74.5176H162.381V69.7984H163.222L163.289 70.4537ZM165.447 71.4649V71.5311C165.447 71.7789 165.417 72.0089 165.358 72.221C165.302 72.4331 165.218 72.6179 165.106 72.7754C164.995 72.9309 164.856 73.0527 164.69 73.1409C164.527 73.227 164.338 73.27 164.123 73.27C163.915 73.27 163.735 73.228 163.582 73.144C163.428 73.06 163.299 72.9424 163.194 72.7912C163.091 72.6379 163.008 72.4604 162.945 72.2588C162.882 72.0572 162.834 71.8408 162.8 71.6098V71.4366C162.834 71.1887 162.882 70.9619 162.945 70.7561C163.008 70.5482 163.091 70.3686 163.194 70.2174C163.299 70.0641 163.427 69.9454 163.578 69.8614C163.732 69.7774 163.911 69.7354 164.117 69.7354C164.333 69.7354 164.523 69.7763 164.687 69.8582C164.853 69.9402 164.992 70.0578 165.103 70.2111C165.217 70.3644 165.302 70.5471 165.358 70.7592C165.417 70.9714 165.447 71.2066 165.447 71.4649ZM164.536 71.5311V71.4649C164.536 71.32 164.523 71.1866 164.498 71.0648C164.475 70.9409 164.437 70.8327 164.385 70.7403C164.334 70.6479 164.267 70.5765 164.183 70.5261C164.101 70.4736 164.002 70.4474 163.884 70.4474C163.76 70.4474 163.654 70.4673 163.566 70.5072C163.48 70.5471 163.409 70.6049 163.355 70.6805C163.3 70.7561 163.259 70.8464 163.232 70.9514C163.205 71.0564 163.188 71.1751 163.181 71.3074V71.7453C163.192 71.9007 163.221 72.0404 163.27 72.1643C163.318 72.2861 163.393 72.3827 163.493 72.4541C163.594 72.5255 163.726 72.5612 163.89 72.5612C164.01 72.5612 164.111 72.535 164.193 72.4825C164.275 72.4279 164.341 72.3533 164.391 72.2588C164.444 72.1643 164.48 72.0551 164.501 71.9312C164.525 71.8072 164.536 71.6739 164.536 71.5311ZM166.899 70.5261V73.207H165.992V69.7984H166.842L166.899 70.5261ZM166.767 71.383H166.521C166.521 71.131 166.553 70.9041 166.618 70.7025C166.684 70.4988 166.775 70.3255 166.893 70.1827C167.01 70.0378 167.15 69.9276 167.312 69.8519C167.475 69.7742 167.658 69.7354 167.86 69.7354C168.019 69.7354 168.165 69.7585 168.298 69.8047C168.43 69.8509 168.543 69.9244 168.638 70.0252C168.734 70.126 168.808 70.2594 168.858 70.4253C168.911 70.5912 168.937 70.7939 168.937 71.0333V73.207H168.023V71.0302C168.023 70.8789 168.002 70.7613 167.96 70.6773C167.918 70.5933 167.857 70.5345 167.775 70.5009C167.695 70.4652 167.596 70.4474 167.478 70.4474C167.357 70.4474 167.251 70.4715 167.16 70.5198C167.072 70.5681 166.999 70.6353 166.94 70.7214C166.883 70.8054 166.84 70.9041 166.811 71.0176C166.781 71.131 166.767 71.2528 166.767 71.383ZM171.785 69.7984H172.607V73.0936C172.607 73.4045 172.538 73.668 172.399 73.8843C172.263 74.1028 172.072 74.2676 171.826 74.3789C171.58 74.4924 171.295 74.5491 170.969 74.5491C170.826 74.5491 170.675 74.5302 170.515 74.4924C170.358 74.4546 170.207 74.3958 170.062 74.3159C169.919 74.2361 169.799 74.1353 169.703 74.0135L170.103 73.478C170.208 73.5998 170.33 73.6943 170.468 73.7615C170.607 73.8308 170.76 73.8654 170.928 73.8654C171.092 73.8654 171.231 73.835 171.344 73.7741C171.457 73.7153 171.544 73.6281 171.605 73.5126C171.666 73.3992 171.697 73.2616 171.697 73.0999V70.586L171.785 69.7984ZM169.492 71.5437V71.4775C169.492 71.2171 169.523 70.9808 169.586 70.7687C169.651 70.5545 169.743 70.3707 169.86 70.2174C169.98 70.0641 170.125 69.9454 170.295 69.8614C170.465 69.7774 170.657 69.7354 170.871 69.7354C171.098 69.7354 171.288 69.7774 171.442 69.8614C171.595 69.9454 171.721 70.0651 171.82 70.2205C171.918 70.3738 171.995 70.5555 172.05 70.7655C172.106 70.9735 172.15 71.2013 172.182 71.4492V71.5941C172.15 71.8314 172.103 72.0519 172.04 72.2556C171.977 72.4594 171.894 72.6379 171.791 72.7912C171.688 72.9424 171.56 73.06 171.407 73.144C171.256 73.228 171.075 73.27 170.865 73.27C170.655 73.27 170.465 73.227 170.295 73.1409C170.127 73.0548 169.983 72.934 169.863 72.7786C169.744 72.6232 169.651 72.4405 169.586 72.2304C169.523 72.0204 169.492 71.7915 169.492 71.5437ZM170.399 71.4775V71.5437C170.399 71.6844 170.412 71.8156 170.44 71.9375C170.467 72.0593 170.509 72.1674 170.566 72.2619C170.625 72.3543 170.697 72.4268 170.783 72.4793C170.871 72.5297 170.975 72.5549 171.095 72.5549C171.261 72.5549 171.396 72.5203 171.501 72.451C171.606 72.3795 171.685 72.2819 171.738 72.158C171.79 72.0341 171.821 71.8912 171.829 71.7295V71.3168C171.825 71.1845 171.807 71.0659 171.776 70.9609C171.744 70.8537 171.7 70.7624 171.643 70.6868C171.586 70.6112 171.513 70.5524 171.423 70.5104C171.332 70.4684 171.225 70.4474 171.101 70.4474C170.982 70.4474 170.878 70.4747 170.789 70.5293C170.703 70.5818 170.631 70.6542 170.572 70.7466C170.515 70.839 170.472 70.9483 170.443 71.0743C170.414 71.1982 170.399 71.3326 170.399 71.4775Z" fill="white"/>
<path d="M170.704 53.3359V58.5223C170.704 58.6868 170.748 58.8446 170.87 58.9609C170.993 59.0773 171.159 59.1426 171.332 59.1426H176.511L170.704 53.3359Z" fill="#114118"/>
<rect x="163.285" y="58.8203" width="3.22592" height="3.22592" fill="#CACACC"/>
<rect x="163.285" y="62.0459" width="3.22592" height="3.22592" fill="white"/>
<rect x="166.51" y="58.8203" width="3.22592" height="3.22592" fill="white"/>
<rect x="166.51" y="62.0459" width="3.22592" height="3.22592" fill="#CACACC"/>
</g>
<path d="M67.4751 129.897H31.3448C29.4444 129.897 27.9038 131.438 27.9038 133.338V169.469C27.9038 171.369 29.4444 172.91 31.3448 172.91H67.4751C69.3756 172.91 70.9161 171.369 70.9161 169.469V133.338C70.9161 131.438 69.3756 129.897 67.4751 129.897Z" fill="white"/>
<path d="M67.0447 131.188H31.7746C30.3493 131.188 29.1938 132.343 29.1938 133.768V169.038C29.1938 170.464 30.3493 171.619 31.7746 171.619H67.0447C68.47 171.619 69.6254 170.464 69.6254 169.038V133.768C69.6254 132.343 68.47 131.188 67.0447 131.188Z" fill="white"/>
<g clip-path="url(#clip3_5667_41859)">
<path d="M61.5591 155.883L58.7179 160.855C58.4652 161.262 58.1104 161.597 57.6886 161.825C57.2669 162.053 56.7928 162.167 56.3135 162.155H42.6112C42.1319 162.167 41.6578 162.053 41.2361 161.825C40.8143 161.597 40.4595 161.262 40.2068 160.855L39.04 158.813L43.869 155.883H61.5591Z" fill="#4285F4"/>
<path d="M46.22 140.767C45.5747 140.998 45.0327 141.452 44.6907 142.046L37.7764 153.876C37.5245 154.284 37.3836 154.751 37.3677 155.23C37.3518 155.709 37.4614 156.184 37.6857 156.608L39.0567 158.817L43.8685 155.883L49.4618 146.313L46.22 140.767Z" fill="#00AC47"/>
<path d="M43.8682 155.883H37.4258C37.4725 156.137 37.5602 156.382 37.6856 156.608L39.0494 158.807L39.0391 158.813L40.2062 160.855C40.4856 161.317 40.9054 161.678 41.4043 161.884L43.8682 155.883L43.861 155.887L43.8682 155.883Z" fill="#0066DA"/>
<path d="M52.6945 140.767C53.3398 140.998 53.8818 141.452 54.2237 142.046L61.1382 153.876C61.3901 154.284 61.531 154.751 61.5469 155.23C61.5629 155.709 61.4532 156.184 61.229 156.608L59.8585 158.817L55.046 155.883L49.4526 146.313L52.6945 140.767Z" fill="#FFBA00"/>
<path d="M55.0459 155.883H61.4885C61.4419 156.137 61.3541 156.382 61.2287 156.608L59.8645 158.807L59.8749 158.813L58.7081 160.855C58.4286 161.317 58.0088 161.677 57.51 161.884L55.046 155.883L55.0532 155.887L55.0459 155.883Z" fill="#EA4435"/>
<path d="M52.7014 140.771L52.7035 140.767C52.5978 140.73 52.4897 140.701 52.3801 140.679L49.4617 140.65L46.5434 140.679C46.4337 140.701 46.3257 140.73 46.22 140.767C46.1071 140.809 45.9973 140.859 45.8911 140.916L49.4518 146.313L53.0253 140.919C52.9207 140.862 52.8125 140.813 52.7014 140.771Z" fill="#188038"/>
</g>
<path d="M125.972 129.897H89.8414C87.941 129.897 86.4004 131.438 86.4004 133.338V169.469C86.4004 171.369 87.941 172.91 89.8414 172.91H125.972C127.872 172.91 129.413 171.369 129.413 169.469V133.338C129.413 131.438 127.872 129.897 125.972 129.897Z" fill="white"/>
<path d="M125.542 131.188H90.2717C88.8464 131.188 87.6909 132.343 87.6909 133.768V169.038C87.6909 170.464 88.8463 171.619 90.2717 171.619H125.542C126.967 171.619 128.123 170.464 128.123 169.038V133.768C128.123 132.343 126.967 131.188 125.542 131.188Z" fill="white"/>
<g clip-path="url(#clip4_5667_41859)">
<g clip-path="url(#clip5_5667_41859)">
<path d="M108.09 144.696L101.756 148.746L108.09 152.786L101.756 156.836L95.4331 152.75L101.772 148.7L95.4331 144.696L101.772 140.646L108.09 144.696ZM101.736 158.112L108.075 154.062L114.408 158.112L108.09 162.157L101.736 158.112ZM108.09 152.75L114.428 148.7L108.09 144.696L114.393 140.646L120.746 144.696L114.408 148.746L120.746 152.786L114.408 156.836L108.09 152.75Z" fill="#0061FF"/>
</g>
</g>
<path d="M184.469 129.897H148.338C146.438 129.897 144.897 131.438 144.897 133.338V169.469C144.897 171.369 146.438 172.91 148.338 172.91H184.469C186.369 172.91 187.91 171.369 187.91 169.469V133.338C187.91 131.438 186.369 129.897 184.469 129.897Z" fill="white"/>
<path d="M184.038 131.188H148.768C147.343 131.188 146.188 132.343 146.188 133.768V169.038C146.188 170.464 147.343 171.619 148.768 171.619H184.038C185.464 171.619 186.619 170.464 186.619 169.038V133.768C186.619 132.343 185.464 131.188 184.038 131.188Z" fill="white"/>
<g clip-path="url(#clip6_5667_41859)">
<g clip-path="url(#clip7_5667_41859)">
<path d="M167.04 149.641C166.49 149.641 165.95 149.791 165.479 150.075C165.007 150.358 164.622 150.765 164.364 151.251C164.16 150.864 163.873 150.527 163.526 150.262C163.178 149.996 162.777 149.81 162.35 149.714C161.923 149.619 161.481 149.617 161.053 149.709C160.625 149.801 160.223 149.984 159.873 150.246V147.696C159.873 147.535 159.809 147.381 159.695 147.267C159.582 147.154 159.428 147.09 159.267 147.09C159.106 147.09 158.952 147.154 158.839 147.267C158.725 147.381 158.661 147.535 158.661 147.696V152.717C158.671 153.389 158.904 154.038 159.324 154.563C159.744 155.088 160.327 155.458 160.98 155.616C161.634 155.773 162.321 155.708 162.934 155.432C163.546 155.156 164.05 154.683 164.364 154.089C164.615 154.563 164.988 154.962 165.443 155.246C165.899 155.529 166.422 155.686 166.958 155.701C167.494 155.715 168.025 155.587 168.495 155.33C168.966 155.072 169.36 154.695 169.636 154.235C169.913 153.775 170.063 153.25 170.07 152.714C170.077 152.178 169.942 151.649 169.678 151.182C169.414 150.715 169.03 150.327 168.567 150.056C168.103 149.786 167.576 149.644 167.04 149.644V149.641ZM161.689 154.487C161.33 154.487 160.978 154.38 160.68 154.181C160.381 153.981 160.148 153.697 160.01 153.365C159.873 153.033 159.837 152.668 159.907 152.315C159.977 151.963 160.15 151.639 160.404 151.385C160.658 151.131 160.982 150.958 161.335 150.888C161.687 150.818 162.052 150.854 162.384 150.991C162.716 151.129 163 151.362 163.2 151.661C163.399 151.959 163.506 152.311 163.506 152.67C163.506 153.152 163.314 153.614 162.974 153.955C162.633 154.295 162.171 154.487 161.689 154.487ZM167.04 154.487C166.68 154.487 166.329 154.38 166.03 154.181C165.732 153.981 165.499 153.697 165.361 153.365C165.224 153.033 165.188 152.668 165.258 152.315C165.328 151.963 165.501 151.639 165.755 151.385C166.009 151.131 166.333 150.958 166.685 150.888C167.038 150.818 167.403 150.854 167.735 150.991C168.067 151.129 168.351 151.362 168.55 151.661C168.75 151.959 168.857 152.311 168.857 152.67C168.857 153.152 168.665 153.614 168.325 153.955C167.984 154.295 167.522 154.487 167.04 154.487Z" fill="#0075C9"/>
<path d="M174.143 154.744L172.592 152.672L174.143 150.599C174.239 150.47 174.28 150.309 174.258 150.149C174.235 149.99 174.15 149.847 174.022 149.75C173.893 149.654 173.732 149.612 173.572 149.635C173.413 149.658 173.27 149.743 173.173 149.871L171.834 151.66L170.496 149.871C170.398 149.748 170.256 149.667 170.099 149.647C169.943 149.627 169.784 149.669 169.658 149.764C169.532 149.859 169.448 149.999 169.424 150.155C169.399 150.311 169.437 150.47 169.528 150.599L171.078 152.672L169.527 154.744C169.436 154.873 169.398 155.032 169.423 155.188C169.447 155.344 169.531 155.484 169.658 155.579C169.784 155.673 169.942 155.715 170.098 155.695C170.255 155.675 170.397 155.595 170.496 155.471L171.834 153.683L173.173 155.473C173.27 155.602 173.414 155.686 173.573 155.709C173.732 155.731 173.894 155.69 174.022 155.593C174.151 155.496 174.236 155.353 174.258 155.193C174.281 155.034 174.239 154.872 174.143 154.744Z" fill="#0075C9"/>
</g>
<g clip-path="url(#clip8_5667_41859)">
<path d="M173.59 162.157H159.235C158.765 162.159 158.299 162.069 157.864 161.891C157.429 161.713 157.033 161.451 156.7 161.119C156.367 160.788 156.103 160.394 155.923 159.96C155.742 159.526 155.65 159.06 155.65 158.59V144.235C155.648 143.763 155.738 143.296 155.917 142.86C156.097 142.424 156.361 142.027 156.694 141.694C157.027 141.361 157.424 141.097 157.86 140.917C158.296 140.738 158.763 140.648 159.235 140.65H173.608C174.077 140.652 174.54 140.747 174.972 140.928C175.404 141.109 175.796 141.374 176.126 141.707C176.455 142.04 176.716 142.434 176.893 142.868C177.07 143.302 177.159 143.766 177.157 144.235V158.608C177.159 159.08 177.069 159.547 176.89 159.983C176.71 160.419 176.447 160.816 176.113 161.149C175.78 161.482 175.383 161.746 174.947 161.925C174.511 162.105 174.044 162.195 173.572 162.192" fill="#00AEEF"/>
<path d="M166.658 149.705C166.126 149.705 165.605 149.85 165.15 150.124C164.695 150.398 164.323 150.791 164.073 151.261C163.876 150.887 163.599 150.562 163.264 150.305C162.928 150.049 162.541 149.869 162.129 149.776C161.716 149.684 161.289 149.682 160.876 149.771C160.463 149.859 160.074 150.036 159.736 150.289V147.82C159.736 147.665 159.675 147.516 159.565 147.406C159.456 147.297 159.307 147.235 159.152 147.235C158.997 147.235 158.849 147.297 158.739 147.406C158.629 147.516 158.568 147.665 158.568 147.82V152.676C158.577 153.326 158.801 153.954 159.207 154.461C159.612 154.968 160.175 155.326 160.806 155.478C161.438 155.63 162.102 155.567 162.694 155.299C163.285 155.031 163.771 154.574 164.073 153.999C164.317 154.456 164.677 154.839 165.117 155.111C165.558 155.383 166.062 155.533 166.58 155.547C167.097 155.56 167.608 155.435 168.062 155.186C168.515 154.937 168.895 154.573 169.161 154.129C169.428 153.685 169.572 153.179 169.579 152.662C169.586 152.144 169.455 151.634 169.201 151.184C168.946 150.733 168.577 150.358 168.13 150.097C167.683 149.836 167.175 149.698 166.658 149.698V149.705ZM161.489 154.383C161.143 154.382 160.804 154.278 160.516 154.085C160.229 153.892 160.004 153.618 159.872 153.298C159.74 152.978 159.706 152.625 159.774 152.286C159.842 151.946 160.009 151.634 160.255 151.389C160.5 151.144 160.812 150.978 161.152 150.91C161.492 150.843 161.844 150.878 162.164 151.011C162.484 151.144 162.758 151.368 162.95 151.656C163.143 151.945 163.245 152.283 163.245 152.63C163.245 152.86 163.2 153.089 163.112 153.301C163.023 153.514 162.894 153.708 162.731 153.87C162.568 154.033 162.374 154.162 162.161 154.25C161.948 154.338 161.72 154.383 161.489 154.383ZM166.658 154.383C166.311 154.383 165.972 154.28 165.684 154.087C165.396 153.895 165.171 153.621 165.038 153.301C164.906 152.98 164.871 152.628 164.939 152.288C165.006 151.948 165.173 151.636 165.418 151.39C165.664 151.145 165.976 150.978 166.316 150.911C166.656 150.843 167.008 150.878 167.329 151.01C167.649 151.143 167.923 151.368 168.115 151.656C168.308 151.944 168.411 152.283 168.411 152.63C168.411 153.095 168.226 153.54 167.897 153.869C167.568 154.198 167.123 154.383 166.658 154.383Z" fill="white"/>
<path d="M174.117 154.576L172.529 152.626L174.121 150.687C174.169 150.626 174.203 150.556 174.222 150.481C174.241 150.406 174.244 150.328 174.232 150.252C174.219 150.175 174.19 150.103 174.148 150.038C174.105 149.974 174.05 149.919 173.985 149.877C173.85 149.784 173.686 149.744 173.523 149.763C173.361 149.783 173.211 149.862 173.103 149.984L171.734 151.662L170.364 149.97C170.256 149.847 170.106 149.769 169.944 149.749C169.781 149.729 169.617 149.77 169.483 149.862C169.416 149.904 169.359 149.96 169.315 150.026C169.271 150.092 169.242 150.166 169.23 150.245C169.217 150.323 169.221 150.402 169.242 150.479C169.263 150.555 169.3 150.626 169.35 150.687L170.938 152.64L169.35 154.59C169.302 154.65 169.268 154.72 169.248 154.795C169.229 154.869 169.225 154.947 169.238 155.023C169.25 155.099 169.279 155.171 169.321 155.236C169.363 155.3 169.418 155.355 169.483 155.397C169.617 155.489 169.781 155.53 169.944 155.51C170.106 155.49 170.256 155.412 170.364 155.289L171.734 153.615L173.099 155.289C173.208 155.412 173.359 155.49 173.522 155.51C173.685 155.53 173.849 155.49 173.985 155.397C174.05 155.355 174.105 155.3 174.148 155.236C174.19 155.172 174.219 155.099 174.231 155.023C174.244 154.947 174.24 154.869 174.22 154.794C174.201 154.72 174.166 154.65 174.117 154.59" fill="white"/>
</g>
</g>
<path d="M242.965 129.897H206.835C204.935 129.897 203.394 131.438 203.394 133.338V169.469C203.394 171.369 204.935 172.91 206.835 172.91H242.965C244.866 172.91 246.406 171.369 246.406 169.469V133.338C246.406 131.438 244.866 129.897 242.965 129.897Z" fill="white"/>
<path d="M242.535 131.188H207.265C205.84 131.188 204.685 132.343 204.685 133.768V169.038C204.685 170.464 205.84 171.619 207.265 171.619H242.535C243.961 171.619 245.116 170.464 245.116 169.038V133.768C245.116 132.343 243.961 131.188 242.535 131.188Z" fill="white"/>
<g clip-path="url(#clip9_5667_41859)">
<path d="M212.994 162.156C212.302 162.156 211.747 161.928 211.331 161.472C210.914 161.016 210.706 160.422 210.706 159.691C210.706 158.906 210.918 158.279 211.343 157.812C211.767 157.344 212.345 157.11 213.076 157.11C213.75 157.11 214.293 157.337 214.705 157.791C215.117 158.245 215.323 158.839 215.323 159.572C215.323 160.369 215.112 160.999 214.69 161.462C214.267 161.925 213.702 162.156 212.994 162.156ZM213.035 157.628C212.522 157.628 212.105 157.813 211.785 158.183C211.465 158.553 211.305 159.039 211.305 159.64C211.305 160.242 211.461 160.726 211.773 161.092C212.086 161.459 212.492 161.642 212.994 161.642C213.53 161.642 213.952 161.467 214.261 161.118C214.569 160.768 214.724 160.279 214.724 159.65C214.724 159.006 214.574 158.507 214.274 158.156C213.975 157.804 213.561 157.628 213.035 157.628H213.035ZM219.102 162.074H218.544V160.086C218.544 159.346 218.274 158.976 217.733 158.976C217.454 158.976 217.223 159.081 217.041 159.291C216.858 159.501 216.767 159.766 216.767 160.086V162.074H216.208V158.588H216.767V159.167H216.78C217.043 158.726 217.425 158.506 217.924 158.506C218.305 158.506 218.597 158.629 218.799 158.876C219.001 159.122 219.102 159.478 219.102 159.943V162.074ZM222.96 160.471H220.498C220.507 160.859 220.612 161.159 220.811 161.37C221.011 161.581 221.286 161.686 221.635 161.686C222.028 161.686 222.389 161.557 222.718 161.298V161.822C222.412 162.045 222.006 162.156 221.502 162.156C221.01 162.156 220.623 161.998 220.342 161.681C220.06 161.365 219.919 160.919 219.919 160.345C219.919 159.802 220.073 159.36 220.381 159.019C220.688 158.677 221.07 158.506 221.526 158.506C221.983 158.506 222.336 158.654 222.585 158.949C222.835 159.244 222.96 159.654 222.96 160.178V160.471ZM222.388 159.998C222.385 159.675 222.308 159.424 222.154 159.245C222.001 159.066 221.788 158.976 221.516 158.976C221.253 158.976 221.029 159.07 220.845 159.259C220.662 159.447 220.548 159.693 220.505 159.998H222.388ZM223.882 162.074V157.192H225.231C226.951 157.192 227.811 157.985 227.811 159.572C227.811 160.326 227.573 160.931 227.095 161.388C226.617 161.846 225.977 162.074 225.176 162.074H223.882V162.074ZM224.454 157.71V161.557H225.183C225.823 161.557 226.321 161.386 226.678 161.043C227.034 160.7 227.212 160.214 227.212 159.586C227.212 158.335 226.547 157.71 225.217 157.71H224.454ZM230.515 159.153C230.417 159.078 230.276 159.041 230.093 159.041C229.854 159.041 229.655 159.153 229.495 159.378C229.335 159.603 229.255 159.909 229.255 160.297V162.074H228.697V158.588H229.255V159.306H229.269C229.348 159.061 229.47 158.87 229.633 158.733C229.796 158.595 229.979 158.527 230.181 158.527C230.326 158.527 230.438 158.543 230.515 158.574V159.153ZM231.407 157.703C231.307 157.703 231.222 157.669 231.151 157.601C231.081 157.533 231.046 157.446 231.046 157.342C231.046 157.237 231.081 157.151 231.151 157.081C231.222 157.012 231.307 156.978 231.407 156.978C231.509 156.978 231.596 157.012 231.667 157.081C231.739 157.151 231.775 157.237 231.775 157.342C231.775 157.442 231.739 157.527 231.667 157.597C231.596 157.668 231.509 157.703 231.407 157.703ZM231.679 162.074H231.121V158.588H231.679V162.074ZM235.55 158.588L234.161 162.074H233.613L232.292 158.588H232.905L233.79 161.121C233.856 161.307 233.897 161.47 233.913 161.608H233.926C233.949 161.433 233.985 161.275 234.035 161.135L234.961 158.588H235.55ZM238.948 160.471H236.487C236.496 160.859 236.6 161.159 236.8 161.37C237 161.581 237.274 161.686 237.624 161.686C238.017 161.686 238.377 161.557 238.707 161.298V161.822C238.4 162.045 237.995 162.156 237.491 162.156C236.999 162.156 236.612 161.998 236.33 161.681C236.049 161.365 235.908 160.919 235.908 160.345C235.908 159.802 236.062 159.36 236.369 159.019C236.677 158.677 237.059 158.506 237.515 158.506C237.971 158.506 238.324 158.654 238.574 158.949C238.823 159.244 238.948 159.654 238.948 160.178V160.471ZM238.376 159.998C238.374 159.675 238.296 159.424 238.143 159.245C237.99 159.066 237.777 158.976 237.505 158.976C237.241 158.976 237.018 159.07 236.834 159.259C236.65 159.447 236.537 159.693 236.494 159.998H238.376Z" fill="#094AB1"/>
<path d="M220.987 153.697C219.645 153.361 218.897 152.294 218.894 150.71C218.894 150.202 218.93 149.961 219.057 149.636C219.366 148.836 220.187 148.235 221.266 148.014C221.803 147.903 221.968 147.785 221.968 147.511C221.996 147.316 222.045 147.125 222.114 146.941C222.469 145.909 223.126 145.052 223.829 144.698C224.563 144.33 224.935 144.247 225.823 144.251C227.086 144.258 227.713 144.532 228.597 145.457L229.082 145.966L229.518 145.816C231.618 145.09 233.712 146.325 233.881 148.394L233.928 148.96L234.341 149.106C235.522 149.529 236.078 150.418 235.977 151.722C235.911 152.576 235.512 153.259 234.879 153.597L234.576 153.762L227.963 153.775C222.882 153.785 221.267 153.766 220.987 153.697Z" fill="#094AB1"/>
<path d="M216.031 152.785C215.248 152.598 214.416 151.905 214.027 151.114C213.809 150.665 213.794 150.599 213.794 149.806C213.794 149.05 213.813 148.929 213.989 148.553C214.36 147.76 215.07 147.19 215.962 146.964C216.15 146.917 216.325 146.841 216.354 146.796C216.383 146.751 216.413 146.506 216.427 146.251C216.49 144.668 217.528 143.271 218.978 142.826C219.761 142.584 220.745 142.643 221.598 142.984C221.867 143.092 221.838 143.115 222.409 142.366C222.747 141.923 223.43 141.372 223.988 141.091C224.588 140.788 225.216 140.65 225.966 140.65C228.063 140.655 229.87 141.967 230.538 143.969C230.751 144.608 230.741 144.787 230.489 144.793C230.252 144.819 230.018 144.864 229.789 144.927L229.289 145.057L228.836 144.601C227.55 143.315 225.45 143.037 223.666 143.917C222.966 144.256 222.372 144.779 221.947 145.43C221.639 145.899 221.245 146.773 221.245 146.99C221.245 147.144 221.12 147.221 220.591 147.396C218.943 147.936 217.981 149.186 217.981 150.783C217.981 151.365 218.131 152.077 218.339 152.484C218.417 152.638 218.461 152.784 218.436 152.809C218.372 152.872 216.321 152.851 216.038 152.784L216.031 152.785Z" fill="#094AB1"/>
</g>
</g>
<defs>
<filter id="filter0_d_5667_41859" x="-9.53674e-07" y="0" width="283.773" height="224.254" filterUnits="userSpaceOnUse" color-interpolation-filters="sRGB">
<feFlood flood-opacity="0" result="BackgroundImageFix"/>
<feColorMatrix in="SourceAlpha" type="matrix" values="0 0 0 0 0 0 0 0 0 0 0 0 0 0 0 0 0 0 127 0" result="hardAlpha"/>
<feOffset dy="20"/>
<feGaussianBlur stdDeviation="7.5"/>
<feComposite in2="hardAlpha" operator="out"/>
<feColorMatrix type="matrix" values="0 0 0 0 0 0 0 0 0 0 0 0 0 0 0 0 0 0 0.15 0"/>
<feBlend mode="normal" in2="BackgroundImageFix" result="effect1_dropShadow_5667_41859"/>
<feBlend mode="normal" in="SourceGraphic" in2="effect1_dropShadow_5667_41859" result="shape"/>
</filter>
<filter id="filter1_i_5667_41859" x="15" y="8.60254" width="245.17" height="182.372" filterUnits="userSpaceOnUse" color-interpolation-filters="sRGB">
<feFlood flood-opacity="0" result="BackgroundImageFix"/>
<feBlend mode="normal" in="SourceGraphic" in2="BackgroundImageFix" result="shape"/>
<feColorMatrix in="SourceAlpha" type="matrix" values="0 0 0 0 0 0 0 0 0 0 0 0 0 0 0 0 0 0 127 0" result="hardAlpha"/>
<feOffset dy="1.72049"/>
<feGaussianBlur stdDeviation="0.860247"/>
<feComposite in2="hardAlpha" operator="arithmetic" k2="-1" k3="1"/>
<feColorMatrix type="matrix" values="0 0 0 0 1 0 0 0 0 1 0 0 0 0 1 0 0 0 1 0"/>
<feBlend mode="normal" in2="shape" result="effect1_innerShadow_5667_41859"/>
</filter>
<filter id="filter2_f_5667_41859" x="-55.9706" y="-38.7108" width="387.111" height="357.003" filterUnits="userSpaceOnUse" color-interpolation-filters="sRGB">
<feFlood flood-opacity="0" result="BackgroundImageFix"/>
<feBlend mode="normal" in="SourceGraphic" in2="BackgroundImageFix" result="shape"/>
<feGaussianBlur stdDeviation="64.5185" result="effect1_foregroundBlur_5667_41859"/>
</filter>
<filter id="filter3_d_5667_41859" x="27.4737" y="98.498" width="219.363" height="1.07509" filterUnits="userSpaceOnUse" color-interpolation-filters="sRGB">
<feFlood flood-opacity="0" result="BackgroundImageFix"/>
<feColorMatrix in="SourceAlpha" type="matrix" values="0 0 0 0 0 0 0 0 0 0 0 0 0 0 0 0 0 0 127 0" result="hardAlpha"/>
<feOffset dy="0.430123"/>
<feGaussianBlur stdDeviation="0.215062"/>
<feComposite in2="hardAlpha" operator="out"/>
<feColorMatrix type="matrix" values="0 0 0 0 1 0 0 0 0 1 0 0 0 0 1 0 0 0 1 0"/>
<feBlend mode="normal" in2="BackgroundImageFix" result="effect1_dropShadow_5667_41859"/>
<feBlend mode="normal" in="SourceGraphic" in2="effect1_dropShadow_5667_41859" result="shape"/>
</filter>
<linearGradient id="paint0_linear_5667_41859" x1="137.585" y1="8.60254" x2="137.585" y2="189.254" gradientUnits="userSpaceOnUse">
<stop stop-color="#EBE9F3"/>
<stop offset="1" stop-color="#E0DFE7"/>
</linearGradient>
<linearGradient id="paint1_linear_5667_41859" x1="137.585" y1="8.60254" x2="137.585" y2="189.254" gradientUnits="userSpaceOnUse">
<stop stop-color="white"/>
<stop offset="1" stop-color="#CCCAD5"/>
</linearGradient>
<linearGradient id="paint2_linear_5667_41859" x1="137.585" y1="8.60254" x2="137.585" y2="189.254" gradientUnits="userSpaceOnUse">
<stop stop-color="#EBE9F3"/>
<stop offset="0.0001" stop-color="#EBE9F3"/>
<stop offset="1" stop-color="#E0DFE7"/>
</linearGradient>
<linearGradient id="paint3_linear_5667_41859" x1="137.585" y1="8.60254" x2="137.585" y2="189.254" gradientUnits="userSpaceOnUse">
<stop stop-color="white"/>
<stop offset="1" stop-color="#CCCAD4"/>
</linearGradient>
<linearGradient id="paint4_linear_5667_41859" x1="76.7322" y1="147.139" x2="202.103" y2="147.139" gradientUnits="userSpaceOnUse">
<stop stop-color="#ECEAF4"/>
<stop offset="0.5" stop-color="#6563FF"/>
<stop offset="0.623164" stop-color="#A384FC"/>
<stop offset="1" stop-color="#ECEAF4"/>
</linearGradient>
<clipPath id="clip0_5667_41859">
<rect width="43.0123" height="43.0123" fill="white" transform="translate(86.4004 44.7324)"/>
</clipPath>
<clipPath id="clip1_5667_41859">
<rect width="7.74222" height="7.74222" fill="white" transform="translate(104.143 57.5293)"/>
</clipPath>
<clipPath id="clip2_5667_41859">
<rect width="43.0123" height="43.0123" fill="white" transform="translate(144.897 44.7324)"/>
</clipPath>
<clipPath id="clip3_5667_41859">
<rect width="43.0123" height="43.0123" fill="white" transform="translate(27.9038 129.897)"/>
</clipPath>
<clipPath id="clip4_5667_41859">
<rect width="43.0123" height="43.0123" fill="white" transform="translate(86.4004 129.897)"/>
</clipPath>
<clipPath id="clip5_5667_41859">
<rect width="25.3133" height="21.5062" fill="white" transform="translate(95.4331 140.65)"/>
</clipPath>
<clipPath id="clip6_5667_41859">
<rect width="43.0123" height="43.0123" fill="white" transform="translate(144.897 129.897)"/>
</clipPath>
<clipPath id="clip7_5667_41859">
<rect width="15.5955" height="8.60247" fill="white" transform="translate(158.661 147.103)"/>
</clipPath>
<clipPath id="clip8_5667_41859">
<rect width="21.5062" height="21.5062" fill="white" transform="translate(155.65 140.65)"/>
</clipPath>
<clipPath id="clip9_5667_41859">
<rect width="43.0123" height="43.0123" fill="white" transform="translate(203.394 129.897)"/>
</clipPath>
</defs>
</svg>
