<svg width="20" height="20" viewBox="0 0 20 20" fill="none" xmlns="http://www.w3.org/2000/svg">
<path d="M10.3125 2C8.24121 2.00234 6.25543 2.82619 4.79081 4.29081C3.32619 5.75543 2.50234 7.74121 2.5 9.8125V16.4011C2.50037 16.7256 2.62945 17.0367 2.85891 17.2661C3.08837 17.4956 3.39948 17.6246 3.72398 17.625H10.3125C12.3845 17.625 14.3716 16.8019 15.8368 15.3368C17.3019 13.8716 18.125 11.8845 18.125 9.8125C18.125 7.7405 17.3019 5.75336 15.8368 4.28823C14.3716 2.8231 12.3845 2 10.3125 2ZM6.56235 11.0626C6.37693 11.0626 6.19567 11.0076 6.0415 10.9046C5.88733 10.8016 5.76717 10.6552 5.69621 10.4838C5.62525 10.3125 5.60669 10.124 5.64286 9.94218C5.67904 9.76032 5.76832 9.59328 5.89944 9.46217C6.03055 9.33105 6.19759 9.24177 6.37945 9.20559C6.56131 9.16942 6.74981 9.18798 6.92111 9.25894C7.09242 9.3299 7.23884 9.45006 7.34185 9.60423C7.44486 9.7584 7.49985 9.93966 7.49985 10.1251C7.49985 10.3737 7.40107 10.6122 7.22526 10.788C7.04944 10.9638 6.81099 11.0626 6.56235 11.0626V11.0626ZM10.3123 11.0626C10.1269 11.0626 9.94567 11.0076 9.7915 10.9046C9.63733 10.8016 9.51717 10.6552 9.44621 10.4838C9.37525 10.3125 9.35669 10.124 9.39286 9.94218C9.42904 9.76032 9.51832 9.59328 9.64944 9.46217C9.78055 9.33105 9.94759 9.24177 10.1295 9.20559C10.3113 9.16942 10.4998 9.18798 10.6711 9.25894C10.8424 9.3299 10.9888 9.45006 11.0919 9.60423C11.1949 9.7584 11.2498 9.93966 11.2498 10.1251C11.2498 10.3737 11.1511 10.6122 10.9753 10.788C10.7994 10.9638 10.561 11.0626 10.3123 11.0626V11.0626ZM14.0623 11.0626C13.8769 11.0626 13.6957 11.0076 13.5415 10.9046C13.3873 10.8016 13.2672 10.6552 13.1962 10.4838C13.1253 10.3125 13.1067 10.124 13.1429 9.94218C13.179 9.76032 13.2683 9.59328 13.3994 9.46217C13.5305 9.33105 13.6976 9.24177 13.8795 9.20559C14.0613 9.16942 14.2498 9.18798 14.4211 9.25894C14.5924 9.3299 14.7388 9.45006 14.8419 9.60423C14.9449 9.7584 14.9998 9.93966 14.9998 10.1251C14.9998 10.3737 14.9011 10.6122 14.7253 10.788C14.5494 10.9638 14.311 11.0626 14.0623 11.0626V11.0626Z" fill="#5B4DBE"/>
</svg>
