<svg width="50" height="50" viewBox="0 0 50 50" fill="none" xmlns="http://www.w3.org/2000/svg">
<path d="M4.04985 27.686C3.5377 27.1739 3.27699 26.4672 3.33418 25.7595L4.85119 6.99041C4.94395 5.84267 5.84272 4.9439 6.99046 4.85114L25.7596 3.33413C26.4672 3.27694 27.1739 3.53764 27.6861 4.04979L45.3487 21.7124C46.3036 22.6673 46.3087 24.1858 45.3903 25.1041L25.1042 45.3902C24.1858 46.3086 22.6674 46.3035 21.7125 45.3486L4.04985 27.686ZM16.1076 16.1076C17.4232 14.7919 17.4232 12.6589 16.1076 11.3432C14.792 10.0276 12.6589 10.0276 11.3433 11.3432C10.0276 12.6589 10.0276 14.7919 11.3433 16.1076C12.6589 17.4232 14.792 17.4232 16.1076 16.1076Z" fill="#094AB1" stroke="white"/>
<path d="M23.8203 27.6172L24.5625 22.8809C24.5951 22.5944 24.582 22.3275 24.5234 22.0801C24.4648 21.8327 24.3444 21.6374 24.1621 21.4941C23.9863 21.3444 23.7357 21.263 23.4102 21.25C23.1172 21.2435 22.8535 21.2956 22.6191 21.4062C22.3913 21.5104 22.2025 21.6634 22.0527 21.8652C21.903 22.0605 21.7988 22.2949 21.7402 22.5684L18.9863 22.5879C19.0189 22.002 19.1816 21.4974 19.4746 21.0742C19.7741 20.6445 20.1517 20.293 20.6074 20.0195C21.0632 19.7461 21.5579 19.5443 22.0918 19.4141C22.6322 19.2839 23.1595 19.2253 23.6738 19.2383C24.4095 19.2513 25.0638 19.4043 25.6367 19.6973C26.2161 19.9902 26.6589 20.4102 26.9648 20.957C27.2773 21.4974 27.3945 22.1549 27.3164 22.9297L26.584 27.4609C26.5254 27.8385 26.4798 28.2357 26.4473 28.6523C26.4147 29.0625 26.4733 29.4531 26.623 29.8242L26.6035 30L23.9082 30.0098C23.7845 29.6257 23.7227 29.2318 23.7227 28.8281C23.7292 28.418 23.7617 28.0143 23.8203 27.6172ZM24.875 23.5645L24.6113 25.1562L23.2148 25.1465C22.9349 25.153 22.6549 25.1921 22.375 25.2637C22.1016 25.3288 21.8477 25.4329 21.6133 25.5762C21.3789 25.7129 21.1836 25.8919 21.0273 26.1133C20.8776 26.3346 20.7832 26.6048 20.7441 26.9238C20.7116 27.1517 20.7344 27.3568 20.8125 27.5391C20.8906 27.7148 21.0111 27.8548 21.1738 27.959C21.3431 28.0632 21.5449 28.1185 21.7793 28.125C22.1113 28.1315 22.4368 28.0697 22.7559 27.9395C23.0749 27.8027 23.3516 27.6107 23.5859 27.3633C23.8203 27.1159 23.9831 26.8294 24.0742 26.5039L24.6602 27.7246C24.5039 28.0892 24.3053 28.4245 24.0645 28.7305C23.8301 29.0365 23.5599 29.3034 23.2539 29.5312C22.9479 29.7526 22.6126 29.9219 22.248 30.0391C21.8835 30.1628 21.4928 30.2214 21.0762 30.2148C20.4967 30.2018 19.9629 30.0651 19.4746 29.8047C18.9928 29.5378 18.6087 29.1764 18.3223 28.7207C18.0423 28.2585 17.9154 27.7214 17.9414 27.1094C17.9674 26.4193 18.14 25.8464 18.459 25.3906C18.778 24.9284 19.1882 24.5638 19.6895 24.2969C20.1973 24.0299 20.7474 23.8411 21.3398 23.7305C21.9388 23.6133 22.5312 23.5547 23.1172 23.5547L24.875 23.5645Z" fill="white"/>
</svg>
