<svg width="20" height="20" viewBox="0 0 20 20" fill="none" xmlns="http://www.w3.org/2000/svg">
<path d="M10.0002 2C7.87842 2 5.84354 2.84288 4.34321 4.34321C2.84288 5.84354 2 7.87842 2 10.0002C2.00005 11.0508 2.20704 12.0911 2.60914 13.0617C3.01124 14.0323 3.60057 14.9142 4.3435 15.6571C5.08643 16.3999 5.9684 16.9892 6.93905 17.3912C7.9097 17.7932 8.95002 18.0001 10.0006 18C11.0512 17.9999 12.0915 17.793 13.0621 17.3909C14.0328 16.9888 14.9147 16.3994 15.6575 15.6565C16.4004 14.9136 16.9896 14.0316 17.3916 13.061C17.7936 12.0903 18.0005 11.05 18.0004 9.99937C18.0004 5.58176 14.4178 2 10.0002 2ZM10.0002 16.3329C9.16242 16.3425 8.33106 16.1858 7.55426 15.8718C6.77747 15.5579 6.07069 15.0929 5.47486 14.5039C4.87903 13.9148 4.40599 13.2134 4.08314 12.4403C3.7603 11.6671 3.59406 10.8376 3.59406 9.99979C3.59406 9.16195 3.7603 8.33244 4.08314 7.5593C4.40599 6.78616 4.87903 6.08475 5.47486 5.49572C6.07069 4.90668 6.77747 4.44172 7.55426 4.12777C8.33106 3.81381 9.16242 3.6571 10.0002 3.66671C10.838 3.6571 11.6694 3.81381 12.4462 4.12777C13.2229 4.44172 13.9297 4.90668 14.5256 5.49572C15.1214 6.08475 15.5944 6.78616 15.9173 7.5593C16.2401 8.33244 16.4064 9.16195 16.4064 9.99979C16.4064 10.8376 16.2401 11.6671 15.9173 12.4403C15.5944 13.2134 15.1214 13.9148 14.5256 14.5039C13.9297 15.0929 13.2229 15.5579 12.4462 15.8718C11.6694 16.1858 10.838 16.3425 10.0002 16.3329ZM7.91765 9.79187C8.60767 9.79187 9.16685 9.13935 9.16685 8.3335C9.16685 7.52764 8.60684 6.87513 7.91682 6.87513C7.2268 6.87513 6.66679 7.52764 6.66679 8.3335C6.66679 9.13935 7.2268 9.79187 7.91765 9.79187ZM12.0836 9.79187C12.7744 9.79187 13.3336 9.13935 13.3336 8.3335C13.3336 7.52764 12.7736 6.87513 12.0836 6.87513C11.3936 6.87513 10.8336 7.52848 10.8336 8.3335C10.8336 9.13852 11.3936 9.79187 12.0836 9.79187ZM13.6178 11.1136C13.4707 11.0394 13.3004 11.0257 13.1434 11.0756C12.9864 11.1254 12.8551 11.2348 12.7778 11.3802C12.7494 11.4352 12.0536 12.7078 10.001 12.7078C7.95849 12.7078 7.25847 11.4469 7.22347 11.3811C7.14854 11.2331 7.01791 11.121 6.86029 11.0693C6.70268 11.0177 6.531 11.0307 6.38303 11.1057C6.23506 11.1806 6.12291 11.3112 6.07126 11.4688C6.01961 11.6264 6.03268 11.7981 6.10761 11.9461C6.14927 12.0286 7.14763 13.9578 10.001 13.9578C12.8553 13.9578 13.852 12.0278 13.8928 11.9453C13.9662 11.7984 13.9785 11.6285 13.927 11.4726C13.8755 11.3168 13.7643 11.1877 13.6178 11.1136Z" fill="black"/>
</svg>
