<svg width="21" height="20" viewBox="0 0 21 20" fill="none" xmlns="http://www.w3.org/2000/svg">
<path d="M18.1213 7.95842L16.5374 7.43342L17.2832 5.95008C17.3589 5.79482 17.3841 5.62005 17.3556 5.44989C17.3271 5.27973 17.2462 5.12257 17.124 5.00008L15.339 3.22508C15.2152 3.10182 15.0556 3.02026 14.8827 2.99186C14.7098 2.96345 14.5324 2.98965 14.3752 3.06675L12.8835 3.80842L12.3556 2.23342C12.2998 2.06924 12.194 1.92644 12.0528 1.82487C11.9116 1.72331 11.7421 1.66804 11.5678 1.66675H9.05368C8.87799 1.6663 8.7066 1.72077 8.56374 1.82245C8.42088 1.92414 8.31376 2.0679 8.25754 2.23342L7.72958 3.80842L6.23786 3.06675C6.08173 2.99157 5.90597 2.96642 5.73485 2.99478C5.56373 3.02314 5.40567 3.10361 5.2825 3.22508L3.49747 5.00008C3.37351 5.12322 3.29148 5.2819 3.26292 5.4538C3.23436 5.6257 3.2607 5.80218 3.33824 5.95842L4.0841 7.44175L2.5002 7.96675C2.3351 8.0222 2.19149 8.12744 2.08935 8.26784C1.98721 8.40824 1.93163 8.57681 1.93033 8.75008V11.2501C1.92988 11.4248 1.98465 11.5952 2.08691 11.7373C2.18917 11.8793 2.33375 11.9858 2.5002 12.0418L4.0841 12.5668L3.33824 14.0501C3.26263 14.2053 3.23734 14.3801 3.26586 14.5503C3.29438 14.7204 3.37531 14.8776 3.49747 15.0001L5.2825 16.7751C5.40633 16.8983 5.5659 16.9799 5.73877 17.0083C5.91164 17.0367 6.08912 17.0105 6.24624 16.9334L7.73796 16.1918L8.26592 17.7668C8.32214 17.9323 8.42926 18.076 8.57212 18.1777C8.71498 18.2794 8.88637 18.3339 9.06206 18.3334H11.5762C11.7519 18.3339 11.9233 18.2794 12.0661 18.1777C12.209 18.076 12.3161 17.9323 12.3723 17.7668L12.9003 16.1918L14.392 16.9334C14.5471 17.0067 14.7212 17.0308 14.8906 17.0025C15.0599 16.9742 15.2165 16.8948 15.339 16.7751L17.124 15.0001C17.248 14.8769 17.33 14.7183 17.3586 14.5464C17.3871 14.3745 17.3608 14.198 17.2832 14.0418L16.5374 12.5584L18.1213 12.0334C18.2864 11.978 18.43 11.8727 18.5321 11.7323C18.6343 11.5919 18.6899 11.4234 18.6912 11.2501V8.75008C18.6916 8.57538 18.6368 8.40495 18.5346 8.26289C18.4323 8.12083 18.2877 8.01432 18.1213 7.95842ZM17.0151 10.6501L16.0094 10.9834C15.7782 11.058 15.566 11.1817 15.3876 11.346C15.2093 11.5103 15.069 11.7112 14.9765 11.9347C14.884 12.1583 14.8416 12.3992 14.8521 12.6407C14.8626 12.8823 14.9258 13.1186 15.0373 13.3334L15.515 14.2834L14.5931 15.2001L13.6629 14.7001C13.448 14.5936 13.2126 14.5343 12.9726 14.5262C12.7327 14.518 12.4937 14.5613 12.272 14.6529C12.0503 14.7446 11.851 14.8825 11.6876 15.0574C11.5242 15.2324 11.4004 15.4402 11.3248 15.6668L10.9896 16.6668H9.65707L9.32186 15.6668C9.24684 15.4368 9.12242 15.2258 8.95722 15.0485C8.79202 14.8711 8.59 14.7316 8.36517 14.6396C8.14033 14.5477 7.89807 14.5054 7.65518 14.5159C7.41229 14.5263 7.1746 14.5892 6.95858 14.7001L6.00321 15.1751L5.08137 14.2584L5.58419 13.3334C5.69573 13.1186 5.75894 12.8823 5.76944 12.6407C5.77993 12.3992 5.73747 12.1583 5.64498 11.9347C5.5525 11.7112 5.41221 11.5103 5.23384 11.346C5.05548 11.1817 4.84332 11.058 4.61206 10.9834L3.60641 10.6501V9.35008L4.61206 9.01675C4.84332 8.94216 5.05548 8.81844 5.23384 8.65417C5.41221 8.48989 5.5525 8.28901 5.64498 8.06543C5.73747 7.84186 5.77993 7.60096 5.76944 7.35944C5.75894 7.11792 5.69573 6.88156 5.58419 6.66675L5.10651 5.74175L6.02835 4.82508L6.95858 5.30008C7.1746 5.411 7.41229 5.47385 7.65518 5.48429C7.89807 5.49473 8.14033 5.4525 8.36517 5.36053C8.59 5.26857 8.79202 5.12907 8.95722 4.95171C9.12242 4.77434 9.24684 4.56337 9.32186 4.33342L9.65707 3.33342H10.9644L11.2996 4.33342C11.3746 4.56337 11.4991 4.77434 11.6643 4.95171C11.8295 5.12907 12.0315 5.26857 12.2563 5.36053C12.4812 5.4525 12.7234 5.49473 12.9663 5.48429C13.2092 5.47385 13.4469 5.411 13.6629 5.30008L14.6183 4.82508L15.5401 5.74175L15.0373 6.66675C14.9302 6.88046 14.8706 7.11454 14.8624 7.35316C14.8542 7.59178 14.8977 7.82936 14.9899 8.04982C15.082 8.27028 15.2208 8.46847 15.3967 8.63098C15.5726 8.79349 15.7815 8.91653 16.0094 8.99175L17.0151 9.32508V10.6501ZM10.3107 6.66675C9.64775 6.66675 8.99964 6.86225 8.44838 7.22852C7.89712 7.59479 7.46747 8.11539 7.21375 8.72447C6.96003 9.33356 6.89365 10.0038 7.02299 10.6504C7.15233 11.297 7.4716 11.8909 7.94041 12.3571C8.40921 12.8233 9.00651 13.1408 9.65677 13.2694C10.307 13.398 10.981 13.332 11.5936 13.0797C12.2061 12.8274 12.7296 12.4001 13.098 11.852C13.4663 11.3038 13.6629 10.6594 13.6629 10.0001C13.6629 9.11603 13.3097 8.26818 12.6811 7.64306C12.0524 7.01794 11.1998 6.66675 10.3107 6.66675ZM10.3107 11.6668C9.97925 11.6668 9.65519 11.569 9.37956 11.3859C9.10393 11.2027 8.8891 10.9424 8.76225 10.6379C8.63539 10.3333 8.6022 9.99824 8.66687 9.67493C8.73154 9.35163 8.89117 9.05466 9.12558 8.82157C9.35998 8.58849 9.65863 8.42975 9.98376 8.36544C10.3089 8.30113 10.6459 8.33414 10.9522 8.46028C11.2584 8.58643 11.5202 8.80005 11.7044 9.07413C11.8885 9.34822 11.9868 9.67045 11.9868 10.0001C11.9868 10.4421 11.8102 10.866 11.4959 11.1786C11.1816 11.4912 10.7553 11.6668 10.3107 11.6668Z" fill="#5B4DBE"/>
</svg>
