<svg width="230" height="217" viewBox="0 0 230 217" fill="none" xmlns="http://www.w3.org/2000/svg">
<g filter="url(#filter0_d_4666_34522)">
<g filter="url(#filter1_i_4666_34522)">
<rect x="15" y="7.54492" width="199.998" height="178.945" rx="4.21048" fill="url(#paint0_linear_4666_34522)"/>
</g>
<rect x="15.1754" y="7.72036" width="199.647" height="178.594" rx="4.03504" stroke="url(#paint1_linear_4666_34522)" stroke-width="0.350873"/>
<mask id="mask0_4666_34522" style="mask-type:alpha" maskUnits="userSpaceOnUse" x="15" y="7" width="200" height="180">
<rect x="15.1754" y="7.72036" width="199.647" height="178.594" rx="4.03504" fill="url(#paint2_linear_4666_34522)" stroke="url(#paint3_linear_4666_34522)" stroke-width="0.350873"/>
</mask>
<g mask="url(#mask0_4666_34522)">
<g filter="url(#filter2_f_4666_34522)">
<rect x="62.3677" y="129.451" width="105.262" height="68.9685" rx="4.21048" fill="url(#paint4_linear_4666_34522)"/>
</g>
</g>
<rect x="25.5264" y="50.7021" width="178.945" height="21.0524" rx="2.80698" fill="#F5F4F7"/>
<g clip-path="url(#clip0_4666_34522)">
<path d="M37.2839 58.4216V58.4215C37.2839 58.1313 37.5188 57.8952 37.8067 57.8952H39.8393L40.4897 58.5455L40.541 58.5969H40.6137H43.4207C43.7098 58.5969 43.947 58.8341 43.947 59.1232V62.6319C43.947 62.921 43.7098 63.1583 43.4207 63.1583H37.8067C37.5177 63.1583 37.2805 62.9211 37.2804 62.632C37.2804 62.632 37.2804 62.632 37.2804 62.6319L37.2839 58.4216Z" fill="#FDC453" stroke="black" stroke-width="0.350873"/>
</g>
<path d="M51.5317 58.711V62.7021H50.8437V58.711H51.5317ZM53.16 60.4571V61.0026H51.3563V60.4571H53.16ZM53.3875 58.711V59.2592H51.3563V58.711H53.3875ZM53.7397 61.2521V61.189C53.7397 60.9752 53.7708 60.7769 53.8329 60.5942C53.895 60.4096 53.9846 60.2497 54.1015 60.1145C54.2203 59.9774 54.3647 59.8714 54.5347 59.7965C54.7064 59.7197 54.9001 59.6814 55.1158 59.6814C55.3333 59.6814 55.527 59.7197 55.6969 59.7965C55.8687 59.8714 56.014 59.9774 56.1328 60.1145C56.2516 60.2497 56.342 60.4096 56.4041 60.5942C56.4663 60.7769 56.4973 60.9752 56.4973 61.189V61.2521C56.4973 61.4659 56.4663 61.6641 56.4041 61.8469C56.342 62.0296 56.2516 62.1895 56.1328 62.3266C56.014 62.4618 55.8696 62.5678 55.6997 62.6446C55.5297 62.7195 55.3369 62.757 55.1213 62.757C54.9038 62.757 54.7092 62.7195 54.5374 62.6446C54.3674 62.5678 54.2231 62.4618 54.1043 62.3266C53.9855 62.1895 53.895 62.0296 53.8329 61.8469C53.7708 61.6641 53.7397 61.4659 53.7397 61.2521ZM54.4003 61.189V61.2521C54.4003 61.3855 54.414 61.5116 54.4414 61.6303C54.4689 61.7491 54.5118 61.8533 54.5703 61.9428C54.6288 62.0324 54.7037 62.1027 54.7951 62.1539C54.8864 62.2051 54.9952 62.2307 55.1213 62.2307C55.2437 62.2307 55.3497 62.2051 55.4392 62.1539C55.5306 62.1027 55.6055 62.0324 55.664 61.9428C55.7225 61.8533 55.7654 61.7491 55.7929 61.6303C55.8221 61.5116 55.8367 61.3855 55.8367 61.2521V61.189C55.8367 61.0574 55.8221 60.9332 55.7929 60.8162C55.7654 60.6974 55.7216 60.5923 55.6613 60.501C55.6028 60.4096 55.5279 60.3383 55.4365 60.2872C55.347 60.2342 55.2401 60.2077 55.1158 60.2077C54.9915 60.2077 54.8837 60.2342 54.7923 60.2872C54.7028 60.3383 54.6288 60.4096 54.5703 60.501C54.5118 60.5923 54.4689 60.6974 54.4414 60.8162C54.414 60.9332 54.4003 61.0574 54.4003 61.189ZM57.8144 58.4917V62.7021H57.1511V58.4917H57.8144ZM60.4034 62.0881V58.4917H61.0668V62.7021H60.4665L60.4034 62.0881ZM58.4736 61.2521V61.1945C58.4736 60.9697 58.5001 60.765 58.5531 60.5805C58.6061 60.3941 58.6829 60.2342 58.7834 60.1008C58.8839 59.9655 59.0063 59.8623 59.1507 59.791C59.2951 59.7179 59.4577 59.6814 59.6386 59.6814C59.8177 59.6814 59.9749 59.7161 60.1101 59.7855C60.2454 59.855 60.3605 59.9546 60.4555 60.0843C60.5506 60.2122 60.6264 60.3657 60.683 60.5448C60.7397 60.7221 60.7799 60.9195 60.8037 61.1369V61.3206C60.7799 61.5326 60.7397 61.7263 60.683 61.9017C60.6264 62.0772 60.5506 62.2288 60.4555 62.3568C60.3605 62.4847 60.2445 62.5834 60.1074 62.6528C59.9722 62.7223 59.8141 62.757 59.6332 62.757C59.4541 62.757 59.2923 62.7195 59.148 62.6446C59.0054 62.5697 58.8839 62.4646 58.7834 62.3293C58.6829 62.1941 58.6061 62.0351 58.5531 61.8524C58.5001 61.6678 58.4736 61.4677 58.4736 61.2521ZM59.1343 61.1945V61.2521C59.1343 61.3873 59.1461 61.5134 59.1699 61.6303C59.1955 61.7473 59.2348 61.8506 59.2878 61.9401C59.3408 62.0278 59.4093 62.0973 59.4934 62.1484C59.5793 62.1978 59.6816 62.2224 59.8004 62.2224C59.9502 62.2224 60.0736 62.1895 60.1704 62.1238C60.2673 62.058 60.3431 61.9693 60.398 61.8579C60.4546 61.7446 60.493 61.6185 60.5131 61.4796V60.9834C60.5021 60.8756 60.4793 60.7751 60.4446 60.6819C60.4117 60.5887 60.3669 60.5074 60.3102 60.4379C60.2536 60.3666 60.1832 60.3118 60.0992 60.2734C60.0169 60.2332 59.9192 60.2131 59.8059 60.2131C59.6852 60.2131 59.5829 60.2387 59.4988 60.2899C59.4148 60.3411 59.3453 60.4114 59.2905 60.501C59.2375 60.5905 59.1982 60.6947 59.1726 60.8135C59.1471 60.9322 59.1343 61.0593 59.1343 61.1945ZM63.1213 62.757C62.902 62.757 62.7037 62.7213 62.5264 62.6501C62.351 62.577 62.2012 62.4755 62.0769 62.3458C61.9544 62.216 61.8603 62.0634 61.7945 61.888C61.7288 61.7126 61.6959 61.5234 61.6959 61.3206V61.2109C61.6959 60.9789 61.7297 60.7687 61.7973 60.5805C61.8649 60.3922 61.959 60.2314 62.0796 60.098C62.2002 59.9628 62.3428 59.8595 62.5073 59.7883C62.6717 59.717 62.8499 59.6814 63.0418 59.6814C63.2538 59.6814 63.4393 59.717 63.5982 59.7883C63.7572 59.8595 63.8888 59.96 63.993 60.0898C64.099 60.2177 64.1776 60.3703 64.2287 60.5476C64.2817 60.7248 64.3082 60.9204 64.3082 61.1342V61.4165H62.0166V60.9423H63.6558V60.8902C63.6522 60.7714 63.6284 60.66 63.5845 60.5558C63.5425 60.4516 63.4776 60.3676 63.3899 60.3036C63.3022 60.2396 63.1852 60.2077 63.039 60.2077C62.9294 60.2077 62.8316 60.2314 62.7457 60.2789C62.6617 60.3246 62.5913 60.3913 62.5347 60.479C62.478 60.5668 62.4342 60.6728 62.4031 60.797C62.3738 60.9195 62.3592 61.0574 62.3592 61.2109V61.3206C62.3592 61.4503 62.3766 61.5709 62.4113 61.6824C62.4479 61.7921 62.5009 61.888 62.5703 61.9702C62.6397 62.0525 62.7238 62.1174 62.8225 62.1649C62.9212 62.2106 63.0336 62.2334 63.1597 62.2334C63.3186 62.2334 63.4603 62.2014 63.5845 62.1375C63.7088 62.0735 63.8166 61.983 63.908 61.8661L64.2561 62.2033C64.1922 62.2965 64.109 62.386 64.0067 62.4719C63.9043 62.556 63.7792 62.6245 63.6311 62.6775C63.4849 62.7305 63.315 62.757 63.1213 62.757ZM65.5431 60.3009V62.7021H64.8824V59.7362H65.5129L65.5431 60.3009ZM66.4504 59.717L66.4449 60.331C66.4047 60.3237 66.3609 60.3182 66.3133 60.3146C66.2677 60.3109 66.222 60.3091 66.1763 60.3091C66.063 60.3091 65.9634 60.3255 65.8775 60.3584C65.7916 60.3895 65.7194 60.4352 65.6609 60.4955C65.6043 60.554 65.5604 60.6252 65.5294 60.7093C65.4983 60.7934 65.48 60.8875 65.4745 60.9916L65.3238 61.0026C65.3238 60.8162 65.3421 60.6435 65.3786 60.4845C65.4151 60.3255 65.47 60.1857 65.5431 60.0651C65.618 59.9445 65.7112 59.8504 65.8227 59.7828C65.936 59.7152 66.0666 59.6814 66.2147 59.6814C66.2549 59.6814 66.2978 59.685 66.3435 59.6923C66.391 59.6996 66.4267 59.7078 66.4504 59.717ZM70.1399 58.6973V62.7021H69.4793V59.4812L68.5007 59.8129V59.2674L70.0605 58.6973H70.1399Z" fill="#2A292F"/>
<rect x="25.5264" y="77.3682" width="178.945" height="21.0524" rx="2.80698" fill="#F5F4F7"/>
<g clip-path="url(#clip1_4666_34522)">
<path d="M37.2839 85.0876V85.0875C37.2839 84.7973 37.5188 84.5612 37.8067 84.5612H39.8393L40.4897 85.2115L40.541 85.2629H40.6137H43.4207C43.7098 85.2629 43.947 85.5002 43.947 85.7892V89.298C43.947 89.587 43.7098 89.8243 43.4207 89.8243H37.8067C37.5177 89.8243 37.2805 89.5871 37.2804 89.298C37.2804 89.298 37.2804 89.298 37.2804 89.298L37.2839 85.0876Z" fill="#FDC453" stroke="black" stroke-width="0.350873"/>
</g>
<path d="M51.5317 85.377V89.3682H50.8437V85.377H51.5317ZM53.16 87.1231V87.6686H51.3563V87.1231H53.16ZM53.3875 85.377V85.9252H51.3563V85.377H53.3875ZM53.7397 87.9181V87.855C53.7397 87.6412 53.7708 87.4429 53.8329 87.2602C53.895 87.0756 53.9846 86.9157 54.1015 86.7805C54.2203 86.6434 54.3647 86.5374 54.5347 86.4625C54.7064 86.3857 54.9001 86.3474 55.1158 86.3474C55.3333 86.3474 55.527 86.3857 55.6969 86.4625C55.8687 86.5374 56.014 86.6434 56.1328 86.7805C56.2516 86.9157 56.342 87.0756 56.4041 87.2602C56.4663 87.4429 56.4973 87.6412 56.4973 87.855V87.9181C56.4973 88.1319 56.4663 88.3302 56.4041 88.5129C56.342 88.6957 56.2516 88.8556 56.1328 88.9926C56.014 89.1279 55.8696 89.2338 55.6997 89.3106C55.5297 89.3855 55.3369 89.423 55.1213 89.423C54.9038 89.423 54.7092 89.3855 54.5374 89.3106C54.3674 89.2338 54.2231 89.1279 54.1043 88.9926C53.9855 88.8556 53.895 88.6957 53.8329 88.5129C53.7708 88.3302 53.7397 88.1319 53.7397 87.9181ZM54.4003 87.855V87.9181C54.4003 88.0515 54.414 88.1776 54.4414 88.2964C54.4689 88.4151 54.5118 88.5193 54.5703 88.6089C54.6288 88.6984 54.7037 88.7688 54.7951 88.8199C54.8864 88.8711 54.9952 88.8967 55.1213 88.8967C55.2437 88.8967 55.3497 88.8711 55.4392 88.8199C55.5306 88.7688 55.6055 88.6984 55.664 88.6089C55.7225 88.5193 55.7654 88.4151 55.7929 88.2964C55.8221 88.1776 55.8367 88.0515 55.8367 87.9181V87.855C55.8367 87.7234 55.8221 87.5992 55.7929 87.4822C55.7654 87.3634 55.7216 87.2584 55.6613 87.167C55.6028 87.0756 55.5279 87.0043 55.4365 86.9532C55.347 86.9002 55.2401 86.8737 55.1158 86.8737C54.9915 86.8737 54.8837 86.9002 54.7923 86.9532C54.7028 87.0043 54.6288 87.0756 54.5703 87.167C54.5118 87.2584 54.4689 87.3634 54.4414 87.4822C54.414 87.5992 54.4003 87.7234 54.4003 87.855ZM57.8144 85.1577V89.3682H57.1511V85.1577H57.8144ZM60.4034 88.7541V85.1577H61.0668V89.3682H60.4665L60.4034 88.7541ZM58.4736 87.9181V87.8605C58.4736 87.6357 58.5001 87.4311 58.5531 87.2465C58.6061 87.0601 58.6829 86.9002 58.7834 86.7668C58.8839 86.6315 59.0063 86.5283 59.1507 86.457C59.2951 86.3839 59.4577 86.3474 59.6386 86.3474C59.8177 86.3474 59.9749 86.3821 60.1101 86.4515C60.2454 86.521 60.3605 86.6206 60.4555 86.7503C60.5506 86.8782 60.6264 87.0318 60.683 87.2108C60.7397 87.3881 60.7799 87.5855 60.8037 87.8029V87.9866C60.7799 88.1986 60.7397 88.3923 60.683 88.5677C60.6264 88.7432 60.5506 88.8949 60.4555 89.0228C60.3605 89.1507 60.2445 89.2494 60.1074 89.3188C59.9722 89.3883 59.8141 89.423 59.6332 89.423C59.4541 89.423 59.2923 89.3855 59.148 89.3106C59.0054 89.2357 58.8839 89.1306 58.7834 88.9954C58.6829 88.8601 58.6061 88.7011 58.5531 88.5184C58.5001 88.3338 58.4736 88.1337 58.4736 87.9181ZM59.1343 87.8605V87.9181C59.1343 88.0533 59.1461 88.1794 59.1699 88.2964C59.1955 88.4133 59.2348 88.5166 59.2878 88.6061C59.3408 88.6938 59.4093 88.7633 59.4934 88.8144C59.5793 88.8638 59.6816 88.8885 59.8004 88.8885C59.9502 88.8885 60.0736 88.8556 60.1704 88.7898C60.2673 88.724 60.3431 88.6354 60.398 88.5239C60.4546 88.4106 60.493 88.2845 60.5131 88.1456V87.6494C60.5021 87.5416 60.4793 87.4411 60.4446 87.3479C60.4117 87.2547 60.3669 87.1734 60.3102 87.1039C60.2536 87.0327 60.1832 86.9778 60.0992 86.9395C60.0169 86.8993 59.9192 86.8792 59.8059 86.8792C59.6852 86.8792 59.5829 86.9047 59.4988 86.9559C59.4148 87.0071 59.3453 87.0774 59.2905 87.167C59.2375 87.2565 59.1982 87.3607 59.1726 87.4795C59.1471 87.5983 59.1343 87.7253 59.1343 87.8605ZM63.1213 89.423C62.902 89.423 62.7037 89.3874 62.5264 89.3161C62.351 89.243 62.2012 89.1416 62.0769 89.0118C61.9544 88.8821 61.8603 88.7295 61.7945 88.554C61.7288 88.3786 61.6959 88.1894 61.6959 87.9866V87.877C61.6959 87.6449 61.7297 87.4347 61.7973 87.2465C61.8649 87.0582 61.959 86.8974 62.0796 86.764C62.2002 86.6288 62.3428 86.5255 62.5073 86.4543C62.6717 86.383 62.8499 86.3474 63.0418 86.3474C63.2538 86.3474 63.4393 86.383 63.5982 86.4543C63.7572 86.5255 63.8888 86.6261 63.993 86.7558C64.099 86.8837 64.1776 87.0363 64.2287 87.2136C64.2817 87.3908 64.3082 87.5864 64.3082 87.8002V88.0825H62.0166V87.6083H63.6558V87.5562C63.6522 87.4374 63.6284 87.326 63.5845 87.2218C63.5425 87.1176 63.4776 87.0336 63.3899 86.9696C63.3022 86.9057 63.1852 86.8737 63.039 86.8737C62.9294 86.8737 62.8316 86.8974 62.7457 86.9449C62.6617 86.9906 62.5913 87.0573 62.5347 87.1451C62.478 87.2328 62.4342 87.3388 62.4031 87.463C62.3738 87.5855 62.3592 87.7234 62.3592 87.877V87.9866C62.3592 88.1164 62.3766 88.237 62.4113 88.3484C62.4479 88.4581 62.5009 88.554 62.5703 88.6363C62.6397 88.7185 62.7238 88.7834 62.8225 88.8309C62.9212 88.8766 63.0336 88.8994 63.1597 88.8994C63.3186 88.8994 63.4603 88.8674 63.5845 88.8035C63.7088 88.7395 63.8166 88.6491 63.908 88.5321L64.2561 88.8693C64.1922 88.9625 64.109 89.052 64.0067 89.1379C63.9043 89.222 63.7792 89.2905 63.6311 89.3435C63.4849 89.3965 63.315 89.423 63.1213 89.423ZM65.5431 86.9669V89.3682H64.8824V86.4022H65.5129L65.5431 86.9669ZM66.4504 86.383L66.4449 86.997C66.4047 86.9897 66.3609 86.9842 66.3133 86.9806C66.2677 86.9769 66.222 86.9751 66.1763 86.9751C66.063 86.9751 65.9634 86.9915 65.8775 87.0244C65.7916 87.0555 65.7194 87.1012 65.6609 87.1615C65.6043 87.22 65.5604 87.2913 65.5294 87.3753C65.4983 87.4594 65.48 87.5535 65.4745 87.6577L65.3238 87.6686C65.3238 87.4822 65.3421 87.3095 65.3786 87.1505C65.4151 86.9915 65.47 86.8517 65.5431 86.7311C65.618 86.6105 65.7112 86.5164 65.8227 86.4488C65.936 86.3812 66.0666 86.3474 66.2147 86.3474C66.2549 86.3474 66.2978 86.351 66.3435 86.3583C66.391 86.3656 66.4267 86.3739 66.4504 86.383ZM71.0116 88.8419V89.3682H68.3362V88.9159L69.6356 87.4987C69.7781 87.3379 69.8905 87.199 69.9727 87.082C70.055 86.965 70.1125 86.86 70.1454 86.7668C70.1802 86.6717 70.1975 86.5795 70.1975 86.4899C70.1975 86.3638 70.1738 86.2533 70.1262 86.1582C70.0806 86.0614 70.0129 85.9855 69.9234 85.9307C69.8338 85.8741 69.7251 85.8457 69.5972 85.8457C69.4492 85.8457 69.3249 85.8777 69.2244 85.9417C69.1239 86.0056 69.048 86.0943 68.9969 86.2076C68.9457 86.319 68.9201 86.447 68.9201 86.5913H68.2595C68.2595 86.3592 68.3125 86.1473 68.4185 85.9554C68.5245 85.7617 68.678 85.6082 68.879 85.4949C69.08 85.3797 69.3222 85.3222 69.6054 85.3222C69.8722 85.3222 70.0988 85.3669 70.2852 85.4565C70.4716 85.546 70.6133 85.673 70.7101 85.8375C70.8088 86.002 70.8581 86.1966 70.8581 86.4214C70.8581 86.5456 70.838 86.669 70.7978 86.7914C70.7576 86.9139 70.7001 87.0363 70.6251 87.1588C70.552 87.2794 70.4652 87.4009 70.3647 87.5233C70.2642 87.644 70.1537 87.7664 70.033 87.8907L69.1696 88.8419H71.0116Z" fill="#2A292F"/>
<rect x="25.5264" y="104.035" width="178.945" height="21.0524" rx="2.80698" fill="#F5F4F7"/>
<g clip-path="url(#clip2_4666_34522)">
<path d="M37.2839 111.755V111.754C37.2839 111.464 37.5188 111.228 37.8067 111.228H39.8393L40.4897 111.879L40.541 111.93H40.6137H43.4207C43.7098 111.93 43.947 112.167 43.947 112.456V115.965C43.947 116.254 43.7098 116.491 43.4207 116.491H37.8067C37.5177 116.491 37.2805 116.254 37.2804 115.965C37.2804 115.965 37.2804 115.965 37.2804 115.965L37.2839 111.755Z" fill="#FDC453" stroke="black" stroke-width="0.350873"/>
</g>
<path d="M51.5317 112.044V116.035H50.8437V112.044H51.5317ZM53.16 113.79V114.336H51.3563V113.79H53.16ZM53.3875 112.044V112.592H51.3563V112.044H53.3875ZM53.7397 114.585V114.522C53.7397 114.308 53.7708 114.11 53.8329 113.927C53.895 113.743 53.9846 113.583 54.1015 113.447C54.2203 113.31 54.3647 113.204 54.5347 113.129C54.7064 113.053 54.9001 113.014 55.1158 113.014C55.3333 113.014 55.527 113.053 55.6969 113.129C55.8687 113.204 56.014 113.31 56.1328 113.447C56.2516 113.583 56.342 113.743 56.4041 113.927C56.4663 114.11 56.4973 114.308 56.4973 114.522V114.585C56.4973 114.799 56.4663 114.997 56.4041 115.18C56.342 115.363 56.2516 115.523 56.1328 115.66C56.014 115.795 55.8696 115.901 55.6997 115.978C55.5297 116.053 55.3369 116.09 55.1213 116.09C54.9038 116.09 54.7092 116.053 54.5374 115.978C54.3674 115.901 54.2231 115.795 54.1043 115.66C53.9855 115.523 53.895 115.363 53.8329 115.18C53.7708 114.997 53.7397 114.799 53.7397 114.585ZM54.4003 114.522V114.585C54.4003 114.718 54.414 114.845 54.4414 114.963C54.4689 115.082 54.5118 115.186 54.5703 115.276C54.6288 115.365 54.7037 115.436 54.7951 115.487C54.8864 115.538 54.9952 115.564 55.1213 115.564C55.2437 115.564 55.3497 115.538 55.4392 115.487C55.5306 115.436 55.6055 115.365 55.664 115.276C55.7225 115.186 55.7654 115.082 55.7929 114.963C55.8221 114.845 55.8367 114.718 55.8367 114.585V114.522C55.8367 114.39 55.8221 114.266 55.7929 114.149C55.7654 114.03 55.7216 113.925 55.6613 113.834C55.6028 113.743 55.5279 113.671 55.4365 113.62C55.347 113.567 55.2401 113.541 55.1158 113.541C54.9915 113.541 54.8837 113.567 54.7923 113.62C54.7028 113.671 54.6288 113.743 54.5703 113.834C54.5118 113.925 54.4689 114.03 54.4414 114.149C54.414 114.266 54.4003 114.39 54.4003 114.522ZM57.8144 111.825V116.035H57.1511V111.825H57.8144ZM60.4034 115.421V111.825H61.0668V116.035H60.4665L60.4034 115.421ZM58.4736 114.585V114.527C58.4736 114.303 58.5001 114.098 58.5531 113.913C58.6061 113.727 58.6829 113.567 58.7834 113.434C58.8839 113.299 59.0063 113.195 59.1507 113.124C59.2951 113.051 59.4577 113.014 59.6386 113.014C59.8177 113.014 59.9749 113.049 60.1101 113.119C60.2454 113.188 60.3605 113.288 60.4555 113.417C60.5506 113.545 60.6264 113.699 60.683 113.878C60.7397 114.055 60.7799 114.252 60.8037 114.47V114.654C60.7799 114.866 60.7397 115.059 60.683 115.235C60.6264 115.41 60.5506 115.562 60.4555 115.69C60.3605 115.818 60.2445 115.916 60.1074 115.986C59.9722 116.055 59.8141 116.09 59.6332 116.09C59.4541 116.09 59.2923 116.053 59.148 115.978C59.0054 115.903 58.8839 115.798 58.7834 115.662C58.6829 115.527 58.6061 115.368 58.5531 115.185C58.5001 115.001 58.4736 114.801 58.4736 114.585ZM59.1343 114.527V114.585C59.1343 114.72 59.1461 114.846 59.1699 114.963C59.1955 115.08 59.2348 115.184 59.2878 115.273C59.3408 115.361 59.4093 115.43 59.4934 115.481C59.5793 115.531 59.6816 115.555 59.8004 115.555C59.9502 115.555 60.0736 115.523 60.1704 115.457C60.2673 115.391 60.3431 115.302 60.398 115.191C60.4546 115.078 60.493 114.951 60.5131 114.813V114.316C60.5021 114.209 60.4793 114.108 60.4446 114.015C60.4117 113.922 60.3669 113.84 60.3102 113.771C60.2536 113.7 60.1832 113.645 60.0992 113.606C60.0169 113.566 59.9192 113.546 59.8059 113.546C59.6852 113.546 59.5829 113.572 59.4988 113.623C59.4148 113.674 59.3453 113.744 59.2905 113.834C59.2375 113.924 59.1982 114.028 59.1726 114.146C59.1471 114.265 59.1343 114.392 59.1343 114.527ZM63.1213 116.09C62.902 116.09 62.7037 116.054 62.5264 115.983C62.351 115.91 62.2012 115.809 62.0769 115.679C61.9544 115.549 61.8603 115.396 61.7945 115.221C61.7288 115.046 61.6959 114.856 61.6959 114.654V114.544C61.6959 114.312 61.7297 114.102 61.7973 113.913C61.8649 113.725 61.959 113.564 62.0796 113.431C62.2002 113.296 62.3428 113.193 62.5073 113.121C62.6717 113.05 62.8499 113.014 63.0418 113.014C63.2538 113.014 63.4393 113.05 63.5982 113.121C63.7572 113.193 63.8888 113.293 63.993 113.423C64.099 113.551 64.1776 113.703 64.2287 113.881C64.2817 114.058 64.3082 114.253 64.3082 114.467V114.75H62.0166V114.275H63.6558V114.223C63.6522 114.104 63.6284 113.993 63.5845 113.889C63.5425 113.785 63.4776 113.701 63.3899 113.637C63.3022 113.573 63.1852 113.541 63.039 113.541C62.9294 113.541 62.8316 113.564 62.7457 113.612C62.6617 113.658 62.5913 113.724 62.5347 113.812C62.478 113.9 62.4342 114.006 62.4031 114.13C62.3738 114.252 62.3592 114.39 62.3592 114.544V114.654C62.3592 114.783 62.3766 114.904 62.4113 115.015C62.4479 115.125 62.5009 115.221 62.5703 115.303C62.6397 115.385 62.7238 115.45 62.8225 115.498C62.9212 115.544 63.0336 115.566 63.1597 115.566C63.3186 115.566 63.4603 115.534 63.5845 115.47C63.7088 115.407 63.8166 115.316 63.908 115.199L64.2561 115.536C64.1922 115.629 64.109 115.719 64.0067 115.805C63.9043 115.889 63.7792 115.957 63.6311 116.01C63.4849 116.063 63.315 116.09 63.1213 116.09ZM65.5431 113.634V116.035H64.8824V113.069H65.5129L65.5431 113.634ZM66.4504 113.05L66.4449 113.664C66.4047 113.657 66.3609 113.651 66.3133 113.648C66.2677 113.644 66.222 113.642 66.1763 113.642C66.063 113.642 65.9634 113.659 65.8775 113.691C65.7916 113.723 65.7194 113.768 65.6609 113.828C65.6043 113.887 65.5604 113.958 65.5294 114.042C65.4983 114.126 65.48 114.22 65.4745 114.325L65.3238 114.336C65.3238 114.149 65.3421 113.977 65.3786 113.818C65.4151 113.659 65.47 113.519 65.5431 113.398C65.618 113.278 65.7112 113.183 65.8227 113.116C65.936 113.048 66.0666 113.014 66.2147 113.014C66.2549 113.014 66.2978 113.018 66.3435 113.025C66.391 113.033 66.4267 113.041 66.4504 113.05ZM69.112 113.741H69.5067C69.6602 113.741 69.7872 113.714 69.8878 113.661C69.9901 113.608 70.0659 113.535 70.1153 113.442C70.1646 113.349 70.1893 113.242 70.1893 113.121C70.1893 112.995 70.1664 112.887 70.1208 112.798C70.0769 112.706 70.0093 112.636 69.9179 112.587C69.8284 112.537 69.7141 112.513 69.5753 112.513C69.4583 112.513 69.3523 112.536 69.2573 112.584C69.1641 112.63 69.0901 112.695 69.0352 112.781C68.9804 112.865 68.953 112.966 68.953 113.083H68.2896C68.2896 112.871 68.3454 112.683 68.4569 112.518C68.5683 112.354 68.72 112.225 68.9119 112.132C69.1056 112.037 69.3231 111.989 69.5643 111.989C69.822 111.989 70.0467 112.032 70.2386 112.118C70.4323 112.202 70.5831 112.328 70.6909 112.496C70.7987 112.664 70.8527 112.873 70.8527 113.121C70.8527 113.235 70.8262 113.35 70.7732 113.467C70.7202 113.584 70.6416 113.691 70.5374 113.787C70.4333 113.882 70.3035 113.96 70.1482 114.02C69.9928 114.079 69.8128 114.108 69.6082 114.108H69.112V113.741ZM69.112 114.256V113.894H69.6082C69.8421 113.894 70.0413 113.922 70.2057 113.977C70.372 114.031 70.5073 114.107 70.6114 114.204C70.7156 114.299 70.7914 114.408 70.839 114.53C70.8883 114.653 70.913 114.782 70.913 114.919C70.913 115.106 70.8792 115.272 70.8115 115.418C70.7458 115.563 70.6516 115.685 70.5292 115.786C70.4068 115.886 70.2633 115.962 70.0988 116.013C69.9362 116.064 69.7589 116.09 69.567 116.09C69.3953 116.09 69.2308 116.066 69.0736 116.019C68.9165 115.971 68.7757 115.901 68.6515 115.808C68.5272 115.713 68.4285 115.595 68.3554 115.454C68.2842 115.311 68.2485 115.147 68.2485 114.961H68.9091C68.9091 115.079 68.9366 115.184 68.9914 115.276C69.048 115.365 69.1266 115.436 69.2271 115.487C69.3295 115.538 69.4464 115.564 69.578 115.564C69.7169 115.564 69.8366 115.539 69.9371 115.49C70.0376 115.44 70.1144 115.367 70.1674 115.27C70.2222 115.174 70.2496 115.057 70.2496 114.919C70.2496 114.764 70.2194 114.638 70.1591 114.541C70.0988 114.444 70.0129 114.373 69.9015 114.327C69.79 114.28 69.6584 114.256 69.5067 114.256H69.112Z" fill="#2A292F"/>
<path d="M26.6201 41.4834V45.4746H25.9321V41.4834H26.6201ZM28.2484 43.2296V43.7751H26.4447V43.2296H28.2484ZM28.4759 41.4834V42.0317H26.4447V41.4834H28.4759ZM28.8281 44.0245V43.9615C28.8281 43.7477 28.8591 43.5494 28.9213 43.3666C28.9834 43.1821 29.073 43.0222 29.1899 42.8869C29.3087 42.7499 29.4531 42.6439 29.623 42.5689C29.7948 42.4922 29.9885 42.4538 30.2042 42.4538C30.4216 42.4538 30.6153 42.4922 30.7853 42.5689C30.9571 42.6439 31.1024 42.7499 31.2211 42.8869C31.3399 43.0222 31.4304 43.1821 31.4925 43.3666C31.5547 43.5494 31.5857 43.7477 31.5857 43.9615V44.0245C31.5857 44.2383 31.5547 44.4366 31.4925 44.6194C31.4304 44.8021 31.3399 44.962 31.2211 45.0991C31.1024 45.2343 30.958 45.3403 30.788 45.417C30.6181 45.492 30.4253 45.5294 30.2096 45.5294C29.9922 45.5294 29.7976 45.492 29.6258 45.417C29.4558 45.3403 29.3114 45.2343 29.1927 45.0991C29.0739 44.962 28.9834 44.8021 28.9213 44.6194C28.8591 44.4366 28.8281 44.2383 28.8281 44.0245ZM29.4887 43.9615V44.0245C29.4887 44.1579 29.5024 44.284 29.5298 44.4028C29.5572 44.5216 29.6002 44.6258 29.6587 44.7153C29.7171 44.8048 29.7921 44.8752 29.8834 44.9264C29.9748 44.9775 30.0835 45.0031 30.2096 45.0031C30.3321 45.0031 30.4381 44.9775 30.5276 44.9264C30.619 44.8752 30.6939 44.8048 30.7524 44.7153C30.8109 44.6258 30.8538 44.5216 30.8812 44.4028C30.9105 44.284 30.9251 44.1579 30.9251 44.0245V43.9615C30.9251 43.8299 30.9105 43.7056 30.8812 43.5887C30.8538 43.4699 30.81 43.3648 30.7497 43.2734C30.6912 43.1821 30.6163 43.1108 30.5249 43.0596C30.4353 43.0066 30.3284 42.9801 30.2042 42.9801C30.0799 42.9801 29.9721 43.0066 29.8807 43.0596C29.7912 43.1108 29.7171 43.1821 29.6587 43.2734C29.6002 43.3648 29.5572 43.4699 29.5298 43.5887C29.5024 43.7056 29.4887 43.8299 29.4887 43.9615ZM32.9028 41.2641V45.4746H32.2394V41.2641H32.9028ZM35.4918 44.8606V41.2641H36.1552V45.4746H35.5549L35.4918 44.8606ZM33.562 44.0245V43.967C33.562 43.7422 33.5885 43.5375 33.6415 43.3529C33.6945 43.1665 33.7713 43.0066 33.8718 42.8732C33.9723 42.738 34.0947 42.6347 34.2391 42.5635C34.3835 42.4904 34.5461 42.4538 34.727 42.4538C34.9061 42.4538 35.0633 42.4885 35.1985 42.558C35.3337 42.6274 35.4489 42.727 35.5439 42.8568C35.6389 42.9847 35.7148 43.1382 35.7714 43.3173C35.8281 43.4946 35.8683 43.6919 35.892 43.9094V44.093C35.8683 44.305 35.8281 44.4987 35.7714 44.6742C35.7148 44.8496 35.6389 45.0013 35.5439 45.1292C35.4489 45.2571 35.3328 45.3558 35.1958 45.4253C35.0605 45.4947 34.9025 45.5294 34.7215 45.5294C34.5425 45.5294 34.3807 45.492 34.2364 45.417C34.0938 45.3421 33.9723 45.237 33.8718 45.1018C33.7713 44.9666 33.6945 44.8076 33.6415 44.6248C33.5885 44.4403 33.562 44.2402 33.562 44.0245ZM34.2226 43.967V44.0245C34.2226 44.1597 34.2345 44.2858 34.2583 44.4028C34.2839 44.5198 34.3232 44.623 34.3762 44.7126C34.4291 44.8003 34.4977 44.8697 34.5817 44.9209C34.6676 44.9702 34.77 44.9949 34.8888 44.9949C35.0386 44.9949 35.162 44.962 35.2588 44.8962C35.3557 44.8304 35.4315 44.7418 35.4863 44.6303C35.543 44.517 35.5814 44.3909 35.6015 44.252V43.7559C35.5905 43.6481 35.5677 43.5475 35.5329 43.4543C35.5 43.3611 35.4553 43.2798 35.3986 43.2104C35.342 43.1391 35.2716 43.0843 35.1875 43.0459C35.1053 43.0057 35.0075 42.9856 34.8942 42.9856C34.7736 42.9856 34.6713 43.0112 34.5872 43.0624C34.5032 43.1135 34.4337 43.1839 34.3789 43.2734C34.3259 43.363 34.2866 43.4671 34.261 43.5859C34.2354 43.7047 34.2226 43.8317 34.2226 43.967ZM38.2097 45.5294C37.9904 45.5294 37.7921 45.4938 37.6148 45.4225C37.4394 45.3494 37.2895 45.248 37.1653 45.1183C37.0428 44.9885 36.9487 44.8359 36.8829 44.6605C36.8171 44.485 36.7842 44.2959 36.7842 44.093V43.9834C36.7842 43.7513 36.818 43.5412 36.8857 43.3529C36.9533 43.1647 37.0474 43.0039 37.168 42.8705C37.2886 42.7352 37.4312 42.632 37.5956 42.5607C37.7601 42.4894 37.9383 42.4538 38.1302 42.4538C38.3422 42.4538 38.5276 42.4894 38.6866 42.5607C38.8456 42.632 38.9772 42.7325 39.0814 42.8623C39.1874 42.9902 39.2659 43.1428 39.3171 43.32C39.3701 43.4973 39.3966 43.6928 39.3966 43.9066V44.189H37.105V43.7148H38.7442V43.6627C38.7405 43.5439 38.7168 43.4324 38.6729 43.3283C38.6309 43.2241 38.566 43.14 38.4783 43.0761C38.3906 43.0121 38.2736 42.9801 38.1274 42.9801C38.0178 42.9801 37.92 43.0039 37.8341 43.0514C37.7501 43.0971 37.6797 43.1638 37.623 43.2515C37.5664 43.3392 37.5225 43.4452 37.4915 43.5695C37.4622 43.6919 37.4476 43.8299 37.4476 43.9834V44.093C37.4476 44.2228 37.465 44.3434 37.4997 44.4549C37.5362 44.5645 37.5892 44.6605 37.6587 44.7427C37.7281 44.8249 37.8122 44.8898 37.9109 44.9373C38.0096 44.983 38.1219 45.0059 38.248 45.0059C38.407 45.0059 38.5487 44.9739 38.6729 44.9099C38.7972 44.846 38.905 44.7555 38.9964 44.6385L39.3445 44.9757C39.2806 45.0689 39.1974 45.1585 39.0951 45.2443C38.9927 45.3284 38.8675 45.3969 38.7195 45.4499C38.5733 45.5029 38.4034 45.5294 38.2097 45.5294ZM40.6315 43.0733V45.4746H39.9708V42.5086H40.6013L40.6315 43.0733ZM41.5388 42.4894L41.5333 43.1035C41.4931 43.0962 41.4492 43.0907 41.4017 43.087C41.356 43.0834 41.3104 43.0815 41.2647 43.0815C41.1514 43.0815 41.0518 43.098 40.9659 43.1309C40.88 43.162 40.8078 43.2076 40.7493 43.2679C40.6927 43.3264 40.6488 43.3977 40.6177 43.4818C40.5867 43.5658 40.5684 43.6599 40.5629 43.7641L40.4122 43.7751C40.4122 43.5887 40.4304 43.416 40.467 43.257C40.5035 43.098 40.5584 42.9582 40.6315 42.8376C40.7064 42.717 40.7996 42.6229 40.9111 42.5552C41.0244 42.4876 41.155 42.4538 41.303 42.4538C41.3432 42.4538 41.3862 42.4575 41.4319 42.4648C41.4794 42.4721 41.515 42.4803 41.5388 42.4894ZM43.6728 44.6714C43.6728 44.6057 43.6563 44.5463 43.6234 44.4933C43.5905 44.4384 43.5275 44.3891 43.4343 44.3452C43.3429 44.3014 43.2077 44.2612 43.0286 44.2246C42.8714 44.1899 42.727 44.1488 42.5955 44.1013C42.4657 44.0519 42.3542 43.9925 42.261 43.9231C42.1678 43.8536 42.0957 43.7714 42.0445 43.6764C41.9933 43.5814 41.9677 43.4717 41.9677 43.3474C41.9677 43.2268 41.9942 43.1126 42.0472 43.0048C42.1002 42.897 42.1761 42.8019 42.2747 42.7197C42.3734 42.6375 42.4931 42.5726 42.6338 42.5251C42.7764 42.4776 42.9354 42.4538 43.1108 42.4538C43.3593 42.4538 43.5722 42.4958 43.7495 42.5799C43.9286 42.6621 44.0657 42.7745 44.1607 42.9171C44.2557 43.0578 44.3032 43.2168 44.3032 43.394H43.6426C43.6426 43.3155 43.6225 43.2424 43.5823 43.1747C43.5439 43.1053 43.4854 43.0496 43.4069 43.0075C43.3283 42.9637 43.2296 42.9417 43.1108 42.9417C42.9975 42.9417 42.9034 42.96 42.8285 42.9966C42.7554 43.0313 42.7005 43.077 42.664 43.1336C42.6293 43.1903 42.6119 43.2524 42.6119 43.32C42.6119 43.3694 42.621 43.4141 42.6393 43.4543C42.6594 43.4927 42.6923 43.5284 42.738 43.5613C42.7837 43.5923 42.8458 43.6216 42.9244 43.649C43.0048 43.6764 43.1053 43.7029 43.2259 43.7285C43.4525 43.776 43.6472 43.8372 43.8098 43.9121C43.9743 43.9852 44.1004 44.0803 44.1881 44.1972C44.2758 44.3123 44.3197 44.4585 44.3197 44.6358C44.3197 44.7674 44.2913 44.888 44.2347 44.9976C44.1799 45.1055 44.0995 45.1996 43.9935 45.28C43.8875 45.3586 43.7605 45.4198 43.6124 45.4636C43.4662 45.5075 43.3018 45.5294 43.119 45.5294C42.8504 45.5294 42.6229 45.4819 42.4365 45.3869C42.2501 45.29 42.1084 45.1667 42.0116 45.0168C41.9166 44.8652 41.869 44.708 41.869 44.5453H42.5077C42.5151 44.6678 42.5489 44.7656 42.6092 44.8387C42.6713 44.9099 42.7481 44.962 42.8394 44.9949C42.9326 45.026 43.0286 45.0415 43.1273 45.0415C43.246 45.0415 43.3456 45.026 43.426 44.9949C43.5065 44.962 43.5677 44.9181 43.6097 44.8633C43.6517 44.8067 43.6728 44.7427 43.6728 44.6714Z" fill="#2A292F"/>
<path d="M26.8067 22.1922H28.0252L29.8193 27.3203L31.6134 22.1922H32.8319L30.3086 29.1768H29.33L26.8067 22.1922ZM26.1495 22.1922H27.3632L27.5838 27.1908V29.1768H26.1495V22.1922ZM32.2754 22.1922H33.4938V29.1768H32.0547V27.1908L32.2754 22.1922ZM34.5362 26.6343V26.5336C34.5362 26.153 34.5906 25.8028 34.6993 25.483C34.808 25.16 34.9663 24.8802 35.1742 24.6435C35.3821 24.4068 35.6379 24.223 35.9417 24.0918C36.2456 23.9575 36.5941 23.8904 36.9875 23.8904C37.3809 23.8904 37.7311 23.9575 38.0381 24.0918C38.3451 24.223 38.6025 24.4068 38.8104 24.6435C39.0215 24.8802 39.1814 25.16 39.2901 25.483C39.3988 25.8028 39.4532 26.153 39.4532 26.5336V26.6343C39.4532 27.0117 39.3988 27.3619 39.2901 27.6849C39.1814 28.0047 39.0215 28.2845 38.8104 28.5244C38.6025 28.761 38.3467 28.9449 38.0429 29.076C37.739 29.2071 37.3905 29.2727 36.9971 29.2727C36.6037 29.2727 36.2535 29.2071 35.9465 29.076C35.6427 28.9449 35.3853 28.761 35.1742 28.5244C34.9663 28.2845 34.808 28.0047 34.6993 27.6849C34.5906 27.3619 34.5362 27.0117 34.5362 26.6343ZM35.9178 26.5336V26.6343C35.9178 26.8518 35.9369 27.0548 35.9753 27.2435C36.0137 27.4322 36.0745 27.5985 36.1576 27.7424C36.244 27.8831 36.3559 27.9935 36.4934 28.0734C36.6309 28.1534 36.7988 28.1934 36.9971 28.1934C37.189 28.1934 37.3537 28.1534 37.4912 28.0734C37.6287 27.9935 37.739 27.8831 37.8222 27.7424C37.9053 27.5985 37.9661 27.4322 38.0045 27.2435C38.0461 27.0548 38.0668 26.8518 38.0668 26.6343V26.5336C38.0668 26.3225 38.0461 26.1242 38.0045 25.9387C37.9661 25.75 37.9037 25.5837 37.8174 25.4398C37.7343 25.2927 37.6239 25.1776 37.4864 25.0944C37.3489 25.0113 37.1826 24.9697 36.9875 24.9697C36.7924 24.9697 36.6261 25.0113 36.4886 25.0944C36.3543 25.1776 36.244 25.2927 36.1576 25.4398C36.0745 25.5837 36.0137 25.75 35.9753 25.9387C35.9369 26.1242 35.9178 26.3225 35.9178 26.5336ZM42.0786 28.1694L43.2299 23.9863H44.6738L42.9229 29.1768H42.0498L42.0786 28.1694ZM41.2871 23.9863L42.4432 28.1742L42.4672 29.1768H41.5893L39.8383 23.9863H41.2871ZM47.7022 29.2727C47.2992 29.2727 46.9378 29.2087 46.618 29.0808C46.2982 28.9497 46.0264 28.769 45.8025 28.5387C45.5818 28.3085 45.4123 28.0414 45.294 27.7376C45.1757 27.4306 45.1165 27.1044 45.1165 26.759V26.5671C45.1165 26.1738 45.1725 25.814 45.2844 25.4878C45.3963 25.1616 45.5563 24.8786 45.7641 24.6387C45.9752 24.3989 46.231 24.215 46.5317 24.087C46.8323 23.9559 47.1713 23.8904 47.5486 23.8904C47.9164 23.8904 48.2426 23.9511 48.5273 24.0727C48.8119 24.1942 49.0501 24.3669 49.242 24.5907C49.4371 24.8146 49.5842 25.0832 49.6833 25.3966C49.7825 25.7069 49.8321 26.0523 49.8321 26.4328V27.0085H45.7066V26.0874H48.4745V25.9819C48.4745 25.79 48.4393 25.6189 48.3689 25.4686C48.3018 25.3151 48.1994 25.1936 48.0619 25.104C47.9244 25.0145 47.7485 24.9697 47.5343 24.9697C47.352 24.9697 47.1953 25.0097 47.0641 25.0896C46.933 25.1696 46.8259 25.2815 46.7427 25.4254C46.6628 25.5693 46.602 25.7388 46.5604 25.9339C46.5221 26.1258 46.5029 26.3369 46.5029 26.5671V26.759C46.5029 26.9669 46.5317 27.1588 46.5892 27.3347C46.65 27.5106 46.7347 27.6625 46.8435 27.7904C46.9554 27.9183 47.0897 28.0175 47.2464 28.0878C47.4063 28.1582 47.587 28.1934 47.7885 28.1934C48.0379 28.1934 48.2698 28.1454 48.4841 28.0494C48.7015 27.9503 48.8886 27.8016 49.0453 27.6033L49.7169 28.3325C49.6082 28.4892 49.4595 28.6395 49.2708 28.7834C49.0853 28.9273 48.8614 29.0456 48.5992 29.1384C48.337 29.2279 48.0379 29.2727 47.7022 29.2727ZM55.7832 23.9863V24.9649H52.761V23.9863H55.7832ZM53.5094 22.7055H54.8909V27.6129C54.8909 27.7632 54.9101 27.8783 54.9485 27.9583C54.9901 28.0382 55.0508 28.0942 55.1308 28.1262C55.2107 28.155 55.3115 28.1694 55.433 28.1694C55.5194 28.1694 55.5961 28.1662 55.6633 28.1598C55.7336 28.1502 55.7928 28.1406 55.8408 28.131L55.8456 29.148C55.7272 29.1864 55.5993 29.2167 55.4618 29.2391C55.3243 29.2615 55.1724 29.2727 55.0061 29.2727C54.7023 29.2727 54.4368 29.2231 54.2097 29.124C53.9859 29.0217 53.8132 28.8586 53.6917 28.6347C53.5701 28.4108 53.5094 28.1166 53.5094 27.752V22.7055ZM56.3122 26.6343V26.5336C56.3122 26.153 56.3666 25.8028 56.4753 25.483C56.5841 25.16 56.7424 24.8802 56.9503 24.6435C57.1581 24.4068 57.414 24.223 57.7178 24.0918C58.0216 23.9575 58.3702 23.8904 58.7636 23.8904C59.1569 23.8904 59.5071 23.9575 59.8141 24.0918C60.1211 24.223 60.3786 24.4068 60.5865 24.6435C60.7975 24.8802 60.9574 25.16 61.0662 25.483C61.1749 25.8028 61.2293 26.153 61.2293 26.5336V26.6343C61.2293 27.0117 61.1749 27.3619 61.0662 27.6849C60.9574 28.0047 60.7975 28.2845 60.5865 28.5244C60.3786 28.761 60.1227 28.9449 59.8189 29.076C59.5151 29.2071 59.1665 29.2727 58.7732 29.2727C58.3798 29.2727 58.0296 29.2071 57.7226 29.076C57.4188 28.9449 57.1613 28.761 56.9503 28.5244C56.7424 28.2845 56.5841 28.0047 56.4753 27.6849C56.3666 27.3619 56.3122 27.0117 56.3122 26.6343ZM57.6938 26.5336V26.6343C57.6938 26.8518 57.713 27.0548 57.7514 27.2435C57.7898 27.4322 57.8505 27.5985 57.9337 27.7424C58.02 27.8831 58.1319 27.9935 58.2695 28.0734C58.407 28.1534 58.5749 28.1934 58.7732 28.1934C58.965 28.1934 59.1297 28.1534 59.2673 28.0734C59.4048 27.9935 59.5151 27.8831 59.5983 27.7424C59.6814 27.5985 59.7422 27.4322 59.7805 27.2435C59.8221 27.0548 59.8429 26.8518 59.8429 26.6343V26.5336C59.8429 26.3225 59.8221 26.1242 59.7805 25.9387C59.7422 25.75 59.6798 25.5837 59.5935 25.4398C59.5103 25.2927 59.4 25.1776 59.2625 25.0944C59.1249 25.0113 58.9586 24.9697 58.7636 24.9697C58.5685 24.9697 58.4022 25.0113 58.2647 25.0944C58.1303 25.1776 58.02 25.2927 57.9337 25.4398C57.8505 25.5837 57.7898 25.75 57.7514 25.9387C57.713 26.1242 57.6938 26.3225 57.6938 26.5336Z" fill="#2A292F"/>
<path d="M101.339 138.209H102.024C102.002 138.471 101.929 138.704 101.805 138.908C101.681 139.111 101.506 139.271 101.281 139.388C101.057 139.505 100.783 139.564 100.462 139.564C100.215 139.564 99.9931 139.52 99.7957 139.432C99.5983 139.342 99.4293 139.216 99.2886 139.054C99.1479 138.889 99.04 138.691 98.9651 138.459C98.892 138.227 98.8555 137.967 98.8555 137.68V137.349C98.8555 137.062 98.8929 136.802 98.9679 136.57C99.0446 136.338 99.1543 136.14 99.2968 135.975C99.4393 135.809 99.6102 135.682 99.8094 135.594C100.01 135.507 100.236 135.463 100.486 135.463C100.804 135.463 101.073 135.521 101.292 135.638C101.512 135.755 101.682 135.917 101.802 136.123C101.925 136.33 102 136.567 102.027 136.833H101.342C101.323 136.662 101.283 136.514 101.221 136.392C101.161 136.27 101.071 136.176 100.952 136.112C100.834 136.047 100.678 136.014 100.486 136.014C100.329 136.014 100.192 136.043 100.075 136.101C99.9583 136.16 99.8606 136.246 99.782 136.359C99.7034 136.472 99.644 136.612 99.6038 136.779C99.5654 136.943 99.5462 137.131 99.5462 137.343V137.68C99.5462 137.881 99.5636 138.064 99.5983 138.229C99.6349 138.391 99.6897 138.531 99.7628 138.648C99.8377 138.765 99.9328 138.855 100.048 138.919C100.163 138.983 100.301 139.015 100.462 139.015C100.657 139.015 100.815 138.984 100.936 138.922C101.058 138.86 101.151 138.77 101.213 138.651C101.277 138.53 101.319 138.383 101.339 138.209ZM103.303 137.108V139.509H102.642V136.543H103.273L103.303 137.108ZM104.21 136.524L104.205 137.138C104.165 137.13 104.121 137.125 104.073 137.121C104.028 137.118 103.982 137.116 103.936 137.116C103.823 137.116 103.723 137.132 103.637 137.165C103.552 137.196 103.479 137.242 103.421 137.302C103.364 137.361 103.32 137.432 103.289 137.516C103.258 137.6 103.24 137.694 103.234 137.798L103.084 137.809C103.084 137.623 103.102 137.45 103.139 137.291C103.175 137.132 103.23 136.992 103.303 136.872C103.378 136.751 103.471 136.657 103.583 136.589C103.696 136.522 103.827 136.488 103.975 136.488C104.015 136.488 104.058 136.492 104.103 136.499C104.151 136.506 104.187 136.514 104.21 136.524ZM105.933 139.564C105.714 139.564 105.516 139.528 105.338 139.457C105.163 139.384 105.013 139.282 104.889 139.152C104.766 139.023 104.672 138.87 104.606 138.695C104.541 138.519 104.508 138.33 104.508 138.127V138.018C104.508 137.785 104.542 137.575 104.609 137.387C104.677 137.199 104.771 137.038 104.891 136.905C105.012 136.769 105.155 136.666 105.319 136.595C105.484 136.524 105.662 136.488 105.854 136.488C106.066 136.488 106.251 136.524 106.41 136.595C106.569 136.666 106.701 136.767 106.805 136.896C106.911 137.024 106.989 137.177 107.041 137.354C107.094 137.531 107.12 137.727 107.12 137.941V138.223H104.828V137.749H106.468V137.697C106.464 137.578 106.44 137.467 106.396 137.362C106.354 137.258 106.289 137.174 106.202 137.11C106.114 137.046 105.997 137.014 105.851 137.014C105.741 137.014 105.643 137.038 105.558 137.086C105.474 137.131 105.403 137.198 105.347 137.286C105.29 137.373 105.246 137.479 105.215 137.604C105.186 137.726 105.171 137.864 105.171 138.018V138.127C105.171 138.257 105.188 138.378 105.223 138.489C105.26 138.599 105.313 138.695 105.382 138.777C105.452 138.859 105.536 138.924 105.634 138.972C105.733 139.017 105.845 139.04 105.971 139.04C106.13 139.04 106.272 139.008 106.396 138.944C106.521 138.88 106.628 138.79 106.72 138.673L107.068 139.01C107.004 139.103 106.921 139.193 106.819 139.279C106.716 139.363 106.591 139.431 106.443 139.484C106.297 139.537 106.127 139.564 105.933 139.564ZM109.364 138.914V137.499C109.364 137.393 109.344 137.302 109.306 137.225C109.268 137.149 109.209 137.089 109.131 137.047C109.054 137.005 108.957 136.984 108.84 136.984C108.732 136.984 108.639 137.002 108.561 137.039C108.482 137.076 108.421 137.125 108.377 137.187C108.333 137.249 108.311 137.319 108.311 137.398H107.653C107.653 137.281 107.681 137.168 107.738 137.058C107.795 136.949 107.877 136.851 107.985 136.765C108.093 136.679 108.222 136.611 108.371 136.562C108.521 136.513 108.689 136.488 108.876 136.488C109.099 136.488 109.296 136.525 109.468 136.6C109.641 136.675 109.778 136.789 109.876 136.94C109.977 137.09 110.027 137.278 110.027 137.505V138.823C110.027 138.959 110.036 139.08 110.054 139.188C110.075 139.294 110.103 139.386 110.139 139.465V139.509H109.462C109.431 139.438 109.407 139.347 109.388 139.237C109.372 139.126 109.364 139.018 109.364 138.914ZM109.46 137.705L109.465 138.114H108.991C108.868 138.114 108.761 138.125 108.667 138.149C108.574 138.171 108.497 138.204 108.434 138.248C108.372 138.292 108.326 138.345 108.295 138.407C108.264 138.469 108.248 138.539 108.248 138.618C108.248 138.696 108.266 138.769 108.303 138.834C108.339 138.898 108.392 138.949 108.462 138.985C108.533 139.022 108.619 139.04 108.719 139.04C108.855 139.04 108.973 139.013 109.073 138.958C109.175 138.901 109.256 138.833 109.314 138.752C109.373 138.67 109.404 138.592 109.408 138.519L109.621 138.813C109.599 138.887 109.562 138.968 109.509 139.054C109.456 139.14 109.387 139.222 109.301 139.3C109.217 139.377 109.115 139.44 108.996 139.49C108.879 139.539 108.744 139.564 108.591 139.564C108.397 139.564 108.224 139.525 108.073 139.448C107.921 139.37 107.802 139.265 107.716 139.133C107.63 139 107.587 138.849 107.587 138.681C107.587 138.524 107.617 138.385 107.675 138.264C107.735 138.142 107.823 138.04 107.938 137.957C108.055 137.875 108.198 137.813 108.366 137.771C108.534 137.727 108.726 137.705 108.942 137.705H109.46ZM112.134 136.543V137.025H110.461V136.543H112.134ZM110.944 135.816H111.605V138.689C111.605 138.781 111.617 138.851 111.643 138.9C111.67 138.948 111.708 138.98 111.755 138.996C111.803 139.013 111.859 139.021 111.923 139.021C111.968 139.021 112.012 139.018 112.054 139.013C112.096 139.007 112.13 139.002 112.156 138.996L112.158 139.501C112.103 139.517 112.039 139.532 111.966 139.544C111.895 139.557 111.813 139.564 111.72 139.564C111.568 139.564 111.434 139.537 111.317 139.484C111.2 139.429 111.108 139.341 111.043 139.218C110.977 139.096 110.944 138.933 110.944 138.73V135.816ZM114.007 139.564C113.788 139.564 113.59 139.528 113.412 139.457C113.237 139.384 113.087 139.282 112.963 139.152C112.84 139.023 112.746 138.87 112.68 138.695C112.615 138.519 112.582 138.33 112.582 138.127V138.018C112.582 137.785 112.616 137.575 112.683 137.387C112.751 137.199 112.845 137.038 112.965 136.905C113.086 136.769 113.229 136.666 113.393 136.595C113.558 136.524 113.736 136.488 113.928 136.488C114.14 136.488 114.325 136.524 114.484 136.595C114.643 136.666 114.775 136.767 114.879 136.896C114.985 137.024 115.063 137.177 115.115 137.354C115.168 137.531 115.194 137.727 115.194 137.941V138.223H112.902V137.749H114.542V137.697C114.538 137.578 114.514 137.467 114.47 137.362C114.428 137.258 114.364 137.174 114.276 137.11C114.188 137.046 114.071 137.014 113.925 137.014C113.815 137.014 113.717 137.038 113.632 137.086C113.548 137.131 113.477 137.198 113.421 137.286C113.364 137.373 113.32 137.479 113.289 137.604C113.26 137.726 113.245 137.864 113.245 138.018V138.127C113.245 138.257 113.262 138.378 113.297 138.489C113.334 138.599 113.387 138.695 113.456 138.777C113.526 138.859 113.61 138.924 113.708 138.972C113.807 139.017 113.919 139.04 114.046 139.04C114.205 139.04 114.346 139.008 114.47 138.944C114.595 138.88 114.702 138.79 114.794 138.673L115.142 139.01C115.078 139.103 114.995 139.193 114.893 139.279C114.79 139.363 114.665 139.431 114.517 139.484C114.371 139.537 114.201 139.564 114.007 139.564ZM117.875 137.176V139.509H117.214V136.543H117.836L117.875 137.176ZM117.757 137.916L117.543 137.913C117.545 137.703 117.574 137.51 117.631 137.335C117.689 137.16 117.77 137.009 117.872 136.883C117.976 136.757 118.101 136.66 118.245 136.592C118.389 136.523 118.55 136.488 118.727 136.488C118.87 136.488 118.999 136.508 119.114 136.548C119.231 136.587 119.33 136.65 119.413 136.737C119.497 136.825 119.561 136.939 119.605 137.08C119.648 137.219 119.67 137.39 119.67 137.593V139.509H119.007V137.59C119.007 137.447 118.986 137.335 118.944 137.253C118.904 137.169 118.844 137.109 118.766 137.075C118.689 137.038 118.593 137.02 118.478 137.02C118.365 137.02 118.263 137.044 118.174 137.091C118.084 137.139 118.008 137.203 117.946 137.286C117.886 137.368 117.839 137.463 117.806 137.571C117.773 137.679 117.757 137.794 117.757 137.916ZM121.708 139.564C121.489 139.564 121.291 139.528 121.114 139.457C120.938 139.384 120.788 139.282 120.664 139.152C120.542 139.023 120.447 138.87 120.382 138.695C120.316 138.519 120.283 138.33 120.283 138.127V138.018C120.283 137.785 120.317 137.575 120.384 137.387C120.452 137.199 120.546 137.038 120.667 136.905C120.787 136.769 120.93 136.666 121.094 136.595C121.259 136.524 121.437 136.488 121.629 136.488C121.841 136.488 122.026 136.524 122.185 136.595C122.344 136.666 122.476 136.767 122.58 136.896C122.686 137.024 122.765 137.177 122.816 137.354C122.869 137.531 122.895 137.727 122.895 137.941V138.223H120.604V137.749H122.243V137.697C122.239 137.578 122.215 137.467 122.172 137.362C122.13 137.258 122.065 137.174 121.977 137.11C121.889 137.046 121.772 137.014 121.626 137.014C121.516 137.014 121.419 137.038 121.333 137.086C121.249 137.131 121.178 137.198 121.122 137.286C121.065 137.373 121.021 137.479 120.99 137.604C120.961 137.726 120.946 137.864 120.946 138.018V138.127C120.946 138.257 120.964 138.378 120.998 138.489C121.035 138.599 121.088 138.695 121.157 138.777C121.227 138.859 121.311 138.924 121.41 138.972C121.508 139.017 121.621 139.04 121.747 139.04C121.906 139.04 122.047 139.008 122.172 138.944C122.296 138.88 122.404 138.79 122.495 138.673L122.843 139.01C122.779 139.103 122.696 139.193 122.594 139.279C122.491 139.363 122.366 139.431 122.218 139.484C122.072 139.537 121.902 139.564 121.708 139.564ZM124.273 138.851L124.958 136.543H125.38L125.265 137.234L124.574 139.509H124.196L124.273 138.851ZM123.87 136.543L124.404 138.862L124.448 139.509H124.026L123.223 136.543H123.87ZM126.022 138.834L126.54 136.543H127.184L126.383 139.509H125.961L126.022 138.834ZM125.451 136.543L126.128 138.823L126.213 139.509H125.835L125.136 137.231L125.021 136.543H125.451ZM130.037 139.509H129.377V136.258C129.377 136.037 129.418 135.851 129.5 135.701C129.584 135.55 129.704 135.435 129.859 135.359C130.014 135.28 130.198 135.241 130.41 135.241C130.476 135.241 130.541 135.245 130.605 135.254C130.669 135.262 130.731 135.274 130.791 135.29L130.775 135.8C130.738 135.791 130.698 135.784 130.654 135.781C130.612 135.777 130.566 135.775 130.517 135.775C130.417 135.775 130.33 135.794 130.257 135.833C130.185 135.869 130.131 135.923 130.092 135.995C130.056 136.066 130.037 136.154 130.037 136.258V139.509ZM130.649 136.543V137.025H128.922V136.543H130.649ZM131.058 138.059V137.996C131.058 137.782 131.089 137.584 131.152 137.401C131.214 137.216 131.303 137.056 131.42 136.921C131.539 136.784 131.683 136.678 131.853 136.603C132.025 136.526 132.219 136.488 132.434 136.488C132.652 136.488 132.846 136.526 133.016 136.603C133.187 136.678 133.333 136.784 133.451 136.921C133.57 137.056 133.661 137.216 133.723 137.401C133.785 137.584 133.816 137.782 133.816 137.996V138.059C133.816 138.273 133.785 138.471 133.723 138.654C133.661 138.836 133.57 138.996 133.451 139.133C133.333 139.268 133.188 139.374 133.018 139.451C132.848 139.526 132.656 139.564 132.44 139.564C132.222 139.564 132.028 139.526 131.856 139.451C131.686 139.374 131.542 139.268 131.423 139.133C131.304 138.996 131.214 138.836 131.152 138.654C131.089 138.471 131.058 138.273 131.058 138.059ZM131.719 137.996V138.059C131.719 138.192 131.733 138.318 131.76 138.437C131.788 138.556 131.83 138.66 131.889 138.749C131.947 138.839 132.022 138.909 132.114 138.961C132.205 139.012 132.314 139.037 132.44 139.037C132.562 139.037 132.668 139.012 132.758 138.961C132.849 138.909 132.924 138.839 132.983 138.749C133.041 138.66 133.084 138.556 133.112 138.437C133.141 138.318 133.155 138.192 133.155 138.059V137.996C133.155 137.864 133.141 137.74 133.112 137.623C133.084 137.504 133.04 137.399 132.98 137.308C132.921 137.216 132.847 137.145 132.755 137.094C132.666 137.041 132.559 137.014 132.434 137.014C132.31 137.014 132.202 137.041 132.111 137.094C132.021 137.145 131.947 137.216 131.889 137.308C131.83 137.399 131.788 137.504 131.76 137.623C131.733 137.74 131.719 137.864 131.719 137.996ZM135.133 135.298V139.509H134.47V135.298H135.133ZM137.722 138.895V135.298H138.385V139.509H137.785L137.722 138.895ZM135.792 138.059V138.001C135.792 137.776 135.819 137.572 135.872 137.387C135.925 137.201 136.002 137.041 136.102 136.907C136.203 136.772 136.325 136.669 136.469 136.598C136.614 136.525 136.776 136.488 136.957 136.488C137.136 136.488 137.294 136.523 137.429 136.592C137.564 136.662 137.679 136.761 137.774 136.891C137.869 137.019 137.945 137.172 138.002 137.351C138.058 137.529 138.099 137.726 138.122 137.944V138.127C138.099 138.339 138.058 138.533 138.002 138.708C137.945 138.884 137.869 139.035 137.774 139.163C137.679 139.291 137.563 139.39 137.426 139.459C137.291 139.529 137.133 139.564 136.952 139.564C136.773 139.564 136.611 139.526 136.467 139.451C136.324 139.376 136.203 139.271 136.102 139.136C136.002 139.001 135.925 138.842 135.872 138.659C135.819 138.474 135.792 138.274 135.792 138.059ZM136.453 138.001V138.059C136.453 138.194 136.465 138.32 136.489 138.437C136.514 138.554 136.553 138.657 136.606 138.747C136.659 138.834 136.728 138.904 136.812 138.955C136.898 139.004 137 139.029 137.119 139.029C137.269 139.029 137.392 138.996 137.489 138.93C137.586 138.865 137.662 138.776 137.717 138.665C137.773 138.551 137.812 138.425 137.832 138.286V137.79C137.821 137.682 137.798 137.582 137.763 137.489C137.73 137.395 137.686 137.314 137.629 137.245C137.572 137.173 137.502 137.118 137.418 137.08C137.336 137.04 137.238 137.02 137.125 137.02C137.004 137.02 136.902 137.045 136.818 137.097C136.733 137.148 136.664 137.218 136.609 137.308C136.556 137.397 136.517 137.501 136.491 137.62C136.466 137.739 136.453 137.866 136.453 138.001ZM140.44 139.564C140.221 139.564 140.022 139.528 139.845 139.457C139.67 139.384 139.52 139.282 139.396 139.152C139.273 139.023 139.179 138.87 139.113 138.695C139.047 138.519 139.015 138.33 139.015 138.127V138.018C139.015 137.785 139.048 137.575 139.116 137.387C139.184 137.199 139.278 137.038 139.398 136.905C139.519 136.769 139.661 136.666 139.826 136.595C139.99 136.524 140.169 136.488 140.36 136.488C140.572 136.488 140.758 136.524 140.917 136.595C141.076 136.666 141.207 136.767 141.312 136.896C141.418 137.024 141.496 137.177 141.547 137.354C141.6 137.531 141.627 137.727 141.627 137.941V138.223H139.335V137.749H140.974V137.697C140.971 137.578 140.947 137.467 140.903 137.362C140.861 137.258 140.796 137.174 140.709 137.11C140.621 137.046 140.504 137.014 140.358 137.014C140.248 137.014 140.15 137.038 140.064 137.086C139.98 137.131 139.91 137.198 139.853 137.286C139.797 137.373 139.753 137.479 139.722 137.604C139.693 137.726 139.678 137.864 139.678 138.018V138.127C139.678 138.257 139.695 138.378 139.73 138.489C139.767 138.599 139.82 138.695 139.889 138.777C139.958 138.859 140.042 138.924 140.141 138.972C140.24 139.017 140.352 139.04 140.478 139.04C140.637 139.04 140.779 139.008 140.903 138.944C141.027 138.88 141.135 138.79 141.227 138.673L141.575 139.01C141.511 139.103 141.428 139.193 141.325 139.279C141.223 139.363 141.098 139.431 140.95 139.484C140.804 139.537 140.634 139.564 140.44 139.564ZM142.862 137.108V139.509H142.201V136.543H142.832L142.862 137.108ZM143.769 136.524L143.764 137.138C143.723 137.13 143.68 137.125 143.632 137.121C143.586 137.118 143.541 137.116 143.495 137.116C143.382 137.116 143.282 137.132 143.196 137.165C143.11 137.196 143.038 137.242 142.98 137.302C142.923 137.361 142.879 137.432 142.848 137.516C142.817 137.6 142.799 137.694 142.793 137.798L142.642 137.809C142.642 137.623 142.661 137.45 142.697 137.291C142.734 137.132 142.789 136.992 142.862 136.872C142.937 136.751 143.03 136.657 143.141 136.589C143.255 136.522 143.385 136.488 143.533 136.488C143.574 136.488 143.616 136.492 143.662 136.499C143.71 136.506 143.745 136.514 143.769 136.524Z" fill="#2A292F"/>
<g clip-path="url(#clip3_4666_34522)">
<path d="M90.0865 137.895H89.7356V137.545C89.7356 137.452 89.6986 137.362 89.6328 137.296C89.567 137.231 89.4778 137.194 89.3847 137.194C89.2916 137.194 89.2024 137.231 89.1366 137.296C89.0708 137.362 89.0338 137.452 89.0338 137.545V137.895H88.683C88.5899 137.895 88.5007 137.932 88.4349 137.998C88.3691 138.064 88.3321 138.153 88.3321 138.246C88.3321 138.339 88.3691 138.429 88.4349 138.494C88.5007 138.56 88.5899 138.597 88.683 138.597H89.0338V138.948C89.0338 139.041 89.0708 139.13 89.1366 139.196C89.2024 139.262 89.2916 139.299 89.3847 139.299C89.4778 139.299 89.567 139.262 89.6328 139.196C89.6986 139.13 89.7356 139.041 89.7356 138.948V138.597H90.0865C90.1795 138.597 90.2688 138.56 90.3346 138.494C90.4004 138.429 90.4373 138.339 90.4373 138.246C90.4373 138.153 90.4004 138.064 90.3346 137.998C90.2688 137.932 90.1795 137.895 90.0865 137.895ZM91.8408 135.439H89.6373L89.5251 135.088C89.4523 134.883 89.3173 134.704 89.1387 134.579C88.9602 134.453 88.7469 134.386 88.5286 134.387H86.9286C86.6494 134.387 86.3817 134.498 86.1843 134.695C85.9869 134.892 85.876 135.16 85.876 135.439V140.001C85.876 140.28 85.9869 140.548 86.1843 140.745C86.3817 140.942 86.6494 141.053 86.9286 141.053H91.8408C92.12 141.053 92.3877 140.942 92.5851 140.745C92.7825 140.548 92.8934 140.28 92.8934 140.001V136.492C92.8934 136.213 92.7825 135.945 92.5851 135.748C92.3877 135.55 92.12 135.439 91.8408 135.439ZM92.1917 140.001C92.1917 140.094 92.1547 140.183 92.0889 140.249C92.0231 140.315 91.9339 140.352 91.8408 140.352H86.9286C86.8355 140.352 86.7463 140.315 86.6805 140.249C86.6147 140.183 86.5777 140.094 86.5777 140.001V135.439C86.5777 135.346 86.6147 135.257 86.6805 135.191C86.7463 135.125 86.8355 135.088 86.9286 135.088H88.5286C88.6021 135.088 88.6739 135.111 88.7337 135.154C88.7935 135.197 88.8384 135.257 88.8619 135.327L89.0514 135.902C89.0749 135.972 89.1198 136.033 89.1796 136.076C89.2394 136.118 89.3111 136.141 89.3847 136.141H91.8408C91.9339 136.141 92.0231 136.178 92.0889 136.244C92.1547 136.31 92.1917 136.399 92.1917 136.492V140.001Z" fill="black"/>
</g>
<rect x="25.5264" y="150.351" width="178.945" height="19.6489" rx="2.10524" fill="#5B4DBE"/>
<path d="M102.645 157.684H103.259L104.413 160.762L105.565 157.684H106.179L104.655 161.675H104.167L102.645 157.684ZM102.366 157.684H102.95L103.051 160.348V161.675H102.366V157.684ZM105.874 157.684H106.461V161.675H105.773V160.348L105.874 157.684ZM107.142 160.225V160.162C107.142 159.948 107.173 159.75 107.235 159.567C107.298 159.382 107.387 159.222 107.504 159.087C107.623 158.95 107.767 158.844 107.937 158.769C108.109 158.692 108.303 158.654 108.518 158.654C108.736 158.654 108.929 158.692 109.099 158.769C109.271 158.844 109.416 158.95 109.535 159.087C109.654 159.222 109.745 159.382 109.807 159.567C109.869 159.75 109.9 159.948 109.9 160.162V160.225C109.9 160.439 109.869 160.637 109.807 160.82C109.745 161.002 109.654 161.162 109.535 161.299C109.416 161.434 109.272 161.54 109.102 161.617C108.932 161.692 108.739 161.73 108.524 161.73C108.306 161.73 108.112 161.692 107.94 161.617C107.77 161.54 107.626 161.434 107.507 161.299C107.388 161.162 107.298 161.002 107.235 160.82C107.173 160.637 107.142 160.439 107.142 160.225ZM107.803 160.162V160.225C107.803 160.358 107.817 160.484 107.844 160.603C107.871 160.722 107.914 160.826 107.973 160.915C108.031 161.005 108.106 161.075 108.198 161.127C108.289 161.178 108.398 161.203 108.524 161.203C108.646 161.203 108.752 161.178 108.842 161.127C108.933 161.075 109.008 161.005 109.067 160.915C109.125 160.826 109.168 160.722 109.195 160.603C109.225 160.484 109.239 160.358 109.239 160.225V160.162C109.239 160.03 109.225 159.906 109.195 159.789C109.168 159.67 109.124 159.565 109.064 159.474C109.005 159.382 108.93 159.311 108.839 159.26C108.749 159.207 108.643 159.18 108.518 159.18C108.394 159.18 108.286 159.207 108.195 159.26C108.105 159.311 108.031 159.382 107.973 159.474C107.914 159.565 107.871 159.67 107.844 159.789C107.817 159.906 107.803 160.03 107.803 160.162ZM111.431 161.151L112.157 158.709H112.842L111.812 161.675H111.384L111.431 161.151ZM110.874 158.709L111.614 161.162L111.65 161.675H111.222L110.186 158.709H110.874ZM114.576 161.73C114.357 161.73 114.159 161.694 113.981 161.623C113.806 161.55 113.656 161.448 113.532 161.318C113.409 161.189 113.315 161.036 113.249 160.861C113.184 160.685 113.151 160.496 113.151 160.293V160.184C113.151 159.952 113.185 159.741 113.252 159.553C113.32 159.365 113.414 159.204 113.535 159.071C113.655 158.935 113.798 158.832 113.962 158.761C114.127 158.69 114.305 158.654 114.497 158.654C114.709 158.654 114.894 158.69 115.053 158.761C115.212 158.832 115.344 158.933 115.448 159.062C115.554 159.19 115.632 159.343 115.684 159.52C115.737 159.697 115.763 159.893 115.763 160.107V160.389H113.472V159.915H115.111V159.863C115.107 159.744 115.083 159.633 115.039 159.528C114.997 159.424 114.933 159.34 114.845 159.276C114.757 159.212 114.64 159.18 114.494 159.18C114.384 159.18 114.287 159.204 114.201 159.252C114.117 159.297 114.046 159.364 113.99 159.452C113.933 159.539 113.889 159.645 113.858 159.77C113.829 159.892 113.814 160.03 113.814 160.184V160.293C113.814 160.423 113.832 160.544 113.866 160.655C113.903 160.765 113.956 160.861 114.025 160.943C114.095 161.025 114.179 161.09 114.277 161.138C114.376 161.183 114.489 161.206 114.615 161.206C114.774 161.206 114.915 161.174 115.039 161.11C115.164 161.046 115.272 160.956 115.363 160.839L115.711 161.176C115.647 161.269 115.564 161.359 115.462 161.445C115.359 161.529 115.234 161.597 115.086 161.65C114.94 161.703 114.77 161.73 114.576 161.73ZM118.444 159.342V161.675H117.783V158.709H118.406L118.444 159.342ZM118.326 160.082L118.112 160.079C118.114 159.869 118.143 159.676 118.2 159.501C118.258 159.326 118.339 159.175 118.441 159.049C118.545 158.923 118.67 158.826 118.814 158.758C118.958 158.689 119.119 158.654 119.296 158.654C119.439 158.654 119.568 158.674 119.683 158.714C119.8 158.753 119.9 158.816 119.982 158.903C120.066 158.991 120.13 159.105 120.174 159.246C120.217 159.385 120.239 159.556 120.239 159.759V161.675H119.576V159.756C119.576 159.613 119.555 159.501 119.513 159.419C119.473 159.335 119.413 159.275 119.335 159.241C119.258 159.204 119.162 159.186 119.047 159.186C118.934 159.186 118.832 159.21 118.743 159.257C118.653 159.305 118.577 159.369 118.515 159.452C118.455 159.534 118.408 159.629 118.375 159.737C118.343 159.845 118.326 159.96 118.326 160.082ZM120.844 160.225V160.162C120.844 159.948 120.875 159.75 120.937 159.567C120.999 159.382 121.089 159.222 121.206 159.087C121.324 158.95 121.469 158.844 121.639 158.769C121.811 158.692 122.004 158.654 122.22 158.654C122.437 158.654 122.631 158.692 122.801 158.769C122.973 158.844 123.118 158.95 123.237 159.087C123.356 159.222 123.446 159.382 123.508 159.567C123.57 159.75 123.601 159.948 123.601 160.162V160.225C123.601 160.439 123.57 160.637 123.508 160.82C123.446 161.002 123.356 161.162 123.237 161.299C123.118 161.434 122.974 161.54 122.804 161.617C122.634 161.692 122.441 161.73 122.225 161.73C122.008 161.73 121.813 161.692 121.641 161.617C121.472 161.54 121.327 161.434 121.208 161.299C121.09 161.162 120.999 161.002 120.937 160.82C120.875 160.637 120.844 160.439 120.844 160.225ZM121.504 160.162V160.225C121.504 160.358 121.518 160.484 121.546 160.603C121.573 160.722 121.616 160.826 121.674 160.915C121.733 161.005 121.808 161.075 121.899 161.127C121.991 161.178 122.099 161.203 122.225 161.203C122.348 161.203 122.454 161.178 122.543 161.127C122.635 161.075 122.71 161.005 122.768 160.915C122.827 160.826 122.87 160.722 122.897 160.603C122.926 160.484 122.941 160.358 122.941 160.225V160.162C122.941 160.03 122.926 159.906 122.897 159.789C122.87 159.67 122.826 159.565 122.765 159.474C122.707 159.382 122.632 159.311 122.541 159.26C122.451 159.207 122.344 159.18 122.22 159.18C122.096 159.18 121.988 159.207 121.896 159.26C121.807 159.311 121.733 159.382 121.674 159.474C121.616 159.565 121.573 159.67 121.546 159.789C121.518 159.906 121.504 160.03 121.504 160.162ZM125.017 161.017L125.703 158.709H126.125L126.01 159.4L125.319 161.675H124.94L125.017 161.017ZM124.614 158.709L125.149 161.028L125.193 161.675H124.771L123.967 158.709H124.614ZM126.766 161L127.284 158.709H127.928L127.128 161.675H126.706L126.766 161ZM126.196 158.709L126.873 160.99L126.958 161.675H126.58L125.881 159.397L125.766 158.709H126.196Z" fill="white"/>
</g>
<defs>
<filter id="filter0_d_4666_34522" x="0" y="0.527344" width="237.015" height="215.963" filterUnits="userSpaceOnUse" color-interpolation-filters="sRGB">
<feFlood flood-opacity="0" result="BackgroundImageFix"/>
<feColorMatrix in="SourceAlpha" type="matrix" values="0 0 0 0 0 0 0 0 0 0 0 0 0 0 0 0 0 0 127 0" result="hardAlpha"/>
<feOffset dy="15"/>
<feGaussianBlur stdDeviation="7.5"/>
<feComposite in2="hardAlpha" operator="out"/>
<feColorMatrix type="matrix" values="0 0 0 0 0 0 0 0 0 0 0 0 0 0 0 0 0 0 0.15 0"/>
<feBlend mode="normal" in2="BackgroundImageFix" result="effect1_dropShadow_4666_34522"/>
<feBlend mode="normal" in="SourceGraphic" in2="effect1_dropShadow_4666_34522" result="shape"/>
</filter>
<filter id="filter1_i_4666_34522" x="15" y="7.54492" width="199.998" height="180.349" filterUnits="userSpaceOnUse" color-interpolation-filters="sRGB">
<feFlood flood-opacity="0" result="BackgroundImageFix"/>
<feBlend mode="normal" in="SourceGraphic" in2="BackgroundImageFix" result="shape"/>
<feColorMatrix in="SourceAlpha" type="matrix" values="0 0 0 0 0 0 0 0 0 0 0 0 0 0 0 0 0 0 127 0" result="hardAlpha"/>
<feOffset dy="1.40349"/>
<feGaussianBlur stdDeviation="0.701746"/>
<feComposite in2="hardAlpha" operator="arithmetic" k2="-1" k3="1"/>
<feColorMatrix type="matrix" values="0 0 0 0 1 0 0 0 0 1 0 0 0 0 1 0 0 0 1 0"/>
<feBlend mode="normal" in2="shape" result="effect1_innerShadow_4666_34522"/>
</filter>
<filter id="filter2_f_4666_34522" x="-42.8942" y="24.1893" width="315.786" height="279.493" filterUnits="userSpaceOnUse" color-interpolation-filters="sRGB">
<feFlood flood-opacity="0" result="BackgroundImageFix"/>
<feBlend mode="normal" in="SourceGraphic" in2="BackgroundImageFix" result="shape"/>
<feGaussianBlur stdDeviation="52.631" result="effect1_foregroundBlur_4666_34522"/>
</filter>
<linearGradient id="paint0_linear_4666_34522" x1="114.999" y1="7.54492" x2="114.999" y2="186.49" gradientUnits="userSpaceOnUse">
<stop stop-color="#EBE9F3"/>
<stop offset="1" stop-color="#E0DFE7"/>
</linearGradient>
<linearGradient id="paint1_linear_4666_34522" x1="114.999" y1="7.54492" x2="114.999" y2="186.49" gradientUnits="userSpaceOnUse">
<stop stop-color="white"/>
<stop offset="1" stop-color="#CCCAD5"/>
</linearGradient>
<linearGradient id="paint2_linear_4666_34522" x1="114.999" y1="7.54492" x2="114.999" y2="186.49" gradientUnits="userSpaceOnUse">
<stop stop-color="#EBE9F3"/>
<stop offset="0.0001" stop-color="#EBE9F3"/>
<stop offset="1" stop-color="#E0DFE7"/>
</linearGradient>
<linearGradient id="paint3_linear_4666_34522" x1="114.999" y1="7.54492" x2="114.999" y2="186.49" gradientUnits="userSpaceOnUse">
<stop stop-color="white"/>
<stop offset="1" stop-color="#CCCAD4"/>
</linearGradient>
<linearGradient id="paint4_linear_4666_34522" x1="65.3581" y1="169.059" x2="167.63" y2="169.059" gradientUnits="userSpaceOnUse">
<stop stop-color="#ECEAF4"/>
<stop offset="0.5" stop-color="#6563FF"/>
<stop offset="0.623164" stop-color="#A384FC"/>
<stop offset="1" stop-color="#ECEAF4"/>
</linearGradient>
<clipPath id="clip0_4666_34522">
<rect width="8.42095" height="8.42095" fill="white" transform="translate(36.4033 56.3164)"/>
</clipPath>
<clipPath id="clip1_4666_34522">
<rect width="8.42095" height="8.42095" fill="white" transform="translate(36.4033 82.9824)"/>
</clipPath>
<clipPath id="clip2_4666_34522">
<rect width="8.42095" height="8.42095" fill="white" transform="translate(36.4033 109.648)"/>
</clipPath>
<clipPath id="clip3_4666_34522">
<rect width="8.42095" height="8.42095" fill="white" transform="translate(85.1743 133.509)"/>
</clipPath>
</defs>
</svg>
