<svg width="32" height="32" viewBox="0 0 32 32" fill="none" xmlns="http://www.w3.org/2000/svg">
<path d="M29.9685 16C29.9685 15.57 30.1985 15 30.4185 14.44C30.7985 13.5 31.2285 12.43 30.8585 11.35C30.4885 10.25 29.4685 9.62 28.5785 9.06C28.0685 8.75 27.5385 8.42 27.2885 8.1C27.0385 7.77 26.8785 7.21 26.7185 6.62C26.4385 5.64 26.1285 4.52 25.1685 3.85C24.2285 3.2 23.0485 3.26 21.9985 3.31C21.3785 3.34 20.7385 3.37 20.3085 3.23C19.9085 3.11 19.4485 2.75 18.9685 2.38C18.1395 1.73 17.1995 1 15.9995 1C14.7995 1 13.8595 1.73 13.0295 2.38C12.5495 2.75 12.0895 3.11 11.6895 3.23C11.2595 3.37 10.6195 3.34 9.99952 3.31C8.94952 3.26 7.76952 3.2 6.82952 3.85C5.86952 4.52 5.55952 5.64 5.27952 6.62C5.11952 7.21 4.95952 7.77 4.70952 8.1C4.45952 8.42 3.92952 8.75 3.42952 9.06C2.52952 9.62 1.50952 10.25 1.13952 11.35C0.769517 12.43 1.19952 13.5 1.57952 14.44C1.79952 15 2.02952 15.57 2.02952 16C2.02952 16.43 1.79952 17 1.57952 17.56C1.19952 18.5 0.769517 19.57 1.13952 20.65C1.50952 21.75 2.52952 22.38 3.41952 22.94C3.92952 23.25 4.45952 23.58 4.70952 23.9C4.95952 24.23 5.11952 24.79 5.27952 25.38C5.55952 26.36 5.86952 27.48 6.82952 28.15C7.76952 28.8 8.94952 28.74 9.99952 28.69C10.6195 28.66 11.2595 28.63 11.6895 28.77C12.0895 28.89 12.5495 29.25 13.0295 29.62C13.8595 30.27 14.7995 31 15.9995 31C17.1995 31 18.1395 30.27 18.9695 29.62C19.4495 29.25 19.9095 28.89 20.3095 28.77C20.7395 28.63 21.3795 28.66 21.9995 28.69C23.0495 28.74 24.2295 28.8 25.1695 28.15C26.1295 27.48 26.4395 26.36 26.7195 25.38C26.8795 24.79 27.0395 24.23 27.2895 23.9C27.5395 23.58 28.0695 23.25 28.5695 22.94C29.4695 22.38 30.4895 21.75 30.8595 20.65C31.2295 19.57 30.7995 18.5 30.4195 17.56C30.1985 17 29.9685 16.43 29.9685 16ZM11.9995 19C11.9995 19.44 11.7095 19.83 11.2895 19.96C11.1895 19.99 11.0995 20 10.9995 20C10.6695 20 10.3595 19.84 10.1695 19.55L7.99952 16.3V19C7.99952 19.55 7.54952 20 6.99952 20C6.44952 20 5.99952 19.55 5.99952 19V13C5.99952 12.56 6.28952 12.17 6.70952 12.04C7.12952 11.91 7.58952 12.08 7.82952 12.45L9.99952 15.7V13C9.99952 12.45 10.4495 12 10.9995 12C11.5495 12 11.9995 12.45 11.9995 13V19ZM16.9995 15C17.5495 15 17.9995 15.45 17.9995 16C17.9995 16.55 17.5495 17 16.9995 17H14.9995V18H16.9995C17.5495 18 17.9995 18.45 17.9995 19C17.9995 19.55 17.5495 20 16.9995 20H13.9995C13.4495 20 12.9995 19.55 12.9995 19V13C12.9995 12.45 13.4495 12 13.9995 12H16.9995C17.5495 12 17.9995 12.45 17.9995 13C17.9995 13.55 17.5495 14 16.9995 14H14.9995V15H16.9995ZM24.9885 19.16C24.9085 19.61 24.5485 19.95 24.0985 20H23.9985C23.5885 20 23.2085 19.74 23.0585 19.35L22.4985 17.85L21.9385 19.35C21.7785 19.78 21.3485 20.04 20.8985 20C20.4485 19.95 20.0885 19.61 20.0085 19.16L19.0085 13.16C18.9185 12.62 19.2885 12.1 19.8385 12.01C20.3785 11.92 20.8985 12.29 20.9885 12.84L21.3685 15.16L21.5585 14.65C21.7085 14.26 22.0785 14 22.4985 14C22.9185 14 23.2885 14.26 23.4385 14.65L23.6285 15.16L24.0085 12.84C24.0985 12.29 24.6185 11.92 25.1585 12.01C25.7085 12.1 26.0785 12.62 25.9885 13.16L24.9885 19.16Z" fill="#5B4DBE"/>
</svg>
