<svg width="84" height="84" viewBox="0 0 84 84" fill="none" xmlns="http://www.w3.org/2000/svg">
<path d="M71.4 0H12.6C9.25827 0 6.05341 1.3275 3.69045 3.69045C1.3275 6.05341 0 9.25827 0 12.6V54.6C0 57.9417 1.3275 61.1466 3.69045 63.5095C6.05341 65.8725 9.25827 67.2 12.6 67.2H25.2V75.6H12.6C11.4861 75.6 10.4178 76.0425 9.63015 76.8301C8.8425 77.6178 8.4 78.6861 8.4 79.8C8.4 80.9139 8.8425 81.9822 9.63015 82.7698C10.4178 83.5575 11.4861 84 12.6 84H71.4C72.5139 84 73.5822 83.5575 74.3698 82.7698C75.1575 81.9822 75.6 80.9139 75.6 79.8C75.6 78.6861 75.1575 77.6178 74.3698 76.8301C73.5822 76.0425 72.5139 75.6 71.4 75.6H58.8V67.2H71.4C74.7417 67.2 77.9466 65.8725 80.3095 63.5095C82.6725 61.1466 84 57.9417 84 54.6V12.6C84 9.25827 82.6725 6.05341 80.3095 3.69045C77.9466 1.3275 74.7417 0 71.4 0ZM50.4 75.6H33.6V67.2H50.4V75.6ZM75.6 54.6C75.6 55.7139 75.1575 56.7822 74.3698 57.5698C73.5822 58.3575 72.5139 58.8 71.4 58.8H12.6C11.4861 58.8 10.4178 58.3575 9.63015 57.5698C8.8425 56.7822 8.4 55.7139 8.4 54.6V50.4H75.6V54.6ZM75.6 42H8.4V12.6C8.4 11.4861 8.8425 10.4178 9.63015 9.63015C10.4178 8.8425 11.4861 8.4 12.6 8.4H71.4C72.5139 8.4 73.5822 8.8425 74.3698 9.63015C75.1575 10.4178 75.6 11.4861 75.6 12.6V42Z" fill="#5B4DBE"/>
</svg>
