<svg width="32" height="32" viewBox="0 0 32 32" fill="none" xmlns="http://www.w3.org/2000/svg">
<path d="M30.4171 17.5978C30.1232 17.1305 29.9673 16.5898 29.9673 16.0378C29.9673 15.4858 30.1232 14.945 30.4171 14.4778C30.9365 13.5362 31.093 12.4369 30.8571 11.3878C30.386 10.3829 29.5799 9.57329 28.5771 9.09779C28.0977 8.83361 27.6625 8.49622 27.2871 8.09779C27.0149 7.64023 26.8221 7.13979 26.7171 6.61778C26.5414 5.54123 25.9927 4.56074 25.1671 3.84779C24.1988 3.32365 23.0844 3.13382 21.9971 3.30779C21.4331 3.3711 20.8626 3.34409 20.3071 3.22778C19.8181 3.01759 19.3657 2.73065 18.9671 2.37779C18.602 1.94608 18.1471 1.59917 17.6342 1.36122C17.1212 1.12327 16.5626 1 15.9971 1C15.4317 1 14.8731 1.12327 14.3601 1.36122C13.8472 1.59917 13.3923 1.94608 13.0271 2.37779C12.6286 2.73065 12.1762 3.01759 11.6871 3.22778C11.1316 3.34409 10.5611 3.3711 9.99714 3.30779C8.90984 3.13382 7.79552 3.32365 6.82714 3.84779C6.00157 4.56074 5.45292 5.54123 5.27714 6.61778C5.17216 7.13979 4.97943 7.64023 4.70714 8.09779C4.33344 8.49387 3.90187 8.83103 3.42714 9.09779C2.40839 9.56428 1.58685 10.3752 1.10714 11.3878C0.87129 12.4369 1.02781 13.5362 1.54715 14.4778C1.84104 14.945 1.99696 15.4858 1.99696 16.0378C1.99696 16.5898 1.84104 17.1305 1.54715 17.5978C1.02781 18.5394 0.87129 19.6386 1.10714 20.6878C1.57825 21.6927 2.38434 22.5023 3.38714 22.9778C3.86656 23.242 4.3018 23.5794 4.67714 23.9778C4.94943 24.4354 5.14216 24.9358 5.24714 25.4578C5.42292 26.5343 5.97157 27.5148 6.79715 28.2278C7.76552 28.7519 8.87984 28.9417 9.96714 28.7678C10.5311 28.7045 11.1016 28.7315 11.6571 28.8478C12.1462 29.058 12.5986 29.3449 12.9971 29.6978C13.3623 30.1295 13.8172 30.4764 14.3301 30.7144C14.8431 30.9523 15.4017 31.0756 15.9671 31.0756C16.5326 31.0756 17.0912 30.9523 17.6042 30.7144C18.1171 30.4764 18.572 30.1295 18.9371 29.6978C19.3357 29.3449 19.7881 29.058 20.2771 28.8478C20.8326 28.7315 21.4031 28.7045 21.9671 28.7678C23.0544 28.9417 24.1688 28.7519 25.1371 28.2278C25.9627 27.5148 26.5114 26.5343 26.6871 25.4578C26.7921 24.9358 26.9849 24.4354 27.2571 23.9778C27.6308 23.5817 28.0624 23.2446 28.5371 22.9778C29.5447 22.5056 30.3549 21.6953 30.8271 20.6878C31.0721 19.6423 30.9263 18.5433 30.4171 17.5978Z" fill="#5B4DBE"/>
<g clip-path="url(#clip0_4666_34507)">
<path d="M26 13.24L18.81 12.62L16 6L13.19 12.63L6 13.24L11.46 17.97L9.82 25L16 21.27L22.18 25L20.55 17.97L26 13.24ZM16 19.4L12.24 21.67L13.24 17.39L9.92 14.51L14.3 14.13L16 10.1L17.71 14.14L22.09 14.52L18.77 17.4L19.77 21.68L16 19.4Z" fill="white"/>
</g>
<defs>
<clipPath id="clip0_4666_34507">
<rect width="24" height="24" fill="white" transform="translate(4 4)"/>
</clipPath>
</defs>
</svg>
