<svg width="24" height="26" viewBox="0 0 24 26" fill="currentColor" xmlns="http://www.w3.org/2000/svg">
<path d="M9.41997 20.56C9.75415 20.56 10.0746 20.4273 10.3109 20.191C10.5472 19.9547 10.68 19.6342 10.68 19.3V11.74C10.68 11.4059 10.5472 11.0854 10.3109 10.8491C10.0746 10.6128 9.75415 10.48 9.41997 10.48C9.0858 10.48 8.76532 10.6128 8.52902 10.8491C8.29272 11.0854 8.15997 11.4059 8.15997 11.74V19.3C8.15997 19.6342 8.29272 19.9547 8.52902 20.191C8.76532 20.4273 9.0858 20.56 9.41997 20.56ZM22.02 5.44002H16.98V4.18002C16.98 3.17751 16.5817 2.21605 15.8728 1.50716C15.164 0.798273 14.2025 0.400024 13.2 0.400024H10.68C9.67746 0.400024 8.716 0.798273 8.00711 1.50716C7.29822 2.21605 6.89997 3.17751 6.89997 4.18002V5.44002H1.85998C1.5258 5.44002 1.20532 5.57277 0.969021 5.80907C0.732725 6.04537 0.599976 6.36585 0.599976 6.70002C0.599976 7.0342 0.732725 7.35468 0.969021 7.59098C1.20532 7.82727 1.5258 7.96002 1.85998 7.96002H3.11998V21.82C3.11998 22.8225 3.51822 23.784 4.22711 24.4929C4.936 25.2018 5.89746 25.6 6.89997 25.6H16.98C17.9825 25.6 18.944 25.2018 19.6528 24.4929C20.3617 23.784 20.76 22.8225 20.76 21.82V7.96002H22.02C22.3541 7.96002 22.6746 7.82727 22.9109 7.59098C23.1472 7.35468 23.28 7.0342 23.28 6.70002C23.28 6.36585 23.1472 6.04537 22.9109 5.80907C22.6746 5.57277 22.3541 5.44002 22.02 5.44002ZM9.41997 4.18002C9.41997 3.84585 9.55272 3.52537 9.78902 3.28907C10.0253 3.05277 10.3458 2.92002 10.68 2.92002H13.2C13.5341 2.92002 13.8546 3.05277 14.0909 3.28907C14.3272 3.52537 14.46 3.84585 14.46 4.18002V5.44002H9.41997V4.18002ZM18.24 21.82C18.24 22.1542 18.1072 22.4747 17.8709 22.711C17.6346 22.9473 17.3141 23.08 16.98 23.08H6.89997C6.5658 23.08 6.24532 22.9473 6.00902 22.711C5.77272 22.4747 5.63998 22.1542 5.63998 21.82V7.96002H18.24V21.82ZM14.46 20.56C14.7941 20.56 15.1146 20.4273 15.3509 20.191C15.5872 19.9547 15.72 19.6342 15.72 19.3V11.74C15.72 11.4059 15.5872 11.0854 15.3509 10.8491C15.1146 10.6128 14.7941 10.48 14.46 10.48C14.1258 10.48 13.8053 10.6128 13.569 10.8491C13.3327 11.0854 13.2 11.4059 13.2 11.74V19.3C13.2 19.6342 13.3327 19.9547 13.569 20.191C13.8053 20.4273 14.1258 20.56 14.46 20.56Z" />
</svg>
