<svg width="276" height="261" viewBox="0 0 276 261" fill="none" xmlns="http://www.w3.org/2000/svg">
<rect x="17.2812" y="17.917" width="221.719" height="152.292" rx="3.55934" fill="#6E6E6E"/>
<mask id="mask0_4666_34523" style="mask-type:alpha" maskUnits="userSpaceOnUse" x="17" y="17" width="222" height="154">
<rect x="17.2812" y="17.916" width="221.719" height="152.292" rx="3.55934" fill="#6E6E6E"/>
</mask>
<g mask="url(#mask0_4666_34523)">
<path d="M102.162 116.906C155.016 119.414 172.41 159.01 174.5 178.494L257.589 182.301V4.92643L-4.89041 1.11914C-6.1595 16.7216 -0.769575 49.5837 30.9429 56.2129C70.5836 64.4994 36.094 113.77 102.162 116.906Z" fill="black"/>
<path d="M187.938 118.249C220.367 118.787 218.023 158.636 212.797 178.494H256.245L249.974 8.28552C170.17 7.16572 18.222 6.35947 48.8595 12.0928C87.1564 19.2595 59.1616 67.6345 114.255 68.3064C169.349 68.9782 147.401 117.577 187.938 118.249Z" fill="#5B4DBE" stroke="black" stroke-width="0.447917"/>
</g>
<path d="M52.0422 56.1836C50.8094 56.1836 49.6635 55.9703 48.6046 55.5435C47.5457 55.101 46.6132 54.4925 45.8071 53.718C45.001 52.9278 44.3688 52.019 43.9105 50.9917C43.468 49.9485 43.2467 48.8264 43.2467 47.6252C43.2467 46.424 43.468 45.3098 43.9105 44.2824C44.3688 43.2393 44.9931 42.3305 45.7834 41.5561C46.5736 40.7658 47.4982 40.1573 48.5572 39.7306C49.6319 39.288 50.7778 39.0668 51.9948 39.0668C53.3698 39.0668 54.6658 39.3433 55.8828 39.8965C57.0998 40.4339 58.1034 41.1925 58.8937 42.1724L56.4992 44.3773C55.9302 43.666 55.2585 43.1287 54.4841 42.7651C53.7096 42.4016 52.8799 42.2199 51.9948 42.2199C51.2519 42.2199 50.5644 42.3621 49.9322 42.6466C49.3 42.9153 48.7468 43.2946 48.2727 43.7846C47.7985 44.2587 47.4271 44.8277 47.1584 45.4915C46.9056 46.1395 46.7791 46.8507 46.7791 47.6252C46.7791 48.3996 46.9135 49.1188 47.1821 49.7826C47.4508 50.4464 47.8222 51.0233 48.2964 51.5132C48.7864 51.9874 49.3474 52.3667 49.9796 52.6512C50.6276 52.9199 51.331 53.0542 52.0896 53.0542C52.8799 53.0542 53.5911 52.912 54.2233 52.6275C54.8555 52.3272 55.385 51.9163 55.8117 51.3947C56.2543 50.8573 56.5466 50.2567 56.6889 49.5929H51.7814V46.6058H60.3636V47.6489C60.3636 48.8817 60.1502 50.0197 59.7235 51.0628C59.3125 52.0901 58.7356 52.991 57.9928 53.7655C57.25 54.5241 56.3728 55.1168 55.3613 55.5435C54.3497 55.9703 53.2434 56.1836 52.0422 56.1836ZM68.6362 56.1599C67.4034 56.1599 66.2892 55.8754 65.2934 55.3065C64.2977 54.7375 63.5075 53.9709 62.9227 53.0068C62.3379 52.0427 62.0455 50.9601 62.0455 49.7589C62.0455 48.5577 62.33 47.475 62.899 46.5109C63.4838 45.531 64.274 44.7566 65.2697 44.1876C66.2813 43.6186 67.4034 43.3341 68.6362 43.3341C69.869 43.3341 70.9833 43.6186 71.979 44.1876C72.9905 44.7566 73.7808 45.531 74.3497 46.5109C74.9345 47.475 75.2269 48.5577 75.2269 49.7589C75.2269 50.9601 74.9345 52.0427 74.3497 53.0068C73.7808 53.9709 72.9984 54.7375 72.0027 55.3065C71.007 55.8754 69.8848 56.1599 68.6362 56.1599ZM68.6362 53.3387C69.2842 53.3387 69.8611 53.1807 70.3669 52.8646C70.8884 52.5485 71.2994 52.1217 71.5997 51.5844C71.9158 51.0312 72.0738 50.4227 72.0738 49.7589C72.0738 49.0793 71.9158 48.4708 71.5997 47.9334C71.2994 47.396 70.8884 46.9693 70.3669 46.6532C69.8611 46.3213 69.2842 46.1553 68.6362 46.1553C68.004 46.1553 67.4271 46.3213 66.9056 46.6532C66.384 46.9693 65.9731 47.396 65.6728 47.9334C65.3725 48.4708 65.2223 49.0793 65.2223 49.7589C65.2223 50.4227 65.3725 51.0312 65.6728 51.5844C65.9731 52.1217 66.384 52.5485 66.9056 52.8646C67.4271 53.1807 68.004 53.3387 68.6362 53.3387ZM83.3636 56.1599C82.1308 56.1599 81.0166 55.8754 80.0209 55.3065C79.0251 54.7375 78.2349 53.9709 77.6501 53.0068C77.0653 52.0427 76.7729 50.9601 76.7729 49.7589C76.7729 48.5577 77.0574 47.475 77.6264 46.5109C78.2112 45.531 79.0014 44.7566 79.9972 44.1876C81.0087 43.6186 82.1308 43.3341 83.3636 43.3341C84.5964 43.3341 85.7107 43.6186 86.7064 44.1876C87.7179 44.7566 88.5082 45.531 89.0772 46.5109C89.6619 47.475 89.9543 48.5577 89.9543 49.7589C89.9543 50.9601 89.6619 52.0427 89.0772 53.0068C88.5082 53.9709 87.7258 54.7375 86.7301 55.3065C85.7344 55.8754 84.6122 56.1599 83.3636 56.1599ZM83.3636 53.3387C84.0116 53.3387 84.5885 53.1807 85.0943 52.8646C85.6159 52.5485 86.0268 52.1217 86.3271 51.5844C86.6432 51.0312 86.8012 50.4227 86.8012 49.7589C86.8012 49.0793 86.6432 48.4708 86.3271 47.9334C86.0268 47.396 85.6159 46.9693 85.0943 46.6532C84.5885 46.3213 84.0116 46.1553 83.3636 46.1553C82.7314 46.1553 82.1545 46.3213 81.633 46.6532C81.1114 46.9693 80.7005 47.396 80.4002 47.9334C80.0999 48.4708 79.9497 49.0793 79.9497 49.7589C79.9497 50.4227 80.0999 51.0312 80.4002 51.5844C80.7005 52.1217 81.1114 52.5485 81.633 52.8646C82.1545 53.1807 82.7314 53.3387 83.3636 53.3387ZM97.7828 56.0888C96.6133 56.0888 95.5543 55.8043 94.606 55.2353C93.6577 54.6663 92.8991 53.9077 92.3301 52.9594C91.7769 51.9953 91.5003 50.9205 91.5003 49.7352C91.5003 48.5498 91.7769 47.4829 92.3301 46.5346C92.8991 45.5705 93.6656 44.8119 94.6297 44.2587C95.5938 43.6897 96.6765 43.4052 97.8777 43.4052C98.4941 43.4052 99.0868 43.4922 99.6557 43.666C100.225 43.8241 100.754 44.0612 101.244 44.3773V39.3275L104.492 38.7823V55.9229H101.292V54.9034C100.28 55.6937 99.1105 56.0888 97.7828 56.0888ZM98.3044 53.315C98.905 53.315 99.4503 53.2202 99.9402 53.0305C100.446 52.8251 100.881 52.5248 101.244 52.1296V47.317C100.881 46.9535 100.446 46.669 99.9402 46.4635C99.4345 46.2581 98.8892 46.1553 98.3044 46.1553C97.6248 46.1553 97.0084 46.3134 96.4552 46.6295C95.9179 46.9298 95.4911 47.3565 95.175 47.9097C94.8589 48.4471 94.7009 49.0556 94.7009 49.7352C94.7009 50.4148 94.8589 51.0233 95.175 51.5607C95.4911 52.098 95.9179 52.5248 96.4552 52.8409C97.0084 53.157 97.6248 53.315 98.3044 53.315ZM112.032 55.9229V43.5712H115.28V44.5195C116.165 43.7292 117.24 43.3341 118.504 43.3341C119.31 43.3341 120.029 43.5001 120.661 43.832C121.294 44.1481 121.815 44.5985 122.226 45.1833C122.732 44.5827 123.325 44.1244 124.004 43.8083C124.7 43.4922 125.466 43.3341 126.304 43.3341C127.236 43.3341 128.05 43.5475 128.746 43.9742C129.457 44.3852 130.01 44.962 130.405 45.7049C130.816 46.4319 131.022 47.2854 131.022 48.2653V55.9229H127.797V48.7395C127.797 47.9334 127.584 47.3012 127.157 46.8428C126.731 46.3687 126.162 46.1316 125.45 46.1316C124.96 46.1316 124.51 46.2343 124.099 46.4398C123.704 46.6453 123.364 46.9535 123.08 47.3644C123.095 47.5067 123.111 47.6489 123.127 47.7911C123.143 47.9334 123.151 48.0914 123.151 48.2653V55.9229H119.903V48.7395C119.903 47.9334 119.689 47.3012 119.263 46.8428C118.852 46.3687 118.291 46.1316 117.579 46.1316C117.089 46.1316 116.647 46.2264 116.252 46.4161C115.872 46.6058 115.548 46.8903 115.28 47.2696V55.9229H112.032ZM139.634 56.1599C138.401 56.1599 137.287 55.8754 136.291 55.3065C135.295 54.7375 134.505 53.9709 133.92 53.0068C133.336 52.0427 133.043 50.9601 133.043 49.7589C133.043 48.5577 133.328 47.475 133.897 46.5109C134.482 45.531 135.272 44.7566 136.267 44.1876C137.279 43.6186 138.401 43.3341 139.634 43.3341C140.867 43.3341 141.981 43.6186 142.977 44.1876C143.988 44.7566 144.779 45.531 145.347 46.5109C145.932 47.475 146.225 48.5577 146.225 49.7589C146.225 50.9601 145.932 52.0427 145.347 53.0068C144.779 53.9709 143.996 54.7375 143 55.3065C142.005 55.8754 140.883 56.1599 139.634 56.1599ZM139.634 53.3387C140.282 53.3387 140.859 53.1807 141.365 52.8646C141.886 52.5485 142.297 52.1217 142.597 51.5844C142.914 51.0312 143.072 50.4227 143.072 49.7589C143.072 49.0793 142.914 48.4708 142.597 47.9334C142.297 47.396 141.886 46.9693 141.365 46.6532C140.859 46.3213 140.282 46.1553 139.634 46.1553C139.002 46.1553 138.425 46.3213 137.903 46.6532C137.382 46.9693 136.971 47.396 136.671 47.9334C136.37 48.4708 136.22 49.0793 136.22 49.7589C136.22 50.4227 136.37 51.0312 136.671 51.5844C136.971 52.1217 137.382 52.5485 137.903 52.8646C138.425 53.1807 139.002 53.3387 139.634 53.3387ZM148.34 55.9229V43.5712H151.588V44.9462C151.983 44.4089 152.457 43.9979 153.01 43.7134C153.563 43.429 154.188 43.2867 154.883 43.2867C155.484 43.3025 155.934 43.3973 156.234 43.5712V46.4161C155.997 46.3055 155.736 46.2264 155.452 46.179C155.167 46.1158 154.875 46.0842 154.575 46.0842C153.943 46.0842 153.366 46.2423 152.844 46.5584C152.323 46.8745 151.904 47.3249 151.588 47.9097V55.9229H148.34ZM158.136 55.9229V43.5712H161.384V44.5906C162.316 43.753 163.47 43.3341 164.845 43.3341C165.809 43.3341 166.655 43.5475 167.382 43.9742C168.125 44.3852 168.701 44.962 169.112 45.7049C169.523 46.4319 169.729 47.2854 169.729 48.2653V55.9229H166.481V48.7395C166.481 47.9334 166.252 47.3012 165.793 46.8428C165.335 46.3687 164.711 46.1316 163.92 46.1316C163.367 46.1316 162.877 46.2423 162.45 46.4635C162.024 46.669 161.668 46.9693 161.384 47.3644V55.9229H158.136ZM172.307 55.9229V43.5712H175.555V55.9229H172.307ZM173.92 42.1013C173.414 42.1013 172.979 41.9196 172.616 41.5561C172.252 41.1925 172.07 40.7579 172.07 40.2521C172.07 39.7306 172.252 39.2959 172.616 38.9482C172.979 38.5847 173.414 38.4029 173.92 38.4029C174.441 38.4029 174.876 38.5847 175.223 38.9482C175.587 39.2959 175.769 39.7306 175.769 40.2521C175.769 40.7579 175.587 41.1925 175.223 41.5561C174.876 41.9196 174.441 42.1013 173.92 42.1013ZM178.214 55.9229V43.5712H181.462V44.5906C182.394 43.753 183.548 43.3341 184.923 43.3341C185.887 43.3341 186.733 43.5475 187.46 43.9742C188.203 44.3852 188.78 44.962 189.191 45.7049C189.602 46.4319 189.807 47.2854 189.807 48.2653V55.9229H186.559V48.7395C186.559 47.9334 186.33 47.3012 185.872 46.8428C185.413 46.3687 184.789 46.1316 183.999 46.1316C183.445 46.1316 182.956 46.2423 182.529 46.4635C182.102 46.669 181.746 46.9693 181.462 47.3644V55.9229H178.214ZM198.597 60.9963C197.649 60.9963 196.732 60.8935 195.847 60.6881C194.962 60.4984 194.164 60.2218 193.453 59.8583L194.591 57.3453C195.27 57.6772 195.934 57.9222 196.582 58.0802C197.23 58.2383 197.878 58.3173 198.526 58.3173C199.49 58.3173 200.217 58.1119 200.707 57.7009C201.213 57.29 201.466 56.6736 201.466 55.8517V54.8797C200.454 55.6226 199.324 55.994 198.076 55.994C196.906 55.994 195.847 55.7174 194.899 55.1642C193.966 54.5952 193.216 53.8287 192.647 52.8646C192.093 51.9005 191.817 50.8336 191.817 49.664C191.817 48.4945 192.093 47.4355 192.647 46.4872C193.216 45.5389 193.982 44.7882 194.946 44.235C195.91 43.666 196.985 43.3815 198.17 43.3815C198.771 43.3815 199.356 43.4685 199.925 43.6423C200.494 43.8162 201.023 44.0612 201.513 44.3773V43.5712H204.714V55.8991C204.714 57.5271 204.184 58.7836 203.125 59.6687C202.082 60.5537 200.573 60.9963 198.597 60.9963ZM198.573 53.2439C199.174 53.2439 199.719 53.1491 200.209 52.9594C200.699 52.7539 201.118 52.4694 201.466 52.1059V47.2696C201.118 46.9219 200.691 46.6532 200.186 46.4635C199.696 46.2581 199.166 46.1553 198.597 46.1553C197.918 46.1553 197.309 46.3134 196.772 46.6295C196.234 46.9298 195.808 47.3486 195.491 47.886C195.175 48.4075 195.017 49.0002 195.017 49.664C195.017 50.3437 195.167 50.9522 195.468 51.4895C195.784 52.0269 196.211 52.4536 196.748 52.7697C197.301 53.0858 197.91 53.2439 198.573 53.2439ZM77.1595 87.1599C76.0215 87.1599 74.9705 87.0177 74.0064 86.7332C73.0422 86.4329 72.2046 86.0062 71.4934 85.453L73.1055 83.2956C73.8167 83.7697 74.4963 84.1254 75.1443 84.3624C75.8081 84.5995 76.464 84.718 77.1121 84.718C77.8391 84.718 78.416 84.5995 78.8427 84.3624C79.2852 84.1096 79.5065 83.7855 79.5065 83.3904C79.5065 83.0743 79.3801 82.8214 79.1272 82.6318C78.8901 82.4421 78.5029 82.3078 77.9655 82.2287L75.5948 81.8731C74.362 81.6835 73.4295 81.2883 72.7973 80.6878C72.1651 80.0714 71.849 79.2653 71.849 78.2696C71.849 77.4635 72.0544 76.776 72.4654 76.207C72.8921 75.6222 73.4848 75.1718 74.2434 74.8557C75.0179 74.5238 75.9346 74.3578 76.9935 74.3578C77.8944 74.3578 78.7716 74.4843 79.6251 74.7372C80.4943 74.99 81.3083 75.3773 82.0669 75.8988L80.5022 78.0088C79.8226 77.5821 79.1746 77.2739 78.5582 77.0842C77.9418 76.8945 77.3175 76.7997 76.6853 76.7997C76.1005 76.7997 75.6264 76.9103 75.2629 77.1316C74.9151 77.3529 74.7413 77.6453 74.7413 78.0088C74.7413 78.3407 74.8677 78.6015 75.1206 78.7911C75.3735 78.9808 75.8081 79.1152 76.4245 79.1942L78.7716 79.5498C80.0044 79.7236 80.9448 80.1188 81.5928 80.7352C82.2408 81.3358 82.5648 82.1181 82.5648 83.0822C82.5648 83.8725 82.3277 84.5758 81.8536 85.1922C81.3794 85.7928 80.7393 86.2748 79.9333 86.6384C79.1272 86.9861 78.2026 87.1599 77.1595 87.1599ZM89.0894 87.1599C88.1411 87.1599 87.2955 86.9545 86.5527 86.5435C85.8256 86.1168 85.2488 85.532 84.822 84.7892C84.4111 84.0463 84.2056 83.1929 84.2056 82.2287V74.5712H87.4536V81.7546C87.4536 82.5448 87.6827 83.1771 88.1411 83.6512C88.6152 84.1254 89.2474 84.3624 90.0377 84.3624C90.5751 84.3624 91.0571 84.2597 91.4839 84.0542C91.9264 83.833 92.2899 83.5248 92.5744 83.1296V74.5712H95.8223V86.9229H92.5744V85.9271C91.6261 86.749 90.4644 87.1599 89.0894 87.1599ZM98.4722 86.9229V74.5712H101.72V75.5906C102.653 74.753 103.806 74.3341 105.181 74.3341C106.146 74.3341 106.991 74.5475 107.718 74.9742C108.461 75.3852 109.038 75.962 109.449 76.7049C109.86 77.4319 110.065 78.2854 110.065 79.2653V86.9229H106.817V79.7395C106.817 78.9334 106.588 78.3012 106.13 77.8428C105.671 77.3687 105.047 77.1316 104.257 77.1316C103.704 77.1316 103.214 77.2423 102.787 77.4635C102.36 77.669 102.005 77.9693 101.72 78.3644V86.9229H98.4722ZM117.267 87.1599C116.129 87.1599 115.078 87.0177 114.114 86.7332C113.15 86.4329 112.312 86.0062 111.601 85.453L113.213 83.2956C113.924 83.7697 114.604 84.1254 115.252 84.3624C115.916 84.5995 116.572 84.718 117.22 84.718C117.947 84.718 118.523 84.5995 118.95 84.3624C119.393 84.1096 119.614 83.7855 119.614 83.3904C119.614 83.0743 119.488 82.8214 119.235 82.6318C118.998 82.4421 118.61 82.3078 118.073 82.2287L115.702 81.8731C114.469 81.6835 113.537 81.2883 112.905 80.6878C112.273 80.0714 111.956 79.2653 111.956 78.2696C111.956 77.4635 112.162 76.776 112.573 76.207C113 75.6222 113.592 75.1718 114.351 74.8557C115.125 74.5238 116.042 74.3578 117.101 74.3578C118.002 74.3578 118.879 74.4843 119.733 74.7372C120.602 74.99 121.416 75.3773 122.174 75.8988L120.61 78.0088C119.93 77.5821 119.282 77.2739 118.666 77.0842C118.049 76.8945 117.425 76.7997 116.793 76.7997C116.208 76.7997 115.734 76.9103 115.37 77.1316C115.023 77.3529 114.849 77.6453 114.849 78.0088C114.849 78.3407 114.975 78.6015 115.228 78.7911C115.481 78.9808 115.916 79.1152 116.532 79.1942L118.879 79.5498C120.112 79.7236 121.052 80.1188 121.7 80.7352C122.348 81.3358 122.672 82.1181 122.672 83.0822C122.672 83.8725 122.435 84.5758 121.961 85.1922C121.487 85.7928 120.847 86.2748 120.041 86.6384C119.235 86.9861 118.31 87.1599 117.267 87.1599ZM124.408 86.9229V70.3275L127.656 69.6163V75.5906C128.588 74.753 129.742 74.3341 131.117 74.3341C132.081 74.3341 132.927 74.5475 133.654 74.9742C134.397 75.3852 134.974 75.962 135.385 76.7049C135.796 77.4319 136.001 78.2854 136.001 79.2653V86.9229H132.753V79.7395C132.753 78.9334 132.524 78.3012 132.066 77.8428C131.607 77.3687 130.983 77.1316 130.193 77.1316C129.639 77.1316 129.149 77.2423 128.723 77.4635C128.296 77.669 127.94 77.9693 127.656 78.3644V86.9229H124.408ZM138.58 86.9229V74.5712H141.828V86.9229H138.58ZM140.192 73.1013C139.686 73.1013 139.251 72.9196 138.888 72.5561C138.524 72.1925 138.343 71.7579 138.343 71.2521C138.343 70.7306 138.524 70.2959 138.888 69.9482C139.251 69.5847 139.686 69.4029 140.192 69.4029C140.713 69.4029 141.148 69.5847 141.496 69.9482C141.859 70.2959 142.041 70.7306 142.041 71.2521C142.041 71.7579 141.859 72.1925 141.496 72.5561C141.148 72.9196 140.713 73.1013 140.192 73.1013ZM144.486 86.9229V74.5712H147.734V75.5906C148.667 74.753 149.82 74.3341 151.195 74.3341C152.16 74.3341 153.005 74.5475 153.732 74.9742C154.475 75.3852 155.052 75.962 155.463 76.7049C155.874 77.4319 156.079 78.2854 156.079 79.2653V86.9229H152.831V79.7395C152.831 78.9334 152.602 78.3012 152.144 77.8428C151.685 77.3687 151.061 77.1316 150.271 77.1316C149.718 77.1316 149.228 77.2423 148.801 77.4635C148.374 77.669 148.019 77.9693 147.734 78.3644V86.9229H144.486ZM164.703 87.1599C163.471 87.1599 162.348 86.8754 161.337 86.3065C160.341 85.7375 159.551 84.9709 158.966 84.0068C158.381 83.0427 158.089 81.9601 158.089 80.7589C158.089 79.5577 158.366 78.475 158.919 77.5109C159.488 76.5468 160.254 75.7803 161.218 75.2113C162.183 74.6423 163.257 74.3578 164.443 74.3578C165.628 74.3578 166.679 74.6502 167.596 75.235C168.512 75.8198 169.232 76.61 169.753 77.6058C170.291 78.6015 170.559 79.7315 170.559 80.996V81.8494H161.408C161.55 82.3394 161.78 82.7819 162.096 83.1771C162.428 83.5722 162.831 83.8804 163.305 84.1016C163.795 84.3229 164.316 84.4336 164.869 84.4336C165.423 84.4336 165.928 84.3466 166.387 84.1728C166.861 83.9989 167.264 83.7539 167.596 83.4378L169.729 85.3819C168.971 85.9983 168.188 86.4487 167.382 86.7332C166.592 87.0177 165.699 87.1599 164.703 87.1599ZM161.361 79.5261H167.359C167.248 79.0361 167.043 78.6094 166.742 78.2459C166.458 77.8666 166.11 77.5742 165.699 77.3687C165.304 77.1474 164.861 77.0368 164.372 77.0368C163.866 77.0368 163.407 77.1395 162.996 77.345C162.586 77.5505 162.238 77.8428 161.953 78.2222C161.685 78.5857 161.487 79.0203 161.361 79.5261ZM173 81.9443L172.597 70.209H175.892L175.489 81.9443H173ZM174.232 87.1599C173.711 87.1599 173.26 86.9703 172.881 86.5909C172.502 86.2116 172.312 85.7612 172.312 85.2396C172.312 84.7022 172.502 84.2439 172.881 83.8646C173.26 83.4853 173.711 83.2956 174.232 83.2956C174.77 83.2956 175.228 83.4853 175.607 83.8646C175.987 84.2439 176.176 84.7022 176.176 85.2396C176.176 85.7612 175.987 86.2116 175.607 86.5909C175.228 86.9703 174.77 87.1599 174.232 87.1599Z" fill="white"/>
<rect x="182.115" y="66.8604" width="1.79167" height="24.6354" rx="0.895833" fill="white"/>
<path d="M20.302 8.51042L219.292 8.51042L219.292 145.125L9.21908 145.125L9.21908 20.9917" stroke="#9B9B9B" stroke-width="0.355934" stroke-dasharray="3.56 3.56"/>
<g clip-path="url(#clip0_4666_34523)">
<mask id="path-8-outside-1_4666_34523" maskUnits="userSpaceOnUse" x="0.419922" y="-0.287109" width="18" height="18" fill="black">
<rect fill="white" x="0.419922" y="-0.287109" width="18" height="18"/>
<path fill-rule="evenodd" clip-rule="evenodd" d="M9.25156 0.712891C9.61195 0.712891 9.90411 1.00505 9.90411 1.36545V5.28078C9.90411 5.64118 9.61195 5.93334 9.25156 5.93334C8.89116 5.93334 8.599 5.64118 8.599 5.28078V1.36545C8.599 1.00505 8.89116 0.712891 9.25156 0.712891ZM2.07248 7.89081C1.71208 7.89081 1.41992 8.18297 1.41992 8.54337C1.41992 8.90377 1.71208 9.19593 2.07248 9.19593H5.98781C6.34821 9.19593 6.64037 8.90377 6.64037 8.54337C6.64037 8.18297 6.34821 7.89081 5.98781 7.89081H2.07248ZM12.5144 7.89081C12.154 7.89081 11.8618 8.18297 11.8618 8.54337C11.8618 8.90377 12.154 9.19593 12.5144 9.19593H16.4297C16.7901 9.19593 17.0823 8.90377 17.0823 8.54337C17.0823 8.18297 16.7901 7.89081 16.4297 7.89081H12.5144ZM9.9043 11.8061C9.9043 11.4457 9.61214 11.1535 9.25174 11.1535C8.89134 11.1535 8.59918 11.4457 8.59918 11.8061V15.7214C8.59918 16.0818 8.89134 16.374 9.25174 16.374C9.61214 16.374 9.9043 16.0818 9.9043 15.7214V11.8061Z"/>
</mask>
<path fill-rule="evenodd" clip-rule="evenodd" d="M9.25156 0.712891C9.61195 0.712891 9.90411 1.00505 9.90411 1.36545V5.28078C9.90411 5.64118 9.61195 5.93334 9.25156 5.93334C8.89116 5.93334 8.599 5.64118 8.599 5.28078V1.36545C8.599 1.00505 8.89116 0.712891 9.25156 0.712891ZM2.07248 7.89081C1.71208 7.89081 1.41992 8.18297 1.41992 8.54337C1.41992 8.90377 1.71208 9.19593 2.07248 9.19593H5.98781C6.34821 9.19593 6.64037 8.90377 6.64037 8.54337C6.64037 8.18297 6.34821 7.89081 5.98781 7.89081H2.07248ZM12.5144 7.89081C12.154 7.89081 11.8618 8.18297 11.8618 8.54337C11.8618 8.90377 12.154 9.19593 12.5144 9.19593H16.4297C16.7901 9.19593 17.0823 8.90377 17.0823 8.54337C17.0823 8.18297 16.7901 7.89081 16.4297 7.89081H12.5144ZM9.9043 11.8061C9.9043 11.4457 9.61214 11.1535 9.25174 11.1535C8.89134 11.1535 8.59918 11.4457 8.59918 11.8061V15.7214C8.59918 16.0818 8.89134 16.374 9.25174 16.374C9.61214 16.374 9.9043 16.0818 9.9043 15.7214V11.8061Z" fill="black"/>
<path d="M9.25156 0.712891V1.42476V0.712891ZM10.616 1.36545C10.616 0.611896 10.0051 0.00102317 9.25156 0.00102311V1.42476C9.2188 1.42476 9.19225 1.3982 9.19225 1.36545H10.616ZM10.616 5.28078V1.36545H9.19225V5.28078H10.616ZM9.25156 6.64521C10.0051 6.64521 10.616 6.03433 10.616 5.28078H9.19225C9.19225 5.24802 9.2188 5.22147 9.25156 5.22147V6.64521ZM7.88713 5.28078C7.88713 6.03433 8.49801 6.64521 9.25156 6.64521V5.22147C9.28431 5.22147 9.31087 5.24802 9.31087 5.28078H7.88713ZM7.88713 1.36545V5.28078H9.31087V1.36545H7.88713ZM9.25156 0.00102311C8.49801 0.00102305 7.88713 0.611896 7.88713 1.36545H9.31087C9.31087 1.3982 9.28431 1.42476 9.25156 1.42476V0.00102311ZM2.13179 8.54337C2.13179 8.57613 2.10524 8.60268 2.07248 8.60268V7.17895C1.31893 7.17895 0.708054 7.78982 0.708054 8.54337H2.13179ZM2.07248 8.48406C2.10523 8.48406 2.13179 8.51061 2.13179 8.54337H0.708054C0.708054 9.29692 1.31893 9.90779 2.07248 9.90779V8.48406ZM5.98781 8.48406H2.07248V9.90779H5.98781V8.48406ZM5.9285 8.54337C5.9285 8.51061 5.95506 8.48406 5.98781 8.48406V9.90779C6.74136 9.90779 7.35224 9.29692 7.35224 8.54337H5.9285ZM5.98781 8.60268C5.95506 8.60268 5.9285 8.57613 5.9285 8.54337H7.35224C7.35224 7.78982 6.74136 7.17895 5.98781 7.17895V8.60268ZM2.07248 8.60268H5.98781V7.17895H2.07248V8.60268ZM12.5737 8.54337C12.5737 8.57613 12.5471 8.60268 12.5144 8.60268V7.17895C11.7608 7.17895 11.1499 7.78982 11.1499 8.54337H12.5737ZM12.5144 8.48406C12.5471 8.48406 12.5737 8.51061 12.5737 8.54337H11.1499C11.1499 9.29692 11.7608 9.90779 12.5144 9.90779V8.48406ZM16.4297 8.48406H12.5144V9.90779H16.4297V8.48406ZM16.3704 8.54337C16.3704 8.51061 16.397 8.48406 16.4297 8.48406V9.90779C17.1833 9.90779 17.7941 9.29692 17.7941 8.54337H16.3704ZM16.4297 8.60268C16.397 8.60268 16.3704 8.57613 16.3704 8.54337H17.7941C17.7941 7.78982 17.1833 7.17895 16.4297 7.17895V8.60268ZM12.5144 8.60268H16.4297V7.17895H12.5144V8.60268ZM9.25174 11.8654C9.21898 11.8654 9.19243 11.8388 9.19243 11.8061H10.6162C10.6162 11.0525 10.0053 10.4416 9.25174 10.4416V11.8654ZM9.31105 11.8061C9.31105 11.8388 9.2845 11.8654 9.25174 11.8654V10.4416C8.49819 10.4416 7.88732 11.0525 7.88732 11.8061H9.31105ZM9.31105 15.7214V11.8061H7.88732V15.7214H9.31105ZM9.25174 15.6621C9.2845 15.6621 9.31105 15.6886 9.31105 15.7214H7.88732C7.88732 16.475 8.49819 17.0858 9.25174 17.0858V15.6621ZM9.19243 15.7214C9.19243 15.6886 9.21898 15.6621 9.25174 15.6621V17.0858C10.0053 17.0858 10.6162 16.475 10.6162 15.7214H9.19243ZM9.19243 11.8061V15.7214H10.6162V11.8061H9.19243Z" fill="url(#paint0_linear_4666_34523)" mask="url(#path-8-outside-1_4666_34523)"/>
</g>
<path d="M258.001 112.666C253.066 117.326 240.099 123.849 227.706 112.666C212.214 98.6869 212.214 133.435 187.771 112.666C163.328 91.897 177.443 133.435 153.689 112.666C129.935 91.8972 123.738 122.252 112.377 112.666C101.017 103.08 93.7871 125.048 81.7379 112.666C69.6886 100.284 71.0657 132.237 48 108.672" stroke="#B6AEEA" stroke-width="3.55934" stroke-linecap="round"/>
<g clip-path="url(#clip1_4666_34523)">
<mask id="path-12-outside-2_4666_34523" maskUnits="userSpaceOnUse" x="254.154" y="98.5361" width="18" height="18" fill="black">
<rect fill="white" x="254.154" y="98.5361" width="18" height="18"/>
<path fill-rule="evenodd" clip-rule="evenodd" d="M261.912 106.834C262.115 106.344 262.298 105.903 262.698 105.511C263.235 104.984 264.026 105.131 264.606 105.701C264.866 106.021 264.99 106.43 264.953 106.841C264.916 107.251 264.719 107.631 264.406 107.899C263.13 109.149 260.33 109.186 260.857 108.622C261.442 107.968 261.69 107.371 261.912 106.834ZM265.856 102.706C267.274 101.314 270.332 99.1683 270.759 99.5901C271.191 100.012 269.051 103.096 267.638 104.493C267.207 104.929 266.721 105.306 266.193 105.616C266.071 105.679 266.042 105.616 266.017 105.559C266.012 105.55 266.008 105.54 266.003 105.532C265.869 105.267 265.691 105.026 265.476 104.82C265.265 104.604 265.019 104.426 264.748 104.293C264.743 104.29 264.736 104.287 264.729 104.284C264.671 104.258 264.58 104.216 264.664 104.109C265.01 103.599 265.409 103.129 265.856 102.706ZM260.166 112.38C260.166 113.591 259.184 114.572 257.973 114.572C256.762 114.572 255.78 113.591 255.78 112.38C255.78 111.169 256.762 110.187 257.973 110.187C259.184 110.187 260.166 111.169 260.166 112.38ZM260.792 112.38C260.792 113.937 259.53 115.199 257.973 115.199C256.416 115.199 255.154 113.937 255.154 112.38C255.154 110.823 256.416 109.561 257.973 109.561C259.53 109.561 260.792 110.823 260.792 112.38Z"/>
</mask>
<path fill-rule="evenodd" clip-rule="evenodd" d="M261.912 106.834C262.115 106.344 262.298 105.903 262.698 105.511C263.235 104.984 264.026 105.131 264.606 105.701C264.866 106.021 264.99 106.43 264.953 106.841C264.916 107.251 264.719 107.631 264.406 107.899C263.13 109.149 260.33 109.186 260.857 108.622C261.442 107.968 261.69 107.371 261.912 106.834ZM265.856 102.706C267.274 101.314 270.332 99.1683 270.759 99.5901C271.191 100.012 269.051 103.096 267.638 104.493C267.207 104.929 266.721 105.306 266.193 105.616C266.071 105.679 266.042 105.616 266.017 105.559C266.012 105.55 266.008 105.54 266.003 105.532C265.869 105.267 265.691 105.026 265.476 104.82C265.265 104.604 265.019 104.426 264.748 104.293C264.743 104.29 264.736 104.287 264.729 104.284C264.671 104.258 264.58 104.216 264.664 104.109C265.01 103.599 265.409 103.129 265.856 102.706ZM260.166 112.38C260.166 113.591 259.184 114.572 257.973 114.572C256.762 114.572 255.78 113.591 255.78 112.38C255.78 111.169 256.762 110.187 257.973 110.187C259.184 110.187 260.166 111.169 260.166 112.38ZM260.792 112.38C260.792 113.937 259.53 115.199 257.973 115.199C256.416 115.199 255.154 113.937 255.154 112.38C255.154 110.823 256.416 109.561 257.973 109.561C259.53 109.561 260.792 110.823 260.792 112.38Z" fill="black"/>
<path d="M262.698 105.511L262.199 105.003L262.199 105.003L262.698 105.511ZM261.912 106.834L262.57 107.106V107.106L261.912 106.834ZM264.606 105.701L265.159 105.252L265.134 105.221L265.105 105.193L264.606 105.701ZM264.953 106.841L265.662 106.905L264.953 106.841ZM264.406 107.899L263.943 107.358L263.925 107.374L263.908 107.391L264.406 107.899ZM260.857 108.622L261.378 109.108L261.383 109.102L261.388 109.096L260.857 108.622ZM270.759 99.5901L270.259 100.097L270.262 100.1L270.759 99.5901ZM265.856 102.706L266.345 103.223L266.354 103.214L265.856 102.706ZM267.638 104.493L267.137 103.987L267.132 103.993L267.638 104.493ZM266.193 105.616L266.521 106.248L266.537 106.24L266.553 106.23L266.193 105.616ZM266.017 105.559L265.369 105.855L265.369 105.855L266.017 105.559ZM266.003 105.532L265.368 105.854L265.373 105.863L265.378 105.873L266.003 105.532ZM265.476 104.82L264.966 105.317L264.975 105.326L264.983 105.334L265.476 104.82ZM264.748 104.293L264.43 104.93L264.435 104.932L264.748 104.293ZM264.729 104.284L265.022 103.635L265.022 103.635L264.729 104.284ZM264.664 104.109L265.225 104.547L265.24 104.528L265.253 104.508L264.664 104.109ZM262.199 105.003C261.682 105.51 261.452 106.084 261.255 106.561L262.57 107.106C262.778 106.604 262.914 106.296 263.196 106.019L262.199 105.003ZM265.105 105.193C264.727 104.821 264.246 104.553 263.724 104.488C263.185 104.421 262.632 104.578 262.199 105.003L263.196 106.019C263.3 105.917 263.412 105.884 263.548 105.901C263.701 105.92 263.906 106.011 264.107 106.209L265.105 105.193ZM265.662 106.905C265.716 106.31 265.536 105.717 265.159 105.252L264.053 106.149C264.196 106.325 264.265 106.55 264.244 106.776L265.662 106.905ZM264.868 108.44C265.323 108.052 265.608 107.501 265.662 106.905L264.244 106.776C264.223 107.002 264.115 107.211 263.943 107.358L264.868 108.44ZM260.337 108.136C260.258 108.221 260.158 108.354 260.109 108.536C260.054 108.74 260.077 108.961 260.187 109.154C260.367 109.473 260.694 109.574 260.824 109.61C261.162 109.701 261.608 109.699 262.04 109.647C262.909 109.543 264.107 109.188 264.904 108.408L263.908 107.391C263.428 107.86 262.588 108.148 261.871 108.234C261.509 108.277 261.275 108.257 261.196 108.235C261.118 108.214 261.303 108.236 261.426 108.453C261.507 108.596 261.522 108.761 261.484 108.904C261.451 109.026 261.391 109.093 261.378 109.108L260.337 108.136ZM261.255 106.561C261.036 107.089 260.826 107.589 260.327 108.147L261.388 109.096C262.059 108.346 262.343 107.653 262.57 107.106L261.255 106.561ZM271.259 99.0836C270.944 98.7727 270.533 98.8162 270.368 98.8435C270.154 98.8788 269.93 98.961 269.723 99.0526C269.302 99.2396 268.797 99.5364 268.286 99.8741C267.262 100.551 266.105 101.464 265.357 102.198L266.354 103.214C267.024 102.557 268.106 101.7 269.072 101.062C269.556 100.742 269.985 100.494 270.301 100.354C270.463 100.282 270.559 100.255 270.6 100.248C270.689 100.233 270.467 100.302 270.259 100.097L271.259 99.0836ZM268.138 105C268.888 104.258 269.807 103.096 270.485 102.068C270.823 101.554 271.119 101.047 271.305 100.623C271.395 100.415 271.477 100.19 271.51 99.9745C271.536 99.8072 271.575 99.3922 271.256 99.0806L270.262 100.1C270.05 99.8935 270.117 99.6671 270.104 99.7547C270.097 99.7939 270.071 99.8898 270 100.052C269.862 100.369 269.616 100.799 269.296 101.284C268.658 102.253 267.8 103.332 267.137 103.987L268.138 105ZM266.553 106.23C267.135 105.889 267.67 105.473 268.144 104.994L267.132 103.993C266.744 104.384 266.308 104.724 265.833 105.002L266.553 106.23ZM265.369 105.855C265.372 105.861 265.398 105.922 265.438 105.984C265.481 106.051 265.564 106.162 265.708 106.246C266.048 106.446 266.376 106.323 266.521 106.248L265.865 104.984C265.889 104.972 266.141 104.849 266.43 105.019C266.548 105.088 266.611 105.176 266.638 105.217C266.661 105.254 266.674 105.286 266.664 105.263L265.369 105.855ZM265.378 105.873C265.372 105.862 265.369 105.854 265.368 105.852C265.367 105.851 265.367 105.85 265.367 105.851C265.367 105.852 265.368 105.853 265.369 105.855L266.664 105.263C266.662 105.259 266.647 105.226 266.628 105.191L265.378 105.873ZM264.983 105.334C265.14 105.484 265.27 105.66 265.368 105.854L266.638 105.21C266.468 104.874 266.241 104.568 265.969 104.306L264.983 105.334ZM264.435 104.932C264.633 105.029 264.812 105.159 264.966 105.317L265.986 104.323C265.718 104.049 265.406 103.823 265.062 103.654L264.435 104.932ZM264.435 104.932C264.44 104.934 264.44 104.935 264.44 104.935C264.44 104.935 264.436 104.933 264.43 104.93L265.067 103.656C265.046 103.646 265.026 103.637 265.022 103.635L264.435 104.932ZM264.103 103.67C264.036 103.756 263.948 103.897 263.924 104.089C263.897 104.304 263.961 104.498 264.065 104.642C264.155 104.768 264.261 104.838 264.316 104.871C264.372 104.905 264.426 104.928 264.435 104.932L265.022 103.635C265.002 103.626 265.023 103.635 265.049 103.65C265.072 103.664 265.15 103.713 265.221 103.811C265.305 103.929 265.359 104.09 265.337 104.267C265.317 104.419 265.25 104.515 265.225 104.547L264.103 103.67ZM265.366 102.189C264.882 102.648 264.449 103.157 264.075 103.709L265.253 104.508C265.57 104.042 265.936 103.611 266.345 103.223L265.366 102.189ZM257.973 115.284C259.577 115.284 260.877 113.984 260.877 112.38H259.454C259.454 113.197 258.791 113.86 257.973 113.86V115.284ZM255.068 112.38C255.068 113.984 256.369 115.284 257.973 115.284V113.86C257.155 113.86 256.492 113.197 256.492 112.38H255.068ZM257.973 109.475C256.369 109.475 255.068 110.776 255.068 112.38H256.492C256.492 111.562 257.155 110.899 257.973 110.899V109.475ZM260.877 112.38C260.877 110.776 259.577 109.475 257.973 109.475V110.899C258.791 110.899 259.454 111.562 259.454 112.38H260.877ZM257.973 115.911C259.923 115.911 261.504 114.33 261.504 112.38H260.08C260.08 113.543 259.137 114.487 257.973 114.487V115.911ZM254.442 112.38C254.442 114.33 256.023 115.911 257.973 115.911V114.487C256.809 114.487 255.866 113.543 255.866 112.38H254.442ZM257.973 108.849C256.023 108.849 254.442 110.43 254.442 112.38H255.866C255.866 111.216 256.809 110.272 257.973 110.272V108.849ZM261.504 112.38C261.504 110.43 259.923 108.849 257.973 108.849V110.272C259.137 110.272 260.08 111.216 260.08 112.38H261.504Z" fill="url(#paint1_linear_4666_34523)" mask="url(#path-12-outside-2_4666_34523)"/>
</g>
<g filter="url(#filter0_d_4666_34523)">
<g filter="url(#filter1_i_4666_34523)">
<rect x="79" y="132.379" width="181.622" height="98.5946" rx="6.22703" fill="url(#paint2_linear_4666_34523)"/>
</g>
<rect x="79.2595" y="132.638" width="181.103" height="98.0757" rx="5.96757" stroke="url(#paint3_linear_4666_34523)" stroke-width="0.518919"/>
<mask id="mask1_4666_34523" style="mask-type:alpha" maskUnits="userSpaceOnUse" x="79" y="132" width="182" height="99">
<rect x="79.2595" y="132.636" width="181.103" height="98.0757" rx="5.96757" fill="url(#paint4_linear_4666_34523)" stroke="url(#paint5_linear_4666_34523)" stroke-width="0.518919"/>
</mask>
<g mask="url(#mask1_4666_34523)">
<g filter="url(#filter2_f_4666_34523)">
<rect x="132.967" y="197.761" width="73.6865" height="33.0292" rx="4.15135" fill="url(#paint6_linear_4666_34523)"/>
</g>
</g>
<rect x="89.3784" y="145.351" width="159.827" height="18.6811" rx="2.07568" fill="white"/>
<path d="M101.33 157.465H94.8948V157.091C95.1003 157.085 95.2684 157.066 95.3992 157.035C95.5299 157.004 95.6296 156.951 95.6981 156.876C95.7666 156.802 95.8133 156.696 95.8382 156.559C95.8631 156.422 95.8755 156.244 95.8755 156.026V151.711C95.8755 151.493 95.8631 151.319 95.8382 151.188C95.8195 151.051 95.779 150.945 95.7168 150.87C95.6545 150.789 95.5642 150.737 95.4459 150.712C95.3338 150.68 95.1843 150.659 94.9975 150.646V150.273H98.22V150.646C98.0083 150.652 97.8371 150.671 97.7063 150.702C97.5818 150.733 97.4852 150.789 97.4167 150.87C97.3482 150.951 97.3015 151.063 97.2766 151.207C97.2579 151.35 97.2486 151.54 97.2486 151.776V155.69C97.2486 155.952 97.2735 156.167 97.3233 156.335C97.3794 156.497 97.4728 156.624 97.6035 156.718C97.7343 156.805 97.9087 156.867 98.1266 156.904C98.3446 156.936 98.6154 156.951 98.9392 156.951C99.3004 156.951 99.6024 156.929 99.8453 156.886C100.088 156.842 100.291 156.761 100.452 156.643C100.621 156.518 100.754 156.353 100.854 156.148C100.954 155.942 101.038 155.675 101.106 155.345H101.48L101.33 157.465ZM104.113 155.933C104.113 156.182 104.122 156.381 104.141 156.531C104.16 156.68 104.197 156.795 104.253 156.876C104.309 156.957 104.39 157.013 104.496 157.045C104.602 157.069 104.745 157.085 104.925 157.091V157.465H101.983V157.091C102.158 157.085 102.298 157.066 102.403 157.035C102.516 156.998 102.6 156.942 102.656 156.867C102.718 156.786 102.758 156.677 102.777 156.54C102.802 156.397 102.814 156.216 102.814 155.998V154.849C102.814 154.488 102.808 154.193 102.796 153.962C102.783 153.726 102.768 153.564 102.749 153.476C102.718 153.321 102.646 153.218 102.534 153.168C102.428 153.118 102.232 153.093 101.946 153.093V152.776L104.113 152.421V155.933ZM102.74 150.441C102.74 150.235 102.808 150.064 102.945 149.927C103.088 149.784 103.26 149.712 103.459 149.712C103.664 149.712 103.836 149.784 103.973 149.927C104.116 150.064 104.188 150.235 104.188 150.441C104.188 150.64 104.116 150.811 103.973 150.954C103.836 151.091 103.664 151.16 103.459 151.16C103.26 151.16 103.088 151.091 102.945 150.954C102.808 150.811 102.74 150.64 102.74 150.441ZM107.282 155.419C107.282 155.65 107.313 155.864 107.376 156.064C107.444 156.257 107.535 156.425 107.647 156.568C107.759 156.711 107.893 156.823 108.048 156.904C108.204 156.985 108.375 157.026 108.562 157.026C108.936 157.026 109.219 156.855 109.412 156.512C109.605 156.17 109.702 155.665 109.702 154.999C109.702 154.351 109.605 153.859 109.412 153.523C109.225 153.181 108.942 153.009 108.562 153.009C108.338 153.009 108.129 153.072 107.936 153.196C107.749 153.315 107.603 153.483 107.497 153.701C107.354 154 107.282 154.376 107.282 154.831V155.419ZM107.264 153.159H107.301C107.463 152.922 107.672 152.742 107.927 152.617C108.182 152.486 108.472 152.421 108.795 152.421C109.126 152.421 109.431 152.489 109.711 152.626C109.997 152.757 110.243 152.938 110.449 153.168C110.66 153.399 110.825 153.669 110.944 153.981C111.062 154.292 111.121 154.625 111.121 154.98C111.121 155.354 111.056 155.699 110.925 156.017C110.801 156.328 110.626 156.599 110.402 156.83C110.184 157.06 109.926 157.241 109.627 157.371C109.334 157.502 109.023 157.568 108.693 157.568C108.35 157.568 108.026 157.502 107.721 157.371C107.422 157.234 107.183 157.057 107.002 156.839L106.292 157.465H105.975V151.907C105.975 151.322 105.934 150.92 105.853 150.702C105.835 150.659 105.813 150.621 105.788 150.59C105.763 150.559 105.726 150.534 105.676 150.515C105.632 150.491 105.57 150.472 105.489 150.459C105.408 150.441 105.302 150.422 105.171 150.403V150.086L107.264 149.712V153.159ZM113.978 156.017C113.978 156.26 113.987 156.453 114.006 156.596C114.031 156.733 114.078 156.839 114.146 156.914C114.215 156.988 114.314 157.038 114.445 157.063C114.576 157.082 114.75 157.091 114.968 157.091V157.465H111.848V157.091C112.035 157.079 112.184 157.06 112.297 157.035C112.409 157.01 112.493 156.96 112.549 156.886C112.605 156.811 112.639 156.705 112.652 156.568C112.67 156.425 112.68 156.235 112.68 155.998V154.859C112.68 154.473 112.67 154.165 112.652 153.934C112.633 153.704 112.592 153.526 112.53 153.402C112.468 153.277 112.378 153.196 112.259 153.159C112.147 153.115 111.998 153.093 111.811 153.093V152.767L113.679 152.421L113.828 153.495H113.866C114.034 153.165 114.255 152.904 114.529 152.711C114.803 152.517 115.093 152.421 115.398 152.421C115.634 152.421 115.827 152.48 115.977 152.598C116.126 152.717 116.201 152.866 116.201 153.047C116.201 153.246 116.142 153.414 116.023 153.551C115.911 153.688 115.756 153.757 115.556 153.757C115.463 153.757 115.379 153.738 115.304 153.701C115.23 153.663 115.161 153.623 115.099 153.579C115.043 153.529 114.984 153.486 114.921 153.448C114.865 153.405 114.806 153.383 114.744 153.383C114.625 153.383 114.513 153.461 114.408 153.617C114.302 153.772 114.215 153.981 114.146 154.242C114.096 154.429 114.056 154.641 114.025 154.878C113.993 155.108 113.978 155.338 113.978 155.569V156.017ZM121.303 156.596C120.736 157.238 120.029 157.558 119.182 157.558C118.796 157.558 118.444 157.499 118.127 157.381C117.815 157.256 117.548 157.085 117.324 156.867C117.099 156.643 116.925 156.378 116.8 156.073C116.676 155.768 116.614 155.429 116.614 155.055C116.614 154.669 116.679 154.317 116.81 154C116.941 153.676 117.124 153.399 117.361 153.168C117.604 152.932 117.887 152.748 118.211 152.617C118.541 152.486 118.902 152.421 119.294 152.421C119.954 152.421 120.468 152.598 120.836 152.953C121.203 153.308 121.387 153.806 121.387 154.448C121.387 154.547 121.371 154.61 121.34 154.635C121.309 154.653 121.222 154.663 121.078 154.663H118.071C118.046 154.719 118.033 154.821 118.033 154.971C118.033 155.581 118.164 156.064 118.426 156.419C118.693 156.774 119.055 156.951 119.509 156.951C119.771 156.951 120.029 156.892 120.284 156.774C120.546 156.655 120.798 156.487 121.041 156.269L121.303 156.596ZM119.491 154.14C119.74 154.14 119.898 154.127 119.967 154.102C120.042 154.071 120.079 154.003 120.079 153.897C120.079 153.623 120.001 153.399 119.845 153.224C119.69 153.05 119.494 152.963 119.257 152.963C118.989 152.963 118.75 153.075 118.538 153.299C118.332 153.517 118.198 153.797 118.136 154.14H119.491ZM124.699 157.465V157.091C124.91 157.085 125.079 157.066 125.203 157.035C125.334 157.004 125.433 156.951 125.502 156.876C125.577 156.802 125.627 156.696 125.651 156.559C125.676 156.422 125.689 156.244 125.689 156.026V151.711C125.689 151.493 125.679 151.319 125.661 151.188C125.642 151.051 125.602 150.945 125.539 150.87C125.483 150.789 125.402 150.737 125.296 150.712C125.197 150.68 125.063 150.659 124.895 150.646V150.273H127.893C128.833 150.273 129.556 150.425 130.06 150.73C130.571 151.029 130.826 151.459 130.826 152.019C130.826 152.76 130.294 153.283 129.229 153.589V153.626C129.571 153.626 129.88 153.676 130.154 153.775C130.434 153.869 130.67 154.003 130.863 154.177C131.056 154.351 131.206 154.557 131.312 154.793C131.418 155.03 131.471 155.288 131.471 155.569C131.471 155.886 131.393 156.163 131.237 156.4C131.088 156.637 130.87 156.836 130.583 156.998C130.029 157.309 129.266 157.465 128.295 157.465H124.699ZM128.36 156.895C129.363 156.895 129.864 156.444 129.864 155.541C129.864 154.986 129.683 154.582 129.322 154.326C129.135 154.196 128.893 154.102 128.594 154.046C128.301 153.99 127.94 153.962 127.51 153.962H127.062V155.83C127.062 156.216 127.161 156.49 127.361 156.652C127.56 156.814 127.893 156.895 128.36 156.895ZM127.613 153.402C127.893 153.402 128.136 153.377 128.342 153.327C128.547 153.271 128.721 153.193 128.865 153.093C129.163 152.888 129.313 152.567 129.313 152.131C129.313 151.677 129.201 151.35 128.977 151.151C128.752 150.945 128.391 150.842 127.893 150.842H127.23C127.118 150.842 127.062 150.895 127.062 151.001V153.402H127.613ZM135.14 154.803C134.617 155.039 134.222 155.26 133.954 155.466C133.692 155.665 133.562 155.874 133.562 156.092C133.562 156.272 133.612 156.416 133.711 156.521C133.811 156.627 133.935 156.68 134.085 156.68C134.234 156.68 134.374 156.655 134.505 156.606C134.636 156.549 134.748 156.478 134.841 156.391C134.935 156.304 135.006 156.201 135.056 156.082C135.112 155.958 135.14 155.827 135.14 155.69V154.803ZM135.14 154.308V153.915C135.14 153.554 135.075 153.293 134.944 153.131C134.82 152.963 134.623 152.879 134.356 152.879C134.175 152.879 134.038 152.928 133.945 153.028C133.851 153.121 133.764 153.28 133.683 153.504C133.627 153.66 133.546 153.782 133.44 153.869C133.341 153.956 133.201 154 133.02 154C132.846 154 132.712 153.947 132.618 153.841C132.525 153.735 132.478 153.585 132.478 153.392C132.478 153.093 132.64 152.857 132.964 152.682C133.294 152.508 133.789 152.421 134.449 152.421C135.146 152.421 135.645 152.549 135.944 152.804C136.242 153.053 136.392 153.473 136.392 154.065V156.11C136.392 156.64 136.498 156.904 136.709 156.904C136.828 156.904 136.937 156.864 137.036 156.783L137.176 157.054C137.089 157.21 136.952 157.334 136.766 157.427C136.585 157.515 136.379 157.558 136.149 157.558C135.863 157.558 135.645 157.471 135.495 157.297C135.346 157.122 135.271 156.876 135.271 156.559H135.224C135.044 156.883 134.81 157.129 134.524 157.297C134.237 157.465 133.91 157.549 133.543 157.549C133.151 157.549 132.836 157.44 132.6 157.222C132.363 156.998 132.245 156.708 132.245 156.353C132.245 156.079 132.366 155.824 132.609 155.587C132.852 155.345 133.257 155.108 133.823 154.878L135.14 154.308ZM138.178 157.465H137.888V155.765H138.281C138.387 156.213 138.539 156.54 138.738 156.746C138.938 156.951 139.196 157.054 139.514 157.054C139.744 157.054 139.922 157.007 140.046 156.914C140.177 156.814 140.242 156.68 140.242 156.512C140.242 156.338 140.164 156.17 140.009 156.008C139.853 155.84 139.601 155.662 139.252 155.475C138.779 155.22 138.44 154.968 138.234 154.719C138.029 154.463 137.926 154.177 137.926 153.859C137.926 153.654 137.963 153.464 138.038 153.29C138.119 153.109 138.225 152.953 138.355 152.823C138.492 152.692 138.654 152.592 138.841 152.524C139.028 152.449 139.23 152.412 139.448 152.412C139.641 152.412 139.831 152.44 140.018 152.496C140.211 152.552 140.379 152.63 140.522 152.729L140.691 152.505H140.933V153.915H140.569C140.426 153.56 140.276 153.305 140.121 153.15C139.971 152.994 139.788 152.916 139.57 152.916C139.395 152.916 139.255 152.963 139.149 153.056C139.05 153.15 139 153.274 139 153.43C139 153.604 139.075 153.769 139.224 153.925C139.38 154.08 139.635 154.252 139.99 154.439C140.239 154.576 140.454 154.709 140.635 154.84C140.815 154.971 140.961 155.105 141.074 155.242C141.186 155.373 141.267 155.513 141.316 155.662C141.372 155.805 141.4 155.961 141.4 156.129C141.4 156.347 141.36 156.543 141.279 156.718C141.198 156.892 141.083 157.041 140.933 157.166C140.784 157.29 140.603 157.387 140.392 157.456C140.186 157.524 139.956 157.558 139.7 157.558C139.433 157.558 139.184 157.524 138.953 157.456C138.723 157.381 138.533 157.275 138.383 157.138L138.178 157.465ZM145.172 157.091C145.372 157.091 145.512 157.085 145.593 157.073C145.674 157.054 145.714 157.02 145.714 156.97C145.714 156.932 145.671 156.842 145.583 156.699C145.502 156.549 145.397 156.378 145.266 156.185L144.556 155.12L144.089 155.569V155.933C144.089 156.176 144.098 156.372 144.117 156.521C144.136 156.671 144.167 156.789 144.21 156.876C144.26 156.957 144.325 157.013 144.406 157.045C144.494 157.076 144.603 157.091 144.733 157.091V157.465H141.978V157.091C142.152 157.085 142.292 157.066 142.398 157.035C142.504 157.004 142.588 156.951 142.65 156.876C142.713 156.795 142.753 156.686 142.772 156.549C142.797 156.406 142.809 156.223 142.809 155.998V152.038C142.809 151.658 142.803 151.359 142.791 151.141C142.778 150.923 142.744 150.761 142.688 150.656C142.638 150.544 142.557 150.475 142.445 150.45C142.339 150.425 142.193 150.413 142.006 150.413V150.067L144.089 149.712V154.906L144.986 154.056C145.309 153.75 145.54 153.523 145.677 153.374C145.814 153.218 145.882 153.106 145.882 153.037C145.882 152.981 145.823 152.944 145.705 152.925C145.593 152.9 145.381 152.888 145.07 152.888V152.514H147.62V152.888C147.383 152.888 147.174 152.928 146.994 153.009C146.813 153.09 146.617 153.23 146.405 153.43L145.499 154.28L147.115 156.568C147.258 156.767 147.399 156.904 147.536 156.979C147.673 157.054 147.853 157.091 148.077 157.091V157.465H145.172V157.091ZM152.913 156.596C152.346 157.238 151.64 157.558 150.793 157.558C150.407 157.558 150.055 157.499 149.737 157.381C149.426 157.256 149.158 157.085 148.934 156.867C148.71 156.643 148.535 156.378 148.411 156.073C148.286 155.768 148.224 155.429 148.224 155.055C148.224 154.669 148.289 154.317 148.42 154C148.551 153.676 148.735 153.399 148.971 153.168C149.214 152.932 149.498 152.748 149.821 152.617C150.151 152.486 150.513 152.421 150.905 152.421C151.565 152.421 152.079 152.598 152.446 152.953C152.813 153.308 152.997 153.806 152.997 154.448C152.997 154.547 152.982 154.61 152.95 154.635C152.919 154.653 152.832 154.663 152.689 154.663H149.681C149.656 154.719 149.644 154.821 149.644 154.971C149.644 155.581 149.775 156.064 150.036 156.419C150.304 156.774 150.665 156.951 151.12 156.951C151.381 156.951 151.64 156.892 151.895 156.774C152.156 156.655 152.409 156.487 152.652 156.269L152.913 156.596ZM151.101 154.14C151.35 154.14 151.509 154.127 151.577 154.102C151.652 154.071 151.689 154.003 151.689 153.897C151.689 153.623 151.612 153.399 151.456 153.224C151.3 153.05 151.104 152.963 150.867 152.963C150.6 152.963 150.36 153.075 150.148 153.299C149.943 153.517 149.809 153.797 149.747 154.14H151.101ZM155.836 156.017C155.836 156.26 155.846 156.453 155.864 156.596C155.889 156.733 155.936 156.839 156.004 156.914C156.073 156.988 156.173 157.038 156.303 157.063C156.434 157.082 156.608 157.091 156.826 157.091V157.465H153.707V157.091C153.893 157.079 154.043 157.06 154.155 157.035C154.267 157.01 154.351 156.96 154.407 156.886C154.463 156.811 154.497 156.705 154.51 156.568C154.529 156.425 154.538 156.235 154.538 155.998V154.859C154.538 154.473 154.529 154.165 154.51 153.934C154.491 153.704 154.451 153.526 154.388 153.402C154.326 153.277 154.236 153.196 154.118 153.159C154.006 153.115 153.856 153.093 153.669 153.093V152.767L155.537 152.421L155.687 153.495H155.724C155.892 153.165 156.113 152.904 156.387 152.711C156.661 152.517 156.951 152.421 157.256 152.421C157.493 152.421 157.686 152.48 157.835 152.598C157.985 152.717 158.059 152.866 158.059 153.047C158.059 153.246 158 153.414 157.882 153.551C157.77 153.688 157.614 153.757 157.415 153.757C157.321 153.757 157.237 153.738 157.163 153.701C157.088 153.663 157.019 153.623 156.957 153.579C156.901 153.529 156.842 153.486 156.78 153.448C156.724 153.405 156.664 153.383 156.602 153.383C156.484 153.383 156.372 153.461 156.266 153.617C156.16 153.772 156.073 153.981 156.004 154.242C155.955 154.429 155.914 154.641 155.883 154.878C155.852 155.108 155.836 155.338 155.836 155.569V156.017ZM159.115 153.719C159.047 153.539 158.981 153.395 158.919 153.29C158.857 153.178 158.791 153.093 158.723 153.037C158.661 152.975 158.589 152.935 158.508 152.916C158.433 152.897 158.343 152.888 158.237 152.888V152.514H161.03V152.888C160.874 152.888 160.75 152.894 160.656 152.907C160.569 152.919 160.501 152.938 160.451 152.963C160.407 152.988 160.379 153.022 160.367 153.065C160.354 153.103 160.348 153.146 160.348 153.196C160.348 153.277 160.364 153.371 160.395 153.476C160.426 153.582 160.463 153.688 160.507 153.794L161.394 156.241H161.432L162.431 153.803C162.475 153.697 162.509 153.604 162.534 153.523C162.559 153.436 162.571 153.358 162.571 153.29C162.571 153.153 162.525 153.053 162.431 152.991C162.338 152.928 162.173 152.894 161.936 152.888V152.514H164V152.888C163.832 152.888 163.686 152.932 163.561 153.019C163.443 153.106 163.318 153.299 163.188 153.598L161.441 157.558H160.591L159.115 153.719ZM166.494 155.933C166.494 156.182 166.504 156.381 166.523 156.531C166.541 156.68 166.579 156.795 166.635 156.876C166.691 156.957 166.772 157.013 166.877 157.045C166.983 157.069 167.127 157.085 167.307 157.091V157.465H164.365V157.091C164.539 157.085 164.679 157.066 164.785 157.035C164.897 156.998 164.981 156.942 165.037 156.867C165.1 156.786 165.14 156.677 165.159 156.54C165.184 156.397 165.196 156.216 165.196 155.998V154.849C165.196 154.488 165.19 154.193 165.177 153.962C165.165 153.726 165.149 153.564 165.131 153.476C165.1 153.321 165.028 153.218 164.916 153.168C164.81 153.118 164.614 153.093 164.327 153.093V152.776L166.494 152.421V155.933ZM165.121 150.441C165.121 150.235 165.19 150.064 165.327 149.927C165.47 149.784 165.641 149.712 165.841 149.712C166.046 149.712 166.217 149.784 166.354 149.927C166.498 150.064 166.569 150.235 166.569 150.441C166.569 150.64 166.498 150.811 166.354 150.954C166.217 151.091 166.046 151.16 165.841 151.16C165.641 151.16 165.47 151.091 165.327 150.954C165.19 150.811 165.121 150.64 165.121 150.441ZM169.869 155.933C169.869 156.182 169.879 156.381 169.897 156.531C169.916 156.68 169.954 156.795 170.01 156.876C170.066 156.957 170.147 157.013 170.252 157.045C170.358 157.069 170.502 157.085 170.682 157.091V157.465H167.74V157.091C167.914 157.085 168.054 157.066 168.16 157.035C168.272 156.998 168.356 156.942 168.412 156.867C168.475 156.786 168.515 156.677 168.534 156.54C168.559 156.397 168.571 156.216 168.571 155.998V152.141C168.571 151.78 168.565 151.484 168.552 151.253C168.54 151.017 168.524 150.855 168.506 150.768C168.475 150.612 168.403 150.509 168.291 150.459C168.185 150.41 167.989 150.385 167.702 150.385V150.067L169.869 149.712V155.933ZM173.283 155.933C173.283 156.182 173.292 156.381 173.311 156.531C173.33 156.68 173.367 156.795 173.423 156.876C173.479 156.957 173.56 157.013 173.666 157.045C173.772 157.069 173.915 157.085 174.096 157.091V157.465H171.154V157.091C171.328 157.085 171.468 157.066 171.574 157.035C171.686 156.998 171.77 156.942 171.826 156.867C171.888 156.786 171.929 156.677 171.947 156.54C171.972 156.397 171.985 156.216 171.985 155.998V152.141C171.985 151.78 171.979 151.484 171.966 151.253C171.954 151.017 171.938 150.855 171.919 150.768C171.888 150.612 171.817 150.509 171.705 150.459C171.599 150.41 171.403 150.385 171.116 150.385V150.067L173.283 149.712V155.933ZM179.434 156.596C178.867 157.238 178.16 157.558 177.313 157.558C176.927 157.558 176.575 157.499 176.258 157.381C175.946 157.256 175.679 157.085 175.455 156.867C175.23 156.643 175.056 156.378 174.931 156.073C174.807 155.768 174.745 155.429 174.745 155.055C174.745 154.669 174.81 154.317 174.941 154C175.072 153.676 175.255 153.399 175.492 153.168C175.735 152.932 176.018 152.748 176.342 152.617C176.672 152.486 177.033 152.421 177.425 152.421C178.085 152.421 178.599 152.598 178.967 152.953C179.334 153.308 179.518 153.806 179.518 154.448C179.518 154.547 179.502 154.61 179.471 154.635C179.44 154.653 179.353 154.663 179.209 154.663H176.202C176.177 154.719 176.164 154.821 176.164 154.971C176.164 155.581 176.295 156.064 176.557 156.419C176.824 156.774 177.186 156.951 177.64 156.951C177.902 156.951 178.16 156.892 178.415 156.774C178.677 156.655 178.929 156.487 179.172 156.269L179.434 156.596ZM177.622 154.14C177.871 154.14 178.029 154.127 178.098 154.102C178.173 154.071 178.21 154.003 178.21 153.897C178.21 153.623 178.132 153.399 177.976 153.224C177.821 153.05 177.625 152.963 177.388 152.963C177.12 152.963 176.881 153.075 176.669 153.299C176.463 153.517 176.329 153.797 176.267 154.14H177.622Z" fill="#2A292F"/>
<path d="M237.916 154.995L236.08 153.158C235.982 153.062 235.851 153.008 235.714 153.008C235.577 153.008 235.445 153.062 235.348 153.158C235.299 153.207 235.261 153.264 235.234 153.327C235.208 153.391 235.194 153.458 235.194 153.527C235.194 153.595 235.208 153.663 235.234 153.726C235.261 153.79 235.299 153.847 235.348 153.895L237.548 156.096C237.596 156.144 237.654 156.183 237.717 156.209C237.78 156.235 237.848 156.249 237.916 156.249C237.985 156.249 238.053 156.235 238.116 156.209C238.179 156.183 238.237 156.144 238.285 156.096L240.511 153.895C240.559 153.847 240.597 153.789 240.623 153.726C240.649 153.663 240.662 153.595 240.662 153.527C240.662 153.459 240.649 153.391 240.623 153.328C240.597 153.264 240.559 153.207 240.511 153.158C240.414 153.062 240.282 153.008 240.145 153.008C240.008 153.008 239.877 153.062 239.779 153.158L237.916 154.995Z" fill="#9B9B9B"/>
<path d="M110.932 210.446L109.097 212.396L107.263 210.446H110.932Z" fill="#362E72"/>
<rect x="91.7136" y="204.897" width="11.9351" height="11.9351" rx="1.81622" fill="#5B4DBE"/>
<rect x="91.7136" y="204.897" width="11.9351" height="11.9351" rx="1.81622" stroke="black" stroke-width="0.518919"/>
<path d="M166.355 184.867H166.841C166.957 185.656 167.272 186.279 167.787 186.735C168.302 187.184 168.937 187.408 169.693 187.408C170 187.408 170.282 187.37 170.54 187.296C170.797 187.221 171.017 187.117 171.2 186.984C171.382 186.843 171.523 186.681 171.623 186.499C171.723 186.308 171.772 186.096 171.772 185.864C171.772 185.664 171.739 185.494 171.673 185.353C171.615 185.203 171.498 185.062 171.324 184.929C171.15 184.788 170.909 184.647 170.602 184.506C170.303 184.365 169.913 184.203 169.431 184.02C168.46 183.647 167.742 183.215 167.277 182.725C166.812 182.227 166.579 181.642 166.579 180.969C166.579 180.579 166.654 180.222 166.803 179.898C166.953 179.574 167.16 179.296 167.426 179.064C167.7 178.831 168.024 178.653 168.397 178.528C168.779 178.395 169.199 178.329 169.655 178.329C170.079 178.329 170.477 178.395 170.851 178.528C171.225 178.661 171.594 178.86 171.959 179.126L172.183 178.503H172.482L172.619 181.193H172.134C171.934 180.512 171.623 179.993 171.2 179.636C170.776 179.271 170.286 179.089 169.73 179.089C169.215 179.089 168.796 179.217 168.472 179.475C168.157 179.724 167.999 180.047 167.999 180.446C167.999 180.62 168.028 180.778 168.086 180.919C168.144 181.052 168.252 181.181 168.41 181.305C168.568 181.43 168.784 181.559 169.058 181.691C169.331 181.816 169.684 181.957 170.116 182.115C170.697 182.339 171.191 182.567 171.598 182.8C172.013 183.024 172.35 183.269 172.607 183.535C172.873 183.792 173.068 184.066 173.192 184.357C173.317 184.647 173.379 184.967 173.379 185.316C173.379 185.739 173.288 186.125 173.105 186.474C172.922 186.822 172.665 187.121 172.333 187.37C172.009 187.62 171.619 187.815 171.162 187.956C170.714 188.097 170.216 188.168 169.668 188.168C169.17 188.168 168.721 188.101 168.323 187.968C167.924 187.827 167.513 187.603 167.09 187.296L166.841 188.043H166.542L166.355 184.867Z" fill="#2A292F"/>
<line x1="165.141" y1="182.713" x2="174.481" y2="182.713" stroke="#2A292F" stroke-width="1.03784" stroke-linecap="round"/>
<path d="M119.568 186.32H119.929C120.377 186.32 120.631 186.158 120.689 185.834L122.046 179.184C122.055 179.151 122.059 179.109 122.059 179.059C122.059 178.819 121.868 178.698 121.486 178.698H121.112L121.224 178.15H125.509L125.396 178.698H125.023C124.591 178.698 124.342 178.86 124.276 179.184L122.906 185.834L122.893 185.934C122.893 186.067 122.939 186.167 123.03 186.233C123.122 186.291 123.267 186.32 123.466 186.32H123.84L123.74 186.868H119.456L119.568 186.32Z" fill="#2A292F"/>
<g clip-path="url(#clip2_4666_34523)">
<path d="M149.231 183.171C149.231 183.759 149.166 184.265 149.034 184.687C148.91 185.102 148.713 185.444 148.443 185.714C148.173 185.984 147.823 186.181 147.394 186.306C146.972 186.43 146.464 186.492 145.869 186.492C144.755 186.492 143.938 186.261 143.42 185.797C142.908 185.327 142.652 184.579 142.652 183.555V180.712C142.652 180.442 142.648 180.217 142.641 180.037C142.634 179.85 142.624 179.695 142.61 179.57C142.596 179.446 142.575 179.345 142.548 179.269C142.527 179.186 142.499 179.117 142.465 179.062C142.402 178.965 142.313 178.899 142.195 178.864C142.077 178.83 141.897 178.812 141.655 178.812V178.397H145.381V178.812C145.09 178.812 144.876 178.83 144.738 178.864C144.599 178.892 144.492 178.951 144.416 179.041C144.367 179.096 144.326 179.165 144.291 179.248C144.264 179.324 144.239 179.428 144.219 179.56C144.205 179.684 144.194 179.84 144.188 180.027C144.181 180.214 144.177 180.442 144.177 180.712V183.431C144.177 184.22 144.343 184.804 144.675 185.185C145.014 185.558 145.533 185.745 146.232 185.745C147.657 185.745 148.37 184.953 148.37 183.369V180.971C148.37 180.681 148.363 180.431 148.349 180.224C148.342 180.016 148.325 179.84 148.297 179.695C148.277 179.549 148.246 179.428 148.204 179.331C148.169 179.235 148.124 179.155 148.069 179.093C147.972 178.996 147.848 178.927 147.695 178.885C147.543 178.837 147.332 178.812 147.062 178.812V178.397H150.425V178.812C150.169 178.812 149.972 178.833 149.833 178.875C149.695 178.909 149.588 178.975 149.512 179.072C149.456 179.134 149.411 179.217 149.377 179.321C149.342 179.418 149.314 179.542 149.294 179.695C149.273 179.84 149.256 180.016 149.242 180.224C149.235 180.431 149.231 180.681 149.231 180.971V183.171Z" fill="#2A292F"/>
<line x1="141.269" y1="187.729" x2="150.61" y2="187.729" stroke="#2A292F" stroke-width="1.03784" stroke-linecap="round"/>
</g>
<path d="M190.927 179.656L192.438 179.611V186.83L190.906 186.932L190.664 186.949V187.191V187.902V188.162H190.923H196.702H196.962V187.902V187.191V186.947L196.718 186.932L195.021 186.829V179.611L196.504 179.656L197.003 182.038L197.046 182.245H197.256H198.351H198.624L198.61 181.973L198.444 178.549L198.432 178.302H198.185H189.246H189.004L188.987 178.544L188.752 181.967L188.733 182.245H189.011H190.175H190.386L190.429 182.038L190.927 179.656Z" fill="white" stroke="#5B4DBE" stroke-width="0.518919"/>
<rect x="208.73" y="174.41" width="41.5135" height="18.6811" rx="9.34054" fill="white"/>
<circle cx="214.957" cy="183.751" r="5.18919" fill="white"/>
<circle cx="214.957" cy="183.75" r="4.84324" fill="white"/>
<path d="M216.701 183.409H215.317V182.025C215.317 181.832 215.16 181.675 214.966 181.675C214.773 181.675 214.616 181.832 214.616 182.025V183.409H213.232C213.038 183.409 212.881 183.566 212.881 183.76C212.881 183.953 213.038 184.11 213.232 184.11H214.616V185.494C214.616 185.688 214.773 185.845 214.966 185.845C215.16 185.845 215.317 185.688 215.317 185.494V184.11H216.701C216.894 184.11 217.051 183.953 217.051 183.76C217.051 183.566 216.885 183.409 216.701 183.409Z" fill="#362E72"/>
<path d="M225.718 181.122V186.675H224.802V182.209L223.445 182.669V181.913L225.607 181.122H225.718ZM231.402 185.945V186.675H227.693V186.048L229.494 184.083C229.692 183.86 229.848 183.667 229.962 183.505C230.076 183.343 230.156 183.197 230.201 183.068C230.249 182.936 230.273 182.808 230.273 182.684C230.273 182.509 230.24 182.356 230.175 182.224C230.111 182.09 230.017 181.985 229.893 181.909C229.769 181.83 229.618 181.791 229.441 181.791C229.236 181.791 229.064 181.835 228.924 181.924C228.785 182.013 228.68 182.136 228.609 182.293C228.538 182.447 228.502 182.625 228.502 182.825H227.586C227.586 182.503 227.66 182.209 227.807 181.943C227.954 181.674 228.167 181.462 228.445 181.304C228.724 181.145 229.06 181.065 229.452 181.065C229.822 181.065 230.137 181.127 230.395 181.251C230.653 181.375 230.85 181.551 230.984 181.78C231.121 182.008 231.189 182.277 231.189 182.589C231.189 182.761 231.161 182.932 231.106 183.102C231.05 183.272 230.97 183.442 230.866 183.611C230.765 183.779 230.645 183.947 230.505 184.117C230.366 184.284 230.213 184.454 230.045 184.626L228.848 185.945H231.402ZM232.906 185.953H232.982C233.332 185.953 233.623 185.907 233.856 185.816C234.092 185.722 234.279 185.593 234.419 185.428C234.558 185.263 234.658 185.07 234.719 184.847C234.78 184.624 234.81 184.382 234.81 184.121V183.167C234.81 182.941 234.786 182.744 234.738 182.574C234.692 182.402 234.626 182.258 234.54 182.144C234.457 182.028 234.359 181.94 234.248 181.882C234.139 181.824 234.021 181.795 233.894 181.795C233.755 181.795 233.629 181.826 233.518 181.89C233.409 181.951 233.316 182.035 233.24 182.144C233.167 182.251 233.11 182.376 233.069 182.521C233.031 182.663 233.012 182.815 233.012 182.977C233.012 183.129 233.03 183.276 233.066 183.418C233.104 183.557 233.159 183.681 233.233 183.79C233.306 183.899 233.399 183.985 233.51 184.049C233.622 184.112 233.752 184.144 233.902 184.144C234.044 184.144 234.174 184.117 234.293 184.064C234.412 184.008 234.516 183.933 234.605 183.84C234.694 183.746 234.763 183.641 234.814 183.524C234.865 183.407 234.892 183.288 234.898 183.167L235.247 183.273C235.247 183.466 235.207 183.656 235.126 183.843C235.047 184.028 234.937 184.198 234.795 184.353C234.656 184.505 234.492 184.626 234.305 184.717C234.12 184.809 233.918 184.854 233.7 184.854C233.437 184.854 233.204 184.805 233.001 184.706C232.801 184.605 232.634 184.468 232.499 184.296C232.368 184.123 232.269 183.926 232.203 183.703C232.137 183.48 232.104 183.245 232.104 183C232.104 182.734 232.145 182.484 232.226 182.251C232.307 182.018 232.425 181.812 232.579 181.635C232.734 181.455 232.921 181.316 233.142 181.217C233.365 181.116 233.617 181.065 233.898 181.065C234.197 181.065 234.459 181.123 234.685 181.24C234.91 181.356 235.1 181.517 235.255 181.723C235.409 181.928 235.526 182.166 235.604 182.437C235.683 182.708 235.722 183 235.722 183.311V183.634C235.722 183.961 235.693 184.277 235.635 184.581C235.577 184.882 235.482 185.162 235.35 185.421C235.221 185.676 235.05 185.902 234.837 186.097C234.626 186.29 234.368 186.44 234.061 186.549C233.757 186.656 233.4 186.709 232.99 186.709H232.906V185.953Z" fill="#362E72"/>
<circle cx="244.016" cy="183.751" r="5.18919" fill="white"/>
<circle cx="244.017" cy="183.75" r="4.84324" fill="white"/>
<path fill-rule="evenodd" clip-rule="evenodd" d="M242.212 184.27H245.822C245.971 184.27 246.092 184.154 246.092 184.01C246.092 183.867 245.971 183.751 245.822 183.751H242.212C242.062 183.751 241.941 183.867 241.941 184.01C241.941 184.154 242.062 184.27 242.212 184.27Z" fill="#362E72"/>
<path d="M93.6495 188.043V187.545C93.9318 187.537 94.156 187.512 94.322 187.47C94.4964 187.429 94.6292 187.358 94.7205 187.258C94.8202 187.159 94.8866 187.018 94.9198 186.835C94.953 186.652 94.9696 186.416 94.9696 186.125V180.371C94.9696 180.081 94.9572 179.848 94.9323 179.674C94.9073 179.491 94.8534 179.35 94.7704 179.25C94.6956 179.142 94.5877 179.072 94.4465 179.039C94.3137 178.997 94.1352 178.968 93.911 178.952V178.453H97.9088C99.1625 178.453 100.126 178.657 100.798 179.064C101.479 179.462 101.819 180.035 101.819 180.782C101.819 181.77 101.109 182.468 99.6897 182.875V182.924C100.146 182.924 100.557 182.991 100.923 183.124C101.296 183.248 101.612 183.427 101.869 183.659C102.127 183.892 102.326 184.166 102.467 184.481C102.608 184.797 102.679 185.141 102.679 185.515C102.679 185.938 102.575 186.308 102.367 186.623C102.168 186.939 101.877 187.204 101.496 187.42C100.757 187.835 99.7395 188.043 98.4443 188.043H93.6495ZM98.5315 187.283C99.8682 187.283 100.537 186.681 100.537 185.477C100.537 184.738 100.296 184.199 99.8142 183.858C99.5652 183.684 99.2414 183.56 98.8428 183.485C98.4526 183.41 97.971 183.373 97.3982 183.373H96.8004V185.864C96.8004 186.378 96.9332 186.744 97.1989 186.959C97.4646 187.175 97.9088 187.283 98.5315 187.283ZM97.5352 182.625C97.9088 182.625 98.2326 182.592 98.5066 182.526C98.7806 182.451 99.013 182.347 99.204 182.214C99.6025 181.94 99.8018 181.513 99.8018 180.932C99.8018 180.326 99.6523 179.89 99.3534 179.624C99.0545 179.35 98.573 179.213 97.9088 179.213H97.0245C96.8751 179.213 96.8004 179.284 96.8004 179.425V182.625H97.5352Z" fill="#2A292F"/>
<g clip-path="url(#clip3_4666_34523)">
<rect x="122.589" y="207.622" width="10.3784" height="1.03784" rx="0.518919" fill="#2A292F"/>
<rect x="122.589" y="209.697" width="6.74595" height="1.03784" rx="0.518919" fill="#2A292F"/>
<rect x="122.589" y="211.773" width="10.3784" height="1.03784" rx="0.518919" fill="#2A292F"/>
<rect x="122.589" y="213.849" width="6.74595" height="1.03784" rx="0.518919" fill="#2A292F"/>
</g>
<rect x="144.902" y="207.622" width="10.3784" height="1.03784" rx="0.518919" fill="#2A292F"/>
<rect x="146.978" y="209.697" width="6.74595" height="1.03784" rx="0.518919" fill="#2A292F"/>
<rect x="144.902" y="211.773" width="10.3784" height="1.03784" rx="0.518919" fill="#2A292F"/>
<rect x="146.978" y="213.849" width="6.74595" height="1.03784" rx="0.518919" fill="#2A292F"/>
<rect x="167.216" y="207.622" width="10.3784" height="1.03784" rx="0.518919" fill="#2A292F"/>
<rect x="170.849" y="209.697" width="6.74595" height="1.03784" rx="0.518919" fill="#2A292F"/>
<rect x="167.216" y="211.773" width="10.3784" height="1.03784" rx="0.518919" fill="#2A292F"/>
<rect x="170.849" y="213.849" width="6.74595" height="1.03784" rx="0.518919" fill="#2A292F"/>
<g clip-path="url(#clip4_4666_34523)">
<path d="M190.03 214.41H190.324C190.508 214.41 190.642 214.378 190.724 214.316C190.806 214.247 190.848 214.143 190.848 214.005V208.307H190.21C190.026 208.307 189.877 208.428 189.763 208.67C189.655 208.912 189.576 209.186 189.525 209.49C189.481 209.788 189.459 209.871 189.459 210.044H189.012V207.622H194.558V210.044H194.111C194.104 209.857 194.079 209.77 194.035 209.48C193.99 209.182 193.911 208.912 193.797 208.67C193.689 208.428 193.543 208.307 193.359 208.307H192.722V214.005C192.722 214.143 192.763 214.247 192.845 214.316C192.928 214.378 193.058 214.41 193.235 214.41H193.54V214.887H190.03V214.41Z" fill="#2A292F"/>
<path d="M195.9 214.41H196.195C196.379 214.41 196.512 214.378 196.594 214.316C196.677 214.247 196.718 214.143 196.718 214.005V208.307H196.081C195.897 208.307 195.748 208.428 195.633 208.67C195.526 208.912 195.446 209.186 195.396 209.49C195.351 209.788 195.329 209.871 195.329 210.044H194.882V207.622H200.428V210.044H199.981C199.974 209.857 199.949 209.77 199.905 209.48C199.86 209.182 199.781 208.912 199.667 208.67C199.559 208.428 199.413 208.307 199.229 208.307H198.592V214.005C198.592 214.143 198.633 214.247 198.716 214.316C198.798 214.378 198.928 214.41 199.106 214.41H199.41V214.887H195.9V214.41Z" fill="#2A292F"/>
</g>
<g clip-path="url(#clip5_4666_34523)">
<path d="M212.944 214.314H213.245C213.433 214.314 213.568 214.283 213.652 214.222C213.736 214.154 213.779 214.051 213.779 213.915V208.297H212.547C212.359 208.297 212.207 208.417 212.091 208.656C211.981 208.894 211.9 209.164 211.848 209.464C211.803 209.757 211.781 209.989 211.781 210.16H211.325V207.622H218.143V210.16H217.687C217.681 209.975 217.655 209.74 217.61 209.454C217.564 209.16 217.483 208.894 217.367 208.656C217.257 208.417 217.108 208.297 216.921 208.297H215.689V213.915C215.689 214.051 215.731 214.154 215.815 214.222C215.899 214.283 216.032 214.314 216.213 214.314H216.523V214.785H212.944V214.314Z" fill="#2A292F"/>
<path d="M222.741 213.526C222.676 214.433 222.104 214.887 221.024 214.887C220.384 214.887 219.88 214.778 219.511 214.56C219.149 214.334 218.968 213.942 218.968 213.383V210.63H218.376V209.975H218.968V209.065L220.442 208.563H220.811V209.975H222.14V210.63H220.811V213.383C220.811 213.676 220.866 213.901 220.976 214.058C221.092 214.215 221.263 214.293 221.49 214.293C221.697 214.293 221.874 214.235 222.023 214.12C222.172 213.997 222.262 213.799 222.295 213.526H222.741Z" fill="#2A292F"/>
</g>
<g clip-path="url(#clip6_4666_34523)">
<path d="M235.258 214.314H235.559C235.747 214.314 235.882 214.283 235.966 214.222C236.05 214.154 236.092 214.051 236.092 213.915V208.297H234.861C234.673 208.297 234.521 208.417 234.405 208.656C234.295 208.894 234.214 209.164 234.162 209.464C234.117 209.757 234.095 209.989 234.095 210.16H233.639V207.622H240.457V210.16H240.001C239.995 209.975 239.969 209.74 239.924 209.454C239.878 209.16 239.797 208.894 239.681 208.656C239.571 208.417 239.422 208.297 239.235 208.297H238.003V213.915C238.003 214.051 238.045 214.154 238.129 214.222C238.213 214.283 238.346 214.314 238.527 214.314H238.837V214.785H235.258V214.314Z" fill="#2A292F"/>
<path d="M245.055 213.526C244.99 214.433 244.418 214.887 243.338 214.887C242.698 214.887 242.194 214.778 241.825 214.56C241.463 214.334 241.282 213.942 241.282 213.383V210.63H240.69V209.975H241.282V209.065L242.756 208.563H243.125V209.975H244.454V210.63H243.125V213.383C243.125 213.676 243.18 213.901 243.29 214.058C243.406 214.215 243.577 214.293 243.804 214.293C244.011 214.293 244.188 214.235 244.337 214.12C244.486 213.997 244.576 213.799 244.609 213.526H245.055Z" fill="#2A292F"/>
</g>
</g>
<g filter="url(#filter3_d_4666_34523)">
<g clip-path="url(#clip7_4666_34523)">
<path d="M50 134H71.5V155.5H50V134Z" fill="#ECEAF4"/>
<path d="M67.8275 142.798C67.587 142.804 67.3527 142.725 67.1715 142.576C66.9902 142.427 66.8754 142.219 66.8497 141.994C66.8136 141.176 66.5789 140.376 66.1639 139.657C65.9704 139.359 65.6958 139.115 65.3687 138.951C65.0416 138.786 64.6737 138.707 64.3033 138.722H62.5417V149.73C62.5417 150.611 63.2307 151.039 63.9969 151.142C64.2029 151.178 64.3891 151.281 64.5225 151.433C64.656 151.585 64.7282 151.777 64.7265 151.974C64.7246 152.197 64.6292 152.41 64.4611 152.567C64.293 152.724 64.0658 152.813 63.8291 152.812H57.6125C57.3758 152.813 57.1486 152.724 56.9805 152.567C56.8124 152.41 56.717 152.197 56.7151 151.974C56.7134 151.777 56.7856 151.585 56.9191 151.433C57.0525 151.281 57.2387 151.178 57.4447 151.142C58.1744 151.039 58.9583 150.611 58.9583 149.73V138.708H57.1164C56.7472 138.695 56.3809 138.775 56.0551 138.939C55.7294 139.103 55.456 139.346 55.2631 139.643C54.8582 140.369 54.6242 141.168 54.5773 141.987C54.5516 142.212 54.4364 142.419 54.255 142.567C54.0736 142.715 53.8394 142.792 53.5995 142.784C53.3544 142.775 53.1224 142.677 52.9523 142.511C52.7822 142.344 52.6873 142.122 52.6875 141.891V137.609C52.6875 137.488 52.7128 137.368 52.7619 137.256C52.8111 137.144 52.8831 137.043 52.9739 136.957C53.0647 136.872 53.1724 136.804 53.2911 136.758C53.4097 136.711 53.5368 136.688 53.6652 136.688H67.8275C67.9565 136.687 68.0844 136.71 68.2039 136.756C68.3233 136.802 68.432 136.869 68.5235 136.955C68.6151 137.04 68.6878 137.142 68.7374 137.255C68.7869 137.367 68.8125 137.487 68.8125 137.609V141.891C68.8135 142.012 68.7886 142.132 68.7392 142.244C68.6898 142.356 68.6169 142.457 68.5249 142.542C68.4329 142.626 68.3238 142.693 68.2039 142.737C68.0841 142.781 67.956 142.802 67.8275 142.798Z" fill="black"/>
</g>
</g>
<defs>
<filter id="filter0_d_4666_34523" x="64" y="122" width="222" height="138.974" filterUnits="userSpaceOnUse" color-interpolation-filters="sRGB">
<feFlood flood-opacity="0" result="BackgroundImageFix"/>
<feColorMatrix in="SourceAlpha" type="matrix" values="0 0 0 0 0 0 0 0 0 0 0 0 0 0 0 0 0 0 127 0" result="hardAlpha"/>
<feOffset dy="15"/>
<feGaussianBlur stdDeviation="7.5"/>
<feComposite in2="hardAlpha" operator="out"/>
<feColorMatrix type="matrix" values="0 0 0 0 0 0 0 0 0 0 0 0 0 0 0 0 0 0 0.15 0"/>
<feBlend mode="normal" in2="BackgroundImageFix" result="effect1_dropShadow_4666_34523"/>
<feBlend mode="normal" in="SourceGraphic" in2="effect1_dropShadow_4666_34523" result="shape"/>
</filter>
<filter id="filter1_i_4666_34523" x="79" y="132.379" width="181.622" height="100.67" filterUnits="userSpaceOnUse" color-interpolation-filters="sRGB">
<feFlood flood-opacity="0" result="BackgroundImageFix"/>
<feBlend mode="normal" in="SourceGraphic" in2="BackgroundImageFix" result="shape"/>
<feColorMatrix in="SourceAlpha" type="matrix" values="0 0 0 0 0 0 0 0 0 0 0 0 0 0 0 0 0 0 127 0" result="hardAlpha"/>
<feOffset dy="2.07568"/>
<feGaussianBlur stdDeviation="1.03784"/>
<feComposite in2="hardAlpha" operator="arithmetic" k2="-1" k3="1"/>
<feColorMatrix type="matrix" values="0 0 0 0 1 0 0 0 0 1 0 0 0 0 1 0 0 0 1 0"/>
<feBlend mode="normal" in2="shape" result="effect1_innerShadow_4666_34523"/>
</filter>
<filter id="filter2_f_4666_34523" x="70.697" y="135.49" width="198.227" height="157.57" filterUnits="userSpaceOnUse" color-interpolation-filters="sRGB">
<feFlood flood-opacity="0" result="BackgroundImageFix"/>
<feBlend mode="normal" in="SourceGraphic" in2="BackgroundImageFix" result="shape"/>
<feGaussianBlur stdDeviation="31.1351" result="effect1_foregroundBlur_4666_34523"/>
</filter>
<filter id="filter3_d_4666_34523" x="40" y="134" width="41.5" height="41.5" filterUnits="userSpaceOnUse" color-interpolation-filters="sRGB">
<feFlood flood-opacity="0" result="BackgroundImageFix"/>
<feColorMatrix in="SourceAlpha" type="matrix" values="0 0 0 0 0 0 0 0 0 0 0 0 0 0 0 0 0 0 127 0" result="hardAlpha"/>
<feOffset dy="10"/>
<feGaussianBlur stdDeviation="5"/>
<feComposite in2="hardAlpha" operator="out"/>
<feColorMatrix type="matrix" values="0 0 0 0 0 0 0 0 0 0 0 0 0 0 0 0 0 0 0.2 0"/>
<feBlend mode="normal" in2="BackgroundImageFix" result="effect1_dropShadow_4666_34523"/>
<feBlend mode="normal" in="SourceGraphic" in2="effect1_dropShadow_4666_34523" result="shape"/>
</filter>
<linearGradient id="paint0_linear_4666_34523" x1="14.2337" y1="2.1366" x2="3.91196" y2="14.9503" gradientUnits="userSpaceOnUse">
<stop stop-color="white"/>
<stop offset="1" stop-color="#5B4DBE"/>
</linearGradient>
<linearGradient id="paint1_linear_4666_34523" x1="264.241" y1="101.102" x2="264.241" y2="114.572" gradientUnits="userSpaceOnUse">
<stop stop-color="white"/>
<stop offset="1" stop-color="#8576FF"/>
</linearGradient>
<linearGradient id="paint2_linear_4666_34523" x1="169.811" y1="132.379" x2="169.811" y2="230.973" gradientUnits="userSpaceOnUse">
<stop stop-color="#EBE9F3"/>
<stop offset="1" stop-color="#E0DFE7"/>
</linearGradient>
<linearGradient id="paint3_linear_4666_34523" x1="169.811" y1="132.379" x2="169.811" y2="230.973" gradientUnits="userSpaceOnUse">
<stop stop-color="white"/>
<stop offset="1" stop-color="#CCCAD5"/>
</linearGradient>
<linearGradient id="paint4_linear_4666_34523" x1="169.811" y1="132.377" x2="169.811" y2="230.972" gradientUnits="userSpaceOnUse">
<stop stop-color="#EBE9F3"/>
<stop offset="0.0001" stop-color="#EBE9F3"/>
<stop offset="1" stop-color="#E0DFE7"/>
</linearGradient>
<linearGradient id="paint5_linear_4666_34523" x1="169.811" y1="132.377" x2="169.811" y2="230.972" gradientUnits="userSpaceOnUse">
<stop stop-color="white"/>
<stop offset="1" stop-color="#CCCAD4"/>
</linearGradient>
<linearGradient id="paint6_linear_4666_34523" x1="135.061" y1="216.729" x2="206.654" y2="216.729" gradientUnits="userSpaceOnUse">
<stop stop-color="#ECEAF4"/>
<stop offset="0.5" stop-color="#6563FF"/>
<stop offset="0.623164" stop-color="#A384FC"/>
<stop offset="1" stop-color="#ECEAF4"/>
</linearGradient>
<clipPath id="clip0_4666_34523">
<rect width="17.0848" height="17.0848" fill="white" transform="translate(0.708496)"/>
</clipPath>
<clipPath id="clip1_4666_34523">
<rect x="252.306" y="96.6875" width="21.356" height="21.356" rx="7.11868" fill="white"/>
</clipPath>
<clipPath id="clip2_4666_34523">
<rect x="139.713" y="176.831" width="12.4541" height="12.4541" rx="1.55676" fill="white"/>
</clipPath>
<clipPath id="clip3_4666_34523">
<rect x="121.551" y="205.027" width="12.4541" height="12.4541" rx="1.55676" fill="white"/>
</clipPath>
<clipPath id="clip4_4666_34523">
<rect x="188.492" y="205.027" width="12.4541" height="12.4541" rx="1.55676" fill="white"/>
</clipPath>
<clipPath id="clip5_4666_34523">
<rect x="210.805" y="205.027" width="12.4541" height="12.4541" rx="1.55676" fill="white"/>
</clipPath>
<clipPath id="clip6_4666_34523">
<rect x="233.119" y="205.027" width="12.4541" height="12.4541" rx="1.55676" fill="white"/>
</clipPath>
<clipPath id="clip7_4666_34523">
<rect x="50" y="134" width="21.5" height="21.5" rx="2.6875" fill="white"/>
</clipPath>
</defs>
</svg>
