<?xml version="1.0" encoding="UTF-8" standalone="no"?>
<svg
   width="24"
   height="24"
   viewBox="0 0 24 24"
  fill="currentColor"
   version="1.1"
   id="svg27"
   sodipodi:docname="Outline.svg"
   inkscape:version="1.2.2 (b0a8486541, 2022-12-01, custom)"
   xmlns:inkscape="http://www.inkscape.org/namespaces/inkscape"
   xmlns:sodipodi="http://sodipodi.sourceforge.net/DTD/sodipodi-0.dtd"
   xmlns="http://www.w3.org/2000/svg"
   xmlns:svg="http://www.w3.org/2000/svg">
  <defs
     id="defs31" />
  <sodipodi:namedview
     id="namedview29"
     pagecolor="#ffffff"
     bordercolor="#000000"
     borderopacity="0.25"
     inkscape:showpageshadow="2"
     inkscape:pageopacity="0.0"
     inkscape:pagecheckerboard="0"
     inkscape:deskcolor="#d1d1d1"
     showgrid="false"
     inkscape:zoom="45.833333"
     inkscape:cx="12"
     inkscape:cy="12"
     inkscape:window-width="3440"
     inkscape:window-height="1303"
     inkscape:window-x="1920"
     inkscape:window-y="27"
     inkscape:window-maximized="1"
     inkscape:current-layer="svg27" />
  <path
     d="M 21,14 H 20 V 4 h 1 C 21.2652,4 21.5196,3.89464 21.7071,3.70711 21.8946,3.51957 22,3.26522 22,3 22,2.73478 21.8946,2.48043 21.7071,2.29289 21.5196,2.10536 21.2652,2 21,2 H 3 C 2.73478,2 2.48043,2.10536 2.29289,2.29289 2.10536,2.48043 2,2.73478 2,3 2,3.26522 2.10536,3.51957 2.29289,3.70711 2.48043,3.89464 2.73478,4 3,4 H 4 V 14 H 3 C 2.73478,14 2.48043,14.1054 2.29289,14.2929 2.10536,14.4804 2,14.7348 2,15 2,15.2652 2.10536,15.5196 2.29289,15.7071 2.48043,15.8946 2.73478,16 3,16 h 8 v 1.15 l -4.55,3 c -0.18667,0.1155 -0.33012,0.2893 -0.40823,0.4945 -0.07811,0.2051 -0.08654,0.4303 -0.02398,0.6407 0.06256,0.2105 0.19263,0.3945 0.37014,0.5237 C 6.56544,21.938 6.78053,22.0052 7,22 7.1966,22.0022 7.38896,21.9428 7.55,21.83 L 11,19.55 V 21 c 0,0.2652 0.1054,0.5196 0.2929,0.7071 C 11.4804,21.8946 11.7348,22 12,22 12.2652,22 12.5196,21.8946 12.7071,21.7071 12.8946,21.5196 13,21.2652 13,21 v -1.45 l 3.45,2.28 c 0.161,0.1128 0.3534,0.1722 0.55,0.17 0.2136,-0.0016 0.4212,-0.0717 0.5921,-0.1998 0.171,-0.1282 0.2964,-0.3077 0.3579,-0.5123 0.0615,-0.2047 0.0558,-0.4236 -0.0162,-0.6248 C 17.8619,20.462 17.7273,20.2892 17.55,20.17 L 13,17.17 V 16 h 8 c 0.2652,0 0.5196,-0.1054 0.7071,-0.2929 C 21.8946,15.5196 22,15.2652 22,15 22,14.7348 21.8946,14.4804 21.7071,14.2929 21.5196,14.1054 21.2652,14 21,14 Z m -3,0 H 6 V 4 h 12 z"
   fill="currentColor"
     id="path25"
     sodipodi:nodetypes="sccscscsscscsccscscscccccccccssssscccccccccsssssccccc" />
</svg>
