<svg width="22" height="16" viewBox="0 0 22 16" fill="none" xmlns="http://www.w3.org/2000/svg" color="#5B4DBE">
<path d="M10.15 8.16C11.15 7.31 11.8 6.05 11.8 4.64C11.8 2.08 9.72 0 7.16 0C4.6 0 2.53 2.08 2.53 4.64C2.53 6.05 3.17 7.29 4.16 8.14C1.99 9.24 0.5 11.49 0.5 14.09C0.5 14.22 0.5 14.35 0.51 14.48C0.54 15.01 0.98 15.42 1.51 15.42C2.1 15.42 2.54 14.92 2.51 14.33C2.51 14.25 2.51 14.17 2.51 14.09C2.51 11.52 4.6 9.42 7.18 9.42C9.76 9.42 11.85 11.51 11.85 14.09C11.85 14.17 11.85 14.25 11.85 14.33C11.81 14.92 12.26 15.42 12.85 15.42C13.39 15.42 13.82 15 13.85 14.46C13.87 14.08 13.86 13.7 13.82 13.3C13.56 11.04 12.13 9.14 10.18 8.15L10.15 8.16ZM7.17 2C8.63 2 9.81 3.18 9.81 4.64C9.81 6.1 8.63 7.28 7.17 7.28C5.71 7.28 4.53 6.1 4.53 4.64C4.53 3.18 5.71 2 7.17 2Z" fill="currentColor"/>
<path d="M18.81 7.5C19.43 6.87 19.82 6 19.82 5.05C19.82 3.11 18.25 1.54 16.31 1.54C14.37 1.54 12.8 3.11 12.8 5.05C12.8 6 13.18 6.85 13.79 7.48C13.54 7.61 13.3 7.76 13.07 7.92C12.68 8.21 12.59 8.76 12.83 9.18V9.2C13.13 9.7 13.78 9.86 14.25 9.52C14.53 9.31 14.85 9.14 15.21 9.03C17.59 8.29 19.78 10.05 19.78 12.32C19.78 12.32 19.8 11.99 19.81 12.66C19.82 13.2 20.26 13.63 20.8 13.63C21.34 13.63 21.79 13.19 21.79 12.64V12.56C21.79 10.42 20.61 8.47 18.83 7.5H18.81ZM16.31 3.54C17.14 3.54 17.82 4.22 17.82 5.05C17.82 5.88 17.14 6.56 16.31 6.56C15.48 6.56 14.8 5.88 14.8 5.05C14.8 4.22 15.48 3.54 16.31 3.54Z" fill="currentColor"/>
</svg>
