<svg width="375" height="355" viewBox="0 0 375 355" fill="none" xmlns="http://www.w3.org/2000/svg">
<path d="M329.859 182.972H155.23V308.797H329.859V182.972Z" fill="#EEEDF8"/>
<path d="M109.118 289.192L115.444 125.242H311.272V282.487L109.118 289.192Z" stroke="#24204B" stroke-width="1.86248"/>
<path d="M312.135 124.378H114.613V157.283H312.135V124.378Z" fill="#24204B"/>
<path d="M130.156 149.236C134.798 149.236 138.562 145.473 138.562 140.83C138.562 136.188 134.798 132.425 130.156 132.425C125.514 132.425 121.75 136.188 121.75 140.83C121.75 145.473 125.514 149.236 130.156 149.236Z" fill="#DEDCF1"/>
<path d="M152.011 149.236C156.654 149.236 160.417 145.473 160.417 140.83C160.417 136.188 156.654 132.425 152.011 132.425C147.369 132.425 143.606 136.188 143.606 140.83C143.606 145.473 147.369 149.236 152.011 149.236Z" fill="#9C96D6"/>
<path d="M173.865 149.236C178.507 149.236 182.271 145.473 182.271 140.83C182.271 136.188 178.507 132.425 173.865 132.425C169.223 132.425 165.459 136.188 165.459 140.83C165.459 145.473 169.223 149.236 173.865 149.236Z" fill="#6B61C2"/>
<path d="M86.9911 178.61V315.415H244.112L244.369 285.531" stroke="#9C96D6" stroke-width="1.86248"/>
<path d="M155.137 167.434L267.105 170.296C272.471 170.433 276.707 174.894 276.571 180.258C276.434 185.624 271.974 189.862 266.608 189.725L154.64 186.863C149.276 186.727 145.038 182.265 145.174 176.901C145.311 171.535 149.771 167.297 155.137 167.434Z" stroke="#484096" stroke-width="1.86248"/>
<path d="M135.291 212.198L247.283 210.466C252.648 210.384 257.066 214.667 257.15 220.032C257.232 225.399 252.949 229.816 247.584 229.9L135.592 231.632C130.227 231.714 125.808 227.431 125.726 222.065C125.642 216.698 129.926 212.281 135.291 212.198Z" stroke="#484096" stroke-width="1.86248"/>
<path d="M171.163 235.315L283.151 237.165C288.518 237.254 292.796 241.677 292.708 247.042C292.618 252.408 288.197 256.686 282.83 256.599L170.842 254.749C165.475 254.659 161.198 250.237 161.285 244.871C161.375 239.506 165.796 235.227 171.163 235.315Z" stroke="#484096" stroke-width="1.86248"/>
<path d="M248.385 254.3C252.837 254.373 256.505 250.824 256.579 246.372C256.652 241.92 253.103 238.252 248.651 238.178C244.199 238.105 240.53 241.654 240.457 246.106C240.383 250.558 243.933 254.226 248.385 254.3Z" fill="#9C96D6"/>
<path d="M169.897 229.374C174.349 229.306 177.902 225.641 177.833 221.189C177.764 216.737 174.1 213.183 169.648 213.252C165.196 213.321 161.642 216.986 161.711 221.438C161.78 225.89 165.445 229.443 169.897 229.374Z" fill="#9C96D6"/>
<path d="M361.819 342.001C358.034 322.747 340.667 287.139 335.435 298.204C328.896 312.035 331.42 351.628 340.253 353.933C349.086 356.237 336.238 298.475 325.226 302.543C316.416 305.797 321.555 322.701 325.226 330.747C323.926 319.899 322.255 304.713 304.233 294.543" stroke="black" stroke-width="1.86248" stroke-linecap="round"/>
<path d="M213.392 116.945C222.647 69.9043 265.111 -17.0875 277.901 9.94408C293.888 43.7335 287.716 140.464 266.12 146.096C244.524 151.728 275.937 10.6066 302.863 20.5448C324.403 28.4952 311.838 69.7934 302.863 89.4487C306.042 62.9472 310.125 25.8454 354.189 1" stroke="#3F3883" stroke-width="1.86248" stroke-linecap="round"/>
<path d="M216.257 153.529L220.738 164.882L236.397 157.344L226.327 171.889L239.291 178.785L224.333 180.629L225.22 192.801L216.257 184.518L203.876 195.855L208.182 180.629L196.116 178.785L206.187 171.889L202.004 162.167L211.775 164.882L216.257 153.529Z" fill="black"/>
<path d="M221.353 151.586L225.836 162.939L241.495 155.401L231.425 169.946L244.387 176.842L229.43 178.686L230.318 190.858L221.353 182.574L208.972 193.911L213.278 178.686L201.213 176.842L211.283 169.946L207.101 160.224L216.872 162.939L221.353 151.586Z" fill="#9C96D6"/>
<path d="M76.9136 16.0621C76.9136 19.6902 77.7378 26.7689 81.3952 26.7689C85.0527 26.7689 90.1584 19.6902 90.1584 16.0621C90.1584 12.4342 87.1934 9.49316 83.536 9.49316C79.8786 9.49316 76.9136 12.4342 76.9136 16.0621Z" fill="#6B61C2"/>
<path d="M61.3655 20.2881C61.3655 23.0697 61.9837 28.4967 64.7266 28.4967C67.4697 28.4967 71.299 23.0697 71.299 20.2881C71.299 17.5067 69.0754 15.252 66.3323 15.252C63.5892 15.252 61.3655 17.5067 61.3655 20.2881Z" fill="#6B61C2"/>
<path d="M75.186 37.709C75.186 40.4906 75.8131 45.9176 78.596 45.9176C81.3788 45.9176 85.2635 40.4906 85.2635 37.709C85.2635 34.9276 83.0076 32.6729 80.2248 32.6729C77.442 32.6729 75.186 34.9276 75.186 37.709Z" fill="#9C96D6"/>
<path d="M61.3655 37.709C61.3655 40.4906 61.9837 45.9176 64.7266 45.9176C67.4697 45.9176 71.299 40.4906 71.299 37.709C71.299 34.9276 69.0754 32.6729 66.3323 32.6729C63.5892 32.6729 61.3655 34.9276 61.3655 37.709Z" fill="#9C96D6"/>
<path d="M47.4009 37.709C47.4009 40.4906 48.0191 45.9176 50.7621 45.9176C53.5052 45.9176 57.3345 40.4906 57.3345 37.709C57.3345 34.9276 55.1108 32.6729 52.3677 32.6729C49.6246 32.6729 47.4009 34.9276 47.4009 37.709Z" fill="#9C96D6"/>
<path d="M75.0421 55.128C75.0421 57.9095 75.6692 63.3365 78.4521 63.3365C81.2349 63.3365 85.1196 57.9095 85.1196 55.128C85.1196 52.3466 82.8637 50.0918 80.0809 50.0918C77.298 50.0918 75.0421 52.3466 75.0421 55.128Z" fill="#DEDCF1"/>
<path d="M97.627 281.943L71.5693 289.859L75.8348 298.063L65.4919 308.028L75.0024 316.434L85.4248 303.024L91.0707 306.836L97.627 281.943Z" fill="#9C96D6" stroke="black" stroke-width="0.155206"/>
<path d="M98.4093 278.295L67.7914 287.605L72.8007 297.246L60.646 308.962L71.8178 318.838L84.067 303.074L90.6995 307.553L98.4093 278.295Z" stroke="black" stroke-width="1.86248"/>
<path d="M121.615 201.111C117.123 199.096 100.836 191.394 93.2536 187.795L113.193 142.014C114.848 141.798 121.068 141.366 132.7 141.366C148.392 141.366 153.143 148.564 160.269 150.436C169.915 153.243 170.922 156.842 170.706 157.994C170.491 159.146 164.372 162.745 153.143 160.513C144.159 158.728 143.882 160.921 144.865 162.241C147.672 168.144 159.189 173.758 163.796 174.478C168.403 175.198 184.527 172.966 181.216 179.877C178.885 184.74 169.886 185.726 164.145 185.599C168.515 185.926 174.522 187.006 174.522 189.594C172.679 194.95 166.603 195.569 163.796 195.209C158.441 201.14 152.879 201.615 150.767 201.111C150.264 202.119 148.378 204.451 144.865 205.718C140.474 207.302 127.229 203.631 121.615 201.111Z" fill="#CDCAEA"/>
<path d="M273.438 210.468C277.93 208.452 304.09 198.951 316.111 189.233L281.86 151.37C280.204 151.155 273.985 150.723 262.353 150.723C246.661 150.723 241.91 157.921 234.784 159.792C225.138 162.6 224.13 166.199 224.346 167.351C224.562 168.502 230.681 172.101 241.91 169.87C250.893 168.085 251.171 170.277 250.188 171.597C247.38 177.5 239.366 183.4 234.784 182.539C227.5 181.171 214.04 176.099 214.04 183.762C214.04 189.455 225.913 194.525 231.835 194.855C227.693 194.829 222.112 194.442 220.806 197.511C220.014 201.758 223.038 203.198 231.256 204.565C236.612 210.497 242.173 210.972 244.285 210.468C244.789 211.476 246.675 213.808 250.188 215.075C254.579 216.658 267.823 212.987 273.438 210.468Z" fill="#CDCAEA"/>
<path d="M260.395 56.7148C240.643 52.4535 219.053 58.4903 210.727 62.0415C190.813 60.266 147.541 55.995 133.778 53.1157C116.575 49.5166 100.523 56.7148 93.0364 62.0415C85.5502 67.3682 70.5061 78.8854 51.5746 89.2508C6.51372 109.622 -3.05871 143.885 1.18819 151.084C5.43514 158.282 23.5748 169.223 54.3819 174.694C77.164 178.739 89.1974 187.099 93.0364 188.298C107.03 181.734 114.607 151.731 116.647 137.551L107.361 127.833L120.246 117.828L129.677 124.452H259.461L289.764 137.551C287.23 138.415 280.597 146.933 277.599 151.084C273.625 175.385 297.153 188.179 309.415 191.538C312.629 191.657 319.982 191.178 323.667 188.298C328.274 184.699 364.481 155.043 372.327 142.878C380.173 130.713 367.72 113.221 352.316 105.375C336.912 97.5287 285.085 62.0415 260.395 56.7148Z" fill="#5C51BB"/>
<path d="M295.308 89.8975L297.755 99.5431M234.339 95.3681L242.905 101.918L234.339 95.3681ZM242.905 81.2596L250.895 75.3571L242.905 81.2596ZM210.873 85.3626L209.145 95.3681L210.873 85.3626ZM174.306 115.379L188.774 119.842L174.306 115.379ZM144.649 81.2596L151.199 85.3626L144.649 81.2596ZM112.617 105.734L124.71 104.006L112.617 105.734ZM100.164 67.0791L105.707 75.3571L100.164 67.0791ZM61.5814 91.913L55.7509 98.4633L61.5814 91.913ZM90.2303 135.39L100.164 142.588L90.2303 135.39ZM73.3145 156.409C62.258 160.843 62.7091 160.991 64.3167 160.512L73.3145 156.409ZM29.8372 138.126L33.2924 126.752L29.8372 138.126ZM300.49 178.508L310.856 176.78L300.49 178.508ZM306.393 138.126L303.586 150.578L306.393 138.126ZM356.709 129.2L363.619 138.126L356.709 129.2Z" stroke="#BDB8E4" stroke-width="1.86248" stroke-linecap="round"/>
<path d="M293.58 134.239C298.571 129.225 309.834 118.533 314.959 115.884" stroke="black" stroke-width="1.86248" stroke-linecap="round"/>
<path d="M104.915 126.106C87.4559 119.039 65.9809 112.447 47.329 119.34" stroke="black" stroke-width="1.86248" stroke-linecap="round"/>
<path d="M54.8151 108.037C57.0465 108.037 63.5249 109.203 71.587 113.868" stroke="black" stroke-width="1.86248" stroke-linecap="round"/>
<path d="M158.775 57.2591C162.756 57.2591 165.984 54.0315 165.984 50.05C165.984 46.0685 162.756 42.8408 158.775 42.8408C154.793 42.8408 151.566 46.0685 151.566 50.05C151.566 54.0315 154.793 57.2591 158.775 57.2591Z" fill="black"/>
<path d="M158.775 70.5492C162.756 70.5492 165.984 67.3215 165.984 63.34C165.984 59.3585 162.756 56.1309 158.775 56.1309C154.793 56.1309 151.566 59.3585 151.566 63.34C151.566 67.3215 154.793 70.5492 158.775 70.5492Z" fill="black"/>
<path d="M151.565 63.3412C155.546 63.3412 158.774 60.1135 158.774 56.132C158.774 52.1505 155.546 48.9229 151.565 48.9229C147.583 48.9229 144.356 52.1505 144.356 56.132C144.356 60.1135 147.583 63.3412 151.565 63.3412Z" fill="black"/>
<path d="M215.321 55.1186C215.321 71.7289 201.856 85.1943 185.245 85.1943C157.311 87.8977 155.17 71.7289 155.17 55.1186C155.17 38.5082 168.635 25.043 185.245 25.043C201.856 25.043 215.321 38.5082 215.321 55.1186Z" fill="#CDCAEA"/>
<path d="M185.247 24.5381C173.364 24.5381 162.429 31.6643 158.11 42.6056L215.035 50.9498C213.006 36.3121 200.442 24.5381 185.247 24.5381Z" fill="#5C51BB"/>
<path d="M213.857 50.7249L135.795 39.9111" stroke="black" stroke-width="1.86248" stroke-linecap="round"/>
<path d="M165.38 78.1653L169.588 85.9822C176.502 100.244 202.547 95.6539 202.235 79.245C202.006 67.1847 165.38 78.1653 165.38 78.1653Z" fill="#CDCAEA"/>
<path d="M213.519 63.3416C217.749 63.3416 221.178 59.8618 221.178 55.5692C221.178 51.2767 217.749 47.7969 213.519 47.7969C209.288 47.7969 205.859 51.2767 205.859 55.5692C205.859 59.8618 209.288 63.3416 213.519 63.3416Z" fill="black"/>
<path d="M221.291 63.3408C223.469 63.3408 225.234 61.5252 225.234 59.2856C225.234 57.046 223.469 55.2305 221.291 55.2305C219.114 55.2305 217.349 57.046 217.349 59.2856C217.349 61.5252 219.114 63.3408 221.291 63.3408Z" fill="black"/>
<path d="M224.332 66.1572C224.332 71.1964 220.278 75.9978 215.209 76.7457C208.337 77.7595 202.479 70.8584 202.479 65.8194C202.479 60.7803 210.169 57.0332 215.209 57.0332C220.248 57.0332 224.332 61.1182 224.332 66.1572Z" fill="black"/>
<path d="M157.741 54.478C163.739 55.2668 169.251 50.9724 170.052 44.8861L148.33 42.0293C147.53 48.1157 151.744 53.6891 157.741 54.478Z" fill="black"/>
<path d="M170.044 52.167C173.854 52.6557 177.349 49.8764 177.851 45.9588L164.06 44.1885C163.556 48.106 166.236 51.6781 170.044 52.167Z" fill="black"/>
<path d="M204.8 67.6243C207.825 68.6182 211.255 66.4467 212.462 62.7739C213.669 59.1012 212.196 55.3181 209.171 54.3241C206.146 53.3302 202.716 55.5018 201.509 59.1745C200.302 62.8472 201.776 66.6303 204.8 67.6243Z" fill="#5C51BB"/>
<path d="M203.042 60.9759C204.057 59.2862 206.873 57.2588 209.463 57.7092" stroke="black" stroke-width="1.24165" stroke-linecap="round"/>
<path d="M207.812 57.9658C208.117 58.4363 208.761 59.9851 208.859 61.0406" stroke="black" stroke-width="1.24165" stroke-linecap="round"/>
<path d="M171.272 71.9747L177.72 62.4463L179.575 73.4194L171.272 71.9747Z" fill="#5C51BB"/>
<path d="M177.041 63.1328L171.21 71.4219L179.023 72.631" stroke="black" stroke-width="1.24165" stroke-linecap="round"/>
<path d="M177.833 78.14C178.846 78.1776 181.393 78.0049 183.465 77.0137" stroke="black" stroke-width="1.24165" stroke-linecap="round"/>
<path d="M186.615 55.1365C187.628 55.0989 190.175 55.2715 192.246 56.2629" stroke="black" stroke-width="1.24165" stroke-linecap="round"/>
<path d="M168.687 51.405C167.673 51.3676 165.128 51.5402 163.055 52.5316" stroke="black" stroke-width="1.24165" stroke-linecap="round"/>
<path d="M178.149 84.2931C180.627 84.7437 185.019 85.0816 188.4 82.2656" stroke="black" stroke-width="1.24165" stroke-linecap="round"/>
<path d="M166.709 64.4314C167.766 64.4314 168.623 63.5741 168.623 62.5165C168.623 61.4589 167.766 60.6016 166.709 60.6016C165.651 60.6016 164.794 61.4589 164.794 62.5165C164.794 63.5741 165.651 64.4314 166.709 64.4314Z" fill="black"/>
<path d="M188.961 64.4314C190.019 64.4314 190.876 63.5741 190.876 62.5165C190.876 61.4589 190.019 60.6016 188.961 60.6016C187.904 60.6016 187.046 61.4589 187.046 62.5165C187.046 63.5741 187.904 64.4314 188.961 64.4314Z" fill="black"/>
<path d="M191.538 75.2165C193.645 75.2165 195.354 73.5081 195.354 71.4007C195.354 69.2933 193.645 67.585 191.538 67.585C189.431 67.585 187.722 69.2933 187.722 71.4007C187.722 73.5081 189.431 75.2165 191.538 75.2165Z" fill="#5C51BB"/>
<path d="M163.654 73.1882C165.761 73.1882 167.469 71.4798 167.469 69.3724C167.469 67.265 165.761 65.5566 163.654 65.5566C161.546 65.5566 159.838 67.265 159.838 69.3724C159.838 71.4798 161.546 73.1882 163.654 73.1882Z" fill="#5C51BB"/>
<path d="M235.203 194.705C235.203 194.705 242.113 195.785 249.887 193.481M234.267 204.063C236.282 204.639 247.224 205.359 251.327 203.487M247.224 210.469C249.215 210.397 253.702 210.455 256.005 209.821" stroke="black" stroke-width="1.86248" stroke-linecap="round"/>
<path d="M162.069 185.491C157.678 186.211 150.983 185.491 145.585 183.044M160.269 194.849C154.223 195.281 142.274 195.497 135.939 191.322M148.896 200.824C142.633 202.623 133.031 200.276 130.324 198.664" stroke="black" stroke-width="1.86248" stroke-linecap="round"/>
</svg>
