<svg viewBox="0 0 661 105" fill="none" xmlns="http://www.w3.org/2000/svg">
<g filter="url(#filter0_dd_3_391)">
<rect x="3" y="3" width="655.485" height="96.7677" rx="4.83838" fill="white"/>
<path fill-rule="evenodd" clip-rule="evenodd" d="M65.0281 51.8787C65.0281 50.3348 64.8895 48.8503 64.6322 47.4252H44.1263V55.8473H55.844C55.3392 58.5688 53.8052 60.8748 51.4993 62.4187V67.8816H58.5359C62.6529 64.0912 65.0281 58.5095 65.0281 51.8787Z" fill="#4285F4"/>
<path fill-rule="evenodd" clip-rule="evenodd" d="M44.1263 73.1566C50.0049 73.1566 54.9335 71.207 58.5359 67.8817L51.4993 62.4187C49.5497 63.725 47.0557 64.497 44.1263 64.497C38.4555 64.497 33.6556 60.667 31.9434 55.5207H24.6694V61.1618C28.252 68.2775 35.6151 73.1566 44.1263 73.1566Z" fill="#34A853"/>
<path fill-rule="evenodd" clip-rule="evenodd" d="M31.9434 55.5206C31.508 54.2143 31.2606 52.8189 31.2606 51.3838C31.2606 49.9488 31.508 48.5534 31.9434 47.247V41.6059H24.6694C23.1948 44.5452 22.3535 47.8705 22.3535 51.3838C22.3535 54.8972 23.1948 58.2224 24.6694 61.1618L31.9434 55.5206Z" fill="#FBBC05"/>
<path fill-rule="evenodd" clip-rule="evenodd" d="M44.1263 38.2707C47.3229 38.2707 50.1929 39.3692 52.4494 41.5267L58.6942 35.2819C54.9236 31.7686 49.995 29.6111 44.1263 29.6111C35.6151 29.6111 28.252 34.4902 24.6694 41.6059L31.9434 47.247C33.6556 42.1007 38.4555 38.2707 44.1263 38.2707Z" fill="#EA4335"/>
<path d="M138.992 57.8288C138.992 56.7704 138.617 55.9545 137.868 55.3812C137.129 54.8079 135.789 54.2291 133.849 53.6448C131.909 53.0605 130.365 52.41 129.219 51.6934C127.025 50.3152 125.928 48.5182 125.928 46.3022C125.928 44.3618 126.716 42.7632 128.292 41.5063C129.88 40.2495 131.936 39.621 134.461 39.621C136.137 39.621 137.631 39.9297 138.943 40.5471C140.254 41.1645 141.285 42.0465 142.035 43.1931C142.785 44.3287 143.16 45.5911 143.16 46.9802H138.992C138.992 45.7234 138.595 44.7421 137.801 44.0365C137.019 43.3199 135.894 42.9616 134.428 42.9616C133.061 42.9616 131.997 43.2538 131.236 43.8381C130.486 44.4224 130.112 45.2383 130.112 46.2856C130.112 47.1676 130.519 47.9063 131.335 48.5016C132.151 49.086 133.496 49.6593 135.37 50.2215C137.245 50.7728 138.75 51.4067 139.885 52.1233C141.021 52.8289 141.853 53.6448 142.382 54.5709C142.912 55.486 143.176 56.5609 143.176 57.7957C143.176 59.8022 142.404 61.4009 140.861 62.5915C139.328 63.7712 137.245 64.3611 134.61 64.3611C132.868 64.3611 131.264 64.0413 129.797 63.4019C128.342 62.7514 127.206 61.8584 126.391 60.7228C125.586 59.5872 125.183 58.2642 125.183 56.7538H129.367C129.367 58.1209 129.819 59.1793 130.723 59.929C131.627 60.6787 132.923 61.0536 134.61 61.0536C136.065 61.0536 137.156 60.7614 137.884 60.1771C138.623 59.5817 138.992 58.799 138.992 57.8288ZM150.734 64.0303H146.715V46.1368H150.734V64.0303ZM146.467 41.4898C146.467 40.8724 146.66 40.3597 147.046 39.9518C147.443 39.5439 148.005 39.3399 148.733 39.3399C149.46 39.3399 150.023 39.5439 150.42 39.9518C150.816 40.3597 151.015 40.8724 151.015 41.4898C151.015 42.0961 150.816 42.6033 150.42 43.0112C150.023 43.4081 149.46 43.6066 148.733 43.6066C148.005 43.6066 147.443 43.4081 147.046 43.0112C146.66 42.6033 146.467 42.0961 146.467 41.4898ZM154.422 54.9512C154.422 52.173 155.072 49.9569 156.373 48.3032C157.685 46.6384 159.421 45.806 161.582 45.806C163.622 45.806 165.226 46.5172 166.395 47.9394L166.577 46.1368H170.198V63.4846C170.198 65.8329 169.465 67.6851 167.999 69.0411C166.544 70.3972 164.576 71.0753 162.095 71.0753C160.783 71.0753 159.499 70.7996 158.242 70.2484C156.996 69.7082 156.048 68.997 155.397 68.1151L157.299 65.7006C158.534 67.1669 160.055 67.9001 161.863 67.9001C163.197 67.9001 164.25 67.5362 165.022 66.8086C165.794 66.092 166.18 65.0336 166.18 63.6334V62.4262C165.022 63.7161 163.479 64.3611 161.549 64.3611C159.454 64.3611 157.74 63.5287 156.406 61.8639C155.083 60.1991 154.422 57.8949 154.422 54.9512ZM158.424 55.2985C158.424 57.0956 158.787 58.5123 159.515 59.5487C160.254 60.574 161.274 61.0866 162.575 61.0866C164.195 61.0866 165.397 60.3921 166.18 59.0029V51.1311C165.419 49.775 164.228 49.097 162.608 49.097C161.285 49.097 160.254 49.6207 159.515 50.668C158.787 51.7154 158.424 53.2589 158.424 55.2985ZM178.07 46.1368L178.186 48.204C179.509 46.6053 181.245 45.806 183.395 45.806C187.122 45.806 189.018 47.9394 189.084 52.206V64.0303H185.065V52.4376C185.065 51.302 184.817 50.4641 184.321 49.9239C183.836 49.3726 183.037 49.097 181.923 49.097C180.303 49.097 179.095 49.8302 178.302 51.2965V64.0303H174.283V46.1368H178.07ZM205.903 64.0303H201.884V46.1368H205.903V64.0303ZM201.636 41.4898C201.636 40.8724 201.829 40.3597 202.215 39.9518C202.612 39.5439 203.174 39.3399 203.902 39.3399C204.629 39.3399 205.192 39.5439 205.588 39.9518C205.985 40.3597 206.184 40.8724 206.184 41.4898C206.184 42.0961 205.985 42.6033 205.588 43.0112C205.192 43.4081 204.629 43.6066 203.902 43.6066C203.174 43.6066 202.612 43.4081 202.215 43.0112C201.829 42.6033 201.636 42.0961 201.636 41.4898ZM214.023 46.1368L214.138 48.204C215.461 46.6053 217.198 45.806 219.348 45.806C223.074 45.806 224.97 47.9394 225.036 52.206V64.0303H221.018V52.4376C221.018 51.302 220.77 50.4641 220.274 49.9239C219.789 49.3726 218.989 49.097 217.876 49.097C216.255 49.097 215.048 49.8302 214.254 51.2965V64.0303H210.235V46.1368H214.023ZM253.299 58.4903L256.143 46.1368H260.063L255.184 64.0303H251.877L248.04 51.743L244.27 64.0303H240.962L236.067 46.1368H239.986L242.88 58.358L246.552 46.1368H249.578L253.299 58.4903ZM267.025 64.0303H263.006V46.1368H267.025V64.0303ZM262.758 41.4898C262.758 40.8724 262.951 40.3597 263.337 39.9518C263.734 39.5439 264.296 39.3399 265.024 39.3399C265.752 39.3399 266.314 39.5439 266.711 39.9518C267.108 40.3597 267.306 40.8724 267.306 41.4898C267.306 42.0961 267.108 42.6033 266.711 43.0112C266.314 43.4081 265.752 43.6066 265.024 43.6066C264.296 43.6066 263.734 43.4081 263.337 43.0112C262.951 42.6033 262.758 42.0961 262.758 41.4898ZM276.451 41.7874V46.1368H279.61V49.1135H276.451V59.1021C276.451 59.7857 276.584 60.2818 276.848 60.5905C277.124 60.8882 277.609 61.037 278.304 61.037C278.767 61.037 279.235 60.9819 279.709 60.8717V63.9807C278.794 64.2343 277.912 64.3611 277.063 64.3611C273.976 64.3611 272.433 62.6577 272.433 59.251V49.1135H269.489V46.1368H272.433V41.7874H276.451ZM286.655 48.0882C287.967 46.5668 289.626 45.806 291.633 45.806C295.447 45.806 297.382 47.9835 297.437 52.3383V64.0303H293.419V52.4872C293.419 51.2524 293.149 50.3814 292.608 49.8743C292.079 49.3561 291.296 49.097 290.26 49.097C288.65 49.097 287.449 49.8136 286.655 51.2469V64.0303H282.636V38.6288H286.655V48.0882ZM328.792 60.9047C327.921 62.0403 326.714 62.9002 325.171 63.4846C323.627 64.0689 321.874 64.3611 319.912 64.3611C317.894 64.3611 316.108 63.9035 314.554 62.9884C312.999 62.0734 311.797 60.7669 310.948 59.0691C310.111 57.3602 309.675 55.3702 309.642 53.0991V51.2138C309.642 47.5755 310.513 44.7366 312.255 42.697C313.997 40.6464 316.428 39.621 319.548 39.621C322.227 39.621 324.355 40.2825 325.931 41.6055C327.508 42.9285 328.456 44.8358 328.776 47.3275H324.675C324.212 44.4279 322.53 42.9781 319.631 42.9781C317.756 42.9781 316.329 43.6562 315.347 45.0122C314.377 46.3573 313.876 48.3363 313.843 50.9492V52.8014C313.843 55.4033 314.388 57.4264 315.48 58.8706C316.582 60.3039 318.109 61.0205 320.061 61.0205C322.199 61.0205 323.721 60.5354 324.625 59.5652V54.852H319.664V51.6768H328.792V60.9047ZM332.249 54.9182C332.249 53.1652 332.596 51.5886 333.291 50.1885C333.985 48.7773 334.961 47.6968 336.218 46.9471C337.475 46.1864 338.919 45.806 340.551 45.806C342.965 45.806 344.922 46.5833 346.421 48.1378C347.932 49.6923 348.748 51.754 348.869 54.3228L348.885 55.2655C348.885 57.0295 348.544 58.606 347.86 59.9952C347.188 61.3843 346.217 62.4592 344.949 63.22C343.693 63.9807 342.237 64.3611 340.584 64.3611C338.059 64.3611 336.036 63.5232 334.514 61.8474C333.004 60.1605 332.249 57.917 332.249 55.1166V54.9182ZM336.267 55.2655C336.267 57.1066 336.648 58.5509 337.408 59.5983C338.169 60.6346 339.228 61.1528 340.584 61.1528C341.94 61.1528 342.993 60.6236 343.742 59.5652C344.503 58.5068 344.883 56.9578 344.883 54.9182C344.883 53.1101 344.492 51.6768 343.709 50.6184C342.937 49.56 341.885 49.0308 340.551 49.0308C339.239 49.0308 338.197 49.5545 337.425 50.6019C336.653 51.6382 336.267 53.1928 336.267 55.2655ZM351.531 54.9182C351.531 53.1652 351.879 51.5886 352.573 50.1885C353.268 48.7773 354.244 47.6968 355.5 46.9471C356.757 46.1864 358.201 45.806 359.833 45.806C362.248 45.806 364.205 46.5833 365.704 48.1378C367.214 49.6923 368.03 51.754 368.152 54.3228L368.168 55.2655C368.168 57.0295 367.826 58.606 367.143 59.9952C366.47 61.3843 365.5 62.4592 364.232 63.22C362.975 63.9807 361.52 64.3611 359.866 64.3611C357.342 64.3611 355.318 63.5232 353.797 61.8474C352.287 60.1605 351.531 57.917 351.531 55.1166V54.9182ZM355.55 55.2655C355.55 57.1066 355.93 58.5509 356.691 59.5983C357.452 60.6346 358.51 61.1528 359.866 61.1528C361.222 61.1528 362.275 60.6236 363.025 59.5652C363.786 58.5068 364.166 56.9578 364.166 54.9182C364.166 53.1101 363.775 51.6768 362.992 50.6184C362.22 49.56 361.167 49.0308 359.833 49.0308C358.521 49.0308 357.479 49.5545 356.708 50.6019C355.936 51.6382 355.55 53.1928 355.55 55.2655ZM370.864 54.9512C370.864 52.173 371.514 49.9569 372.815 48.3032C374.127 46.6384 375.863 45.806 378.024 45.806C380.064 45.806 381.668 46.5172 382.837 47.9394L383.019 46.1368H386.64V63.4846C386.64 65.8329 385.907 67.6851 384.441 69.0411C382.986 70.3972 381.018 71.0753 378.537 71.0753C377.225 71.0753 375.941 70.7996 374.684 70.2484C373.438 69.7082 372.49 68.997 371.839 68.1151L373.741 65.7006C374.976 67.1669 376.497 67.9001 378.305 67.9001C379.64 67.9001 380.692 67.5362 381.464 66.8086C382.236 66.092 382.622 65.0336 382.622 63.6334V62.4262C381.464 63.7161 379.921 64.3611 377.991 64.3611C375.897 64.3611 374.182 63.5287 372.848 61.8639C371.525 60.1991 370.864 57.8949 370.864 54.9512ZM374.866 55.2985C374.866 57.0956 375.23 58.5123 375.957 59.5487C376.696 60.574 377.716 61.0866 379.017 61.0866C380.637 61.0866 381.839 60.3921 382.622 59.0029V51.1311C381.861 49.775 380.67 49.097 379.05 49.097C377.727 49.097 376.696 49.6207 375.957 50.668C375.23 51.7154 374.866 53.2589 374.866 55.2985ZM395.058 64.0303H391.039V38.6288H395.058V64.0303ZM407.329 64.3611C404.782 64.3611 402.715 63.5617 401.127 61.9631C399.551 60.3535 398.762 58.2146 398.762 55.5466V55.0505C398.762 53.2644 399.104 51.6713 399.788 50.2711C400.482 48.86 401.452 47.763 402.698 46.9802C403.944 46.1974 405.333 45.806 406.866 45.806C409.302 45.806 411.182 46.5833 412.505 48.1378C413.839 49.6923 414.506 51.8918 414.506 54.7363V56.3569H402.814C402.935 57.8343 403.426 59.0029 404.286 59.8629C405.157 60.7228 406.248 61.1528 407.56 61.1528C409.401 61.1528 410.901 60.4086 412.058 58.9202L414.225 60.9874C413.508 62.0568 412.549 62.8892 411.347 63.4846C410.157 64.0689 408.817 64.3611 407.329 64.3611ZM406.849 49.0308C405.747 49.0308 404.854 49.4167 404.17 50.1885C403.498 50.9602 403.068 52.0351 402.88 53.4133H410.537V53.1156C410.449 51.7705 410.09 50.7562 409.462 50.0727C408.834 49.3781 407.963 49.0308 406.849 49.0308Z" fill="black" fill-opacity="0.54"/>
</g>
<defs>
<filter id="filter0_dd_3_391" x="0.580808" y="0.580808" width="660.323" height="104.025" filterUnits="userSpaceOnUse" color-interpolation-filters="sRGB">
<feFlood flood-opacity="0" result="BackgroundImageFix"/>
<feColorMatrix in="SourceAlpha" type="matrix" values="0 0 0 0 0 0 0 0 0 0 0 0 0 0 0 0 0 0 127 0" result="hardAlpha"/>
<feOffset dy="2.41919"/>
<feGaussianBlur stdDeviation="1.2096"/>
<feColorMatrix type="matrix" values="0 0 0 0 0 0 0 0 0 0 0 0 0 0 0 0 0 0 0.168 0"/>
<feBlend mode="normal" in2="BackgroundImageFix" result="effect1_dropShadow_3_391"/>
<feColorMatrix in="SourceAlpha" type="matrix" values="0 0 0 0 0 0 0 0 0 0 0 0 0 0 0 0 0 0 127 0" result="hardAlpha"/>
<feOffset/>
<feGaussianBlur stdDeviation="1.2096"/>
<feColorMatrix type="matrix" values="0 0 0 0 0 0 0 0 0 0 0 0 0 0 0 0 0 0 0.084 0"/>
<feBlend mode="normal" in2="effect1_dropShadow_3_391" result="effect2_dropShadow_3_391"/>
<feBlend mode="normal" in="SourceGraphic" in2="effect2_dropShadow_3_391" result="shape"/>
</filter>
</defs>
</svg>
