<svg width="21" height="14" viewBox="0 0 21 14" fill="none" color="#5B4DBE" xmlns="http://www.w3.org/2000/svg">
<path d="M19.88 2.63C19.8 2.48 19.68 2.36 19.53 2.27C19.38 2.18 19.21 2.14 19.03 2.14C18.85 2.14 18.68 2.19 18.53 2.27L15 4.01C14.97 3.23 14.64 2.5 14.08 1.96C13.52 1.42 12.77 1.12 12 1.12H8.37C7.82 1.12 7.37 1.57 7.37 2.12C7.37 2.67 7.82 3.12 8.37 3.12H12C12.27 3.12 12.52 3.23 12.71 3.41C12.9 3.6 13 3.85 13 4.12V10.12C13 10.39 12.89 10.64 12.71 10.83C12.52 11.02 12.27 11.12 12 11.12H3C2.73 11.12 2.48 11.01 2.29 10.83C2.1 10.65 2 10.39 2 10.12V7.99C2 7.44 1.55 6.99 1 6.99C0.45 6.99 0 7.44 0 7.99V10.12C0 10.92 0.32 11.68 0.88 12.24C1.44 12.8 2.21 13.12 3 13.12H12C12.78 13.12 13.52 12.82 14.08 12.28C14.64 11.74 14.97 11.01 15 10.23L18.56 12.01C18.7 12.08 18.85 12.12 19 12.12C19.19 12.12 19.37 12.07 19.53 11.97C19.67 11.88 19.79 11.75 19.88 11.61C19.96 11.46 20.01 11.29 20 11.12V3.12C20 2.95 19.96 2.78 19.88 2.63ZM18 9.5L15 8V6.24L18 4.74V9.5Z" fill="currentColor"/>
<path d="M5 2H4V1C4 0.73 3.89 0.48 3.71 0.29C3.52 0.1 3.27 0 3 0C2.73 0 2.48 0.11 2.29 0.29C2.1 0.48 2 0.73 2 1V2H1C0.73 2 0.48 2.11 0.29 2.29C0.1 2.48 0 2.73 0 3C0 3.27 0.11 3.52 0.29 3.71C0.48 3.9 0.73 4 1 4H2V5C2 5.27 2.11 5.52 2.29 5.71C2.48 5.9 2.73 6 3 6C3.27 6 3.52 5.89 3.71 5.71C3.9 5.52 4 5.27 4 5V4H5C5.27 4 5.52 3.89 5.71 3.71C5.9 3.52 6 3.27 6 3C6 2.73 5.89 2.48 5.71 2.29C5.52 2.1 5.27 2 5 2Z" fill="currentColor"/>
</svg>
