<svg width="20" height="20" viewBox="0 0 20 20" fill="none" xmlns="http://www.w3.org/2000/svg" color="#5B4DBE">
<path d="M19 11C18.7348 11 18.4804 11.1054 18.2929 11.2929C18.1054 11.4804 18 11.7348 18 12V17C18 17.5525 17.5525 18 17 18H3C2.4475 18 2 17.5525 2 17V3C2 2.4475 2.4475 2 3 2H8C8.26522 2 8.51957 1.89464 8.70711 1.70711C8.89464 1.51957 9 1.26522 9 1C9 0.734784 8.89464 0.48043 8.70711 0.292893C8.51957 0.105357 8.26522 0 8 0H3C1.34325 0 0 1.34325 0 3V17C0 18.6568 1.34325 20 3 20H17C18.6568 20 20 18.6568 20 17V12C20 11.7348 19.8946 11.4804 19.7071 11.2929C19.5196 11.1054 19.2652 11 19 11ZM20 1V7C20 7.26522 19.8946 7.51957 19.7071 7.70711C19.5196 7.89464 19.2652 8 19 8C18.7348 8 18.4804 7.89464 18.2929 7.70711C18.1054 7.51957 18 7.26522 18 7V3.414L9.80725 11.6065C9.61838 11.7873 9.36623 11.8869 9.10482 11.884C8.84341 11.8811 8.59352 11.7759 8.40868 11.5911C8.22384 11.4062 8.11874 11.1563 8.11591 10.8949C8.11307 10.6335 8.21272 10.3813 8.3935 10.1925L16.5858 2H13C12.7348 2 12.4804 1.89464 12.2929 1.70711C12.1054 1.51957 12 1.26522 12 1C12 0.734784 12.1054 0.48043 12.2929 0.292893C12.4804 0.105357 12.7348 0 13 0H19C19.2652 0 19.5196 0.105357 19.7071 0.292893C19.8946 0.48043 20 0.734784 20 1Z" fill="currentColor"/>
</svg>
