<svg width="16" height="16" viewBox="0 0 16 16" fill="#1C1C1E" xmlns="http://www.w3.org/2000/svg">
<path d="M11.7755 6.23276C11.6333 6.08368 11.441 6 11.2405 6C11.04 6 10.8477 6.08368 10.7055 6.23276L7.98103 9.06631L5.29453 6.23276C5.15234 6.08368 4.95999 6 4.7595 6C4.55901 6 4.36667 6.08368 4.22448 6.23276C4.15335 6.30717 4.09689 6.3957 4.05836 6.49324C4.01984 6.59078 4 6.6954 4 6.80107C4 6.90674 4.01984 7.01136 4.05836 7.1089C4.09689 7.20644 4.15335 7.29497 4.22448 7.36938L7.44221 10.7632C7.51276 10.8383 7.59669 10.8978 7.68917 10.9384C7.78165 10.9791 7.88084 11 7.98103 11C8.08121 11 8.1804 10.9791 8.27288 10.9384C8.36536 10.8978 8.4493 10.8383 8.51985 10.7632L11.7755 7.36938C11.8466 7.29497 11.9031 7.20644 11.9416 7.1089C11.9802 7.01136 12 6.90674 12 6.80107C12 6.6954 11.9802 6.59078 11.9416 6.49324C11.9031 6.3957 11.8466 6.30717 11.7755 6.23276Z" fill="currentColor"/>
</svg>
