<svg width="20" height="20" viewBox="0 0 20 20" fill="none" xmlns="http://www.w3.org/2000/svg" color="#1C1C1E">
<path d="M10 0C8.02219 0 6.08879 0.58649 4.4443 1.6853C2.79981 2.78412 1.51809 4.3459 0.761209 6.17317C0.00433284 8.00043 -0.193701 10.0111 0.192152 11.9509C0.578004 13.8907 1.53041 15.6725 2.92894 17.0711C4.32746 18.4696 6.10929 19.422 8.0491 19.8079C9.98891 20.1937 11.9996 19.9957 13.8268 19.2388C15.6541 18.4819 17.2159 17.2002 18.3147 15.5557C19.4135 13.9112 20 11.9778 20 10C20 8.68678 19.7413 7.38642 19.2388 6.17317C18.7363 4.95991 17.9997 3.85752 17.0711 2.92893C16.1425 2.00035 15.0401 1.26375 13.8268 0.761205C12.6136 0.258658 11.3132 0 10 0ZM10 18C8.41775 18 6.87104 17.5308 5.55544 16.6518C4.23985 15.7727 3.21447 14.5233 2.60897 13.0615C2.00347 11.5997 1.84504 9.99113 2.15372 8.43928C2.4624 6.88743 3.22433 5.46197 4.34315 4.34315C5.46197 3.22433 6.88743 2.4624 8.43928 2.15372C9.99113 1.84504 11.5997 2.00346 13.0615 2.60896C14.5233 3.21447 15.7727 4.23984 16.6518 5.55544C17.5308 6.87103 18 8.41775 18 10C18 12.1217 17.1572 14.1566 15.6569 15.6569C14.1566 17.1571 12.1217 18 10 18Z" fill="currentColor"/>
<path d="M8.99986 15C8.99986 14.4477 9.44757 14 9.99986 14C10.5521 14 10.9999 14.4477 10.9999 15C10.9999 15.5523 10.5521 16 9.99986 16C9.44757 16 8.99986 15.5523 8.99986 15ZM10.6099 4.04002C8.54986 3.74002 6.72986 5.01002 6.17986 6.83002C5.99986 7.41002 6.43986 8.00002 7.04986 8.00002H7.24986C7.65986 8.00002 7.98986 7.71002 8.12986 7.33002C8.44986 6.44002 9.39986 5.83002 10.4299 6.05002C11.3799 6.25002 12.0799 7.18002 11.9999 8.15002C11.8999 9.49002 10.3799 9.78002 9.54986 11.03C9.54986 11.04 9.53986 11.04 9.53986 11.05C9.52986 11.07 9.51986 11.08 9.50986 11.1C9.41986 11.25 9.32985 11.42 9.25986 11.6C9.24986 11.63 9.22986 11.65 9.21986 11.68C9.20986 11.7 9.20986 11.72 9.19986 11.75C9.07986 12.09 8.99986 12.5 8.99986 13H10.9999C10.9999 12.58 11.1099 12.23 11.2799 11.93C11.2999 11.9 11.3099 11.87 11.3299 11.84C11.4099 11.7 11.5099 11.57 11.6099 11.45C11.6199 11.44 11.6299 11.42 11.6399 11.41C11.7399 11.29 11.8499 11.18 11.9699 11.07C12.9299 10.16 14.2299 9.42002 13.9599 7.51002C13.7199 5.77002 12.3499 4.30002 10.6099 4.04002Z" fill="currentColor"/>
</svg>
