<svg color="#242334" width="6" height="9" viewBox="0 0 6 9" fill="none" xmlns="http://www.w3.org/2000/svg">
<path d="M1.12941 7.81829C1.00524 7.69339 0.935547 7.52442 0.935547 7.34829C0.935547 7.17217 1.00524 7.0032 1.12941 6.87829L3.48941 4.48496L1.12941 2.12496C1.00524 2.00005 0.935547 1.83109 0.935547 1.65496C0.935547 1.47884 1.00524 1.30987 1.12941 1.18496C1.19138 1.12248 1.26512 1.07288 1.34636 1.03903C1.4276 1.00519 1.51473 0.987762 1.60274 0.987762C1.69075 0.987762 1.77789 1.00519 1.85913 1.03903C1.94037 1.07288 2.0141 1.12248 2.07608 1.18496L4.90274 4.01163C4.96523 4.0736 5.01482 4.14734 5.04867 4.22858C5.08252 4.30982 5.09994 4.39695 5.09994 4.48496C5.09994 4.57297 5.08252 4.66011 5.04867 4.74135C5.01482 4.82259 4.96523 4.89632 4.90274 4.95829L2.07608 7.81829C2.0141 7.88078 1.94037 7.93038 1.85913 7.96422C1.77789 7.99807 1.69075 8.01549 1.60274 8.01549C1.51473 8.01549 1.4276 7.99807 1.34636 7.96422C1.26512 7.93038 1.19138 7.88078 1.12941 7.81829Z" fill="currentColor"/>
</svg>
