<svg width="24" height="24" viewBox="0 0 24 24" fill="none" xmlns="http://www.w3.org/2000/svg">
<path d="M12.0008 11.2498C11.5866 11.2498 11.2508 11.5856 11.2508 11.9998C11.2508 12.414 11.5866 12.7498 12.0008 12.7498C12.415 12.7498 12.7508 12.414 12.7508 11.9998C12.7508 11.5856 12.415 11.2498 12.0008 11.2498ZM9.00078 11.2498C8.5866 11.2498 8.25078 11.5856 8.25078 11.9998C8.25078 12.414 8.5866 12.7498 9.00078 12.7498C9.41497 12.7498 9.75078 12.414 9.75078 11.9998C9.75078 11.5856 9.41497 11.2498 9.00078 11.2498ZM15.0008 11.2498C14.5866 11.2498 14.2508 11.5856 14.2508 11.9998C14.2508 12.414 14.5866 12.7498 15.0008 12.7498C15.415 12.7498 15.7508 12.414 15.7508 11.9998C15.7508 11.5856 15.415 11.2498 15.0008 11.2498ZM19.4161 5.29009C15.7106 1.19457 9.38659 0.878348 5.29107 4.58379C1.19555 8.2893 0.879324 14.6133 4.58477 18.7088L2.14727 21.1463C2.05352 21.24 2.00085 21.3672 2.00085 21.4997C2.00078 21.7759 2.22466 21.9997 2.50078 21.9998H12.0008C14.4802 21.9997 16.8712 21.0785 18.7098 19.4151C22.8053 15.7096 23.1215 9.38561 19.4161 5.29009ZM12.0008 20.9998H3.70775L5.63653 19.0711C5.63659 19.071 5.63665 19.071 5.63665 19.0709C5.83184 18.8757 5.83178 18.5592 5.63653 18.3641C3.94915 16.6767 3.00103 14.3882 3.00078 12.0018C3.00024 7.03179 7.02874 3.00237 11.9988 3.00182C16.9687 3.00127 20.9982 7.02978 20.9988 11.9998C20.9993 16.9698 16.9708 20.9993 12.0008 20.9998Z" fill="black"/>
</svg>
