<svg viewBox="0 0 178 50" fill="none" xmlns="http://www.w3.org/2000/svg">
<path d="M12.6403 28.6141C12.6392 30.8245 13.1146 33.0098 14.0348 35.0246C14.955 37.0395 16.299 38.8377 17.9773 40.2998L15.2293 43.0141C12.2863 40.378 10.2203 36.9236 9.30303 33.1055C8.38579 29.2874 8.66031 25.2844 10.0905 21.6234C11.5206 17.9623 14.0394 14.8147 17.3154 12.5946C20.5914 10.3745 24.4712 9.18606 28.4441 9.18555V12.9951C24.2526 13.0001 20.2343 14.6476 17.2714 17.5759C14.3084 20.5043 12.6429 24.4741 12.6403 28.6141" fill="#2A292F"/>
<path d="M4.89844 28.6143C4.89693 31.8289 5.57153 35.0088 6.87949 37.9524C8.18744 40.896 10.1002 43.5391 12.4966 45.7143L17.9783 40.3C15.5753 38.2015 13.876 35.4303 13.1061 32.3548C12.3363 29.2792 12.5325 26.0451 13.6686 23.0824C14.8047 20.1197 16.8269 17.5687 19.4664 15.7685C22.1058 13.9684 25.2375 13.0044 28.4451 13.0048V5.38574C22.2071 5.39203 16.226 7.84043 11.8123 12.1944C7.3987 16.5485 4.91247 22.453 4.89844 28.6143" fill="#2A292F"/>
<path d="M27.6599 22.0811C26.3111 22.0801 24.9925 22.4743 23.8706 23.2138C22.7488 23.9533 21.8743 25.0049 21.3577 26.2355C20.8412 27.466 20.7058 28.8202 20.9686 30.1268C21.2315 31.4334 21.8809 32.6336 22.8346 33.5756C23.7883 34.5175 25.0034 35.1589 26.3263 35.4186C27.6491 35.6782 29.0202 35.5445 30.2661 35.0343C31.5119 34.524 32.5766 33.6603 33.3253 32.5523C34.074 31.4442 34.4731 30.1418 34.4722 28.8096C34.4722 27.0251 33.7545 25.3137 32.4769 24.0518C31.1993 22.79 29.4666 22.0811 27.6599 22.0811V22.0811ZM29.2942 28.3811C28.8632 28.3811 28.4419 28.2548 28.0836 28.0183C27.7252 27.7818 27.4459 27.4457 27.2809 27.0524C27.116 26.6591 27.0729 26.2263 27.1569 25.8088C27.241 25.3912 27.4486 25.0077 27.7533 24.7067C28.0581 24.4057 28.4464 24.2007 28.8691 24.1177C29.2918 24.0346 29.73 24.0772 30.1282 24.2401C30.5264 24.403 30.8667 24.6789 31.1062 25.0329C31.3456 25.3868 31.4734 25.803 31.4734 26.2287C31.474 26.5115 31.4181 26.7917 31.3088 27.0531C31.1995 27.3145 31.039 27.552 30.8366 27.752C30.6341 27.952 30.3936 28.1106 30.1289 28.2185C29.8642 28.3264 29.5806 28.3817 29.2942 28.3811" fill="#5B4DBE"/>
<path d="M47.2774 35.171C46.5673 34.8739 45.9523 34.3916 45.4984 33.7758C45.0682 33.1686 44.8375 32.4454 44.8379 31.7043H46.858C46.9134 32.3555 47.2145 32.9623 47.7017 33.4043C48.3027 33.9009 49.075 34.1483 49.8567 34.0948C50.628 34.1378 51.3883 33.8988 51.9925 33.4234C52.2453 33.2134 52.4469 32.9498 52.5821 32.6521C52.7174 32.3545 52.7828 32.0305 52.7736 31.7043C52.7879 31.2159 52.6158 30.74 52.2914 30.371C51.977 30.0234 51.5838 29.7542 51.144 29.5853C50.6619 29.4091 50.0689 29.2186 49.2927 29.0091C48.5065 28.8215 47.7361 28.5747 46.9881 28.271C46.402 28.0156 45.8922 27.6155 45.508 27.1091C45.0704 26.4864 44.8549 25.7375 44.8957 24.9805C44.883 24.2432 45.0928 23.5188 45.4984 22.8996C45.9201 22.2851 46.5081 21.8 47.1954 21.4996C47.9884 21.1646 48.8451 21.0022 49.7073 21.0234C50.9044 20.9723 52.0832 21.3268 53.0484 22.0282C53.4705 22.3467 53.8198 22.7498 54.0732 23.211C54.3266 23.6722 54.4785 24.1811 54.5188 24.7043H52.4554C52.3637 24.1342 52.0507 23.6217 51.5827 23.2758C50.9979 22.8342 50.2737 22.6116 49.5385 22.6472C48.8438 22.6188 48.161 22.8329 47.6101 23.252C47.3613 23.4593 47.1644 23.7206 47.0348 24.0155C46.9051 24.3104 46.8463 24.6309 46.8628 24.952C46.8512 25.4037 47.0073 25.844 47.3015 26.1901C47.6053 26.5211 47.9834 26.7772 48.4056 26.9377C49.0092 27.1632 49.6238 27.3587 50.2473 27.5234C51.0357 27.7276 51.8089 27.9854 52.5614 28.2948C53.1522 28.5581 53.6674 28.9623 54.0608 29.471C54.5061 30.0978 54.7251 30.8541 54.6827 31.6186C54.6828 32.3155 54.4894 32.999 54.1235 33.5948C53.7205 34.2391 53.1425 34.7588 52.4554 35.0948C51.6488 35.4955 50.7545 35.6935 49.8519 35.671C48.9674 35.6883 48.0895 35.5177 47.2774 35.171V35.171Z" fill="#5B4DBE"/>
<path d="M57.4732 26.8189C57.9215 25.9738 58.6036 25.2719 59.4403 24.7951C60.4289 24.2783 61.5395 24.0323 62.6568 24.0826C63.7742 24.1328 64.8576 24.4775 65.7946 25.0808C66.7161 25.7704 67.356 26.7641 67.5977 27.8808H65.568C65.3931 27.2246 64.9904 26.6498 64.4302 26.257C63.8155 25.8413 63.0822 25.631 62.3378 25.657C61.8451 25.6396 61.3545 25.7291 60.9005 25.9192C60.4466 26.1092 60.0403 26.3952 59.7102 26.757C58.9953 27.6373 58.6394 28.7498 58.7123 29.876C58.6386 31.0111 58.9943 32.1328 59.7102 33.0237C60.0394 33.3872 60.4453 33.6749 60.8992 33.8667C61.3532 34.0584 61.8443 34.1493 62.3378 34.1332C63.076 34.1612 63.8045 33.9596 64.4205 33.557C64.9869 33.1557 65.393 32.571 65.568 31.9046H67.6073C67.3351 33.0067 66.6885 33.9833 65.7753 34.6713C64.7773 35.3911 63.5631 35.7585 62.3281 35.7141C61.3162 35.7342 60.3172 35.4859 59.4354 34.9951C58.5971 34.514 57.9149 33.807 57.4684 32.957C56.9773 32.0022 56.7338 30.9419 56.7597 29.8713C56.737 28.8111 56.9823 27.762 57.4732 26.8189V26.8189Z" fill="#5B4DBE"/>
<path d="M73.4411 24.5907C74.1294 24.2158 74.9068 24.03 75.6925 24.0526V25.986H75.2104C73.0859 25.986 72.0236 27.1256 72.0236 29.405V35.5336H70.1289V24.2574H72.0236V26.0907C72.3388 25.4655 72.8313 24.9443 73.4411 24.5907V24.5907Z" fill="#5B4DBE"/>
<path d="M88.2267 30.5956H79.1147C79.1151 31.0706 79.2122 31.5408 79.4002 31.978C79.5882 32.4152 79.8634 32.8106 80.2093 33.1407C80.5551 33.4708 80.9647 33.7288 81.4136 33.8994C81.8625 34.07 82.3415 34.1497 82.8222 34.1337C83.5499 34.1614 84.2681 33.9632 84.876 33.567C85.4144 33.1982 85.8197 32.6694 86.0331 32.0575H88.0724C87.7805 33.1171 87.1349 34.0483 86.2404 34.7004C85.2458 35.4023 84.0438 35.759 82.8222 35.7146C81.8109 35.7288 80.8135 35.4809 79.9295 34.9956C79.0764 34.5166 78.3803 33.8059 77.9239 32.948C77.4207 32.0001 77.1686 30.9418 77.191 29.8718C77.1673 28.8075 77.4108 27.7539 77.8997 26.8051C78.3489 25.9528 79.0411 25.2491 79.8909 24.7813C80.7932 24.2948 81.8088 24.0502 82.8366 24.0718C83.8459 24.049 84.8435 24.2888 85.7293 24.767C86.5408 25.2101 87.2092 25.8703 87.6578 26.6718C88.1176 27.5239 88.3499 28.4778 88.3328 29.4432C88.3188 29.829 88.2834 30.2137 88.2267 30.5956ZM85.8547 27.2337C85.5448 26.727 85.0926 26.32 84.553 26.0623C83.9862 25.7878 83.3618 25.6491 82.7306 25.6575C81.8271 25.6387 80.9506 25.9625 80.2814 26.5623C79.5836 27.2209 79.1692 28.1195 79.1243 29.0718H86.3561C86.3691 28.4258 86.1987 27.7891 85.8643 27.2337H85.8547Z" fill="#5B4DBE"/>
<path d="M101.152 30.5954H92.0307C92.0311 31.0705 92.1282 31.5406 92.3162 31.9778C92.5042 32.4151 92.7794 32.8105 93.1253 33.1406C93.4712 33.4706 93.8807 33.7286 94.3296 33.8992C94.7785 34.0698 95.2575 34.1495 95.7382 34.1335C96.4645 34.1618 97.1814 33.9636 97.7872 33.5669C98.3285 33.201 98.7346 32.6712 98.9443 32.0573H100.988C100.695 33.1173 100.047 34.0484 99.1516 34.7002C98.1588 35.4021 96.9583 35.7589 95.7382 35.7145C94.7269 35.7287 93.7295 35.4807 92.8455 34.9954C91.9921 34.5152 91.2948 33.805 90.8351 32.9478C90.3336 31.9995 90.0832 30.9413 90.107 29.8716C90.0833 28.8073 90.3268 27.7537 90.8158 26.805C91.2629 25.9528 91.9536 25.2491 92.8021 24.7812C93.7062 24.2947 94.7233 24.0501 95.7527 24.0716C96.7618 24.0502 97.759 24.2899 98.6454 24.7669C99.4568 25.2099 100.125 25.8701 100.574 26.6716C101.032 27.5243 101.264 28.4778 101.249 29.4431C101.238 29.8286 101.206 30.2134 101.152 30.5954V30.5954ZM98.7804 27.2335C98.4679 26.7289 98.0164 26.3226 97.4786 26.0621C96.9118 25.7876 96.2875 25.6489 95.6562 25.6574C94.7528 25.6386 93.8763 25.9623 93.2071 26.5621C92.5072 27.2192 92.0924 28.1188 92.05 29.0716H99.2577C99.275 28.427 99.1097 27.7904 98.7804 27.2335V27.2335Z" fill="#5B4DBE"/>
<path d="M112.651 25.2997C113.512 26.1282 113.943 27.3251 113.943 28.8901V35.5568H112.068V29.1568C112.133 28.2198 111.827 27.2944 111.214 26.5758C110.912 26.2717 110.548 26.0345 110.145 25.8802C109.743 25.7258 109.312 25.6578 108.881 25.6806C108.436 25.656 107.99 25.7257 107.575 25.8851C107.159 26.0444 106.782 26.2897 106.47 26.6044C105.836 27.3574 105.52 28.3226 105.588 29.2997V35.533H103.693V24.2568H105.588V25.8616C105.962 25.2849 106.491 24.8231 107.116 24.5282C107.781 24.206 108.512 24.0429 109.252 24.052C109.875 24.0228 110.497 24.1182 111.081 24.3326C111.665 24.547 112.199 24.876 112.651 25.2997Z" fill="#5B4DBE"/>
<path d="M131.773 21.2949V35.533H129.878V24.9187L125.09 35.533H123.755L118.934 24.8949V35.533H117.039V21.2949H119.083L124.415 33.0663L129.748 21.2949H131.773Z" fill="#2A292F"/>
<path d="M137.056 35C136.184 34.5269 135.468 33.8162 134.993 32.9524C134.486 32.0058 134.232 30.9469 134.255 29.8762C134.233 28.8094 134.494 27.7554 135.012 26.8191C135.497 25.963 136.215 25.2585 137.085 24.7858C137.993 24.3196 139.001 24.0762 140.024 24.0762C141.047 24.0762 142.055 24.3196 142.962 24.7858C143.831 25.2559 144.549 25.957 145.036 26.8096C145.556 27.7484 145.817 28.8061 145.792 29.8762C145.816 30.9522 145.546 32.0146 145.011 32.9524C144.513 33.8153 143.782 34.5242 142.9 35C141.996 35.4799 140.985 35.7257 139.959 35.7143C138.945 35.7301 137.944 35.4839 137.056 35V35ZM141.878 33.6C142.488 33.2704 142.99 32.7746 143.324 32.1715C143.711 31.4647 143.902 30.6697 143.878 29.8667C143.902 29.0648 143.715 28.2705 143.334 27.562C143.011 26.9607 142.518 26.4646 141.916 26.1334C141.33 25.8301 140.678 25.6717 140.017 25.6717C139.355 25.6717 138.703 25.8301 138.117 26.1334C137.523 26.4635 137.041 26.9607 136.733 27.562C136.367 28.2748 136.188 29.0675 136.213 29.8667C136.187 30.6705 136.36 31.4684 136.719 32.1905C137.019 32.7904 137.495 33.2879 138.083 33.6191C138.657 33.9328 139.303 34.0967 139.959 34.0953C140.63 34.0908 141.29 33.9206 141.878 33.6V33.6Z" fill="#2A292F"/>
<path d="M150.387 35C149.522 34.524 148.812 33.8135 148.343 32.9524C147.836 32.0057 147.582 30.9469 147.605 29.8762C147.582 28.8087 147.845 27.7541 148.367 26.8191C148.848 25.9603 149.567 25.2549 150.44 24.7857C151.347 24.3196 152.354 24.0762 153.376 24.0762C154.398 24.0762 155.405 24.3196 156.312 24.7857C157.182 25.254 157.901 25.9555 158.385 26.8095C158.906 27.7484 159.167 28.8061 159.142 29.8762C159.165 30.9522 158.896 32.0146 158.361 32.9524C157.863 33.8152 157.132 34.5242 156.249 35C155.348 35.4797 154.337 35.7255 153.313 35.7143C152.291 35.7338 151.282 35.4874 150.387 35V35ZM155.208 33.6C155.819 33.2704 156.321 32.7746 156.654 32.1714C157.041 31.4647 157.232 30.6697 157.209 29.8667C157.238 29.0701 157.059 28.2794 156.688 27.5715C156.365 26.9715 155.875 26.4757 155.275 26.1429C154.689 25.8396 154.036 25.6811 153.374 25.6811C152.711 25.6811 152.058 25.8396 151.472 26.1429C150.877 26.473 150.395 26.9702 150.088 27.5715C149.721 28.2843 149.542 29.077 149.567 29.8762C149.54 30.6807 149.716 31.4791 150.078 32.2C150.376 32.8019 150.852 33.3002 151.443 33.6286C152.014 33.9435 152.659 34.1075 153.313 34.1048C153.977 34.0939 154.628 33.9204 155.208 33.6V33.6Z" fill="#2A292F"/>
<path d="M161.645 26.8191C162.084 25.9797 162.752 25.2786 163.574 24.7953C164.417 24.3103 165.379 24.0617 166.355 24.0762C167.22 24.07 168.072 24.2779 168.833 24.681C169.552 25.0468 170.157 25.5981 170.584 26.2762V20.3096H172.512V35.5477H170.584V33.4143C170.189 34.1051 169.612 34.6777 168.915 35.0715C168.13 35.515 167.236 35.7373 166.331 35.7143C165.359 35.726 164.402 35.468 163.57 34.9697C162.738 34.4714 162.065 33.7527 161.626 32.8953C161.141 31.9535 160.898 30.9087 160.917 29.8524C160.9 28.7972 161.151 27.7546 161.645 26.8191V26.8191ZM170.082 27.6524C169.757 27.0561 169.269 26.5613 168.674 26.2239C168.081 25.896 167.412 25.7239 166.731 25.7239C166.051 25.7239 165.382 25.896 164.788 26.2239C164.197 26.561 163.714 27.0561 163.395 27.6524C163.034 28.3384 162.855 29.1034 162.874 29.8762C162.855 30.6581 163.034 31.4324 163.395 32.1286C163.711 32.7347 164.194 33.2399 164.788 33.5858C165.373 33.9227 166.04 34.0971 166.717 34.0905C167.394 34.0947 168.059 33.9205 168.645 33.5858C169.245 33.242 169.734 32.7366 170.053 32.1286C170.413 31.4388 170.592 30.671 170.574 29.8953C170.605 29.1186 170.436 28.3469 170.082 27.6524V27.6524Z" fill="#2A292F"/>
</svg>
