<svg width="233" height="231" viewBox="0 0 233 231" fill="none" xmlns="http://www.w3.org/2000/svg">
<path d="M27.8516 216.603C29.1991 210.805 35.3812 200.082 37.2432 203.414C39.5707 207.579 38.6724 219.503 35.5282 220.197C32.3841 220.891 36.9574 203.496 40.8774 204.721C44.0134 205.701 42.1841 210.791 40.8774 213.214C41.3402 209.948 41.9347 205.374 48.3499 202.312" stroke="#5C51BB" stroke-width="0.98" stroke-linecap="round"/>
<path d="M147.33 46.7331C151.533 28.6437 170.819 -4.8091 176.627 5.58596C183.888 18.5798 181.085 55.7777 171.277 57.9434C161.469 60.109 175.735 5.84076 187.964 9.66243C197.747 12.7198 192.04 28.6011 187.964 36.1596C189.408 25.9684 191.263 11.7008 211.275 2.14648" stroke="#5C51BB" stroke-width="0.98" stroke-linecap="round"/>
<path d="M20.0303 117.83L23.0989 38.2964H118.129V114.577L20.0303 117.83Z" stroke="black" stroke-width="0.98"/>
<path d="M118.62 37.8065H22.627V53.7978H118.62V37.8065Z" fill="#5C51BB"/>
<path d="M30.1807 49.8867C32.4367 49.8867 34.2656 48.0578 34.2656 45.8018C34.2656 43.5457 32.4367 41.7168 30.1807 41.7168C27.9246 41.7168 26.0957 43.5457 26.0957 45.8018C26.0957 48.0578 27.9246 49.8867 30.1807 49.8867Z" fill="white"/>
<path d="M40.8018 49.8867C43.0578 49.8867 44.8867 48.0578 44.8867 45.8018C44.8867 43.5457 43.0578 41.7168 40.8018 41.7168C38.5457 41.7168 36.7168 43.5457 36.7168 45.8018C36.7168 48.0578 38.5457 49.8867 40.8018 49.8867Z" fill="white"/>
<path d="M51.4228 49.8867C53.6789 49.8867 55.5078 48.0578 55.5078 45.8018C55.5078 43.5457 53.6789 41.7168 51.4228 41.7168C49.1668 41.7168 47.3379 43.5457 47.3379 45.8018C47.3379 48.0578 49.1668 49.8867 51.4228 49.8867Z" fill="white"/>
<path d="M86.8967 106.312H10.5381V156.742" stroke="#5C51BB" stroke-width="0.98"/>
<path d="M84.2988 60.0884H173.78V124.074H92.1756L84.2988 60.0884Z" fill="#EEEDF8"/>
<path d="M91.6648 140.958L83.6934 76.9187H188.537L192.76 139.93L91.6648 140.958Z" stroke="black" stroke-width="0.98"/>
<path d="M97.8008 56.2612L179.364 53.1475L177.316 120.247" stroke="black" stroke-width="0.98"/>
<path d="M83.3154 76.4287H188.584L189.538 89.6753L84.9643 89.3617L83.3154 76.4287Z" fill="#5C51BB"/>
<path d="M93.7891 86.4361C95.6579 86.4361 97.1729 84.9211 97.1729 83.0523C97.1729 81.1834 95.6579 79.6685 93.7891 79.6685C91.9203 79.6685 90.4053 81.1834 90.4053 83.0523C90.4053 84.9211 91.9203 86.4361 93.7891 86.4361Z" fill="white"/>
<path d="M102.587 86.4361C104.456 86.4361 105.971 84.9211 105.971 83.0523C105.971 81.1834 104.456 79.6685 102.587 79.6685C100.718 79.6685 99.2031 81.1834 99.2031 83.0523C99.2031 84.9211 100.718 86.4361 102.587 86.4361Z" fill="white"/>
<path d="M111.384 86.4361C113.253 86.4361 114.768 84.9211 114.768 83.0523C114.768 81.1834 113.253 79.6685 111.384 79.6685C109.515 79.6685 108 81.1834 108 83.0523C108 84.9211 109.515 86.4361 111.384 86.4361Z" fill="white"/>
<path d="M197.146 85.7127C197.146 87.3934 196.765 90.6731 195.074 90.6731C193.382 90.6731 191.021 87.3934 191.021 85.7127C191.021 84.032 192.393 82.6698 194.084 82.6698C195.775 82.6698 197.146 84.032 197.146 85.7127Z" fill="#5C51BB"/>
<path d="M204.396 87.6836C204.396 88.9642 204.107 91.4623 202.827 91.4623C201.546 91.4623 199.759 88.9642 199.759 87.6836C199.759 86.4031 200.797 85.3651 202.077 85.3651C203.358 85.3651 204.396 86.4031 204.396 87.6836Z" fill="#5C51BB"/>
<path d="M84.2837 219.588C84.2837 221.371 83.8011 224.851 81.6581 224.851C79.516 224.851 76.5254 221.371 76.5254 219.588C76.5254 217.804 78.2616 216.358 80.4046 216.358C82.5467 216.358 84.2837 217.804 84.2837 219.588Z" fill="#9C96D6"/>
<path d="M197.946 95.7687C197.946 97.0492 197.657 99.5474 196.377 99.5474C195.096 99.5474 193.309 97.0492 193.309 95.7687C193.309 94.4882 194.347 93.4502 195.627 93.4502C196.908 93.4502 197.946 94.4882 197.946 95.7687Z" fill="#9C96D6"/>
<path d="M204.407 95.7687C204.407 97.0492 204.118 99.5474 202.838 99.5474C201.557 99.5474 199.77 97.0492 199.77 95.7687C199.77 94.4882 200.808 93.4502 202.088 93.4502C203.369 93.4502 204.407 94.4882 204.407 95.7687Z" fill="#9C96D6"/>
<path d="M210.859 95.7687C210.859 97.0492 210.57 99.5474 209.29 99.5474C208.009 99.5474 206.222 97.0492 206.222 95.7687C206.222 94.4882 207.26 93.4502 208.54 93.4502C209.821 93.4502 210.859 94.4882 210.859 95.7687Z" fill="#9C96D6"/>
<path d="M198.027 103.853C198.027 105.134 197.738 107.632 196.458 107.632C195.177 107.632 193.39 105.134 193.39 103.853C193.39 102.573 194.428 101.535 195.708 101.535C196.989 101.535 198.027 102.573 198.027 103.853Z" fill="#DEDCF1"/>
<path d="M72.033 221.606C72.033 224.504 71.3775 230.16 68.4683 230.16C65.5592 230.16 61.498 224.504 61.498 221.606C61.498 218.707 63.8564 216.358 66.7655 216.358C69.6747 216.358 72.033 218.707 72.033 221.606Z" fill="#5C51BB"/>
<path d="M214.541 106.224C214.541 108.813 213.956 113.866 211.363 113.866C208.77 113.866 205.149 108.813 205.149 106.224C205.149 103.634 207.252 101.535 209.845 101.535C212.438 101.535 214.541 103.634 214.541 106.224Z" fill="#DEDCF1"/>
<path d="M18.5229 18.4299C18.5229 19.7104 18.2343 22.2089 16.9538 22.2089C15.6733 22.2089 13.8857 19.7104 13.8857 18.4299C13.8857 17.1494 14.9238 16.1113 16.2043 16.1113C17.4848 16.1113 18.5229 17.1494 18.5229 18.4299Z" fill="#5C51BB"/>
<path d="M24.9857 18.4299C24.9857 19.7104 24.6972 22.2089 23.4167 22.2089C22.1362 22.2089 20.3486 19.7104 20.3486 18.4299C20.3486 17.1494 21.3867 16.1113 22.6672 16.1113C23.9477 16.1113 24.9857 17.1494 24.9857 18.4299Z" fill="#9C96D6"/>
<path d="M31.4359 18.4299C31.4359 19.7104 31.1474 22.2089 29.8669 22.2089C28.5863 22.2089 26.7988 19.7104 26.7988 18.4299C26.7988 17.1494 27.8369 16.1113 29.1173 16.1113C30.3979 16.1113 31.4359 17.1494 31.4359 18.4299Z" fill="#DEDCF1"/>
<path d="M172.729 31.0601L193.158 43.1322L184.933 46.2195L189.711 54.3075L178.561 51.9296L184.279 64.2679L158.27 51.3987L172.729 31.0601Z" stroke="black" stroke-width="0.98"/>
<path d="M202.07 61.219L201.304 48.8628L222.027 62.2866C217.895 68.135 208.302 80.7317 208.302 80.7317C208.302 80.7317 194.634 71.5798 188.464 66.5537L197.849 66.3258L193.506 61.7437L202.07 61.219Z" stroke="black" stroke-width="0.98"/>
<path d="M195.264 63.4234L220.994 62.2124L201.434 49.0232L202.047 61.1099L193.309 61.6815L195.264 63.4234Z" fill="#5C51BB"/>
<path d="M182.966 52.5928L172.535 31.3466L193.308 42.898L185.019 46.4505L189.061 54.0047L182.966 52.5928Z" fill="#5C51BB"/>
<path d="M78.1778 19.802L85.1742 23.2273L82.5625 24.4495L84.3347 26.9736L80.6238 26.4824L82.8124 30.3736L73.9688 26.8311L78.1778 19.802Z" stroke="black" stroke-width="0.98"/>
<path d="M88.5565 28.9175L87.9881 24.8931L95.1159 28.7531C93.9146 30.7737 91.0988 35.1437 91.0988 35.1437C91.0988 35.1437 86.3899 32.5001 84.2412 31.0139L87.307 30.6977L85.7676 29.3098L88.5565 28.9175Z" stroke="black" stroke-width="0.98"/>
<path d="M86.3864 29.8147L94.776 28.7559L88.0352 24.9427L88.5464 28.8829L85.7012 29.295L86.3864 29.8147Z" fill="black"/>
<path d="M82.0819 26.5866L78.1211 19.9012L85.2171 23.1472L82.5956 24.5233L84.113 26.8917L82.0819 26.5866Z" fill="black"/>
<path d="M50.944 121.158C56.1365 118.85 95.3474 107.687 114.408 102.047C114.408 102.047 132.39 94.3162 142.463 98.807C150.225 102.268 157.607 104.876 165.192 109.352C174.544 114.868 183.966 123.951 184.531 125.933C185.098 127.915 198.122 140.232 203.785 142.213C209.448 144.195 221.339 163.873 226.012 172.792C229.749 179.927 224.454 188.318 221.339 191.621C218.131 195.396 211.062 203.569 208.457 206.061C205.201 209.175 205.059 207.618 198.122 211.665C192.573 214.903 178.727 210.788 172.498 208.326C172.727 208.718 171.885 209.935 166.693 211.665C129.552 224.286 81.2338 209.141 79.7907 206.617C78.6368 204.598 72.8197 200.728 70.0552 199.045L72.2187 182.818L62.8434 185.703C55.6317 186.424 44.814 197.963 32.1934 195.799C19.5728 193.636 22.4575 195.439 17.0488 195.799C11.6399 196.16 7.6735 192.555 2.62528 188.588C-2.42297 184.622 0.822325 179.213 4.78879 161.904C8.75526 144.596 18.1305 140.99 30.0299 134.86C41.9293 128.73 44.4535 124.043 50.944 121.158Z" fill="#5C51BB"/>
<path d="M84.2502 208.83C87.1338 199.272 80.7557 171.379 106.201 169.407C131.645 167.437 136.663 190.537 135.991 202.334C135.693 205.843 141.451 212.073 141.783 216.372M169.395 152.68C166.021 151.081 154.584 145.476 145.288 152.055C135.991 158.633 143.523 172.592 138.388 174.839C133.253 177.085 122.664 179.492 121.22 182.38C119.776 185.268 125.867 201.836 124.899 216.359M145.288 100.228C144.351 102.061 141.982 104.561 148.657 119.964C157 139.219 145.288 154.783 145.288 159.917C145.288 165.051 141.597 176.01 170.318 169.407M71.868 185.136C79.5584 185.905 96.8448 189.665 101.002 176.443C105.161 163.222 108.191 158.526 109.185 157.831M66.6285 184.481C65.9484 181.812 61.9807 175.737 66.9868 163.928C71.9929 152.119 71.64 146.707 70.8377 145.476M71.213 183.046C70.5329 180.804 68.495 175.032 57.1992 176.443C43.0795 178.209 22.0602 161.201 35.6987 152.055M22.3691 138.764C23.8041 141.547 29.5331 146.071 26.2235 157.831C22.0865 172.531 5.22029 173.419 7.76617 180.294C10.312 187.169 16.6663 187.737 16.6663 190.919C16.6663 193.465 14.8167 194.89 14.721 195.703M51.2462 147.481C49.2617 145.923 46.4837 141.943 51.2462 138.48C57.1992 134.152 70.2497 130.061 72.3355 123.171C74.0043 117.659 78.7802 114.06 78.3579 112.547M84.8553 110.679C85.4139 112.381 90.6251 118.921 95.1756 116.538C100.864 113.558 101.581 107.647 103.613 107.24C105.238 106.915 106.351 105.684 105.974 104.505" stroke="#BDB8E4" stroke-width="2.04167"/>
<path d="M170.965 169.143C171.962 169.228 174.179 170.288 175.068 173.844" stroke="black" stroke-width="0.98" stroke-linecap="round"/>
<path d="M160.328 111.772C164.754 115.957 172.222 128.162 166.68 143.502C169.741 147.102 171.138 154.078 166.413 159.705" stroke="black" stroke-width="0.98" stroke-linecap="round"/>
<path d="M181.991 122.588C179.069 124.83 175.331 133.446 179.069 138.384C183.741 144.558 188.08 146.06 190.916 145.727C193.185 145.46 198.244 141.805 199.619 139.851M207.469 144.948C207.469 144.948 204.599 147.796 205.933 153.402C207.602 160.411 209.271 162.914 208.437 166.751C207.602 170.589 201.929 183.938 207.602 189.611C212.141 194.15 215.711 196.631 216.442 197.259M224.596 187.299C221.709 186.068 223.32 178.638 219.763 176.473C215.317 173.767 205.844 169.32 201.398 176.473C196.951 183.626 197.834 188.444 190.916 189.611C183.999 190.778 178.199 189.611 175.3 189.611C172.4 189.611 163.253 195.471 168.798 210.904" stroke="#BDB8E4" stroke-width="2.04167"/>
<path d="M88.8895 113.807C85.5836 115.861 78.4925 122.587 76.5766 133.06C74.0825 134.929 71.3753 139.162 71.9345 143.368" stroke="black" stroke-width="0.98" stroke-linecap="round"/>
<path d="M170.75 173.374C171.241 172.269 171.676 169.464 169.49 167.078C169.775 166.184 169.498 164.8 168.203 164.131" stroke="black" stroke-width="0.98" stroke-linecap="round"/>
<path d="M187.558 173.852C183.335 174.079 173.663 174.397 168.759 173.852C162.629 173.171 148.734 175.214 147.236 178.21C145.737 181.208 143.694 186.52 145.464 192.242C147.236 197.963 146.01 201.913 147.236 204.093C148.462 206.273 153.502 205.592 155.545 207.09C157.18 208.289 161.403 208.407 163.31 208.316" stroke="black" stroke-width="0.98" stroke-linecap="round"/>
<path d="M28.2236 152.786C31.642 152.469 40.416 151.077 48.1644 148.038C57.85 144.24 72.2834 143.29 75.7017 148.038C79.1203 152.786 85.5776 156.394 83.2983 171.967C82.235 176.981 77.7907 179.5 75.7017 180.133" stroke="black" stroke-width="0.98" stroke-linecap="round"/>
<path d="M111.421 104.931C113.532 105.818 120.34 108.193 125.083 108.091C130.406 107.976 133.848 107.147 137.749 104.202" stroke="black" stroke-width="0.98" stroke-linecap="round"/>
<path d="M119.654 109.271C119.654 109.271 121.923 109.958 124.374 109.975C127.124 109.994 128.879 109.608 128.879 109.608" stroke="black" stroke-width="0.98" stroke-linecap="round"/>
<path d="M89.4346 131.263L112.955 116.096L143.426 126.036L139.958 157.972L116.438 173.139L89.4346 131.263Z" fill="white"/>
<path d="M89.4346 131.263L112.955 116.096L143.426 126.036L139.958 157.972L116.438 173.139L89.4346 131.263Z" fill="white"/>
<path d="M86.9502 129.894L112.449 113.451L145.127 123.676L141.011 157.745L115.512 174.188L106.798 160.674L92.0944 137.873L86.9502 129.894Z" stroke="black" stroke-width="0.98"/>
<path d="M112.826 115.051L116.969 138.94L138.235 155.511" stroke="black" stroke-width="0.98" stroke-linecap="round"/>
<path d="M124.413 174.127L127.94 168.662M115.738 176.686L119.416 179.261L115.738 176.686ZM123.845 179.261H126.458H123.845Z" stroke="black" stroke-width="0.98" stroke-linecap="round"/>
<path d="M119.766 184.455C125.622 180.875 134.069 179.98 137.56 179.98C134.469 185.837 136.272 195.3 137.56 199.3C135.051 198.757 129.019 198.12 124.952 199.91C119.008 202.525 108.524 202.906 101.971 202.757C94.8133 202.595 95.8031 199.3 97.193 197.672C96.2775 197.775 94.142 197.368 92.9219 194.928C91.7018 192.487 95.2608 190.996 97.193 190.555C97.3555 188.603 99.7688 187.776 100.955 187.606C100.989 186.861 101.585 185.349 103.7 185.268C106.344 185.166 112.445 188.928 119.766 184.455Z" fill="#CDCAEA"/>
<path d="M91.7063 138.218L80.415 145.308C81.6694 146.358 84.2583 148.927 84.5841 150.798C84.9092 152.669 88.9223 163.034 90.888 167.983C99.6663 164.389 117.287 156.17 119.053 152.73C120.846 149.239 117.562 149.273 115.902 149.781L119.663 147.239C120.714 146.596 122.714 144.881 122.308 143.172C121.901 141.464 118.749 142.461 117.223 143.172C124.849 138.902 121.139 135.821 119.053 136.401C118.035 136.685 114.139 138.563 112.343 139.512C112.987 139.071 114.532 138.083 115.357 137.059C116.541 135.589 114.885 133.711 112.875 134.092C111.421 134.368 101.564 138.19 98.6161 139.512C96.2567 140.569 92.9942 139.099 91.7063 138.218Z" fill="#CDCAEA"/>
<path d="M111.88 139.663L101.389 144.386" stroke="black" stroke-width="0.98" stroke-linecap="round"/>
<path d="M116.051 143.957L105.561 148.681" stroke="black" stroke-width="0.98" stroke-linecap="round"/>
<path d="M115.069 150.787L104.579 155.511" stroke="black" stroke-width="0.98" stroke-linecap="round"/>
<path d="M123.042 192.498C119.901 193.174 112.851 194.321 109.771 193.511C105.922 192.498 105.617 189.155 108.353 187.94M106.023 187.94C103.389 187.332 98.0199 187.027 97.6148 190.675M105.516 191.687C102.477 190.708 95.832 189.702 93.5625 193.511M98.0542 197.462C100.228 198.046 105.094 199.374 107.173 200.016C109.771 200.818 115.853 201.183 119.647 200.599" stroke="black" stroke-width="0.98" stroke-linecap="round"/>
<path d="M74.8418 145.498C77.0958 144.154 82.5601 145.067 84.5364 151.205C87.0069 158.877 88.1045 160.546 89.2747 163.408C90.445 166.269 93.7403 170.19 86.5552 171.766" stroke="black" stroke-width="0.98" stroke-linecap="round"/>
<path d="M83.3146 148.736C82.404 148.393 80.2293 148.102 78.8115 149.697M84.7912 153.166C84.1264 153.215 82.6507 153.491 82.0594 154.199M84.3485 159.44C85.0615 159.195 86.5037 158.57 86.5625 158.038M84.7912 167.339C85.7507 166.528 88.039 165.272 88.7773 162.689" stroke="black" stroke-width="0.98" stroke-linecap="round"/>
<path d="M143.947 177.939C141.957 177.681 137.778 177.873 136.983 180.702C135.988 184.239 134.662 191.202 137.646 199.272C139.238 201.836 141.625 203.435 142.62 203.914" stroke="black" stroke-width="0.98" stroke-linecap="round"/>
<path d="M136.513 183.997C137.296 183.384 139.576 182.241 142.434 182.568M136.513 188.897L141.822 187.978M137.431 197.982C138.656 198.051 141.679 197.86 143.966 196.553M139.525 201.454C140.682 201.454 143.149 201.781 143.966 201.454M136.513 193.082C137.262 193.082 139.065 193.082 140.29 193.082H136.513Z" stroke="black" stroke-width="0.98" stroke-linecap="round"/>
<path d="M116.345 95.4533C118.437 99.4387 113.149 102.345 110.242 103.3C127.379 113.063 138.887 104.379 142.498 98.8164C142.083 98.6498 140.63 97.8944 138.14 96.2006C135.649 94.5068 135.607 90.5966 135.898 88.853L116.345 95.4533Z" fill="#CDCAEA"/>
<path d="M141.12 77.5064C141.12 88.2552 132.862 96.9698 122.674 96.9698C104.228 101.249 104.228 88.2552 104.228 77.5064C104.228 66.7572 112.486 58.0433 122.674 58.0433C132.862 58.0433 141.12 66.7572 141.12 77.5064Z" fill="#CDCAEA"/>
<path d="M111.509 89.8156L112.57 84.0581L115.674 88.7948L111.509 89.8156Z" fill="#5C51BB"/>
<path d="M112.529 84.2771L111.397 89.8819L115.511 88.7761" stroke="black" stroke-width="0.98" stroke-linecap="round"/>
<path d="M108.46 85.7917C109.202 85.7917 109.804 85.1903 109.804 84.4485C109.804 83.7066 109.202 83.1052 108.46 83.1052C107.719 83.1052 107.117 83.7066 107.117 84.4485C107.117 85.1903 107.719 85.7917 108.46 85.7917Z" fill="black"/>
<path d="M119.028 85.5467C119.77 85.5467 120.371 84.9453 120.371 84.2035C120.371 83.4616 119.77 82.8602 119.028 82.8602C118.286 82.8602 117.685 83.4616 117.685 84.2035C117.685 84.9453 118.286 85.5467 119.028 85.5467Z" fill="black"/>
<path d="M117.721 93.4412C118.193 93.4412 118.575 93.0592 118.575 92.588C118.575 92.1167 118.193 91.7347 117.721 91.7347C117.25 91.7347 116.868 92.1167 116.868 92.588C116.868 93.0592 117.25 93.4412 117.721 93.4412Z" stroke="black" stroke-width="0.98"/>
<path d="M118.456 78.5165C119.675 78.3883 121.278 78.728 122.159 79.5186" stroke="black" stroke-width="0.98" stroke-linecap="round"/>
<path d="M108.683 79.7206C107.46 79.7908 105.932 80.3853 105.191 81.3074" stroke="black" stroke-width="0.98" stroke-linecap="round"/>
<path d="M134.857 85.0192C136.895 85.9184 139.546 84.3835 140.778 81.5908C142.011 78.7981 141.358 75.8052 139.32 74.9059C137.283 74.0067 134.632 75.5416 133.399 78.3343C132.167 81.127 132.819 84.1199 134.857 85.0192Z" fill="#5C51BB"/>
<path d="M134.549 80.3172C135.098 79.1837 136.714 77.3963 137.882 76.9496" stroke="black" stroke-width="0.98" stroke-linecap="round"/>
<path d="M136.958 77.6885C137.455 78.1577 138.118 79.2846 138.159 79.9624" stroke="black" stroke-width="0.98" stroke-linecap="round"/>
<path d="M120.345 89.1789C121.109 89.1789 121.728 88.5596 121.728 87.7957C121.728 87.0318 121.109 86.4125 120.345 86.4125C119.581 86.4125 118.962 87.0318 118.962 87.7957C118.962 88.5596 119.581 89.1789 120.345 89.1789Z" fill="#5C51BB"/>
<path d="M108.854 90.2092C109.618 90.2092 110.237 89.5899 110.237 88.826C110.237 88.062 109.618 87.4427 108.854 87.4427C108.09 87.4427 107.471 88.062 107.471 88.826C107.471 89.5899 108.09 90.2092 108.854 90.2092Z" fill="#5C51BB"/>
<path d="M125.677 75.0791C115.475 79.1829 106.699 76.0834 105.005 71.5072C104.644 70.5315 107.804 63.6793 111.197 61.9006C120.064 54.4165 132.921 57.6096 138.25 64.1052C147.005 75.8007 140.412 87.1642 135.856 91.2859C135.856 91.2859 134.128 89.0196 134.454 85.0866C134.825 84.4855 135.11 85.4459 136.607 84.5484C141.259 81.7603 141.034 76.4257 138.546 75.6977C134.673 74.5643 132.841 78.906 132.841 82.3458C131.795 82.1727 131.293 79.8354 131.597 78.4348C132.142 75.9311 133.831 72.9262 133.291 71.9707C132.351 71.1992 130.617 73.092 125.677 75.0791Z" fill="black"/>
<path d="M127.793 37.5626C111.223 40.7524 123.717 63.1697 123.628 63.6127C134.048 59.785 137.657 49.4358 138.16 44.7396C138.012 41.8452 135.732 36.3575 127.793 37.5626Z" fill="black"/>
<path d="M124.193 22.7684V22.664C124.204 21.5562 124.32 20.6746 124.541 20.0191C124.761 19.3637 125.074 18.833 125.48 18.427C125.886 18.021 126.374 17.6469 126.942 17.3046C127.284 17.0958 127.592 16.8493 127.864 16.5651C128.137 16.2751 128.351 15.9416 128.508 15.5646C128.67 15.1876 128.752 14.77 128.752 14.3117C128.752 13.7433 128.618 13.2503 128.351 12.8327C128.085 12.4151 127.728 12.0932 127.281 11.867C126.835 11.6408 126.339 11.5277 125.794 11.5277C125.318 11.5277 124.86 11.6263 124.419 11.8235C123.978 12.0207 123.61 12.331 123.314 12.7544C123.018 13.1778 122.847 13.7317 122.801 14.4161H120.608C120.655 13.4301 120.91 12.5862 121.374 11.8844C121.844 11.1825 122.461 10.646 123.227 10.2748C123.998 9.9036 124.854 9.71799 125.794 9.71799C126.814 9.71799 127.702 9.921 128.456 10.327C129.216 10.733 129.802 11.2898 130.213 11.9975C130.631 12.7051 130.84 13.5113 130.84 14.4161C130.84 15.0542 130.741 15.6313 130.544 16.1475C130.353 16.6637 130.074 17.1248 129.709 17.5308C129.349 17.9369 128.914 18.2965 128.404 18.6097C127.893 18.9287 127.484 19.2651 127.177 19.6189C126.87 19.9669 126.646 20.3816 126.507 20.8631C126.368 21.3445 126.292 21.9448 126.281 22.664V22.7684H124.193ZM125.306 27.919C124.877 27.919 124.509 27.7653 124.201 27.4579C123.894 27.1505 123.74 26.7822 123.74 26.3529C123.74 25.9237 123.894 25.5554 124.201 25.248C124.509 24.9406 124.877 24.7869 125.306 24.7869C125.736 24.7869 126.104 24.9406 126.411 25.248C126.719 25.5554 126.872 25.9237 126.872 26.3529C126.872 26.6371 126.8 26.8982 126.655 27.136C126.516 27.3738 126.327 27.5652 126.089 27.7102C125.857 27.8494 125.596 27.919 125.306 27.919Z" fill="black"/>
<path d="M57.9436 17.9607L57.9073 17.9013C57.5287 17.2671 57.2882 16.7253 57.1857 16.2758C57.0831 15.8264 57.0768 15.4156 57.1665 15.0435C57.2563 14.6714 57.4034 14.2892 57.6077 13.8969C57.7298 13.6591 57.8189 13.412 57.8751 13.1556C57.9294 12.8958 57.9355 12.6315 57.8935 12.3626C57.8548 12.0917 57.7557 11.8259 57.5964 11.5652C57.3988 11.2419 57.1515 11.0079 56.8545 10.8631C56.5575 10.7183 56.2427 10.6593 55.91 10.6859C55.5773 10.7125 55.2559 10.8206 54.9458 11.0102C54.6752 11.1755 54.4489 11.3909 54.2667 11.6564C54.0845 11.9218 53.9829 12.2264 53.9619 12.5701C53.9409 12.9138 54.0361 13.2884 54.2477 13.6938L53.0006 14.4561C52.6842 13.8791 52.5359 13.3104 52.5558 12.7498C52.579 12.1873 52.7438 11.6673 53.0503 11.1899C53.36 10.7106 53.7821 10.3075 54.3166 9.98081C54.8972 9.62586 55.4726 9.43277 56.0426 9.40154C56.616 9.36829 57.1428 9.48133 57.6231 9.74064C58.1067 9.99794 58.5058 10.3839 58.8204 10.8986C59.0423 11.2615 59.1869 11.6241 59.2542 11.9863C59.3248 12.3465 59.3268 12.7055 59.2601 13.0635C59.1967 13.4195 59.0743 13.7753 58.8929 14.131C58.7135 14.4899 58.5978 14.8234 58.546 15.1316C58.4921 15.4364 58.5093 15.75 58.5975 16.0722C58.6857 16.3944 58.8516 16.7621 59.0951 17.1753L59.1314 17.2346L57.9436 17.9607ZM60.368 20.5032C60.1238 20.6524 59.8609 20.693 59.5791 20.6251C59.2974 20.5571 59.0819 20.401 58.9327 20.1569C58.7834 19.9127 58.7428 19.6498 58.8108 19.3681C58.8787 19.0863 59.0348 18.8708 59.2789 18.7216C59.5231 18.5723 59.786 18.5317 60.0678 18.5997C60.3495 18.6676 60.565 18.8237 60.7142 19.0678C60.8131 19.2295 60.8626 19.4032 60.8628 19.5889C60.8663 19.7725 60.8256 19.947 60.7408 20.1121C60.6572 20.272 60.5329 20.4023 60.368 20.5032Z" fill="black"/>
<path d="M43.1668 77.2982C43.4474 77.3347 43.7311 77.2582 43.9554 77.0855C44.1796 76.9129 44.3261 76.6582 44.3626 76.3775C44.3991 76.0968 44.3226 75.8132 44.1499 75.5889C43.9773 75.3646 43.7226 75.2182 43.4419 75.1817L41.5794 74.716C41.4436 74.6744 41.3008 74.6605 41.1595 74.6753C41.0183 74.69 40.8814 74.733 40.7571 74.8017C40.6328 74.8704 40.5237 74.9635 40.4361 75.0753C40.3485 75.1871 40.2843 75.3154 40.2474 75.4525C40.2104 75.5896 40.2015 75.7328 40.221 75.8735C40.2406 76.0142 40.2882 76.1495 40.3612 76.2713C40.4341 76.3932 40.5308 76.4991 40.6456 76.5828C40.7603 76.6665 40.8908 76.7263 41.0291 76.7585L42.8916 77.2559C42.9803 77.2855 43.0733 77.2998 43.1668 77.2982ZM47.2517 71.3825C47.3137 71.6134 47.452 71.8164 47.6442 71.9586C47.8364 72.1009 48.071 72.1738 48.3099 72.1656C48.4011 72.1802 48.494 72.1802 48.5851 72.1656C48.8537 72.0913 49.0821 71.9141 49.2208 71.6723C49.3595 71.4306 49.3973 71.1439 49.3259 70.8745L48.8285 69.012C48.7963 68.8737 48.7365 68.7432 48.6528 68.6285C48.5691 68.5138 48.4632 68.417 48.3413 68.3441C48.2195 68.2711 48.0842 68.2235 47.9435 68.2039C47.8028 68.1844 47.6596 68.1933 47.5225 68.2303C47.3854 68.2672 47.2571 68.3314 47.1453 68.419C47.0335 68.5066 46.9404 68.6158 46.8717 68.74C46.803 68.8643 46.76 69.0012 46.7453 69.1425C46.7305 69.2837 46.7444 69.4265 46.786 69.5623L47.2517 71.3825ZM52.3631 81.9651C52.2642 81.8611 52.1452 81.7782 52.0133 81.7216C51.8814 81.665 51.7394 81.6358 51.5958 81.6358C51.4523 81.6358 51.3103 81.665 51.1784 81.7216C51.0465 81.7782 50.9275 81.8611 50.8286 81.9651L47.1247 85.7326C46.6892 86.1504 46.109 86.3837 45.5055 86.3837C44.902 86.3837 44.3219 86.1504 43.8864 85.7326C43.672 85.5209 43.5018 85.2688 43.3856 84.9909C43.2695 84.7129 43.2096 84.4147 43.2096 84.1134C43.2096 83.8122 43.2695 83.5139 43.3856 83.236C43.5018 82.958 43.672 82.7059 43.8864 82.4943L47.6538 78.7903C47.7646 78.6955 47.8546 78.5787 47.9181 78.4474C47.9816 78.3161 48.0173 78.1731 48.0229 78.0274C48.0286 77.8817 48.004 77.7363 47.9508 77.6005C47.8976 77.4647 47.8169 77.3414 47.7138 77.2382C47.6106 77.1351 47.4873 77.0544 47.3515 77.0012C47.2157 76.948 47.0704 76.9234 46.9246 76.9291C46.7789 76.9347 46.6359 76.9704 46.5046 77.0339C46.3733 77.0974 46.2565 77.1874 46.1617 77.2982L42.3625 80.9915C41.9511 81.4029 41.6248 81.8913 41.4022 82.4287C41.1796 82.9662 41.065 83.5422 41.065 84.124C41.065 84.7057 41.1796 85.2818 41.4022 85.8193C41.6248 86.3567 41.9511 86.8451 42.3625 87.2565C42.7739 87.6678 43.2622 87.9941 43.7997 88.2168C44.3371 88.4394 44.9132 88.554 45.495 88.554C46.0767 88.554 46.6528 88.4394 47.1902 88.2168C47.7277 87.9941 48.2161 87.6678 48.6274 87.2565L52.3631 83.5208C52.4705 83.4217 52.5562 83.3014 52.6149 83.1675C52.6735 83.0337 52.7038 82.8891 52.7038 82.743C52.7038 82.5968 52.6735 82.4523 52.6149 82.3184C52.5562 82.1845 52.4705 82.0642 52.3631 81.9651ZM43.6112 73.0651C43.8084 73.2606 44.0744 73.3709 44.352 73.372C44.4913 73.3728 44.6294 73.3461 44.7583 73.2935C44.8872 73.2408 45.0045 73.1632 45.1034 73.0651C45.3005 72.8669 45.4111 72.5986 45.4111 72.3191C45.4111 72.0395 45.3005 71.7713 45.1034 71.573L43.7382 70.2078C43.5358 70.0345 43.2754 69.9439 43.009 69.9541C42.7427 69.9644 42.49 70.0748 42.3016 70.2633C42.1131 70.4518 42.0027 70.7044 41.9924 70.9708C41.9821 71.2371 42.0727 71.4975 42.2461 71.7L43.6112 73.0651ZM60.6281 80.8222L58.7656 80.3248C58.6276 80.2771 58.4812 80.2585 58.3356 80.2701C58.19 80.2818 58.0484 80.3234 57.9197 80.3924C57.791 80.4614 57.678 80.5563 57.5878 80.6712C57.4975 80.786 57.432 80.9183 57.3954 81.0596C57.3588 81.201 57.3518 81.3484 57.375 81.4926C57.3981 81.6368 57.4508 81.7747 57.5298 81.8975C57.6088 82.0203 57.7124 82.1255 57.834 82.2063C57.9556 82.2872 58.0926 82.342 58.2365 82.3673L60.099 82.8647H60.3741C60.6548 82.9012 60.9385 82.8246 61.1627 82.652C61.387 82.4793 61.5335 82.2246 61.57 81.944C61.6065 81.6633 61.53 81.3796 61.3573 81.1554C61.1846 80.9311 60.93 80.7846 60.6493 80.7481L60.6281 80.8222ZM54.4055 86.1982C54.3688 86.064 54.306 85.9384 54.2206 85.8286C54.1353 85.7187 54.0292 85.6267 53.9083 85.5579C53.7874 85.4891 53.6541 85.4448 53.5161 85.4276C53.3781 85.4103 53.238 85.4205 53.1039 85.4574C52.8353 85.5317 52.6068 85.709 52.4681 85.9507C52.3294 86.1924 52.2917 86.4791 52.3631 86.7485L52.8605 88.611C52.9225 88.8419 53.0608 89.045 53.253 89.1872C53.4452 89.3294 53.6798 89.4023 53.9187 89.3942C54.0102 89.4046 54.1025 89.4046 54.1939 89.3942C54.329 89.3585 54.4557 89.2965 54.5668 89.2117C54.6778 89.1269 54.7709 89.0209 54.8408 88.8999C54.9106 88.7789 54.9558 88.6452 54.9738 88.5066C54.9917 88.3681 54.982 88.2273 54.9453 88.0925L54.4055 86.1982ZM58.046 84.5367C57.8435 84.3633 57.5831 84.2728 57.3168 84.283C57.0504 84.2933 56.7978 84.4037 56.6093 84.5922C56.4208 84.7807 56.3104 85.0333 56.3001 85.2997C56.2898 85.566 56.3804 85.8264 56.5538 86.0289L57.919 87.394C58.1173 87.5911 58.3855 87.7018 58.665 87.7018C58.9446 87.7018 59.2128 87.5911 59.4111 87.394C59.6082 87.1958 59.7189 86.9275 59.7189 86.648C59.7189 86.3684 59.6082 86.1002 59.4111 85.9019L58.046 84.5367ZM60.5646 73.499C60.5811 72.619 60.3334 71.7543 59.8535 71.0164C59.3736 70.2786 58.6835 69.7016 57.8724 69.3598C57.0613 69.0181 56.1664 68.9273 55.3032 69.0992C54.44 69.2711 53.6481 69.6978 53.0298 70.3242L49.2941 74.0917C49.1941 74.1924 49.1148 74.3119 49.0609 74.4433C49.0071 74.5746 48.9796 74.7153 48.9801 74.8573C48.9806 74.9993 49.009 75.1399 49.0638 75.2709C49.1186 75.4019 49.1987 75.5208 49.2994 75.6208C49.4002 75.7209 49.5196 75.8001 49.651 75.854C49.7824 75.9079 49.9231 75.9354 50.0651 75.9349C50.2071 75.9344 50.3476 75.906 50.4786 75.8512C50.6096 75.7964 50.7285 75.7163 50.8286 75.6156L54.5325 71.8481C54.968 71.4303 55.5482 71.197 56.1517 71.197C56.7552 71.197 57.3353 71.4303 57.7708 71.8481C57.9852 72.0598 58.1554 72.3119 58.2716 72.5898C58.3878 72.8678 58.4476 73.166 58.4476 73.4673C58.4476 73.7685 58.3878 74.0668 58.2716 74.3447C58.1554 74.6227 57.9852 74.8748 57.7708 75.0864L54.0034 78.7903C53.8063 78.9886 53.6957 79.2568 53.6957 79.5364C53.6957 79.816 53.8063 80.0842 54.0034 80.2825C54.2017 80.4796 54.4699 80.5902 54.7495 80.5902C55.029 80.5902 55.2973 80.4796 55.4955 80.2825L59.2947 76.5892C60.1047 75.7641 60.5604 74.6552 60.5646 73.499Z" fill="#5C51BB"/>
<path d="M132.236 128.31C132.212 128.491 132.262 128.675 132.373 128.819C132.485 128.964 132.65 129.059 132.831 129.083C133.012 129.106 133.196 129.057 133.341 128.945C133.486 128.834 133.58 128.669 133.604 128.488L133.905 127.284C133.932 127.196 133.941 127.104 133.931 127.013C133.922 126.921 133.894 126.833 133.849 126.752C133.805 126.672 133.745 126.602 133.673 126.545C133.6 126.488 133.517 126.447 133.429 126.423C133.34 126.399 133.248 126.393 133.157 126.406C133.066 126.419 132.978 126.449 132.9 126.497C132.821 126.544 132.752 126.606 132.698 126.68C132.644 126.754 132.606 126.839 132.585 126.928L132.263 128.132C132.244 128.189 132.235 128.249 132.236 128.31ZM136.059 130.95C135.91 130.99 135.779 131.079 135.687 131.204C135.595 131.328 135.548 131.479 135.553 131.634C135.544 131.693 135.544 131.753 135.553 131.812C135.601 131.985 135.716 132.133 135.872 132.223C136.028 132.312 136.213 132.337 136.388 132.29L137.591 131.969C137.681 131.948 137.765 131.91 137.839 131.855C137.913 131.801 137.976 131.733 138.023 131.654C138.07 131.575 138.101 131.488 138.114 131.397C138.126 131.306 138.12 131.214 138.097 131.125C138.073 131.036 138.031 130.953 137.975 130.881C137.918 130.809 137.847 130.749 137.767 130.704C137.687 130.66 137.598 130.632 137.507 130.623C137.416 130.613 137.323 130.622 137.236 130.649L136.059 130.95ZM129.22 134.253C129.287 134.189 129.341 134.113 129.377 134.027C129.414 133.942 129.433 133.85 129.433 133.758C129.433 133.665 129.414 133.573 129.377 133.488C129.341 133.402 129.287 133.326 129.22 133.262L126.785 130.868C126.515 130.586 126.364 130.211 126.364 129.821C126.364 129.431 126.515 129.056 126.785 128.775C126.922 128.636 127.085 128.526 127.264 128.451C127.444 128.376 127.637 128.337 127.831 128.337C128.026 128.337 128.219 128.376 128.398 128.451C128.578 128.526 128.741 128.636 128.878 128.775L131.272 131.21C131.333 131.281 131.408 131.34 131.493 131.381C131.578 131.422 131.67 131.445 131.765 131.448C131.859 131.452 131.953 131.436 132.041 131.402C132.128 131.367 132.208 131.315 132.275 131.249C132.341 131.182 132.394 131.102 132.428 131.014C132.462 130.927 132.478 130.833 132.475 130.738C132.471 130.644 132.448 130.552 132.407 130.467C132.366 130.382 132.308 130.307 132.236 130.245L129.849 127.79C129.583 127.524 129.267 127.313 128.92 127.169C128.573 127.025 128.2 126.951 127.824 126.951C127.448 126.951 127.076 127.025 126.729 127.169C126.381 127.313 126.066 127.524 125.8 127.79C125.534 128.056 125.323 128.371 125.179 128.719C125.035 129.066 124.961 129.438 124.961 129.814C124.961 130.19 125.035 130.563 125.179 130.91C125.323 131.258 125.534 131.573 125.8 131.839L128.214 134.253C128.278 134.323 128.356 134.378 128.443 134.416C128.529 134.454 128.623 134.474 128.717 134.474C128.811 134.474 128.905 134.454 128.991 134.416C129.078 134.378 129.156 134.323 129.22 134.253ZM134.972 128.597C134.845 128.724 134.774 128.896 134.773 129.076C134.773 129.166 134.79 129.255 134.824 129.338C134.858 129.422 134.908 129.498 134.972 129.561C135.1 129.689 135.273 129.76 135.454 129.76C135.635 129.76 135.808 129.689 135.936 129.561L136.818 128.679C136.931 128.548 136.989 128.38 136.982 128.208C136.976 128.036 136.904 127.872 136.783 127.751C136.661 127.629 136.498 127.557 136.325 127.551C136.153 127.544 135.985 127.603 135.854 127.715L134.972 128.597ZM129.958 139.595L130.28 138.391C130.311 138.302 130.323 138.207 130.315 138.113C130.308 138.019 130.281 137.928 130.236 137.845C130.192 137.761 130.13 137.688 130.056 137.63C129.982 137.572 129.896 137.529 129.805 137.506C129.714 137.482 129.618 137.478 129.525 137.493C129.432 137.508 129.343 137.542 129.263 137.593C129.184 137.644 129.116 137.711 129.064 137.789C129.012 137.868 128.976 137.956 128.96 138.049L128.638 139.253L128.638 139.431C128.615 139.612 128.664 139.796 128.776 139.941C128.887 140.086 129.052 140.18 129.233 140.204C129.415 140.227 129.598 140.178 129.743 140.066C129.888 139.955 129.983 139.79 130.006 139.609L129.958 139.595ZM126.484 135.573C126.571 135.55 126.652 135.509 126.723 135.454C126.794 135.399 126.853 135.33 126.898 135.252C126.942 135.174 126.971 135.088 126.982 134.999C126.993 134.909 126.987 134.819 126.963 134.732C126.915 134.559 126.8 134.411 126.644 134.321C126.488 134.232 126.302 134.207 126.128 134.253L124.924 134.575C124.775 134.615 124.644 134.704 124.552 134.829C124.46 134.953 124.413 135.104 124.418 135.259C124.412 135.318 124.412 135.378 124.418 135.437C124.441 135.524 124.481 135.606 124.536 135.678C124.591 135.749 124.66 135.81 124.738 135.855C124.816 135.9 124.902 135.929 124.992 135.941C125.081 135.952 125.172 135.946 125.26 135.922L126.484 135.573ZM127.558 137.926C127.67 137.795 127.728 137.627 127.722 137.455C127.715 137.283 127.644 137.12 127.522 136.998C127.4 136.876 127.237 136.805 127.065 136.798C126.892 136.791 126.724 136.85 126.593 136.962L125.711 137.844C125.584 137.972 125.512 138.146 125.512 138.326C125.512 138.507 125.584 138.68 125.711 138.809C125.839 138.936 126.012 139.007 126.193 139.007C126.374 139.007 126.547 138.936 126.675 138.809L127.558 137.926ZM134.691 139.554C135.26 139.565 135.819 139.405 136.296 139.094C136.773 138.784 137.146 138.338 137.367 137.814C137.587 137.29 137.646 136.711 137.535 136.154C137.424 135.596 137.148 135.084 136.743 134.684L134.308 132.27C134.243 132.205 134.166 132.154 134.081 132.119C133.996 132.084 133.905 132.067 133.813 132.067C133.722 132.067 133.631 132.086 133.546 132.121C133.462 132.156 133.385 132.208 133.32 132.273C133.255 132.338 133.204 132.416 133.169 132.501C133.134 132.585 133.117 132.676 133.117 132.768C133.117 132.86 133.136 132.951 133.171 133.035C133.207 133.12 133.258 133.197 133.323 133.262L135.758 135.655C136.028 135.937 136.179 136.312 136.179 136.702C136.179 137.092 136.028 137.467 135.758 137.748C135.622 137.887 135.459 137.997 135.279 138.072C135.099 138.147 134.907 138.186 134.712 138.186C134.517 138.186 134.324 138.147 134.145 138.072C133.965 137.997 133.802 137.887 133.665 137.748L131.272 135.314C131.143 135.186 130.97 135.115 130.789 135.115C130.609 135.115 130.435 135.186 130.307 135.314C130.18 135.442 130.108 135.615 130.108 135.796C130.108 135.976 130.18 136.15 130.307 136.278L132.694 138.733C133.227 139.257 133.944 139.551 134.691 139.554Z" fill="#5C51BB"/>
<path d="M216.162 24.7936C216.117 25.1408 216.211 25.4918 216.425 25.7692C216.639 26.0466 216.954 26.2278 217.301 26.273C217.648 26.3181 217.999 26.2235 218.276 26.0099C218.554 25.7963 218.735 25.4812 218.78 25.134L219.356 22.8299C219.408 22.6619 219.425 22.4852 219.407 22.3105C219.388 22.1357 219.335 21.9664 219.25 21.8127C219.165 21.6589 219.05 21.5238 218.912 21.4155C218.774 21.3071 218.615 21.2277 218.445 21.182C218.275 21.1363 218.098 21.1252 217.924 21.1494C217.75 21.1736 217.583 21.2326 217.432 21.3228C217.281 21.4131 217.15 21.5327 217.047 21.6747C216.943 21.8166 216.869 21.978 216.83 22.1491L216.214 24.4532C216.178 24.5629 216.16 24.678 216.162 24.7936ZM223.48 29.847C223.195 29.9237 222.943 30.0949 222.767 30.3326C222.591 30.5704 222.501 30.8606 222.511 31.1562C222.493 31.2689 222.493 31.3838 222.511 31.4966C222.603 31.8289 222.823 32.1115 223.122 32.2831C223.421 32.4546 223.775 32.5013 224.109 32.413L226.413 31.7977C226.584 31.7578 226.745 31.6839 226.887 31.5804C227.029 31.4769 227.149 31.3458 227.239 31.195C227.329 31.0443 227.388 30.8769 227.412 30.7029C227.437 30.5288 227.425 30.3517 227.38 30.1821C227.334 30.0124 227.255 29.8537 227.146 29.7154C227.038 29.5771 226.903 29.462 226.749 29.377C226.595 29.2919 226.426 29.2387 226.251 29.2205C226.077 29.2023 225.9 29.2195 225.732 29.271L223.48 29.847ZM210.388 36.1703C210.517 36.048 210.62 35.9008 210.69 35.7376C210.76 35.5745 210.796 35.3988 210.796 35.2212C210.796 35.0436 210.76 34.8679 210.69 34.7047C210.62 34.5416 210.517 34.3943 210.388 34.272L205.728 29.6899C205.211 29.1512 204.922 28.4335 204.922 27.6869C204.922 26.9403 205.211 26.2226 205.728 25.6839C205.99 25.4186 206.301 25.2081 206.645 25.0644C206.989 24.9206 207.358 24.8466 207.731 24.8466C208.103 24.8466 208.472 24.9206 208.816 25.0644C209.16 25.2081 209.472 25.4186 209.734 25.6839L214.316 30.3445C214.433 30.4816 214.578 30.5929 214.74 30.6714C214.903 30.75 215.079 30.7942 215.26 30.8011C215.44 30.8081 215.62 30.7777 215.788 30.7119C215.956 30.6461 216.108 30.5463 216.236 30.4187C216.364 30.2911 216.463 30.1385 216.529 29.9705C216.595 29.8025 216.625 29.6227 216.618 29.4424C216.612 29.2621 216.567 29.0852 216.489 28.9228C216.41 28.7604 216.299 28.6159 216.162 28.4986L211.593 23.7986C211.084 23.2897 210.48 22.8861 209.815 22.6107C209.15 22.3353 208.437 22.1935 207.718 22.1935C206.998 22.1935 206.285 22.3353 205.62 22.6107C204.956 22.8861 204.351 23.2897 203.843 23.7986C203.334 24.3075 202.93 24.9117 202.655 25.5766C202.379 26.2415 202.237 26.9541 202.237 27.6738C202.237 28.3935 202.379 29.1061 202.655 29.771C202.93 30.4359 203.334 31.0401 203.843 31.549L208.464 36.1703C208.587 36.3032 208.735 36.4093 208.901 36.4818C209.067 36.5544 209.245 36.5918 209.426 36.5918C209.607 36.5918 209.786 36.5544 209.951 36.4818C210.117 36.4093 210.266 36.3032 210.388 36.1703ZM221.399 25.3435C221.157 25.5873 221.02 25.9164 221.019 26.2599C221.018 26.4322 221.051 26.603 221.116 26.7625C221.181 26.922 221.277 27.0671 221.399 27.1894C221.644 27.4332 221.976 27.5701 222.322 27.5701C222.667 27.5701 222.999 27.4332 223.244 27.1894L224.933 25.5006C225.148 25.2501 225.26 24.928 225.247 24.5985C225.234 24.269 225.098 23.9564 224.865 23.7233C224.632 23.4901 224.319 23.3535 223.989 23.3408C223.66 23.3281 223.338 23.4402 223.087 23.6546L221.399 25.3435ZM211.802 46.395L212.418 44.0908C212.477 43.9201 212.5 43.739 212.485 43.5589C212.471 43.3788 212.419 43.2036 212.334 43.0444C212.249 42.8852 212.131 42.7454 211.989 42.6338C211.847 42.5221 211.683 42.4411 211.509 42.3958C211.334 42.3505 211.151 42.3419 210.973 42.3705C210.795 42.3991 210.624 42.4643 210.472 42.5621C210.32 42.6598 210.19 42.7879 210.09 42.9383C209.99 43.0888 209.922 43.2583 209.891 43.4362L209.276 45.7404L209.276 46.0808C209.23 46.428 209.325 46.7789 209.539 47.0564C209.752 47.3338 210.067 47.515 210.415 47.5601C210.762 47.6053 211.113 47.5106 211.39 47.297C211.668 47.0834 211.849 46.7684 211.894 46.4212L211.802 46.395ZM205.152 38.697C205.318 38.6516 205.473 38.5739 205.609 38.4683C205.745 38.3628 205.859 38.2314 205.944 38.0819C206.029 37.9323 206.084 37.7675 206.105 37.5967C206.126 37.4259 206.114 37.2527 206.068 37.0868C205.976 36.7545 205.757 36.4719 205.458 36.3003C205.159 36.1287 204.804 36.082 204.471 36.1703L202.167 36.7856C201.881 36.8624 201.63 37.0335 201.454 37.2712C201.278 37.509 201.188 37.7993 201.198 38.0948C201.185 38.2079 201.185 38.3221 201.198 38.4352C201.242 38.6024 201.319 38.7591 201.424 38.8965C201.529 39.0338 201.66 39.1491 201.809 39.2355C201.959 39.3219 202.125 39.3778 202.296 39.4C202.467 39.4222 202.642 39.4102 202.808 39.3647L205.152 38.697ZM207.207 43.2006C207.422 42.9502 207.534 42.628 207.521 42.2985C207.508 41.969 207.372 41.6565 207.138 41.4233C206.905 41.1902 206.593 41.0536 206.263 41.0408C205.934 41.0281 205.612 41.1402 205.361 41.3547L203.672 43.0435C203.429 43.2888 203.292 43.6206 203.292 43.9665C203.292 44.3123 203.429 44.6441 203.672 44.8894C203.918 45.1333 204.249 45.2701 204.595 45.2701C204.941 45.2701 205.273 45.1333 205.518 44.8894L207.207 43.2006ZM220.862 46.3164C221.95 46.3368 223.02 46.0303 223.933 45.4366C224.846 44.843 225.56 43.9893 225.982 42.9859C226.405 41.9825 226.517 40.8754 226.305 39.8075C226.092 38.7396 225.564 37.76 224.789 36.9951L220.129 32.3737C220.004 32.2499 219.856 32.1519 219.694 32.0853C219.531 32.0186 219.357 31.9846 219.181 31.9852C219.006 31.9858 218.832 32.021 218.67 32.0888C218.508 32.1566 218.361 32.2556 218.237 32.3803C218.113 32.5049 218.015 32.6527 217.948 32.8153C217.882 32.9778 217.848 33.1518 217.848 33.3275C217.849 33.5032 217.884 33.677 217.952 33.8391C218.02 34.0011 218.119 34.1482 218.243 34.272L222.904 38.8541C223.421 39.3929 223.71 40.1106 223.71 40.8572C223.71 41.6038 223.421 42.3215 222.904 42.8602C222.642 43.1254 222.33 43.336 221.987 43.4797C221.643 43.6234 221.274 43.6974 220.901 43.6974C220.528 43.6974 220.159 43.6234 219.816 43.4797C219.472 43.336 219.16 43.1254 218.898 42.8602L214.316 38.1996C214.071 37.9557 213.739 37.8189 213.393 37.8189C213.047 37.8189 212.715 37.9557 212.47 38.1996C212.226 38.4448 212.089 38.7767 212.089 39.1225C212.089 39.4684 212.226 39.8002 212.47 40.0455L217.039 44.7454C218.06 45.7475 219.431 46.3112 220.862 46.3164Z" fill="#5C51BB"/>
<path d="M107.921 10.4018C107.725 10.4018 107.536 10.48 107.397 10.6191C107.258 10.7582 107.179 10.9469 107.179 11.1436V11.4329L106.082 10.335C105.891 10.1428 105.663 9.99028 105.413 9.88619C105.163 9.78209 104.895 9.7285 104.624 9.7285C104.353 9.7285 104.085 9.78209 103.835 9.88619C103.584 9.99028 103.357 10.1428 103.166 10.335L102.647 10.8543L100.807 9.00721C100.413 8.63472 99.8918 8.42717 99.3497 8.42717C98.8075 8.42717 98.286 8.63472 97.892 9.00721L96.7942 10.1051V5.95097C96.7942 5.75423 96.8723 5.56555 97.0114 5.42644C97.1505 5.28732 97.3392 5.20917 97.536 5.20917H103.47C103.667 5.20917 103.856 5.13101 103.995 4.9919C104.134 4.85278 104.212 4.6641 104.212 4.46736C104.212 4.27062 104.134 4.08194 103.995 3.94282C103.856 3.80371 103.667 3.72555 103.47 3.72555H97.536C96.9457 3.72555 96.3797 3.96002 95.9624 4.37736C95.545 4.79471 95.3105 5.36075 95.3105 5.95097V14.8526C95.3105 15.4429 95.545 16.0089 95.9624 16.4262C96.3797 16.8436 96.9457 17.0781 97.536 17.0781H106.438C107.028 17.0781 107.594 16.8436 108.011 16.4262C108.429 16.0089 108.663 15.4429 108.663 14.8526V11.1436C108.663 10.9469 108.585 10.7582 108.446 10.6191C108.307 10.48 108.118 10.4018 107.921 10.4018ZM97.536 15.5944C97.3392 15.5944 97.1505 15.5163 97.0114 15.3772C96.8723 15.2381 96.7942 15.0494 96.7942 14.8526V12.2044L98.9454 10.0532C99.0544 9.9493 99.1991 9.89137 99.3497 9.89137C99.5002 9.89137 99.645 9.9493 99.754 10.0532L102.105 12.4047L105.288 15.5944H97.536ZM107.179 14.8526C107.173 14.9937 107.127 15.1301 107.046 15.2458L103.7 11.8854L104.22 11.3662C104.328 11.2583 104.475 11.1978 104.628 11.1978C104.781 11.1978 104.927 11.2583 105.036 11.3662L107.179 13.5322V14.8526ZM107.921 2.24194C107.53 2.24169 107.146 2.3444 106.808 2.53974C106.469 2.73507 106.188 3.01614 105.993 3.35465C105.943 3.43932 105.912 3.53285 105.899 3.62986C105.886 3.72687 105.893 3.82545 105.918 3.91991C105.944 4.01437 105.988 4.10285 106.048 4.18026C106.107 4.25766 106.182 4.32246 106.267 4.37093C106.437 4.46764 106.639 4.49306 106.828 4.44164C107.017 4.39022 107.178 4.26613 107.276 4.09646C107.357 3.95355 107.483 3.84157 107.634 3.77806C107.786 3.71455 107.954 3.70312 108.113 3.74554C108.272 3.78797 108.412 3.88186 108.511 4.01249C108.611 4.14313 108.664 4.30311 108.663 4.46736C108.663 4.6641 108.585 4.85278 108.446 4.9919C108.307 5.13101 108.118 5.20917 107.921 5.20917C107.725 5.20917 107.536 5.28732 107.397 5.42644C107.258 5.56555 107.179 5.75423 107.179 5.95097C107.179 6.14771 107.258 6.33639 107.397 6.47551C107.536 6.61462 107.725 6.69278 107.921 6.69278C108.511 6.69278 109.078 6.45831 109.495 6.04097C109.912 5.62362 110.147 5.05758 110.147 4.46736C110.147 3.87714 109.912 3.3111 109.495 2.89375C109.078 2.47641 108.511 2.24194 107.921 2.24194ZM108.203 7.49393C108.069 7.43166 107.919 7.411 107.773 7.43458L107.639 7.47909L107.506 7.54585L107.395 7.64229C107.325 7.71248 107.27 7.79589 107.233 7.88761C107.196 7.97934 107.178 8.07752 107.179 8.17639C107.179 8.27401 107.198 8.37079 107.234 8.46117C107.271 8.55155 107.326 8.63376 107.395 8.70307C107.464 8.7726 107.546 8.82778 107.636 8.86544C107.726 8.9031 107.823 8.92249 107.921 8.92249C108.019 8.92249 108.116 8.9031 108.207 8.86544C108.297 8.82778 108.379 8.7726 108.448 8.70307C108.517 8.63376 108.571 8.55155 108.608 8.46117C108.645 8.37079 108.664 8.27401 108.663 8.17639C108.662 8.02994 108.618 7.88698 108.536 7.76553C108.455 7.64408 108.339 7.54958 108.203 7.49393Z" fill="#5C51BB"/>
<g clip-path="url(#clip0_3505_20462)">
<path d="M217.871 134.048C217.676 134.023 217.479 134.076 217.323 134.196C217.168 134.317 217.066 134.494 217.041 134.689L217.004 134.976L216.055 133.747C215.89 133.532 215.684 133.352 215.45 133.217C215.215 133.082 214.955 132.994 214.687 132.96C214.418 132.925 214.145 132.944 213.884 133.015C213.622 133.087 213.378 133.209 213.164 133.376L212.582 133.824L210.993 131.758C210.65 131.338 210.159 131.066 209.621 130.997C209.084 130.928 208.54 131.067 208.102 131.386L206.873 132.335L207.402 128.215C207.427 128.02 207.529 127.843 207.685 127.723C207.84 127.602 208.037 127.549 208.232 127.574L214.119 128.33C214.314 128.355 214.511 128.302 214.666 128.182C214.822 128.061 214.924 127.884 214.949 127.689C214.974 127.494 214.92 127.297 214.8 127.141C214.68 126.985 214.503 126.884 214.308 126.859L208.422 126.102C207.836 126.027 207.245 126.188 206.778 126.548C206.311 126.909 206.006 127.441 205.931 128.026L204.796 136.855C204.721 137.441 204.881 138.032 205.242 138.499C205.603 138.966 206.135 139.271 206.72 139.346L215.549 140.48C216.134 140.556 216.726 140.395 217.193 140.034C217.66 139.674 217.965 139.142 218.04 138.557L218.513 134.878C218.538 134.683 218.484 134.486 218.364 134.33C218.244 134.174 218.066 134.073 217.871 134.048ZM206.909 137.875C206.714 137.849 206.537 137.748 206.416 137.592C206.296 137.436 206.243 137.239 206.268 137.044L206.605 134.418L209.013 132.558C209.134 132.469 209.285 132.43 209.435 132.449C209.584 132.468 209.72 132.544 209.815 132.661L211.848 135.293L214.598 138.862L206.909 137.875ZM216.568 138.368C216.544 138.507 216.481 138.636 216.386 138.741L213.496 134.981L214.077 134.532C214.198 134.439 214.351 134.398 214.503 134.417C214.655 134.437 214.793 134.516 214.886 134.636L216.737 137.058L216.568 138.368ZM218.911 125.954C218.524 125.904 218.13 125.957 217.769 126.108C217.408 126.258 217.093 126.501 216.856 126.812C216.797 126.89 216.754 126.979 216.729 127.073C216.704 127.168 216.697 127.266 216.711 127.363C216.724 127.46 216.756 127.554 216.806 127.638C216.855 127.722 216.921 127.796 216.999 127.855C217.156 127.973 217.353 128.024 217.547 127.997C217.741 127.97 217.916 127.867 218.035 127.712C218.133 127.58 218.273 127.485 218.431 127.441C218.589 127.398 218.758 127.408 218.91 127.47C219.062 127.532 219.189 127.643 219.271 127.786C219.353 127.928 219.385 128.093 219.363 128.256C219.338 128.451 219.237 128.628 219.081 128.749C218.925 128.869 218.728 128.922 218.533 128.897C218.338 128.872 218.141 128.926 217.985 129.046C217.829 129.166 217.728 129.343 217.703 129.539C217.678 129.734 217.731 129.931 217.851 130.087C217.972 130.242 218.149 130.344 218.344 130.369C218.929 130.444 219.521 130.284 219.988 129.923C220.455 129.562 220.76 129.031 220.835 128.445C220.91 127.86 220.75 127.269 220.389 126.801C220.028 126.334 219.497 126.03 218.911 125.954ZM218.521 131.199C218.396 131.121 218.25 131.081 218.102 131.086L217.964 131.113L217.823 131.162L217.701 131.244C217.623 131.304 217.557 131.38 217.509 131.466C217.461 131.553 217.43 131.648 217.419 131.746C217.406 131.843 217.412 131.941 217.437 132.035C217.463 132.13 217.506 132.218 217.565 132.296C217.625 132.373 217.699 132.439 217.784 132.487C217.869 132.536 217.963 132.568 218.06 132.58C218.157 132.593 218.256 132.586 218.35 132.56C218.445 132.534 218.533 132.49 218.61 132.43C218.687 132.37 218.752 132.295 218.8 132.21C218.848 132.125 218.879 132.032 218.891 131.935C218.909 131.79 218.883 131.642 218.817 131.511C218.752 131.38 218.649 131.272 218.521 131.199Z" fill="#5C51BB"/>
</g>
<g clip-path="url(#clip1_3505_20462)">
<path d="M66.5629 202.085C66.3824 202.163 66.2404 202.31 66.1682 202.493C66.096 202.676 66.0994 202.88 66.1777 203.061L66.2929 203.326L64.8487 202.756C64.597 202.656 64.3279 202.606 64.057 202.61C63.7861 202.614 63.5186 202.672 63.2701 202.78C63.0215 202.888 62.7967 203.044 62.6087 203.239C62.4206 203.434 62.273 203.664 62.1744 203.916L61.9048 204.6L59.4818 203.637C58.9722 203.453 58.4111 203.47 57.9137 203.686C57.4164 203.902 57.0206 204.3 56.8075 204.798L56.2374 206.242L54.5837 202.432C54.5053 202.251 54.5019 202.047 54.5741 201.864C54.6464 201.681 54.7884 201.534 54.9688 201.456L60.4127 199.093C60.5932 199.015 60.7352 198.868 60.8074 198.685C60.8796 198.502 60.8762 198.298 60.7979 198.117C60.7196 197.937 60.5728 197.795 60.3898 197.723C60.2068 197.65 60.0026 197.654 59.8221 197.732L54.3782 200.095C53.8368 200.33 53.4109 200.77 53.1942 201.319C52.9775 201.868 52.9877 202.481 53.2227 203.022L56.7665 211.188C57.0015 211.729 57.4419 212.155 57.9909 212.372C58.5399 212.589 59.1525 212.579 59.6939 212.344L67.8598 208.8C68.4012 208.565 68.8271 208.124 69.0438 207.575C69.2605 207.026 69.2502 206.414 69.0153 205.872L67.5387 202.47C67.4604 202.289 67.3135 202.147 67.1305 202.075C66.9475 202.003 66.7433 202.006 66.5629 202.085ZM59.1033 210.983C58.9228 211.061 58.7186 211.064 58.5356 210.992C58.3526 210.92 58.2058 210.778 58.1275 210.597L57.0732 208.168L58.1902 205.338C58.2488 205.2 58.3585 205.089 58.4966 205.029C58.6347 204.969 58.7906 204.964 58.9319 205.016L62.0252 206.237L66.2144 207.896L59.1033 210.983ZM67.6543 206.463C67.7048 206.595 67.7166 206.738 67.6883 206.877L63.2815 205.126L63.5512 204.443C63.6077 204.301 63.7182 204.187 63.8584 204.126C63.9987 204.065 64.1573 204.062 64.2997 204.118L67.1286 205.252L67.6543 206.463ZM63.3144 194.599C62.9557 194.755 62.6443 195.002 62.4115 195.316C62.1786 195.63 62.0326 196 61.9881 196.388C61.9768 196.485 61.9848 196.584 62.0118 196.678C62.0387 196.772 62.084 196.86 62.145 196.936C62.206 197.012 62.2815 197.076 62.3673 197.123C62.453 197.171 62.5472 197.2 62.6444 197.211C62.8392 197.232 63.0343 197.175 63.1872 197.052C63.3401 196.93 63.4384 196.752 63.4606 196.557C63.478 196.394 63.5491 196.241 63.6628 196.123C63.7765 196.004 63.9263 195.927 64.0888 195.902C64.2512 195.878 64.4171 195.908 64.5605 195.989C64.7038 196.069 64.8165 196.194 64.8808 196.345C64.9591 196.526 64.9626 196.73 64.8903 196.913C64.8181 197.096 64.6761 197.243 64.4956 197.321C64.3152 197.4 64.1732 197.546 64.101 197.729C64.0287 197.912 64.0322 198.117 64.1105 198.297C64.1888 198.478 64.3356 198.62 64.5186 198.692C64.7016 198.764 64.9058 198.761 65.0863 198.682C65.6277 198.447 66.0536 198.007 66.2703 197.458C66.487 196.909 66.4768 196.296 66.2418 195.755C66.0068 195.213 65.5664 194.788 65.0174 194.571C64.4684 194.354 63.8558 194.364 63.3144 194.599ZM65.6638 199.305C65.5158 199.301 65.3702 199.342 65.2455 199.422L65.1407 199.516L65.0448 199.63L64.9811 199.763C64.9452 199.855 64.928 199.953 64.9307 200.052C64.9333 200.151 64.9556 200.248 64.9964 200.339C65.0348 200.428 65.0905 200.51 65.1603 200.578C65.2302 200.646 65.3128 200.7 65.4034 200.736C65.4944 200.772 65.5916 200.79 65.6895 200.789C65.7875 200.787 65.8841 200.767 65.9739 200.728C66.0638 200.689 66.145 200.632 66.2129 200.562C66.2809 200.491 66.3342 200.408 66.3697 200.317C66.4052 200.226 66.4224 200.129 66.4203 200.031C66.4182 199.933 66.3968 199.837 66.3574 199.748C66.2984 199.614 66.2011 199.5 66.0777 199.421C65.9542 199.343 65.8102 199.302 65.6638 199.305Z" fill="#5C51BB"/>
</g>
<path d="M231.192 89.389L229.32 87.4876C229.251 87.4174 229.168 87.3617 229.076 87.3237C228.985 87.2857 228.887 87.2661 228.789 87.2661C228.69 87.2661 228.592 87.2857 228.501 87.3237C228.409 87.3617 228.327 87.4174 228.257 87.4876L226.168 89.6136L224.08 87.4876C224.01 87.4174 223.927 87.3617 223.836 87.3237C223.745 87.2857 223.647 87.2661 223.548 87.2661C223.449 87.2661 223.352 87.2857 223.26 87.3237C223.169 87.3617 223.086 87.4174 223.017 87.4876L221.302 89.2393L219.588 87.4876C219.519 87.4174 219.436 87.3617 219.345 87.3237C219.253 87.2857 219.155 87.2661 219.057 87.2661C218.958 87.2661 218.86 87.2857 218.769 87.3237C218.678 87.3617 218.595 87.4174 218.525 87.4876L216.654 89.3591C216.585 89.4303 216.532 89.5143 216.496 89.6061C216.458 89.6961 216.438 89.7928 216.437 89.8906V92.7279C216.437 93.3235 216.673 93.8947 217.094 94.3159C217.515 94.7371 218.087 94.9737 218.682 94.9737H229.163C229.759 94.9737 230.33 94.7371 230.751 94.3159C231.172 93.8947 231.409 93.3235 231.409 92.7279V89.9206C231.408 89.8227 231.387 89.7261 231.349 89.6361C231.313 89.5442 231.26 89.4602 231.192 89.389ZM229.912 92.7279C229.912 92.9264 229.833 93.1168 229.692 93.2572C229.552 93.3976 229.361 93.4765 229.163 93.4765H218.682C218.484 93.4765 218.293 93.3976 218.153 93.2572C218.013 93.1168 217.934 92.9264 217.934 92.7279V90.2275L219.057 89.1046L220.771 90.8264C220.841 90.8965 220.923 90.9522 221.015 90.9902C221.106 91.0283 221.204 91.0478 221.302 91.0478C221.401 91.0478 221.499 91.0283 221.59 90.9902C221.682 90.9522 221.764 90.8965 221.834 90.8264L223.548 89.1046L225.637 91.2306C225.707 91.3008 225.789 91.3565 225.881 91.3945C225.972 91.4325 226.07 91.4521 226.168 91.4521C226.267 91.4521 226.365 91.4325 226.456 91.3945C226.548 91.3565 226.63 91.3008 226.7 91.2306L228.789 89.1345L229.912 90.2574V92.7279ZM229.163 80.0015H218.682C218.087 80.0015 217.515 80.2381 217.094 80.6593C216.673 81.0804 216.437 81.6517 216.437 82.2473V86.185C216.429 86.2521 216.429 86.32 216.437 86.3871C216.437 86.3871 216.437 86.4395 216.437 86.462C216.483 86.579 216.559 86.6824 216.657 86.7624C216.754 86.8424 216.87 86.8965 216.994 86.9196C217.118 86.9428 217.246 86.9342 217.366 86.8948C217.485 86.8554 217.593 86.7863 217.679 86.694L219.057 85.3615L220.771 87.0833C220.841 87.1535 220.923 87.2092 221.015 87.2472C221.106 87.2852 221.204 87.3048 221.302 87.3048C221.401 87.3048 221.499 87.2852 221.59 87.2472C221.682 87.2092 221.764 87.1535 221.834 87.0833L223.548 85.3615L225.637 87.4876C225.707 87.5577 225.789 87.6134 225.881 87.6514C225.972 87.6894 226.07 87.709 226.168 87.709C226.267 87.709 226.365 87.6894 226.456 87.6514C226.548 87.6134 226.63 87.5577 226.7 87.4876L228.789 85.3915L230.114 86.724C230.2 86.8163 230.307 86.8853 230.427 86.9247C230.547 86.9642 230.675 86.9727 230.799 86.9496C230.923 86.9264 231.039 86.8723 231.136 86.7923C231.234 86.7123 231.309 86.609 231.356 86.4919C231.36 86.4696 231.36 86.4469 231.356 86.4245C231.383 86.3576 231.398 86.2868 231.401 86.2149V82.2473C231.401 81.653 231.166 81.0829 230.746 80.6619C230.327 80.2409 229.757 80.0034 229.163 80.0015ZM229.912 84.3734L229.32 83.7445C229.251 83.6744 229.168 83.6187 229.076 83.5807C228.985 83.5426 228.887 83.5231 228.789 83.5231C228.69 83.5231 228.592 83.5426 228.501 83.5807C228.409 83.6187 228.327 83.6744 228.257 83.7445L226.168 85.8706L224.08 83.7445C224.01 83.6744 223.927 83.6187 223.836 83.5807C223.745 83.5426 223.647 83.5231 223.548 83.5231C223.449 83.5231 223.352 83.5426 223.26 83.5807C223.169 83.6187 223.086 83.6744 223.017 83.7445L221.302 85.4963L219.588 83.7445C219.519 83.6744 219.436 83.6187 219.345 83.5807C219.253 83.5426 219.155 83.5231 219.057 83.5231C218.958 83.5231 218.86 83.5426 218.769 83.5807C218.678 83.6187 218.595 83.6744 218.525 83.7445L217.934 84.3734V82.2473C217.934 82.0488 218.013 81.8583 218.153 81.718C218.293 81.5776 218.484 81.4987 218.682 81.4987H229.163C229.361 81.4987 229.552 81.5776 229.692 81.718C229.833 81.8583 229.912 82.0488 229.912 82.2473V84.3734Z" fill="#5C51BB"/>
<defs>
<clipPath id="clip0_3505_20462">
<rect width="17.8033" height="17.8033" fill="white" transform="translate(205.121 122.686) rotate(7.32148)"/>
</clipPath>
<clipPath id="clip1_3505_20462">
<rect width="17.8033" height="17.8033" fill="white" transform="translate(49.7949 198.85) rotate(-23.4599)"/>
</clipPath>
</defs>
</svg>
