<svg width="222" height="219" viewBox="0 0 222 219" fill="none" xmlns="http://www.w3.org/2000/svg">
<path d="M121.546 57.7861H58.7822V131.509H118.041" stroke="#5C51BB" stroke-width="0.98694"/>
<path d="M16.8952 142.794C16.8952 144.48 16.5128 147.771 14.8159 147.771C13.1189 147.771 10.75 144.48 10.75 142.794C10.75 141.108 12.1256 139.741 13.8226 139.741C15.5196 139.741 16.8952 141.108 16.8952 142.794Z" fill="#5C51BB"/>
<path d="M24.17 144.772C24.17 146.057 23.8805 148.563 22.5958 148.563C21.311 148.563 19.5176 146.057 19.5176 144.772C19.5176 143.487 20.5591 142.446 21.8438 142.446C23.1285 142.446 24.17 143.487 24.17 144.772Z" fill="#5C51BB"/>
<path d="M17.6974 152.883C17.6974 154.168 17.4079 156.674 16.1231 156.674C14.8383 156.674 13.0449 154.168 13.0449 152.883C13.0449 151.599 14.0864 150.557 15.3711 150.557C16.6559 150.557 17.6974 151.599 17.6974 152.883Z" fill="#9C96D6"/>
<path d="M24.1808 152.883C24.1808 154.168 23.8913 156.674 22.6065 156.674C21.3217 156.674 19.5283 154.168 19.5283 152.883C19.5283 151.599 20.5698 150.557 21.8545 150.557C23.1393 150.557 24.1808 151.599 24.1808 152.883Z" fill="#9C96D6"/>
<path d="M30.6534 152.883C30.6534 154.168 30.3639 156.674 29.0792 156.674C27.7944 156.674 26.001 154.168 26.001 152.883C26.001 151.599 27.0425 150.557 28.3271 150.557C29.6119 150.557 30.6534 151.599 30.6534 152.883Z" fill="#9C96D6"/>
<path d="M17.7784 160.995C17.7784 162.28 17.4889 164.786 16.2042 164.786C14.9194 164.786 13.126 162.28 13.126 160.995C13.126 159.71 14.1675 158.669 15.4522 158.669C16.7369 158.669 17.7784 159.71 17.7784 160.995Z" fill="#DEDCF1"/>
<path d="M105.324 106.384L108.403 26.5874H203.747V103.119L105.324 106.384Z" stroke="black" stroke-width="0.98694"/>
<path d="M198.467 75.4629H160.858" stroke="black" stroke-width="0.65796" stroke-linecap="round"/>
<path d="M180.277 52.3975H142.668" stroke="black" stroke-width="0.65796" stroke-linecap="round"/>
<path d="M198.468 70.792H183.965" stroke="black" stroke-width="0.65796" stroke-linecap="round"/>
<path d="M41.3945 100.821H79.0036" stroke="black" stroke-width="0.65796" stroke-linecap="round"/>
<path d="M41.3945 96.1514H55.8973" stroke="black" stroke-width="0.65796" stroke-linecap="round"/>
<path d="M204.239 26.0962H107.93V42.1403H204.239V26.0962Z" fill="#363071"/>
<path d="M115.51 38.2164C117.773 38.2164 119.608 36.3815 119.608 34.118C119.608 31.8545 117.773 30.0195 115.51 30.0195C113.246 30.0195 111.411 31.8545 111.411 34.118C111.411 36.3815 113.246 38.2164 115.51 38.2164Z" fill="#6B61C2"/>
<path d="M126.165 38.2164C128.428 38.2164 130.263 36.3815 130.263 34.118C130.263 31.8545 128.428 30.0195 126.165 30.0195C123.901 30.0195 122.066 31.8545 122.066 34.118C122.066 36.3815 123.901 38.2164 126.165 38.2164Z" fill="#9C96D6"/>
<path d="M136.821 38.2164C139.085 38.2164 140.92 36.3815 140.92 34.118C140.92 31.8545 139.085 30.0195 136.821 30.0195C134.558 30.0195 132.723 31.8545 132.723 34.118C132.723 36.3815 134.558 38.2164 136.821 38.2164Z" fill="#DEDCF1"/>
<path d="M34.1836 123.363L36.6899 82.8784H115.071V121.692L34.1836 123.363Z" stroke="black" stroke-width="0.98694"/>
<path d="M115.563 82.3857H36.2285V90.6224H115.563V82.3857Z" fill="#363071"/>
<path d="M41.3948 88.6128C42.6619 88.6128 43.689 87.6774 43.689 86.5235C43.689 85.3695 42.6619 84.4341 41.3948 84.4341C40.1277 84.4341 39.1006 85.3695 39.1006 86.5235C39.1006 87.6774 40.1277 88.6128 41.3948 88.6128Z" fill="#6B61C2"/>
<path d="M47.4172 88.6128C48.7069 88.6128 49.7524 87.6774 49.7524 86.5235C49.7524 85.3695 48.7069 84.4341 47.4172 84.4341C46.1275 84.4341 45.082 85.3695 45.082 86.5235C45.082 87.6774 46.1275 88.6128 47.4172 88.6128Z" fill="#9C96D6"/>
<path d="M53.4388 88.6128C54.7058 88.6128 55.733 87.6774 55.733 86.5235C55.733 85.3695 54.7058 84.4341 53.4388 84.4341C52.1717 84.4341 51.1445 85.3695 51.1445 86.5235C51.1445 87.6774 52.1717 88.6128 53.4388 88.6128Z" fill="#DEDCF1"/>
<path d="M211.823 193.164H148.731V110.654" stroke="#5C51BB" stroke-width="0.98694"/>
<path d="M221 16.4519C216.394 29.7719 195.266 54.4047 188.902 46.7503C180.948 37.1824 184.018 9.79204 194.764 8.19739C205.509 6.60274 189.88 46.5628 176.482 43.7486C165.765 41.4974 172.017 29.8033 176.482 24.2377C174.901 31.7419 172.869 42.2477 150.944 49.283" stroke="#5C51BB" stroke-width="0.98694" stroke-linecap="round"/>
<path d="M60.2401 173.118C57.8432 183.944 46.8466 203.964 43.5344 197.744C39.3944 189.967 40.9924 167.706 46.5851 166.409C52.1778 165.113 44.0429 197.591 37.0701 195.303C31.4919 193.474 34.7459 183.97 37.0701 179.446C36.247 185.546 35.1895 194.084 23.7783 199.802" stroke="#5C51BB" stroke-width="0.98694" stroke-linecap="round"/>
<path d="M93.6698 160.963C112.359 160.963 127.51 145.812 127.51 127.123C127.51 108.434 112.359 93.2832 93.6698 93.2832C74.9807 93.2832 59.8301 108.434 59.8301 127.123C59.8301 145.812 74.9807 160.963 93.6698 160.963Z" fill="#DEDCF1"/>
<path d="M91.7041 129.746C96.3651 129.746 100.144 125.967 100.144 121.306C100.144 116.645 96.3651 112.867 91.7041 112.867C87.0431 112.867 83.2646 116.645 83.2646 121.306C83.2646 125.967 87.0431 129.746 91.7041 129.746Z" fill="#484096"/>
<path d="M91.0898 126.099C91.5675 126.195 92.6466 126.263 93.1383 125.771" stroke="white" stroke-width="0.65796" stroke-linecap="round"/>
<path d="M93.6699 117.112C94.1476 117.017 95.2267 116.949 95.7183 117.44" stroke="white" stroke-width="0.65796" stroke-linecap="round"/>
<path d="M88.2623 117.112C87.7838 117.017 86.7055 116.949 86.2139 117.44" stroke="white" stroke-width="0.65796" stroke-linecap="round"/>
<path d="M91.1707 121.264L89.3271 123.804H91.1707" stroke="white" stroke-width="0.65796" stroke-linecap="round"/>
<path d="M62.5527 139.782C66.7703 150.916 77.5342 160.348 90.1467 160.348C102.759 160.348 113.522 150.916 117.74 139.782C113.418 136.3 101.847 129.335 90.1467 129.335C78.4462 129.335 66.8751 136.3 62.5527 139.782Z" fill="#484096"/>
<path d="M74.9473 154.982L77.4054 152.647L76.7499 155.842" stroke="white" stroke-width="0.65796" stroke-linecap="round"/>
<path d="M94.3254 121.306C94.6874 121.306 94.9809 121.013 94.9809 120.651C94.9809 120.289 94.6874 119.995 94.3254 119.995C93.9634 119.995 93.6699 120.289 93.6699 120.651C93.6699 121.013 93.9634 121.306 94.3254 121.306Z" fill="white"/>
<path d="M87.6067 121.224C87.9687 121.224 88.2622 120.93 88.2622 120.568C88.2622 120.206 87.9687 119.913 87.6067 119.913C87.2446 119.913 86.9512 120.206 86.9512 120.568C86.9512 120.93 87.2446 121.224 87.6067 121.224Z" fill="white"/>
<path d="M93.0256 8.00568L74.3496 1.20605L70.9621 10.5103L89.6381 17.3099L93.0256 8.00568Z" stroke="#5C51BB" stroke-width="0.65796"/>
<path d="M81.4205 10.1989L74.292 1.51367L92.9325 8.15053L81.4205 10.1989Z" fill="#5C51BB"/>
<path d="M20.8185 48.3683L1.1582 51.2842L2.61085 61.0787L22.2711 58.1629L20.8185 48.3683Z" stroke="#5C51BB" stroke-width="0.65796"/>
<path d="M11.6589 55.8253L1 51.3726L20.8696 48.4639L11.6589 55.8253Z" fill="#5C51BB"/>
<path d="M23.343 4.07162L12.6367 1L11.1451 6.19922L21.8514 9.27083L23.343 4.07162Z" stroke="#5C51BB" stroke-width="0.65796"/>
<path d="M16.9528 5.69935L13.3721 1.55664L22.508 4.09667L16.9528 5.69935Z" stroke="#5C51BB" stroke-width="0.65796"/>
<path d="M216.353 145.261L190.19 137.755L186.419 150.902L212.581 158.408L216.353 145.261Z" stroke="black" stroke-width="0.65796"/>
<path d="M200.697 149.412L190.929 138.185L215.428 145.436L200.697 149.412Z" stroke="black" stroke-width="0.65796"/>
<path d="M93.7938 199.842L107.068 175.998L93.4251 166.78L86.2557 178.251C86.1049 179.576 86.3458 185.511 86.7063 190.46C87.0668 195.409 91.4447 198.722 93.7938 199.842Z" fill="#D47E19"/>
<path d="M197.232 202.294L186.785 174.565L171.024 179.328L175.034 190.214C175.966 191.167 180.155 193.615 184.825 199.596C188.535 204.349 194.881 203.409 197.232 202.294Z" fill="#D47E19"/>
<path d="M92.0731 156.088L117.146 100.084L158.278 94.7173L186.177 165.592H187.898C189.168 165.592 191.339 165.592 191.339 167.026C191.339 168.46 192.937 171.41 193.347 174.196C193.756 176.981 193.06 177.965 191.339 178.374C189.619 178.784 170.978 184.684 169.503 184.806C168.028 184.929 166.594 184.356 166.39 183.209C166.185 182.062 164.669 179.112 164.136 177.965C163.71 177.047 164.313 175.998 164.669 175.589L165.693 174.196L138.982 125.648L115.507 165.592C117.105 165.592 117.146 170.017 115.507 171.41C113.868 172.803 114.114 176.736 112.27 178.374C110.796 179.685 109.17 178.921 108.542 178.374C100.799 174.496 85.1331 166.51 84.4121 165.592C83.5108 164.445 86.9521 157.931 89.0415 156.088C90.713 154.613 91.7585 155.473 92.0731 156.088Z" fill="black"/>
<g clip-path="url(#clip0_2552_15906)">
<path fill-rule="evenodd" clip-rule="evenodd" d="M189.29 116.067H199.253C199.913 116.067 200.547 116.329 201.014 116.796C201.481 117.263 201.744 117.897 201.744 118.558V128.52C201.744 129.181 201.481 129.814 201.014 130.281C200.547 130.748 199.913 131.011 199.253 131.011H189.29C188.63 131.011 187.996 130.748 187.529 130.281C187.062 129.814 186.8 129.181 186.8 128.52V118.558C186.8 117.897 187.062 117.263 187.529 116.796C187.996 116.329 188.63 116.067 189.29 116.067ZM199.253 117.727H189.29C189.07 117.727 188.859 117.815 188.703 117.97C188.548 118.126 188.46 118.337 188.46 118.558V128.271L194.504 123.232C194.916 122.893 195.432 122.708 195.965 122.708C196.498 122.708 197.015 122.893 197.426 123.232L200.083 125.498V118.558C200.083 118.337 199.996 118.126 199.84 117.97C199.684 117.815 199.473 117.727 199.253 117.727ZM192.196 120.633C192.196 121.32 191.638 121.878 190.95 121.878C190.262 121.878 189.705 121.32 189.705 120.633C189.705 119.945 190.262 119.387 190.95 119.387C191.638 119.387 192.196 119.945 192.196 120.633Z" fill="#5B4DBE"/>
</g>
<path d="M95.0635 158.833C97.0709 160.293 101.93 163.437 105.306 164.322C108.681 165.207 112.065 165.729 113.335 165.879" stroke="white" stroke-width="0.65796" stroke-linecap="round"/>
<path d="M181.22 165.182L167.496 127.573M111.779 162.519L127.224 134.005L111.779 162.519ZM105.306 160.553L111.779 148.754L105.306 160.553ZM98.71 156.743L109.239 129.663L98.71 156.743ZM167.496 169.934L155.41 147.197L167.496 169.934ZM175.075 168.378L169.298 152.687L175.075 168.378Z" stroke="white" stroke-width="0.65796" stroke-linecap="round"/>
<path d="M167.823 173.847C170.29 173.559 175.991 172.574 179.073 170.935C182.154 169.296 184.995 167.384 186.03 166.633" stroke="white" stroke-width="0.65796" stroke-linecap="round"/>
<path d="M68.3129 43.5306C66.8929 40.5541 66.0194 41.8241 65.7499 42.8711C65.3887 44.2741 65.2617 47.285 65.1514 48.98L67.0412 52.4375L52.8584 60.0166L62.9179 72.9888C67.5853 72.9888 73.1946 67.2679 74.2754 63.0689C74.2238 63.2683 72.5105 60.4652 71.8894 59.4797C71.1134 58.2477 69.7328 46.507 68.3129 43.5306Z" fill="#D57E19"/>
<path d="M118.743 51.1684C121.496 50.5785 132.044 53.5446 136.974 54.9784C138.708 54.9784 143.627 54.6917 149.92 55.511C157.786 56.5352 164.423 62.8853 166.062 64.2373C167.7 65.5892 173.19 73.578 177.492 75.7903C184.62 78.9039 191.175 87.9579 195.764 92.2595C200.352 96.5612 197.853 105.492 195.764 107.705C193.674 109.917 181.67 114.382 176.304 116.185C170.937 117.988 169.175 121.962 165.201 121.224C161.227 120.487 154.058 111.433 153.157 109.794C152.255 108.155 152.706 99.7158 156.27 100.576C159.122 101.264 162.893 99.497 164.423 98.5277C162.981 98.5277 160.462 92.6832 159.384 89.7605C159.929 92.1776 160.58 97.0119 158.81 97.0119C156.549 96.8808 137.793 100.685 127.306 101.928C124.438 102.379 115.703 101.658 114.851 100.576C113.999 99.4945 114.496 88.6543 114.851 83.3694C114.36 85.254 112.311 89.6704 108.051 92.2595C102.725 95.496 101.045 100.576 96.7433 101.928C92.4416 103.28 90.5161 100.576 87.5664 98.5277C84.6167 96.4793 76.9966 95.0864 74.3336 90.334C71.6707 85.5817 63.6407 76.1181 62.7804 73.578C61.92 71.038 71.8346 58.0101 73.3094 60.673C74.4893 62.8034 86.4734 68.9896 92.3187 71.8164C95.1865 71.9532 101.807 70.6283 105.347 64.2373C109.771 56.2485 115.302 51.9058 118.743 51.1684Z" fill="#5C51BB"/>
<path d="M135.294 55.9204C136.099 57.1631 138.694 59.2962 142.627 57.8869" stroke="black" stroke-width="0.65796" stroke-linecap="round"/>
<path d="M136.441 58.3789C136.864 58.6794 138.015 59.2802 139.227 59.2802" stroke="black" stroke-width="0.65796" stroke-linecap="round"/>
<path d="M156.188 61.452C157.13 64.2515 159.416 66.3026 158.892 72.4315C158.368 78.5603 158.892 81.0758 158.892 85.1726M124.028 52.8486C121.57 54.4601 116.703 59.6658 116.9 67.5972C116.216 68.5258 114.982 70.7927 115.507 72.4315L124.028 52.8486ZM114.851 82.2638C113.991 80.9938 115.408 77.4787 115.507 76.2005L114.851 82.2638Z" stroke="black" stroke-width="0.65796" stroke-linecap="round"/>
<path d="M165.037 98.2C166.061 97.0669 169.003 94.4719 172.575 93.161C177.041 91.5222 179.499 91.8909 180.072 91.3174" stroke="black" stroke-width="0.65796" stroke-linecap="round"/>
<path d="M91.4165 73.2085C90.7881 73.3724 89.319 74.4621 88.4668 77.5102C87.6147 80.5582 86.4455 82.9589 85.9678 83.7783" stroke="black" stroke-width="0.65796" stroke-linecap="round"/>
<path d="M91.8354 74.9482C91.6158 75.0982 91.1897 75.8831 91.2471 77.825C91.3044 79.7669 91.1594 81.336 91.0791 81.8768" stroke="black" stroke-width="0.65796" stroke-linecap="round"/>
<path d="M183.39 90.2613C183.288 90.0155 182.604 89.4403 180.691 89.1043C178.777 88.7684 177.271 88.3087 176.757 88.1211" stroke="black" stroke-width="0.65796" stroke-linecap="round"/>
<path d="M121.161 93.2837L126.159 95.3731" stroke="#EEEDF8" stroke-width="0.65796" stroke-linecap="round"/>
<path d="M149.835 64.5576L152.627 69.2001" stroke="#EEEDF8" stroke-width="0.65796" stroke-linecap="round"/>
<path d="M182.006 105.656L184.797 110.298" stroke="#EEEDF8" stroke-width="0.65796" stroke-linecap="round"/>
<path d="M176.862 94.6201L181.91 96.5866" stroke="#EEEDF8" stroke-width="0.65796" stroke-linecap="round"/>
<path d="M164.437 90.424L169.374 88.1953" stroke="#EEEDF8" stroke-width="0.65796" stroke-linecap="round"/>
<path d="M162.698 71.9819L168.054 72.7964" stroke="#EEEDF8" stroke-width="0.65796" stroke-linecap="round"/>
<path d="M174.828 76.896L172.808 81.922" stroke="#EEEDF8" stroke-width="0.65796" stroke-linecap="round"/>
<path d="M99.9385 91.7271L97.918 96.753" stroke="#EEEDF8" stroke-width="0.65796" stroke-linecap="round"/>
<path d="M105.43 81.5747L108.649 85.9313" stroke="#EEEDF8" stroke-width="0.65796" stroke-linecap="round"/>
<path d="M103.451 72.4316L99.7393 76.3777" stroke="#EEEDF8" stroke-width="0.65796" stroke-linecap="round"/>
<path d="M80.5029 83.1196L76.792 87.0649" stroke="#EEEDF8" stroke-width="0.65796" stroke-linecap="round"/>
<path d="M83.2974 71.6951L77.9297 70.9585" stroke="#EEEDF8" stroke-width="0.65796" stroke-linecap="round"/>
<path d="M111.678 61.1646L111.537 66.58" stroke="#EEEDF8" stroke-width="0.65796" stroke-linecap="round"/>
<path d="M68.4153 70.2588L68.2744 75.674" stroke="#EEEDF8" stroke-width="0.65796" stroke-linecap="round"/>
<path d="M166.887 109.877L170.747 106.077" stroke="#EEEDF8" stroke-width="0.65796" stroke-linecap="round"/>
<path d="M127.511 86.2563L131.371 82.4561" stroke="#EEEDF8" stroke-width="0.65796" stroke-linecap="round"/>
<path d="M141.357 95.352L145.217 91.5518" stroke="#EEEDF8" stroke-width="0.65796" stroke-linecap="round"/>
<path d="M119.335 69.833L124.142 72.3313" stroke="#EEEDF8" stroke-width="0.65796" stroke-linecap="round"/>
<path d="M149.644 80.665L154.451 83.1633" stroke="#EEEDF8" stroke-width="0.65796" stroke-linecap="round"/>
<path d="M137.681 69.1948L142.488 71.6931" stroke="#EEEDF8" stroke-width="0.65796" stroke-linecap="round"/>
<path d="M129.192 55.7764L129.509 61.1844" stroke="#EEEDF8" stroke-width="0.65796" stroke-linecap="round"/>
<path d="M131.197 44.0393C132.645 44.0393 133.819 42.8654 133.819 41.4174C133.819 39.9693 132.645 38.7954 131.197 38.7954C129.749 38.7954 128.575 39.9693 128.575 41.4174C128.575 42.8654 129.749 44.0393 131.197 44.0393Z" fill="black"/>
<path d="M131.197 48.8733C132.645 48.8733 133.819 47.6994 133.819 46.2514C133.819 44.8033 132.645 43.6294 131.197 43.6294C129.749 43.6294 128.575 44.8033 128.575 46.2514C128.575 47.6994 129.749 48.8733 131.197 48.8733Z" fill="black"/>
<path d="M128.575 46.2517C130.023 46.2517 131.197 45.0779 131.197 43.6298C131.197 42.1817 130.023 41.0078 128.575 41.0078C127.127 41.0078 125.953 42.1817 125.953 43.6298C125.953 45.0779 127.127 46.2517 128.575 46.2517Z" fill="black"/>
<path d="M151.764 43.2608C151.764 49.302 146.866 54.1993 140.825 54.1993C130.665 55.1825 129.887 49.302 129.887 43.2608C129.887 37.2196 134.784 32.3223 140.825 32.3223C146.866 32.3223 151.764 37.2196 151.764 43.2608Z" fill="#3D98E7"/>
<path d="M140.825 32.3223C136.503 32.3223 132.766 34.8288 130.989 38.4675L151.659 41.745C150.921 36.4212 146.352 32.3223 140.825 32.3223Z" fill="#F07CF2"/>
<path d="M151.231 41.6639L122.84 37.731" stroke="black" stroke-width="0.98694" stroke-linecap="round"/>
<path d="M146.027 55.1427L145.823 51.9062L135.703 51.4556L135.13 54.4872C137.752 59.895 144.962 57.1092 146.027 55.1427Z" fill="#3D98E7"/>
<path d="M151.108 46.2527C152.647 46.2527 153.894 44.9871 153.894 43.4259C153.894 41.8647 152.647 40.5991 151.108 40.5991C149.57 40.5991 148.322 41.8647 148.322 43.4259C148.322 44.9871 149.57 46.2527 151.108 46.2527Z" fill="black"/>
<path d="M153.935 46.2515C154.727 46.2515 155.369 45.5912 155.369 44.7766C155.369 43.9621 154.727 43.3018 153.935 43.3018C153.143 43.3018 152.501 43.9621 152.501 44.7766C152.501 45.5912 153.143 46.2515 153.935 46.2515Z" fill="black"/>
<path d="M155.041 47.2769C155.041 49.1097 153.566 50.8559 151.722 51.1279C149.223 51.4967 147.093 48.9868 147.093 47.154C147.093 45.3213 149.889 43.9585 151.722 43.9585C153.554 43.9585 155.041 45.4442 155.041 47.2769Z" fill="black"/>
<path d="M131.177 41.6518C132.702 41.8524 134.104 40.7602 134.308 39.2124L128.784 38.4858C128.58 40.0337 129.651 41.4511 131.177 41.6518Z" fill="black"/>
<path d="M134.758 41.2744C135.548 41.3331 136.237 40.7222 136.297 39.91L133.437 39.6973C133.376 40.5096 133.968 41.2156 134.758 41.2744Z" fill="black"/>
<path d="M147.937 47.8097C149.037 48.1712 150.285 47.3814 150.724 46.0456C151.163 44.7098 150.627 43.3339 149.527 42.9724C148.427 42.6109 147.179 43.4007 146.74 44.7365C146.301 46.0723 146.837 47.4482 147.937 47.8097Z" fill="#0E76D0"/>
<path d="M147.298 45.3924C147.667 44.7779 148.691 44.0405 149.633 44.2043" stroke="black" stroke-width="0.65796" stroke-linecap="round"/>
<path d="M149.031 44.2969C149.143 44.468 149.376 45.0313 149.412 45.4151" stroke="black" stroke-width="0.65796" stroke-linecap="round"/>
<path d="M135.95 48.0553L138.295 44.5898L138.97 48.5808L135.95 48.0553Z" fill="#0E76D0"/>
<path d="M138.047 44.8389L135.927 47.8536L138.768 48.2934" stroke="black" stroke-width="0.65796" stroke-linecap="round"/>
<path d="M137.629 50.3902C137.998 50.4038 138.923 50.341 139.677 49.9805" stroke="black" stroke-width="0.65796" stroke-linecap="round"/>
<path d="M140.62 41.7468C140.989 41.7331 141.915 41.796 142.669 42.1565" stroke="black" stroke-width="0.65796" stroke-linecap="round"/>
<path d="M134.802 41.9109C134.434 41.8972 133.508 41.96 132.754 42.3206" stroke="black" stroke-width="0.65796" stroke-linecap="round"/>
<path d="M138.243 53.8722C139.144 54.0361 140.742 54.159 141.971 53.1348" stroke="black" stroke-width="0.65796" stroke-linecap="round"/>
<path d="M134.434 45.0223C134.818 45.0223 135.13 44.7105 135.13 44.3259C135.13 43.9412 134.818 43.6294 134.434 43.6294C134.049 43.6294 133.737 43.9412 133.737 44.3259C133.737 44.7105 134.049 45.0223 134.434 45.0223Z" fill="black"/>
<path d="M141.317 45.0223C141.701 45.0223 142.013 44.7105 142.013 44.3259C142.013 43.9412 141.701 43.6294 141.317 43.6294C140.932 43.6294 140.62 43.9412 140.62 44.3259C140.62 44.7105 140.932 45.0223 141.317 45.0223Z" fill="black"/>
<path d="M142.253 48.9455C143.019 48.9455 143.641 48.3242 143.641 47.5577C143.641 46.7913 143.019 46.1699 142.253 46.1699C141.487 46.1699 140.865 46.7913 140.865 47.5577C140.865 48.3242 141.487 48.9455 142.253 48.9455Z" fill="#0E76D0"/>
<path d="M133.321 48.2087C134.088 48.2087 134.709 47.5874 134.709 46.8209C134.709 46.0544 134.088 45.4331 133.321 45.4331C132.555 45.4331 131.934 46.0544 131.934 46.8209C131.934 47.5874 132.555 48.2087 133.321 48.2087Z" fill="#0E76D0"/>
<path d="M87.6481 193.041C89.0247 196.941 92.3185 199.037 93.7934 199.596L90.6388 205.168C89.6417 207.64 87.05 212.526 84.6575 212.296L51.7188 175.794C52.0055 173.09 60.2811 168.378 62.4115 168.378C64.5418 168.378 68.5569 172.516 70.8102 174.196C72.6128 175.54 78.4164 178.197 81.0932 179.358C81.339 176.353 82.1666 170.402 83.5103 170.632C85.19 170.918 86.6649 179.931 86.6649 181.038C86.6649 182.144 85.9275 188.166 87.6481 193.041Z" stroke="black" stroke-width="0.98694"/>
<path d="M55.6104 171.738C55.7333 173.213 56.356 176.507 57.8636 177.884C61.9633 181.626 67.4914 191.465 72.4895 192.796C75.4802 193.451 79.2493 202.301 81.3796 203.857C83.51 205.414 86.7874 207.831 89.4094 207.667" stroke="black" stroke-width="0.98694"/>
<path d="M58.6016 170.221C59.2707 172.325 61.2235 177.063 63.6816 179.193C66.7545 181.856 69.0077 184.437 70.3187 185.298C71.6297 186.158 78.5943 182.225 78.7582 178.374" stroke="black" stroke-width="0.98694"/>
<path d="M93.4243 199.637C92.0175 198.926 88.3443 197.121 86.7055 197.547C85.0668 197.973 81.5435 201.138 80.3555 202.791" stroke="black" stroke-width="0.98694"/>
<path d="M188.15 201.955C191.763 203.968 195.619 203.358 197.095 202.801L198.418 209.066C199.307 211.579 200.598 216.957 198.653 218.368H149.428C147.853 216.152 151.312 201.581 152.908 200.171C154.505 198.761 160.254 199.205 163.055 198.973C165.295 198.787 171.405 196.937 174.179 196.036C172.375 193.621 169.056 188.613 170.216 187.895C171.665 186.999 178.736 192.778 179.468 193.608C180.2 194.437 183.633 199.439 188.15 201.955Z" stroke="black" stroke-width="0.98694"/>
<path d="M150.034 207.189C151.103 208.214 153.749 210.271 155.79 210.305C158.342 210.347 165.587 212.859 167.151 213.391C168.714 213.924 171.352 214.436 176.624 211.803C179.3 210.315 187.982 214.454 190.61 214.211C193.237 213.967 197.294 213.61 199.151 211.752" stroke="black" stroke-width="0.98694"/>
<path d="M151.272 204.075C153.166 205.208 157.767 207.468 161.02 207.437C165.085 207.4 168.482 207.843 170.034 207.621C171.587 207.398 174.205 199.84 171.779 196.845" stroke="black" stroke-width="0.98694"/>
<path d="M196.846 203.076C195.322 203.474 191.373 204.553 190.427 205.957C189.48 207.361 188.934 212.065 189.137 214.091" stroke="black" stroke-width="0.98694"/>
<path d="M46.407 63.4902L30.1533 29.7067L49.2851 19.4121L67.0316 52.3924L46.407 63.4902Z" stroke="#5C51BB" stroke-width="0.65796"/>
<path d="M37.3387 29.9462L35.5361 26.4639L43.3611 22.2441L45.0817 25.4806L37.3387 29.9462Z" fill="#5C51BB"/>
<path d="M131.197 44.0393C132.645 44.0393 133.819 42.8654 133.819 41.4174C133.819 39.9693 132.645 38.7954 131.197 38.7954C129.749 38.7954 128.575 39.9693 128.575 41.4174C128.575 42.8654 129.749 44.0393 131.197 44.0393Z" fill="black"/>
<path d="M131.197 48.8733C132.645 48.8733 133.819 47.6994 133.819 46.2514C133.819 44.8033 132.645 43.6294 131.197 43.6294C129.749 43.6294 128.575 44.8033 128.575 46.2514C128.575 47.6994 129.749 48.8733 131.197 48.8733Z" fill="black"/>
<path d="M128.575 46.2517C130.023 46.2517 131.197 45.0779 131.197 43.6298C131.197 42.1817 130.023 41.0078 128.575 41.0078C127.127 41.0078 125.953 42.1817 125.953 43.6298C125.953 45.0779 127.127 46.2517 128.575 46.2517Z" fill="black"/>
<path d="M151.764 43.2608C151.764 49.302 146.866 54.1993 140.825 54.1993C130.665 55.1825 129.887 49.302 129.887 43.2608C129.887 37.2196 134.784 32.3223 140.825 32.3223C146.866 32.3223 151.764 37.2196 151.764 43.2608Z" fill="#D57E19"/>
<path d="M140.825 32.3223C136.503 32.3223 132.766 34.8288 130.989 38.4675L151.659 41.745C150.921 36.4212 146.352 32.3223 140.825 32.3223Z" fill="#5C51BB"/>
<path d="M151.231 41.6639L122.84 37.731" stroke="black" stroke-width="0.98694" stroke-linecap="round"/>
<path d="M146.027 55.1427L145.823 51.9062L135.703 51.4556L135.13 54.4872C137.752 59.895 144.962 57.1092 146.027 55.1427Z" fill="#D57E19"/>
<path d="M151.108 46.2527C152.647 46.2527 153.894 44.9871 153.894 43.4259C153.894 41.8647 152.647 40.5991 151.108 40.5991C149.57 40.5991 148.322 41.8647 148.322 43.4259C148.322 44.9871 149.57 46.2527 151.108 46.2527Z" fill="black"/>
<path d="M153.935 46.2515C154.727 46.2515 155.369 45.5912 155.369 44.7766C155.369 43.9621 154.727 43.3018 153.935 43.3018C153.143 43.3018 152.501 43.9621 152.501 44.7766C152.501 45.5912 153.143 46.2515 153.935 46.2515Z" fill="black"/>
<path d="M155.041 47.2769C155.041 49.1097 153.566 50.8559 151.722 51.1279C149.223 51.4967 147.093 48.9868 147.093 47.154C147.093 45.3213 149.889 43.9585 151.722 43.9585C153.554 43.9585 155.041 45.4442 155.041 47.2769Z" fill="black"/>
<path d="M131.177 41.6518C132.702 41.8524 134.104 40.7602 134.308 39.2124L128.784 38.4858C128.58 40.0337 129.651 41.4511 131.177 41.6518Z" fill="black"/>
<path d="M134.758 41.2744C135.548 41.3331 136.237 40.7222 136.297 39.91L133.437 39.6973C133.376 40.5096 133.968 41.2156 134.758 41.2744Z" fill="black"/>
<path d="M147.937 47.8097C149.037 48.1712 150.285 47.3814 150.724 46.0456C151.163 44.7098 150.627 43.3339 149.527 42.9724C148.427 42.6109 147.179 43.4007 146.74 44.7365C146.301 46.0723 146.837 47.4482 147.937 47.8097Z" fill="#8D4F06"/>
<path d="M147.298 45.3924C147.667 44.7779 148.691 44.0405 149.633 44.2043" stroke="black" stroke-width="0.65796" stroke-linecap="round"/>
<path d="M149.031 44.2969C149.143 44.468 149.376 45.0313 149.412 45.4151" stroke="black" stroke-width="0.65796" stroke-linecap="round"/>
<path d="M135.95 48.0553L138.295 44.5898L138.97 48.5808L135.95 48.0553Z" fill="#8D4F06"/>
<path d="M138.047 44.8389L135.927 47.8536L138.768 48.2934" stroke="black" stroke-width="0.65796" stroke-linecap="round"/>
<path d="M137.629 50.3902C137.998 50.4038 138.923 50.341 139.677 49.9805" stroke="black" stroke-width="0.65796" stroke-linecap="round"/>
<path d="M140.62 41.7468C140.989 41.7331 141.915 41.796 142.669 42.1565" stroke="black" stroke-width="0.65796" stroke-linecap="round"/>
<path d="M134.802 41.9109C134.434 41.8972 133.508 41.96 132.754 42.3206" stroke="black" stroke-width="0.65796" stroke-linecap="round"/>
<path d="M138.243 53.8722C139.144 54.0361 140.742 54.159 141.971 53.1348" stroke="black" stroke-width="0.65796" stroke-linecap="round"/>
<path d="M134.434 45.0223C134.818 45.0223 135.13 44.7105 135.13 44.3259C135.13 43.9412 134.818 43.6294 134.434 43.6294C134.049 43.6294 133.737 43.9412 133.737 44.3259C133.737 44.7105 134.049 45.0223 134.434 45.0223Z" fill="black"/>
<path d="M141.317 45.0223C141.701 45.0223 142.013 44.7105 142.013 44.3259C142.013 43.9412 141.701 43.6294 141.317 43.6294C140.932 43.6294 140.62 43.9412 140.62 44.3259C140.62 44.7105 140.932 45.0223 141.317 45.0223Z" fill="black"/>
<path d="M142.253 48.9455C143.019 48.9455 143.641 48.3242 143.641 47.5577C143.641 46.7913 143.019 46.1699 142.253 46.1699C141.487 46.1699 140.865 46.7913 140.865 47.5577C140.865 48.3242 141.487 48.9455 142.253 48.9455Z" fill="#8D4F06"/>
<path d="M133.321 48.2087C134.088 48.2087 134.709 47.5874 134.709 46.8209C134.709 46.0544 134.088 45.4331 133.321 45.4331C132.555 45.4331 131.934 46.0544 131.934 46.8209C131.934 47.5874 132.555 48.2087 133.321 48.2087Z" fill="#8D4F06"/>
<path d="M193.697 56.8531C193.697 58.1378 193.407 60.6446 192.123 60.6446C190.839 60.6446 189.045 58.1378 189.045 56.8531C189.045 55.5683 190.086 54.5269 191.371 54.5269C192.656 54.5269 193.697 55.5683 193.697 56.8531Z" fill="#5C51BB"/>
<path d="M200.18 56.8531C200.18 58.1378 199.89 60.6446 198.606 60.6446C197.321 60.6446 195.527 58.1378 195.527 56.8531C195.527 55.5683 196.569 54.5269 197.854 54.5269C199.138 54.5269 200.18 55.5683 200.18 56.8531Z" fill="#9C96D6"/>
<path d="M206.652 56.8531C206.652 58.1378 206.363 60.6446 205.078 60.6446C203.794 60.6446 202 58.1378 202 56.8531C202 55.5683 203.041 54.5269 204.326 54.5269C205.611 54.5269 206.652 55.5683 206.652 56.8531Z" fill="#DEDCF1"/>
<g clip-path="url(#clip1_2552_15906)">
<path fill-rule="evenodd" clip-rule="evenodd" d="M40.5894 37.0728L49.4861 32.5068C50.076 32.204 50.762 32.148 51.3932 32.3511C52.0244 32.5541 52.549 32.9996 52.8518 33.5895L57.4178 42.4861C57.7206 43.076 57.7766 43.762 57.5736 44.3932C57.3705 45.0244 56.9251 45.5491 56.3352 45.8518L47.4385 50.4179C46.8486 50.7206 46.1626 50.7766 45.5314 50.5736C44.9002 50.3706 44.3755 49.9251 44.0728 49.3352L39.5067 40.4385C39.204 39.8486 39.148 39.1626 39.351 38.5315C39.5541 37.9003 39.9995 37.3756 40.5894 37.0728ZM50.2471 33.9896L41.3504 38.5556C41.1538 38.6565 41.0053 38.8314 40.9376 39.0418C40.8699 39.2522 40.8886 39.4809 40.9895 39.6775L45.4414 48.3518L48.5291 41.0815C48.7415 40.5904 49.1178 40.1883 49.5938 39.944C50.0699 39.6997 50.616 39.6283 51.1388 39.7421L54.55 40.5485L51.369 34.3505C51.2681 34.1538 51.0932 34.0053 50.8828 33.9377C50.6724 33.87 50.4437 33.8887 50.2471 33.9896ZM45.2763 39.8187C45.5915 40.4329 45.3492 41.1864 44.735 41.5016C44.1208 41.8168 43.3674 41.5744 43.0521 40.9602C42.7369 40.3461 42.9793 39.5926 43.5935 39.2774C44.2077 38.9622 44.9611 39.2045 45.2763 39.8187Z" fill="#5B4DBE"/>
</g>
<path fill-rule="evenodd" clip-rule="evenodd" d="M85 25.5H95C95.663 25.5 96.2989 25.7634 96.7678 26.2322C97.2366 26.7011 97.5 27.337 97.5 28V38C97.5 38.663 97.2366 39.2989 96.7678 39.7678C96.2989 40.2366 95.663 40.5 95 40.5H85C84.337 40.5 83.7011 40.2366 83.2322 39.7678C82.7634 39.2989 82.5 38.663 82.5 38V28C82.5 27.337 82.7634 26.7011 83.2322 26.2322C83.7011 25.7634 84.337 25.5 85 25.5ZM95 27.1667H85C84.779 27.1667 84.567 27.2545 84.4107 27.4107C84.2545 27.567 84.1667 27.779 84.1667 28V37.75L90.2333 32.6917C90.6465 32.3517 91.1649 32.1658 91.7 32.1658C92.2351 32.1658 92.7535 32.3517 93.1667 32.6917L95.8333 34.9667V28C95.8333 27.779 95.7455 27.567 95.5893 27.4107C95.433 27.2545 95.221 27.1667 95 27.1667ZM87.916 30.083C87.916 30.7734 87.3564 31.333 86.666 31.333C85.9757 31.333 85.416 30.7734 85.416 30.083C85.416 29.3927 85.9757 28.833 86.666 28.833C87.3564 28.833 87.916 29.3927 87.916 30.083Z" fill="#5B4DBE"/>
<defs>
<clipPath id="clip0_2552_15906">
<rect width="19.925" height="19.925" fill="white" transform="translate(184.31 113.576)"/>
</clipPath>
<clipPath id="clip1_2552_15906">
<rect width="20" height="20" fill="white" transform="translate(35 37.1318) rotate(-27.1683)"/>
</clipPath>
</defs>
</svg>
