<svg width="282" height="282" viewBox="0 0 282 282" fill="none" xmlns="http://www.w3.org/2000/svg">
<rect x="173.584" y="228.762" width="30.524" height="25.824" rx="3.14467" stroke="#5C51BB" stroke-width="1.06"/>
<rect x="67.6462" y="83.532" width="30.524" height="30.524" rx="11.342" stroke="black" stroke-width="1.06"/>
<path d="M159.753 39.0098H47.376V206.8H215.166V39.0098H187.459" stroke="black" stroke-width="0.848" stroke-linecap="round"/>
<path d="M206.8 111.39H105.75V202.57H206.8V111.39Z" fill="#EEEDF8"/>
<path d="M103.776 87.3257L112.8 80.1816M104.011 80.1816L112.8 87.3257L104.011 80.1816Z" stroke="black" stroke-width="0.848" stroke-linecap="round"/>
<path d="M108.476 78.0669V56.2119H67.5394C67.5394 56.2119 47.7625 132.636 78.9604 157.121C106.004 178.346 166.991 165.91 166.991 165.91C166.991 165.91 154.406 126.849 166.991 124.174C169.667 123.605 173.994 124.174 173.994 124.174V88.5479" stroke="black" stroke-width="0.848" stroke-linecap="round"/>
<path d="M188.584 109.114L191.075 44.5557H268.289V106.471L188.584 109.114Z" stroke="black" stroke-width="0.848"/>
<path d="M268.853 43.9922H190.531V57.0396H268.853V43.9922Z" fill="black"/>
<path d="M196.695 53.8486C198.536 53.8486 200.028 52.3563 200.028 50.5156C200.028 48.6748 198.536 47.1826 196.695 47.1826C194.855 47.1826 193.362 48.6748 193.362 50.5156C193.362 52.3563 194.855 53.8486 196.695 53.8486Z" fill="white"/>
<path d="M205.361 53.8486C207.202 53.8486 208.694 52.3563 208.694 50.5156C208.694 48.6748 207.202 47.1826 205.361 47.1826C203.521 47.1826 202.028 48.6748 202.028 50.5156C202.028 52.3563 203.521 53.8486 205.361 53.8486Z" fill="white"/>
<path d="M214.026 53.8486C215.867 53.8486 217.359 52.3563 217.359 50.5156C217.359 48.6748 215.867 47.1826 214.026 47.1826C212.186 47.1826 210.693 48.6748 210.693 50.5156C210.693 52.3563 212.186 53.8486 214.026 53.8486Z" fill="white"/>
<path d="M242.969 99.8867H180.668V141.033" stroke="#5C51BB" stroke-width="0.848"/>
<path d="M182.219 29.4951C164.727 17.4257 152.935 30.8894 149.225 39.1298C153.525 41.7617 163.087 46.4841 170.375 43.4385C177.662 40.393 181.594 32.8006 182.219 29.4951Z" fill="#CDCAEA"/>
<path d="M166.803 42.3943C171.241 42.3943 174.84 38.796 174.84 34.3573C174.84 29.9186 171.241 26.3203 166.803 26.3203C162.364 26.3203 158.766 29.9186 158.766 34.3573C158.766 38.796 162.364 42.3943 166.803 42.3943Z" fill="black"/>
<path d="M149.46 36.3887L144.102 33.4277" stroke="black" stroke-width="0.848" stroke-linecap="round"/>
<path d="M153.269 30.8339L148.545 26.9414" stroke="black" stroke-width="0.848" stroke-linecap="round"/>
<path d="M159.596 26.0162L156.059 21.0195" stroke="black" stroke-width="0.848" stroke-linecap="round"/>
<path d="M167.192 23.5721L166.547 17.4844" stroke="black" stroke-width="0.848" stroke-linecap="round"/>
<path d="M176.3 24.7196L178.063 18.8574" stroke="black" stroke-width="0.848" stroke-linecap="round"/>
<path d="M182.219 27.7712L185.587 22.6592" stroke="black" stroke-width="0.848" stroke-linecap="round"/>
<path d="M71.2594 233.167C61.3348 226.319 54.644 233.959 52.5391 238.634C54.9793 240.127 60.404 242.807 64.5393 241.078C68.6745 239.351 70.9055 235.043 71.2594 233.167Z" fill="#EEEDF8"/>
<path d="M62.5122 240.486C65.0307 240.486 67.0723 238.445 67.0723 235.926C67.0723 233.408 65.0307 231.366 62.5122 231.366C59.9938 231.366 57.9521 233.408 57.9521 235.926C57.9521 238.445 59.9938 240.486 62.5122 240.486Z" fill="black"/>
<path d="M52.6719 237.078L49.6318 235.398" stroke="black" stroke-width="0.848" stroke-linecap="round"/>
<path d="M54.8341 233.927L52.1533 231.719" stroke="black" stroke-width="0.848" stroke-linecap="round"/>
<path d="M58.4228 231.193L56.416 228.358" stroke="black" stroke-width="0.848" stroke-linecap="round"/>
<path d="M62.7327 229.806L62.3672 226.352" stroke="black" stroke-width="0.848" stroke-linecap="round"/>
<path d="M67.9004 230.458L68.9009 227.131" stroke="black" stroke-width="0.848" stroke-linecap="round"/>
<path d="M71.2588 232.189L73.1697 229.288" stroke="black" stroke-width="0.848" stroke-linecap="round"/>
<path d="M21.9023 221.804C23.8488 212.094 32.779 194.136 35.4687 199.716C38.8308 206.692 37.5331 226.659 32.9913 227.822C28.4495 228.985 35.0558 199.854 40.7182 201.905C45.2483 203.546 42.6057 212.071 40.7182 216.129C41.3868 210.658 42.2455 202.999 51.5123 197.87" stroke="black" stroke-width="0.848" stroke-linecap="round"/>
<path d="M173.994 84.788C175.811 84.788 177.284 83.315 177.284 81.498C177.284 79.681 175.811 78.208 173.994 78.208C172.177 78.208 170.704 79.681 170.704 81.498C170.704 83.315 172.177 84.788 173.994 84.788Z" fill="#5C51BB"/>
<path d="M258.21 131.718C258.21 133.653 258.649 137.428 260.596 137.428C262.542 137.428 265.26 133.653 265.26 131.718C265.26 129.784 263.682 128.216 261.735 128.216C259.788 128.216 258.21 129.784 258.21 131.718Z" fill="black"/>
<path d="M249.864 133.987C249.864 135.461 250.196 138.336 251.67 138.336C253.144 138.336 255.202 135.461 255.202 133.987C255.202 132.513 254.007 131.318 252.533 131.318C251.059 131.318 249.864 132.513 249.864 133.987Z" fill="black"/>
<path d="M257.29 143.293C257.29 144.767 257.622 147.642 259.096 147.642C260.57 147.642 262.627 144.767 262.627 143.293C262.627 141.819 261.433 140.624 259.959 140.624C258.485 140.624 257.29 141.819 257.29 143.293Z" fill="black"/>
<path d="M249.852 143.293C249.852 144.767 250.183 147.642 251.657 147.642C253.131 147.642 255.189 144.767 255.189 143.293C255.189 141.819 253.994 140.624 252.52 140.624C251.046 140.624 249.852 141.819 249.852 143.293Z" fill="black"/>
<path d="M242.426 143.293C242.426 144.767 242.758 147.642 244.232 147.642C245.705 147.642 247.763 144.767 247.763 143.293C247.763 141.819 246.568 140.624 245.094 140.624C243.621 140.624 242.426 141.819 242.426 143.293Z" fill="black"/>
<path d="M69.9482 45.7205C69.9482 47.1943 70.2803 50.0702 71.7543 50.0702C73.2282 50.0702 75.2857 47.1943 75.2857 45.7205C75.2857 44.2466 74.0908 43.0518 72.617 43.0518C71.1431 43.0518 69.9482 44.2466 69.9482 45.7205Z" fill="black"/>
<path d="M62.5098 45.7205C62.5098 47.1943 62.8419 50.0702 64.3158 50.0702C65.7897 50.0702 67.8472 47.1943 67.8472 45.7205C67.8472 44.2466 66.6523 43.0518 65.1785 43.0518C63.7046 43.0518 62.5098 44.2466 62.5098 45.7205Z" fill="black"/>
<path d="M55.084 45.7205C55.084 47.1943 55.4161 50.0702 56.89 50.0702C58.3639 50.0702 60.4214 47.1943 60.4214 45.7205C60.4214 44.2466 59.2266 43.0518 57.7527 43.0518C56.2788 43.0518 55.084 44.2466 55.084 45.7205Z" fill="black"/>
<path d="M257.196 152.598C257.196 154.072 257.528 156.948 259.002 156.948C260.476 156.948 262.534 154.072 262.534 152.598C262.534 151.124 261.339 149.93 259.865 149.93C258.391 149.93 257.196 151.124 257.196 152.598Z" fill="black"/>
<path d="M143.017 67.8972L144.509 79.3845C144.509 79.3845 148.458 98.562 153.955 115.803L131.285 124.222C126.14 107.719 121.467 91.0377 121.615 88.6822C121.815 85.4971 124.094 84.18 125.207 83.9196C126.418 79.1262 130.002 79.5463 131.643 80.3556C132.832 76.8561 135.73 76.9814 137.031 77.4814C136.908 75.8517 137.025 71.6584 138.48 67.9238C139.935 64.1892 142.739 65.7062 143.017 67.8972Z" fill="#CDCAEA"/>
<path d="M131.68 81.165C131.44 82.6185 131.728 86.1713 134.591 89.3298M134.591 89.3298C139.744 93.9711 141.089 87.7959 139.627 82.8774M134.591 89.3298C134.863 91.2585 135.497 95.0639 131.817 94.4181C128.137 93.7725 125.854 87.718 125.677 84.8262" stroke="black" stroke-width="0.565333" stroke-linecap="round"/>
<path d="M143.4 99.6826C139.747 94.1535 140.695 89.6675 142.563 86.8841C143.514 85.4689 144.613 85.1938 145.572 86.1689" stroke="black" stroke-width="0.565333" stroke-linecap="round"/>
<path d="M122.784 92.334C123.243 93.4903 124.474 96.175 126.223 96.9082C127.971 97.6405 128.88 95.7529 129.116 94.7171" stroke="black" stroke-width="0.565333" stroke-linecap="round"/>
<path d="M103.364 195.798C105.574 196.3 113.045 198.657 116.505 199.773C118.714 204.427 126.089 218.647 127.219 225.259C121.22 226.961 103.867 230.532 100.686 230.532C96.7109 230.532 91.689 227.686 88.5085 226.222C85.9641 225.05 86.1092 222.72 86.4998 221.702C84.1898 219.693 84.5608 217.712 85.0351 216.973C79.9797 215.667 78.7439 213.527 78.7578 212.621C78.437 212.621 77.5024 212.47 76.3306 211.867C74.8659 211.114 75.0334 208.226 76.3306 207.473C77.6279 206.72 78.3812 207.18 85.0351 206.511C90.3582 205.975 93.7814 204.558 94.8281 203.916C95.8658 202.544 93.6709 199.233 99.1229 195.614C99.6944 195.405 101.155 195.296 103.364 195.798Z" fill="#CDCAEA"/>
<path d="M95.874 203.622C97.0735 203.288 99.8662 202.484 101.44 201.948" stroke="black" stroke-width="0.848" stroke-linecap="round"/>
<path d="M79.3438 212.578C84.214 213.233 88.0063 214.085 94.8694 212.286" stroke="black" stroke-width="0.848" stroke-linecap="round"/>
<path d="M87.8389 222.371C89.3314 222.804 93.1536 223.585 96.5011 223.25M85.8301 217.182C87.8946 217.712 92.4421 218.019 95.2039 217.182H85.8301Z" stroke="black" stroke-width="0.848" stroke-linecap="round"/>
<path d="M200.987 80.1556C200.987 81.6684 200.58 83.0123 199.95 83.9615C199.317 84.9148 198.507 85.4147 197.689 85.4147C196.871 85.4147 196.061 84.9148 195.428 83.9615C194.8 83.0123 194.392 81.6684 194.392 80.1556C194.392 78.6429 194.8 77.2989 195.428 76.3498C196.061 75.3965 196.871 74.8965 197.689 74.8965C198.507 74.8965 199.317 75.3965 199.95 76.3498C200.58 77.2989 200.987 78.6429 200.987 80.1556Z" stroke="black" stroke-width="0.848"/>
<path d="M209.338 95.128L212.205 102.46C220.306 106.185 224.964 110.317 230.488 102.037L225.212 88.4919C226.703 82.4644 226.609 70.287 214.301 69.7967C198.915 69.1837 195.667 84.0786 198.854 90.8211C201.404 96.2156 205.437 95.551 209.338 95.128Z" fill="#CDCAEA"/>
<path d="M215.159 88.7984C217.732 88.7984 219.818 86.7127 219.818 84.1399C219.818 81.5671 217.732 79.4814 215.159 79.4814C212.587 79.4814 210.501 81.5671 210.501 84.1399C210.501 86.7127 212.587 88.7984 215.159 88.7984Z" fill="#5C51BB"/>
<path d="M211.849 83.6491C212.475 83.3631 213.841 82.791 214.301 82.791" stroke="black" stroke-width="0.565333" stroke-linecap="round"/>
<path d="M213.756 83.4326C214.001 83.8819 214.5 84.8662 214.531 85.2091" stroke="black" stroke-width="0.565333" stroke-linecap="round"/>
<path d="M194.625 78.9912L211.91 79.5429" stroke="black" stroke-width="0.848"/>
<path d="M199.644 84.8278C200.173 84.9445 200.797 84.1546 201.037 83.0637C201.278 81.9728 201.044 80.9939 200.515 80.8772C199.986 80.7606 199.363 81.5504 199.122 82.6413C198.881 83.7323 199.115 84.7112 199.644 84.8278Z" fill="#5C51BB"/>
<path d="M200.08 72.1867L209.643 79.0519L210.745 83.0973C210.909 82.2596 211.8 80.621 214.056 80.7681C216.875 80.952 217.672 85.3653 215.465 87.0203C213.7 88.3443 211.91 87.5719 211.236 87.0203L213.709 98.4176L247.126 96.4436C247.126 96.4436 244.716 88.6875 238.39 76.7226C232.065 64.7577 223.536 64.586 220.063 65.9958C211.236 61.5335 203.064 68.2638 200.08 72.1867Z" fill="black"/>
<path d="M238.918 58.6038C240.884 61.8456 239.827 66.0818 236.556 68.0658C233.285 70.0497 220.553 70.7162 220.553 70.7162C220.553 70.7162 226.165 58.3104 229.435 56.3265C232.706 54.3425 236.951 55.3621 238.918 58.6038Z" fill="black"/>
<path d="M152.374 110.45C141.893 116.184 135.125 116.748 128.733 117.218C128.404 117.453 127.652 119.333 127.558 120.696C127.456 122.177 128.78 131.882 130.848 137.898C132.916 143.914 138.039 157.403 146.781 159.894C153.775 161.887 172.913 162.996 181.185 159.894C178.146 165.346 174.511 172.114 171.033 177.707C167.387 183.57 142.222 188.705 128.733 191.995C117.942 194.627 114.931 197.792 114.116 199.045C114.868 200.847 118.501 205.229 120.179 209.902C122.803 217.212 124.127 225.036 123.845 226.164C123.563 227.292 165.362 222.639 178.224 218.362C178.976 218.785 180.597 219.853 183.958 221.041C192.465 224.049 209.479 219.819 221.088 218.362C232.697 216.905 233.919 221.652 245.34 221.041C256.761 220.43 258.782 218.315 257.748 196.977C256.714 175.639 246.75 113.231 233.825 102.648C224.474 94.9919 212.064 99.2097 207.74 103.346C203.416 107.482 200.126 113.834 193.499 119.239C182.924 126.712 165.111 130.002 160.74 127.135C156.369 124.268 156.416 113.364 152.374 110.45Z" fill="#5C51BB"/>
<path d="M239.089 114.022L242.614 112.236M239.888 117.876L241.815 118.487M169.717 125.866L170.845 129.062M173.571 126.994V129.062M130.472 129.955L125.772 129.062M157.497 160.176L156.792 163.748M171.973 217.516L173.571 222.404M254.364 188.423L259.393 190.397M130.472 132.822L127.558 134.232M133.245 193.452L130.472 186.966M136.582 190.397V188.423M136.582 224.284L134.514 228.232M189.927 215.307C189.665 211.347 190.343 205.77 193.117 201.348M193.117 201.348C196.312 196.254 202.289 192.696 212.816 194.909M193.117 201.348L189.927 199.703M134.514 145.324C139.355 144.259 149.883 145.738 153.267 160.176M187.624 206.753H192.418M204.92 191.572L204.685 195.943M138.885 146.781L140.154 142.41M150.776 156.134H153.267M146.593 150.306L153.267 146.781" stroke="black" stroke-width="0.848" stroke-linecap="round"/>
<path d="M186.872 216.059C193.154 214.492 206.969 208.577 211.97 197.447C218.221 183.535 228.138 160.035 229.689 156.651M195.849 121.025C192.418 130.127 185.105 149.319 183.3 153.267L195.849 121.025Z" stroke="black" stroke-width="0.848" stroke-linecap="round"/>
<path d="M160.035 127.887C158.562 129.61 155.392 133.583 154.489 135.689" stroke="black" stroke-width="0.848" stroke-linecap="round"/>
<path d="M231.71 158.672C231.334 159.581 230.131 163.005 228.326 169.435" stroke="black" stroke-width="0.848" stroke-linecap="round"/>
<path d="M135.961 62.2883H120.369C119.732 62.2883 119.122 62.0355 118.672 61.5856C118.222 61.1358 117.97 60.5256 117.97 59.8894V47.895C117.97 47.2588 118.222 46.6486 118.672 46.1987C119.122 45.7488 119.732 45.4961 120.369 45.4961H135.961C136.598 45.4961 137.208 45.7488 137.658 46.1987C138.107 46.6486 138.36 47.2588 138.36 47.895V59.8894C138.36 60.5256 138.107 61.1358 137.658 61.5856C137.208 62.0355 136.598 62.2883 135.961 62.2883ZM140.759 50.2939V57.4905L146.091 61.0456C146.271 61.1662 146.481 61.2354 146.698 61.2459C146.915 61.2564 147.131 61.2078 147.323 61.1052C147.514 61.0026 147.674 60.8499 147.786 60.6635C147.897 60.477 147.956 60.2638 147.956 60.0465V47.7378C147.956 47.5207 147.897 47.3076 147.785 47.1213C147.674 46.935 147.514 46.7825 147.322 46.6801C147.131 46.5776 146.915 46.5291 146.698 46.5396C146.481 46.5502 146.271 46.6194 146.091 46.7399L140.759 50.2939Z" fill="#5C51BB"/>
<path d="M80.9524 191.478H60.5694C59.7378 191.478 58.9401 191.147 58.3521 190.558C57.764 189.969 57.4336 189.17 57.4336 188.336V172.625C57.4336 171.791 57.764 170.992 58.3521 170.403C58.9401 169.813 59.7378 169.482 60.5694 169.482H80.9524C81.7841 169.482 82.5817 169.813 83.1698 170.403C83.7579 170.992 84.0882 171.791 84.0882 172.625V188.336C84.0882 189.17 83.7579 189.969 83.1698 190.558C82.5817 191.147 81.7841 191.478 80.9524 191.478ZM87.2241 175.767V185.194L94.1935 189.851C94.4297 190.009 94.7043 190.099 94.988 190.113C95.2717 190.127 95.5537 190.063 95.8041 189.929C96.0544 189.794 96.2636 189.594 96.4094 189.35C96.5551 189.106 96.6319 188.827 96.6316 188.542V172.419C96.6316 172.134 96.5546 171.855 96.4088 171.611C96.2629 171.367 96.0536 171.168 95.8034 171.033C95.5531 170.899 95.2711 170.836 94.9876 170.849C94.7041 170.863 94.4296 170.954 94.1935 171.112L87.2241 175.767Z" fill="#5C51BB"/>
<path d="M194.58 241.674L184.992 247.22L184.992 236.128L194.58 241.674Z" fill="#5C51BB"/>
<path d="M88.8301 98.794L79.2421 104.34L79.2421 93.248L88.8301 98.794Z" fill="#5C51BB"/>
</svg>
