<svg width="24" height="24" viewBox="0 0 24 24" fill="currentColor" xmlns="http://www.w3.org/2000/svg">
<path d="M10.0001 17.55L8.23008 19.27C7.76595 19.7341 7.13646 19.9949 6.48008 19.9949C5.8237 19.9949 5.19421 19.7341 4.73008 19.27C4.26595 18.8059 4.00521 18.1764 4.00521 17.52C4.00521 16.8636 4.26595 16.2341 4.73008 15.77L9.27008 11.22C9.71569 10.7729 10.3161 10.5143 10.9471 10.4975C11.5781 10.4808 12.1914 10.7072 12.6601 11.13L12.7801 11.23C12.9697 11.4157 13.2253 11.5184 13.4907 11.5156C13.7561 11.5127 14.0094 11.4046 14.1951 11.215C14.3807 11.0254 14.4835 10.7698 14.4806 10.5044C14.4778 10.239 14.3697 9.98565 14.1801 9.8C14.1236 9.72703 14.0636 9.65694 14.0001 9.59C13.1464 8.84732 12.0424 8.45685 10.9116 8.4977C9.78088 8.53855 8.70791 9.00766 7.91008 9.81L3.31008 14.36C2.52844 15.2108 2.1057 16.3307 2.13016 17.4858C2.15461 18.6408 2.62436 19.7418 3.44131 20.5588C4.25826 21.3757 5.35924 21.8455 6.51433 21.8699C7.66941 21.8944 8.78929 21.4716 9.64008 20.69L11.3701 19C11.5409 18.8137 11.6348 18.5695 11.6329 18.3167C11.631 18.064 11.5334 17.8213 11.3598 17.6375C11.1862 17.4538 10.9494 17.3426 10.6971 17.3264C10.4449 17.3101 10.1958 17.39 10.0001 17.55ZM20.6901 3.31C19.8489 2.47401 18.7111 2.00479 17.5251 2.00479C16.3391 2.00479 15.2013 2.47401 14.3601 3.31L12.6301 5C12.4593 5.18635 12.3654 5.43048 12.3673 5.68327C12.3692 5.93606 12.4668 6.17874 12.6404 6.36249C12.814 6.54624 13.0507 6.65742 13.303 6.67365C13.5553 6.68989 13.8043 6.60998 14.0001 6.45L15.7301 4.73C16.1942 4.26587 16.8237 4.00513 17.4801 4.00513C18.1365 4.00513 18.766 4.26587 19.2301 4.73C19.6942 5.19413 19.955 5.82363 19.955 6.48C19.955 7.13638 19.6942 7.76587 19.2301 8.23L14.6901 12.78C14.2445 13.2271 13.6441 13.4857 13.0131 13.5025C12.3821 13.5192 11.7688 13.2928 11.3001 12.87L11.1801 12.77C10.9905 12.5844 10.7348 12.4816 10.4695 12.4844C10.2041 12.4873 9.95073 12.5954 9.76508 12.785C9.57943 12.9746 9.47671 13.2302 9.47952 13.4956C9.48234 13.761 9.59045 14.0144 9.78008 14.2C9.85272 14.2743 9.92951 14.3444 10.0101 14.41C10.8648 15.1505 11.9683 15.5395 13.0984 15.4986C14.2285 15.4578 15.3011 14.9902 16.1001 14.19L20.6501 9.64C21.4914 8.80408 21.9678 7.66923 21.9753 6.48325C21.9828 5.29727 21.5208 4.15649 20.6901 3.31Z" fill="currentColor"/>
</svg>
