<svg width="24" height="24" viewBox="0 0 24 24" fill="currentColor" xmlns="http://www.w3.org/2000/svg">
<path d="M21 13C20.7348 13 20.4804 13.1054 20.2929 13.2929C20.1054 13.4804 20 13.7348 20 14V19C20 19.5525 19.5525 20 19 20H5C4.4475 20 4 19.5525 4 19V5C4 4.4475 4.4475 4 5 4H10C10.2652 4 10.5196 3.89464 10.7071 3.70711C10.8946 3.51957 11 3.26522 11 3C11 2.73478 10.8946 2.48043 10.7071 2.29289C10.5196 2.10536 10.2652 2 10 2H5C3.34325 2 2 3.34325 2 5V19C2 20.6568 3.34325 22 5 22H19C20.6568 22 22 20.6568 22 19V14C22 13.7348 21.8946 13.4804 21.7071 13.2929C21.5196 13.1054 21.2652 13 21 13ZM22 3V9C22 9.26522 21.8946 9.51957 21.7071 9.70711C21.5196 9.89464 21.2652 10 21 10C20.7348 10 20.4804 9.89464 20.2929 9.70711C20.1054 9.51957 20 9.26522 20 9V5.414L11.8073 13.6065C11.6184 13.7873 11.3662 13.8869 11.1048 13.884C10.8434 13.8811 10.5935 13.7759 10.4087 13.5911C10.2238 13.4062 10.1187 13.1563 10.1159 12.8949C10.1131 12.6335 10.2127 12.3813 10.3935 12.1925L18.5858 4H15C14.7348 4 14.4804 3.89464 14.2929 3.70711C14.1054 3.51957 14 3.26522 14 3C14 2.73478 14.1054 2.48043 14.2929 2.29289C14.4804 2.10536 14.7348 2 15 2H21C21.2652 2 21.5196 2.10536 21.7071 2.29289C21.8946 2.48043 22 2.73478 22 3Z" fill="currentColor"/>
</svg>
