<svg width="40" height="40" viewBox="0 0 40 40" fill="currentColor"  xmlns="http://www.w3.org/2000/svg">
<path d="M9.99984 22.1415C9.99984 19.9876 10.6848 17.9871 11.8547 16.3482C12.3907 15.5972 12.4043 14.5459 11.7519 13.8935C11.0979 13.2395 10.0275 13.2359 9.46175 13.9676C7.71516 16.2267 6.6665 19.0618 6.6665 22.1415C6.6665 28.2748 10.8019 33.4319 16.4435 34.9834C17.4308 35.2549 18.3332 34.4543 18.3332 33.4303C18.3332 32.5995 17.7272 31.9048 16.9365 31.6494C12.921 30.3523 9.99984 26.5902 9.99984 22.1415ZM33.3332 22.1415C33.3332 14.7748 27.3665 8.80815 19.9998 8.80815C19.8998 8.80815 19.7998 8.82481 19.6998 8.82481L20.3415 8.18315C20.9911 7.53355 20.993 6.48089 20.3457 5.82899C19.6951 5.17383 18.636 5.17196 17.9832 5.82482L14.3025 9.50545C13.7672 10.0408 13.7672 10.9088 14.3025 11.4442L17.9915 15.1331C18.6404 15.7821 19.6926 15.7821 20.3415 15.1331C20.9904 14.4842 20.9904 13.4321 20.3415 12.7831L19.7165 12.1581C19.8165 12.1581 19.9165 12.1415 19.9998 12.1415C25.5165 12.1415 29.9998 16.6248 29.9998 22.1415C29.9998 26.5902 27.0787 30.3523 23.0631 31.6494C22.2725 31.9048 21.6665 32.5995 21.6665 33.4303C21.6665 34.4543 22.5689 35.2549 23.5562 34.9834C29.1977 33.4319 33.3332 28.2748 33.3332 22.1415Z" fill="currentColor" />
</svg>
