<svg width="24" height="24" viewBox="0 0 24 24" fill="currentColor" xmlns="http://www.w3.org/2000/svg">
<path d="M21.6399 12.69C20.8069 11.3986 19.6196 10.3745 18.2199 9.74001C18.7573 9.27853 19.1874 8.70513 19.4799 8.06C19.7652 7.43157 19.9152 6.75015 19.9199 6.06C19.9199 5.13144 19.6613 4.22123 19.1732 3.43135C18.685 2.64147 17.9865 2.00313 17.156 1.58786C16.3255 1.1726 15.3957 0.996814 14.4709 1.0802C13.5461 1.16359 12.6628 1.50286 11.9199 2.06C11.0544 1.41089 10.0018 1.06 8.91992 1.06C7.59384 1.06 6.32207 1.5868 5.38438 2.52448C4.4467 3.46216 3.91992 4.73392 3.91992 6.06C3.92352 6.75137 4.07704 7.43372 4.36992 8.06C4.65872 8.70467 5.08541 9.27815 5.61992 9.74001C4.22006 10.3739 3.03238 11.3975 2.1989 12.6886C1.36541 13.9796 0.921394 15.4833 0.919922 17.02C0.919922 17.2852 1.02528 17.5396 1.21281 17.7271C1.40035 17.9147 1.65471 18.02 1.91992 18.02C2.05153 18.0208 2.182 17.9955 2.30383 17.9458C2.42567 17.896 2.53649 17.8227 2.62993 17.73C2.72261 17.6366 2.79592 17.5258 2.84569 17.4039C2.89545 17.2821 2.92068 17.1516 2.91992 17.02C2.92154 15.7535 3.32388 14.52 4.06934 13.4961C4.81479 12.4722 5.86512 11.7105 7.06992 11.32C7.13979 11.6195 7.24032 11.9111 7.36992 12.19C7.66162 12.8301 8.08799 13.3997 8.61992 13.86C7.22006 14.4939 6.03238 15.5175 5.1989 16.8086C4.36541 18.0996 3.92139 19.6033 3.91992 21.14C3.92047 21.2723 3.94727 21.4032 3.99876 21.5251C4.05026 21.6469 4.12544 21.7574 4.21992 21.85C4.40619 22.0348 4.65758 22.1389 4.91992 22.14C5.18514 22.14 5.43949 22.0346 5.62703 21.8471C5.81457 21.6596 5.91992 21.4052 5.91992 21.14C5.91992 19.5487 6.55206 18.0226 7.67728 16.8974C8.8025 15.7721 10.3286 15.14 11.9199 15.14C13.5112 15.14 15.0373 15.7721 16.1626 16.8974C17.2878 18.0226 17.9199 19.5487 17.9199 21.14C17.9205 21.2723 17.9473 21.4032 17.9988 21.5251C18.0503 21.6469 18.1254 21.7574 18.2199 21.85C18.4062 22.0348 18.6576 22.1389 18.9199 22.14C19.1851 22.14 19.4395 22.0346 19.627 21.8471C19.8146 21.6596 19.9199 21.4052 19.9199 21.14C19.9213 19.6032 19.4766 18.099 18.6399 16.81C17.8069 15.5186 16.6196 14.4944 15.2199 13.86C15.7548 13.4001 16.1845 12.8306 16.4799 12.19C16.6019 11.9159 16.699 11.6315 16.7699 11.34C17.9565 11.7431 18.9872 12.5077 19.7171 13.5264C20.4471 14.5451 20.8397 15.7668 20.8399 17.02C20.8399 17.2852 20.9453 17.5396 21.1328 17.7271C21.3203 17.9147 21.5747 18.02 21.8399 18.02C21.9715 18.0208 22.102 17.9955 22.2238 17.9458C22.3457 17.896 22.4565 17.8227 22.5499 17.73C22.6426 17.6366 22.7159 17.5258 22.7657 17.4039C22.8155 17.2821 22.8407 17.1516 22.8399 17.02C22.8663 15.4911 22.4495 13.9872 21.6399 12.69ZM6.22992 7.01001C6.00176 6.45975 5.94258 5.85402 6.05992 5.27001C6.17651 4.69034 6.46179 4.15806 6.87993 3.74001C7.30069 3.32015 7.83669 3.03473 8.41992 2.92C9.00051 2.80036 9.60373 2.85963 10.1499 3.09C10.3402 3.17021 10.5213 3.2708 10.6899 3.39C10.2731 4.05389 10.0226 4.8086 9.95992 5.59C9.40571 5.82837 8.90051 6.16743 8.46992 6.59C7.97457 7.08753 7.58955 7.6838 7.33992 8.34C6.84413 8.01014 6.45773 7.5402 6.22992 6.99001V7.01001ZM11.9999 13.14C11.4071 13.1398 10.8276 12.964 10.3346 12.6348C9.84158 12.3055 9.45718 11.8376 9.22992 11.29L9.13992 11.03C9.07167 10.7986 9.02809 10.5606 9.00992 10.32V10.26C8.9801 10.0276 8.9801 9.79238 9.00992 9.56C9.03598 9.4305 9.07277 9.30341 9.11992 9.18001C9.16053 9.06101 9.20725 8.94418 9.25992 8.83001C9.46935 8.38916 9.78559 8.0076 10.1799 7.72C10.343 7.6116 10.5134 7.5147 10.6899 7.43001L10.8099 7.38001C10.9892 7.29918 11.1771 7.23879 11.3699 7.2C11.4599 7.1951 11.55 7.1951 11.6399 7.2C11.8461 7.18 12.0537 7.18 12.2599 7.2C12.5486 7.22901 12.8315 7.29976 13.0999 7.41001C13.6501 7.63782 14.1201 8.02422 14.4499 8.52001C14.5246 8.6354 14.5914 8.75567 14.6499 8.88001C14.7406 9.06521 14.811 9.25967 14.8599 9.46001C14.8599 9.46001 14.8599 9.54 14.8599 9.58C14.9029 9.77722 14.9264 9.9782 14.9299 10.18C14.9402 10.3365 14.9402 10.4935 14.9299 10.65C14.9299 10.79 14.8699 10.93 14.8299 11.06C14.642 11.6724 14.263 12.2086 13.7484 12.5901C13.2338 12.9716 12.6105 13.1783 11.9699 13.18L11.9999 13.14ZM17.1199 7.98C16.9805 8.12258 16.8263 8.24996 16.6599 8.36C16.3109 7.42637 15.6877 6.62015 14.8721 6.04724C14.0564 5.47434 13.0866 5.16157 12.0899 5.15001C12.2193 4.61659 12.4926 4.12889 12.8799 3.74001C12.9973 3.62274 13.1244 3.51568 13.2599 3.42C13.6067 3.1729 14.0022 3.00245 14.4199 2.92C15.0005 2.80036 15.6037 2.85963 16.1499 3.09C16.6988 3.31512 17.1686 3.69793 17.4999 4.19001C17.8282 4.68491 18.0022 5.26612 17.9999 5.86C18.0073 6.64139 17.7095 7.39482 17.1699 7.96001L17.1199 7.98Z" fill="currentColor"/>
</svg>
