<svg width="186" height="198" viewBox="0 0 186 198" fill="none" xmlns="http://www.w3.org/2000/svg">
<path d="M178.16 124.968H112.614L110.493 174.532L139.366 173.669L165.046 172.901L178.16 172.509V124.968Z" fill="#EEEDF8"/>
<path d="M144.882 60.1748C147.31 47.8592 158.449 25.0838 161.804 32.161C165.999 41.0074 164.38 66.3323 158.714 67.8068C153.049 69.2813 161.29 32.3345 168.353 34.9363C174.003 37.0178 170.708 47.8301 168.353 52.9761C169.186 46.0377 170.258 36.3241 181.817 29.8193" stroke="#5C51BB" stroke-width="0.875944" stroke-linecap="round"/>
<path d="M76.7692 156.356C72.6997 135.626 54.0314 97.2877 48.4086 109.201C41.3801 124.092 44.0929 166.722 53.5875 169.203C63.0818 171.685 49.2718 109.493 37.4343 113.872C27.9644 117.376 33.4885 135.577 37.4343 144.238C36.0368 132.559 34.2414 116.208 14.8691 105.259" stroke="#5C51BB" stroke-width="0.875944" stroke-linecap="round"/>
<path d="M26.4756 70.1848V8.90527H101.953V21.8619H131.224V63.2503" stroke="black" stroke-width="0.875944"/>
<path d="M24.0996 178.924C24.0996 182.136 23.3758 188.403 20.1639 188.403C16.952 188.403 12.4683 182.136 12.4683 178.924C12.4683 175.712 15.0721 173.108 18.2839 173.108C21.4959 173.108 24.0996 175.712 24.0996 178.924Z" fill="#5C51BB"/>
<path d="M40.308 178.924C40.308 182.136 39.5843 188.403 36.3724 188.403C33.1605 188.403 28.6768 182.136 28.6768 178.924C28.6768 175.712 31.2805 173.108 34.4924 173.108C37.7043 173.108 40.308 175.712 40.308 178.924Z" fill="#7F74E2"/>
<path d="M56.4911 178.924C56.4911 182.136 55.7677 188.403 52.5555 188.403C49.3436 188.403 44.8599 182.136 44.8599 178.924C44.8599 175.712 47.4636 173.108 50.6755 173.108C53.8874 173.108 56.4911 175.712 56.4911 178.924Z" fill="#A096FF"/>
<path d="M170.065 51.0795C170.065 52.5817 169.724 55.5129 168.212 55.5129C166.701 55.5129 164.59 52.5817 164.59 51.0795C164.59 49.5772 165.816 48.3594 167.328 48.3594C168.839 48.3594 170.065 49.5772 170.065 51.0795Z" fill="#DEDCF1"/>
<path d="M176.546 52.841C176.546 53.9855 176.288 56.2187 175.143 56.2187C173.999 56.2187 172.401 53.9855 172.401 52.841C172.401 51.6964 173.329 50.7686 174.473 50.7686C175.618 50.7686 176.546 51.6964 176.546 52.841Z" fill="#9C96D6"/>
<path d="M170.779 60.0665C170.779 61.211 170.521 63.444 169.377 63.444C168.232 63.444 166.634 61.211 166.634 60.0665C166.634 58.922 167.562 57.9941 168.707 57.9941C169.851 57.9941 170.779 58.922 170.779 60.0665Z" fill="#9C96D6"/>
<path d="M176.555 60.0665C176.555 61.211 176.296 63.444 175.152 63.444C174.007 63.444 172.41 61.211 172.41 60.0665C172.41 58.922 173.338 57.9941 174.482 57.9941C175.627 57.9941 176.555 58.922 176.555 60.0665Z" fill="#9C96D6"/>
<path d="M182.321 60.0665C182.321 61.211 182.063 63.444 180.918 63.444C179.774 63.444 178.177 61.211 178.177 60.0665C178.177 58.922 179.105 57.9941 180.249 57.9941C181.394 57.9941 182.321 58.922 182.321 60.0665Z" fill="#6B61C2"/>
<path d="M170.852 67.293C170.852 68.4376 170.595 70.6705 169.45 70.6705C168.305 70.6705 166.708 68.4376 166.708 67.293C166.708 66.1485 167.635 65.2207 168.78 65.2207C169.924 65.2207 170.852 66.1485 170.852 67.293Z" fill="#6B61C2"/>
<path d="M185.613 69.4121C185.613 71.7268 185.09 76.243 182.772 76.243C180.454 76.243 177.218 71.7268 177.218 69.4121C177.218 67.0974 179.097 65.2207 181.415 65.2207C183.734 65.2207 185.613 67.0974 185.613 69.4121Z" fill="#3F3883"/>
<path d="M75.5362 159.915H86.8666L107.508 159.18V69.9619H4.33932L1 162.975L36.0822 161.726" stroke="black" stroke-width="0.875944"/>
<path d="M13.5188 82.7761C15.3128 82.7761 16.7671 81.2074 16.7671 79.2723C16.7671 77.3372 15.3128 75.7686 13.5188 75.7686C11.7248 75.7686 10.2705 77.3372 10.2705 79.2723C10.2705 81.2074 11.7248 82.7761 13.5188 82.7761Z" fill="#A096FF"/>
<path d="M21.9861 82.7761C23.7801 82.7761 25.2344 81.2074 25.2344 79.2723C25.2344 77.3372 23.7801 75.7686 21.9861 75.7686C20.1921 75.7686 18.7378 77.3372 18.7378 79.2723C18.7378 81.2074 20.1921 82.7761 21.9861 82.7761Z" fill="#7F74E2"/>
<path d="M30.4534 82.7761C32.2474 82.7761 33.7017 81.2074 33.7017 79.2723C33.7017 77.3372 32.2474 75.7686 30.4534 75.7686C28.6594 75.7686 27.2051 77.3372 27.2051 79.2723C27.2051 81.2074 28.6594 82.7761 30.4534 82.7761Z" fill="#5C51BB"/>
<path d="M130.362 156.077L90.7114 156.94L93.6247 107.376H183.634V154.917L165.626 155.309" stroke="black" stroke-width="0.875944"/>
<path d="M97.6772 152.927H127.045M97.6772 149.709H116.138H97.6772Z" stroke="black" stroke-width="0.875944" stroke-linecap="round"/>
<path d="M183.634 107.376H93.6309V116.573H183.634V107.376Z" fill="#363071"/>
<path d="M30.3176 0L21.7609 3.26493L23.2884 10.4547C22.6919 11.0346 22.0582 11.704 21.3932 12.417L14.0589 10.8121L10.4544 19.0135L16.6875 23.0524C16.6188 24.0616 16.6188 25.0742 16.6875 26.0834L10.2705 29.8865L13.6306 38.2057L20.8437 36.7796C21.4904 37.5347 22.2066 38.231 22.9833 38.8599L21.3326 45.8727L29.8287 49.3772L33.9848 43.317C35.0233 43.3836 36.0012 43.3836 37.0397 43.317L41.0139 49.556L49.5687 46.2873L47.92 38.6811C48.6748 38.05 49.3699 37.3545 49.997 36.6027L57.4547 38.4434L61.122 30.1241L54.6421 26.2622C54.7047 25.2734 54.7047 24.3378 54.6421 23.3509L61.0614 19.4889L57.697 11.1678L50.2415 12.7726C49.5953 12.0176 48.8798 11.3213 48.1038 10.6924L49.7526 3.68327L41.2584 0.176868L37.2842 6.23898C36.2613 6.14197 35.2306 6.09065 34.2292 6.1781L30.3176 0ZM35.7567 16.994C40.0791 16.994 43.58 20.3978 43.58 24.6002C43.58 28.8026 40.0791 32.2063 35.7567 32.2063C31.4343 32.2063 27.9335 28.8026 27.9335 24.6002C27.9335 20.3978 31.4343 16.994 35.7567 16.994Z" fill="#BDB8E4"/>
<path d="M71.306 30.001L66.9701 31.6602L67.7445 35.3138C67.4423 35.6086 67.1212 35.9487 66.7839 36.3111L63.0677 35.4955L61.2414 39.6632L64.3999 41.7157C64.3649 42.2286 64.3649 42.7432 64.3999 43.256L61.1479 45.1887L62.8509 49.4163L66.5058 48.6916C66.8336 49.0754 67.1963 49.4293 67.5898 49.7488L66.7533 53.3126L71.0585 55.0935L73.1644 52.0139C73.6907 52.0477 74.1864 52.0477 74.7127 52.0139L76.7266 55.1844L81.0611 53.5233L80.226 49.658C80.6085 49.3373 80.9603 48.9838 81.2779 48.6018L85.0568 49.5371L86.9153 45.3095L83.632 43.3469C83.6634 42.8444 83.6634 42.3689 83.632 41.8675L86.8846 39.9048L85.1802 35.6762L81.402 36.4918C81.0749 36.1081 80.7122 35.7542 80.3187 35.4346L81.1545 31.8727L76.85 30.0908L74.836 33.1715C74.3178 33.1222 73.7958 33.0961 73.2885 33.1406L71.306 30.001ZM74.0623 38.6371C76.2529 38.6371 78.0267 40.3667 78.0267 42.5023C78.0267 44.6379 76.2529 46.3676 74.0623 46.3676C71.8724 46.3676 70.0979 44.6379 70.0979 42.5023C70.0979 40.3667 71.8724 38.6371 74.0623 38.6371Z" fill="#3F3883"/>
<path d="M77.6826 184.167C79.0841 182.649 79.1914 170.614 79.0695 164.787L97.0629 167.196C96.0774 170.603 93.7927 178.379 92.5371 182.233C91.2816 186.087 91.0896 190.311 91.1502 191.941L57.6089 193.146C63.7164 190.786 76.2811 185.686 77.6826 184.167Z" fill="#B46A13"/>
<path d="M91.8434 197.962L91.077 190.772C89.8725 190.772 85.8505 190.94 79.3977 191.612C72.9449 192.283 65.979 191.332 63.3022 190.772C53.375 193.05 49.5548 196.515 48.8857 197.962H91.8434Z" fill="black"/>
<path d="M156.992 184.204C155.59 182.685 152.782 170.432 152.904 164.604L135.714 166.904C136.699 170.311 140.882 178.415 142.137 182.269C143.393 186.124 143.585 190.348 143.524 191.978L177.066 193.182C170.958 190.822 158.394 185.722 156.992 184.204Z" fill="#B46A13"/>
<path d="M142.831 198L143.597 190.81C144.801 190.81 148.823 190.977 155.276 191.649C161.729 192.321 168.695 191.369 171.372 190.81C181.299 193.087 185.119 196.552 185.788 198H142.831Z" fill="black"/>
<path d="M108.304 41.6069C111.866 45.2567 117.087 44.0035 119.253 42.9208C120.518 42.4828 124.538 41.8697 130.494 42.9208C136.451 43.9719 152.004 54.5271 159.036 59.6732C165.459 64.2019 174.693 69.7466 172.175 78.287C169.656 86.8275 149.746 95.0431 143.123 99.4922C141.192 100.789 139.326 102.213 137.604 103.616L132.207 86.28C140.699 81.5915 150.508 77.0848 150.24 75.7687C149.889 74.046 148.074 72.8365 147.21 72.4474C147.21 72.4474 142.283 70.0605 138.487 68.8341C134.692 67.6078 132.21 71.7539 131.443 73.9803H87.7557C80.9306 79.5769 70.5288 89.4553 64.3242 90.9517C58.1196 92.4481 55.4188 90.2583 48.0828 81.6813C40.7468 73.1044 22.6439 47.775 21.9505 45.2202C21.3957 43.1763 22.5466 41.8624 23.1914 41.4609C22.9286 38.1907 25.2718 37.6894 26.4762 37.8476C26.4762 35.395 28.3254 34.8548 29.25 34.8913C28.8242 33.8937 28.0018 31.2343 28.1186 28.5772C28.2354 25.9202 30.0651 26.8132 30.9654 27.5918L34.3596 34.4898C34.3596 34.4898 54.3604 68.5422 62.4628 69.0896C63.057 69.1298 71.4536 62.2889 75.237 58.3958C79.6656 54.4663 89.0185 46.3078 91.004 45.1107C93.8946 41.0229 103.742 41.0716 108.304 41.6069Z" fill="#B46A13"/>
<path d="M26.695 38.3597C26.8554 39.3225 27.7954 41.4901 30.2717 42.861M30.2717 42.861C34.5055 44.6738 34.031 40.5131 32.0601 37.7393M30.2717 42.861C30.8557 44.0128 32.0674 46.2651 29.6148 46.6447C27.1621 47.0243 24.4321 43.7127 23.7021 41.9365" stroke="black" stroke-width="0.583962" stroke-linecap="round"/>
<path d="M38.0095 47.4834C34.5058 44.7826 34.1408 41.7533 34.7247 39.5999C35.0217 38.505 35.6591 38.0962 36.4766 38.505" stroke="black" stroke-width="0.583962" stroke-linecap="round"/>
<path d="M23.4473 47.2646C23.9825 47.8973 25.3305 49.3304 26.5861 49.418C27.8416 49.5056 28.0095 48.1163 27.9365 47.4106" stroke="black" stroke-width="0.583962" stroke-linecap="round"/>
<path d="M150.568 75.5869C151.067 75.2708 152.839 74.5941 155.934 74.4189" stroke="black" stroke-width="0.583962" stroke-linecap="round"/>
<path d="M62.5723 69.9121C62.9971 70.3223 64.0709 71.8852 64.9687 74.8524" stroke="black" stroke-width="0.583962" stroke-linecap="round"/>
<path d="M108.304 41.6079C111.866 45.2576 117.087 44.0045 119.253 42.9218C120.518 42.4838 124.538 41.8707 130.494 42.9218C136.451 43.9729 152.004 54.528 159.035 59.6742L147.21 72.4484C147.21 72.4484 142.283 70.0614 138.487 68.8351C134.691 67.6088 132.21 71.7549 131.443 73.9813H87.7555L75.2368 58.3968C79.6654 54.4672 89.0183 46.3088 91.0038 45.1117C93.8944 41.0239 103.741 41.0726 108.304 41.6079Z" fill="#5C51BB"/>
<path d="M108.158 42.1553C109.167 43.5422 112.486 46.0605 117.684 45.0386" stroke="black" stroke-width="0.583962" stroke-linecap="round"/>
<path d="M109.362 44.4541C109.946 44.9286 111.698 46.133 114.508 46.133" stroke="black" stroke-width="0.583962" stroke-linecap="round"/>
<path d="M87.7555 74.0171C95.0551 64.0314 97.7194 48.2984 98.3033 41.7166C99.3618 41.3882 103.741 41.1328 104.471 41.3882L104.216 55.9506H119.144V42.921C120.72 42.3954 124.217 42.1547 126.115 42.337C125.618 54.3666 130.799 68.4695 133.451 74.0171C133.062 74.7471 132.516 77.6085 133.451 83.2145C134.385 88.8206 151.164 142.633 159.437 168.838L137.246 171.393L111.844 109.201L96.9529 171.393L75.6748 168.838L87.7555 74.0171Z" fill="#CDCAEA"/>
<path d="M111.626 82.6719C110.832 84.4062 110.759 86.3844 111.424 88.1713C112.089 89.959 113.437 91.4087 115.171 92.2021C116.905 92.9963 118.883 93.0686 120.67 92.4036C122.458 91.7386 123.907 90.3911 124.701 88.6568L122.166 87.4969C121.68 88.5582 120.793 89.3838 119.698 89.7904C118.604 90.1977 117.393 90.1532 116.331 89.667C115.27 89.1816 114.444 88.294 114.038 87.1998C113.63 86.1048 113.675 84.8938 114.16 83.8325L111.626 82.6719Z" fill="#8C84CF"/>
<path d="M78.6646 162.788C80.3383 163.702 82.3063 163.913 84.1363 163.376C85.9663 162.839 87.5072 161.597 88.4211 159.923C89.335 158.249 89.5467 156.281 89.0095 154.452C88.4722 152.622 87.2298 151.08 85.556 150.167L84.2202 152.614C85.2451 153.173 86.0057 154.117 86.3342 155.237C86.6634 156.357 86.5334 157.562 85.9743 158.587C85.4144 159.612 84.4713 160.372 83.3509 160.701C82.2304 161.03 81.0252 160.9 80.0011 160.341L78.6646 162.788Z" fill="#8C84CF"/>
<path d="M92.6069 80.2303C94.2807 81.1442 96.2487 81.3559 98.0787 80.8186C99.9087 80.2814 101.45 79.039 102.363 77.3652C103.277 75.6914 103.489 73.7235 102.952 71.8942C102.415 70.0642 101.172 68.5225 99.4984 67.6094L98.1626 70.0562C99.1875 70.6153 99.9481 71.5592 100.277 72.6796C100.606 73.7994 100.476 75.0045 99.9167 76.0294C99.3568 77.0542 98.4137 77.8141 97.2932 78.1433C96.1728 78.4725 94.9676 78.3426 93.9435 77.7835L92.6069 80.2303Z" fill="#8C84CF"/>
<path d="M103.093 47.6563C102.179 49.33 100.639 50.5721 98.8085 51.1094C98.1647 51.2984 97.5034 51.3948 96.8442 51.4004L97.3917 48.5704C97.6041 48.5407 97.8151 48.4955 98.0231 48.4344C99.1436 48.1054 100.087 47.3449 100.647 46.3202C101.206 45.2956 101.336 44.0906 101.006 42.9703C100.845 42.4197 100.552 41.866 100.202 41.4253C100.996 41.3532 102.382 41.3097 103.311 41.2805L103.348 41.2793C103.479 41.5717 103.59 41.8741 103.682 42.1848C104.219 44.0145 104.007 45.9827 103.093 47.6563Z" fill="#8C84CF"/>
<path d="M121.922 60.5867C120.018 60.6912 118.151 60.0351 116.73 58.7627C115.873 57.9952 115.222 57.0414 114.817 55.9873H117.961C118.144 56.2402 118.354 56.4748 118.591 56.6862C119.46 57.4652 120.603 57.8669 121.769 57.8029C122.935 57.7389 124.027 57.2144 124.807 56.3448L126.883 58.2051C125.611 59.6255 123.826 60.4821 121.922 60.5867Z" fill="#8C84CF"/>
<path d="M90.1649 99.3887C89.3708 101.123 89.2985 103.101 89.9635 104.888C90.6285 106.676 91.976 108.125 93.7096 108.919C95.444 109.713 97.4221 109.785 99.2091 109.12C100.997 108.455 102.446 107.108 103.24 105.374L100.705 104.214C100.219 105.275 99.3317 106.101 98.2375 106.507C97.1433 106.914 95.9316 106.87 94.8702 106.384C93.8089 105.898 92.9833 105.011 92.5767 103.917C92.1694 102.822 92.2139 101.611 92.6993 100.549L90.1649 99.3887Z" fill="#8C84CF"/>
<path d="M130.678 135.521C129.883 137.255 129.811 139.233 130.476 141.02C131.141 142.808 132.489 144.257 134.222 145.051C135.957 145.845 137.935 145.917 139.722 145.252C141.509 144.587 142.959 143.24 143.753 141.505L141.217 140.345C140.732 141.407 139.844 142.232 138.75 142.639C137.656 143.046 136.444 143.002 135.383 142.516C134.322 142.03 133.496 141.143 133.089 140.048C132.682 138.953 132.727 137.742 133.212 136.681L130.678 135.521Z" fill="#8C84CF"/>
<path d="M144.782 167.456C146.566 168.126 148.545 168.06 150.281 167.272C152.018 166.483 153.37 165.037 154.04 163.252C154.711 161.466 154.644 159.488 153.856 157.752C153.067 156.016 151.621 154.664 149.836 153.993L148.856 156.603C149.949 157.014 150.835 157.841 151.317 158.904C151.8 159.968 151.84 161.179 151.43 162.272C151.019 163.365 150.191 164.25 149.129 164.733C148.066 165.215 146.854 165.256 145.761 164.846L144.782 167.456Z" fill="#8C84CF"/>
<path d="M121.781 106.305C120.841 107.964 120.599 109.929 121.109 111.766C121.618 113.604 122.837 115.164 124.496 116.104C126.156 117.043 128.12 117.285 129.958 116.775C131.795 116.266 133.355 115.047 134.295 113.388L131.868 112.014C131.293 113.03 130.339 113.776 129.213 114.088C128.088 114.401 126.885 114.252 125.869 113.677C124.853 113.102 124.107 112.147 123.795 111.022C123.484 109.897 123.632 108.694 124.207 107.678L121.781 106.305Z" fill="#8C84CF"/>
<path d="M99.0129 137.367C99.9268 139.041 101.468 140.283 103.298 140.821C103.601 140.91 103.908 140.978 104.217 141.026L104.874 138.301C104.608 138.273 104.343 138.222 104.083 138.145C102.963 137.816 102.019 137.056 101.46 136.031C100.9 135.006 100.771 133.801 101.099 132.682C101.428 131.561 102.189 130.617 103.214 130.058L101.877 127.611C100.203 128.524 98.9618 130.066 98.4245 131.896C97.8873 133.725 98.099 135.693 99.0129 137.367Z" fill="#8C84CF"/>
<path d="M125.093 65.7334H114.509C114.129 72.4782 117.514 75.2104 119.692 75.6973C125.13 74.8578 125.373 68.1422 125.093 65.7334Z" fill="#8C84CF"/>
<path d="M115.647 82.1408L109.542 87.1289L136.469 120.083L142.574 115.095L115.647 82.1408Z" fill="#090712"/>
<path d="M104.987 69.2486C107.33 68.4821 109.867 68.5522 112.165 69.4464C114.462 70.3406 116.379 72.0042 117.588 74.1531C118.797 76.3021 119.223 78.8037 118.794 81.2315C118.366 83.6593 117.108 85.8638 115.236 87.4689C113.364 89.0734 110.994 89.98 108.529 90.0325C106.064 90.0858 103.656 89.2829 101.717 87.7595C99.778 86.2368 98.4268 84.0893 97.894 81.6819C97.3611 79.2745 97.6794 76.7569 98.7947 74.5575L103.785 77.0883C103.255 78.1328 103.104 79.3285 103.357 80.4723C103.61 81.6155 104.252 82.6359 105.173 83.3593C106.094 84.0827 107.237 84.4637 108.408 84.4389C109.579 84.4134 110.705 83.9834 111.594 83.2206C112.483 82.4585 113.081 81.4118 113.284 80.2585C113.488 79.1051 113.285 77.9168 112.711 76.8963C112.137 75.8758 111.227 75.0853 110.135 74.6605C109.044 74.2356 107.839 74.2028 106.726 74.567L104.987 69.2486Z" fill="#090712"/>
<path d="M152.205 127.037C153.423 124.893 153.86 122.393 153.442 119.963C153.023 117.533 151.775 115.324 149.91 113.711C148.045 112.098 145.679 111.181 143.214 111.118C140.749 111.054 138.339 111.847 136.393 113.362C134.448 114.876 133.087 117.019 132.544 119.423C132 121.828 132.308 124.347 133.413 126.551C134.519 128.755 136.355 130.508 138.608 131.509C140.861 132.511 143.391 132.701 145.768 132.046L144.283 126.652C143.154 126.963 141.952 126.873 140.882 126.396C139.812 125.921 138.94 125.088 138.415 124.042C137.889 122.995 137.743 121.798 138.002 120.656C138.259 119.514 138.905 118.497 139.83 117.777C140.754 117.058 141.899 116.681 143.07 116.711C144.241 116.741 145.365 117.177 146.25 117.943C147.136 118.709 147.729 119.758 147.928 120.913C148.126 122.067 147.919 123.254 147.34 124.272L152.205 127.037Z" fill="#090712"/>
<path d="M119.326 94.2374L134.545 85.04L139.765 102.048L130.932 107.778C130.677 109.092 129.815 111.88 128.414 112.523C127.012 113.165 125.956 111.355 125.603 110.369C123.238 111.304 122.185 109.396 121.954 108.326C119.472 107.683 119.167 104.944 119.326 103.654C113.953 100.822 117.087 96.1959 119.326 94.2374Z" fill="#B46A13"/>
<path d="M119.509 103.106C119.569 102.121 120.107 99.8287 121.772 98.5439" stroke="black" stroke-width="0.583962" stroke-linecap="round"/>
<path d="M122.136 107.266C122.197 106.281 122.735 103.989 124.399 102.704" stroke="black" stroke-width="0.583962" stroke-linecap="round"/>
<path d="M125.713 109.53C125.774 108.545 126.312 106.252 127.976 104.968" stroke="black" stroke-width="0.583962" stroke-linecap="round"/>
<path d="M128.377 109.347L131.334 107.887" stroke="black" stroke-width="0.583962" stroke-linecap="round"/>
<path d="M127.976 88.6163L132.335 85.7695L143.076 99.8854L139.009 102.98L127.976 88.6163Z" fill="black"/>
<path d="M136.079 99.0539C138.377 99.0539 140.239 97.1911 140.239 94.8932C140.239 92.5952 138.377 90.7324 136.079 90.7324C133.781 90.7324 131.918 92.5952 131.918 94.8932C131.918 97.1911 133.781 99.0539 136.079 99.0539Z" fill="#D1EAFF"/>
<path d="M109.848 38.0914C109.59 40.0154 108.71 41.0419 108.245 41.6677C110.607 44.9128 115.962 45.7484 119.18 44.3313V37.1416L109.848 38.0914Z" fill="#B46A13"/>
<path d="M124.315 31.9278C123.087 37.3153 117.952 40.739 112.846 39.5749C111.38 39.2407 109.267 39.088 108.182 38.1663C105.487 35.8781 104.949 31.5528 105.825 27.7122C107.053 22.3247 112.188 18.901 117.294 20.0651C122.4 21.2291 125.544 26.5403 124.315 31.9278Z" fill="#B46A13"/>
<path d="M116.523 28.3992C113.289 27.8514 111.41 25.2315 110.875 23.99C110.226 23.6623 108.783 23.7066 108.214 26.5049C107.645 29.3032 106.271 30.9994 105.655 31.4976C105.929 33.5352 106.753 35.9833 107.847 37.2722C108.507 38.0488 109.31 38.628 109.699 38.8784C109.528 39.8267 109.045 40.5164 108.94 40.6001L91.0352 39.3386L91.8279 38.0338C93.1812 35.7803 98.8187 34.568 99.9822 33.7138C101.146 32.8595 96.8157 26.9206 100.895 25.4608C104.974 24.0009 104.324 22.884 106.458 19C108.166 15.8929 112.365 16.134 114.251 16.6429C119.813 15.1379 124.665 17.6176 125.525 21.0216C126.172 22.5255 125.408 24.9348 128.177 25.1571C131.06 25.1684 133.811 27.4534 134.145 29.2949C134.613 31.8774 131.477 34.1982 135.558 35.7528C138.822 36.9965 141.302 39.7679 142.134 40.9982L134.854 42.3312L133.401 40.0192L132.083 42.4959L119.178 42.9125C118.887 42.5231 118.205 41.175 117.811 38.8978C117.417 36.6207 118.409 34.6063 118.954 33.8837C119.491 32.2838 119.757 28.947 116.523 28.3992Z" fill="black"/>
<path d="M109.897 34.9453L111.111 32.0176L112.102 34.9096L109.897 34.9453Z" fill="#89510E"/>
<path d="M111.72 39.9716C112.16 40.1153 113.225 40.2415 113.972 39.5967" stroke="black" stroke-width="0.583962" stroke-linecap="round"/>
<path d="M110.971 32.2695L109.763 34.9493L111.952 34.8653" stroke="black" stroke-width="0.583962" stroke-linecap="round"/>
<path d="M112.668 36.8029L110.133 36.7549C110.31 37.0817 110.827 37.6184 111.294 37.7073C112.064 37.8542 112.426 37.2523 112.668 36.8029Z" stroke="black" stroke-width="0.583962"/>
<path d="M108.148 32.3769C108.519 32.4616 108.889 32.229 108.974 31.8571C109.059 31.4853 108.826 31.1152 108.454 31.0304C108.083 30.9457 107.713 31.1784 107.628 31.5502C107.543 31.922 107.776 32.2921 108.148 32.3769Z" fill="black"/>
<path d="M113.283 32.5956C113.655 32.6804 114.025 32.4477 114.11 32.0759C114.195 31.7041 113.962 31.3339 113.59 31.2492C113.218 31.1644 112.848 31.3971 112.764 31.7689C112.679 32.1407 112.911 32.5109 113.283 32.5956Z" fill="black"/>
<path d="M112.829 29.5729C113.424 29.3665 114.267 29.3495 114.799 29.6426" stroke="black" stroke-width="0.583962" stroke-linecap="round"/>
<path d="M108.97 29.4851C108.367 29.3022 107.524 29.3181 107.004 29.632" stroke="black" stroke-width="0.583962" stroke-linecap="round"/>
<path d="M120.317 34.9771C121.236 35.6606 122.74 35.1942 123.677 33.9353C124.614 32.6764 124.628 31.1018 123.71 30.4183C122.791 29.7348 121.287 30.2012 120.351 31.4601C119.414 32.7189 119.399 34.2936 120.317 34.9771Z" fill="#89510E"/>
<path d="M120.7 32.5863C121.105 32.0808 122.119 31.3697 122.756 31.2793" stroke="black" stroke-width="0.583962" stroke-linecap="round"/>
<path d="M122.208 31.543C122.404 31.8349 122.607 32.4754 122.551 32.8197" stroke="black" stroke-width="0.583962" stroke-linecap="round"/>
<path d="M114.675 35.7126C115.058 35.7999 115.439 35.5602 115.526 35.1774C115.614 34.7945 115.374 34.4133 114.991 34.326C114.608 34.2387 114.227 34.4784 114.14 34.8612C114.053 35.2441 114.292 35.6253 114.675 35.7126Z" fill="#89510E"/>
<path d="M107.454 34.4792C107.837 34.5665 108.218 34.3268 108.305 33.944C108.392 33.5611 108.153 33.1799 107.77 33.0926C107.387 33.0053 107.006 33.245 106.919 33.6278C106.831 34.0107 107.071 34.3919 107.454 34.4792Z" fill="#89510E"/>
</svg>
