<svg width="210" height="210" viewBox="0 0 210 210" fill="none" xmlns="http://www.w3.org/2000/svg">
<path d="M111.505 108.694H99.5578V152.583L61.583 153.789V160.025L109.937 159.502L111.505 108.694Z" fill="#CDCAEA"/>
<path d="M195.459 149.518C195.459 151.225 195.84 154.555 197.529 154.555C199.217 154.555 201.574 151.225 201.574 149.518C201.574 147.812 200.206 146.429 198.517 146.429C196.828 146.429 195.459 147.812 195.459 149.518Z" fill="black"/>
<path d="M186.852 149.518C186.852 151.225 187.237 154.555 188.947 154.555C190.659 154.555 193.047 151.225 193.047 149.518C193.047 147.812 191.66 146.429 189.949 146.429C188.239 146.429 186.852 147.812 186.852 149.518Z" fill="black"/>
<path d="M178.323 149.518C178.323 151.225 178.704 154.555 180.393 154.555C182.08 154.555 184.438 151.225 184.438 149.518C184.438 147.812 183.069 146.429 181.381 146.429C179.692 146.429 178.323 147.812 178.323 149.518Z" fill="black"/>
<path d="M11.248 155.374L13.9992 78.7422H99.1429V152.244L82.3921 152.841H72.9451H72.9354H72.9258L11.248 155.374Z" stroke="black" stroke-width="0.965461"/>
<path d="M19.2627 147.394H44.606M19.2627 143.371H61.1798H19.2627Z" stroke="#7B73C9" stroke-width="0.965461" stroke-linecap="round"/>
<path d="M75.0988 170.485H53.6173M75.0988 164.611H47.3418H75.0988ZM75.0988 167.347H58.3168H75.0988Z" stroke="#7B73C9" stroke-width="0.965461" stroke-linecap="round"/>
<path d="M75.864 16.2883H16.8901C16.3404 15.2021 16.2224 12.7 20.1486 11.3805C24.0748 10.0611 27.3627 11.9303 28.5159 13.0298C28.8914 9.53005 31.3157 2.40173 38.0096 1.88682C44.7035 1.37191 46.806 6.47276 47.0206 9.08755C53.1673 0.559309 58.5391 7.06281 60.4566 11.3805C66.8611 9.15996 73.3965 13.7271 75.864 16.2883Z" fill="#DEDCF1"/>
<path d="M81.6968 33.5496H121.253C121.622 32.8475 121.701 31.2301 119.067 30.3772C116.434 29.5242 114.229 30.7325 113.455 31.4433C113.203 29.181 111.577 24.5731 107.087 24.2402C102.597 23.9074 101.187 27.2047 101.043 28.8949C96.9205 23.3821 93.3169 27.586 92.0312 30.3772C87.7357 28.9417 83.3517 31.894 81.6968 33.5496Z" stroke="black" stroke-width="0.965461"/>
<path d="M99.4372 103.504H115.931L117.902 158.052L61.1406 156.725V153.829" stroke="black" stroke-width="0.965461"/>
<path d="M11.9419 122.452H1V175.552H75.0589" stroke="black" stroke-width="0.965461"/>
<path d="M12.1829 122.774H1.08008V132.349H12.1829V122.774Z" fill="#24204B"/>
<path d="M77.7144 157.17V168.876" stroke="black" stroke-width="0.965461"/>
<path d="M13.5345 78.2588H99.6268V93.6716H12.978L13.5345 78.2588Z" fill="#24204B"/>
<path d="M35.5962 117.101H78.8408L80.1683 110.866H38.2512L35.5962 117.101Z" fill="#5C51BB"/>
<path d="M20.3092 89.9037C22.3325 89.9037 23.9728 88.141 23.9728 85.9665C23.9728 83.792 22.3325 82.0293 20.3092 82.0293C18.2858 82.0293 16.6455 83.792 16.6455 85.9665C16.6455 88.141 18.2858 89.9037 20.3092 89.9037Z" fill="white"/>
<path d="M29.8345 89.9037C31.8579 89.9037 33.4982 88.141 33.4982 85.9665C33.4982 83.792 31.8579 82.0293 29.8345 82.0293C27.8112 82.0293 26.1709 83.792 26.1709 85.9665C26.1709 88.141 27.8112 89.9037 29.8345 89.9037Z" fill="white"/>
<path d="M39.3599 89.9037C41.3833 89.9037 43.0236 88.141 43.0236 85.9665C43.0236 83.792 41.3833 82.0293 39.3599 82.0293C37.3366 82.0293 35.6963 83.792 35.6963 85.9665C35.6963 88.141 37.3366 89.9037 39.3599 89.9037Z" fill="white"/>
<path d="M163.761 51.3097C166.745 36.1723 180.429 8.1785 184.552 16.8772C189.704 27.7506 187.715 58.8785 180.755 60.6903C173.795 62.503 183.918 17.0904 192.596 20.2884C199.538 22.8469 195.489 36.1366 192.596 42.4616C193.621 33.9335 194.937 21.9942 209.138 13.999" stroke="black" stroke-width="0.965461" stroke-linecap="round"/>
<path d="M114.724 197.075L127.757 173.663L114.362 164.611L107.322 175.875C107.175 177.176 107.41 183.003 107.764 187.863C108.118 192.722 112.417 195.975 114.724 197.075Z" fill="#5C51BB"/>
<path d="M108.689 190.397C110.041 194.226 113.275 196.284 114.723 196.833L111.626 202.304C110.647 204.731 108.102 209.529 105.753 209.304L73.4097 173.461C73.6913 170.806 81.8172 166.18 83.9091 166.18C86.0009 166.18 89.9432 170.243 92.1557 171.892C93.9257 173.211 99.6243 175.821 102.253 176.961C102.494 174.01 103.307 168.167 104.626 168.392C106.276 168.674 107.724 177.524 107.724 178.61C107.724 179.696 107 185.61 108.689 190.397Z" stroke="black" stroke-width="0.965461"/>
<path d="M77.2305 169.479C77.3512 170.928 77.9626 174.162 79.443 175.514C83.469 179.189 88.8965 188.85 93.8042 190.156C96.7408 190.8 100.442 199.489 102.534 201.018C104.625 202.547 107.844 204.92 110.418 204.759" stroke="black" stroke-width="0.965461"/>
<path d="M80.168 167.989C80.8253 170.055 82.7425 174.707 85.1562 176.799C88.1732 179.414 90.3858 181.948 91.673 182.793C92.9603 183.638 99.799 179.776 99.9599 175.995" stroke="black" stroke-width="0.965461"/>
<path d="M114.361 196.874C112.98 196.176 109.373 194.404 107.764 194.822C106.155 195.24 102.695 198.348 101.529 199.971" stroke="black" stroke-width="0.965461"/>
<path d="M169.073 193.609L158.814 166.382L143.338 171.059L147.275 181.748C148.191 182.684 152.303 185.087 156.889 190.96C160.533 195.626 166.764 194.704 169.073 193.609Z" fill="#5C51BB"/>
<path d="M160.154 193.275C163.702 195.251 167.487 194.653 168.937 194.106L170.236 200.257C171.108 202.725 172.376 208.005 170.466 209.391H122.131C120.585 207.215 123.981 192.908 125.549 191.523C127.117 190.139 132.762 190.575 135.512 190.347C137.712 190.164 143.711 188.348 146.436 187.463C144.665 185.092 141.405 180.174 142.544 179.469C143.966 178.589 150.909 184.265 151.629 185.079C152.347 185.893 155.719 190.805 160.154 193.275Z" stroke="black" stroke-width="0.965461"/>
<path d="M122.727 198.416C123.776 199.422 126.375 201.442 128.379 201.475C130.885 201.517 137.999 203.983 139.534 204.506C141.069 205.028 143.659 205.531 148.837 202.946C151.464 201.485 159.989 205.548 162.569 205.31C165.149 205.071 169.132 204.72 170.955 202.896" stroke="black" stroke-width="0.965461"/>
<path d="M123.943 195.355C125.802 196.469 130.319 198.688 133.513 198.658C137.505 198.621 140.841 199.056 142.365 198.837C143.889 198.619 146.46 191.197 144.078 188.257" stroke="black" stroke-width="0.965461"/>
<path d="M168.693 194.376C167.196 194.767 163.319 195.826 162.39 197.205C161.46 198.583 160.924 203.203 161.124 205.192" stroke="black" stroke-width="0.965461"/>
<path d="M124.539 134.843L123.614 88.2191L169.474 86.8916V92.7246C169.892 109.974 167.261 122.922 165.893 127.24L155.228 143.21L163.882 177.243L141.033 181.064L136.97 170.404L127.074 185.369L106.236 172.938L124.539 134.843Z" fill="black"/>
<path d="M122.97 175.794L159.617 117.062" stroke="white" stroke-width="0.965461" stroke-linecap="round"/>
<path fill-rule="evenodd" clip-rule="evenodd" d="M146.544 24.9407C138.726 24.2836 119.495 27.1693 105.11 43.9683C98.1101 51.5713 94.1276 54.7895 77.5136 50.9679C60.9768 47.1641 56.1573 48.5413 51.9476 49.7443L51.8886 49.7611C47.6647 50.9679 43.6822 54.9505 44.889 58.1687C43.9505 59.8984 42.3548 63.7201 43.4812 65.1682C44.6075 66.6164 57.9496 70.706 64.4799 72.5701C70.098 73.1735 82.3731 74.501 86.5246 74.9838C91.7139 75.5872 105.512 76.5526 120.718 63.7603L123.534 61.9903V88.9829C131.539 90.6588 150.51 93.2471 162.353 90.1898L157.969 93.2068C157.62 97.726 157.8 105.315 167.1 109.016C167.671 108.835 168.305 108.637 168.992 108.421C178.895 105.315 199.862 98.7389 202.42 92.0805C205.139 83.4919 203.883 81.1152 198.162 70.2884C198.041 70.0607 197.919 69.829 197.794 69.5933C191.76 58.1687 179.732 36.3251 175.749 32.5437C171.767 28.7623 155.957 22.5271 146.544 24.9407ZM169.474 86.0061V66.013C172.276 68.7622 177.978 74.9757 178.364 77.8399C178.75 80.7041 172.598 84.4775 169.474 86.0061Z" fill="#5C51BB"/>
<path d="M105.108 43.9683C119.493 27.1693 138.724 24.2836 146.542 24.9407C155.956 22.5271 171.765 28.7623 175.747 32.5437C178.522 35.1774 185.198 46.573 191.034 57.1077L174.46 71.484L171.725 68.4669L170.035 85.8854L161.628 90.6323C153.14 92.0402 132.342 92.523 123.532 88.9829V61.9903L120.716 63.7603C119.033 65.1763 117.367 66.4241 115.728 67.5216L105.108 43.9683Z" fill="#CDCAEA"/>
<path d="M156.31 45.6982L157.462 48.633L161.488 46.6845L158.899 50.4447L162.233 52.2273L158.386 52.7039L158.615 55.8507L156.31 53.7092L153.125 56.6401L154.232 52.7039L151.13 52.2273L153.72 50.4447L152.644 47.9313L155.157 48.633L156.31 45.6982Z" fill="#484096"/>
<path d="M123.854 58.8126C123.241 54.4068 122.771 50.7077 123.241 47.9512" stroke="black" stroke-width="0.965461" stroke-linecap="round"/>
<path d="M170.84 66.6974C170.227 62.2917 169.757 58.5923 170.227 55.8359" stroke="black" stroke-width="0.965461" stroke-linecap="round"/>
<path d="M168.186 58.8133C167.941 57.051 167.753 55.5714 167.941 54.4688" stroke="black" stroke-width="0.965461" stroke-linecap="round"/>
<path d="M142.279 13.6489C143.966 13.6489 145.334 12.2814 145.334 10.5945C145.334 8.90756 143.966 7.54004 142.279 7.54004C140.592 7.54004 139.225 8.90756 139.225 10.5945C139.225 12.2814 140.592 13.6489 142.279 13.6489Z" fill="black"/>
<path d="M142.279 19.2818C143.966 19.2818 145.334 17.9142 145.334 16.2273C145.334 14.5404 143.966 13.1729 142.279 13.1729C140.592 13.1729 139.225 14.5404 139.225 16.2273C139.225 17.9142 140.592 19.2818 142.279 19.2818Z" fill="black"/>
<path d="M139.226 16.2271C140.913 16.2271 142.281 14.8595 142.281 13.1726C142.281 11.4857 140.913 10.1182 139.226 10.1182C137.539 10.1182 136.172 11.4857 136.172 13.1726C136.172 14.8595 137.539 16.2271 139.226 16.2271Z" fill="black"/>
<path d="M166.238 12.7428C166.238 19.7804 160.533 25.4856 153.494 25.4856C141.659 26.631 140.752 19.7804 140.752 12.7428C140.752 5.70515 146.457 0 153.494 0C160.533 0 166.238 5.70515 166.238 12.7428Z" fill="#5C51BB"/>
<path d="M153.496 0C148.461 0 144.108 2.91996 142.039 7.15889L166.118 10.977C165.258 4.77501 159.935 0 153.496 0Z" fill="#363071"/>
<path d="M165.618 10.8825L132.543 6.30078" stroke="black" stroke-width="0.965461" stroke-linecap="round"/>
<path d="M159.556 26.5834L159.318 22.8131L147.529 22.2881L146.861 25.8198C149.915 32.1196 158.316 28.8742 159.556 26.5834Z" fill="#5C51BB"/>
<path d="M165.476 16.2268C167.269 16.2268 168.722 14.7524 168.722 12.9337C168.722 11.115 167.269 9.64062 165.476 9.64062C163.684 9.64062 162.231 11.115 162.231 12.9337C162.231 14.7524 163.684 16.2268 165.476 16.2268Z" fill="black"/>
<path d="M168.769 16.2273C169.691 16.2273 170.439 15.458 170.439 14.5091C170.439 13.5602 169.691 12.791 168.769 12.791C167.846 12.791 167.098 13.5602 167.098 14.5091C167.098 15.458 167.846 16.2273 168.769 16.2273Z" fill="black"/>
<path d="M170.057 17.4195C170.057 19.5545 168.339 21.5888 166.192 21.9057C163.28 22.3352 160.798 19.4113 160.798 17.2763C160.798 15.1413 164.056 13.5537 166.192 13.5537C168.326 13.5537 170.057 15.2845 170.057 17.4195Z" fill="black"/>
<path d="M142.256 10.8679C144.033 11.1016 145.667 9.82931 145.903 8.02607L139.468 7.17969C139.231 8.98293 140.48 10.6342 142.256 10.8679Z" fill="black"/>
<path d="M146.427 10.4291C147.347 10.4975 148.15 9.78583 148.22 8.83952L144.889 8.5918C144.819 9.53803 145.507 10.3606 146.427 10.4291Z" fill="black"/>
<path d="M161.781 18.0412C163.062 18.4624 164.515 17.5423 165.027 15.9862C165.538 14.4301 164.914 12.8272 163.632 12.4061C162.351 11.9849 160.897 12.905 160.386 14.4611C159.875 16.0172 160.499 17.6201 161.781 18.0412Z" fill="#484096"/>
<path d="M161.036 15.2235C161.466 14.5076 162.659 13.6486 163.756 13.8395" stroke="black" stroke-width="0.643641" stroke-linecap="round"/>
<path d="M163.057 13.9492C163.186 14.1486 163.459 14.8048 163.501 15.252" stroke="black" stroke-width="0.643641" stroke-linecap="round"/>
<path d="M147.815 18.3272L150.548 14.29L151.333 18.9393L147.815 18.3272Z" fill="#484096"/>
<path d="M150.261 14.5811L147.791 18.0932L151.101 18.6054" stroke="black" stroke-width="0.643641" stroke-linecap="round"/>
<path d="M149.772 21.0466C150.202 21.0625 151.281 20.9894 152.159 20.5693" stroke="black" stroke-width="0.643641" stroke-linecap="round"/>
<path d="M153.257 10.9785C153.687 10.9626 154.765 11.0358 155.644 11.4558" stroke="black" stroke-width="0.643641" stroke-linecap="round"/>
<path d="M146.48 11.1699C146.05 11.154 144.972 11.2272 144.093 11.6472" stroke="black" stroke-width="0.643641" stroke-linecap="round"/>
<path d="M150.488 25.1032C151.538 25.2941 153.4 25.4373 154.831 24.2441" stroke="black" stroke-width="0.643641" stroke-linecap="round"/>
<path d="M146.05 14.7955C146.498 14.7955 146.861 14.4323 146.861 13.9842C146.861 13.5361 146.498 13.1729 146.05 13.1729C145.602 13.1729 145.239 13.5361 145.239 13.9842C145.239 14.4323 145.602 14.7955 146.05 14.7955Z" fill="black"/>
<path d="M154.069 14.7955C154.517 14.7955 154.88 14.4323 154.88 13.9842C154.88 13.5361 154.517 13.1729 154.069 13.1729C153.621 13.1729 153.257 13.5361 153.257 13.9842C153.257 14.4323 153.621 14.7955 154.069 14.7955Z" fill="black"/>
<path d="M155.16 19.3643C156.053 19.3643 156.776 18.6405 156.776 17.7476C156.776 16.8547 156.053 16.1309 155.16 16.1309C154.267 16.1309 153.543 16.8547 153.543 17.7476C153.543 18.6405 154.267 19.3643 155.16 19.3643Z" fill="#484096"/>
<path d="M144.756 18.5049C145.649 18.5049 146.373 17.7811 146.373 16.8882C146.373 15.9953 145.649 15.2715 144.756 15.2715C143.863 15.2715 143.14 15.9953 143.14 16.8882C143.14 17.7811 143.863 18.5049 144.756 18.5049Z" fill="#484096"/>
<path d="M51.847 85.2818C60.1117 85.2818 66.8116 78.5819 66.8116 70.3172C66.8116 62.0524 60.1117 55.3525 51.847 55.3525C43.5822 55.3525 36.8823 62.0524 36.8823 70.3172C36.8823 78.5819 43.5822 85.2818 51.847 85.2818Z" fill="#CDCAEA"/>
<path d="M63.674 105.154C57.0977 105.154 51.7666 110.485 51.7666 117.062H75.5813C75.5813 110.485 70.2503 105.154 63.674 105.154Z" fill="#CDCAEA"/>
<path d="M51.9009 50.8477C49.8627 52.7518 48.8114 56.1899 60.9118 54.7095" stroke="black" stroke-width="0.965461" stroke-linecap="round"/>
<path d="M137.292 169.158L151.934 147.395" stroke="white" stroke-width="0.965461" stroke-linecap="round"/>
<path d="M126.068 131.786L142.441 106.201" stroke="white" stroke-width="0.965461" stroke-linecap="round"/>
<path d="M45.813 74.076C46.6064 70.0371 50.2461 62.5693 51.3423 64.8896C52.7126 67.7908 52.1837 76.0954 50.3326 76.5781C48.4814 77.0617 51.1739 64.9467 53.4819 65.8004C55.3282 66.4826 54.2511 70.0283 53.4819 71.7154C53.7543 69.4402 54.1044 66.2549 57.8812 64.1221" stroke="black" stroke-width="0.965461" stroke-linecap="round"/>
</svg>
