<svg width="17" height="22" viewBox="0 0 17 22" fill="currentColor" xmlns="http://www.w3.org/2000/svg">
<path d="M15.5319 12.1285L10.9789 10.8728C11.4435 10.4851 11.8523 10.0351 12.1938 9.53552C12.6702 8.82475 12.9924 8.02205 13.1397 7.17912C13.287 6.3362 13.256 5.47178 13.0487 4.64157C12.8415 3.81135 12.4626 3.03379 11.9364 2.35897C11.4103 1.68415 10.7486 1.12705 9.994 0.72359C9.23939 0.320132 8.40863 0.0792526 7.55524 0.0164957C6.70186 -0.0462611 5.84479 0.0704876 5.03929 0.359217C4.23379 0.647946 3.49771 1.10225 2.87852 1.69284C2.25933 2.28344 1.77075 2.99721 1.44428 3.78817C0.982545 4.90618 0.86218 6.13589 1.09835 7.32221C1.33453 8.50853 1.91667 9.59835 2.77138 10.4543L2.84285 10.5257C3.00337 10.5544 3.16066 10.5988 3.31243 10.6585C2.98902 10.5263 2.64048 10.4671 2.29159 10.4849C1.8073 10.5141 1.34274 10.6871 0.957244 10.9817C0.571748 11.2763 0.282831 11.6791 0.127405 12.1387C0.0257807 12.4379 -0.0157089 12.7543 0.00531374 13.0697C0.0263364 13.385 0.109452 13.6931 0.249901 13.9762L2.74076 18.3964C2.74076 18.3964 4.54765 22 7.90622 22H11.4894C12.5725 21.9925 13.6293 21.6661 14.528 21.0615C15.4267 20.4569 16.1274 19.601 16.5426 18.6006C16.8181 17.9337 16.9603 17.2193 16.9611 16.4977V14.5581C16.9692 14.0609 16.8401 13.571 16.5879 13.1424C16.3358 12.7138 15.9704 12.363 15.5319 12.1285ZM3.09806 5.32966C3.25592 4.53846 3.64462 3.81176 4.21511 3.24127C4.78559 2.67078 5.51231 2.28209 6.3035 2.12423C7.09513 1.96066 7.91782 2.04255 8.66165 2.359C9.28148 2.61597 9.82842 3.02173 10.2541 3.54038C10.6798 4.05902 10.9712 4.67459 11.1024 5.33262C11.2336 5.99065 11.2006 6.67086 11.0064 7.31312C10.8121 7.95537 10.4626 8.53988 9.98875 9.01491L9.85603 9.12719V6.60571C9.81227 5.87052 9.48938 5.17981 8.95335 4.67474C8.41733 4.16967 7.70865 3.88839 6.97216 3.88839C6.23566 3.88839 5.52698 4.16967 4.99095 4.67474C4.45493 5.17981 4.13202 5.87052 4.08826 6.60571V8.87198C3.76686 8.52623 3.51091 8.125 3.33285 7.6878C3.0164 6.94397 2.93449 6.12128 3.09806 5.32966ZM14.9398 16.4773C14.9396 16.9313 14.8493 17.3807 14.674 17.7995C14.4988 18.2183 14.2421 18.5982 13.919 18.9171C13.6005 19.236 13.2224 19.4892 12.8063 19.6623C12.3928 19.8372 11.9485 19.9274 11.4996 19.9277H7.91642C5.87474 19.9277 4.60889 17.4879 4.59868 17.4471L2.10784 13.037C2.07735 12.9547 2.07735 12.8641 2.10784 12.7818C2.14697 12.6934 2.21549 12.6213 2.30179 12.5776H2.44471H2.52638C3.27289 12.9679 3.83714 13.6348 4.09848 14.4356C4.15616 14.5924 4.24664 14.7351 4.36389 14.8541C4.49062 14.9668 4.64044 15.0504 4.80287 15.0991C4.96702 15.1406 5.13891 15.1406 5.30307 15.0991C5.46916 15.0628 5.62355 14.9856 5.75224 14.8745C5.88486 14.7643 5.98976 14.6244 6.0585 14.4662C6.13057 14.3128 6.16886 14.1457 6.17079 13.9762V6.63633C6.16723 6.42332 6.24405 6.21679 6.38594 6.05787C6.52782 5.89896 6.72437 5.79933 6.93642 5.77883C7.04923 5.77185 7.16226 5.78807 7.26855 5.82649C7.37484 5.86491 7.47213 5.92471 7.5544 6.0022C7.63667 6.07969 7.70219 6.17324 7.7469 6.27704C7.79161 6.38084 7.81456 6.49269 7.81435 6.60571V10.9851C7.81369 11.2581 7.88508 11.5265 8.0213 11.7631C8.15752 11.9997 8.35375 12.1961 8.59018 12.3327L14.5213 13.7516C14.6435 13.8222 14.7454 13.9232 14.817 14.0449C14.8885 14.1665 14.9273 14.3046 14.9296 14.4458L14.9398 16.4773Z" fill="currentColor"/>
</svg>
