<svg width="8" height="4" viewBox="0 0 8 4" fill="none" xmlns="http://www.w3.org/2000/svg">
<path d="M6.91715 0.349194C6.80785 0.240548 6.66 0.179565 6.5059 0.179565C6.35179 0.179565 6.20394 0.240548 6.09465 0.349194L4.00048 2.41419L1.93548 0.349194C1.82618 0.240548 1.67834 0.179565 1.52423 0.179565C1.37012 0.179565 1.22227 0.240548 1.11298 0.349194C1.0583 0.403423 1.01491 0.46794 0.985292 0.539025C0.955677 0.610109 0.94043 0.686354 0.94043 0.763361C0.94043 0.840368 0.955677 0.916613 0.985292 0.987698C1.01491 1.05878 1.0583 1.1233 1.11298 1.17753L3.58631 3.65086C3.64054 3.70554 3.70506 3.74893 3.77614 3.77855C3.84723 3.80816 3.92347 3.82341 4.00048 3.82341C4.07749 3.82341 4.15373 3.80816 4.22482 3.77855C4.2959 3.74893 4.36042 3.70554 4.41465 3.65086L6.91715 1.17753C6.97182 1.1233 7.01522 1.05878 7.04483 0.987698C7.07445 0.916613 7.0897 0.840368 7.0897 0.763361C7.0897 0.686354 7.07445 0.610109 7.04483 0.539025C7.01522 0.46794 6.97182 0.403423 6.91715 0.349194Z" fill="#1C1C1E"/>
</svg>
