<svg width="21" height="19" viewBox="0 0 21 19" fill="currentColor" xmlns="http://www.w3.org/2000/svg">
<path d="M19.9033 15.415L12.2733 8.96495L19.8633 2.58494C19.9139 2.54269 19.952 2.48737 19.9733 2.42497C20.0049 2.36295 20.0219 2.29455 20.0233 2.22496C20.0208 2.15872 20.0037 2.09383 19.9733 2.03496C19.952 1.97256 19.9139 1.91724 19.8633 1.87498C19.4365 1.38068 18.8338 1.07219 18.1833 1.015C17.8627 0.986207 17.5397 1.02084 17.2326 1.11693C16.9254 1.21301 16.6402 1.36867 16.3933 1.575L10.3333 7.325L7.33326 4.77495C7.41308 4.48161 7.45343 4.17898 7.45326 3.87498C7.45234 3.11294 7.23376 2.36698 6.82325 1.72496C6.41608 1.09344 5.83171 0.596029 5.14326 0.294967C4.46045 0.00149938 3.70404 -0.0752869 2.97617 0.074935C2.24831 0.225157 1.58408 0.595174 1.07325 1.13499C0.547892 1.68699 0.199636 2.38351 0.0732508 3.13499C-0.0724989 3.88637 0.000406414 4.66379 0.283273 5.37498C0.557588 6.0807 1.03858 6.68715 1.66328 7.11497C2.27101 7.54496 2.99883 7.77244 3.74326 7.765C4.68148 7.77279 5.58566 7.41398 6.26325 6.765L8.60325 9.00499L6.26325 11.245C5.58003 10.6048 4.67953 10.2475 3.74326 10.245C2.99855 10.2458 2.27222 10.4762 1.66328 10.905C1.03858 11.3328 0.557588 11.9393 0.283273 12.645C0.00233346 13.3532 -0.0705453 14.1268 0.0732508 14.875C0.201957 15.6257 0.549892 16.3216 1.07325 16.875C1.58736 17.411 2.24837 17.7833 2.97328 17.945C3.70295 18.0953 4.46131 18.0149 5.14326 17.715C5.83294 17.4207 6.41826 16.926 6.82325 16.295C7.23376 15.6529 7.45234 14.9071 7.45326 14.145C7.45404 13.841 7.41368 13.5382 7.33326 13.245L10.3333 10.695L16.3933 16.445C16.8961 16.8585 17.5408 17.0587 18.1894 17.0026C18.838 16.9465 19.4389 16.6387 19.8633 16.145C19.9139 16.1028 19.952 16.0474 19.9733 15.985C20.0037 15.9261 20.0208 15.8612 20.0233 15.795C20.0219 15.7254 20.0049 15.657 19.9733 15.595C19.9668 15.5297 19.9426 15.4675 19.9033 15.415ZM5.11326 5.21495C4.94496 5.38694 4.7444 5.52408 4.52305 5.61845C4.30169 5.71283 4.06387 5.76264 3.82325 5.765C3.58004 5.76189 3.33944 5.71444 3.11326 5.62498C2.89346 5.52505 2.69357 5.38611 2.52326 5.21495C2.35448 5.03538 2.22203 4.82485 2.13325 4.59495C1.99617 4.25161 1.96006 3.87623 2.02915 3.51305C2.09825 3.14986 2.26968 2.81399 2.52326 2.54497C2.69068 2.36786 2.8911 2.2252 3.11326 2.12498C3.34957 2.05349 3.59708 2.02635 3.84327 2.04497C4.08487 2.04696 4.32358 2.09756 4.54521 2.19377C4.76683 2.28998 4.96682 2.42982 5.13325 2.60496C5.30056 2.78187 5.43291 2.98883 5.52326 3.21495C5.61392 3.44427 5.6614 3.6884 5.66328 3.93498C5.64667 4.41546 5.45038 4.87219 5.11326 5.21495ZM5.50327 14.795C5.41669 15.023 5.2839 15.2307 5.11326 15.405C4.77437 15.7551 4.31044 15.9565 3.82325 15.9649C3.58046 15.958 3.34052 15.9107 3.11326 15.825C2.8911 15.7248 2.69068 15.5821 2.52326 15.405C2.18435 15.0449 1.9949 14.5695 1.99326 14.075C1.98855 13.8278 2.03624 13.5824 2.13325 13.355C2.22203 13.1251 2.35448 12.9145 2.52326 12.735C2.69357 12.5638 2.89346 12.4249 3.11326 12.325C3.33712 12.2268 3.57879 12.1757 3.82325 12.175C4.30997 12.1856 4.77312 12.3867 5.11326 12.735C5.28204 12.9145 5.41449 13.1251 5.50327 13.355C5.60028 13.5824 5.64798 13.8278 5.64326 14.075C5.64566 14.322 5.59805 14.5669 5.50327 14.795ZM10.3633 9.46495C10.2307 9.46495 10.1035 9.41229 10.0097 9.31853C9.91595 9.22476 9.86326 9.09756 9.86326 8.96495C9.86326 8.83234 9.91595 8.7052 10.0097 8.61143C10.1035 8.51767 10.2307 8.46495 10.3633 8.46495C10.4959 8.46495 10.623 8.51767 10.7168 8.61143C10.8106 8.7052 10.8633 8.83234 10.8633 8.96495C10.8633 9.09756 10.8106 9.22476 10.7168 9.31853C10.623 9.41229 10.4959 9.46495 10.3633 9.46495Z" fill="currentColor"/>
</svg>
