
<svg  width="16px" height="16px" xmlns="http://www.w3.org/2000/svg" fill="currentColor">
  <g transform="matrix(1 0 0 1 -16 -153 )">
    <path d="M 0 1.939933155809171  C 0 1.939933155809171  1.5418504432800095 3.461623996016421  1.5418504432800095 3.461623996016421  C 2.1585905260648226 2.8298108733301945  2.7753306613647415 2.260289339915207  3.048458419064244 2.375973432054363  C 3.4889870571269825 2.5539489676024414  3.0484582615189257 3.292547401009346  2.7841410681782617 3.7285874650911697  C 2.563876749146892 4.102336072503861  0.26431735088598235 7.19021146110759  0.26431735088598235 9.343715477041908  C 0.26431735088598235 10.482758862116937  0.6872247552008335 11.426028817301669  1.4449340252723697 11.995550509839182  C 2.1057269823664777 12.493882004069718  2.9779733790424814 12.645162097056678  3.770924906549369 12.404895118099677  C 4.713656238216923 12.129033039989189  5.488986952096771 11.159065984717024  6.4669605411996764 9.939933580135907  C 7.533039878921172 8.614015851573901  8.960352565415441 6.878753939078138  10.061674160572288 6.878753939078138  C 11.49779751645561 6.878753939078138  11.515418868362485 7.77753122037006  11.612335168211136 8.471635773204998  C 8.281938689664083 9.041157465742511  6.872246921827063 11.7374858089227  6.872246921827063 13.250277880971682  C 6.872246921827063 14.763069953020665  8.140969449862252 16  9.700440811799513 16  C 11.136564167682835 16  13.48017699166165 14.816463198460372  13.832599907363353 10.571746755862975  C 13.832599907363353 10.571746755862975  16 10.571746755862975  16 10.571746755862975  L 16 8.347052594662522  C 16 8.347052594662522  13.823789132944091 8.347052594662522  13.823789132944091 8.347052594662522  C 13.69163053627376 6.878754469486558  12.863436147407802 4.609566573576453  10.273127705184397 4.609566573576453  C 8.290748833902072 4.609566573576453  6.590308652283829 6.309233042153254  5.920705130830884 7.136819276484725  C 5.409691925382337 7.786429988528327  4.105727179298125 9.34371527813875  3.903084002113208 9.557285912840317  C 3.6828196830818385 9.824249222792542  3.3039647329554347 10.304783286788226  2.9251100979196667 10.304783286788226  C 2.528634334166223 10.304783286788226  2.290749148992708 9.56618478708027  2.607929781001505 8.596218103094  C 2.9162998223939116 7.62625141910773  3.841410104116449 6.051168447318457  4.237885867869893 5.463849165423566  C 4.925110518040515 4.449388640645961  5.383259654639657 3.755283875647655  5.383259654639657 2.545050239224806  C 5.383259654639657 0.6140156394105338  3.938326154518347 0  3.171806320087973 0  C 2.00881066938905 0  0.995594822850793 0.8898776644801817  0.7753305038194237 1.1123470806002271  C 0.45814987181062633 1.4327030525428948  0.19383259969730293 1.6996661768521704  0 1.939933155809171  Z M 11.603524393791874 10.740823138706682  C 11.33920720045121 13.134594107077579  10.343612377600417 13.837597003744047  9.726872294815603 13.837597003744047  C 9.453744537116101 13.837597003744047  9.074890112140757 13.606229429435418  9.074890112140757 13.196885696348817  C 9.074890112140757 12.662959076444372  9.718061730456766 11.239154632937217  11.603524393791874 10.740823138706682  Z " fill-rule="nonzero" stroke="none" fill="currentColor" transform="matrix(1 0 0 1 16 153 )" />
  </g>
</svg>
