<svg width="16" height="20" viewBox="0 0 16 20" fill="currentColor" xmlns="http://www.w3.org/2000/svg">
<path d="M8 11C8.26522 11 8.51957 11.1054 8.70711 11.2929C8.89464 11.4805 9 11.7348 9 12V15C9 15.2653 8.89464 15.5196 8.70711 15.7071C8.51957 15.8947 8.26522 16 8 16C7.73478 16 7.48043 15.8947 7.29289 15.7071C7.10536 15.5196 7 15.2653 7 15V12C7 11.7348 7.10536 11.4805 7.29289 11.2929C7.48043 11.1054 7.73478 11 8 11ZM3 7.00004H11V5.00004C11.0015 4.40623 10.8267 3.82534 10.4977 3.33095C10.1688 2.83655 9.70058 2.45089 9.15232 2.2228C8.60406 1.99472 8.00044 1.93447 7.41791 2.04969C6.83538 2.16491 6.30015 2.45041 5.88 2.87004C5.50405 3.25411 5.23515 3.72987 5.1 4.25004C5.06717 4.37742 5.00957 4.49709 4.93049 4.60221C4.85141 4.70734 4.75241 4.79585 4.63912 4.86271C4.52583 4.92957 4.40048 4.97346 4.27023 4.99188C4.13998 5.01029 4.00738 5.00287 3.88 4.97004C3.75262 4.93721 3.63295 4.87961 3.52783 4.80053C3.4227 4.72146 3.33419 4.62245 3.26733 4.50916C3.20047 4.39587 3.15658 4.27052 3.13817 4.14028C3.11975 4.01003 3.12717 3.87742 3.16 3.75004C3.38782 2.88484 3.83966 2.09498 4.47 1.46004C5.16982 0.762408 6.06066 0.287778 7.03004 0.096085C7.99942 -0.0956079 9.00386 0.00423205 9.91654 0.382998C10.8292 0.761764 11.6092 1.40247 12.158 2.22422C12.7068 3.04596 12.9998 4.01189 13 5.00004V7.00004C13.7956 7.00004 14.5587 7.31611 15.1213 7.87872C15.6839 8.44133 16 9.20439 16 10V17C16 17.7957 15.6839 18.5588 15.1213 19.1214C14.5587 19.684 13.7956 20 13 20H3C2.20435 20 1.44129 19.684 0.878679 19.1214C0.316071 18.5588 0 17.7957 0 17V10C0 9.20439 0.316071 8.44133 0.878679 7.87872C1.44129 7.31611 2.20435 7.00004 3 7.00004ZM2 17C2 17.2653 2.10536 17.5196 2.29289 17.7071C2.48043 17.8947 2.73478 18 3 18H13C13.2652 18 13.5196 17.8947 13.7071 17.7071C13.8946 17.5196 14 17.2653 14 17V10C14 9.73483 13.8946 9.48047 13.7071 9.29294C13.5196 9.1054 13.2652 9.00004 13 9.00004H3C2.73478 9.00004 2.48043 9.1054 2.29289 9.29294C2.10536 9.48047 2 9.73483 2 10V17Z" fill="currentColor"/>
</svg>
