<?xml version="1.0" encoding="utf-8"?>
<svg version="1.1" xmlns:xlink="http://www.w3.org/1999/xlink" width="12px" height="12px" xmlns="http://www.w3.org/2000/svg">
  <g transform="matrix(1 0 0 1 -18 -15 )">
    <path d="M 12 0.3333333333333333  C 12 0.14666666587193805  11.853333334128061 0  11.666666666666666 0  C 11.666666666666666 0  11.56000010172526 0.019999980926513672  11.56000010172526 0.019999980926513672  L 8 1.3999999364217122  L 4 0  C 4 0  0.23999993006388343 1.2666667302449544  0.23999993006388343 1.2666667302449544  C 0.09999993443489075 1.3133333971103032  0 1.4333334068457284  0 1.5866667429606118  C 0 1.5866667429606118  0 11.666666666666666  0 11.666666666666666  C 0 11.853333334128061  0.14666666587193805 12  0.3333333333333333 12  C 0.3333333333333333 12  0.440000057220459 11.979999542236328  0.440000057220459 11.979999542236328  L 4 10.599999745686848  L 8 12  C 8 12  11.759999593098957 10.733333587646484  11.759999593098957 10.733333587646484  C 11.89999958872795 10.686666920781136  12 10.566667228937149  12 10.413333892822266  C 12 10.413333892822266  12 0.3333333333333333  12 0.3333333333333333  Z M 4.666666666666666 9.419999440511067  L 4.666666666666666 1.6466665267944336  L 7.333333333333332 2.5799999237060547  L 7.333333333333332 10.353333791097004  L 4.666666666666666 9.419999440511067  Z M 1.3333333333333333 10.206666310628254  L 1.3333333333333333 2.3066666920979815  L 3.333333333333333 1.6333332061767578  L 3.333333333333333 9.433333079020182  L 1.3333333333333333 10.206666310628254  Z M 10.666666666666666 1.7999998728434243  L 10.666666666666666 9.693333943684895  L 8.666666666666666 10.366666158040363  L 8.666666666666666 2.573333422342936  L 10.666666666666666 1.7999998728434243  Z " fill-rule="nonzero" fill="#242334" stroke="none" transform="matrix(1 0 0 1 18 15 )" />
  </g>
</svg>