<svg width="20" height="20" viewBox="0 0 20 20" fill="currentColor" xmlns="http://www.w3.org/2000/svg">
<path d="M9.99967 12.5C10.8837 12.5 11.7316 12.1488 12.3567 11.5237C12.9818 10.8986 13.333 10.0507 13.333 9.16668V4.16668C13.333 3.28262 12.9818 2.43478 12.3567 1.80965C11.7316 1.18453 10.8837 0.833344 9.99967 0.833344C9.11562 0.833344 8.26777 1.18453 7.64265 1.80965C7.01753 2.43478 6.66634 3.28262 6.66634 4.16668V9.16668C6.66634 10.0507 7.01753 10.8986 7.64265 11.5237C8.26777 12.1488 9.11562 12.5 9.99967 12.5ZM8.33301 4.16668C8.33301 3.72465 8.5086 3.30073 8.82116 2.98817C9.13372 2.6756 9.55765 2.50001 9.99967 2.50001C10.4417 2.50001 10.8656 2.6756 11.1782 2.98817C11.4907 3.30073 11.6663 3.72465 11.6663 4.16668V9.16668C11.6663 9.6087 11.4907 10.0326 11.1782 10.3452C10.8656 10.6577 10.4417 10.8333 9.99967 10.8333C9.55765 10.8333 9.13372 10.6577 8.82116 10.3452C8.5086 10.0326 8.33301 9.6087 8.33301 9.16668V4.16668ZM16.6663 9.16668C16.6663 8.94566 16.5785 8.7337 16.4223 8.57742C16.266 8.42114 16.054 8.33334 15.833 8.33334C15.612 8.33334 15.4 8.42114 15.2438 8.57742C15.0875 8.7337 14.9997 8.94566 14.9997 9.16668C14.9997 10.4928 14.4729 11.7645 13.5352 12.7022C12.5975 13.6399 11.3258 14.1667 9.99967 14.1667C8.67359 14.1667 7.40182 13.6399 6.46414 12.7022C5.52646 11.7645 4.99967 10.4928 4.99967 9.16668C4.99967 8.94566 4.91188 8.7337 4.7556 8.57742C4.59932 8.42114 4.38735 8.33334 4.16634 8.33334C3.94533 8.33334 3.73337 8.42114 3.57709 8.57742C3.42081 8.7337 3.33301 8.94566 3.33301 9.16668C3.33448 10.7894 3.92778 12.3559 5.00167 13.5725C6.07557 14.7891 7.55632 15.5722 9.16634 15.775V17.5H7.49967C7.27866 17.5 7.0667 17.5878 6.91042 17.7441C6.75414 17.9004 6.66634 18.1123 6.66634 18.3333C6.66634 18.5544 6.75414 18.7663 6.91042 18.9226C7.0667 19.0789 7.27866 19.1667 7.49967 19.1667H12.4997C12.7207 19.1667 12.9327 19.0789 13.0889 18.9226C13.2452 18.7663 13.333 18.5544 13.333 18.3333C13.333 18.1123 13.2452 17.9004 13.0889 17.7441C12.9327 17.5878 12.7207 17.5 12.4997 17.5H10.833V15.775C12.443 15.5722 13.9238 14.7891 14.9977 13.5725C16.0716 12.3559 16.6649 10.7894 16.6663 9.16668Z" fill="currentColor"/>
</svg>
