<svg width="19" height="20" viewBox="0 0 19 20" fill="currentColor" xmlns="http://www.w3.org/2000/svg">
<path d="M9.89455 7.12C10.1504 7.39462 10.4593 7.61428 10.8026 7.76556C11.1458 7.91685 11.5162 7.99659 11.8912 8H14.7165V11C14.7149 11.2609 14.8152 11.5121 14.996 11.7C15.0787 11.7935 15.18 11.8686 15.2936 11.9203C15.4071 11.972 15.5302 11.9991 15.6549 12C15.7809 11.9981 15.9052 11.9705 16.0202 11.9189C16.1351 11.8674 16.2384 11.7929 16.3238 11.7C16.5046 11.5121 16.6049 11.2609 16.6033 11V7.39001C16.6034 6.83933 16.3926 6.3096 16.0143 5.91003L11.0227 0.669983C10.8221 0.458259 10.5805 0.289688 10.3128 0.1745C10.045 0.0593112 9.75668 -6.52198e-05 9.46528 5.37588e-08H3.32554C2.95008 0.000442401 2.57881 0.0788797 2.23514 0.230347C1.89148 0.381814 1.58288 0.603024 1.32889 0.880005C0.79251 1.45473 0.496044 2.21326 0.500289 3V17C0.49806 17.7864 0.794245 18.5442 1.32889 19.12C1.58438 19.3951 1.89325 19.615 2.23658 19.7664C2.57991 19.9177 2.95046 19.9972 3.32554 20H10.9827C11.1087 19.9981 11.233 19.9705 11.348 19.9189C11.463 19.8674 11.5663 19.7929 11.6516 19.7C11.8324 19.5121 11.9327 19.2609 11.9311 19C11.9353 18.7356 11.8348 18.4804 11.6516 18.29C11.5649 18.2004 11.4609 18.1293 11.3459 18.0811C11.2309 18.033 11.1073 18.0088 10.9827 18.01H3.38547C3.25949 18.0081 3.1352 17.9805 3.02021 17.9289C2.90521 17.8773 2.80191 17.8029 2.71658 17.71C2.53944 17.5206 2.44279 17.2695 2.44704 17.01V3.01001C2.44624 2.74812 2.54225 2.49517 2.71658 2.29999C2.80241 2.20849 2.90603 2.13557 3.02106 2.08569C3.13609 2.03582 3.26012 2.01007 3.38547 2.01001H9.09587V5.01001C9.08801 5.78887 9.37315 6.54214 9.89455 7.12ZM10.9827 3.41003L13.4286 6H11.9311C11.805 5.99927 11.6803 5.97224 11.5652 5.92059C11.45 5.86894 11.3468 5.7938 11.2623 5.70001C11.0815 5.51215 10.9812 5.26093 10.9827 5V3.41003Z" fill="currentColor"/>
<path d="M18.2206 16.2901C18.1348 16.1986 18.0311 16.1256 17.9161 16.0757C17.8011 16.0258 17.677 16.0001 17.5517 16H16.6133V15C16.6175 14.7357 16.517 14.4804 16.3337 14.2901C16.2479 14.1986 16.1443 14.1256 16.0293 14.0757C15.9142 14.0258 15.7902 14.0001 15.6649 14C15.5408 13.999 15.418 14.0244 15.3044 14.0744C15.1909 14.1244 15.0891 14.1979 15.006 14.2901C14.8228 14.4804 14.7222 14.7357 14.7264 15V16H13.778C13.654 15.999 13.5311 16.0244 13.4176 16.0744C13.304 16.1244 13.2023 16.1979 13.1192 16.2901C12.9359 16.4804 12.8354 16.7357 12.8396 17C12.838 17.261 12.9384 17.5122 13.1192 17.7C13.2018 17.7936 13.3032 17.8686 13.4167 17.9203C13.5302 17.972 13.6533 17.9991 13.778 18H14.7264V19C14.7249 19.261 14.8252 19.5122 15.006 19.7C15.0886 19.7936 15.19 19.8686 15.3035 19.9203C15.4171 19.972 15.5402 19.9991 15.6649 20C15.7909 19.9981 15.9151 19.9705 16.0301 19.919C16.1451 19.8674 16.2484 19.7929 16.3337 19.7C16.5145 19.5122 16.6149 19.261 16.6133 19V18H17.5517C17.6777 17.9981 17.802 17.9705 17.917 17.919C18.032 17.8674 18.1353 17.7929 18.2206 17.7C18.4014 17.5122 18.5017 17.261 18.5001 17C18.5043 16.7357 18.4038 16.4804 18.2206 16.2901Z" fill="currentColor"/>
</svg>
