<svg width="22" height="18" viewBox="0 0 22 18" fill="currentColor" xmlns="http://www.w3.org/2000/svg">
<path d="M20.8701 16.29L11.8701 0.710012C11.7829 0.556114 11.6564 0.428106 11.5035 0.339047C11.3507 0.249987 11.177 0.203064 11.0001 0.203064C10.8232 0.203064 10.6494 0.249987 10.4966 0.339047C10.3438 0.428106 10.2173 0.556114 10.1301 0.710012L1.13007 16.29C1.0423 16.442 0.996094 16.6145 0.996094 16.79C0.996094 16.9655 1.0423 17.138 1.13007 17.29C1.21817 17.4426 1.34504 17.5692 1.49781 17.657C1.65059 17.7448 1.82386 17.7907 2.00007 17.79H20.0001C20.1763 17.7907 20.3495 17.7448 20.5023 17.657C20.6551 17.5692 20.782 17.4426 20.8701 17.29C20.9578 17.138 21.004 16.9655 21.004 16.79C21.004 16.6145 20.9578 16.442 20.8701 16.29ZM3.73007 15.79L11.0001 3.21001L18.2701 15.79H3.73007Z" fill="currentColor"/>
</svg>
