<svg width="14" height="14" viewBox="0 0 14 14" fill="none" xmlns="http://www.w3.org/2000/svg">
<rect width="14" height="14" rx="7" fill="#FFECB7"/>
<path d="M9.26603 7.18119C9.61182 6.75354 9.83014 6.23671 9.89587 5.69019C9.9616 5.14366 9.87206 4.58964 9.63756 4.09186C9.40306 3.59409 9.03313 3.1728 8.57033 2.87646C8.10752 2.58011 7.57065 2.42076 7.0215 2.41673C6.47234 2.41271 5.93321 2.56416 5.46613 2.85369C4.99905 3.14322 4.62302 3.55906 4.38128 4.05335C4.13954 4.54763 4.04192 5.10026 4.09967 5.64769C4.15741 6.19512 4.36817 6.71509 4.70769 7.14777C4.98649 7.488 5.14606 7.91062 5.16186 8.35063V8.48011C5.0821 8.55628 5.01821 8.64756 4.97387 8.74864C4.92953 8.84972 4.90562 8.95859 4.90352 9.069V9.48666C4.90344 9.59688 4.92511 9.70604 4.96731 9.80783C5.0095 9.90962 5.07137 10.002 5.14936 10.0798C5.22688 10.1579 5.31907 10.2199 5.42062 10.2622C5.52217 10.3045 5.63107 10.3262 5.74103 10.3262H8.24103C8.35099 10.3262 8.45989 10.3045 8.56144 10.2622C8.66298 10.2199 8.75518 10.1579 8.8327 10.0798C8.90993 10.0017 8.97103 9.90912 9.0125 9.80735C9.05397 9.70557 9.075 9.59659 9.07436 9.48666V9.069C9.07565 8.84901 8.9903 8.6374 8.83686 8.48011V8.30052C8.84809 7.88921 8.99955 7.49417 9.26603 7.18119ZM8.2452 9.48666H5.7452V9.069H8.2452V9.48666ZM8.61603 6.65493C8.24544 7.09485 8.03142 7.64587 8.0077 8.22116H5.96186C5.92185 7.6389 5.70359 7.0832 5.33686 6.62987C5.11025 6.35237 4.95874 6.02104 4.89695 5.66781C4.83516 5.31458 4.86516 4.95134 4.98405 4.6131C5.10295 4.27486 5.30674 3.97304 5.57579 3.73666C5.84484 3.50028 6.17009 3.33734 6.52019 3.26353C6.82751 3.19461 7.14621 3.19461 7.45352 3.26353C7.76028 3.33546 8.04676 3.4762 8.29142 3.67515C8.53608 3.87409 8.73254 4.12605 8.86603 4.4121C9.00056 4.69948 9.06892 5.01351 9.06603 5.33095C9.07546 5.81151 8.91618 6.2801 8.61603 6.65493Z" fill="#1C1C1E"/>
<path d="M7.83687 10.748H6.1702C6.05969 10.748 5.95372 10.792 5.87558 10.8703C5.79744 10.9487 5.75353 11.0549 5.75353 11.1657C5.75353 11.2764 5.79744 11.3827 5.87558 11.461C5.95372 11.5393 6.05969 11.5833 6.1702 11.5833H7.83687C7.94737 11.5833 8.05335 11.5393 8.13149 11.461C8.20963 11.3827 8.25353 11.2764 8.25353 11.1657C8.25353 11.0549 8.20963 10.9487 8.13149 10.8703C8.05335 10.792 7.94737 10.748 7.83687 10.748Z" fill="#1C1C1E"/>
</svg>
