<svg width="14" height="14" viewBox="0 0 14 14" fill="none" xmlns="http://www.w3.org/2000/svg">
<rect width="14" height="14" rx="7" fill="#BDB8E5"/>
<g clip-path="url(#clip0_1145_7015)">
<path d="M6.61584 5.18963C6.74486 5.13697 6.88336 5.11146 7.0227 5.11465C7.16203 5.11784 7.29921 5.14967 7.42567 5.20817C7.53241 5.26893 7.61797 5.36086 7.67086 5.4716C7.73355 5.60491 7.76408 5.75105 7.76001 5.89828C7.76392 6.04151 7.73468 6.18371 7.67457 6.31381C7.6129 6.43569 7.53409 6.54812 7.44054 6.64771C7.34395 6.75531 7.2325 6.86661 7.11363 6.99275C6.96907 7.13873 6.83383 7.29362 6.70871 7.45652C6.60344 7.59939 6.52537 7.76037 6.47839 7.93144C6.45527 8.01781 6.43912 8.10591 6.4301 8.19486C6.4228 8.25242 6.42834 8.31087 6.44632 8.36604C6.4643 8.4212 6.49429 8.4717 6.53411 8.51393C6.57569 8.56145 6.62714 8.59935 6.68488 8.62498C6.74262 8.65061 6.80527 8.66335 6.86845 8.66233C6.98796 8.65751 7.10203 8.61112 7.1909 8.53117C7.27977 8.45121 7.33785 8.34274 7.35509 8.22453C7.36519 8.16686 7.37884 8.10987 7.39596 8.05388C7.44618 7.89693 7.53719 7.75609 7.65971 7.64575C7.82688 7.48621 7.99033 7.31926 8.14264 7.14488C8.29098 6.97014 8.41586 6.77682 8.51412 6.56981C8.61893 6.35495 8.67234 6.1187 8.67015 5.87971C8.67737 5.588 8.60959 5.29932 8.47327 5.04123C8.34338 4.80087 8.14227 4.60648 7.89747 4.48471C7.62091 4.35168 7.31645 4.28679 7.00961 4.29549C6.7144 4.29192 6.42183 4.35136 6.15148 4.46985C5.90252 4.58386 5.68934 4.76343 5.53482 4.98928C5.448 5.1198 5.38393 5.26405 5.34536 5.41594C5.33255 5.47042 5.33225 5.52709 5.34447 5.5817C5.3567 5.63631 5.38112 5.68747 5.41594 5.73132C5.45707 5.78323 5.50966 5.82497 5.56958 5.85328C5.6295 5.8816 5.69515 5.89573 5.76143 5.89456C5.87592 5.88421 5.98504 5.84132 6.07589 5.77097C6.16674 5.70061 6.23551 5.60574 6.27407 5.49757C6.28568 5.46796 6.30199 5.44039 6.32236 5.41594C6.39514 5.31271 6.49743 5.23384 6.61584 5.18963Z" fill="#1C1C1E"/>
<path d="M6.89817 9.92379C7.18951 9.92379 7.42568 9.68791 7.42568 9.39694C7.42568 9.10598 7.18951 8.8701 6.89817 8.8701C6.60684 8.8701 6.37067 9.10598 6.37067 9.39694C6.37067 9.68791 6.60684 9.92379 6.89817 9.92379Z" fill="#1C1C1E"/>
<path d="M9.95921 4.05803C9.37704 3.47315 8.63365 3.07469 7.82383 2.91346C7.01401 2.75223 6.17446 2.83553 5.41224 3.15275C4.81653 3.39939 4.28605 3.78038 3.86232 4.26588C3.43859 4.75139 3.13311 5.32823 2.96977 5.95128C2.80644 6.57433 2.78968 7.22667 2.92082 7.85727C3.05196 8.48786 3.32744 9.07961 3.72569 9.58617L2.98272 10.3282C2.9134 10.3982 2.86679 10.4874 2.84898 10.5842C2.82924 10.6827 2.8396 10.7848 2.87871 10.8773C2.92101 10.9671 2.988 11.043 3.07187 11.0962C3.15064 11.1426 3.24047 11.1669 3.33192 11.1667H7.02448C7.84589 11.1594 8.64695 10.9106 9.32757 10.4513C10.0082 9.99193 10.5382 9.34243 10.8513 8.58397C11.1644 7.8255 11.2468 6.9917 11.0881 6.18675C10.9295 5.38179 10.5368 4.64137 9.95921 4.05803ZM4.60239 9.83103C4.63396 9.80314 4.65923 9.76889 4.67652 9.73051C4.69381 9.69213 4.70274 9.65051 4.7027 9.60843C4.70506 9.52471 4.67437 9.44341 4.61725 9.38209L4.49467 9.25224C3.99727 8.69513 3.69898 7.98895 3.64655 7.24436C3.59411 6.49977 3.79049 5.75884 4.20491 5.13767C4.52876 4.65513 4.97217 4.26456 5.49198 4.00393C6.01179 3.74329 6.59031 3.62149 7.17124 3.65037C7.75216 3.67925 8.3157 3.85783 8.80703 4.16874C9.29835 4.47965 9.70072 4.91229 9.97498 5.42456C10.2492 5.93684 10.3861 6.51131 10.3721 7.09205C10.3581 7.67279 10.1939 8.24004 9.89535 8.73859C9.5968 9.23713 9.17411 9.64999 8.66842 9.93701C8.16273 10.224 7.59126 10.3754 7.00962 10.3764H4.03774L4.60239 9.83103Z" fill="#1C1C1E"/>
</g>
<defs>
<clipPath id="clip0_1145_7015">
<rect width="10" height="10" fill="white" transform="translate(2 2)"/>
</clipPath>
</defs>
</svg>
