<svg width="12" height="12" viewBox="0 0 12 12" fill="none" xmlns="http://www.w3.org/2000/svg">
<path d="M5.46227 3.46548C5.6429 3.39177 5.8368 3.35604 6.03187 3.36051C6.22694 3.36498 6.41899 3.40954 6.59604 3.49145C6.74547 3.5765 6.86525 3.70521 6.9393 3.86025C7.02707 4.04688 7.06981 4.25148 7.06411 4.45759C7.06958 4.65812 7.02866 4.8572 6.9445 5.03934C6.85816 5.20998 6.74782 5.36738 6.61685 5.5068C6.48163 5.65744 6.3256 5.81326 6.15918 5.98986C5.9568 6.19423 5.76746 6.41108 5.59229 6.63914C5.44492 6.83915 5.33562 7.06453 5.26985 7.30402C5.23748 7.42494 5.21487 7.54828 5.20223 7.67282C5.19202 7.75339 5.19977 7.83523 5.22495 7.91246C5.25012 7.98969 5.2921 8.06039 5.34786 8.11951C5.40606 8.18604 5.47809 8.2391 5.55893 8.27498C5.63977 8.31087 5.72747 8.32869 5.81592 8.32726C5.98324 8.32052 6.14294 8.25557 6.26736 8.14364C6.39178 8.03171 6.47309 7.87985 6.49723 7.71435C6.51136 7.6336 6.53048 7.55383 6.55444 7.47543C6.62475 7.25571 6.75217 7.05853 6.9237 6.90405C7.15773 6.6807 7.38656 6.44697 7.59979 6.20284C7.80747 5.9582 7.9823 5.68756 8.11987 5.39775C8.2666 5.09694 8.34138 4.76619 8.33831 4.4316C8.34842 4.0232 8.25352 3.61906 8.06267 3.25773C7.88083 2.92122 7.59927 2.64908 7.25655 2.4786C6.86937 2.29236 6.44313 2.20151 6.01356 2.21369C5.60026 2.20869 5.19066 2.29191 4.81218 2.4578C4.46363 2.61741 4.16517 2.86881 3.94884 3.185C3.82729 3.36773 3.73761 3.56968 3.6836 3.78232C3.66566 3.85859 3.66525 3.93793 3.68236 4.01439C3.69947 4.09085 3.73367 4.16246 3.78241 4.22385C3.84 4.29653 3.91361 4.35496 3.9975 4.3946C4.08139 4.43424 4.17331 4.45402 4.2661 4.45239C4.42639 4.43789 4.57915 4.37785 4.70634 4.27936C4.83353 4.18087 4.92981 4.04804 4.98379 3.89661C5.00005 3.85515 5.02289 3.81655 5.05141 3.78232C5.1533 3.6378 5.2965 3.52738 5.46227 3.46548Z" fill="currentColor"/>
<path d="M5.85754 10.0933C6.26541 10.0933 6.59605 9.76308 6.59605 9.35573C6.59605 8.94837 6.26541 8.61815 5.85754 8.61815C5.44967 8.61815 5.11903 8.94837 5.11903 9.35573C5.11903 9.76308 5.44967 10.0933 5.85754 10.0933Z" fill="currentColor"/>
<path d="M10.143 1.88124C9.32796 1.06241 8.2872 0.504569 7.15346 0.278846C6.01971 0.0531235 4.84434 0.169748 3.77723 0.613852C2.94324 0.959158 2.20057 1.49254 1.60735 2.17224C1.01413 2.85195 0.586451 3.65953 0.357782 4.5318C0.129113 5.40407 0.105654 6.31735 0.289249 7.20018C0.472844 8.08301 0.858515 8.91146 1.41607 9.62064L0.375907 10.6595C0.278851 10.7574 0.213597 10.8823 0.188671 11.0179C0.161038 11.1557 0.175543 11.2987 0.230286 11.4282C0.289506 11.5539 0.383297 11.6602 0.500721 11.7347C0.610991 11.7996 0.736757 11.8337 0.864783 11.8334H6.03437C7.18435 11.8232 8.30583 11.4749 9.25869 10.8318C10.2116 10.1887 10.9535 9.27941 11.3919 8.21756C11.8303 7.15571 11.9456 5.98839 11.7235 4.86145C11.5014 3.73451 10.9516 2.69792 10.143 1.88124ZM2.64344 9.96344C2.68764 9.92441 2.72302 9.87645 2.74723 9.82271C2.77144 9.76898 2.78393 9.71072 2.78388 9.6518C2.78718 9.5346 2.74421 9.42078 2.66425 9.33493L2.49263 9.15315C1.79628 8.37319 1.37868 7.38453 1.30527 6.34211C1.23186 5.29968 1.50679 4.26238 2.08697 3.39275C2.54036 2.71719 3.16113 2.17039 3.88887 1.8055C4.61661 1.44062 5.42653 1.27009 6.23983 1.31053C7.05312 1.35096 7.84208 1.60097 8.52993 2.03624C9.21779 2.47151 9.7811 3.07721 10.1651 3.79439C10.549 4.51158 10.7406 5.31583 10.721 6.12887C10.7015 6.94191 10.4716 7.73606 10.0536 8.43403C9.63562 9.13199 9.04386 9.71 8.33589 10.1118C7.62792 10.5136 6.82786 10.7256 6.01356 10.727H1.85293L2.64344 9.96344Z" fill="currentColor"/>
</svg>
