<svg width="20" height="19" viewBox="0 0 20 19" fill="none" xmlns="http://www.w3.org/2000/svg">
<path d="M19.53 8.15C19.378 8.06223 19.2055 8.01603 19.03 8.01603C18.8545 8.01603 18.682 8.06223 18.53 8.15L15 9.89C14.9715 9.11357 14.6429 8.37847 14.0834 7.83944C13.5238 7.3004 12.777 6.99948 12 7H3C2.20435 7 1.44129 7.31607 0.87868 7.87868C0.316071 8.44129 0 9.20435 0 10V16C0 16.7957 0.316071 17.5587 0.87868 18.1213C1.44129 18.6839 2.20435 19 3 19H12C12.777 19.0005 13.5238 18.6996 14.0834 18.1606C14.6429 17.6215 14.9715 16.8864 15 16.11L18.56 17.89C18.6963 17.9599 18.8468 17.9975 19 18C19.1872 18.0006 19.3709 17.9486 19.53 17.85C19.6741 17.7599 19.7929 17.6346 19.8751 17.4859C19.9574 17.3372 20.0003 17.1699 20 17V9C20.0003 8.83006 19.9574 8.66283 19.8751 8.51411C19.7929 8.36538 19.6741 8.24007 19.53 8.15ZM13 16C13 16.2652 12.8946 16.5196 12.7071 16.7071C12.5196 16.8946 12.2652 17 12 17H3C2.73478 17 2.48043 16.8946 2.29289 16.7071C2.10536 16.5196 2 16.2652 2 16V10C2 9.73478 2.10536 9.48043 2.29289 9.29289C2.48043 9.10536 2.73478 9 3 9H12C12.2652 9 12.5196 9.10536 12.7071 9.29289C12.8946 9.48043 13 9.73478 13 10V16ZM18 15.38L15 13.88V12.12L18 10.62V15.38Z" fill="white"/>
<path d="M4 6C4.59334 6 5.17336 5.82405 5.66671 5.49441C6.16006 5.16477 6.54458 4.69623 6.77164 4.14805C6.9987 3.59987 7.05811 2.99667 6.94236 2.41473C6.8266 1.83279 6.54088 1.29824 6.12132 0.878681C5.70176 0.459124 5.16721 0.173401 4.58527 0.0576455C4.00333 -0.0581102 3.40013 0.00129986 2.85195 0.228363C2.30377 0.455426 1.83524 0.839943 1.50559 1.33329C1.17595 1.82664 1 2.40666 1 3C1.00087 3.79538 1.31722 4.55794 1.87964 5.12036C2.44206 5.68278 3.20462 5.99913 4 6ZM4 2C4.19778 2 4.39112 2.05865 4.55557 2.16853C4.72002 2.27841 4.84819 2.43459 4.92388 2.61732C4.99957 2.80004 5.01937 3.00111 4.98078 3.19509C4.9422 3.38907 4.84696 3.56726 4.70711 3.70711C4.56725 3.84696 4.38907 3.9422 4.19509 3.98079C4.00111 4.01937 3.80004 3.99957 3.61732 3.92388C3.43459 3.84819 3.27841 3.72002 3.16853 3.55557C3.05865 3.39112 3 3.19778 3 3C3.00018 2.73484 3.10559 2.48059 3.29309 2.29309C3.48059 2.10559 3.73484 2.00018 4 2Z" fill="white"/>
<path d="M11 6C11.5933 6 12.1734 5.82405 12.6667 5.49441C13.1601 5.16477 13.5446 4.69623 13.7716 4.14805C13.9987 3.59987 14.0581 2.99667 13.9424 2.41473C13.8266 1.83279 13.5409 1.29824 13.1213 0.878681C12.7018 0.459124 12.1672 0.173401 11.5853 0.0576455C11.0033 -0.0581102 10.4001 0.00129986 9.85195 0.228363C9.30377 0.455426 8.83523 0.839943 8.50559 1.33329C8.17595 1.82664 8 2.40666 8 3C8.00087 3.79538 8.31722 4.55794 8.87964 5.12036C9.44206 5.68278 10.2046 5.99913 11 6ZM11 2C11.1978 2 11.3911 2.05865 11.5556 2.16853C11.72 2.27841 11.8482 2.43459 11.9239 2.61732C11.9996 2.80004 12.0194 3.00111 11.9808 3.19509C11.9422 3.38907 11.847 3.56726 11.7071 3.70711C11.5673 3.84696 11.3891 3.9422 11.1951 3.98079C11.0011 4.01937 10.8 3.99957 10.6173 3.92388C10.4346 3.84819 10.2784 3.72002 10.1685 3.55557C10.0586 3.39112 10 3.19778 10 3C10.0002 2.73484 10.1056 2.48059 10.2931 2.29309C10.4806 2.10559 10.7348 2.00018 11 2Z" fill="white"/>
<path d="M9.10557 12.5528C9.4741 12.737 9.4741 13.263 9.10557 13.4472L6.72361 14.6382C6.39116 14.8044 6 14.5627 6 14.191V11.809C6 11.4373 6.39116 11.1956 6.72361 11.3618L9.10557 12.5528Z" fill="white"/>
</svg>
