<svg width="18" height="19" viewBox="0 0 18 19" fill="none" xmlns="http://www.w3.org/2000/svg">
<path d="M14.1165 0.795081L1.74212 4.91987C1.25452 5.0834 0.829207 5.39333 0.524184 5.80742C0.219161 6.2215 0.0492692 6.71958 0.0376714 7.23375C0.0260736 7.74792 0.173334 8.25315 0.459376 8.68057C0.745417 9.10798 1.15632 9.43678 1.63606 9.62213L6.21457 11.3722C6.32317 11.4166 6.42182 11.4822 6.50478 11.5652C6.58775 11.6482 6.65335 11.7468 6.69776 11.8554L8.44785 16.4339C8.59718 16.8228 8.84133 17.1683 9.15811 17.4388C9.47489 17.7094 9.85426 17.8965 10.2618 17.9832C10.6692 18.0698 11.0919 18.0532 11.4914 17.935C11.8908 17.8167 12.2544 17.6005 12.5491 17.306C12.8222 17.0274 13.0296 16.6911 13.156 16.322L17.2808 3.9476C17.4262 3.50777 17.4466 3.03619 17.3396 2.58547C17.2326 2.13475 17.0025 1.72261 16.6749 1.39505C16.3474 1.06749 15.9352 0.83738 15.4845 0.730399C15.0338 0.623418 14.5622 0.643771 14.1224 0.789188L14.1165 0.795081ZM15.6957 3.42316L11.5709 15.7975C11.5146 15.9579 11.4106 16.0972 11.2729 16.1967C11.1352 16.2963 10.9703 16.3514 10.8004 16.3546C10.6305 16.3578 10.4636 16.309 10.3223 16.2147C10.1809 16.1204 10.0717 15.9851 10.0094 15.827L8.2534 11.2544C8.22938 11.1939 8.20183 11.1349 8.1709 11.0776L12.2309 7.01762C12.3872 6.86134 12.475 6.64938 12.475 6.42836C12.475 6.20735 12.3872 5.99539 12.2309 5.83911C12.0746 5.68283 11.8626 5.59503 11.6416 5.59503C11.4206 5.59503 11.2086 5.68283 11.0524 5.83911L6.99239 9.89908C6.93513 9.86815 6.8761 9.84061 6.81562 9.81658L2.24299 8.0606C2.08489 7.99828 1.94962 7.88911 1.85532 7.74773C1.76102 7.60635 1.7122 7.43952 1.71541 7.26961C1.71861 7.09969 1.77369 6.93482 1.87326 6.7971C1.97282 6.65938 2.11211 6.55539 2.27245 6.49908L14.6468 2.37429C14.7928 2.32721 14.9489 2.32134 15.098 2.35731C15.2471 2.39328 15.3834 2.46969 15.4918 2.57814C15.6003 2.6866 15.6767 2.82287 15.7127 2.97197C15.7486 3.12106 15.7428 3.27719 15.6957 3.42316Z" fill="currentColor"/>
</svg>
