
<svg width="16px" height="16px" fill="currentColor"  xmlns="http://www.w3.org/2000/svg">
  <g transform="matrix(1 0 0 1 -16 -193 )">
    <path d="M 2 2  L 14.222222222222221 2  L 14.222222222222221 9.777777777777779  L 9.777777777777779 9.777777777777779  L 9.777777777777779 14.222222222222221  L 2 14.222222222222221  L 2 2  Z M 16 1.7777777777777777  C 16 0.7999999788072374  15.200000021192762 0  14.222222222222221 0  C 14.222222222222221 0  1.7777777777777777 0  1.7777777777777777 0  C 0.7999999788072374 0  0 0.7999999788072374  0 1.7777777777777777  C 0 1.7777777777777777  0 14.222222222222221  0 14.222222222222221  C 0 15.200000021192762  0.7999999788072374 16  1.7777777777777777 16  C 1.7777777777777777 16  10.666666666666666 16  10.666666666666666 16  L 16 10.666666666666666  C 16 10.666666666666666  16 1.7777777777777777  16 1.7777777777777777  Z M 8 8  L 8 9.777777777777779  L 3.5555555555555554 9.777777777777779  L 3.5555555555555554 8  L 8 8  Z M 12.444444444444445 4.444444444444445  L 12.444444444444445 6.222222222222222  L 3.5555555555555554 6.222222222222222  L 3.5555555555555554 4.444444444444445  L 12.444444444444445 4.444444444444445  Z " fill-rule="nonzero" fill="currentColor" stroke="none" transform="matrix(1 0 0 1 16 193 )" />
  </g>
</svg>
