<svg width="20" height="19" viewBox="0 0 20 19" fill="none" xmlns="http://www.w3.org/2000/svg">
<path d="M18.32 5.99997H14.54L15.38 2.18998C15.4458 2.05408 15.4799 1.90507 15.4799 1.75409C15.4799 1.60312 15.4456 1.4541 15.3798 1.31824C15.314 1.18238 15.2182 1.06319 15.0997 0.969608C14.9813 0.876028 14.8432 0.810483 14.6957 0.777897C14.5483 0.74531 14.3954 0.746543 14.2486 0.781467C14.1017 0.816392 13.9646 0.884106 13.8477 0.979557C13.7307 1.07501 13.6368 1.19572 13.5732 1.33261C13.5095 1.4695 13.4777 1.61901 13.48 1.76996L12.54 5.99997H8.54001L9.38001 2.18998C9.44578 2.05408 9.47993 1.90507 9.47989 1.75409C9.47985 1.60312 9.44563 1.4541 9.3798 1.31824C9.31396 1.18238 9.21821 1.06319 9.09974 0.969608C8.98126 0.876028 8.84316 0.810483 8.69574 0.777897C8.54833 0.74531 8.39545 0.746543 8.24857 0.781467C8.10169 0.816392 7.96463 0.884106 7.84766 0.979557C7.73069 1.07501 7.63683 1.19572 7.57315 1.33261C7.50948 1.4695 7.47765 1.61901 7.48001 1.76996L6.54001 5.99997H2.32001C2.09878 6.00512 1.88551 6.0835 1.7136 6.22284C1.54168 6.36218 1.42084 6.55459 1.37 6.76996C1.34167 6.91622 1.34639 7.06698 1.38379 7.21119C1.42119 7.35539 1.49034 7.48943 1.58619 7.60349C1.68203 7.71755 1.80213 7.80875 1.93775 7.87043C2.07336 7.9321 2.22104 7.96268 2.37 7.95996H6.15L5.26001 11.96H1.05002C0.820231 11.9538 0.595317 12.0271 0.413181 12.1673C0.231046 12.3075 0.102811 12.5063 0.050022 12.73C0.0224379 12.8721 0.0260495 13.0186 0.0606116 13.1592C0.0951737 13.2998 0.159849 13.4312 0.250187 13.5444C0.340525 13.6575 0.454373 13.7497 0.583835 13.8146C0.713298 13.8794 0.85528 13.9154 1 13.92H4.79001L3.94001 17.73C3.91167 17.8762 3.9164 18.027 3.9538 18.1712C3.9912 18.3154 4.06035 18.4494 4.15619 18.5635C4.25204 18.6775 4.37214 18.7687 4.50776 18.8304C4.64337 18.8921 4.79105 18.9227 4.94001 18.92C5.16844 18.9266 5.39227 18.8548 5.57422 18.7166C5.75617 18.5783 5.88526 18.3819 5.94001 18.16L6.88001 13.92H10.88L10.03 17.73C10.0017 17.8762 10.0064 18.027 10.0438 18.1712C10.0812 18.3154 10.1503 18.4494 10.2462 18.5635C10.342 18.6775 10.4621 18.7687 10.5978 18.8304C10.7334 18.8921 10.881 18.9227 11.03 18.92C11.2584 18.9266 11.4823 18.8548 11.6642 18.7166C11.8462 18.5783 11.9753 18.3819 12.03 18.16L12.97 13.92H17.18C17.4084 13.9266 17.6323 13.8548 17.8142 13.7166C17.9962 13.5783 18.1252 13.3819 18.18 13.16V13.11C18.2076 12.9678 18.204 12.8214 18.1694 12.6808C18.1348 12.5402 18.0702 12.4087 17.9798 12.2956C17.8895 12.1824 17.7756 12.0902 17.6462 12.0254C17.5167 11.9605 17.3747 11.9246 17.23 11.92H13.44L14.33 7.91999H18.55C18.7699 7.91541 18.9821 7.83845 19.1539 7.70105C19.3256 7.56366 19.4473 7.37349 19.5 7.15998V7.10999C19.5202 6.95319 19.503 6.7938 19.4497 6.64496C19.3964 6.49612 19.3085 6.36205 19.1934 6.25373C19.0782 6.1454 18.939 6.06593 18.7872 6.02182C18.6354 5.97772 18.4753 5.97022 18.32 5.99997ZM11.2 12H7.20002L8.09 7.99997H12.09L11.2 12Z" fill="white"/>
</svg>
