<svg width="20" height="21" viewBox="0 0 20 21" fill="none" xmlns="http://www.w3.org/2000/svg">
<path d="M19.29 3.86999L9.29001 13.87C9.20238 13.9604 9.09748 14.0323 8.98152 14.0814C8.86557 14.1305 8.74093 14.1558 8.61502 14.1558C8.4891 14.1558 8.36446 14.1305 8.24851 14.0814C8.13256 14.0323 8.02765 13.9604 7.94001 13.87L5.08001 11.02C4.89376 10.8326 4.78923 10.5792 4.78923 10.315C4.78923 10.0508 4.89376 9.79734 5.08001 9.60998C5.26738 9.42373 5.52083 9.31921 5.78501 9.31921C6.0492 9.31921 6.30265 9.42373 6.49002 9.60998L8.61002 11.73L17.91 2.42999C18.0974 2.24374 18.3508 2.13919 18.615 2.13919C18.8792 2.13919 19.1327 2.24374 19.32 2.42999C19.4149 2.52527 19.4896 2.63871 19.5396 2.76352C19.5896 2.88832 19.6139 3.02194 19.6111 3.15637C19.6083 3.2908 19.5785 3.42328 19.5233 3.54589C19.4681 3.66851 19.3888 3.77874 19.29 3.86999ZM18.2 7.86999C18.0863 7.98537 18.0023 8.12667 17.9552 8.2817C17.9082 8.43674 17.8996 8.60088 17.93 8.76001C17.9988 9.17643 18.0323 9.59792 18.03 10.02C18.0307 11.7656 17.4605 13.4635 16.4063 14.8548C15.352 16.2461 13.8717 17.2544 12.191 17.7259C10.5102 18.1975 8.72142 18.1063 7.09734 17.4664C5.47326 16.8265 4.10304 15.673 3.19568 14.1817C2.28833 12.6904 1.89364 10.9433 2.0718 9.20684C2.24996 7.47035 2.99119 5.83978 4.18245 4.56384C5.37372 3.2879 6.94962 2.43663 8.66981 2.13983C10.39 1.84303 12.1601 2.117 13.71 2.91998C13.8963 3.0102 14.1061 3.04038 14.3102 3.00634C14.5144 2.97231 14.703 2.87575 14.85 2.72998C14.9613 2.62065 15.0454 2.48684 15.0957 2.3392C15.146 2.19156 15.161 2.0342 15.1397 1.8797C15.1183 1.7252 15.0611 1.57784 14.9726 1.4494C14.8841 1.32096 14.7668 1.21499 14.63 1.13998C13.2457 0.424751 11.7134 0.0429057 10.1554 0.0248988C8.59731 0.00689194 7.0566 0.353237 5.65613 1.03628C4.25566 1.71933 3.03419 2.72017 2.08913 3.95901C1.14407 5.19785 0.501582 6.64041 0.212909 8.1716C-0.0757638 9.70278 -0.00263044 11.2802 0.426471 12.7781C0.855572 14.276 1.62877 15.6529 2.68439 16.799C3.74001 17.9451 5.04885 18.8287 6.50651 19.3792C7.96417 19.9298 9.53031 20.1321 11.08 19.97C13.0335 19.7437 14.8781 18.951 16.3866 17.6894C17.8951 16.4279 19.0017 14.7526 19.57 12.87C20.0143 11.4299 20.1136 9.90553 19.86 8.41998C19.8269 8.24467 19.7475 8.08141 19.63 7.94714C19.5125 7.81287 19.3613 7.71248 19.1919 7.65637C19.0226 7.60026 18.8413 7.59049 18.6669 7.62805C18.4924 7.66561 18.3313 7.74914 18.2 7.86999Z" fill="white"/>
</svg>
