<?xml version="1.0" encoding="utf-8"?>
<svg version="1.1" xmlns:xlink="http://www.w3.org/1999/xlink" width="16px" height="12px" fill="currentColor" xmlns="http://www.w3.org/2000/svg">
  <g transform="matrix(1 0 0 1 -16 -252 )">
    <path d="M 16 10.960000356038412  C 14.913531972782778 5.3733336130778  11.841720061404143 1.3333333333333333  8.207132664161739 1.3333333333333333  C 6.135808631521569 1.3333333333333333  4.259892612634438 2.653333822886149  2.8138739817418186 4.800000508626302  C 2.8138739817418186 4.800000508626302  0 0  0 0  L 0 12  L 7.034685140710061 12  C 7.034685140710061 12  4.205178540230661 7.1733334859212246  4.205178540230661 7.1733334859212246  C 5.291646567447884 5.626666863759358  6.675134537034665 4.666666666666667  8.207132664161739 4.666666666666667  C 10.974108789690813 4.666666666666667  13.326820518673987 7.746666590372721  14.147533747819057 12  C 14.147533747819057 12  16 10.960000356038412  16 10.960000356038412  Z " fill-rule="nonzero" fill="currentColor" stroke="none" transform="matrix(1 0 0 1 16 252 )" />
  </g>
</svg>
