<svg width="18" height="10" viewBox="0 0 18 10" fill="none" xmlns="http://www.w3.org/2000/svg">
<path d="M16.942 0.958311C16.8153 0.885171 16.6716 0.846666 16.5253 0.846666C16.379 0.846666 16.2353 0.885171 16.1087 0.958311L13.167 2.40831C13.1433 1.76129 12.8694 1.14871 12.4031 0.69951C11.9368 0.250314 11.3145 -0.000457701 10.667 -2.23222e-05H3.16699C2.50395 -2.23222e-05 1.86807 0.26337 1.39923 0.732211C0.930384 1.20105 0.666992 1.83694 0.666992 2.49998V7.49998C0.666992 8.16302 0.930384 8.7989 1.39923 9.26775C1.86807 9.73659 2.50395 9.99998 3.16699 9.99998H10.667C11.3145 10.0004 11.9368 9.74964 12.4031 9.30045C12.8694 8.85125 13.1433 8.23867 13.167 7.59164L16.1337 9.07498C16.2472 9.13321 16.3727 9.16457 16.5003 9.16665C16.6563 9.16715 16.8094 9.12384 16.942 9.04165C17.0621 8.96659 17.1611 8.86216 17.2296 8.73822C17.2981 8.61429 17.3339 8.47493 17.3337 8.33331V1.66664C17.3339 1.52502 17.2981 1.38567 17.2296 1.26173C17.1611 1.1378 17.0621 1.03337 16.942 0.958311ZM11.5003 7.49998C11.5003 7.72099 11.4125 7.93295 11.2562 8.08923C11.1 8.24551 10.888 8.33331 10.667 8.33331H3.16699C2.94598 8.33331 2.73402 8.24551 2.57774 8.08923C2.42146 7.93295 2.33366 7.72099 2.33366 7.49998V2.49998C2.33366 2.27896 2.42146 2.067 2.57774 1.91072C2.73402 1.75444 2.94598 1.66664 3.16699 1.66664H10.667C10.888 1.66664 11.1 1.75444 11.2562 1.91072C11.4125 2.067 11.5003 2.27896 11.5003 2.49998V7.49998ZM15.667 6.98331L13.167 5.73331V4.26664L15.667 3.01664V6.98331Z" fill="currentColor"/>
</svg>
