<svg width="217" height="218" viewBox="0 0 217 218" fill="none" xmlns="http://www.w3.org/2000/svg">
<path d="M128.418 121.993H29.252V183.63H128.418V121.993Z" fill="#CDCAEA"/>
<path d="M19.5628 168.683C19.5628 171.265 18.9853 176.302 16.4222 176.302C13.8592 176.302 10.2812 171.265 10.2812 168.683C10.2812 166.101 12.359 164.008 14.922 164.008C17.4851 164.008 19.5628 166.101 19.5628 168.683Z" fill="#7B73C9"/>
<path d="M32.5896 168.683C32.5896 171.265 32.0069 176.302 29.4214 176.302C26.8359 176.302 23.2266 171.265 23.2266 168.683C23.2266 166.101 25.3226 164.008 27.9081 164.008C30.4935 164.008 32.5896 166.101 32.5896 168.683Z" fill="#5C51BB"/>
<path d="M45.5355 168.683C45.5355 171.265 44.9579 176.302 42.3949 176.302C39.8319 176.302 36.2539 171.265 36.2539 168.683C36.2539 166.101 38.3317 164.008 40.8947 164.008C43.4577 164.008 45.5355 166.101 45.5355 168.683Z" fill="#3F3883"/>
<path d="M6.94336 43.3386H88.7035C89.4655 41.6847 89.6292 37.8747 84.1864 35.8656C78.7429 33.8565 74.1843 36.7027 72.5861 38.377C72.065 33.0479 68.7041 22.1937 59.4238 21.4097C50.1435 20.6256 47.2286 28.3926 46.9311 32.3741C38.4093 19.3883 30.962 29.291 28.3036 35.8656C19.4249 32.4844 10.3639 39.4387 6.94336 43.3386Z" fill="#EEEDF8"/>
<path d="M217 65.2418H123.409C122.537 62.712 122.35 56.8841 128.581 53.8109C134.811 50.7377 140.029 55.0914 141.859 57.6524C142.455 49.5009 146.303 32.898 156.925 31.6986C167.549 30.4994 170.886 42.3801 171.226 48.4702C180.981 28.6068 189.506 43.7542 192.549 53.8109C202.712 48.6389 213.084 59.2766 217 65.2418Z" fill="#EEEDF8"/>
<path d="M65.502 193.58L69.8187 73.3389H203.327V188.672L176.903 189.614H162.144H162.134H162.124L65.502 193.58Z" stroke="#8C84CF" stroke-width="0.981144"/>
<path d="M69.348 72.8516H203.816V96.9266H68.4785L69.348 72.8516Z" fill="#2D285E"/>
<path d="M79.9293 91.0375C83.0897 91.0375 85.6516 88.2842 85.6516 84.8879C85.6516 81.4916 83.0897 78.7383 79.9293 78.7383C76.769 78.7383 74.207 81.4916 74.207 84.8879C74.207 88.2842 76.769 91.0375 79.9293 91.0375Z" fill="white"/>
<path d="M94.8063 91.0375C97.9666 91.0375 100.529 88.2842 100.529 84.8879C100.529 81.4916 97.9666 78.7383 94.8063 78.7383C91.646 78.7383 89.084 81.4916 89.084 84.8879C89.084 88.2842 91.646 91.0375 94.8063 91.0375Z" fill="white"/>
<path d="M109.683 91.0375C112.844 91.0375 115.406 88.2842 115.406 84.8879C115.406 81.4916 112.844 78.7383 109.683 78.7383C106.523 78.7383 103.961 81.4916 103.961 84.8879C103.961 88.2842 106.523 91.0375 109.683 91.0375Z" fill="white"/>
<path d="M56.1187 210.062C55.059 204.657 50.1971 194.661 48.7327 197.767C46.9023 201.65 47.6088 212.765 50.0815 213.412C52.5541 214.059 48.9575 197.843 45.8747 198.985C43.4085 199.898 44.8471 204.645 45.8747 206.902C45.5107 203.857 45.0432 199.594 39.998 196.739" stroke="#484096" stroke-width="0.981144" stroke-linecap="round"/>
<path d="M191.882 119.348C181.094 110.513 180.28 94.4732 154.023 87.2673C148.113 85.6454 142.234 84.9216 136.681 84.8491C136.681 84.8491 132.703 93.2112 124.428 93.2112C118.118 93.2112 113.843 88.9772 113.843 88.9772C110.21 90.5707 105.716 92.8 102.119 96.0203C95.8933 101.594 96.2165 106.361 93.4483 109.374C90.6801 112.386 84.6145 117.964 79.8923 115.48C75.1701 112.997 77.6941 109.659 79.8923 100.254C82.0906 90.8499 84.0446 81.7306 82.9455 78.9622C81.8463 76.1939 60.8407 73.1812 58.3574 74.5654C56.3709 75.6728 50.1478 92.1527 47.2847 100.254C44.0551 113.716 43.0754 142.13 64.993 148.09C86.9105 154.05 102.133 144.141 107.004 138.441C109.642 145.086 123.925 178.216 129.923 190.47L182.641 188.516L204.054 178.501C204.61 173.439 205.389 161.158 204.054 152.528C202.385 141.739 202.67 128.182 191.882 119.348Z" fill="#5C51BB"/>
<path d="M126.47 134.166L114.102 127.774L111.485 132.838L123.854 139.229L126.47 134.166Z" fill="#DEDCF1"/>
<path d="M154.031 92.3976L140.861 96.9131L142.71 102.304L155.879 97.7888L154.031 92.3976Z" fill="#DEDCF1"/>
<path d="M120.244 104.014L125.189 91L119.862 88.9752L114.916 101.99L120.244 104.014Z" fill="#DEDCF1"/>
<path d="M171.233 146.144L174.992 132.738L169.505 131.199L165.746 144.605L171.233 146.144Z" fill="#DEDCF1"/>
<path d="M178.491 167.083L192.168 169.683L193.232 164.084L179.555 161.484L178.491 167.083Z" fill="#DEDCF1"/>
<path d="M196.398 141.992L204.122 153.576L202.536 140.923L201.14 138.83L196.398 141.992Z" fill="#DEDCF1"/>
<path d="M176.211 102.833L180.866 115.955L186.237 114.049L185.704 112.548C184.244 110.659 180.866 105.017 178.289 102.086L176.211 102.833Z" fill="#DEDCF1"/>
<path d="M156.536 173.806L164.037 185.535L168.838 182.464L161.338 170.735L156.536 173.806Z" fill="#DEDCF1"/>
<path d="M151.101 146.176L137.781 150.228L139.44 155.68L152.759 151.629L151.101 146.176Z" fill="#DEDCF1"/>
<path d="M79.8628 117.271L66.543 121.322L68.2013 126.775L81.5211 122.723L79.8628 117.271Z" fill="#DEDCF1"/>
<path d="M86.1886 146.204L81.5601 142.879L76.5586 149.839C78.2814 149.881 82.1259 149.9 83.7217 149.637L86.1886 146.204Z" fill="#DEDCF1"/>
<path d="M60.1312 90.8399L63.0215 85.928L54.7373 81.0527L52.5391 86.3717L60.1312 90.8399Z" fill="#DEDCF1"/>
<path d="M81.6003 81.4453L76.8008 94.5144L80.8716 96.0092C81.523 94.3402 82.9071 86.4525 83.2327 82.0445L81.6003 81.4453Z" fill="#DEDCF1"/>
<path d="M54.3018 132.344L48.952 130.38L48.2305 132.344C48.8487 133.828 50.4743 137.505 51.9279 139.173L54.3018 132.344Z" fill="#DEDCF1"/>
<path d="M127.504 173.04L127.268 167.346L119.586 167.665L122.028 173.267L127.504 173.04Z" fill="#DEDCF1"/>
<path d="M148.202 123.908C156.507 127.355 173.947 136.073 177.268 143.368C180.59 150.663 182.018 162.258 182.316 167.143M103.138 109.252C103.057 113.676 103.488 124.812 105.865 133.964L103.138 109.252Z" stroke="black" stroke-width="0.981144" stroke-linecap="round"/>
<path d="M145.678 112.671C146.6 114.896 149.407 120.031 153.25 122.767" stroke="black" stroke-width="0.981144" stroke-linecap="round"/>
<path d="M124.615 48.3867C116.459 48.3867 112.643 50.5566 106.658 61.2568C103.62 66.6881 101.889 75.0249 104.638 77.7933C106.36 79.5276 110.454 81.4142 114.664 82.8065L113.846 91.7443C113.072 93.7017 117.109 97.338 122.843 97.9324C129.627 98.6351 136.499 95.4099 138.393 89.9123C138.83 88.6469 135.215 83.4538 136.587 80.2979C140.304 76.953 142.646 72.0758 142.646 66.6441C142.646 56.5609 134.574 48.3867 124.615 48.3867Z" fill="#8C84CF"/>
<path d="M108.639 68.4117L113.36 63.9482L112.793 70.189L108.639 68.4117Z" fill="#5C51BB"/>
<path d="M112.887 64.3027L108.385 68.3073L112.55 69.9813" stroke="black" stroke-width="0.981144" stroke-linecap="round"/>
<path d="M112.269 74.2084L107.564 71.9971C107.621 72.7559 108.14 74.1937 108.939 74.7506C110.259 75.6698 111.439 74.8459 112.269 74.2084Z" stroke="black" stroke-width="0.981144"/>
<path d="M107.516 62.141C108.141 62.6108 109.029 62.485 109.498 61.8601C109.968 61.2352 109.842 60.3477 109.217 59.8779C108.593 59.4082 107.705 59.5339 107.235 60.1589C106.766 60.7838 106.891 61.6712 107.516 62.141Z" fill="black"/>
<path d="M116.94 66.849C117.565 67.3188 118.452 67.193 118.922 66.5681C119.392 65.9432 119.266 65.0557 118.641 64.586C118.016 64.1162 117.129 64.242 116.659 64.8669C116.189 65.4918 116.315 66.3792 116.94 66.849Z" fill="black"/>
<path d="M118.621 60.8115C119.907 60.9231 121.498 61.5966 122.25 62.5908" stroke="black" stroke-width="0.981144" stroke-linecap="round"/>
<path d="M111.472 57.4151C110.498 56.5687 108.907 55.8933 107.67 56.0448" stroke="black" stroke-width="0.981144" stroke-linecap="round"/>
<path d="M116.876 72.096C117.52 72.5798 118.434 72.4503 118.917 71.8068C119.401 71.1632 119.272 70.2494 118.628 69.7656C117.985 69.2818 117.071 69.4113 116.587 70.0549C116.103 70.6984 116.233 71.6123 116.876 72.096Z" fill="#5C51BB"/>
<path d="M105.503 66.4105C106.147 66.8943 107.061 66.7647 107.544 66.1212C108.028 65.4777 107.899 64.5638 107.255 64.08C106.612 63.5963 105.698 63.7258 105.214 64.3693C104.73 65.0128 104.86 65.9267 105.503 66.4105Z" fill="#5C51BB"/>
<path d="M136.585 80.2996C140.302 76.9547 151.825 61.2585 151.825 61.2585L146.289 62.2303L146.899 54.8208H138.904L133.741 44.6837L124.835 46.76L123.329 38.8213L112.43 52.878C113.539 55.4969 118.777 59.0137 126.708 59.0137C132.834 59.0137 136.36 61.5578 133.741 64.1019C131.647 66.1371 129.776 69.7391 129.102 71.2853C127.955 74.2898 127.845 80.2996 136.585 80.2996Z" fill="black"/>
<path d="M129.177 75.7965C130.746 76.964 133.315 76.1674 134.915 74.0173C136.515 71.8672 136.54 69.1778 134.971 68.0103C133.403 66.8429 130.834 67.6395 129.234 69.7896C127.634 71.9397 127.609 74.6291 129.177 75.7965Z" fill="#5C51BB"/>
<path d="M129.828 71.7131C130.52 70.8501 132.252 69.6353 133.339 69.4814" stroke="black" stroke-width="0.981144" stroke-linecap="round"/>
<path d="M132.404 69.9326C132.739 70.4317 133.086 71.5251 132.989 72.1138" stroke="black" stroke-width="0.981144" stroke-linecap="round"/>
<path d="M60.8642 62.5157C57.7279 67.2272 59.2169 71.1502 60.3534 72.5222L60.1876 74.2385C66.2426 74.7816 79.1179 76.323 82.1768 78.1468C82.4797 77.0427 82.7858 75.9395 83.0618 74.973C84.095 71.3537 92.7065 64.1079 93.6094 62.3629C94.5131 60.6178 94.7216 59.3683 93.6314 58.5744C92.7586 57.9392 87.7799 59.9204 85.3993 60.9903L87.7026 54.5251C88.6926 50.9189 90.2868 43.1649 88.7407 40.9981C87.1945 38.8313 85.1933 42.3419 84.3856 44.368C84.7496 43.4095 85.2185 41.0698 84.1797 39.3794C83.1416 37.6889 80.7846 40.7893 79.7351 42.5508C79.9476 41.2815 80.0029 38.6811 78.5277 38.4345C77.0524 38.1878 74.995 43.1039 74.1507 45.5928L74.4592 43.7484C74.7572 42.3302 75.1993 39.3215 74.5805 38.631C73.8071 37.7677 72.7259 38.749 71.1179 42.15C69.5099 45.551 64.7836 56.6266 60.8642 62.5157Z" fill="#8C84CF"/>
<path d="M84.3164 61.2383C82.1873 61.7794 77.1435 63.6843 74 66.975" stroke="black" stroke-width="0.981144" stroke-linecap="round"/>
<path d="M80.7311 53.7883L83.8388 45.8066M71.9258 52.3163L73.6437 47.1603L71.9258 52.3163ZM75.912 52.9826L79.1394 44.2871L75.912 52.9826Z" stroke="black" stroke-width="0.981144" stroke-linecap="round"/>
<path d="M185.314 182.877C186.051 182.087 185.736 179.058 185.429 177.28C193.756 181.441 197.216 179.487 203.676 178.005C203.742 179.87 203.719 183.272 203.561 184.853C203.363 186.828 201.848 196.704 199.213 198.68C196.578 200.655 191.901 206.383 190.32 208.951C189.056 211.006 185.841 214.899 184.391 216.589C183.36 217.401 181.045 218.723 180.044 217.511C179.043 216.3 180.725 212.046 181.691 210.071C180.417 211.826 177.488 215.417 175.96 215.733C172.903 216.26 174.291 211.694 175.367 209.346C174.401 210.576 171.968 212.955 169.965 212.639C167.963 212.322 168.868 208.731 169.57 206.976C168.802 207.722 167.08 209.004 166.342 208.161C165.42 207.108 165.815 204.803 166.342 202.762C166.764 201.129 169.372 196.507 170.625 194.399C169.702 194.795 167.831 195.348 167.726 194.399C167.594 193.215 170.822 189.33 174.445 187.421C178.068 185.51 184.391 183.865 185.314 182.877Z" fill="#8C84CF"/>
<path d="M181.677 210.344C182.555 208.865 184.483 205.734 185.168 205.045M170.35 205.906C171.162 204.559 173.273 201.428 175.223 199.679L170.35 205.906ZM176.409 208.49C177.352 206.966 179.635 203.495 181.216 201.799L176.409 208.49Z" stroke="black" stroke-width="0.981144" stroke-linecap="round"/>
<path d="M171.408 193.572C172.467 192.397 175.367 189.661 178.492 188.117" stroke="black" stroke-width="0.981144" stroke-linecap="round"/>
<path d="M166.928 61.0484H210.013M166.928 56.2041H194.507H166.928Z" stroke="#484096" stroke-width="0.981144" stroke-linecap="round"/>
<path d="M9.30469 35.6857H35.1954M9.30469 26.8926H49.1992H9.30469Z" stroke="#484096" stroke-width="0.981144" stroke-linecap="round"/>
<path d="M40.7363 48.5649L40.5898 48.3862H40.3587H18.1788C8.69117 48.3862 1 40.6945 1 31.2063C1 21.718 8.69125 14.0264 18.1788 14.0264H42.6045C52.0921 14.0264 59.7833 21.7181 59.7833 31.2063V36.3476C59.7833 42.9963 54.3938 48.3862 47.7454 48.3862H47.1847L47.2616 48.9417L48.5223 58.0551L40.7363 48.5649Z" stroke="#484096" stroke-width="0.981144"/>
<path d="M93.5725 14.7225L93.426 14.5441H93.1956H84.0605C80.321 14.5441 77.2891 11.5121 77.2891 7.77208C77.2891 4.03193 80.321 1 84.0605 1H94.1286C97.8681 1 100.9 4.03193 100.9 7.77208V9.8784C100.9 12.4552 98.8109 14.5441 96.2349 14.5441H95.6739L95.7504 15.0996L96.1299 17.8351L93.5725 14.7225Z" stroke="#484096" stroke-width="0.981144"/>
<path d="M175.886 35.0418C173.274 21.7262 161.291 -2.89834 157.682 4.75343C153.171 14.3181 154.912 41.6995 161.006 43.2936C167.101 44.8877 158.236 4.94103 150.638 7.75418C144.56 10.0047 148.106 21.6949 150.638 27.2586C149.741 19.7569 148.589 9.25464 136.154 2.22168" stroke="#484096" stroke-width="0.981144" stroke-linecap="round"/>
<path d="M57.8594 100.643L57.7127 100.465H57.482H45.194C40.0775 100.465 35.9297 96.3162 35.9297 91.1996C35.9297 86.0822 40.0775 81.9346 45.194 81.9346H58.7438C63.8607 81.9346 68.0081 86.0822 68.0081 91.1996V94.0242C68.0081 97.5807 65.1243 100.465 61.568 100.465H61.007L61.0844 101.02L61.6755 105.284L57.8594 100.643Z" stroke="#484096" stroke-width="0.981144"/>
</svg>
