<svg width="287" height="287" viewBox="0 0 287 287" fill="none" xmlns="http://www.w3.org/2000/svg">
<g clip-path="url(#clip0_1889_5145)">
<path d="M41.3996 226.969C23.6438 238.678 34.0013 251.013 41.3996 255.717H133.814H226.228C226.228 255.717 221.882 246.817 222.019 240.745C222.145 235.121 226.228 226.969 226.228 226.969H133.814H41.3996Z" stroke="#5C51BB" stroke-width="1.148"/>
<path d="M123.53 256.051C109.486 242.314 117.678 231.226 123.53 227.399L41.9741 226.777C40.0608 227.351 35.6123 229.925 33.1249 235.627C29.26 245.002 36.9038 253.15 41.2088 256.051H123.53Z" fill="#5C51BB"/>
<path d="M39.5352 245.702C41.5853 240.993 50.9912 232.285 53.8242 234.991C57.3653 238.374 55.9986 248.057 51.2149 248.621C46.4312 249.184 53.3893 235.057 59.3534 236.052C64.1246 236.848 61.3414 240.983 59.3534 242.95C60.0575 240.297 60.9621 236.583 70.7225 234.096" stroke="#EEEDF8" stroke-width="1.148" stroke-linecap="round"/>
<path d="M205 41.3437C207.54 30.6558 219.197 10.8902 222.708 17.032C227.096 24.7092 225.402 46.6877 219.474 47.9677C213.546 49.2477 222.168 17.1831 229.56 19.4409C235.473 21.247 232.024 30.631 229.56 35.0967C230.432 29.0754 231.553 20.6453 243.649 15" stroke="#5C51BB" stroke-width="1.148" stroke-linecap="round"/>
<path d="M19.2379 179.322C6.44773 187.757 13.9087 196.643 19.2379 200.03H85.8078H152.377C152.377 200.03 149.246 193.62 149.345 189.246C149.436 185.194 152.377 179.322 152.377 179.322H85.8078H19.2379Z" stroke="#5C51BB" stroke-width="1.148"/>
<path d="M78.3966 200.27C68.2804 190.375 74.1816 182.388 78.3966 179.631L19.6486 179.184C18.2703 179.597 15.066 181.451 13.2742 185.558C10.4901 192.312 15.9962 198.18 19.0974 200.27H78.3966Z" fill="#5C51BB"/>
<path d="M160.473 171.354C169.711 165.262 164.322 158.845 160.473 156.397H112.393H64.3125C64.3125 156.397 66.5735 161.028 66.5025 164.187C66.4367 167.113 64.3125 171.354 64.3125 171.354H112.393H160.473Z" stroke="#5C51BB" stroke-width="1.148"/>
<path d="M117.746 156.224C125.052 163.371 120.79 169.14 117.746 171.13L160.177 171.454C161.172 171.155 163.487 169.817 164.781 166.85C166.792 161.972 162.815 157.733 160.575 156.224H117.746Z" fill="#5C51BB"/>
<path d="M149.611 161.578C148.544 164.028 143.65 168.558 142.177 167.15C140.334 165.391 141.045 160.353 143.534 160.059C146.022 159.766 142.402 167.116 139.3 166.598C136.817 166.184 138.265 164.033 139.3 163.01C138.933 164.39 138.463 166.323 133.385 167.616" stroke="#EEEDF8" stroke-width="1.148" stroke-linecap="round"/>
<path d="M32.1983 153.369C22.9605 147.277 28.3492 140.859 32.1983 138.412H80.279H128.359C128.359 138.412 126.098 143.042 126.168 146.201C126.234 149.128 128.359 153.369 128.359 153.369H80.279H32.1983Z" stroke="#5C51BB" stroke-width="1.148"/>
<path d="M108.033 145.605H96.1699V160.003L102.58 154.55L108.033 160.003V145.605Z" fill="#5C51BB"/>
<path d="M214.794 245.003H197.957V265.38L207.054 257.663L214.794 265.38V245.003Z" fill="#5C51BB"/>
<path d="M74.9299 138.238C67.6229 145.386 71.8849 151.154 74.9299 153.145L32.4984 153.468C31.503 153.17 29.1886 151.832 27.8945 148.865C25.8837 143.987 29.8605 139.748 32.1003 138.238H74.9299Z" fill="#5C51BB"/>
<path d="M31.2285 143.622C32.2951 146.072 37.1887 150.602 38.6627 149.194C40.505 147.435 39.7939 142.397 37.3051 142.103C34.8163 141.81 38.4364 149.16 41.5394 148.642C44.0217 148.228 42.5736 146.077 41.5394 145.054C41.9057 146.434 42.3763 148.367 47.4543 149.66" stroke="#EEEDF8" stroke-width="1.148" stroke-linecap="round"/>
<path d="M30.8151 68.3066L32.0465 71.437L36.3489 69.3587L33.5821 73.3695L37.1439 75.271L33.034 75.7793L33.2778 79.1359L30.8151 76.8517L27.4134 79.978L28.5962 75.7793L25.2812 75.271L28.0481 73.3695L26.8992 70.6886L29.5837 71.437L30.8151 68.3066Z" fill="#5C51BB"/>
<path d="M100.351 17.2197L101.026 18.9132L103.385 17.7888L101.868 19.9587L103.822 20.9874L101.568 21.2623L101.702 23.0782L100.351 21.8424L98.4855 23.5337L99.1341 21.2623L97.3164 20.9874L98.8337 19.9587L98.2032 18.5083L99.6755 18.9132L100.351 17.2197Z" fill="#5C51BB"/>
<path d="M86.097 97.3896L86.7725 99.0829L89.1316 97.9589L87.6143 100.129L89.5678 101.157L87.3139 101.433L87.4479 103.248L86.097 102.012L84.2315 103.704L84.8802 101.433L83.0625 101.157L84.5798 100.129L83.9493 98.6783L85.4216 99.0829L86.097 97.3896Z" fill="#5C51BB"/>
<path d="M53.5969 63.9302C53.5969 65.899 53.1504 69.7406 51.169 69.7406C49.1878 69.7406 46.4219 65.899 46.4219 63.9302C46.4219 61.9613 48.028 60.3652 50.0094 60.3652C51.9907 60.3652 53.5969 61.9613 53.5969 63.9302Z" fill="#ADA7DC"/>
<path d="M62.0903 66.2376C62.0903 67.7375 61.7523 70.664 60.2522 70.664C58.7522 70.664 56.6582 67.7375 56.6582 66.2376C56.6582 64.7375 57.8742 63.5215 59.3742 63.5215C60.8742 63.5215 62.0903 64.7375 62.0903 66.2376Z" fill="#ADA7DC"/>
<path d="M54.5336 75.7091C54.5336 77.2092 54.1956 80.1356 52.6956 80.1356C51.1955 80.1356 49.1016 77.2092 49.1016 75.7091C49.1016 74.2091 50.3176 72.9932 51.8175 72.9932C53.3176 72.9932 54.5336 74.2091 54.5336 75.7091Z" fill="#8C84CF"/>
<path d="M62.102 75.7091C62.102 77.2092 61.764 80.1356 60.2639 80.1356C58.7639 80.1356 56.6699 77.2092 56.6699 75.7091C56.6699 74.2091 57.8859 72.9932 59.3859 72.9932C60.8859 72.9932 62.102 74.2091 62.102 75.7091Z" fill="#8C84CF"/>
<path d="M69.6606 75.7091C69.6606 77.2092 69.3226 80.1356 67.8225 80.1356C66.3225 80.1356 64.2285 77.2092 64.2285 75.7091C64.2285 74.2091 65.4445 72.9932 66.9445 72.9932C68.4445 72.9932 69.6606 74.2091 69.6606 75.7091Z" fill="#8C84CF"/>
<path d="M54.6274 85.1798C54.6274 86.6799 54.2894 89.6063 52.7893 89.6063C51.2893 89.6063 49.1953 86.6799 49.1953 85.1798C49.1953 83.6798 50.4113 82.4639 51.9113 82.4639C53.4113 82.4639 54.6274 83.6798 54.6274 85.1798Z" fill="#5C51BB"/>
<path d="M73.9746 87.9571C73.9746 90.9906 73.2896 96.9095 70.2517 96.9095C67.2137 96.9095 62.9727 90.9906 62.9727 87.9571C62.9727 84.9235 65.4355 82.4639 68.4735 82.4639C71.5115 82.4639 73.9746 84.9235 73.9746 87.9571Z" fill="#5C51BB"/>
<path d="M69.2858 53.3831H9.6827C9.12706 52.1021 9.00786 49.1508 12.9759 47.5946C16.9441 46.0384 20.2671 48.2431 21.4326 49.5399C21.8121 45.4121 24.2623 37.0045 31.0277 36.3972C37.7929 35.7898 39.918 41.8061 40.1348 44.8901C46.3471 34.8315 51.7762 42.502 53.7142 47.5946C60.1868 44.9756 66.7922 50.3624 69.2858 53.3831Z" stroke="black" stroke-width="1.148"/>
<path d="M76.75 73.9509H126.355C126.818 73.3248 126.918 71.8824 123.614 71.1217C120.312 70.3611 117.546 71.4386 116.576 72.0725C116.26 70.055 114.222 65.9457 108.591 65.6488C102.96 65.352 101.192 68.2926 101.011 69.7999C95.8412 64.8836 91.3219 68.6327 89.709 71.1217C84.323 69.8417 78.825 72.4745 76.75 73.9509Z" stroke="black" stroke-width="1.148"/>
<path d="M207.428 73.872L205.205 83.5535C206.42 83.45 209.139 83.4474 210.296 84.2654C211.453 85.0836 219.028 88.454 222.671 90.037C225.41 83.5247 230.377 69.92 229.497 67.1732C228.604 64.3859 226.89 66.1293 226.281 67.2708L226.927 63.9499C227.142 63.0574 227.294 61.0999 226.18 60.4105C225.065 59.7213 223.928 61.9044 223.497 63.0822C225.272 56.8171 221.691 57.1377 220.897 58.541C220.51 59.2264 219.443 62.2662 218.995 63.7118C219.104 63.1405 219.222 61.7725 218.838 60.8709C218.355 59.744 217.388 59.706 216.422 60.5669C215.599 61.3003 212.614 68.6768 211.754 70.9252C211.067 72.7238 208.572 73.661 207.428 73.872Z" fill="#ADA7DC"/>
<path d="M218.817 64.0713L215.762 72.1126" stroke="black" stroke-width="1.148" stroke-linecap="round"/>
<path d="M223.286 64.0811L220.23 72.1223" stroke="black" stroke-width="1.148" stroke-linecap="round"/>
<path d="M226.407 68.2881L223.352 76.3293" stroke="black" stroke-width="1.148" stroke-linecap="round"/>
<path d="M74.5493 52.5218C75.2764 55.0091 82.6007 65.3889 86.1728 70.2679L101.145 62.1363C100.841 60.6056 100.198 56.8937 100.045 54.2916C99.8532 51.0389 101.432 40.5156 101.145 38.6023C100.858 36.6889 99.8532 35.8279 98.753 36.5454C97.6528 37.2629 96.6005 42.3811 95.7395 43.6726C95.0507 44.7058 94.7503 45.2192 94.4002 45.3468C92.6141 41.3129 88.9864 33.1777 88.0862 32.0969C87.847 31.8099 87.5122 31.3975 86.9382 31.2359C84.292 30.4914 83.8998 32.7354 83.9725 34.3451L85.6467 40.5156C82.7767 39.0232 81.5483 41.9984 81.2938 43.6726C79.1509 42.6394 77.9455 44.8046 77.6585 46.0643C72.7317 45.8729 73.6405 49.4126 74.5493 52.5218Z" fill="#ADA7DC"/>
<path d="M78.4249 47.2109C79.6685 48.9648 81.8115 52.7979 80.4339 54.0989C79.0563 55.4 76.9258 52.8553 76.0332 51.4203" stroke="black" stroke-width="0.765333" stroke-linecap="round"/>
<path d="M86.2218 41.8057C87.4654 43.5595 89.6084 47.3926 88.2308 48.6937C86.8532 49.9947 84.8184 47.6892 83.9258 46.2542" stroke="black" stroke-width="0.765333" stroke-linecap="round"/>
<path d="M78.6309 47.0826C79.7875 48.8952 82.5312 52.3237 84.2551 51.5376C85.979 50.7513 84.7746 47.4304 83.7815 46.0628L82.6335 44.3887" stroke="black" stroke-width="0.765333" stroke-linecap="round"/>
<path d="M186.48 72.1811C184.107 70.8417 172.034 63.2841 149.122 64.9104C145.716 64.9104 138.439 69.614 136.733 72.1811C134.708 74.4611 131.95 79.0212 128.697 79.0212H117.504C116.595 76.2947 112.147 75.8642 109.373 72.1811C107.153 69.2345 103.441 63.1087 101.863 60.4141L85.1211 69.7894C86.1572 73.7755 88.6321 83.1827 90.2393 88.9227C92.2483 96.0977 95.9793 98.8721 98.7058 101.264C101.432 103.655 99.6624 110.83 107.172 111.739C113.18 112.466 118.891 107.259 120.996 104.564L183.562 119.68L186.48 113.413C187.277 114.578 189.761 117.785 193.32 121.306C197.769 125.707 203.413 129.055 208.005 128.146C212.597 127.237 211.305 120.588 211.497 118.197C211.688 115.805 219.437 111.404 221.446 107.53C223.455 103.655 221.924 92.9886 223.742 89.8794C225.196 87.3921 224.555 86.5311 224.555 86.5311L206.522 77.9211C205.485 78.6545 203.865 81.2176 203.987 82.5131C204.274 85.5744 204.513 85.0961 203.413 88.0139C202.533 90.3482 201.579 92.9089 201.213 93.8974C200.304 91.1231 193.32 87.2964 191.837 85.0961C190.354 82.8957 189.446 73.8552 186.48 72.1811Z" fill="#5C51BB"/>
<path d="M157.827 113.27C157.555 106.844 158.64 94.567 165.145 96.863C173.277 99.733 172.846 109.635 182.509 103.321C185.246 101.532 183.752 112.409 186.335 113.748M189.205 76.8208C186.622 77.7775 187.244 83.5558 185.139 85.2395C182.509 87.3442 175.573 85.5265 176.577 90.5012C177.582 95.4758 187.388 95.3323 192.888 95.0453C197.289 94.8157 199.25 92.845 200.016 92.1275M200.59 126.711C201.451 125.037 196.629 119.335 198.389 115.47C200.59 110.639 206.712 105.808 209.582 109.539C211.878 112.524 213.887 113.94 214.461 114.561M217.044 82.9435C216.088 84.9525 219.465 90.4916 216.901 95.0453C214.337 99.5991 219.532 105.186 222.019 105.856M147.734 65.3887C150.54 66.728 156.21 70.0955 156.439 72.8507C156.726 76.2947 160.314 81.8912 162.371 81.652C164.428 81.4128 170.359 77.2513 170.502 75.051C170.617 73.2907 170.55 70.8098 170.502 69.7893M130.801 99.4938C131.805 94.3278 145.82 86.1005 149.264 90.5012C152.708 94.9018 152.23 103.321 151.178 106.286M118.508 79.0212C118.508 81.365 125.694 86.2251 126.926 87.4877C128.84 89.4488 133.336 89.0183 133.527 84.1393C133.583 82.7199 132.618 79.069 131.662 77.8253M121.378 103.321C121.33 101.168 120.689 96.643 118.508 95.7628C116.326 94.8827 110.232 97.2141 107.458 98.4893C105.991 98.8242 102.091 98.9677 98.2263 96.863C94.3614 94.7583 92.295 89.0662 90.4773 89.688M87.3203 68.5457C90.286 73.7595 98.3028 83.1827 100.714 83.1827C103.727 83.1827 102.101 73.4247 104.301 71.607C106.061 70.1529 107.458 70.5068 107.936 70.172" stroke="#EEEDF8" stroke-width="0.765333"/>
<path d="M115.924 79.8818C115.191 80.0732 113.475 81.3455 112.48 84.9043C111.485 88.4631 110.12 91.2662 109.562 92.2228" stroke="black" stroke-width="0.765333" stroke-linecap="round"/>
<path d="M116.414 81.9111C116.158 82.0863 115.66 83.0035 115.727 85.2708C115.794 87.538 115.625 89.3692 115.531 90.0015" stroke="black" stroke-width="0.765333" stroke-linecap="round"/>
<path d="M158.974 65.4834H155.578M159.5 67.3967L156.2 69.5971L159.5 67.3967ZM160.935 69.0709L159.5 71.3669L160.935 69.0709ZM164.666 70.9364L164.045 73.5194L164.666 70.9364ZM167.345 71.3669V73.5194V71.3669ZM170.646 70.3146L172.559 72.7541L170.646 70.3146ZM173.611 68.2099L177.725 70.3146L173.611 68.2099Z" stroke="black" stroke-width="0.765333" stroke-linecap="round"/>
<path d="M102.291 62.4219L104.922 67.3009M86.4102 70.2187L88.18 76.0544L86.4102 70.2187ZM89.1367 68.8794L90.3325 72.1799L89.1367 68.8794ZM93.059 67.3009L95.4028 71.271L93.059 67.3009ZM96.0725 65.531L98.1293 67.3009L96.0725 65.531ZM99.947 63.4264L102.291 68.0662L99.947 63.4264Z" stroke="black" stroke-width="0.765333" stroke-linecap="round"/>
<path d="M206.905 79.4023L205.135 81.7462M222.785 87.1992L222.068 90.8823L222.785 87.1992ZM220.059 85.8598L218.863 89.1603L220.059 85.8598ZM216.136 84.2813L213.793 88.2515L216.136 84.2813ZM213.123 82.5115L211.066 84.2813L213.123 82.5115ZM209.248 80.4068L206.905 85.0467L209.248 80.4068Z" stroke="black" stroke-width="0.765333" stroke-linecap="round"/>
<path d="M200.275 95.5703C199.707 97.2617 198.753 101.741 199.464 106.126C200.355 111.608 202.138 113.898 201.883 114.81" stroke="black" stroke-width="0.765333" stroke-linecap="round"/>
<path d="M140.522 70.4102C139.954 72.1014 135.581 78.6047 136.293 82.9903C137.183 88.4723 134.682 91.2623 134.428 92.1743" stroke="black" stroke-width="0.765333" stroke-linecap="round"/>
<path d="M183.371 72.8984C185.188 76.6773 184.371 84.3546 183.371 88.6835C181.457 96.9586 180.022 102.746 185.14 110.782" stroke="black" stroke-width="0.765333" stroke-linecap="round"/>
<path d="M179.59 53.5742C179.59 60.6277 173.872 66.3457 166.818 66.3457C164.322 66.3457 160.558 66.4835 158.591 65.2456C154.999 62.9853 154.047 58.1316 154.047 53.5742C154.047 46.5207 159.765 40.8027 166.818 40.8027C173.872 40.8027 179.59 46.5207 179.59 53.5742Z" fill="#ADA7DC"/>
<path d="M154.766 40.2282V49.3165C155.833 48.7585 157.062 47.2597 161.462 48.599C166.963 50.2732 171.507 46.6857 173.325 48.599C175.143 50.5124 174.808 53.0794 174.138 54.4347C174.138 54.4347 173.287 58.86 173.325 61.1792C173.351 62.7407 173.803 64.2884 173.803 64.2884C177.171 62.4133 179.208 58.357 179.495 55.7262L180.022 43.3374L177.391 45.442L176.578 40.2282L173.612 41.7589V38.0279L169.498 40.9457L164.189 34.249L157.301 42.5242L154.766 40.2282Z" fill="#FFB84D"/>
<path d="M172.896 67.4456L172.656 63.6668L160.842 63.1406L160.172 66.6803C163.233 72.9943 171.652 69.7416 172.896 67.4456Z" fill="#ADA7DC"/>
<path d="M175.124 58.8847C176.408 59.3068 177.865 58.3847 178.377 56.8251C178.89 55.2655 178.264 53.659 176.98 53.2369C175.695 52.8148 174.239 53.737 173.726 55.2966C173.214 56.8562 173.839 58.4627 175.124 58.8847Z" fill="#5C51BB"/>
<path d="M174.377 56.0597C174.807 55.3422 176.003 54.4812 177.103 54.6726" stroke="black" stroke-width="0.765333" stroke-linecap="round"/>
<path d="M176.402 54.7822C176.532 54.982 176.805 55.6397 176.847 56.0879" stroke="black" stroke-width="0.765333" stroke-linecap="round"/>
<path d="M161.129 59.1712L163.867 55.125L164.654 59.7847L161.129 59.1712Z" fill="#5C51BB"/>
<path d="M163.577 55.415L161.102 58.9349L164.419 59.4484" stroke="black" stroke-width="0.765333" stroke-linecap="round"/>
<path d="M163.088 61.8973C163.518 61.9133 164.599 61.8399 165.48 61.4189" stroke="black" stroke-width="0.765333" stroke-linecap="round"/>
<path d="M166.582 51.8057C167.013 51.7897 168.094 51.8631 168.974 52.284" stroke="black" stroke-width="0.765333" stroke-linecap="round"/>
<path d="M159.788 51.9961C159.358 51.9802 158.277 52.0535 157.396 52.4745" stroke="black" stroke-width="0.765333" stroke-linecap="round"/>
<path d="M163.807 65.9635C164.859 66.1549 166.724 66.2984 168.159 65.1025" stroke="black" stroke-width="0.765333" stroke-linecap="round"/>
<path d="M159.358 55.6302C159.807 55.6302 160.171 55.2662 160.171 54.8171C160.171 54.368 159.807 54.0039 159.358 54.0039C158.909 54.0039 158.545 54.368 158.545 54.8171C158.545 55.2662 158.909 55.6302 159.358 55.6302Z" fill="black"/>
<path d="M167.395 55.6302C167.844 55.6302 168.208 55.2662 168.208 54.8171C168.208 54.368 167.844 54.0039 167.395 54.0039C166.946 54.0039 166.582 54.368 166.582 54.8171C166.582 55.2662 166.946 55.6302 167.395 55.6302Z" fill="black"/>
<path d="M168.488 60.2095C169.382 60.2095 170.108 59.484 170.108 58.5891C170.108 57.6942 169.382 56.9688 168.488 56.9688C167.593 56.9688 166.867 57.6942 166.867 58.5891C166.867 59.484 167.593 60.2095 168.488 60.2095Z" fill="#5C51BB"/>
<path d="M158.06 59.3481C158.955 59.3481 159.68 58.6227 159.68 57.7278C159.68 56.8329 158.955 56.1074 158.06 56.1074C157.165 56.1074 156.439 56.8329 156.439 57.7278C156.439 58.6227 157.165 59.3481 158.06 59.3481Z" fill="#5C51BB"/>
<path d="M100.33 221.133C101.406 218.952 103.264 215.792 110.874 214.902C118.484 214.012 119.953 211.979 120.611 210.896" stroke="black" stroke-width="1.148" stroke-linecap="round"/>
<path d="M119.366 199.705C116.001 197.623 109.73 193.106 111.564 191.686C113.398 190.266 117.529 196.441 119.366 199.705Z" stroke="black" stroke-width="1.148"/>
<path d="M118.604 199.728C114.679 199.23 107.099 197.721 108.178 195.668C109.258 193.616 115.579 197.52 118.604 199.728Z" stroke="black" stroke-width="1.148"/>
<path d="M125.011 211.519C123.349 214.704 122.292 216.505 114.679 217.402C109.118 218.057 106.519 219.313 105.16 221.133" stroke="black" stroke-width="1.148" stroke-linecap="round"/>
<path d="M136.97 209.51V179.184H120.994V200.326C122.295 200.938 127.404 207.979 128.982 209.51C130.561 211.041 136.97 209.51 136.97 209.51Z" fill="#ADA7DC"/>
<path d="M129.414 209.941C131.672 210.4 136.222 209.75 138.216 209.367C139.019 209.225 139.443 210.137 139.555 210.611C139.666 214.836 139.823 223.602 139.555 224.865C139.287 226.128 138.551 226.508 138.216 226.539H79.62C79.3808 225.056 79.3521 226.071 79.62 224.195C79.9548 221.852 80.5766 216.255 89.7606 209.941C96.5051 205.304 118.795 199.561 120.374 199.705C121.952 199.848 126.592 209.367 129.414 209.941Z" stroke="black" stroke-width="1.148"/>
<path d="M80.3359 221.326C96.3754 221.517 130.647 221.527 139.601 220.226" stroke="black" stroke-width="1.148"/>
<path d="M151.18 250.169C152.256 247.988 154.114 244.828 161.724 243.938C169.333 243.048 170.803 241.016 171.461 239.933" stroke="black" stroke-width="1.148" stroke-linecap="round"/>
<path d="M169.976 229.36C166.61 227.278 160.339 222.761 162.173 221.341C164.007 219.922 168.139 226.096 169.976 229.36Z" stroke="black" stroke-width="1.148"/>
<path d="M169.211 229.385C165.286 228.887 157.707 227.378 158.786 225.325C159.866 223.273 166.186 227.177 169.211 229.385Z" stroke="black" stroke-width="1.148"/>
<path d="M175.812 240.603C174.15 243.788 173.093 245.589 165.48 246.486C159.919 247.141 157.319 248.397 155.961 250.217" stroke="black" stroke-width="1.148" stroke-linecap="round"/>
<path d="M187.578 239.166V213.145H171.602V229.982C172.903 230.594 178.011 237.635 179.59 239.166C181.168 240.697 187.578 239.166 187.578 239.166Z" fill="#ADA7DC"/>
<path d="M188.821 239.023C186.828 239.406 182.278 240.057 180.02 239.597C177.198 239.023 172.558 229.505 170.98 229.361C169.401 229.218 147.111 234.96 140.366 239.597C131.182 245.911 130.56 250.599 130.226 252.943C129.958 254.818 130.37 255.909 130.226 255.765H188.821C189.492 255.43 189.893 255.115 190.161 253.852C190.429 252.589 190.272 244.493 190.161 240.267C190.049 239.793 189.625 238.881 188.821 239.023Z" stroke="black" stroke-width="1.148"/>
<path d="M130.85 250.072C146.889 250.264 181.255 251.182 190.21 249.881" stroke="black" stroke-width="1.148"/>
<path d="M188.488 156.607C188.909 162.462 192.235 187.81 193.846 199.752C194.18 199.752 194.974 200.068 195.472 201.331C196.094 202.909 196.811 212.954 195.472 212.859C194.133 212.763 189.445 215.824 183.418 214.916C177.391 214.007 168.59 214.916 166.628 214.916C164.667 214.916 164.811 214.198 164.715 210.802C164.619 207.406 163.28 206.21 163.184 204.679C163.089 203.149 165.624 202.527 166.628 202.001C167.432 201.58 167.409 200.326 167.298 199.752L161.51 145.844C155.61 142.049 143.688 134.403 143.19 134.173C138.288 131.91 142.59 166.696 142.616 170.957C143.062 171.132 144.051 171.751 144.434 172.822C144.912 174.162 143.716 181.289 142.616 181.719C141.516 182.15 133.145 180.667 130.849 180.476C128.553 180.284 115.495 180.428 114.825 179.854C114.155 179.28 113.39 172.344 114.012 171.483C114.509 170.794 115.208 169.538 115.495 168.996C112.919 155.104 110.336 117.321 115.495 104.181C118.03 97.724 124.392 97.8675 129.845 99.3503C133.984 100.476 167.808 113.365 183.609 119.584C183.609 119.584 185.039 125.291 186.049 133.36C187.292 143.309 187.962 149.288 188.488 156.607Z" fill="#CDCAEA"/>
<path d="M187.302 196.93L185.522 150.054M170.047 197.837L166.084 168.034L170.047 197.837ZM178.974 199.221L179.045 179.699L178.974 199.221Z" stroke="white" stroke-width="0.765333" stroke-linecap="round"/>
<path d="M172.512 122.74C172.512 125.084 173.758 132.105 176.291 135.416C180.643 141.108 182.668 141.746 183.226 142.161" stroke="white" stroke-width="0.765333" stroke-linecap="round"/>
<path d="M168.812 202.25C171.629 202.94 178.27 204.184 182.309 203.646C186.347 203.108 190.234 202.173 191.673 201.772" stroke="white" stroke-width="0.765333" stroke-linecap="round"/>
<path d="M136.982 164.982L137.833 148.905M119.727 165.888V134.411V165.888ZM128.654 167.273L128.725 147.75L128.654 167.273Z" stroke="white" stroke-width="0.765333" stroke-linecap="round"/>
<path d="M118.492 170.304C121.309 170.993 127.95 172.238 131.989 171.699C136.027 171.161 139.914 170.226 141.353 169.826" stroke="white" stroke-width="0.765333" stroke-linecap="round"/>
<path fill-rule="evenodd" clip-rule="evenodd" d="M48.9231 104.979V106.722H52.4126V104.979H48.9231ZM47.1783 104.107V106.722H40.1992C38.7537 106.722 37.582 107.893 37.582 109.338C37.582 110.476 38.3103 111.445 39.3268 111.804V133.024C38.3103 133.383 37.582 134.351 37.582 135.49C37.582 136.934 38.7537 138.105 40.1992 138.105H61.1365C62.582 138.105 63.7537 136.934 63.7537 135.49C63.7537 134.351 63.0254 133.383 62.0089 133.024V111.804C63.0254 111.445 63.7537 110.476 63.7537 109.338C63.7537 107.893 62.582 106.722 61.1365 106.722H54.1574V104.107C54.1574 103.626 53.7669 103.235 53.285 103.235H48.0507C47.5689 103.235 47.1783 103.626 47.1783 104.107ZM48.0507 108.466H53.285H61.1365C61.6184 108.466 62.0089 108.856 62.0089 109.338C62.0089 109.819 61.6184 110.209 61.1365 110.209H40.1992C39.7174 110.209 39.3268 109.819 39.3268 109.338C39.3268 108.856 39.7174 108.466 40.1992 108.466H48.0507ZM41.0716 111.953V132.875H60.2641V111.953H41.0716ZM39.3268 135.49C39.3268 135.009 39.7174 134.618 40.1992 134.618H61.1365C61.6184 134.618 62.0089 135.009 62.0089 135.49C62.0089 135.971 61.6184 136.362 61.1365 136.362H40.1992C39.7174 136.362 39.3268 135.971 39.3268 135.49ZM51.5403 114.568C51.5403 114.087 51.1497 113.696 50.6679 113.696C50.186 113.696 49.7955 114.087 49.7955 114.568V130.26C49.7955 130.741 50.186 131.131 50.6679 131.131C51.1497 131.131 51.5403 130.741 51.5403 130.26V114.568ZM55.9022 113.696C56.384 113.696 56.7746 114.087 56.7746 114.568V130.26C56.7746 130.741 56.384 131.131 55.9022 131.131C55.4204 131.131 55.0298 130.741 55.0298 130.26V114.568C55.0298 114.087 55.4204 113.696 55.9022 113.696ZM46.3059 114.568C46.3059 114.087 45.9154 113.696 45.4335 113.696C44.9517 113.696 44.5611 114.087 44.5611 114.568V130.26C44.5611 130.741 44.9517 131.131 45.4335 131.131C45.9154 131.131 46.3059 130.741 46.3059 130.26V114.568Z" fill="#5C51BB"/>
<path d="M264.289 153.122H236.846L205.83 135.18C204.459 134.389 203.976 132.612 204.768 131.241L208.746 124.366C209.519 123.033 211.353 122.55 212.686 123.303L264.289 153.122ZM273.733 160.847V166.853C273.733 168.977 272.014 170.716 269.87 170.716H201.06C198.935 170.716 197.197 168.977 197.197 166.853V160.847C197.197 158.722 198.935 156.984 201.06 156.984H269.87C272.014 156.984 273.733 158.722 273.733 160.847ZM269.388 174.578L262.435 218.244C261.605 218.108 260.755 218.05 259.886 218.05C249.837 218.05 241.79 226.086 241.79 236.146C241.79 238.483 242.234 240.781 243.142 242.983H217.379C214.501 242.983 212.107 240.936 211.662 238.097L201.543 174.578H269.388Z" fill="#857AE0"/>
<path d="M259.886 238.319C261.084 238.319 262.056 237.347 262.056 236.148C262.056 234.949 261.084 233.978 259.886 233.978C258.687 233.978 257.715 234.949 257.715 236.148C257.715 237.347 258.687 238.319 259.886 238.319Z" fill="#5C51BB"/>
<path d="M259.888 221.912C252.036 221.912 245.654 228.145 245.654 236.146C245.654 243.993 252.007 250.379 259.888 250.379C267.729 250.379 274.121 243.986 274.121 236.146C274.121 228.305 267.729 221.912 259.888 221.912ZM259.883 242.178C256.556 242.178 253.85 239.472 253.85 236.145C253.85 232.818 256.556 230.112 259.883 230.112C263.21 230.112 265.916 232.818 265.916 236.145C265.916 239.472 263.21 242.178 259.883 242.178Z" fill="#5C51BB"/>
<path d="M240.432 103.716C240.432 105.216 240.093 108.142 238.594 108.142C237.094 108.142 235 105.216 235 103.716C235 102.216 236.216 101 237.716 101C239.216 101 240.432 102.216 240.432 103.716Z" fill="#8177D7"/>
<path d="M248.002 103.716C248.002 105.216 247.665 108.142 246.165 108.142C244.664 108.142 242.57 105.216 242.57 103.716C242.57 102.216 243.786 101 245.286 101C246.786 101 248.002 102.216 248.002 103.716Z" fill="#9C96D6"/>
<path d="M255.561 103.716C255.561 105.216 255.223 108.142 253.723 108.142C252.223 108.142 250.129 105.216 250.129 103.716C250.129 102.216 251.345 101 252.845 101C254.345 101 255.561 102.216 255.561 103.716Z" fill="#DEDCF1"/>
</g>
<defs>
<clipPath id="clip0_1889_5145">
<rect width="287" height="287" fill="white"/>
</clipPath>
</defs>
</svg>
