<svg width="30" height="30" viewBox="0 0 30 30" fill="none" xmlns="http://www.w3.org/2000/svg">
<path d="M11.75 13.125L17.7063 2.80625C16.8375 2.6125 15.9312 2.5 15 2.5C12 2.5 9.25625 3.55625 7.1 5.31875L11.6813 13.25L11.75 13.125ZM26.925 11.25C25.775 7.59375 22.9875 4.675 19.4312 3.325L14.8563 11.25H26.925ZM27.25 12.5H17.8875L18.25 13.125L24.2062 23.4375C26.2437 21.2125 27.5 18.2563 27.5 15C27.5 14.1438 27.4125 13.3062 27.25 12.5ZM10.6687 15L5.79375 6.5625C3.75625 8.7875 2.5 11.7437 2.5 15C2.5 15.8562 2.5875 16.6938 2.75 17.5H12.1125L10.6687 15ZM3.075 18.75C4.225 22.4062 7.0125 25.325 10.5688 26.675L15.1437 18.75H3.075ZM17.1625 18.75L12.2875 27.1937C13.1625 27.3875 14.0688 27.5 15 27.5C18 27.5 20.7437 26.4438 22.9 24.6813L18.3187 16.75L17.1625 18.75Z" fill="#5B4DBE"/>
</svg>
