<svg width="30" height="30" viewBox="0 0 30 30" fill="currentColor" xmlns="http://www.w3.org/2000/svg">
<path d="M6.25 2.5H3.75C3.41848 2.5 3.10054 2.6317 2.86612 2.86612C2.6317 3.10054 2.5 3.41848 2.5 3.75V6.25C2.5 6.58152 2.6317 6.89946 2.86612 7.13388C3.10054 7.3683 3.41848 7.5 3.75 7.5C4.08152 7.5 4.39946 7.3683 4.63388 7.13388C4.8683 6.89946 5 6.58152 5 6.25V5H6.25C6.58152 5 6.89946 4.8683 7.13388 4.63388C7.3683 4.39946 7.5 4.08152 7.5 3.75C7.5 3.41848 7.3683 3.10054 7.13388 2.86612C6.89946 2.6317 6.58152 2.5 6.25 2.5ZM26.25 2.5H23.75C23.4185 2.5 23.1005 2.6317 22.8661 2.86612C22.6317 3.10054 22.5 3.41848 22.5 3.75C22.5 4.08152 22.6317 4.39946 22.8661 4.63388C23.1005 4.8683 23.4185 5 23.75 5H25V6.25C25 6.58152 25.1317 6.89946 25.3661 7.13388C25.6005 7.3683 25.9185 7.5 26.25 7.5C26.5815 7.5 26.8995 7.3683 27.1339 7.13388C27.3683 6.89946 27.5 6.58152 27.5 6.25V3.75C27.5 3.41848 27.3683 3.10054 27.1339 2.86612C26.8995 2.6317 26.5815 2.5 26.25 2.5ZM12.5 2.5H10C9.66848 2.5 9.35054 2.6317 9.11612 2.86612C8.8817 3.10054 8.75 3.41848 8.75 3.75C8.75 4.08152 8.8817 4.39946 9.11612 4.63388C9.35054 4.8683 9.66848 5 10 5H12.5C12.8315 5 13.1495 4.8683 13.3839 4.63388C13.6183 4.39946 13.75 4.08152 13.75 3.75C13.75 3.41848 13.6183 3.10054 13.3839 2.86612C13.1495 2.6317 12.8315 2.5 12.5 2.5ZM20 2.5H17.5C17.1685 2.5 16.8505 2.6317 16.6161 2.86612C16.3817 3.10054 16.25 3.41848 16.25 3.75C16.25 4.08152 16.3817 4.39946 16.6161 4.63388C16.8505 4.8683 17.1685 5 17.5 5H20C20.3315 5 20.6495 4.8683 20.8839 4.63388C21.1183 4.39946 21.25 4.08152 21.25 3.75C21.25 3.41848 21.1183 3.10054 20.8839 2.86612C20.6495 2.6317 20.3315 2.5 20 2.5ZM6.25 25H5V23.75C5 23.4185 4.8683 23.1005 4.63388 22.8661C4.39946 22.6317 4.08152 22.5 3.75 22.5C3.41848 22.5 3.10054 22.6317 2.86612 22.8661C2.6317 23.1005 2.5 23.4185 2.5 23.75V26.25C2.5 26.5815 2.6317 26.8995 2.86612 27.1339C3.10054 27.3683 3.41848 27.5 3.75 27.5H6.25C6.58152 27.5 6.89946 27.3683 7.13388 27.1339C7.3683 26.8995 7.5 26.5815 7.5 26.25C7.5 25.9185 7.3683 25.6005 7.13388 25.3661C6.89946 25.1317 6.58152 25 6.25 25ZM26.25 22.5C25.9185 22.5 25.6005 22.6317 25.3661 22.8661C25.1317 23.1005 25 23.4185 25 23.75V25H23.75C23.4185 25 23.1005 25.1317 22.8661 25.3661C22.6317 25.6005 22.5 25.9185 22.5 26.25C22.5 26.5815 22.6317 26.8995 22.8661 27.1339C23.1005 27.3683 23.4185 27.5 23.75 27.5H26.25C26.5815 27.5 26.8995 27.3683 27.1339 27.1339C27.3683 26.8995 27.5 26.5815 27.5 26.25V23.75C27.5 23.4185 27.3683 23.1005 27.1339 22.8661C26.8995 22.6317 26.5815 22.5 26.25 22.5ZM12.5 25H10C9.66848 25 9.35054 25.1317 9.11612 25.3661C8.8817 25.6005 8.75 25.9185 8.75 26.25C8.75 26.5815 8.8817 26.8995 9.11612 27.1339C9.35054 27.3683 9.66848 27.5 10 27.5H12.5C12.8315 27.5 13.1495 27.3683 13.3839 27.1339C13.6183 26.8995 13.75 26.5815 13.75 26.25C13.75 25.9185 13.6183 25.6005 13.3839 25.3661C13.1495 25.1317 12.8315 25 12.5 25ZM20 25H17.5C17.1685 25 16.8505 25.1317 16.6161 25.3661C16.3817 25.6005 16.25 25.9185 16.25 26.25C16.25 26.5815 16.3817 26.8995 16.6161 27.1339C16.8505 27.3683 17.1685 27.5 17.5 27.5H20C20.3315 27.5 20.6495 27.3683 20.8839 27.1339C21.1183 26.8995 21.25 26.5815 21.25 26.25C21.25 25.9185 21.1183 25.6005 20.8839 25.3661C20.6495 25.1317 20.3315 25 20 25ZM3.75 13.75C4.08152 13.75 4.39946 13.6183 4.63388 13.3839C4.8683 13.1495 5 12.8315 5 12.5V10C5 9.66848 4.8683 9.35054 4.63388 9.11612C4.39946 8.8817 4.08152 8.75 3.75 8.75C3.41848 8.75 3.10054 8.8817 2.86612 9.11612C2.6317 9.35054 2.5 9.66848 2.5 10V12.5C2.5 12.8315 2.6317 13.1495 2.86612 13.3839C3.10054 13.6183 3.41848 13.75 3.75 13.75ZM26.25 8.75C25.9185 8.75 25.6005 8.8817 25.3661 9.11612C25.1317 9.35054 25 9.66848 25 10V12.5C25 12.8315 25.1317 13.1495 25.3661 13.3839C25.6005 13.6183 25.9185 13.75 26.25 13.75C26.5815 13.75 26.8995 13.6183 27.1339 13.3839C27.3683 13.1495 27.5 12.8315 27.5 12.5V10C27.5 9.66848 27.3683 9.35054 27.1339 9.11612C26.8995 8.8817 26.5815 8.75 26.25 8.75ZM3.75 21.25C4.08152 21.25 4.39946 21.1183 4.63388 20.8839C4.8683 20.6495 5 20.3315 5 20V17.5C5 17.1685 4.8683 16.8505 4.63388 16.6161C4.39946 16.3817 4.08152 16.25 3.75 16.25C3.41848 16.25 3.10054 16.3817 2.86612 16.6161C2.6317 16.8505 2.5 17.1685 2.5 17.5V20C2.5 20.3315 2.6317 20.6495 2.86612 20.8839C3.10054 21.1183 3.41848 21.25 3.75 21.25ZM26.25 16.25C25.9185 16.25 25.6005 16.3817 25.3661 16.6161C25.1317 16.8505 25 17.1685 25 17.5V20C25 20.3315 25.1317 20.6495 25.3661 20.8839C25.6005 21.1183 25.9185 21.25 26.25 21.25C26.5815 21.25 26.8995 21.1183 27.1339 20.8839C27.3683 20.6495 27.5 20.3315 27.5 20V17.5C27.5 17.1685 27.3683 16.8505 27.1339 16.6161C26.8995 16.3817 26.5815 16.25 26.25 16.25Z"/>
</svg>
