<svg width="28" height="28" viewBox="0 0 28 28" fill="currentColor" xmlns="http://www.w3.org/2000/svg">
<path d="M5.83333 17.5H3.5V22.1667C3.5 23.45 4.55 24.5 5.83333 24.5H10.5V22.1667H5.83333V17.5ZM5.83333 5.83333H10.5V3.5H5.83333C4.55 3.5 3.5 4.55 3.5 5.83333V10.5H5.83333V5.83333ZM22.1667 3.5H17.5V5.83333H22.1667V10.5H24.5V5.83333C24.5 4.55 23.45 3.5 22.1667 3.5ZM22.1667 22.1667H17.5V24.5H22.1667C23.45 24.5 24.5 23.45 24.5 22.1667V17.5H22.1667V22.1667ZM14 9.33333C11.4217 9.33333 9.33333 11.4217 9.33333 14C9.33333 16.5783 11.4217 18.6667 14 18.6667C16.5783 18.6667 18.6667 16.5783 18.6667 14C18.6667 11.4217 16.5783 9.33333 14 9.33333ZM14 16.3333C12.7167 16.3333 11.6667 15.2833 11.6667 14C11.6667 12.7167 12.7167 11.6667 14 11.6667C15.2833 11.6667 16.3333 12.7167 16.3333 14C16.3333 15.2833 15.2833 16.3333 14 16.3333Z"/>
</svg>
