<svg width="30" height="30" viewBox="0 0 30 30" fill="currentColor" xmlns="http://www.w3.org/2000/svg">
<path d="M24.375 4.6875H5.625C4.87934 4.68835 4.16447 4.98494 3.6372 5.5122C3.10994 6.03947 2.81335 6.75434 2.8125 7.5V20.625C2.81335 21.3707 3.10994 22.0855 3.6372 22.6128C4.16447 23.1401 4.87934 23.4366 5.625 23.4375H14.0625V25.3125H11.25C11.0014 25.3125 10.7629 25.4113 10.5871 25.5871C10.4113 25.7629 10.3125 26.0014 10.3125 26.25C10.3125 26.4986 10.4113 26.7371 10.5871 26.9129C10.7629 27.0887 11.0014 27.1875 11.25 27.1875H18.75C18.9986 27.1875 19.2371 27.0887 19.4129 26.9129C19.5887 26.7371 19.6875 26.4986 19.6875 26.25C19.6875 26.0014 19.5887 25.7629 19.4129 25.5871C19.2371 25.4113 18.9986 25.3125 18.75 25.3125H15.9375V23.4375H24.375C25.1207 23.4366 25.8355 23.1401 26.3628 22.6128C26.8901 22.0855 27.1866 21.3707 27.1875 20.625V7.5C27.1866 6.75434 26.8901 6.03947 26.3628 5.5122C25.8355 4.98494 25.1207 4.68835 24.375 4.6875ZM24.375 21.5625H5.625C5.37645 21.5622 5.13816 21.4634 4.9624 21.2876C4.78665 21.1118 4.68778 20.8736 4.6875 20.625V18.75H25.3125V20.625C25.3122 20.8736 25.2134 21.1118 25.0376 21.2876C24.8618 21.4634 24.6236 21.5622 24.375 21.5625Z"/>
</svg>
