<svg width="20" height="20" viewBox="0 0 20 20" fill="none" xmlns="http://www.w3.org/2000/svg">
<path d="M8.33366 2.50033C8.33366 2.72134 8.24586 2.9333 8.08958 3.08958C7.9333 3.24586 7.72134 3.33366 7.50033 3.33366H3.33366V7.50033C3.33366 7.72134 3.24586 7.9333 3.08958 8.08958C2.9333 8.24586 2.72134 8.33366 2.50033 8.33366C2.27931 8.33366 2.06735 8.24586 1.91107 8.08958C1.75479 7.9333 1.66699 7.72134 1.66699 7.50033V2.50033C1.66699 2.27931 1.75479 2.06735 1.91107 1.91107C2.06735 1.75479 2.27931 1.66699 2.50033 1.66699H7.50033C7.72134 1.66699 7.9333 1.75479 8.08958 1.91107C8.24586 2.06735 8.33366 2.27931 8.33366 2.50033ZM17.5003 11.667C17.2793 11.667 17.0674 11.7548 16.9111 11.9111C16.7548 12.0674 16.667 12.2793 16.667 12.5003V16.667H12.5003C12.2793 16.667 12.0674 16.7548 11.9111 16.9111C11.7548 17.0674 11.667 17.2793 11.667 17.5003C11.667 17.7213 11.7548 17.9333 11.9111 18.0896C12.0674 18.2459 12.2793 18.3337 12.5003 18.3337H17.5003C17.7213 18.3337 17.9333 18.2459 18.0896 18.0896C18.2459 17.9333 18.3337 17.7213 18.3337 17.5003V12.5003C18.3337 12.2793 18.2459 12.0674 18.0896 11.9111C17.9333 11.7548 17.7213 11.667 17.5003 11.667ZM17.5003 1.66699H12.5003C12.2793 1.66699 12.0674 1.75479 11.9111 1.91107C11.7548 2.06735 11.667 2.27931 11.667 2.50033C11.667 2.72134 11.7548 2.9333 11.9111 3.08958C12.0674 3.24586 12.2793 3.33366 12.5003 3.33366H16.667V7.50033C16.667 7.72134 16.7548 7.9333 16.9111 8.08958C17.0674 8.24586 17.2793 8.33366 17.5003 8.33366C17.7213 8.33366 17.9333 8.24586 18.0896 8.08958C18.2459 7.9333 18.3337 7.72134 18.3337 7.50033V2.50033C18.3337 2.27931 18.2459 2.06735 18.0896 1.91107C17.9333 1.75479 17.7213 1.66699 17.5003 1.66699ZM7.50033 16.667H3.33366V12.5003C3.33366 12.2793 3.24586 12.0674 3.08958 11.9111C2.9333 11.7548 2.72134 11.667 2.50033 11.667C2.27931 11.667 2.06735 11.7548 1.91107 11.9111C1.75479 12.0674 1.66699 12.2793 1.66699 12.5003V17.5003C1.66699 17.7213 1.75479 17.9333 1.91107 18.0896C2.06735 18.2459 2.27931 18.3337 2.50033 18.3337H7.50033C7.72134 18.3337 7.9333 18.2459 8.08958 18.0896C8.24586 17.9333 8.33366 17.7213 8.33366 17.5003C8.33366 17.2793 8.24586 17.0674 8.08958 16.9111C7.9333 16.7548 7.72134 16.667 7.50033 16.667Z" fill="#5B4DBE"/>
</svg>
