<svg width="20" height="20" viewBox="0 0 20 20" fill="none" xmlns="http://www.w3.org/2000/svg">
<path d="M17.4183 14.9076C17.5487 15.0363 17.7246 15.1084 17.9078 15.1084C18.091 15.1084 18.2668 15.0363 18.3973 14.9076C18.4615 14.8443 18.5126 14.7689 18.5474 14.6857C18.5822 14.6025 18.6001 14.5133 18.6001 14.4231C18.6001 14.3329 18.5822 14.2436 18.5474 14.1605C18.5126 14.0773 18.4615 14.0019 18.3973 13.9386L10.4893 6.10858C10.3588 5.97991 10.183 5.90777 9.99978 5.90777C9.81656 5.90777 9.64071 5.97991 9.51028 6.10858L1.60228 13.9386C1.53803 14.0019 1.487 14.0773 1.45218 14.1605C1.41735 14.2436 1.39941 14.3329 1.39941 14.4231C1.39941 14.5133 1.41735 14.6025 1.45218 14.6857C1.487 14.7689 1.53803 14.8443 1.60228 14.9076C1.73271 15.0363 1.90856 15.1084 2.09178 15.1084C2.275 15.1084 2.45085 15.0363 2.58128 14.9076L10.0003 7.76658L17.4183 14.9076Z" fill="black"/>
</svg>
