<svg width="20" height="20" viewBox="0 0 20 20" fill="none" xmlns="http://www.w3.org/2000/svg">
<path d="M15.833 9.96616C15.7233 9.96553 15.6146 9.98655 15.513 10.028C15.4115 10.0695 15.3191 10.1306 15.2413 10.2078C15.164 10.2857 15.103 10.378 15.0615 10.4796C15.02 10.5811 14.999 10.6898 14.9996 10.7995V16.6328C14.9967 16.7933 14.9475 16.9496 14.8579 17.0828L7.82459 11.7328C7.60636 11.5142 7.34633 11.3417 7.05997 11.2257C6.77362 11.1097 6.46683 11.0526 6.15793 11.0578C5.84915 11.0536 5.54265 11.1111 5.25644 11.227C4.97022 11.343 4.71006 11.5149 4.49126 11.7328L3.26628 12.9745V6.63283C3.26565 6.52315 3.28666 6.41444 3.32813 6.31291C3.3696 6.21138 3.4307 6.11903 3.50793 6.04117C3.5858 5.96393 3.67816 5.90283 3.77969 5.86135C3.88122 5.81988 3.98994 5.79886 4.09962 5.79949H5.76628C5.87654 5.79904 5.98561 5.77671 6.08718 5.73379C6.18874 5.69088 6.28074 5.62824 6.35792 5.5495C6.51187 5.39429 6.5987 5.18478 6.59962 4.96616C6.60025 4.85649 6.57924 4.74778 6.53777 4.64625C6.4963 4.54472 6.43515 4.45237 6.35792 4.3745C6.28005 4.29727 6.18774 4.23616 6.08621 4.19469C5.98468 4.15322 5.87596 4.13219 5.76628 4.13283H4.09962C3.43799 4.1312 2.80271 4.39191 2.33295 4.85784C2.09975 5.09075 1.91488 5.36748 1.78903 5.67211C1.66317 5.97673 1.59881 6.30323 1.59962 6.63283V16.6328C1.61066 16.969 1.68944 17.2994 1.83119 17.6044C1.97295 17.9094 2.17477 18.1827 2.42461 18.4078C2.893 18.8768 3.52845 19.1406 4.19127 19.1412H14.1913C14.8541 19.1406 15.4895 18.8768 15.9579 18.4078C16.4269 17.9394 16.6907 17.304 16.6913 16.6412V10.8078C16.6919 10.6982 16.6709 10.5894 16.6294 10.4879C16.588 10.3864 16.5269 10.294 16.4496 10.2162C16.3695 10.1344 16.2734 10.07 16.1673 10.0269C16.0612 9.98393 15.9474 9.96324 15.833 9.96616ZM4.1663 17.4662C4.05604 17.4657 3.94697 17.4434 3.84541 17.4005C3.74384 17.3575 3.65179 17.2949 3.57461 17.2162C3.42066 17.061 3.33388 16.8514 3.33296 16.6328V15.3328L5.73292 12.8995C5.79235 12.8332 5.86659 12.7818 5.94959 12.7495C6.02874 12.7163 6.11379 12.6993 6.19963 12.6995C6.28556 12.6983 6.37076 12.7154 6.44962 12.7495C6.53263 12.7818 6.60687 12.8332 6.6663 12.8995L12.858 17.4245L4.1663 17.4662Z" fill="#5B4DBE"/>
<path d="M18.2587 4.192C18.2156 4.09199 18.1533 4.00139 18.0753 3.92533L16.0586 1.90867C15.9034 1.75471 15.6939 1.66793 15.4753 1.66701C15.3656 1.66637 15.257 1.68738 15.1554 1.72886C15.0539 1.77033 14.9615 1.83143 14.8837 1.90867L8.80034 7.992C8.71939 8.0673 8.6542 8.15795 8.60864 8.25868C8.56486 8.36145 8.54222 8.47197 8.54201 8.58368V10.6003C8.54137 10.71 8.56238 10.8187 8.60386 10.9203C8.64533 11.0218 8.70642 11.1141 8.78365 11.192C8.86152 11.2692 8.95388 11.3303 9.05541 11.3718C9.15694 11.4133 9.26567 11.4343 9.37534 11.4337H11.392C11.6106 11.4328 11.8201 11.346 11.9753 11.192L18.0587 5.10866C18.1375 5.03016 18.1998 4.93666 18.242 4.83368C18.2875 4.73407 18.313 4.62646 18.317 4.517C18.3138 4.40638 18.2941 4.29685 18.2587 4.192ZM11.042 9.76701H10.2087V8.93367L15.4753 3.67534L16.3086 4.50868L11.042 9.76701Z" fill="#5B4DBE"/>
<path d="M8.55013 5.80046C9.01037 5.80046 9.38346 5.42736 9.38346 4.96712C9.38346 4.50689 9.01037 4.13379 8.55013 4.13379C8.08989 4.13379 7.7168 4.50689 7.7168 4.96712C7.7168 5.42736 8.08989 5.80046 8.55013 5.80046Z" fill="#5B4DBE"/>
<path d="M5.87533 9.40006C6.33556 9.40006 6.70866 9.02697 6.70866 8.56673C6.70866 8.10649 6.33556 7.7334 5.87533 7.7334C5.41509 7.7334 5.04199 8.10649 5.04199 8.56673C5.04199 9.02697 5.41509 9.40006 5.87533 9.40006Z" fill="#5B4DBE"/>
</svg>
