<svg width="20" height="20" viewBox="0 0 20 20" fill="none" xmlns="http://www.w3.org/2000/svg">
<path d="M14.1663 4.16667H12.4997C12.4997 3.91667 12.4997 3.75 12.4163 3.58333C12.1663 2.41667 11.1663 1.66667 9.99967 1.66667C8.83301 1.66667 7.83301 2.41667 7.58301 3.5C7.49967 3.75 7.49967 3.91667 7.49967 4.16667H5.83301C5.83301 3.75 5.91634 3.41667 5.99967 3.08333C6.41634 1.25 8.08301 0 9.99967 0C11.9163 0 13.583 1.25 13.9997 3.16667C14.083 3.41667 14.1663 3.75 14.1663 4.16667ZM9.99967 13.3333C7.66634 13.3333 5.83301 11.5 5.83301 9.16667H7.49967C7.49967 10.5833 8.58301 11.6667 9.99967 11.6667C11.4163 11.6667 12.4997 10.5833 12.4997 9.16667H14.1663C14.1663 11.5 12.333 13.3333 9.99967 13.3333Z" fill="#5B4DBE"/>
<path d="M7.5 4.16634H5.83333C5.83333 3.74967 5.91667 3.41634 6 3.08301L7.58333 3.49967C7.5 3.74967 7.5 3.91634 7.5 4.16634ZM10 16.6663C5.83333 16.6663 2.5 13.333 2.5 9.16634C2.5 8.66634 2.83333 8.33301 3.33333 8.33301C3.83333 8.33301 4.16667 8.66634 4.16667 9.16634C4.16667 12.4163 6.75 14.9997 10 14.9997C13.25 14.9997 15.8333 12.4163 15.8333 9.16634C15.8333 8.66634 16.1667 8.33301 16.6667 8.33301C17.1667 8.33301 17.5 8.66634 17.5 9.16634C17.5 13.333 14.1667 16.6663 10 16.6663ZM13.3333 19.9997H6.66667C6.16667 19.9997 5.83333 19.6663 5.83333 19.1663C5.83333 18.6663 6.16667 18.333 6.66667 18.333H13.3333C13.8333 18.333 14.1667 18.6663 14.1667 19.1663C14.1667 19.6663 13.8333 19.9997 13.3333 19.9997Z" fill="#5B4DBE"/>
<path d="M9.99967 19.9997C9.49967 19.9997 9.16634 19.6663 9.16634 19.1663V15.833C9.16634 15.333 9.49967 14.9997 9.99967 14.9997C10.4997 14.9997 10.833 15.333 10.833 15.833V19.1663C10.833 19.6663 10.4997 19.9997 9.99967 19.9997ZM6.66634 9.99967C6.16634 9.99967 5.83301 9.66634 5.83301 9.16634V4.16634C5.83301 3.66634 6.16634 3.33301 6.66634 3.33301C7.16634 3.33301 7.49967 3.66634 7.49967 4.16634V9.16634C7.49967 9.66634 7.16634 9.99967 6.66634 9.99967ZM13.333 9.99967C12.833 9.99967 12.4997 9.66634 12.4997 9.16634V4.16634C12.4997 3.66634 12.833 3.33301 13.333 3.33301C13.833 3.33301 14.1663 3.66634 14.1663 4.16634V9.16634C14.1663 9.66634 13.833 9.99967 13.333 9.99967Z" fill="#5B4DBE"/>
</svg>
