<svg width="40" height="40" viewBox="0 0 42 42" fill="none" xmlns="http://www.w3.org/2000/svg">
<path d="M19.4996 12.73C19.677 12.5162 19.8971 12.3417 20.1458 12.2177C20.3944 12.0936 20.6662 12.0228 20.9437 12.0096C21.2213 11.9964 21.4985 12.0412 21.7578 12.1412C22.0171 12.2411 22.2527 12.3939 22.4496 12.59C22.8105 12.9698 23.008 13.4761 22.9996 14V17.41C22.9996 17.6752 23.1049 17.9295 23.2925 18.1171C23.48 18.3046 23.7344 18.41 23.9996 18.41C24.2648 18.41 24.5192 18.3046 24.7067 18.1171C24.8942 17.9295 24.9996 17.6752 24.9996 17.41V14C24.9767 13.1973 24.7128 12.4201 24.2422 11.7695C23.7716 11.1189 23.116 10.625 22.3608 10.3521C21.6057 10.0791 20.7858 10.0398 20.008 10.2392C19.2302 10.4385 18.5303 10.8674 17.9996 11.47C17.8832 11.5621 17.7887 11.6789 17.7231 11.812C17.6575 11.9451 17.6223 12.0912 17.6201 12.2396C17.6179 12.388 17.6488 12.535 17.7105 12.67C17.7722 12.805 17.8631 12.9245 17.9768 13.02C18.0904 13.1154 18.2239 13.1844 18.3675 13.2219C18.5111 13.2593 18.6613 13.2644 18.8071 13.2366C18.9528 13.2088 19.0906 13.149 19.2104 13.0613C19.3302 12.9737 19.429 12.8605 19.4996 12.73V12.73ZM27.7196 22.27H27.9196C28.1549 22.2743 28.3843 22.1954 28.5672 22.0472C28.7501 21.899 28.8749 21.6911 28.9196 21.46C28.9913 20.9768 29.0181 20.4881 28.9996 20C28.9996 19.7348 28.8942 19.4804 28.7067 19.2929C28.5192 19.1053 28.2648 19 27.9996 19C27.7344 19 27.48 19.1053 27.2925 19.2929C27.1049 19.4804 26.9996 19.7348 26.9996 20C26.9997 20.3694 26.9628 20.7379 26.8896 21.1C26.8653 21.2315 26.8676 21.3666 26.8964 21.4972C26.9252 21.6278 26.9799 21.7513 27.0573 21.8604C27.1347 21.9695 27.2332 22.062 27.3469 22.1323C27.4607 22.2027 27.5874 22.2495 27.7196 22.27V22.27ZM30.7196 28.33L12.7196 10.33C12.6266 10.2362 12.516 10.1619 12.3942 10.1111C12.2723 10.0603 12.1416 10.0342 12.0096 10.0342C11.8776 10.0342 11.7469 10.0603 11.625 10.1111C11.5031 10.1619 11.3925 10.2362 11.2996 10.33C11.1133 10.5173 11.0088 10.7708 11.0088 11.035C11.0088 11.2992 11.1133 11.5526 11.2996 11.74L16.9996 17.48V20C17.0003 20.7018 17.1857 21.391 17.537 21.9985C17.8884 22.606 18.3934 23.1104 19.0014 23.461C19.6093 23.8116 20.2988 23.9961 21.0006 23.9959C21.7024 23.9957 22.3918 23.8109 22.9996 23.46L24.4596 24.92C23.56 25.555 22.503 25.9301 21.4044 26.0044C20.3058 26.0787 19.208 25.8493 18.2311 25.3412C17.2542 24.8332 16.436 24.0661 15.866 23.124C15.296 22.1819 14.9963 21.1011 14.9996 20C14.9996 19.7348 14.8942 19.4804 14.7067 19.2929C14.5192 19.1053 14.2648 19 13.9996 19C13.7344 19 13.48 19.1053 13.2925 19.2929C13.1049 19.4804 12.9996 19.7348 12.9996 20C13.0013 21.9473 13.7133 23.8271 15.002 25.2869C16.2907 26.7468 18.0676 27.6866 19.9996 27.93V30H17.9996C17.7344 30 17.48 30.1053 17.2925 30.2929C17.1049 30.4804 16.9996 30.7348 16.9996 31C16.9996 31.2652 17.1049 31.5195 17.2925 31.7071C17.48 31.8946 17.7344 32 17.9996 32H23.9996C24.2648 32 24.5192 31.8946 24.7067 31.7071C24.8942 31.5195 24.9996 31.2652 24.9996 31C24.9996 30.7348 24.8942 30.4804 24.7067 30.2929C24.5192 30.1053 24.2648 30 23.9996 30H21.9996V27.93C23.4024 27.7554 24.7323 27.2061 25.8496 26.34L29.2496 29.74C29.4366 29.9283 29.6907 30.0346 29.956 30.0355C30.2214 30.0365 30.4763 29.932 30.6646 29.745C30.8529 29.558 30.9592 29.3039 30.9601 29.0385C30.9611 28.7731 30.8566 28.5183 30.6696 28.33H30.7196ZM20.9996 22C20.4691 22 19.9604 21.7893 19.5854 21.4142C19.2103 21.0391 18.9996 20.5304 18.9996 20V19.48L21.4496 21.94C21.3028 21.9795 21.1516 21.9997 20.9996 22Z" fill="#5B4DBE"/>
</svg>
