<svg width="20" height="20" viewBox="0 0 20 20" fill="none" xmlns="http://www.w3.org/2000/svg">
<path d="M12.5 1.66683C12.5 1.20659 12.1269 0.833496 11.6667 0.833496H8.33333C7.8731 0.833496 7.5 1.20659 7.5 1.66683C7.5 2.12707 7.8731 2.50016 8.33333 2.50016H11.6667C12.1269 2.50016 12.5 2.12707 12.5 1.66683ZM9.16667 10.8335C9.16667 11.2937 9.53976 11.6668 10 11.6668C10.4602 11.6668 10.8333 11.2937 10.8333 10.8335V7.50016C10.8333 7.03993 10.4602 6.66683 10 6.66683C9.53976 6.66683 9.16667 7.03993 9.16667 7.50016V10.8335ZM15.8583 6.1585L16.4499 5.56688C16.7846 5.23227 16.8097 4.69143 16.4758 4.35611C16.1447 4.02365 15.6135 4.05329 15.2818 4.38505L14.6833 4.9835C13.3917 3.95016 11.7667 3.3335 10 3.3335C5.85833 3.3335 2.5 6.69183 2.5 10.8335C2.5 14.9752 5.85 18.3335 10 18.3335C14.15 18.3335 17.5 14.9752 17.5 10.8335C17.5 9.06683 16.8833 7.44183 15.8583 6.1585ZM10 16.6668C6.775 16.6668 4.16667 14.0585 4.16667 10.8335C4.16667 7.6085 6.775 5.00016 10 5.00016C13.225 5.00016 15.8333 7.6085 15.8333 10.8335C15.8333 14.0585 13.225 16.6668 10 16.6668Z" fill="#5B4DBE"/>
</svg>
