<svg width="22" height="20" viewBox="0 0 22 20" fill="none" xmlns="http://www.w3.org/2000/svg">
<path d="M12.7965 14.828H3.01128C2.61202 14.828 2.22911 14.6827 1.94679 14.424C1.66447 14.1654 1.50586 13.8145 1.50586 13.4487V6.55216C1.50586 6.18635 1.66447 5.83551 1.94679 5.57684C2.22911 5.31817 2.61202 5.17285 3.01128 5.17285H12.7965C13.1958 5.17285 13.5787 5.31817 13.861 5.57684C14.1433 5.83551 14.3019 6.18635 14.3019 6.55216V13.4487C14.3019 13.8145 14.1433 14.1654 13.861 14.424C13.5787 14.6827 13.1958 14.828 12.7965 14.828ZM15.8073 7.93147V12.0694L19.1531 14.1135C19.2665 14.1829 19.3984 14.2227 19.5346 14.2287C19.6707 14.2347 19.8061 14.2068 19.9263 14.1478C20.0465 14.0888 20.1469 14.001 20.2169 13.8938C20.2869 13.7866 20.3237 13.664 20.3236 13.5391V6.46182C20.3236 6.33696 20.2866 6.21444 20.2166 6.10733C20.1466 6.00022 20.0461 5.91253 19.926 5.85363C19.8058 5.79473 19.6705 5.76681 19.5344 5.77287C19.3983 5.77893 19.2665 5.81873 19.1531 5.88802L15.8073 7.93147Z" fill="#5B4DBE"/>
</svg>
