<svg width="205" height="204" viewBox="0 0 205 204" fill="none" xmlns="http://www.w3.org/2000/svg">
<path d="M113.47 25.4473L128.832 28.3888L128.001 32.7272L112.639 29.7856L113.47 25.4473Z" fill="#5C51BB"/>
<path d="M131.534 16.8976L116.172 13.9561L115.341 18.2945L130.703 21.236L131.534 16.8976Z" fill="#5C51BB"/>
<path d="M125.045 102.154H36.8447V156.971H125.045V102.154Z" fill="#BDB8E4"/>
<path d="M100.286 134.546H111.526L132.003 133.817V45.3096H29.6565L26.3438 137.583L61.1464 136.342" stroke="black" stroke-width="0.868964"/>
<path d="M128.882 78.7282H85.6152M128.882 72.6816H94.3411H128.882Z" stroke="black" stroke-width="0.868964" stroke-linecap="round"/>
<path d="M176.008 47.3655C176.008 48.5008 175.753 50.7163 174.617 50.7163C173.482 50.7163 171.896 48.5008 171.896 47.3655C171.896 46.23 172.817 45.3096 173.952 45.3096C175.088 45.3096 176.008 46.23 176.008 47.3655Z" fill="black"/>
<path d="M181.739 47.3655C181.739 48.5008 181.482 50.7163 180.348 50.7163C179.212 50.7163 177.627 48.5008 177.627 47.3655C177.627 46.23 178.547 45.3096 179.683 45.3096C180.818 45.3096 181.739 46.23 181.739 47.3655Z" fill="black"/>
<path d="M187.458 47.3655C187.458 48.5008 187.202 50.7163 186.067 50.7163C184.932 50.7163 183.347 48.5008 183.347 47.3655C183.347 46.23 184.267 45.3096 185.403 45.3096C186.538 45.3096 187.458 46.23 187.458 47.3655Z" fill="black"/>
<path d="M39.5966 62.4723C42.4761 62.4723 44.8104 59.9435 44.8104 56.824C44.8104 53.7046 42.4761 51.1758 39.5966 51.1758C36.7171 51.1758 34.3828 53.7046 34.3828 56.824C34.3828 59.9435 36.7171 62.4723 39.5966 62.4723Z" fill="#5C51BB"/>
<path d="M53.1016 62.4723C56.001 62.4723 58.3515 59.9435 58.3515 56.824C58.3515 53.7046 56.001 51.1758 53.1016 51.1758C50.2021 51.1758 47.8516 53.7046 47.8516 56.824C47.8516 59.9435 50.2021 62.4723 53.1016 62.4723Z" fill="#5C51BB"/>
<path d="M66.6073 62.4723C69.4868 62.4723 71.8211 59.9435 71.8211 56.824C71.8211 53.7046 69.4868 51.1758 66.6073 51.1758C63.7278 51.1758 61.3936 53.7046 61.3936 56.824C61.3936 59.9435 63.7278 62.4723 66.6073 62.4723Z" fill="#5C51BB"/>
<path d="M150.962 7.21973L153.216 12.9299L161.092 9.13869L156.027 16.4549L162.548 19.9234L155.024 20.8505L155.47 26.9734L150.962 22.8068L144.734 28.5093L146.9 20.8505L140.831 19.9234L145.896 16.4549L143.793 11.5645L148.707 12.9299L150.962 7.21973Z" fill="#BDB8E4"/>
<path d="M173.372 27.2061L173.958 28.6821L176.007 27.7021L174.69 29.5934L176.386 30.49L174.429 30.7296L174.545 32.3125L173.372 31.2354L171.753 32.7095L172.316 30.7296L170.737 30.49L172.055 29.5934L171.508 28.3292L172.786 28.6821L173.372 27.2061Z" fill="#FFDC4D"/>
<path d="M36.7365 85.4112C23.2617 76.1133 14.1772 86.4851 11.3193 92.8336C14.6324 94.8605 21.9979 98.4986 27.6124 96.1523C33.2269 93.8061 36.256 87.9573 36.7365 85.4112Z" fill="#DEDCF1"/>
<path d="M24.8603 95.3466C28.2797 95.3466 31.0517 92.5746 31.0517 89.1552C31.0517 85.7358 28.2797 82.9639 24.8603 82.9639C21.4409 82.9639 18.6689 85.7358 18.6689 89.1552C18.6689 92.5746 21.4409 95.3466 24.8603 95.3466Z" fill="#5C51BB"/>
<path d="M11.4996 90.7205L7.37207 88.4395" stroke="black" stroke-width="0.868964" stroke-linecap="round"/>
<path d="M14.4347 86.442L10.7949 83.4434" stroke="black" stroke-width="0.868964" stroke-linecap="round"/>
<path d="M19.3067 82.7304L16.582 78.8809" stroke="black" stroke-width="0.868964" stroke-linecap="round"/>
<path d="M25.1604 80.8467L24.6641 76.1572" stroke="black" stroke-width="0.868964" stroke-linecap="round"/>
<path d="M32.1768 81.7323L33.5352 77.2158" stroke="black" stroke-width="0.868964" stroke-linecap="round"/>
<path d="M36.7363 84.0824L39.3308 80.1445" stroke="black" stroke-width="0.868964" stroke-linecap="round"/>
<path d="M194.585 162.804C191.01 152.051 181.668 153.999 177.443 156.318C178.43 158.819 180.986 163.898 185.066 164.94C189.148 165.983 193.259 164.012 194.585 162.804Z" fill="#DEDCF1"/>
<path d="M183.881 163.35C185.771 164.774 188.458 164.397 189.882 162.507C191.307 160.617 190.93 157.93 189.039 156.505C187.149 155.081 184.462 155.458 183.038 157.348C181.613 159.238 181.991 161.925 183.881 163.35Z" fill="#5C51BB"/>
<path d="M178.424 155.227L177.093 152.246" stroke="black" stroke-width="0.868964" stroke-linecap="round"/>
<path d="M181.829 154.085L181.066 150.911" stroke="black" stroke-width="0.868964" stroke-linecap="round"/>
<path d="M186.068 154.064L186.165 150.801" stroke="black" stroke-width="0.868964" stroke-linecap="round"/>
<path d="M190.086 155.46L191.766 152.661" stroke="black" stroke-width="0.868964" stroke-linecap="round"/>
<path d="M193.598 158.872L196.23 156.942" stroke="black" stroke-width="0.868964" stroke-linecap="round"/>
<path d="M195.139 162.072L198.213 160.977" stroke="black" stroke-width="0.868964" stroke-linecap="round"/>
<path d="M50.0583 20.0453C44.885 12.4039 37.9908 15.9912 35.1904 18.74C36.5153 20.483 39.6387 23.9014 43.0676 23.8186C46.4965 23.7359 49.2847 21.2843 50.0583 20.0453Z" fill="#DEDCF1"/>
<path d="M41.7869 22.8331C43.5827 23.5331 45.6059 22.6448 46.3059 20.849C47.0059 19.0532 46.1176 17.03 44.3219 16.33C42.5261 15.63 40.5028 16.5183 39.8028 18.314C39.1028 20.1098 39.9911 22.1331 41.7869 22.8331Z" fill="#5C51BB"/>
<path d="M35.7184 17.6699L34.0176 15.627" stroke="black" stroke-width="0.868964" stroke-linecap="round"/>
<path d="M38.1365 16.0221L36.8389 13.7021" stroke="black" stroke-width="0.868964" stroke-linecap="round"/>
<path d="M41.4554 15.0705L40.8125 12.4912" stroke="black" stroke-width="0.868964" stroke-linecap="round"/>
<path d="M44.9131 15.2794L45.6125 12.7148" stroke="black" stroke-width="0.868964" stroke-linecap="round"/>
<path d="M48.418 17.1805L50.0559 15.0869" stroke="black" stroke-width="0.868964" stroke-linecap="round"/>
<path d="M50.3301 19.3486L52.4989 17.8115" stroke="black" stroke-width="0.868964" stroke-linecap="round"/>
<path d="M64.5434 187.929L74.6849 169.536L62.6284 161.39L57.2658 170.984C57.133 172.155 56.6946 175.532 58.0262 179.71C59.0762 183.005 62.4675 186.939 64.5434 187.929Z" fill="#FF94C1"/>
<path d="M68.7449 54.8321C70.7438 57.7576 70.5432 63.92 70.1932 66.6354C64.1466 67.4682 51.5394 68.8803 49.4828 67.8665C47.4263 66.8527 48.6259 65.0061 49.4828 64.2096C48.7297 63.9779 47.938 63.3889 47.6363 63.1234C46.5646 61.5014 48.0829 60.3958 48.9759 60.0459C45.8766 57.9893 47.6845 56.2441 48.9759 55.6286C46.5139 53.6879 48.288 52.189 49.4828 51.6821H54.1535C50.569 47.7355 51.5828 45.5993 52.8501 45.3097C54.1173 45.02 66.2466 51.1752 68.7449 54.8321Z" fill="#FF94C1"/>
<path d="M54.5155 63.938C55.3482 64.4148 56.8038 65.6436 55.9638 66.7443M49.8086 55.7737C50.8595 55.9893 52.905 56.1687 54.5155 55.6614L49.8086 55.7737ZM54.9138 52.2979C55.9034 52.5633 57.4989 53.4492 55.9638 54.8685C55.5711 55.2315 55.069 55.487 54.5155 55.6614L54.9138 52.2979ZM49.8086 60.0823C51.3293 60.3116 54.6893 60.553 55.9638 59.684C57.5569 58.5978 57.9189 56.4543 54.5155 55.6614L49.8086 60.0823ZM50.3517 64.0651C51.2612 64.1357 53.0376 64.1728 54.5155 63.938L50.3517 64.0651ZM55.9638 60.5892C56.5914 61.3134 57.47 62.9209 55.9638 63.5582C55.5595 63.7291 55.0576 63.8519 54.5155 63.938L55.9638 60.5892Z" stroke="black" stroke-width="0.579309" stroke-linecap="round"/>
<path d="M56.5791 54.3252C57.4602 55.2183 59.7725 57.2435 61.9739 58.1993" stroke="black" stroke-width="0.579309" stroke-linecap="round"/>
<path d="M144.454 78.0038C138.834 76.7294 121.981 77.4731 114.257 78.0038C104.228 78.0038 95.502 83.109 93.2934 84.9918C91.5265 86.498 82.4313 89.1556 77.2537 90.3504C74.6758 87.2221 72.8727 73.3571 72.2934 66.8159C66.9635 63.8036 57.9311 66.5987 54.0811 68.3728C54.7569 73.2006 56.42 85.1366 57.6655 94.2607C59.2224 105.666 61.9017 114.899 69.3965 115.912C75.3927 116.723 93.0399 111.809 101.114 109.25V115.912L161.397 152.843L159.407 123.588L176.642 137.057C179.647 138.759 186.881 140.012 191.776 131.409C197.895 120.655 180.226 105.449 170.993 93.2831C162.612 82.24 151.478 79.5969 144.454 78.0038Z" fill="#5C51BB"/>
<path d="M104.699 100.415C107.778 100.415 110.275 97.919 110.275 94.8395C110.275 91.7601 107.778 89.2637 104.699 89.2637C101.619 89.2637 99.123 91.7601 99.123 94.8395C99.123 97.919 101.619 100.415 104.699 100.415Z" fill="#DEDCF1"/>
<path d="M71.9675 114.102C75.0469 114.102 77.5433 111.606 77.5433 108.526C77.5433 105.447 75.0469 102.95 71.9675 102.95C68.888 102.95 66.3916 105.447 66.3916 108.526C66.3916 111.606 68.888 114.102 71.9675 114.102Z" fill="#DEDCF1"/>
<path d="M66.3916 73.7673C66.3916 76.847 68.888 79.3431 71.9675 79.3431C72.6279 79.3431 73.2622 79.228 73.8502 79.0173L72.4381 68.211C72.2832 68.1979 72.126 68.1914 71.9675 68.1914C68.888 68.1914 66.3916 70.6875 66.3916 73.7673Z" fill="#DEDCF1"/>
<path d="M130.334 135.68C133.413 135.68 135.91 133.184 135.91 130.104C135.91 127.025 133.413 124.528 130.334 124.528C127.254 124.528 124.758 127.025 124.758 130.104C124.758 133.184 127.254 135.68 130.334 135.68Z" fill="#DEDCF1"/>
<path d="M171.319 129.526C174.398 129.526 176.895 127.029 176.895 123.95C176.895 120.87 174.398 118.374 171.319 118.374C168.24 118.374 165.743 120.87 165.743 123.95C165.743 127.029 168.24 129.526 171.319 129.526Z" fill="#DEDCF1"/>
<path d="M181.891 112.798C181.891 115.878 184.387 118.374 187.466 118.374C188.438 118.374 189.242 117.869 190.037 117.433C189.313 115.224 185.68 111.204 183.846 108.558C182.649 109.58 181.891 111.101 181.891 112.798Z" fill="#DEDCF1"/>
<path d="M151.116 101.576C154.195 101.576 156.692 99.0791 156.692 95.9997C156.692 92.9202 154.195 90.4238 151.116 90.4238C148.036 90.4238 145.54 92.9202 145.54 95.9997C145.54 99.0791 148.036 101.576 151.116 101.576Z" fill="#DEDCF1"/>
<path d="M77.5049 91.2576C77.8307 92.2475 78.6852 95.8196 79.3514 99.2955M103.176 90.4248C102.343 94.6009 100.742 103.756 101.003 106.971L103.176 90.4248ZM99.0117 97.3765C99.0117 99.6575 99.0117 104.495 99.0117 105.595V97.3765ZM163.46 101.866C170.098 106.26 183.75 115.321 185.256 116.421L163.46 101.866ZM180.803 109.289C182.046 110.58 184.836 113.597 186.053 115.335L180.803 109.289Z" stroke="black" stroke-width="0.868964" stroke-linecap="round"/>
<path d="M99.0861 109.94L161.288 152.121C161.288 152.121 163.66 188.617 163.424 189.595C163.967 193.831 162.097 196.027 161.288 196.655C143.715 197.077 118.014 197.669 116.971 196.655C113.41 193.194 86.195 160.81 86.195 160.81L74.0309 177.139L57.3019 164.613C57.0123 162.899 56.3533 159.289 56.0347 158.565C55.6364 157.66 54.9485 155.053 53.7174 154.474C52.7326 154.011 51.8588 158.166 51.545 160.302L43.7617 154.474L69.9264 115.914C69.9264 115.914 70.8208 115.893 71.902 115.814C72.658 115.752 73.4951 115.659 74.3206 115.525C75.6754 115.264 77.724 114.574 77.724 114.574C84.0964 103.741 94.6203 106.971 99.0861 109.94Z" fill="black"/>
<path d="M77.5397 115.369L50.5293 156.029" stroke="white" stroke-width="0.868964" stroke-linecap="round"/>
<path d="M86.0127 159.977L94.3403 148.499C94.3403 148.499 102.495 164.015 109.439 172.359C116.175 180.454 129.207 190.571 129.207 190.571" stroke="white" stroke-width="0.868964" stroke-linecap="round"/>
<path d="M146.552 144.19C144.705 149.645 144.01 162.728 156.002 171.418" stroke="white" stroke-width="0.868964" stroke-linecap="round"/>
<path d="M58.7004 180.947C60.309 185.505 64.1582 187.954 65.8818 188.608L62.1953 195.12C61.0303 198.009 58.0014 203.721 55.2053 203.452L16.7129 160.787C17.048 157.627 26.719 152.12 29.2086 152.12C31.6981 152.12 36.39 156.957 39.0232 158.92C41.1298 160.49 47.9122 163.596 51.0402 164.953C51.3273 161.442 52.2945 154.486 53.8648 154.754C55.8277 155.089 57.5513 165.624 57.5513 166.916C57.5513 168.209 56.6895 175.248 58.7004 180.947Z" stroke="black" stroke-width="0.868964"/>
<path d="M46.8378 194.667C45.6723 197.556 42.3069 203.794 39.5097 203.525L1 160.86C1.33528 157.699 11.0106 152.192 13.5012 152.192C15.1397 152.192 17.7315 154.285 20.0634 156.277" stroke="black" stroke-width="0.868964"/>
<path d="M21.2031 156.03C21.3469 157.754 22.0753 161.603 23.839 163.212C28.6348 167.587 35.1017 179.086 40.9481 180.641C44.4466 181.407 48.8557 191.749 51.3478 193.568C53.8398 195.388 57.6738 198.213 60.741 198.021" stroke="black" stroke-width="0.868964"/>
<path d="M5.85156 156.104C5.9953 157.827 6.72378 161.676 8.48742 163.285C13.2832 167.66 19.7501 179.159 25.5965 180.714C29.095 181.48 33.5041 191.822 35.9962 193.641C38.4883 195.461 42.3223 198.286 45.3894 198.094" stroke="black" stroke-width="0.868964"/>
<path d="M24.752 154.293C25.5332 156.749 27.8133 162.281 30.6834 164.768C34.2709 167.877 36.9018 170.89 38.4326 171.895C39.9632 172.899 48.0951 168.307 48.2864 163.811" stroke="black" stroke-width="0.868964"/>
<path d="M65.4482 188.653C63.8037 187.829 59.5089 185.736 57.593 186.23C55.6772 186.724 51.558 190.394 50.1689 192.31" stroke="black" stroke-width="0.868964"/>
<path d="M148.337 90.4599L160.966 100.873C155.865 105.342 153.752 108.283 151.235 114.256L138.343 105.453C136.958 105.574 133.927 105.511 132.885 104.295C131.843 103.079 133.349 101.507 134.232 100.873C132.624 98.7788 134.445 96.7664 135.448 96.2291C135.38 93.5679 137.811 92.8959 139.144 92.6852C140.436 86.5112 145.896 88.336 148.337 90.4599Z" fill="#FF94C1"/>
<path d="M139.742 92.7114C140.744 92.4905 143.186 92.3725 144.944 93.6672" stroke="black" stroke-width="0.579309" stroke-linecap="round"/>
<path d="M136.022 96.269C137.024 96.0481 139.466 95.9301 141.225 97.2248" stroke="black" stroke-width="0.579309" stroke-linecap="round"/>
<path d="M135.101 100.743C136.102 100.522 138.545 100.404 140.303 101.698" stroke="black" stroke-width="0.579309" stroke-linecap="round"/>
<path d="M136.044 103.351L138.087 105.185" stroke="black" stroke-width="0.579309" stroke-linecap="round"/>
<path d="M131.559 50.2117C126.555 50.651 124.33 52.188 121.233 59.0761C119.661 62.5722 119.048 67.7812 120.885 69.3316C122.034 70.3034 124.649 71.2397 127.307 71.8675C127.307 71.8675 127.307 75.9039 126.458 76.8453C125.959 77.3985 124.72 77.7142 124.72 77.7142C124.72 77.7142 123.961 81.2625 127.307 83.2901C132.504 86.4401 141.845 78.0401 141.845 78.0401C140.634 77.6802 139.099 76.9676 138.882 76.1718C138.664 75.3767 139.953 71.1572 140.624 69.147C142.725 66.8949 143.9 63.7757 143.607 60.4429C143.064 54.2558 137.67 49.6751 131.559 50.2117Z" fill="#FF94C1"/>
<path d="M122.835 63.3596L125.492 60.3662L125.481 64.2261L122.835 63.3596Z" fill="#F83385"/>
<path d="M125.221 60.6104L122.674 63.3103L125.32 64.1129" stroke="black" stroke-width="0.434482" stroke-linecap="round"/>
<path d="M125.376 66.7198L122.37 65.6162C122.445 66.0789 122.842 66.9327 123.361 67.2318C124.221 67.7249 124.901 67.1557 125.376 66.7198Z" stroke="black" stroke-width="0.434482"/>
<path d="M121.807 59.5721C122.216 59.8267 122.754 59.7018 123.009 59.293C123.263 58.8842 123.138 58.3464 122.729 58.0918C122.321 57.8373 121.783 57.9622 121.528 58.371C121.274 58.7798 121.399 59.3176 121.807 59.5721Z" fill="black"/>
<path d="M127.846 61.953C128.254 62.2076 128.792 62.0826 129.047 61.6738C129.301 61.2651 129.176 60.7273 128.767 60.4727C128.359 60.2181 127.821 60.3431 127.566 60.7519C127.312 61.1606 127.437 61.6984 127.846 61.953Z" fill="black"/>
<path d="M128.552 58.1582C129.347 58.1574 130.36 58.4849 130.875 59.0545" stroke="black" stroke-width="0.434482" stroke-linecap="round"/>
<path d="M123.982 56.46C123.338 55.9931 122.326 55.6644 121.575 55.824" stroke="black" stroke-width="0.434482" stroke-linecap="round"/>
<path d="M128.089 65.1768C128.51 65.439 129.064 65.3103 129.326 64.8894C129.588 64.4684 129.46 63.9146 129.039 63.6524C128.618 63.3903 128.064 63.519 127.802 63.9399C127.539 64.3609 127.668 64.9147 128.089 65.1768Z" fill="#F83385"/>
<path d="M120.804 62.2999C121.225 62.5621 121.779 62.4333 122.041 62.0124C122.303 61.5915 122.174 61.0377 121.753 60.7755C121.332 60.5133 120.779 60.642 120.516 61.063C120.254 61.4839 120.383 62.0377 120.804 62.2999Z" fill="#F83385"/>
<path d="M133.418 56.619C128.551 57.0462 125.148 55.1706 124.326 53.6234C123.77 52.4815 123.287 49.8284 125.807 48.3511C128.327 46.8739 130.381 48.3632 131.093 49.2925H132.65C132.735 45.9373 134.518 39.4153 140.978 40.1684C147.437 40.9215 148.4 45.4304 148.074 47.5907C149.571 47.3132 152.564 47.6197 152.564 51.0666C152.564 54.5135 150.56 55.3752 149.559 55.3752C150.368 56.4373 151.441 59.0466 149.269 60.9873C147.097 62.9279 144.614 61.7959 143.643 60.9873C143.77 64.1142 142.612 67.0186 140.625 69.1476C135.263 69.6182 135.006 65.9251 135.549 64.0197C135.878 63.0345 136.832 60.7238 138.008 59.3622C139.478 57.66 137.177 56.2889 133.418 56.619Z" fill="black"/>
<path d="M135.836 66.7848C136.862 67.4166 138.395 66.7894 139.261 65.3839C140.127 63.9783 139.998 62.3267 138.972 61.6948C137.947 61.063 136.413 61.6902 135.547 63.0958C134.681 64.5013 134.811 66.1529 135.836 66.7848Z" fill="#F83385"/>
<path d="M136.017 64.2424C136.395 63.6754 137.392 62.8369 138.051 62.6836" stroke="black" stroke-width="0.434482" stroke-linecap="round"/>
<path d="M137.5 63.0117C137.732 63.2998 138.004 63.9523 137.976 64.3185" stroke="black" stroke-width="0.434482" stroke-linecap="round"/>
<path d="M136.233 65.876C133.574 65.876 131.418 68.0317 131.418 70.6915C131.418 73.3512 133.574 75.507 136.233 75.507C138.893 75.507 141.049 73.3512 141.049 70.6915C141.049 69.0549 140.233 67.6096 138.985 66.7392" stroke="black" stroke-width="0.579309" stroke-linecap="round"/>
<path d="M98.5862 1.32031L109.169 3.42501L102.728 35.8113L92.1457 33.7067C83.2019 31.928 77.3943 23.2362 79.1728 14.2929C80.9513 5.34969 89.6431 -0.458319 98.5862 1.32031Z" stroke="#090712" stroke-width="0.868964"/>
<path d="M78.8089 15.5107C70.6384 16.1384 51.2043 15.1487 49.7348 31.4418C49.0015 39.5719 51.6093 46.6152 52.8066 51.3917M188.262 113.776C199.088 94.6951 190.145 83.8693 181.166 83.8693C172.186 83.8693 177.436 104.471 185.293 101.14C193.15 97.8089 200.21 77.171 177.436 64.4986C159.217 54.3607 149.109 68.2641 147.204 80.9365C146.853 83.2668 146.389 85.8382 145.806 88.5761M203.976 189.629C196.372 192.49 179.153 194.546 171.1 179.89C164.623 168.101 169.106 152.008 176.01 136.948M140.523 107.295C133.341 127.489 120.691 147.971 101.257 147.774C65.4123 147.412 55.021 103.312 73.9572 83.8693C92.8933 64.4262 101.257 90.4227 96.4778 101.14C93.7007 107.367 84.602 119.714 64.2537 118.085C43.9055 116.455 40.9365 101.249 40.9365 96.252C40.9366 87.6348 44.4486 82.8917 49.7348 75.252C51.4016 72.8428 52.586 70.5241 53.413 68.4089" stroke="#090712" stroke-width="0.868964" stroke-linecap="round"/>
<path d="M109.888 1.33984L117.929 2.93925L110.61 39.7434L102.567 38.144L109.888 1.33984Z" stroke="#090712" stroke-width="0.868964"/>
</svg>
