<svg width="108" height="26" viewBox="0 0 108 26" fill="none" xmlns="http://www.w3.org/2000/svg">
<path d="M5.71766 14.8952C5.71698 16.2812 6.01578 17.6515 6.5942 18.9149C7.17261 20.1784 8.01739 21.306 9.07234 22.2228L7.345 23.9248C5.49515 22.2718 4.19652 20.1057 3.61997 17.7115C3.04342 15.3173 3.21598 12.8073 4.11492 10.5116C5.01387 8.21586 6.5971 6.24209 8.65628 4.84998C10.7155 3.45786 13.1541 2.7126 15.6514 2.71228V5.10108C13.0167 5.10424 10.491 6.13732 8.62859 7.97355C6.76617 9.80978 5.71926 12.2991 5.71766 14.8952Z" fill="#F9DA2A"/>
<path d="M0.84836 14.8764C0.847412 16.8921 1.27144 18.8861 2.09358 20.7319C2.91571 22.5777 4.11802 24.2351 5.62431 25.5991L9.0699 22.204C7.55948 20.8881 6.49132 19.1504 6.00743 17.2218C5.52355 15.2933 5.64686 13.2653 6.36098 11.4075C7.07509 9.54972 8.34618 7.95009 10.0053 6.8213C11.6643 5.69252 13.6328 5.08805 15.649 5.08827V0.310669C11.728 0.31461 7.96845 1.8499 5.19419 4.58013C2.41993 7.31036 0.85718 11.0129 0.84836 14.8764Z" fill="#F3DE3A"/>
<path d="M15.1492 10.7776C14.3015 10.777 13.4726 11.0242 12.7675 11.4879C12.0624 11.9516 11.5127 12.611 11.188 13.3826C10.8633 14.1543 10.7782 15.0035 10.9434 15.8228C11.1086 16.6421 11.5168 17.3947 12.1163 17.9853C12.7157 18.576 13.4795 18.9782 14.311 19.141C15.1425 19.3038 16.0043 19.22 16.7874 18.9C17.5705 18.5801 18.2397 18.0385 18.7103 17.3437C19.1809 16.6489 19.4318 15.8321 19.4312 14.9968C19.4312 13.8778 18.9801 12.8046 18.1771 12.0134C17.374 11.2221 16.2849 10.7776 15.1492 10.7776ZM16.1766 14.7281C15.9056 14.7281 15.6408 14.6489 15.4156 14.5006C15.1903 14.3523 15.0147 14.1415 14.9111 13.8949C14.8074 13.6483 14.7803 13.3769 14.8331 13.1151C14.886 12.8533 15.0164 12.6128 15.208 12.424C15.3996 12.2353 15.6436 12.1067 15.9093 12.0547C16.175 12.0026 16.4504 12.0293 16.7007 12.1315C16.951 12.2336 17.165 12.4066 17.3155 12.6286C17.466 12.8505 17.5463 13.1115 17.5463 13.3784C17.5467 13.5557 17.5115 13.7314 17.4429 13.8954C17.3742 14.0593 17.2733 14.2082 17.146 14.3336C17.0187 14.459 16.8676 14.5584 16.7012 14.6261C16.5348 14.6938 16.3565 14.7285 16.1766 14.7281Z" fill="#F3DE3A"/>
<path d="M27.4856 18.9948C27.0392 18.8085 26.6527 18.5061 26.3674 18.1199C26.0969 17.7392 25.952 17.2857 25.9522 16.821H27.222C27.2568 17.2293 27.4461 17.6098 27.7523 17.887C28.1301 18.1983 28.6155 18.3535 29.1069 18.32C29.5917 18.3469 30.0696 18.197 30.4494 17.8989C30.6083 17.7673 30.735 17.6019 30.82 17.4153C30.905 17.2286 30.9461 17.0255 30.9403 16.821C30.9493 16.5147 30.8411 16.2163 30.6373 15.9849C30.4396 15.767 30.1925 15.5981 29.916 15.4922C29.613 15.3817 29.2402 15.2623 28.7523 15.1309C28.2582 15.0133 27.7739 14.8585 27.3038 14.6681C26.9353 14.5079 26.6149 14.257 26.3734 13.9395C26.0983 13.549 25.9629 13.0794 25.9886 12.6048C25.9806 12.1424 26.1124 11.6881 26.3674 11.2999C26.6325 10.9146 27.0021 10.6104 27.4341 10.422C27.9325 10.2119 28.471 10.1101 29.0129 10.1234C29.7654 10.0914 30.5064 10.3137 31.113 10.7534C31.3784 10.9532 31.5979 11.206 31.7572 11.4952C31.9165 11.7844 32.0119 12.1035 32.0373 12.4316H30.7403C30.6827 12.074 30.4859 11.7527 30.1918 11.5358C29.8242 11.2589 29.369 11.1193 28.9069 11.1416C28.4702 11.1238 28.041 11.2581 27.6947 11.5208C27.5383 11.6508 27.4146 11.8147 27.3331 11.9996C27.2516 12.1845 27.2146 12.3855 27.225 12.5868C27.2177 12.8701 27.3158 13.1462 27.5008 13.3632C27.6917 13.5708 27.9294 13.7313 28.1947 13.832C28.5741 13.9734 28.9605 14.096 29.3524 14.1993C29.8479 14.3273 30.334 14.489 30.807 14.683C31.1783 14.8481 31.5022 15.1015 31.7494 15.4206C32.0293 15.8136 32.167 16.2879 32.1403 16.7672C32.1404 17.2042 32.0188 17.6328 31.7888 18.0064C31.5355 18.4104 31.1722 18.7363 30.7403 18.947C30.2333 19.1983 29.6712 19.3224 29.1039 19.3083C28.5479 19.3191 27.996 19.2122 27.4856 18.9948Z" fill="#383C44"/>
<path d="M33.8936 13.7401C34.1754 13.2102 34.6042 12.7701 35.13 12.4711C35.7514 12.147 36.4495 11.9928 37.1518 12.0243C37.8542 12.0558 38.5351 12.2719 39.1241 12.6502C39.7033 13.0826 40.1056 13.7058 40.2575 14.406H38.9817C38.8718 13.9945 38.6186 13.6341 38.2665 13.3878C37.8802 13.1271 37.4192 12.9952 36.9513 13.0115C36.6416 13.0006 36.3332 13.0568 36.0479 13.1759C35.7625 13.2951 35.5072 13.4744 35.2997 13.7013C34.8504 14.2533 34.6266 14.9509 34.6724 15.6571C34.6261 16.3689 34.8497 17.0722 35.2997 17.6309C35.5066 17.8588 35.7617 18.0393 36.0471 18.1595C36.3325 18.2797 36.6411 18.3367 36.9513 18.3266C37.4153 18.3441 37.8732 18.2178 38.2604 17.9653C38.6164 17.7137 38.8717 17.347 38.9817 16.9292H40.2635C40.0925 17.6202 39.686 18.2326 39.112 18.664C38.4847 19.1154 37.7215 19.3458 36.9452 19.318C36.3091 19.3306 35.6813 19.1749 35.127 18.8671C34.6001 18.5654 34.1712 18.1221 33.8906 17.5891C33.5819 16.9903 33.4288 16.3255 33.4451 15.6541C33.4309 14.9893 33.585 14.3315 33.8936 13.7401Z" fill="#383C44"/>
<path d="M43.9257 12.3469C44.3584 12.1118 44.8471 11.9953 45.3409 12.0095V13.2218H45.0379C43.7025 13.2218 43.0347 13.9364 43.0347 15.3657V19.2087H41.8438V12.1379H43.0347V13.2875C43.2328 12.8954 43.5424 12.5686 43.9257 12.3469Z" fill="#383C44"/>
<path d="M53.2262 16.112H47.4987C47.499 16.4099 47.56 16.7047 47.6782 16.9788C47.7964 17.253 47.9693 17.501 48.1867 17.7079C48.4042 17.9149 48.6616 18.0767 48.9437 18.1837C49.2259 18.2906 49.527 18.3406 49.8291 18.3306C50.2865 18.3479 50.738 18.2237 51.1201 17.9753C51.4585 17.744 51.7133 17.4124 51.8474 17.0287H53.1292C52.9457 17.6931 52.54 18.277 51.9777 18.6859C51.3525 19.1261 50.597 19.3498 49.8291 19.3219C49.1935 19.3308 48.5665 19.1754 48.0109 18.8711C47.4747 18.5707 47.0372 18.1251 46.7502 17.5871C46.434 16.9927 46.2755 16.3291 46.2896 15.6581C46.2747 14.9907 46.4277 14.3301 46.7351 13.7352C47.0174 13.2007 47.4525 12.7595 47.9866 12.4661C48.5538 12.161 49.1922 12.0076 49.8382 12.0212C50.4726 12.0069 51.0997 12.1572 51.6565 12.4572C52.1665 12.735 52.5867 13.149 52.8686 13.6515C53.1576 14.1859 53.3037 14.784 53.2929 15.3894C53.2841 15.6313 53.2619 15.8725 53.2262 16.112ZM51.7353 14.0039C51.5405 13.6861 51.2562 13.431 50.917 13.2693C50.5608 13.0972 50.1683 13.0102 49.7715 13.0155C49.2037 13.0037 48.6528 13.2068 48.2321 13.5829C47.7935 13.9958 47.533 14.5593 47.5048 15.1565H52.0504C52.0586 14.7514 51.9515 14.3521 51.7413 14.0039H51.7353Z" fill="#383C44"/>
<path d="M61.3453 16.1119H55.6118C55.612 16.4098 55.673 16.7046 55.7912 16.9787C55.9094 17.2529 56.0824 17.5009 56.2998 17.7078C56.5172 17.9148 56.7746 18.0766 57.0568 18.1836C57.3389 18.2905 57.64 18.3405 57.9422 18.3305C58.3987 18.3482 58.8493 18.2239 59.2301 17.9752C59.5703 17.7457 59.8256 17.4135 59.9574 17.0286H61.2423C61.0575 17.6932 60.6508 18.2771 60.0877 18.6858C59.4637 19.126 58.7091 19.3497 57.9422 19.3218C57.3065 19.3307 56.6796 19.1753 56.1239 18.871C55.5875 18.5698 55.1492 18.1245 54.8602 17.587C54.545 16.9923 54.3876 16.3288 54.4026 15.658C54.3877 14.9906 54.5408 14.33 54.8481 13.7351C55.1292 13.2007 55.5633 12.7594 56.0966 12.466C56.6649 12.161 57.3043 12.0076 57.9513 12.0211C58.5856 12.0076 59.2124 12.1579 59.7695 12.457C60.2796 12.7349 60.6997 13.1489 60.9817 13.6514C61.2698 14.1861 61.4158 14.784 61.4059 15.3893C61.3992 15.6311 61.3789 15.8723 61.3453 16.1119ZM59.8544 14.0038C59.658 13.6873 59.3741 13.4326 59.0361 13.2692C58.6799 13.0971 58.2874 13.0101 57.8906 13.0154C57.3228 13.0036 56.7719 13.2067 56.3512 13.5828C55.9113 13.9948 55.6506 14.5589 55.6239 15.1564H60.1544C60.1653 14.7522 60.0614 14.353 59.8544 14.0038Z" fill="#383C44"/>
<path d="M68.5873 12.7939C69.1287 13.3134 69.3994 14.0639 69.3994 15.0453V19.2257H68.2206V15.2125C68.2614 14.6249 68.0691 14.0447 67.6842 13.5941C67.4942 13.4034 67.2651 13.2547 67.0122 13.1579C66.7593 13.0611 66.4884 13.0184 66.2175 13.0327C65.9376 13.0173 65.6577 13.061 65.3963 13.161C65.135 13.2609 64.8984 13.4147 64.7023 13.612C64.3039 14.0842 64.1053 14.6895 64.1477 15.3021V19.2108H62.9568V12.1399H64.1477V13.1462C64.3825 12.7846 64.7152 12.495 65.1084 12.3101C65.5259 12.1081 65.9858 12.0058 66.4509 12.0115C66.8421 11.9932 67.2331 12.053 67.6002 12.1875C67.9674 12.3219 68.3032 12.5282 68.5873 12.7939Z" fill="#383C44"/>
<path d="M80.5936 10.2877V19.2158H79.4027V12.5601L76.3935 19.2158H75.5541L72.5237 12.5451V19.2158H71.3327V10.2877H72.6176L75.9692 17.6691L79.3209 10.2877H80.5936Z" fill="#383C44"/>
<path d="M83.9077 18.8702C83.3594 18.5735 82.9092 18.1278 82.6107 17.5862C82.292 16.9926 82.1324 16.3286 82.147 15.6573C82.133 14.9883 82.297 14.3273 82.6228 13.7402C82.9275 13.2034 83.3789 12.7616 83.9259 12.4652C84.4964 12.1729 85.1299 12.0203 85.7729 12.0203C86.4159 12.0203 87.0495 12.1729 87.62 12.4652C88.1661 12.76 88.6175 13.1996 88.923 13.7343C89.2502 14.323 89.4143 14.9862 89.3988 15.6573C89.4134 16.332 89.2439 16.9981 88.9079 17.5862C88.5949 18.1272 88.1353 18.5718 87.5806 18.8702C87.0127 19.1711 86.3767 19.3252 85.732 19.3181C85.0947 19.328 84.4658 19.1736 83.9077 18.8702ZM86.9381 17.9923C87.3219 17.7856 87.6375 17.4747 87.8472 17.0965C88.0903 16.6533 88.2105 16.1548 88.1957 15.6513C88.2108 15.1484 88.0928 14.6504 87.8533 14.2061C87.6502 13.829 87.3408 13.5179 86.9624 13.3103C86.594 13.1201 86.1843 13.0207 85.7684 13.0207C85.3525 13.0207 84.9428 13.1201 84.5744 13.3103C84.2007 13.5172 83.898 13.8291 83.7047 14.2061C83.4742 14.6531 83.3616 15.1501 83.3774 15.6513C83.361 16.1553 83.4702 16.6557 83.6956 17.1084C83.8844 17.4846 84.1831 17.7966 84.5532 18.0042C84.914 18.2009 85.3197 18.3037 85.732 18.3028C86.154 18.3001 86.5687 18.1933 86.9381 17.9923Z" fill="#383C44"/>
<path d="M92.3074 18.8701C91.7636 18.5717 91.3178 18.1261 91.0225 17.5862C90.7038 16.9926 90.5442 16.3286 90.5588 15.6572C90.5443 14.9878 90.7095 14.3265 91.0376 13.7402C91.34 13.2017 91.7921 12.7594 92.3407 12.4652C92.9107 12.1729 93.5438 12.0203 94.1863 12.0203C94.8288 12.0203 95.4619 12.1729 96.0319 12.4652C96.5789 12.7588 97.0306 13.1987 97.335 13.7342C97.6622 14.323 97.8263 14.9862 97.8108 15.6572C97.8254 16.3319 97.6558 16.9981 97.3198 17.5862C97.0068 18.1272 96.5472 18.5718 95.9925 18.8701C95.4257 19.171 94.7907 19.3251 94.1469 19.318C93.5045 19.3303 92.8701 19.1758 92.3074 18.8701ZM95.3379 17.9923C95.7217 17.7856 96.0372 17.4747 96.247 17.0965C96.4901 16.6533 96.6103 16.1548 96.5955 15.6513C96.6142 15.1517 96.5014 14.6559 96.2682 14.212C96.0654 13.8358 95.7572 13.5249 95.3803 13.3162C95.0114 13.126 94.6012 13.0267 94.1848 13.0267C93.7684 13.0267 93.3582 13.126 92.9893 13.3162C92.6156 13.5232 92.3128 13.835 92.1195 14.212C91.889 14.659 91.7764 15.156 91.7922 15.6572C91.7752 16.1617 91.8856 16.6624 92.1135 17.1144C92.3004 17.4918 92.5996 17.8043 92.9711 18.0102C93.3305 18.2076 93.7354 18.3105 94.1469 18.3088C94.5644 18.3019 94.9736 18.1932 95.3379 17.9923Z" fill="#383C44"/>
<path d="M99.3801 13.7482C99.6558 13.2219 100.076 12.7822 100.592 12.4792C101.123 12.1751 101.727 12.0192 102.341 12.0283C102.884 12.0244 103.419 12.1548 103.898 12.4075C104.35 12.6369 104.73 12.9826 104.998 13.4078V9.66638H106.21V19.2215H104.998V17.8838C104.75 18.317 104.388 18.676 103.95 18.9229C103.456 19.2011 102.894 19.3405 102.326 19.3261C101.714 19.3334 101.113 19.1716 100.59 18.8591C100.067 18.5467 99.6439 18.096 99.368 17.5583C99.0633 16.9678 98.9104 16.3126 98.9225 15.6503C98.9121 14.9886 99.0694 14.3349 99.3801 13.7482ZM104.683 14.2708C104.479 13.8968 104.172 13.5866 103.798 13.375C103.425 13.1694 103.005 13.0615 102.577 13.0615C102.15 13.0615 101.729 13.1694 101.356 13.375C100.984 13.5864 100.681 13.8969 100.48 14.2708C100.253 14.7009 100.141 15.1806 100.153 15.6652C100.141 16.1555 100.253 16.641 100.48 17.0776C100.679 17.4576 100.982 17.7744 101.356 17.9913C101.724 18.2026 102.142 18.3119 102.568 18.3078C102.993 18.3105 103.412 18.2012 103.78 17.9913C104.157 17.7758 104.464 17.4588 104.665 17.0776C104.891 16.6451 105.004 16.1636 104.992 15.6772C105.012 15.1901 104.905 14.7062 104.683 14.2708Z" fill="#383C44"/>
</svg>
