<svg width="160" height="45" viewBox="0 0 160 45" fill="none" xmlns="http://www.w3.org/2000/svg">
<path d="M11.4 25.7533C11.399 27.7426 11.8277 29.7094 12.6576 31.5227C13.4874 33.3361 14.6995 34.9545 16.213 36.2704L13.7348 38.7133C11.0807 36.3408 9.21756 33.2318 8.39037 29.7955C7.56318 26.3592 7.81075 22.7566 9.10049 19.4616C10.3902 16.1667 12.6617 13.3338 15.6161 11.3357C18.5705 9.33768 22.0693 8.26804 25.6522 8.26758V11.6961C21.8722 11.7007 18.2484 13.1834 15.5764 15.8189C12.9043 18.4544 11.4023 22.0273 11.4 25.7533Z" fill="#2A292F"/>
<path d="M4.41736 25.7524C4.416 28.6455 5.02437 31.5074 6.2039 34.1567C7.38344 36.8059 9.10843 39.1847 11.2695 41.1424L16.213 36.2695C14.046 34.3809 12.5135 31.8868 11.8192 29.1188C11.125 26.3508 11.3019 23.4401 12.3265 20.7737C13.351 18.1072 15.1747 15.8113 17.555 14.1912C19.9353 12.5711 22.7595 11.7035 25.6521 11.7038V4.84668C20.0266 4.85234 14.6327 7.0559 10.6524 10.9745C6.67214 14.8931 4.43001 20.2072 4.41736 25.7524Z" fill="#2A292F"/>
<path d="M24.9434 19.873C23.7271 19.8722 22.5379 20.227 21.5262 20.8926C20.5146 21.5581 19.7259 22.5045 19.2601 23.612C18.7942 24.7195 18.6721 25.9383 18.9092 27.1142C19.1463 28.2902 19.7319 29.3703 20.5919 30.2181C21.452 31.0659 22.5478 31.6431 23.7408 31.8768C24.9337 32.1105 26.1702 31.9901 27.2938 31.5309C28.4173 31.0717 29.3774 30.2943 30.0526 29.2971C30.7278 28.2999 31.0878 27.1277 31.0869 25.9288C31.0869 24.3227 30.4397 22.7824 29.2875 21.6467C28.1354 20.5111 26.5728 19.873 24.9434 19.873ZM26.4173 25.543C26.0287 25.543 25.6487 25.4294 25.3255 25.2166C25.0024 25.0037 24.7505 24.7012 24.6017 24.3472C24.453 23.9933 24.4141 23.6038 24.4899 23.228C24.5657 22.8522 24.7529 22.5071 25.0277 22.2361C25.3026 21.9652 25.6527 21.7807 26.034 21.706C26.4152 21.6312 26.8103 21.6696 27.1694 21.8162C27.5285 21.9628 27.8354 22.2111 28.0514 22.5297C28.2673 22.8482 28.3826 23.2228 28.3826 23.6059C28.3831 23.8605 28.3327 24.1126 28.2341 24.3479C28.1356 24.5832 27.9908 24.7969 27.8082 24.9769C27.6256 25.1569 27.4088 25.2996 27.1701 25.3967C26.9314 25.4939 26.6756 25.5436 26.4173 25.543Z" fill="#5B4DBE"/>
<path d="M42.6348 31.6542C41.9944 31.3868 41.4398 30.9527 41.0305 30.3985C40.6425 29.8521 40.4345 29.2012 40.4348 28.5342H42.2566C42.3065 29.1202 42.5781 29.6663 43.0174 30.0642C43.5595 30.5111 44.256 30.7338 44.9609 30.6856C45.6565 30.7243 46.3421 30.5092 46.887 30.0813C47.115 29.8924 47.2968 29.6551 47.4187 29.3872C47.5407 29.1193 47.5997 28.8277 47.5913 28.5342C47.6043 28.0946 47.4491 27.6663 47.1566 27.3342C46.873 27.0214 46.5184 26.7791 46.1218 26.6271C45.687 26.4685 45.1522 26.2971 44.4522 26.1085C43.7433 25.9396 43.0485 25.7176 42.3739 25.4442C41.8453 25.2144 41.3856 24.8542 41.0392 24.3985C40.6445 23.838 40.4502 23.1641 40.487 22.4828C40.4755 21.8192 40.6647 21.1672 41.0305 20.6099C41.4108 20.0569 41.9411 19.6203 42.5609 19.3499C43.276 19.0484 44.0486 18.9023 44.8261 18.9213C45.9057 18.8754 46.9688 19.1944 47.8392 19.8256C48.2199 20.1123 48.5348 20.4751 48.7634 20.8902C48.9919 21.3053 49.1289 21.7633 49.1653 22.2342H47.3044C47.2217 21.721 46.9394 21.2598 46.5174 20.9485C45.9901 20.5511 45.337 20.3507 44.6739 20.3828C44.0474 20.3572 43.4317 20.5499 42.9348 20.9271C42.7105 21.1136 42.5329 21.3488 42.416 21.6142C42.2991 21.8796 42.246 22.1681 42.2609 22.4571C42.2505 22.8636 42.3912 23.2599 42.6566 23.5713C42.9305 23.8693 43.2715 24.0997 43.6522 24.2442C44.1965 24.4472 44.7509 24.6231 45.3131 24.7713C46.0241 24.9551 46.7214 25.1871 47.4 25.4656C47.9328 25.7026 48.3975 26.0663 48.7522 26.5242C49.1537 27.0883 49.3513 27.769 49.3131 28.4571C49.3132 29.0842 49.1387 29.6994 48.8087 30.2356C48.4453 30.8155 47.9241 31.2832 47.3044 31.5856C46.577 31.9463 45.7705 32.1244 44.9566 32.1042C44.1589 32.1197 43.3671 31.9663 42.6348 31.6542Z" fill="#5B4DBE"/>
<path d="M51.8305 24.1374C52.2347 23.3768 52.8499 22.7451 53.6044 22.316C54.4959 21.8509 55.4975 21.6295 56.5052 21.6747C57.5128 21.7199 58.4898 22.0301 59.3348 22.5731C60.1658 23.1938 60.7429 24.0881 60.9609 25.0931H59.1305C58.9728 24.5025 58.6096 23.9852 58.1044 23.6317C57.5501 23.2576 56.8888 23.0683 56.2174 23.0917C55.7731 23.0761 55.3306 23.1566 54.9213 23.3276C54.5119 23.4987 54.1455 23.7561 53.8479 24.0817C53.2031 24.874 52.8821 25.8752 52.9479 26.8888C52.8815 27.9104 53.2022 28.9199 53.8479 29.7217C54.1447 30.0489 54.5107 30.3078 54.9201 30.4804C55.3295 30.6529 55.7724 30.7348 56.2174 30.7203C56.8831 30.7454 57.5401 30.5641 58.0957 30.2017C58.6065 29.8405 58.9726 29.3143 59.1305 28.7145H60.9696C60.7241 29.7064 60.141 30.5853 59.3174 31.2045C58.4174 31.8524 57.3225 32.183 56.2087 32.1431C55.2961 32.1612 54.3953 31.9377 53.6 31.496C52.844 31.063 52.2287 30.4267 51.8261 29.6617C51.3832 28.8024 51.1636 27.8481 51.187 26.8845C51.1666 25.9303 51.3877 24.9862 51.8305 24.1374Z" fill="#5B4DBE"/>
<path d="M66.2305 22.1315C66.8512 21.794 67.5524 21.6268 68.2609 21.6472V23.3872H67.8261C65.9102 23.3872 64.9522 24.4129 64.9522 26.4643V31.98H63.2435V21.8315H64.9522V23.4815C65.2364 22.9188 65.6806 22.4497 66.2305 22.1315Z" fill="#5B4DBE"/>
<path d="M79.5652 27.5358H71.3478C71.3481 27.9634 71.4357 28.3865 71.6053 28.78C71.7748 29.1735 72.023 29.5294 72.3349 29.8265C72.6468 30.1235 73.0162 30.3557 73.421 30.5093C73.8258 30.6628 74.2578 30.7345 74.6913 30.7201C75.3475 30.745 75.9953 30.5667 76.5434 30.2101C77.029 29.8782 77.3945 29.4023 77.5869 28.8516H79.426C79.1627 29.8052 78.5806 30.6433 77.7739 31.2301C76.8769 31.8619 75.7929 32.1829 74.6913 32.143C73.7793 32.1558 72.8798 31.9326 72.0826 31.4958C71.3133 31.0647 70.6855 30.4252 70.2739 29.653C69.8201 28.7999 69.5928 27.8475 69.613 26.8844C69.5916 25.9265 69.8112 24.9783 70.2521 24.1244C70.6572 23.3573 71.2815 22.724 72.0478 22.303C72.8615 21.8651 73.7774 21.645 74.7043 21.6644C75.6145 21.6439 76.5141 21.8597 77.313 22.2901C78.0448 22.6889 78.6476 23.2831 79.0521 24.0044C79.4668 24.7713 79.6763 25.6298 79.6608 26.4987C79.6483 26.8459 79.6163 27.1921 79.5652 27.5358ZM77.426 24.5101C77.1466 24.0541 76.7387 23.6878 76.2521 23.4559C75.741 23.2088 75.1779 23.084 74.6087 23.0916C73.7939 23.0746 73.0035 23.366 72.4 23.9059C71.7706 24.4986 71.397 25.3074 71.3565 26.1644H77.8782C77.8899 25.583 77.7363 25.01 77.4347 24.5101H77.426Z" fill="#5B4DBE"/>
<path d="M91.2217 27.5357H82.9956C82.9959 27.9632 83.0835 28.3863 83.2531 28.7799C83.4227 29.1734 83.6708 29.5292 83.9827 29.8263C84.2946 30.1234 84.664 30.3556 85.0688 30.5091C85.4736 30.6626 85.9056 30.7344 86.3391 30.72C86.9941 30.7454 87.6406 30.567 88.1869 30.21C88.6751 29.8807 89.0413 29.4039 89.2304 28.8514H91.0739C90.8088 29.8054 90.2252 30.6433 89.4173 31.23C88.522 31.8617 87.4394 32.1828 86.3391 32.1428C85.4271 32.1556 84.5276 31.9325 83.7304 31.4957C82.9608 31.0635 82.332 30.4243 81.9174 29.6528C81.4651 28.7993 81.2393 27.8469 81.2608 26.8843C81.2394 25.9264 81.459 24.9782 81.9 24.1243C82.3032 23.3573 82.9261 22.7239 83.6913 22.3028C84.5066 21.865 85.4239 21.6449 86.3521 21.6643C87.2622 21.645 88.1615 21.8607 88.9608 22.29C89.6926 22.6887 90.2954 23.2829 90.7 24.0043C91.1134 24.7717 91.3228 25.6298 91.3086 26.4986C91.299 26.8456 91.2699 27.1918 91.2217 27.5357ZM89.0826 24.51C88.8008 24.0558 88.3936 23.6901 87.9087 23.4557C87.3975 23.2086 86.8344 23.0838 86.2652 23.0914C85.4504 23.0745 84.66 23.3659 84.0565 23.9057C83.4253 24.4971 83.0512 25.3067 83.013 26.1643H89.513C89.5286 25.5841 89.3796 25.0111 89.0826 24.51Z" fill="#5B4DBE"/>
<path d="M101.591 22.7701C102.368 23.5158 102.757 24.5929 102.757 26.0015V32.0015H101.065V26.2415C101.124 25.3982 100.848 24.5654 100.296 23.9187C100.023 23.6449 99.6943 23.4315 99.3315 23.2926C98.9686 23.1536 98.58 23.0924 98.1913 23.1129C97.7898 23.0908 97.3881 23.1536 97.0132 23.297C96.6382 23.4403 96.2987 23.6611 96.0174 23.9444C95.4457 24.6221 95.1608 25.4908 95.2218 26.3701V31.9801H93.5131V21.8315H95.2218V23.2758C95.5585 22.7568 96.036 22.3411 96.6 22.0758C97.199 21.7858 97.8588 21.639 98.5261 21.6472C99.0874 21.6209 99.6484 21.7068 100.175 21.8997C100.702 22.0927 101.184 22.3888 101.591 22.7701Z" fill="#5B4DBE"/>
<path d="M118.835 19.166V31.9803H117.126V22.4274L112.809 31.9803H111.604L107.257 22.406V31.9803H105.548V19.166H107.391L112.2 29.7603L117.009 19.166H118.835Z" fill="#2A292F"/>
<path d="M123.6 31.5004C122.813 31.0746 122.167 30.4349 121.739 29.6576C121.282 28.8056 121.053 27.8526 121.074 26.889C121.054 25.9288 121.289 24.9802 121.757 24.1376C122.194 23.3671 122.841 22.733 123.626 22.3076C124.445 21.888 125.354 21.6689 126.276 21.6689C127.199 21.6689 128.108 21.888 128.926 22.3076C129.71 22.7307 130.357 23.3617 130.796 24.129C131.265 24.974 131.501 25.9259 131.478 26.889C131.499 27.8574 131.256 28.8135 130.774 29.6576C130.325 30.4341 129.665 31.0722 128.87 31.5004C128.055 31.9323 127.142 32.1535 126.217 32.1433C125.303 32.1575 124.401 31.9359 123.6 31.5004ZM127.948 30.2404C128.498 29.9438 128.951 29.4975 129.252 28.9547C129.601 28.3186 129.773 27.6032 129.752 26.8804C129.774 26.1587 129.604 25.4439 129.261 24.8062C128.969 24.265 128.526 23.8185 127.983 23.5204C127.454 23.2475 126.866 23.1049 126.27 23.1049C125.673 23.1049 125.085 23.2475 124.557 23.5204C124.02 23.8175 123.586 24.2651 123.309 24.8062C122.978 25.4477 122.816 26.1611 122.839 26.8804C122.816 27.6039 122.972 28.322 123.296 28.9719C123.567 29.5117 123.995 29.9595 124.526 30.2576C125.044 30.5399 125.626 30.6874 126.217 30.6861C126.823 30.6821 127.418 30.5289 127.948 30.2404Z" fill="#2A292F"/>
<path d="M135.622 31.5004C134.841 31.072 134.202 30.4326 133.778 29.6576C133.321 28.8056 133.092 27.8526 133.113 26.889C133.092 25.9282 133.329 24.9791 133.8 24.1376C134.234 23.3646 134.882 22.7298 135.67 22.3076C136.487 21.888 137.396 21.6689 138.317 21.6689C139.239 21.6689 140.147 21.888 140.965 22.3076C141.75 22.729 142.398 23.3604 142.835 24.129C143.304 24.9739 143.54 25.9259 143.517 26.889C143.538 27.8574 143.295 28.8135 142.813 29.6576C142.364 30.4341 141.705 31.0722 140.909 31.5004C140.095 31.9321 139.184 32.1533 138.261 32.1433C137.339 32.1608 136.429 31.9391 135.622 31.5004ZM139.97 30.2404C140.52 29.9437 140.973 29.4975 141.274 28.9547C141.623 28.3186 141.795 27.6031 141.774 26.8804C141.801 26.1635 141.639 25.4519 141.304 24.8147C141.013 24.2747 140.571 23.8285 140.03 23.529C139.501 23.256 138.913 23.1134 138.315 23.1134C137.718 23.1134 137.129 23.256 136.6 23.529C136.064 23.8261 135.629 24.2736 135.352 24.8147C135.021 25.4563 134.86 26.1697 134.883 26.889C134.858 27.613 135.017 28.3316 135.343 28.9804C135.612 29.5221 136.041 29.9706 136.574 30.2661C137.089 30.5495 137.67 30.6971 138.261 30.6947C138.86 30.6849 139.447 30.5288 139.97 30.2404Z" fill="#2A292F"/>
<path d="M145.774 24.1369C146.17 23.3814 146.772 22.7504 147.513 22.3155C148.274 21.879 149.141 21.6553 150.022 21.6683C150.801 21.6627 151.569 21.8498 152.257 22.2126C152.905 22.5418 153.45 23.038 153.835 23.6483V18.2783H155.574V31.9926H153.835V30.0726C153.479 30.6943 152.959 31.2096 152.33 31.564C151.622 31.9632 150.816 32.1633 150 32.1426C149.123 32.1531 148.26 31.9209 147.51 31.4725C146.76 31.024 146.152 30.3772 145.757 29.6055C145.319 28.7579 145.1 27.8175 145.117 26.8669C145.102 25.9172 145.328 24.9789 145.774 24.1369ZM153.383 24.8869C153.089 24.3502 152.649 23.9049 152.113 23.6012C151.578 23.3061 150.974 23.1513 150.361 23.1513C149.747 23.1513 149.144 23.3061 148.609 23.6012C148.075 23.9046 147.64 24.3502 147.352 24.8869C147.027 25.5043 146.865 26.1928 146.883 26.8883C146.865 27.592 147.027 28.2888 147.352 28.9155C147.637 29.4609 148.073 29.9156 148.609 30.2269C149.136 30.5301 149.737 30.6871 150.348 30.6812C150.958 30.685 151.559 30.5281 152.087 30.2269C152.628 29.9175 153.068 29.4626 153.357 28.9155C153.681 28.2947 153.842 27.6036 153.826 26.9055C153.854 26.2064 153.701 25.5119 153.383 24.8869Z" fill="#2A292F"/>
</svg>
