<svg width="160" height="45" viewBox="0 0 160 45" fill="none" xmlns="http://www.w3.org/2000/svg">
<path d="M11.4001 25.7529C11.3991 27.7422 11.8278 29.7089 12.6577 31.5223C13.4876 33.3357 14.6996 34.9541 16.2131 36.27L13.7349 38.7129C11.0809 36.3403 9.21768 33.2314 8.39049 29.7951C7.5633 26.3588 7.81087 22.7562 9.10061 19.4612C10.3904 16.1663 12.6619 13.3334 15.6162 11.3353C18.5706 9.33725 22.0694 8.26762 25.6523 8.26715V11.6957C21.8723 11.7003 18.2485 13.183 15.5765 15.8185C12.9044 18.454 11.4024 22.0269 11.4001 25.7529Z" fill="#F9DA2A"/>
<path d="M4.41748 25.7529C4.41612 28.646 5.02449 31.5079 6.20403 34.1571C7.38356 36.8064 9.10855 39.1852 11.2697 41.1429L16.2131 36.27C14.0461 34.3813 12.5136 31.8872 11.8193 29.1192C11.1251 26.3513 11.302 23.4406 12.3266 20.7741C13.3511 18.1077 15.1748 15.8118 17.5551 14.1917C19.9354 12.5715 22.7596 11.704 25.6523 11.7043V4.84714C20.0267 4.85279 14.6329 7.05635 10.6526 10.975C6.67226 14.8936 4.43014 20.2077 4.41748 25.7529Z" fill="#F9DA2A"/>
<path d="M24.9434 19.8729C23.7271 19.872 22.5379 20.2268 21.5262 20.8924C20.5146 21.5579 19.7259 22.5043 19.2601 23.6118C18.7942 24.7193 18.6721 25.9381 18.9092 27.1141C19.1463 28.29 19.7319 29.3702 20.5919 30.2179C21.452 31.0657 22.5478 31.6429 23.7408 31.8766C24.9337 32.1103 26.1702 31.9899 27.2938 31.5308C28.4173 31.0716 29.3774 30.2942 30.0526 29.2969C30.7278 28.2997 31.0878 27.1275 31.0869 25.9286C31.0869 24.3225 30.4397 22.7822 29.2875 21.6465C28.1354 20.5109 26.5728 19.8729 24.9434 19.8729ZM26.4173 25.5429C26.0287 25.5429 25.6487 25.4293 25.3255 25.2164C25.0024 25.0035 24.7505 24.701 24.6017 24.347C24.453 23.9931 24.4141 23.6036 24.4899 23.2278C24.5657 22.852 24.7529 22.5069 25.0277 22.236C25.3026 21.965 25.6527 21.7805 26.034 21.7058C26.4152 21.6311 26.8103 21.6694 27.1694 21.816C27.5285 21.9627 27.8354 22.2109 28.0514 22.5295C28.2673 22.8481 28.3826 23.2226 28.3826 23.6057C28.3831 23.8603 28.3327 24.1124 28.2341 24.3477C28.1356 24.583 27.9908 24.7968 27.8082 24.9767C27.6256 25.1567 27.4088 25.2994 27.1701 25.3966C26.9314 25.4937 26.6756 25.5434 26.4173 25.5429Z" fill="#B5AEFF"/>
<path d="M42.6348 31.6543C41.9944 31.3869 41.4398 30.9528 41.0305 30.3986C40.6425 29.8521 40.4345 29.2013 40.4348 28.5343H42.2566C42.3065 29.1203 42.5781 29.6664 43.0174 30.0643C43.5595 30.5111 44.256 30.7338 44.9609 30.6857C45.6565 30.7244 46.3421 30.5093 46.887 30.0814C47.115 29.8925 47.2968 29.6552 47.4187 29.3873C47.5407 29.1194 47.5997 28.8278 47.5913 28.5343C47.6043 28.0947 47.4491 27.6664 47.1566 27.3343C46.873 27.0215 46.5184 26.7792 46.1218 26.6271C45.687 26.4686 45.1522 26.2971 44.4522 26.1086C43.7433 25.9397 43.0485 25.7176 42.3739 25.4443C41.8453 25.2144 41.3856 24.8543 41.0392 24.3986C40.6445 23.8381 40.4502 23.1641 40.487 22.4829C40.4755 21.8192 40.6647 21.1673 41.0305 20.61C41.4108 20.057 41.9411 19.6204 42.5609 19.35C43.276 19.0485 44.0486 18.9023 44.8261 18.9214C45.9057 18.8754 46.9688 19.1945 47.8392 19.8257C48.2199 20.1124 48.5348 20.4752 48.7634 20.8903C48.9919 21.3054 49.1289 21.7634 49.1653 22.2343H47.3044C47.2217 21.7211 46.9394 21.2599 46.5174 20.9486C45.9901 20.5512 45.337 20.3508 44.6739 20.3829C44.0474 20.3573 43.4317 20.55 42.9348 20.9271C42.7105 21.1137 42.5329 21.3489 42.416 21.6143C42.2991 21.8797 42.246 22.1682 42.2609 22.4571C42.2505 22.8637 42.3912 23.26 42.6566 23.5714C42.9305 23.8694 43.2715 24.0998 43.6522 24.2443C44.1965 24.4473 44.7509 24.6232 45.3131 24.7714C46.0241 24.9552 46.7214 25.1872 47.4 25.4657C47.9328 25.7026 48.3975 26.0664 48.7522 26.5243C49.1537 27.0884 49.3513 27.7691 49.3131 28.4571C49.3132 29.0843 49.1387 29.6995 48.8087 30.2357C48.4453 30.8156 47.9241 31.2833 47.3044 31.5857C46.577 31.9464 45.7705 32.1245 44.9566 32.1043C44.1589 32.1198 43.3671 31.9663 42.6348 31.6543Z" fill="#B5AEFF"/>
<path d="M51.8305 24.1371C52.2347 23.3765 52.8499 22.7449 53.6044 22.3157C54.4959 21.8506 55.4975 21.6292 56.5052 21.6745C57.5128 21.7197 58.4898 22.0299 59.3348 22.5729C60.1658 23.1935 60.7429 24.0878 60.9609 25.0929H59.1305C58.9728 24.5022 58.6096 23.985 58.1044 23.6314C57.5501 23.2573 56.8888 23.0681 56.2174 23.0914C55.7731 23.0758 55.3306 23.1563 54.9213 23.3274C54.5119 23.4984 54.1455 23.7558 53.8479 24.0814C53.2031 24.8737 52.8821 25.875 52.9479 26.8886C52.8815 27.9101 53.2022 28.9197 53.8479 29.7214C54.1447 30.0486 54.5107 30.3076 54.9201 30.4801C55.3295 30.6527 55.7724 30.7345 56.2174 30.72C56.8831 30.7452 57.5401 30.5638 58.0957 30.2014C58.6065 29.8403 58.9726 29.314 59.1305 28.7143H60.9696C60.7241 29.7062 60.141 30.5851 59.3174 31.2043C58.4174 31.8522 57.3225 32.1828 56.2087 32.1429C55.2961 32.1609 54.3953 31.9375 53.6 31.4957C52.844 31.0627 52.2287 30.4265 51.8261 29.6614C51.3832 28.8021 51.1636 27.8479 51.187 26.8843C51.1666 25.9301 51.3877 24.9859 51.8305 24.1371Z" fill="#B5AEFF"/>
<path d="M66.2304 22.1314C66.8511 21.794 67.5522 21.6268 68.2608 21.6471V23.3871H67.826C65.9101 23.3871 64.9521 24.4129 64.9521 26.4643V31.98H63.2434V21.8314H64.9521V23.4814C65.2363 22.9187 65.6804 22.4497 66.2304 22.1314Z" fill="#B5AEFF"/>
<path d="M79.5652 27.5357H71.3478C71.3481 27.9633 71.4357 28.3864 71.6053 28.7799C71.7748 29.1734 72.023 29.5292 72.3349 29.8263C72.6468 30.1234 73.0162 30.3556 73.421 30.5091C73.8258 30.6627 74.2578 30.7344 74.6913 30.72C75.3475 30.7449 75.9953 30.5665 76.5434 30.21C77.029 29.878 77.3945 29.4021 77.5869 28.8514H79.426C79.1627 29.805 78.5806 30.6431 77.7739 31.23C76.8769 31.8618 75.7929 32.1828 74.6913 32.1429C73.7793 32.1556 72.8798 31.9325 72.0826 31.4957C71.3133 31.0646 70.6855 30.425 70.2739 29.6529C69.8201 28.7997 69.5928 27.8473 69.613 26.8843C69.5916 25.9264 69.8112 24.9782 70.2521 24.1243C70.6572 23.3572 71.2815 22.7239 72.0478 22.3029C72.8615 21.865 73.7774 21.6448 74.7043 21.6643C75.6145 21.6438 76.5141 21.8596 77.313 22.29C78.0448 22.6888 78.6476 23.2829 79.0521 24.0043C79.4668 24.7712 79.6763 25.6297 79.6608 26.4986C79.6483 26.8458 79.6163 27.192 79.5652 27.5357ZM77.426 24.51C77.1466 24.0539 76.7387 23.6877 76.2521 23.4557C75.741 23.2086 75.1779 23.0838 74.6087 23.0914C73.7939 23.0745 73.0035 23.3659 72.4 23.9057C71.7706 24.4984 71.397 25.3072 71.3565 26.1643H77.8782C77.8899 25.5829 77.7363 25.0098 77.4347 24.51H77.426Z" fill="#B5AEFF"/>
<path d="M91.2218 27.5357H82.9957C82.9961 27.9632 83.0836 28.3863 83.2532 28.7799C83.4228 29.1734 83.6709 29.5292 83.9828 29.8263C84.2948 30.1234 84.6641 30.3556 85.0689 30.5091C85.4737 30.6626 85.9057 30.7344 86.3392 30.72C86.9942 30.7454 87.6407 30.567 88.187 30.21C88.6752 29.8807 89.0414 29.4039 89.2305 28.8514H91.074C90.8089 29.8054 90.2253 30.6433 89.4175 31.23C88.5222 31.8617 87.4395 32.1828 86.3392 32.1428C85.4272 32.1556 84.5277 31.9325 83.7305 31.4957C82.9609 31.0635 82.3321 30.4243 81.9175 29.6528C81.4653 28.7993 81.2394 27.8469 81.2609 26.8843C81.2396 25.9264 81.4591 24.9782 81.9001 24.1243C82.3033 23.3573 82.9262 22.7239 83.6914 22.3028C84.5067 21.865 85.424 21.6449 86.3523 21.6643C87.2623 21.645 88.1616 21.8607 88.9609 22.29C89.6927 22.6887 90.2955 23.2829 90.7001 24.0043C91.1135 24.7717 91.3229 25.6298 91.3088 26.4986C91.2991 26.8456 91.2701 27.1918 91.2218 27.5357ZM89.0827 24.51C88.8009 24.0558 88.3937 23.6901 87.9088 23.4557C87.3976 23.2086 86.8346 23.0838 86.2653 23.0914C85.4505 23.0745 84.6601 23.3659 84.0566 23.9057C83.4254 24.4971 83.0514 25.3067 83.0131 26.1643H89.5131C89.5288 25.5841 89.3797 25.0111 89.0827 24.51Z" fill="#B5AEFF"/>
<path d="M101.591 22.77C102.368 23.5157 102.756 24.5928 102.756 26.0014V32.0014H101.065V26.2414C101.124 25.3981 100.848 24.5653 100.296 23.9186C100.023 23.6448 99.6942 23.4314 99.3313 23.2925C98.9685 23.1535 98.5799 23.0923 98.1912 23.1128C97.7897 23.0907 97.388 23.1535 97.013 23.2969C96.6381 23.4403 96.2986 23.661 96.0173 23.9443C95.4456 24.622 95.1607 25.4907 95.2216 26.37V31.98H93.5129V21.8314H95.2216V23.2757C95.5584 22.7567 96.0358 22.341 96.5999 22.0757C97.1989 21.7857 97.8587 21.6389 98.526 21.6471C99.0873 21.6208 99.6483 21.7067 100.175 21.8997C100.702 22.0926 101.184 22.3887 101.591 22.77Z" fill="#B5AEFF"/>
<path d="M118.835 19.1657V31.98H117.126V22.4271L112.809 31.98H111.604L107.257 22.4057V31.98H105.548V19.1657H107.391L112.2 29.76L117.009 19.1657H118.835Z" fill="#F9DA2A"/>
<path d="M123.6 31.5C122.813 31.0742 122.167 30.4345 121.739 29.6572C121.282 28.8052 121.053 27.8522 121.074 26.8886C121.054 25.9284 121.289 24.9798 121.756 24.1372C122.194 23.3666 122.841 22.7326 123.626 22.3072C124.444 21.8876 125.353 21.6685 126.276 21.6685C127.199 21.6685 128.108 21.8876 128.926 22.3072C129.71 22.7302 130.357 23.3612 130.796 24.1286C131.265 24.9735 131.5 25.9255 131.478 26.8886C131.499 27.857 131.256 28.8131 130.774 29.6572C130.325 30.4337 129.665 31.0718 128.869 31.5C128.055 31.9319 127.142 32.1531 126.217 32.1429C125.303 32.157 124.401 31.9354 123.6 31.5ZM127.948 30.24C128.498 29.9433 128.951 29.4971 129.252 28.9543C129.601 28.3182 129.773 27.6027 129.752 26.88C129.774 26.1583 129.604 25.4434 129.261 24.8057C128.969 24.2646 128.526 23.8181 127.983 23.52C127.454 23.2471 126.866 23.1045 126.269 23.1045C125.673 23.1045 125.085 23.2471 124.556 23.52C124.02 23.8171 123.586 24.2646 123.309 24.8057C122.978 25.4473 122.816 26.1607 122.839 26.88C122.815 27.6035 122.972 28.3216 123.296 28.9714C123.567 29.5113 123.995 29.9591 124.526 30.2572C125.044 30.5395 125.626 30.687 126.217 30.6857C126.823 30.6817 127.418 30.5285 127.948 30.24Z" fill="#F9DA2A"/>
<path d="M135.622 31.5C134.842 31.0716 134.202 30.4321 133.778 29.6571C133.321 28.8051 133.092 27.8522 133.113 26.8886C133.092 25.9278 133.329 24.9786 133.8 24.1371C134.234 23.3642 134.883 22.7293 135.67 22.3071C136.487 21.8876 137.396 21.6685 138.317 21.6685C139.239 21.6685 140.148 21.8876 140.965 22.3071C141.75 22.7286 142.398 23.3599 142.835 24.1286C143.304 24.9735 143.54 25.9254 143.517 26.8886C143.538 27.8569 143.295 28.8131 142.813 29.6571C142.364 30.4337 141.705 31.0718 140.909 31.5C140.096 31.9317 139.185 32.1529 138.261 32.1429C137.339 32.1604 136.429 31.9387 135.622 31.5ZM139.97 30.24C140.52 29.9433 140.973 29.4971 141.274 28.9543C141.623 28.3182 141.795 27.6027 141.774 26.88C141.801 26.163 141.639 25.4514 141.304 24.8143C141.013 24.2743 140.571 23.8281 140.031 23.5286C139.501 23.2556 138.913 23.113 138.315 23.113C137.718 23.113 137.129 23.2556 136.6 23.5286C136.064 23.8256 135.63 24.2732 135.352 24.8143C135.022 25.4559 134.86 26.1692 134.883 26.8886C134.858 27.6126 135.017 28.3312 135.344 28.98C135.612 29.5217 136.041 29.9702 136.574 30.2657C137.09 30.5491 137.671 30.6967 138.261 30.6943C138.86 30.6845 139.447 30.5284 139.97 30.24Z" fill="#F9DA2A"/>
<path d="M145.774 24.1371C146.17 23.3817 146.772 22.7507 147.513 22.3157C148.274 21.8792 149.141 21.6555 150.022 21.6686C150.801 21.663 151.569 21.8501 152.257 22.2128C152.905 22.5421 153.45 23.0382 153.835 23.6486V18.2786H155.574V31.9928H153.835V30.0728C153.479 30.6946 152.959 31.2099 152.33 31.5643C151.622 31.9634 150.816 32.1635 150 32.1428C149.123 32.1534 148.26 31.9212 147.51 31.4727C146.76 31.0242 146.152 30.3774 145.757 29.6057C145.319 28.7581 145.1 27.8178 145.117 26.8671C145.102 25.9175 145.328 24.9791 145.774 24.1371ZM153.383 24.8871C153.089 24.3504 152.649 23.9051 152.113 23.6014C151.578 23.3064 150.974 23.1515 150.361 23.1515C149.747 23.1515 149.144 23.3064 148.609 23.6014C148.075 23.9048 147.64 24.3505 147.352 24.8871C147.027 25.5045 146.865 26.1931 146.883 26.8886C146.865 27.5923 147.027 28.2891 147.352 28.9157C147.637 29.4611 148.073 29.9159 148.609 30.2271C149.136 30.5303 149.737 30.6873 150.348 30.6814C150.958 30.6852 151.559 30.5284 152.087 30.2271C152.628 29.9178 153.068 29.4629 153.357 28.9157C153.681 28.2949 153.842 27.6039 153.826 26.9057C153.854 26.2067 153.701 25.5121 153.383 24.8871Z" fill="#F9DA2A"/>
</svg>
